<?xml version="1.0" encoding="UTF-8"?>
<!-- Created with Inkscape (http://www.inkscape.org/) -->
<svg width="100" height="650" version="1.1" viewBox="0 0 100 650" xmlns="http://www.w3.org/2000/svg" xmlns:cc="http://creativecommons.org/ns#" xmlns:dc="http://purl.org/dc/elements/1.1/" xmlns:rdf="http://www.w3.org/1999/02/22-rdf-syntax-ns#">
 <metadata>
  <rdf:RDF>
   <cc:Work rdf:about="">
    <dc:format>image/svg+xml</dc:format>
    <dc:type rdf:resource="http://purl.org/dc/dcmitype/StillImage"/>
    <dc:title/>
   </cc:Work>
  </rdf:RDF>
 </metadata>
 <g transform="translate(-107.51 47.927)" fill="#e00000">
  <circle cx="170.83" cy="597" r="4.9153"/>
  <circle cx="172.15" cy="573.56" r="4.9153"/>
  <circle cx="171.27" cy="557.79" r="4.9153"/>
  <circle cx="165.79" cy="544.22" r="4.9153"/>
  <circle cx="164.92" cy="526.26" r="4.9153"/>
  <circle cx="165.79" cy="508.74" r="4.9153"/>
  <circle cx="166.23" cy="489.9" r="4.9153"/>
  <circle cx="163.17" cy="467.56" r="4.9153"/>
  <circle cx="161.19" cy="446.32" r="4.9153"/>
  <circle cx="166.01" cy="423.54" r="4.9153"/>
  <circle cx="165.14" cy="400.98" r="4.9153"/>
  <circle cx="169.08" cy="384.77" r="4.9153"/>
  <circle cx="169.96" cy="362" r="4.9153"/>
  <circle cx="161.85" cy="342.5" r="4.9153"/>
  <circle cx="157.91" cy="323.67" r="4.9153"/>
  <circle cx="147.18" cy="297.82" r="4.9153"/>
  <circle cx="143.02" cy="276.36" r="4.9153"/>
  <circle cx="146.08" cy="250.95" r="4.9153"/>
  <circle cx="147.4" cy="225.99" r="4.9153"/>
  <circle cx="151.12" cy="198.83" r="4.9153"/>
  <circle cx="152.65" cy="172.99" r="4.9153"/>
  <circle cx="144.11" cy="148.02" r="4.9153"/>
  <circle cx="141.26" cy="126.55" r="4.9153"/>
  <circle cx="143.02" cy="102.68" r="4.9153"/>
  <circle cx="144.11" cy="77.276" r="4.9153"/>
 </g>
</svg>
