<?xml version="1.0" encoding="UTF-8"?>
<!-- Created with Inkscape (http://www.inkscape.org/) -->
<svg width="100" height="650" version="1.1" viewBox="0 0 100 650" xmlns="http://www.w3.org/2000/svg" xmlns:cc="http://creativecommons.org/ns#" xmlns:dc="http://purl.org/dc/elements/1.1/" xmlns:rdf="http://www.w3.org/1999/02/22-rdf-syntax-ns#">
 <metadata>
  <rdf:RDF>
   <cc:Work rdf:about="">
    <dc:format>image/svg+xml</dc:format>
    <dc:type rdf:resource="http://purl.org/dc/dcmitype/StillImage"/>
    <dc:title/>
   </cc:Work>
  </rdf:RDF>
 </metadata>
 <g fill="#e00000">
  <circle cx="69.341" cy="645.14" r="4.9153"/>
  <circle cx="67.252" cy="619.43" r="4.9153"/>
  <circle cx="66.128" cy="604.97" r="4.9153"/>
  <circle cx="67.895" cy="590.35" r="4.9153"/>
  <circle cx="67.895" cy="568.02" r="4.9153"/>
  <circle cx="64.521" cy="548.9" r="4.9153"/>
  <circle cx="63.557" cy="524.96" r="4.9153"/>
  <circle cx="58.737" cy="496.04" r="4.9153"/>
  <circle cx="56.969" cy="467.76" r="4.9153"/>
  <circle cx="46.365" cy="435.79" r="4.9153"/>
  <circle cx="41.545" cy="408.31" r="4.9153"/>
  <circle cx="45.08" cy="381.16" r="4.9153"/>
  <circle cx="43.955" cy="349.99" r="4.9153"/>
  <circle cx="48.936" cy="320.75" r="4.9153"/>
  <circle cx="49.739" cy="284.75" r="4.9153"/>
  <circle cx="40.902" cy="255.51" r="4.9153"/>
  <circle cx="39.295" cy="221.61" r="4.9153"/>
  <circle cx="39.938" cy="187.87" r="4.9153"/>
  <circle cx="40.902" cy="155.57" r="4.9153"/>
  <circle cx="33.672" cy="117.66" r="4.9153"/>
  <circle cx="29.494" cy="85.039" r="4.9153"/>
  <circle cx="32.387" cy="49.691" r="4.9153"/>
  <circle cx="31.744" cy="10.809" r="4.9153"/>
 </g>
</svg>
