<?xml version="1.0" encoding="UTF-8"?>
<!-- Created with Inkscape (http://www.inkscape.org/) -->
<svg width="100" height="650" version="1.1" viewBox="0 0 100 650" xmlns="http://www.w3.org/2000/svg" xmlns:cc="http://creativecommons.org/ns#" xmlns:dc="http://purl.org/dc/elements/1.1/" xmlns:rdf="http://www.w3.org/1999/02/22-rdf-syntax-ns#">
 <metadata>
  <rdf:RDF>
   <cc:Work rdf:about="">
    <dc:format>image/svg+xml</dc:format>
    <dc:type rdf:resource="http://purl.org/dc/dcmitype/StillImage"/>
    <dc:title/>
   </cc:Work>
  </rdf:RDF>
 </metadata>
 <g fill="#e00000">
  <circle cx="50.03" cy="645.03" r="4.9153"/>
  <circle cx="49.85" cy="624.98" r="4.9153"/>
  <circle cx="50.211" cy="616.32" r="4.9153"/>
  <circle cx="47.863" cy="602.59" r="4.9153"/>
  <circle cx="46.237" cy="588.14" r="4.9153"/>
  <circle cx="48.043" cy="573.51" r="4.9153"/>
  <circle cx="48.043" cy="559.6" r="4.9153"/>
  <circle cx="43.347" cy="544.97" r="4.9153"/>
  <circle cx="41.903" cy="531.97" r="4.9153"/>
  <circle cx="39.193" cy="516.62" r="4.9153"/>
  <circle cx="36.845" cy="501.44" r="4.9153"/>
  <circle cx="39.013" cy="485.19" r="4.9153"/>
  <circle cx="40.458" cy="469.66" r="4.9153"/>
  <circle cx="38.471" cy="453.76" r="4.9153"/>
  <circle cx="37.748" cy="437.51" r="4.9153"/>
  <circle cx="34.678" cy="421.43" r="4.9153"/>
  <circle cx="33.775" cy="404.27" r="4.9153"/>
  <circle cx="31.969" cy="386.94" r="4.9153"/>
  <circle cx="31.066" cy="370.5" r="4.9153"/>
  <circle cx="29.26" cy="352.98" r="4.9153"/>
  <circle cx="27.273" cy="335.28" r="4.9153"/>
  <circle cx="26.008" cy="319.2" r="4.9153"/>
  <circle cx="25.467" cy="300.78" r="4.9153"/>
  <circle cx="23.119" cy="280.73" r="4.9153"/>
  <circle cx="23.66" cy="262.49" r="4.9153"/>
  <circle cx="21.493" cy="245.15" r="4.9153"/>
  <circle cx="20.229" cy="228.72" r="4.9153"/>
  <circle cx="17.52" cy="211.92" r="4.9153"/>
  <circle cx="15.713" cy="193.32" r="4.9153"/>
  <circle cx="16.797" cy="174.53" r="4.9153"/>
  <circle cx="18.423" cy="157.55" r="4.9153"/>
  <circle cx="14.088" cy="140.94" r="4.9153"/>
  <circle cx="14.269" cy="124.5" r="4.9153"/>
  <circle cx="9.9338" cy="105.36" r="4.9153"/>
  <circle cx="7.5858" cy="87.115" r="4.9153"/>
  <circle cx="9.7532" cy="69.415" r="4.9153"/>
  <circle cx="11.017" cy="52.076" r="4.9153"/>
  <circle cx="11.921" cy="34.015" r="4.9153"/>
  <circle cx="13.004" cy="16.856" r="4.9153"/>
 </g>
</svg>
