<?xml version="1.0" encoding="UTF-8"?>
<!-- Created with Inkscape (http://www.inkscape.org/) -->
<svg width="100" height="650" version="1.1" viewBox="0 0 100 650" xmlns="http://www.w3.org/2000/svg" xmlns:cc="http://creativecommons.org/ns#" xmlns:dc="http://purl.org/dc/elements/1.1/" xmlns:rdf="http://www.w3.org/1999/02/22-rdf-syntax-ns#">
 <metadata>
  <rdf:RDF>
   <cc:Work rdf:about="">
    <dc:format>image/svg+xml</dc:format>
    <dc:type rdf:resource="http://purl.org/dc/dcmitype/StillImage"/>
    <dc:title/>
   </cc:Work>
  </rdf:RDF>
 </metadata>
 <g transform="translate(20.997 91.905)" fill="#e00000">
  <circle cx="28.324" cy="553.07" r="4.9153"/>
  <circle cx="28.78" cy="534.34" r="4.9153"/>
  <circle cx="28.171" cy="527.18" r="4.9153"/>
  <circle cx="26.039" cy="516.68" r="4.9153"/>
  <circle cx="24.517" cy="506.17" r="4.9153"/>
  <circle cx="22.08" cy="495.36" r="4.9153"/>
  <circle cx="21.167" cy="483.48" r="4.9153"/>
  <circle cx="25.126" cy="470.23" r="4.9153"/>
  <circle cx="27.258" cy="458.2" r="4.9153"/>
  <circle cx="31.521" cy="444.8" r="4.9153"/>
  <circle cx="31.826" cy="433.38" r="4.9153"/>
  <circle cx="36.851" cy="419.98" r="4.9153"/>
  <circle cx="38.069" cy="406.73" r="4.9153"/>
  <circle cx="39.897" cy="393.64" r="4.9153"/>
  <circle cx="40.963" cy="382.83" r="4.9153"/>
  <circle cx="38.983" cy="371.56" r="4.9153"/>
  <circle cx="38.678" cy="359.53" r="4.9153"/>
  <circle cx="40.506" cy="345.82" r="4.9153"/>
  <circle cx="42.485" cy="332.42" r="4.9153"/>
  <circle cx="47.663" cy="320.09" r="4.9153"/>
  <circle cx="50.099" cy="307.3" r="4.9153"/>
  <circle cx="48.881" cy="293.44" r="4.9153"/>
  <circle cx="47.967" cy="279.73" r="4.9153"/>
  <circle cx="42.942" cy="266.94" r="4.9153"/>
  <circle cx="40.354" cy="252.78" r="4.9153"/>
  <circle cx="41.572" cy="239.08" r="4.9153"/>
  <circle cx="45.226" cy="224.91" r="4.9153"/>
  <circle cx="42.638" cy="210.75" r="4.9153"/>
  <circle cx="41.724" cy="194.76" r="4.9153"/>
  <circle cx="42.638" cy="179.99" r="4.9153"/>
  <circle cx="42.181" cy="167.66" r="4.9153"/>
  <circle cx="40.658" cy="154.1" r="4.9153"/>
  <circle cx="38.069" cy="137.51" r="4.9153"/>
  <circle cx="36.394" cy="122.13" r="4.9153"/>
  <circle cx="34.719" cy="106.9" r="4.9153"/>
  <circle cx="30.456" cy="90.301" r="4.9153"/>
  <circle cx="31.065" cy="74.768" r="4.9153"/>
  <circle cx="32.74" cy="58.475" r="4.9153"/>
  <circle cx="34.719" cy="42.79" r="4.9153"/>
 </g>
</svg>
