<?xml version="1.0" encoding="UTF-8"?>
<!-- Created with Inkscape (http://www.inkscape.org/) -->
<svg width="100" height="650" version="1.1" viewBox="0 0 100 650" xmlns="http://www.w3.org/2000/svg" xmlns:cc="http://creativecommons.org/ns#" xmlns:dc="http://purl.org/dc/elements/1.1/" xmlns:rdf="http://www.w3.org/1999/02/22-rdf-syntax-ns#">
 <metadata>
  <rdf:RDF>
   <cc:Work rdf:about="">
    <dc:format>image/svg+xml</dc:format>
    <dc:type rdf:resource="http://purl.org/dc/dcmitype/StillImage"/>
    <dc:title/>
   </cc:Work>
  </rdf:RDF>
 </metadata>
 <g transform="translate(4.3018 44.968)" fill="#e00000">
  <circle cx="45.717" cy="600.06" r="4.9153"/>
  <circle cx="45.548" cy="580.66" r="4.9153"/>
  <circle cx="45.211" cy="573.57" r="4.9153"/>
  <circle cx="42.849" cy="563.11" r="4.9153"/>
  <circle cx="42.006" cy="549.78" r="4.9153"/>
  <circle cx="41.668" cy="537.3" r="4.9153"/>
  <circle cx="40.993" cy="524.65" r="4.9153"/>
  <circle cx="38.632" cy="510.65" r="4.9153"/>
  <circle cx="39.306" cy="496.48" r="4.9153"/>
  <circle cx="42.68" cy="480.79" r="4.9153"/>
  <circle cx="42.68" cy="464.59" r="4.9153"/>
  <circle cx="45.211" cy="449.07" r="4.9153"/>
  <circle cx="45.042" cy="433.55" r="4.9153"/>
  <circle cx="43.861" cy="420.39" r="4.9153"/>
  <circle cx="42.68" cy="405.21" r="4.9153"/>
  <circle cx="46.392" cy="392.05" r="4.9153"/>
  <circle cx="47.573" cy="377.54" r="4.9153"/>
  <circle cx="50.44" cy="362.53" r="4.9153"/>
  <circle cx="50.272" cy="349.37" r="4.9153"/>
  <circle cx="49.934" cy="333.18" r="4.9153"/>
  <circle cx="48.247" cy="320.02" r="4.9153"/>
  <circle cx="48.079" cy="304.33" r="4.9153"/>
  <circle cx="46.898" cy="290.5" r="4.9153"/>
  <circle cx="43.524" cy="275.99" r="4.9153"/>
  <circle cx="41.331" cy="261.48" r="4.9153"/>
  <circle cx="44.536" cy="245.45" r="4.9153"/>
  <circle cx="43.861" cy="227.74" r="4.9153"/>
  <circle cx="45.38" cy="212.39" r="4.9153"/>
  <circle cx="46.392" cy="196.03" r="4.9153"/>
  <circle cx="43.018" cy="179.66" r="4.9153"/>
  <circle cx="42.174" cy="164.99" r="4.9153"/>
  <circle cx="45.38" cy="150.65" r="4.9153"/>
  <circle cx="45.38" cy="136.98" r="4.9153"/>
  <circle cx="45.548" cy="123.65" r="4.9153"/>
  <circle cx="43.693" cy="107.46" r="4.9153"/>
  <circle cx="45.211" cy="94.302" r="4.9153"/>
  <circle cx="45.38" cy="77.432" r="4.9153"/>
  <circle cx="44.199" cy="59.381" r="4.9153"/>
  <circle cx="43.018" cy="41.162" r="4.9153"/>
 </g>
</svg>
