<?xml version="1.0" encoding="UTF-8"?>
<!-- Created with Inkscape (http://www.inkscape.org/) -->
<svg width="100" height="650" version="1.1" viewBox="0 0 100 650" xmlns="http://www.w3.org/2000/svg" xmlns:cc="http://creativecommons.org/ns#" xmlns:dc="http://purl.org/dc/elements/1.1/" xmlns:rdf="http://www.w3.org/1999/02/22-rdf-syntax-ns#">
 <metadata>
  <rdf:RDF>
   <cc:Work rdf:about="">
    <dc:format>image/svg+xml</dc:format>
    <dc:type rdf:resource="http://purl.org/dc/dcmitype/StillImage"/>
    <dc:title/>
   </cc:Work>
  </rdf:RDF>
 </metadata>
 <g transform="translate(8.7248 70.829)" fill="#e00000">
  <circle cx="40.83" cy="574.1" r="4.9153"/>
  <circle cx="41.84" cy="553.91" r="4.9153"/>
  <circle cx="42.961" cy="546.5" r="4.9153"/>
  <circle cx="43.859" cy="536.18" r="4.9153"/>
  <circle cx="44.532" cy="525.75" r="4.9153"/>
  <circle cx="41.167" cy="514.2" r="4.9153"/>
  <circle cx="39.596" cy="501.86" r="4.9153"/>
  <circle cx="36.231" cy="488.51" r="4.9153"/>
  <circle cx="34.661" cy="476.4" r="4.9153"/>
  <circle cx="32.081" cy="465.18" r="4.9153"/>
  <circle cx="31.744" cy="452.84" r="4.9153"/>
  <circle cx="31.744" cy="440.17" r="4.9153"/>
  <circle cx="32.866" cy="427.94" r="4.9153"/>
  <circle cx="34.661" cy="414.59" r="4.9153"/>
  <circle cx="35.334" cy="401.47" r="4.9153"/>
  <circle cx="30.623" cy="386.89" r="4.9153"/>
  <circle cx="28.491" cy="372.41" r="4.9153"/>
  <circle cx="31.183" cy="357.61" r="4.9153"/>
  <circle cx="31.969" cy="346.28" r="4.9153"/>
  <circle cx="34.324" cy="331.81" r="4.9153"/>
  <circle cx="37.689" cy="317.23" r="4.9153"/>
  <circle cx="38.923" cy="302.08" r="4.9153"/>
  <circle cx="40.381" cy="289.41" r="4.9153"/>
  <circle cx="43.747" cy="275.72" r="4.9153"/>
  <circle cx="46.775" cy="260.47" r="4.9153"/>
  <circle cx="52.272" cy="245.33" r="4.9153"/>
  <circle cx="53.954" cy="232.54" r="4.9153"/>
  <circle cx="53.393" cy="216.72" r="4.9153"/>
  <circle cx="52.159" cy="200.57" r="4.9153"/>
  <circle cx="56.534" cy="185.76" r="4.9153"/>
  <circle cx="58.553" cy="171.4" r="4.9153"/>
  <circle cx="53.393" cy="157.5" r="4.9153"/>
  <circle cx="53.142" cy="139.6" r="4.9153"/>
  <circle cx="49.97" cy="124.53" r="4.9153"/>
  <circle cx="48.859" cy="108.35" r="4.9153"/>
  <circle cx="47.59" cy="90.738" r="4.9153"/>
  <circle cx="46.321" cy="76.62" r="4.9153"/>
  <circle cx="49.335" cy="61.708" r="4.9153"/>
  <circle cx="49.335" cy="47.114" r="4.9153"/>
 </g>
</svg>
