<?xml version="1.0" encoding="UTF-8"?>
<!-- Created with Inkscape (http://www.inkscape.org/) -->
<svg width="100" height="650" version="1.1" viewBox="0 0 100 650" xmlns="http://www.w3.org/2000/svg" xmlns:cc="http://creativecommons.org/ns#" xmlns:dc="http://purl.org/dc/elements/1.1/" xmlns:rdf="http://www.w3.org/1999/02/22-rdf-syntax-ns#">
 <metadata>
  <rdf:RDF>
   <cc:Work rdf:about="">
    <dc:format>image/svg+xml</dc:format>
    <dc:type rdf:resource="http://purl.org/dc/dcmitype/StillImage"/>
    <dc:title/>
   </cc:Work>
  </rdf:RDF>
 </metadata>
 <g transform="translate(1.6372 117.92)" fill="#e00000">
  <circle cx="48.222" cy="526.88" r="4.9153"/>
  <circle cx="48.222" cy="506.34" r="4.9153"/>
  <circle cx="48.52" cy="497.26" r="4.9153"/>
  <circle cx="50.455" cy="484.9" r="4.9153"/>
  <circle cx="50.604" cy="473.74" r="4.9153"/>
  <circle cx="51.794" cy="460.94" r="4.9153"/>
  <circle cx="53.729" cy="448.14" r="4.9153"/>
  <circle cx="49.86" cy="438.62" r="4.9153"/>
  <circle cx="49.115" cy="427.3" r="4.9153"/>
  <circle cx="50.455" cy="416.89" r="4.9153"/>
  <circle cx="51.794" cy="405.13" r="4.9153"/>
  <circle cx="55.367" cy="395.01" r="4.9153"/>
  <circle cx="57.004" cy="383.1" r="4.9153"/>
  <circle cx="62.213" cy="369.11" r="4.9153"/>
  <circle cx="64.743" cy="357.2" r="4.9153"/>
  <circle cx="68.464" cy="344.85" r="4.9153"/>
  <circle cx="69.952" cy="331.16" r="4.9153"/>
  <circle cx="66.827" cy="318.21" r="4.9153"/>
  <circle cx="66.231" cy="305.11" r="4.9153"/>
  <circle cx="63.552" cy="293.35" r="4.9153"/>
  <circle cx="63.552" cy="281.6" r="4.9153"/>
  <circle cx="66.231" cy="269.24" r="4.9153"/>
  <circle cx="67.869" cy="256.59" r="4.9153"/>
  <circle cx="64.445" cy="243.94" r="4.9153"/>
  <circle cx="62.808" cy="231.59" r="4.9153"/>
  <circle cx="61.766" cy="218.79" r="4.9153"/>
  <circle cx="60.427" cy="207.48" r="4.9153"/>
  <circle cx="58.939" cy="195.27" r="4.9153"/>
  <circle cx="57.153" cy="180.98" r="4.9153"/>
  <circle cx="58.939" cy="170.56" r="4.9153"/>
  <circle cx="59.087" cy="156.28" r="4.9153"/>
  <circle cx="56.26" cy="141.39" r="4.9153"/>
  <circle cx="54.771" cy="127.25" r="4.9153"/>
  <circle cx="53.134" cy="112.52" r="4.9153"/>
  <circle cx="52.688" cy="99.719" r="4.9153"/>
  <circle cx="47.925" cy="86.175" r="4.9153"/>
  <circle cx="44.055" cy="72.036" r="4.9153"/>
  <circle cx="45.99" cy="58.641" r="4.9153"/>
  <circle cx="45.246" cy="44.353" r="4.9153"/>
 </g>
</svg>
