<?xml version="1.0" encoding="UTF-8"?>
<!-- Created with Inkscape (http://www.inkscape.org/) -->
<svg width="100" height="650" version="1.1" viewBox="0 0 100 650" xmlns="http://www.w3.org/2000/svg" xmlns:cc="http://creativecommons.org/ns#" xmlns:dc="http://purl.org/dc/elements/1.1/" xmlns:rdf="http://www.w3.org/1999/02/22-rdf-syntax-ns#">
 <metadata>
  <rdf:RDF>
   <cc:Work rdf:about="">
    <dc:format>image/svg+xml</dc:format>
    <dc:type rdf:resource="http://purl.org/dc/dcmitype/StillImage"/>
    <dc:title/>
   </cc:Work>
  </rdf:RDF>
 </metadata>
 <g transform="translate(-33.143 -22.789)" fill="#e00000">
  <circle cx="83.083" cy="667.91" r="4.9153"/>
  <circle cx="83.444" cy="654.91" r="4.9153"/>
  <circle cx="84.036" cy="646.11" r="4.9153"/>
  <circle cx="83.269" cy="634.75" r="4.9153"/>
  <circle cx="82.758" cy="622.23" r="4.9153"/>
  <circle cx="76.884" cy="607.54" r="4.9153"/>
  <circle cx="75.948" cy="592.23" r="4.9153"/>
  <circle cx="79.832" cy="576.97" r="4.9153"/>
  <circle cx="81.818" cy="563.7" r="4.9153"/>
  <circle cx="80.193" cy="548.16" r="4.9153"/>
  <circle cx="78.567" cy="532.09" r="4.9153"/>
  <circle cx="80.102" cy="517.55" r="4.9153"/>
  <circle cx="80.915" cy="501.02" r="4.9153"/>
  <circle cx="83.986" cy="486.21" r="4.9153"/>
  <circle cx="85.611" cy="470.32" r="4.9153"/>
  <circle cx="80.825" cy="453.7" r="4.9153"/>
  <circle cx="80.554" cy="439.71" r="4.9153"/>
  <circle cx="82.631" cy="422.1" r="4.9153"/>
  <circle cx="84.979" cy="404.22" r="4.9153"/>
  <circle cx="81.999" cy="389.04" r="4.9153"/>
  <circle cx="79.47" cy="373.87" r="4.9153"/>
  <circle cx="77.213" cy="358.07" r="4.9153"/>
  <circle cx="76.49" cy="339.92" r="4.9153"/>
  <circle cx="74.865" cy="322.13" r="4.9153"/>
  <circle cx="73.691" cy="305.42" r="4.9153"/>
  <circle cx="67.821" cy="288.08" r="4.9153"/>
  <circle cx="67.008" cy="271.01" r="4.9153"/>
  <circle cx="67.821" cy="252.05" r="4.9153"/>
  <circle cx="68.724" cy="234.62" r="4.9153"/>
  <circle cx="65.834" cy="215.38" r="4.9153"/>
  <circle cx="63.034" cy="198.4" r="4.9153"/>
  <circle cx="60.686" cy="181.43" r="4.9153"/>
  <circle cx="57.706" cy="163.73" r="4.9153"/>
  <circle cx="59.874" cy="146.12" r="4.9153"/>
  <circle cx="61.228" cy="128.87" r="4.9153"/>
  <circle cx="57.164" cy="108.28" r="4.9153"/>
  <circle cx="55.99" cy="90.217" r="4.9153"/>
  <circle cx="59.242" cy="69.898" r="4.9153"/>
  <circle cx="62.312" cy="48.495" r="4.9153"/>
 </g>
</svg>
