<?xml version="1.0" encoding="UTF-8"?>
<!-- Created with Inkscape (http://www.inkscape.org/) -->
<svg width="100" height="650" version="1.1" viewBox="0 0 100 650" xmlns="http://www.w3.org/2000/svg" xmlns:cc="http://creativecommons.org/ns#" xmlns:dc="http://purl.org/dc/elements/1.1/" xmlns:rdf="http://www.w3.org/1999/02/22-rdf-syntax-ns#">
 <metadata>
  <rdf:RDF>
   <cc:Work rdf:about="">
    <dc:format>image/svg+xml</dc:format>
    <dc:type rdf:resource="http://purl.org/dc/dcmitype/StillImage"/>
    <dc:title/>
   </cc:Work>
  </rdf:RDF>
 </metadata>
 <g transform="translate(-14.704 82.565)" fill="#e00000">
  <circle cx="64.618" cy="562.57" r="4.9153"/>
  <circle cx="64.954" cy="540.99" r="4.9153"/>
  <circle cx="64.171" cy="533.5" r="4.9153"/>
  <circle cx="66.631" cy="524.89" r="4.9153"/>
  <circle cx="68.308" cy="512.82" r="4.9153"/>
  <circle cx="70.879" cy="501.53" r="4.9153"/>
  <circle cx="73.115" cy="488.45" r="4.9153"/>
  <circle cx="71.997" cy="475.48" r="4.9153"/>
  <circle cx="71.997" cy="463.63" r="4.9153"/>
  <circle cx="65.401" cy="449.21" r="4.9153"/>
  <circle cx="63.612" cy="437.58" r="4.9153"/>
  <circle cx="57.463" cy="423.49" r="4.9153"/>
  <circle cx="54.109" cy="410.86" r="4.9153"/>
  <circle cx="51.762" cy="397.67" r="4.9153"/>
  <circle cx="49.749" cy="384.25" r="4.9153"/>
  <circle cx="50.42" cy="369.61" r="4.9153"/>
  <circle cx="51.762" cy="358.54" r="4.9153"/>
  <circle cx="56.457" cy="344.01" r="4.9153"/>
  <circle cx="58.469" cy="330.03" r="4.9153"/>
  <circle cx="55.786" cy="315.16" r="4.9153"/>
  <circle cx="53.439" cy="303.76" r="4.9153"/>
  <circle cx="55.339" cy="287.88" r="4.9153"/>
  <circle cx="55.004" cy="274.58" r="4.9153"/>
  <circle cx="50.644" cy="260.94" r="4.9153"/>
  <circle cx="48.296" cy="247.3" r="4.9153"/>
  <circle cx="41.141" cy="230.53" r="4.9153"/>
  <circle cx="40.358" cy="215.44" r="4.9153"/>
  <circle cx="35.998" cy="201.02" r="4.9153"/>
  <circle cx="33.539" cy="189.61" r="4.9153"/>
  <circle cx="35.663" cy="172.96" r="4.9153"/>
  <circle cx="36.222" cy="160.44" r="4.9153"/>
  <circle cx="38.905" cy="145.68" r="4.9153"/>
  <circle cx="39.017" cy="131.14" r="4.9153"/>
  <circle cx="37.564" cy="117.17" r="4.9153"/>
  <circle cx="37.899" cy="102.53" r="4.9153"/>
  <circle cx="34.433" cy="88.439" r="4.9153"/>
  <circle cx="34.321" cy="73.905" r="4.9153"/>
  <circle cx="27.502" cy="59.148" r="4.9153"/>
  <circle cx="26.16" cy="42.379" r="4.9153"/>
 </g>
</svg>
