<?xml version="1.0" encoding="UTF-8"?>
<!-- Created with Inkscape (http://www.inkscape.org/) -->
<svg width="100" height="650" version="1.1" viewBox="0 0 100 650" xmlns="http://www.w3.org/2000/svg" xmlns:cc="http://creativecommons.org/ns#" xmlns:dc="http://purl.org/dc/elements/1.1/" xmlns:rdf="http://www.w3.org/1999/02/22-rdf-syntax-ns#">
 <metadata>
  <rdf:RDF>
   <cc:Work rdf:about="">
    <dc:format>image/svg+xml</dc:format>
    <dc:type rdf:resource="http://purl.org/dc/dcmitype/StillImage"/>
    <dc:title/>
   </cc:Work>
  </rdf:RDF>
 </metadata>
 <g transform="translate(29.756 112.02)" fill="#e00000">
  <circle cx="19.245" cy="533.09" r="4.9153"/>
  <circle cx="19.245" cy="516.36" r="4.9153"/>
  <circle cx="19.985" cy="508.22" r="4.9153"/>
  <circle cx="19.245" cy="499.19" r="4.9153"/>
  <circle cx="19.097" cy="488.24" r="4.9153"/>
  <circle cx="22.058" cy="477.43" r="4.9153"/>
  <circle cx="23.094" cy="468.25" r="4.9153"/>
  <circle cx="22.058" cy="457" r="4.9153"/>
  <circle cx="21.762" cy="448.12" r="4.9153"/>
  <circle cx="25.167" cy="437.31" r="4.9153"/>
  <circle cx="23.686" cy="425.76" r="4.9153"/>
  <circle cx="29.164" cy="413.92" r="4.9153"/>
  <circle cx="32.125" cy="401.19" r="4.9153"/>
  <circle cx="30.2" cy="388.31" r="4.9153"/>
  <circle cx="29.164" cy="376.17" r="4.9153"/>
  <circle cx="23.538" cy="362.85" r="4.9153"/>
  <circle cx="21.022" cy="350.26" r="4.9153"/>
  <circle cx="24.131" cy="336.94" r="4.9153"/>
  <circle cx="26.203" cy="322.88" r="4.9153"/>
  <circle cx="29.904" cy="309.55" r="4.9153"/>
  <circle cx="31.829" cy="295.93" r="4.9153"/>
  <circle cx="36.122" cy="281.57" r="4.9153"/>
  <circle cx="37.01" cy="267.95" r="4.9153"/>
  <circle cx="41.303" cy="254.19" r="4.9153"/>
  <circle cx="43.524" cy="241.9" r="4.9153"/>
  <circle cx="42.488" cy="227.09" r="4.9153"/>
  <circle cx="41.451" cy="214.66" r="4.9153"/>
  <circle cx="46.633" cy="199.56" r="4.9153"/>
  <circle cx="46.485" cy="185.79" r="4.9153"/>
  <circle cx="53.294" cy="173.06" r="4.9153"/>
  <circle cx="55.071" cy="158.55" r="4.9153"/>
  <circle cx="53.591" cy="144.04" r="4.9153"/>
  <circle cx="52.998" cy="129.54" r="4.9153"/>
  <circle cx="54.627" cy="113.4" r="4.9153"/>
  <circle cx="56.699" cy="100.96" r="4.9153"/>
  <circle cx="54.331" cy="86.9" r="4.9153"/>
  <circle cx="55.071" cy="73.28" r="4.9153"/>
  <circle cx="54.923" cy="57.884" r="4.9153"/>
  <circle cx="56.995" cy="43.08" r="4.9153"/>
 </g>
</svg>
