<?xml version="1.0" encoding="UTF-8"?>
<!-- Created with Inkscape (http://www.inkscape.org/) -->
<svg width="100" height="650" version="1.1" viewBox="0 0 100 650" xmlns="http://www.w3.org/2000/svg" xmlns:cc="http://creativecommons.org/ns#" xmlns:dc="http://purl.org/dc/elements/1.1/" xmlns:rdf="http://www.w3.org/1999/02/22-rdf-syntax-ns#">
 <metadata>
  <rdf:RDF>
   <cc:Work rdf:about="">
    <dc:format>image/svg+xml</dc:format>
    <dc:type rdf:resource="http://purl.org/dc/dcmitype/StillImage"/>
    <dc:title/>
   </cc:Work>
  </rdf:RDF>
 </metadata>
 <g transform="translate(-39.711 97.016)" fill="#e00000">
  <circle cx="89.194" cy="548.08" r="4.9153"/>
  <circle cx="87.993" cy="527.96" r="4.9153"/>
  <circle cx="87.092" cy="520.45" r="4.9153"/>
  <circle cx="84.389" cy="510.24" r="4.9153"/>
  <circle cx="83.789" cy="496.73" r="4.9153"/>
  <circle cx="81.386" cy="484.71" r="4.9153"/>
  <circle cx="81.987" cy="473" r="4.9153"/>
  <circle cx="78.984" cy="460.09" r="4.9153"/>
  <circle cx="77.782" cy="448.37" r="4.9153"/>
  <circle cx="75.68" cy="434.41" r="4.9153"/>
  <circle cx="74.028" cy="422.55" r="4.9153"/>
  <circle cx="77.632" cy="408.88" r="4.9153"/>
  <circle cx="78.683" cy="395.97" r="4.9153"/>
  <circle cx="76.431" cy="383.21" r="4.9153"/>
  <circle cx="75.83" cy="370.14" r="4.9153"/>
  <circle cx="77.632" cy="356.63" r="4.9153"/>
  <circle cx="78.683" cy="342.81" r="4.9153"/>
  <circle cx="73.578" cy="327.95" r="4.9153"/>
  <circle cx="70.875" cy="316.23" r="4.9153"/>
  <circle cx="66.07" cy="303.62" r="4.9153"/>
  <circle cx="63.367" cy="290.86" r="4.9153"/>
  <circle cx="65.92" cy="278.24" r="4.9153"/>
  <circle cx="66.52" cy="266.53" r="4.9153"/>
  <circle cx="62.766" cy="254.22" r="4.9153"/>
  <circle cx="63.067" cy="241.01" r="4.9153"/>
  <circle cx="57.811" cy="228.54" r="4.9153"/>
  <circle cx="55.409" cy="214.43" r="4.9153"/>
  <circle cx="56.61" cy="201.06" r="4.9153"/>
  <circle cx="56.91" cy="186.8" r="4.9153"/>
  <circle cx="56.76" cy="172.68" r="4.9153"/>
  <circle cx="56.009" cy="156.92" r="4.9153"/>
  <circle cx="53.006" cy="142.35" r="4.9153"/>
  <circle cx="51.505" cy="125.98" r="4.9153"/>
  <circle cx="49.402" cy="110.37" r="4.9153"/>
  <circle cx="48.201" cy="93.249" r="4.9153"/>
  <circle cx="51.204" cy="79.885" r="4.9153"/>
  <circle cx="52.556" cy="67.121" r="4.9153"/>
  <circle cx="54.958" cy="52.856" r="4.9153"/>
  <circle cx="55.859" cy="39.942" r="4.9153"/>
 </g>
</svg>
