<?xml version="1.0" encoding="UTF-8"?>
<!-- Created with Inkscape (http://www.inkscape.org/) -->
<svg width="100" height="650" version="1.1" viewBox="0 0 100 650" xmlns="http://www.w3.org/2000/svg" xmlns:cc="http://creativecommons.org/ns#" xmlns:dc="http://purl.org/dc/elements/1.1/" xmlns:rdf="http://www.w3.org/1999/02/22-rdf-syntax-ns#">
 <metadata>
  <rdf:RDF>
   <cc:Work rdf:about="">
    <dc:format>image/svg+xml</dc:format>
    <dc:type rdf:resource="http://purl.org/dc/dcmitype/StillImage"/>
    <dc:title/>
   </cc:Work>
  </rdf:RDF>
 </metadata>
 <g transform="translate(.48389 15.008)" fill="#e00000">
  <circle cx="49.186" cy="629.83" r="4.9153"/>
  <circle cx="51.324" cy="609.9" r="4.9153"/>
  <circle cx="50.811" cy="602.37" r="4.9153"/>
  <circle cx="50.298" cy="591.6" r="4.9153"/>
  <circle cx="49.1" cy="578.77" r="4.9153"/>
  <circle cx="49.956" cy="566.79" r="4.9153"/>
  <circle cx="51.666" cy="552.93" r="4.9153"/>
  <circle cx="49.956" cy="537.88" r="4.9153"/>
  <circle cx="49.1" cy="524.36" r="4.9153"/>
  <circle cx="46.192" cy="511.02" r="4.9153"/>
  <circle cx="44.823" cy="496.13" r="4.9153"/>
  <circle cx="38.835" cy="481.25" r="4.9153"/>
  <circle cx="35.585" cy="465.68" r="4.9153"/>
  <circle cx="40.375" cy="449.94" r="4.9153"/>
  <circle cx="42.428" cy="434.03" r="4.9153"/>
  <circle cx="35.756" cy="421.03" r="4.9153"/>
  <circle cx="33.874" cy="405.29" r="4.9153"/>
  <circle cx="31.137" cy="390.23" r="4.9153"/>
  <circle cx="31.308" cy="372.96" r="4.9153"/>
  <circle cx="32.334" cy="357.39" r="4.9153"/>
  <circle cx="32.847" cy="342.85" r="4.9153"/>
  <circle cx="31.479" cy="327.11" r="4.9153"/>
  <circle cx="31.308" cy="309.83" r="4.9153"/>
  <circle cx="37.638" cy="292.89" r="4.9153"/>
  <circle cx="38.835" cy="274.41" r="4.9153"/>
  <circle cx="42.941" cy="259.87" r="4.9153"/>
  <circle cx="44.139" cy="244.3" r="4.9153"/>
  <circle cx="46.192" cy="227.88" r="4.9153"/>
  <circle cx="48.929" cy="212.65" r="4.9153"/>
  <circle cx="50.469" cy="194.52" r="4.9153"/>
  <circle cx="52.008" cy="178.27" r="4.9153"/>
  <circle cx="48.416" cy="163.9" r="4.9153"/>
  <circle cx="45.165" cy="149.01" r="4.9153"/>
  <circle cx="47.731" cy="130.71" r="4.9153"/>
  <circle cx="48.929" cy="111.2" r="4.9153"/>
  <circle cx="44.994" cy="91.699" r="4.9153"/>
  <circle cx="43.797" cy="73.394" r="4.9153"/>
  <circle cx="47.731" cy="57.654" r="4.9153"/>
  <circle cx="49.613" cy="42.086" r="4.9153"/>
 </g>
</svg>
