<?xml version="1.0" encoding="UTF-8"?>
<!-- Created with Inkscape (http://www.inkscape.org/) -->
<svg width="100" height="650" version="1.1" viewBox="0 0 100 650" xmlns="http://www.w3.org/2000/svg" xmlns:cc="http://creativecommons.org/ns#" xmlns:dc="http://purl.org/dc/elements/1.1/" xmlns:rdf="http://www.w3.org/1999/02/22-rdf-syntax-ns#">
 <metadata>
  <rdf:RDF>
   <cc:Work rdf:about="">
    <dc:format>image/svg+xml</dc:format>
    <dc:type rdf:resource="http://purl.org/dc/dcmitype/StillImage"/>
    <dc:title/>
   </cc:Work>
  </rdf:RDF>
 </metadata>
 <g fill="#e00000">
  <circle cx="49.776" cy="644.88" r="4.9153"/>
  <circle cx="47.397" cy="622.73" r="4.9153"/>
  <circle cx="46.299" cy="612.67" r="4.9153"/>
  <circle cx="47.946" cy="598.76" r="4.9153"/>
  <circle cx="47.946" cy="584.12" r="4.9153"/>
  <circle cx="48.495" cy="567.47" r="4.9153"/>
  <circle cx="47.214" cy="553.93" r="4.9153"/>
  <circle cx="52.52" cy="539.1" r="4.9153"/>
  <circle cx="51.788" cy="525.56" r="4.9153"/>
  <circle cx="56.18" cy="510.37" r="4.9153"/>
  <circle cx="57.461" cy="494.27" r="4.9153"/>
  <circle cx="59.474" cy="477.25" r="4.9153"/>
  <circle cx="61.304" cy="461.7" r="4.9153"/>
  <circle cx="63.866" cy="445.96" r="4.9153"/>
  <circle cx="66.245" cy="432.42" r="4.9153"/>
  <circle cx="61.121" cy="415.03" r="4.9153"/>
  <circle cx="57.827" cy="397.65" r="4.9153"/>
  <circle cx="64.232" cy="380.63" r="4.9153"/>
  <circle cx="66.245" cy="362.33" r="4.9153"/>
  <circle cx="69.722" cy="346.59" r="4.9153"/>
  <circle cx="69.539" cy="329.94" r="4.9153"/>
  <circle cx="71.735" cy="313.1" r="4.9153"/>
  <circle cx="73.748" cy="296.27" r="4.9153"/>
  <circle cx="72.101" cy="280.53" r="4.9153"/>
  <circle cx="70.82" cy="263.51" r="4.9153"/>
  <circle cx="74.297" cy="246.86" r="4.9153"/>
  <circle cx="74.297" cy="230.39" r="4.9153"/>
  <circle cx="70.637" cy="212.45" r="4.9153"/>
  <circle cx="66.977" cy="196.9" r="4.9153"/>
  <circle cx="71.003" cy="184.82" r="4.9153"/>
  <circle cx="72.65" cy="167.98" r="4.9153"/>
  <circle cx="77.957" cy="153.34" r="4.9153"/>
  <circle cx="81.617" cy="137.79" r="4.9153"/>
  <circle cx="83.63" cy="119.67" r="4.9153"/>
  <circle cx="85.826" cy="103.2" r="4.9153"/>
  <circle cx="83.264" cy="87.648" r="4.9153"/>
  <circle cx="81.434" cy="71.544" r="4.9153"/>
  <circle cx="84.362" cy="50.499" r="4.9153"/>
  <circle cx="84.728" cy="33.663" r="4.9153"/>
 </g>
</svg>
