<?xml version="1.0" encoding="UTF-8"?>
<!-- Created with Inkscape (http://www.inkscape.org/) -->
<svg width="100" height="650" version="1.1" viewBox="0 0 100 650" xmlns="http://www.w3.org/2000/svg" xmlns:cc="http://creativecommons.org/ns#" xmlns:dc="http://purl.org/dc/elements/1.1/" xmlns:rdf="http://www.w3.org/1999/02/22-rdf-syntax-ns#">
 <metadata>
  <rdf:RDF>
   <cc:Work rdf:about="">
    <dc:format>image/svg+xml</dc:format>
    <dc:type rdf:resource="http://purl.org/dc/dcmitype/StillImage"/>
    <dc:title/>
   </cc:Work>
  </rdf:RDF>
 </metadata>
 <g transform="translate(-1.8704 -243.72)" fill="#e00000">
  <circle cx="51.7" cy="888.76" r="4.9153"/>
  <circle cx="50.738" cy="864.96" r="4.9153"/>
  <circle cx="50.738" cy="849.81" r="4.9153"/>
  <circle cx="53.143" cy="834.18" r="4.9153"/>
  <circle cx="54.345" cy="816.86" r="4.9153"/>
  <circle cx="56.029" cy="798.35" r="4.9153"/>
  <circle cx="57.471" cy="775.26" r="4.9153"/>
  <circle cx="55.788" cy="750.98" r="4.9153"/>
  <circle cx="54.345" cy="725.97" r="4.9153"/>
  <circle cx="47.372" cy="703.84" r="4.9153"/>
  <circle cx="45.689" cy="676.91" r="4.9153"/>
  <circle cx="40.158" cy="650.22" r="4.9153"/>
  <circle cx="40.158" cy="618.96" r="4.9153"/>
  <circle cx="41.36" cy="587.7" r="4.9153"/>
  <circle cx="42.322" cy="558.36" r="4.9153"/>
  <circle cx="41.36" cy="524.22" r="4.9153"/>
  <circle cx="39.677" cy="494.64" r="4.9153"/>
  <circle cx="37.513" cy="463.14" r="4.9153"/>
  <circle cx="36.31" cy="430.92" r="4.9153"/>
  <circle cx="33.184" cy="401.34" r="4.9153"/>
 </g>
</svg>
