<?xml version="1.0" encoding="UTF-8"?>
<!-- Created with Inkscape (http://www.inkscape.org/) -->
<svg width="100" height="650" version="1.1" viewBox="0 0 100 650" xmlns="http://www.w3.org/2000/svg" xmlns:cc="http://creativecommons.org/ns#" xmlns:dc="http://purl.org/dc/elements/1.1/" xmlns:rdf="http://www.w3.org/1999/02/22-rdf-syntax-ns#">
 <metadata>
  <rdf:RDF>
   <cc:Work rdf:about="">
    <dc:format>image/svg+xml</dc:format>
    <dc:type rdf:resource="http://purl.org/dc/dcmitype/StillImage"/>
    <dc:title/>
   </cc:Work>
  </rdf:RDF>
 </metadata>
 <g transform="translate(11.357 -236.13)" fill="#e00000">
  <circle cx="38.597" cy="881.09" r="4.9153"/>
  <circle cx="42.525" cy="854.1" r="4.9153"/>
  <circle cx="44.745" cy="838.39" r="4.9153"/>
  <circle cx="47.136" cy="820.8" r="4.9153"/>
  <circle cx="48.503" cy="801.84" r="4.9153"/>
  <circle cx="48.844" cy="781.35" r="4.9153"/>
  <circle cx="45.77" cy="758.64" r="4.9153"/>
  <circle cx="44.062" cy="735.41" r="4.9153"/>
  <circle cx="43.721" cy="703.81" r="4.9153"/>
  <circle cx="39.28" cy="681.1" r="4.9153"/>
  <circle cx="38.597" cy="650.02" r="4.9153"/>
  <circle cx="43.038" cy="617.23" r="4.9153"/>
  <circle cx="46.112" cy="584.61" r="4.9153"/>
  <circle cx="51.577" cy="549.94" r="4.9153"/>
  <circle cx="54.651" cy="521.25" r="4.9153"/>
  <circle cx="49.527" cy="488.8" r="4.9153"/>
  <circle cx="46.966" cy="458.74" r="4.9153"/>
  <circle cx="50.211" cy="426.46" r="4.9153"/>
  <circle cx="51.235" cy="391.28" r="4.9153"/>
  <circle cx="55.846" cy="360.03" r="4.9153"/>
 </g>
</svg>
