<?xml version="1.0" encoding="UTF-8"?>
<!-- Created with Inkscape (http://www.inkscape.org/) -->
<svg width="100" height="650" version="1.1" viewBox="0 0 100 650" xmlns="http://www.w3.org/2000/svg" xmlns:cc="http://creativecommons.org/ns#" xmlns:dc="http://purl.org/dc/elements/1.1/" xmlns:rdf="http://www.w3.org/1999/02/22-rdf-syntax-ns#">
 <metadata>
  <rdf:RDF>
   <cc:Work rdf:about="">
    <dc:format>image/svg+xml</dc:format>
    <dc:type rdf:resource="http://purl.org/dc/dcmitype/StillImage"/>
    <dc:title/>
   </cc:Work>
  </rdf:RDF>
 </metadata>
 <g transform="translate(19.816 -288.76)" fill="#e00000">
  <circle cx="30.062" cy="933.85" r="4.9153"/>
  <circle cx="32.355" cy="906.72" r="4.9153"/>
  <circle cx="31.591" cy="887.1" r="4.9153"/>
  <circle cx="33.757" cy="869.14" r="4.9153"/>
  <circle cx="34.011" cy="847.61" r="4.9153"/>
  <circle cx="37.706" cy="822.13" r="4.9153"/>
  <circle cx="40.763" cy="793.85" r="4.9153"/>
  <circle cx="38.215" cy="765.96" r="4.9153"/>
  <circle cx="37.578" cy="739.21" r="4.9153"/>
  <circle cx="33.884" cy="705.83" r="4.9153"/>
  <circle cx="31.718" cy="670.04" r="4.9153"/>
  <circle cx="35.922" cy="632.59" r="4.9153"/>
  <circle cx="37.706" cy="596.54" r="4.9153"/>
  <circle cx="44.075" cy="560.49" r="4.9153"/>
  <circle cx="47.514" cy="526.48" r="4.9153"/>
  <circle cx="44.202" cy="486.1" r="4.9153"/>
  <circle cx="44.712" cy="450.3" r="4.9153"/>
  <circle cx="39.871" cy="411.07" r="4.9153"/>
  <circle cx="38.088" cy="371.45" r="4.9153"/>
  <circle cx="42.801" cy="334.13" r="4.9153"/>
 </g>
</svg>
