<?xml version="1.0" encoding="UTF-8"?>
<!-- Created with Inkscape (http://www.inkscape.org/) -->
<svg width="100" height="650" version="1.1" viewBox="0 0 100 650" xmlns="http://www.w3.org/2000/svg" xmlns:cc="http://creativecommons.org/ns#" xmlns:dc="http://purl.org/dc/elements/1.1/" xmlns:rdf="http://www.w3.org/1999/02/22-rdf-syntax-ns#">
 <metadata>
  <rdf:RDF>
   <cc:Work rdf:about="">
    <dc:format>image/svg+xml</dc:format>
    <dc:type rdf:resource="http://purl.org/dc/dcmitype/StillImage"/>
    <dc:title/>
   </cc:Work>
  </rdf:RDF>
 </metadata>
 <g transform="translate(3.7897 -284.8)" fill="#e00000">
  <circle cx="45.913" cy="929.53" r="4.9153"/>
  <circle cx="51.094" cy="904.34" r="4.9153"/>
  <circle cx="52.88" cy="889.86" r="4.9153"/>
  <circle cx="55.381" cy="870.57" r="4.9153"/>
  <circle cx="55.739" cy="851.63" r="4.9153"/>
  <circle cx="53.416" cy="828.05" r="4.9153"/>
  <circle cx="52.523" cy="807.69" r="4.9153"/>
  <circle cx="56.989" cy="785" r="4.9153"/>
  <circle cx="60.562" cy="758.74" r="4.9153"/>
  <circle cx="52.344" cy="731.05" r="4.9153"/>
  <circle cx="49.843" cy="705.5" r="4.9153"/>
  <circle cx="51.987" cy="678.52" r="4.9153"/>
  <circle cx="54.488" cy="648.69" r="4.9153"/>
  <circle cx="58.418" cy="614.39" r="4.9153"/>
  <circle cx="60.562" cy="581.87" r="4.9153"/>
  <circle cx="55.203" cy="547.75" r="4.9153"/>
  <circle cx="50.558" cy="516.13" r="4.9153"/>
  <circle cx="47.521" cy="484.33" r="4.9153"/>
  <circle cx="46.27" cy="453.6" r="4.9153"/>
  <circle cx="37.159" cy="416.09" r="4.9153"/>
 </g>
</svg>
