<?xml version="1.0" encoding="UTF-8"?>
<!-- Created with Inkscape (http://www.inkscape.org/) -->
<svg width="100" height="650" version="1.1" viewBox="0 0 100 650" xmlns="http://www.w3.org/2000/svg" xmlns:cc="http://creativecommons.org/ns#" xmlns:dc="http://purl.org/dc/elements/1.1/" xmlns:rdf="http://www.w3.org/1999/02/22-rdf-syntax-ns#">
 <metadata>
  <rdf:RDF>
   <cc:Work rdf:about="">
    <dc:format>image/svg+xml</dc:format>
    <dc:type rdf:resource="http://purl.org/dc/dcmitype/StillImage"/>
    <dc:title/>
   </cc:Work>
  </rdf:RDF>
 </metadata>
 <g transform="translate(0 -287.46)" fill="#e00000">
  <circle cx="49.849" cy="932.39" r="4.9153"/>
  <circle cx="49.849" cy="906.11" r="4.9153"/>
  <circle cx="49.849" cy="890.46" r="4.9153"/>
  <circle cx="51.109" cy="870.84" r="4.9153"/>
  <circle cx="52.908" cy="854.1" r="4.9153"/>
  <circle cx="51.289" cy="831.61" r="4.9153"/>
  <circle cx="48.229" cy="808.03" r="4.9153"/>
  <circle cx="42.831" cy="784.1" r="4.9153"/>
  <circle cx="40.851" cy="755.67" r="4.9153"/>
  <circle cx="43.19" cy="731.01" r="4.9153"/>
  <circle cx="45.35" cy="702.94" r="4.9153"/>
  <circle cx="37.972" cy="672.16" r="4.9153"/>
  <circle cx="36.352" cy="639.05" r="4.9153"/>
  <circle cx="41.031" cy="602.88" r="4.9153"/>
  <circle cx="43.19" cy="570.31" r="4.9153"/>
  <circle cx="49.849" cy="534.49" r="4.9153"/>
  <circle cx="51.289" cy="501.74" r="4.9153"/>
  <circle cx="48.589" cy="467.91" r="4.9153"/>
  <circle cx="47.689" cy="434.98" r="4.9153"/>
  <circle cx="51.289" cy="401.14" r="4.9153"/>
 </g>
</svg>
