<?xml version="1.0" encoding="UTF-8"?>
<!-- Created with Inkscape (http://www.inkscape.org/) -->
<svg width="100" height="650" version="1.1" viewBox="0 0 100 650" xmlns="http://www.w3.org/2000/svg" xmlns:cc="http://creativecommons.org/ns#" xmlns:dc="http://purl.org/dc/elements/1.1/" xmlns:rdf="http://www.w3.org/1999/02/22-rdf-syntax-ns#">
 <metadata>
  <rdf:RDF>
   <cc:Work rdf:about="">
    <dc:format>image/svg+xml</dc:format>
    <dc:type rdf:resource="http://purl.org/dc/dcmitype/StillImage"/>
    <dc:title/>
   </cc:Work>
  </rdf:RDF>
 </metadata>
 <g transform="translate(15.95 -260.76)" fill="#e00000">
  <circle cx="34.004" cy="905.85" r="4.9153"/>
  <circle cx="35.056" cy="877.81" r="4.9153"/>
  <circle cx="34.004" cy="857.83" r="4.9153"/>
  <circle cx="31.55" cy="838.55" r="4.9153"/>
  <circle cx="30.148" cy="814.71" r="4.9153"/>
  <circle cx="31.901" cy="790.52" r="4.9153"/>
  <circle cx="35.056" cy="761.07" r="4.9153"/>
  <circle cx="40.665" cy="733.38" r="4.9153"/>
  <circle cx="40.314" cy="701.83" r="4.9153"/>
  <circle cx="38.912" cy="667.12" r="4.9153"/>
  <circle cx="34.355" cy="631.02" r="4.9153"/>
  <circle cx="40.314" cy="595.61" r="4.9153"/>
  <circle cx="41.716" cy="557.75" r="4.9153"/>
  <circle cx="45.572" cy="523.74" r="4.9153"/>
  <circle cx="50.831" cy="482.73" r="4.9153"/>
  <circle cx="43.82" cy="446.97" r="4.9153"/>
  <circle cx="43.469" cy="410.16" r="4.9153"/>
  <circle cx="48.377" cy="368.8" r="4.9153"/>
  <circle cx="52.584" cy="332.69" r="4.9153"/>
  <circle cx="51.532" cy="289.92" r="4.9153"/>
 </g>
</svg>
