<?xml version="1.0" encoding="UTF-8"?>
<!-- Created with Inkscape (http://www.inkscape.org/) -->
<svg width="100" height="650" version="1.1" viewBox="0 0 100 650" xmlns="http://www.w3.org/2000/svg" xmlns:cc="http://creativecommons.org/ns#" xmlns:dc="http://purl.org/dc/elements/1.1/" xmlns:rdf="http://www.w3.org/1999/02/22-rdf-syntax-ns#">
 <metadata>
  <rdf:RDF>
   <cc:Work rdf:about="">
    <dc:format>image/svg+xml</dc:format>
    <dc:type rdf:resource="http://purl.org/dc/dcmitype/StillImage"/>
    <dc:title/>
   </cc:Work>
  </rdf:RDF>
 </metadata>
 <g transform="translate(12.037 -237.49)" fill="#e00000">
  <circle cx="37.752" cy="882.47" r="4.9153"/>
  <circle cx="37.752" cy="858.54" r="4.9153"/>
  <circle cx="36.741" cy="844.72" r="4.9153"/>
  <circle cx="32.696" cy="830.23" r="4.9153"/>
  <circle cx="31.011" cy="812.36" r="4.9153"/>
  <circle cx="28.651" cy="794.16" r="4.9153"/>
  <circle cx="27.303" cy="768.2" r="4.9153"/>
  <circle cx="30.674" cy="748.65" r="4.9153"/>
  <circle cx="34.044" cy="724.05" r="4.9153"/>
  <circle cx="37.415" cy="697.08" r="4.9153"/>
  <circle cx="41.123" cy="673.15" r="4.9153"/>
  <circle cx="45.842" cy="645.17" r="4.9153"/>
  <circle cx="47.865" cy="616.86" r="4.9153"/>
  <circle cx="55.617" cy="591.24" r="4.9153"/>
  <circle cx="56.628" cy="563.94" r="4.9153"/>
  <circle cx="49.213" cy="532.59" r="4.9153"/>
  <circle cx="47.865" cy="503.94" r="4.9153"/>
  <circle cx="50.898" cy="477.65" r="4.9153"/>
  <circle cx="52.584" cy="450.01" r="4.9153"/>
  <circle cx="44.831" cy="421.02" r="4.9153"/>
 </g>
</svg>
