<?xml version="1.0" encoding="UTF-8"?>
<!-- Created with Inkscape (http://www.inkscape.org/) -->
<svg width="100" height="650" version="1.1" viewBox="0 0 100 650" xmlns="http://www.w3.org/2000/svg" xmlns:cc="http://creativecommons.org/ns#" xmlns:dc="http://purl.org/dc/elements/1.1/" xmlns:rdf="http://www.w3.org/1999/02/22-rdf-syntax-ns#">
 <metadata>
  <rdf:RDF>
   <cc:Work rdf:about="">
    <dc:format>image/svg+xml</dc:format>
    <dc:type rdf:resource="http://purl.org/dc/dcmitype/StillImage"/>
    <dc:title/>
   </cc:Work>
  </rdf:RDF>
 </metadata>
 <g transform="translate(-14.668 -241.89)" fill="#e00000">
  <circle cx="64.445" cy="886.84" r="4.9153"/>
  <circle cx="68.292" cy="864.72" r="4.9153"/>
  <circle cx="70.697" cy="852.21" r="4.9153"/>
  <circle cx="65.888" cy="838.26" r="4.9153"/>
  <circle cx="65.166" cy="825.28" r="4.9153"/>
  <circle cx="66.369" cy="807.97" r="4.9153"/>
  <circle cx="67.571" cy="794.26" r="4.9153"/>
  <circle cx="64.445" cy="771.9" r="4.9153"/>
  <circle cx="62.762" cy="754.1" r="4.9153"/>
  <circle cx="57.231" cy="736.79" r="4.9153"/>
  <circle cx="55.307" cy="717.31" r="4.9153"/>
  <circle cx="50.257" cy="694.71" r="4.9153"/>
  <circle cx="49.776" cy="668.98" r="4.9153"/>
  <circle cx="53.383" cy="643.73" r="4.9153"/>
  <circle cx="56.99" cy="621.85" r="4.9153"/>
  <circle cx="63.243" cy="597.32" r="4.9153"/>
  <circle cx="66.609" cy="572.07" r="4.9153"/>
  <circle cx="72.621" cy="549.71" r="4.9153"/>
  <circle cx="73.102" cy="528.06" r="4.9153"/>
  <circle cx="70.216" cy="507.14" r="4.9153"/>
 </g>
</svg>
