<?xml version="1.0" encoding="UTF-8"?>
<!-- Created with Inkscape (http://www.inkscape.org/) -->
<svg width="100" height="650" version="1.1" viewBox="0 0 100 650" xmlns="http://www.w3.org/2000/svg" xmlns:cc="http://creativecommons.org/ns#" xmlns:dc="http://purl.org/dc/elements/1.1/" xmlns:rdf="http://www.w3.org/1999/02/22-rdf-syntax-ns#">
 <metadata>
  <rdf:RDF>
   <cc:Work rdf:about="">
    <dc:format>image/svg+xml</dc:format>
    <dc:type rdf:resource="http://purl.org/dc/dcmitype/StillImage"/>
    <dc:title/>
   </cc:Work>
  </rdf:RDF>
 </metadata>
 <g transform="translate(-8.2293 -266.27)" fill="#e00000">
  <circle cx="57.942" cy="911.23" r="4.9153"/>
  <circle cx="58.438" cy="892.41" r="4.9153"/>
  <circle cx="58.438" cy="878.3" r="4.9153"/>
  <circle cx="59.18" cy="863.69" r="4.9153"/>
  <circle cx="60.914" cy="850.56" r="4.9153"/>
  <circle cx="62.895" cy="831" r="4.9153"/>
  <circle cx="62.647" cy="814.41" r="4.9153"/>
  <circle cx="61.161" cy="793.61" r="4.9153"/>
  <circle cx="60.171" cy="769.34" r="4.9153"/>
  <circle cx="53.733" cy="749.04" r="4.9153"/>
  <circle cx="51.257" cy="723.04" r="4.9153"/>
  <circle cx="54.476" cy="697.29" r="4.9153"/>
  <circle cx="57.695" cy="670.3" r="4.9153"/>
  <circle cx="60.914" cy="647.27" r="4.9153"/>
  <circle cx="63.885" cy="620.53" r="4.9153"/>
  <circle cx="59.428" cy="593.29" r="4.9153"/>
  <circle cx="56.952" cy="571" r="4.9153"/>
  <circle cx="53.485" cy="545.25" r="4.9153"/>
  <circle cx="48.533" cy="519.5" r="4.9153"/>
  <circle cx="53.485" cy="494.74" r="4.9153"/>
 </g>
</svg>
