<?xml version="1.0" encoding="UTF-8"?>
<!-- Created with Inkscape (http://www.inkscape.org/) -->
<svg width="100" height="650" version="1.1" viewBox="0 0 100 650" xmlns="http://www.w3.org/2000/svg" xmlns:cc="http://creativecommons.org/ns#" xmlns:dc="http://purl.org/dc/elements/1.1/" xmlns:rdf="http://www.w3.org/1999/02/22-rdf-syntax-ns#">
 <metadata>
  <rdf:RDF>
   <cc:Work rdf:about="">
    <dc:format>image/svg+xml</dc:format>
    <dc:type rdf:resource="http://purl.org/dc/dcmitype/StillImage"/>
    <dc:title/>
   </cc:Work>
  </rdf:RDF>
 </metadata>
 <g transform="translate(-.2447 -240.72)" fill="#e00000">
  <circle cx="49.919" cy="885.7" r="4.9153"/>
  <circle cx="53.957" cy="858.42" r="4.9153"/>
  <circle cx="55.915" cy="840.07" r="4.9153"/>
  <circle cx="54.079" cy="820.86" r="4.9153"/>
  <circle cx="52.122" cy="802.26" r="4.9153"/>
  <circle cx="56.526" cy="779.87" r="4.9153"/>
  <circle cx="56.894" cy="755.15" r="4.9153"/>
  <circle cx="60.809" cy="728.36" r="4.9153"/>
  <circle cx="63.011" cy="698.51" r="4.9153"/>
  <circle cx="60.319" cy="668.16" r="4.9153"/>
  <circle cx="61.665" cy="636.6" r="4.9153"/>
  <circle cx="63.868" cy="604.91" r="4.9153"/>
  <circle cx="66.07" cy="572.24" r="4.9153"/>
  <circle cx="61.298" cy="538.35" r="4.9153"/>
  <circle cx="59.096" cy="505.07" r="4.9153"/>
  <circle cx="53.835" cy="471.05" r="4.9153"/>
  <circle cx="53.223" cy="442.91" r="4.9153"/>
  <circle cx="56.526" cy="410.25" r="4.9153"/>
  <circle cx="58.851" cy="378.68" r="4.9153"/>
  <circle cx="52.734" cy="345.77" r="4.9153"/>
 </g>
</svg>
