<?xml version="1.0" encoding="UTF-8"?>
<!-- Created with Inkscape (http://www.inkscape.org/) -->
<svg width="100" height="650" version="1.1" viewBox="0 0 100 650" xmlns="http://www.w3.org/2000/svg" xmlns:cc="http://creativecommons.org/ns#" xmlns:dc="http://purl.org/dc/elements/1.1/" xmlns:rdf="http://www.w3.org/1999/02/22-rdf-syntax-ns#">
 <metadata>
  <rdf:RDF>
   <cc:Work rdf:about="">
    <dc:format>image/svg+xml</dc:format>
    <dc:type rdf:resource="http://purl.org/dc/dcmitype/StillImage"/>
    <dc:title/>
   </cc:Work>
  </rdf:RDF>
 </metadata>
 <g transform="translate(-14.455 -296.66)" fill="#e00000">
  <circle cx="64.96" cy="941.58" r="4.9153"/>
  <circle cx="64.246" cy="920.88" r="4.9153"/>
  <circle cx="62.819" cy="904.82" r="4.9153"/>
  <circle cx="63.889" cy="887.33" r="4.9153"/>
  <circle cx="65.317" cy="866.62" r="4.9153"/>
  <circle cx="69.957" cy="845.57" r="4.9153"/>
  <circle cx="69.6" cy="826.65" r="4.9153"/>
  <circle cx="68.529" cy="802.02" r="4.9153"/>
  <circle cx="66.388" cy="775.61" r="4.9153"/>
  <circle cx="59.606" cy="745.98" r="4.9153"/>
  <circle cx="55.68" cy="717.43" r="4.9153"/>
  <circle cx="49.969" cy="687.09" r="4.9153"/>
  <circle cx="46.757" cy="654.97" r="4.9153"/>
  <circle cx="43.902" cy="620.35" r="4.9153"/>
  <circle cx="41.76" cy="593.22" r="4.9153"/>
  <circle cx="45.686" cy="563.6" r="4.9153"/>
  <circle cx="46.4" cy="536.83" r="4.9153"/>
  <circle cx="40.332" cy="506.13" r="4.9153"/>
  <circle cx="36.763" cy="476.86" r="4.9153"/>
  <circle cx="43.902" cy="445.81" r="4.9153"/>
 </g>
</svg>
