<?xml version="1.0" encoding="UTF-8"?>
<!-- Created with Inkscape (http://www.inkscape.org/) -->
<svg width="100" height="650" version="1.1" viewBox="0 0 100 650" xmlns="http://www.w3.org/2000/svg" xmlns:cc="http://creativecommons.org/ns#" xmlns:dc="http://purl.org/dc/elements/1.1/" xmlns:rdf="http://www.w3.org/1999/02/22-rdf-syntax-ns#">
 <metadata>
  <rdf:RDF>
   <cc:Work rdf:about="">
    <dc:format>image/svg+xml</dc:format>
    <dc:type rdf:resource="http://purl.org/dc/dcmitype/StillImage"/>
    <dc:title/>
   </cc:Work>
  </rdf:RDF>
 </metadata>
 <g transform="translate(-38.491 17.823)" fill="#e00000">
  <circle cx="95.805" cy="626.95" r="4.9153"/>
  <circle cx="93.644" cy="615.78" r="4.9153"/>
  <circle cx="94.725" cy="607.14" r="4.9153"/>
  <circle cx="97.606" cy="594.53" r="4.9153"/>
  <circle cx="95.445" cy="585.17" r="4.9153"/>
  <circle cx="95.805" cy="572.56" r="4.9153"/>
  <circle cx="91.483" cy="558.16" r="4.9153"/>
  <circle cx="92.564" cy="545.91" r="4.9153"/>
  <circle cx="92.564" cy="531.5" r="4.9153"/>
  <circle cx="90.763" cy="517.82" r="4.9153"/>
  <circle cx="94.364" cy="501.61" r="4.9153"/>
  <circle cx="90.763" cy="485.76" r="4.9153"/>
  <circle cx="94.364" cy="477.84" r="4.9153"/>
  <circle cx="93.284" cy="463.79" r="4.9153"/>
  <circle cx="87.881" cy="452.63" r="4.9153"/>
  <circle cx="89.682" cy="437.5" r="4.9153"/>
  <circle cx="89.322" cy="425.61" r="4.9153"/>
  <circle cx="87.881" cy="415.17" r="4.9153"/>
  <circle cx="90.042" cy="398.6" r="4.9153"/>
  <circle cx="85.36" cy="390.32" r="4.9153"/>
  <circle cx="86.441" cy="376.63" r="4.9153"/>
  <circle cx="81.398" cy="364.39" r="4.9153"/>
  <circle cx="81.398" cy="353.22" r="4.9153"/>
  <circle cx="83.199" cy="339.53" r="4.9153"/>
  <circle cx="79.958" cy="329.45" r="4.9153"/>
  <circle cx="83.199" cy="313.24" r="4.9153"/>
  <circle cx="77.797" cy="302.08" r="4.9153"/>
  <circle cx="75.996" cy="291.27" r="4.9153"/>
  <circle cx="73.475" cy="277.94" r="4.9153"/>
  <circle cx="72.754" cy="265.7" r="4.9153"/>
  <circle cx="71.674" cy="252.73" r="4.9153"/>
  <circle cx="69.873" cy="240.85" r="4.9153"/>
  <circle cx="69.513" cy="230.76" r="4.9153"/>
  <circle cx="67.712" cy="218.88" r="4.9153"/>
  <circle cx="62.669" cy="209.15" r="4.9153"/>
  <circle cx="61.949" cy="195.83" r="4.9153"/>
  <circle cx="54.386" cy="182.5" r="4.9153"/>
  <circle cx="56.547" cy="173.5" r="4.9153"/>
  <circle cx="55.466" cy="158.01" r="4.9153"/>
  <circle cx="51.864" cy="147.2" r="4.9153"/>
  <circle cx="55.466" cy="134.6" r="4.9153"/>
  <circle cx="52.585" cy="120.19" r="4.9153"/>
  <circle cx="56.907" cy="111.55" r="4.9153"/>
  <circle cx="55.106" cy="96.059" r="4.9153"/>
  <circle cx="47.542" cy="91.377" r="4.9153"/>
  <circle cx="51.144" cy="76.25" r="4.9153"/>
  <circle cx="44.301" cy="63.644" r="4.9153"/>
 </g>
</svg>
