<?xml version="1.0" encoding="UTF-8"?>
<!-- Created with Inkscape (http://www.inkscape.org/) -->
<svg width="100" height="650" version="1.1" viewBox="0 0 100 650" xmlns="http://www.w3.org/2000/svg" xmlns:cc="http://creativecommons.org/ns#" xmlns:dc="http://purl.org/dc/elements/1.1/" xmlns:rdf="http://www.w3.org/1999/02/22-rdf-syntax-ns#">
 <metadata>
  <rdf:RDF>
   <cc:Work rdf:about="">
    <dc:format>image/svg+xml</dc:format>
    <dc:type rdf:resource="http://purl.org/dc/dcmitype/StillImage"/>
    <dc:title/>
   </cc:Work>
  </rdf:RDF>
 </metadata>
 <g transform="translate(31.96 87.778)" fill="#e00000">
  <circle cx="17.869" cy="557.24" r="4.9153"/>
  <circle cx="17.418" cy="541.92" r="4.9153"/>
  <circle cx="17.118" cy="535.62" r="4.9153"/>
  <circle cx="18.319" cy="528.41" r="4.9153"/>
  <circle cx="19.07" cy="518.2" r="4.9153"/>
  <circle cx="25.077" cy="506.04" r="4.9153"/>
  <circle cx="25.977" cy="495.22" r="4.9153"/>
  <circle cx="30.783" cy="482.76" r="4.9153"/>
  <circle cx="33.936" cy="472.1" r="4.9153"/>
  <circle cx="32.735" cy="458.13" r="4.9153"/>
  <circle cx="30.783" cy="445.07" r="4.9153"/>
  <circle cx="28.08" cy="430.96" r="4.9153"/>
  <circle cx="26.578" cy="416.69" r="4.9153"/>
  <circle cx="30.783" cy="404.38" r="4.9153"/>
  <circle cx="32.584" cy="391.46" r="4.9153"/>
  <circle cx="26.578" cy="379.15" r="4.9153"/>
  <circle cx="25.227" cy="365.19" r="4.9153"/>
  <circle cx="28.23" cy="349.87" r="4.9153"/>
  <circle cx="29.882" cy="335.76" r="4.9153"/>
  <circle cx="26.578" cy="323.14" r="4.9153"/>
  <circle cx="24.776" cy="310.23" r="4.9153"/>
  <circle cx="20.572" cy="296.71" r="4.9153"/>
  <circle cx="18.77" cy="280.8" r="4.9153"/>
  <circle cx="21.022" cy="266.83" r="4.9153"/>
  <circle cx="21.022" cy="254.37" r="4.9153"/>
  <circle cx="27.629" cy="238.6" r="4.9153"/>
  <circle cx="31.834" cy="223.59" r="4.9153"/>
  <circle cx="36.038" cy="208.87" r="4.9153"/>
  <circle cx="37.089" cy="191.75" r="4.9153"/>
  <circle cx="40.092" cy="177.19" r="4.9153"/>
 </g>
</svg>
