<?xml version="1.0" encoding="UTF-8"?>
<!-- Created with Inkscape (http://www.inkscape.org/) -->
<svg width="100" height="650" version="1.1" viewBox="0 0 100 650" xmlns="http://www.w3.org/2000/svg" xmlns:cc="http://creativecommons.org/ns#" xmlns:dc="http://purl.org/dc/elements/1.1/" xmlns:rdf="http://www.w3.org/1999/02/22-rdf-syntax-ns#">
 <metadata>
  <rdf:RDF>
   <cc:Work rdf:about="">
    <dc:format>image/svg+xml</dc:format>
    <dc:type rdf:resource="http://purl.org/dc/dcmitype/StillImage"/>
    <dc:title/>
   </cc:Work>
  </rdf:RDF>
 </metadata>
 <g transform="translate(13.416 41.307)" fill="#e00000">
  <circle cx="36.573" cy="603.65" r="4.9153"/>
  <circle cx="36.146" cy="589.21" r="4.9153"/>
  <circle cx="35.206" cy="583.14" r="4.9153"/>
  <circle cx="35.804" cy="575.11" r="4.9153"/>
  <circle cx="37.599" cy="567.33" r="4.9153"/>
  <circle cx="38.709" cy="555.54" r="4.9153"/>
  <circle cx="40.248" cy="544.26" r="4.9153"/>
  <circle cx="42.64" cy="531.87" r="4.9153"/>
  <circle cx="43.238" cy="520.68" r="4.9153"/>
  <circle cx="46.656" cy="506.83" r="4.9153"/>
  <circle cx="48.109" cy="494.87" r="4.9153"/>
  <circle cx="45.546" cy="482.65" r="4.9153"/>
  <circle cx="43.58" cy="468.21" r="4.9153"/>
  <circle cx="39.735" cy="453.17" r="4.9153"/>
  <circle cx="38.709" cy="438.05" r="4.9153"/>
  <circle cx="35.206" cy="424.97" r="4.9153"/>
  <circle cx="33.839" cy="411.04" r="4.9153"/>
  <circle cx="40.504" cy="396.52" r="4.9153"/>
  <circle cx="42.726" cy="381.48" r="4.9153"/>
  <circle cx="42.128" cy="365.93" r="4.9153"/>
  <circle cx="40.76" cy="349.26" r="4.9153"/>
  <circle cx="38.453" cy="331.83" r="4.9153"/>
  <circle cx="37.171" cy="314.65" r="4.9153"/>
  <circle cx="34.01" cy="298.16" r="4.9153"/>
  <circle cx="33.668" cy="281.84" r="4.9153"/>
  <circle cx="29.481" cy="267.66" r="4.9153"/>
  <circle cx="29.566" cy="253.3" r="4.9153"/>
  <circle cx="31.019" cy="237.06" r="4.9153"/>
  <circle cx="31.702" cy="220.15" r="4.9153"/>
  <circle cx="38.795" cy="202.2" r="4.9153"/>
 </g>
</svg>
