<?xml version="1.0" encoding="UTF-8"?>
<!-- Created with Inkscape (http://www.inkscape.org/) -->
<svg width="100" height="650" version="1.1" viewBox="0 0 100 650" xmlns="http://www.w3.org/2000/svg" xmlns:cc="http://creativecommons.org/ns#" xmlns:dc="http://purl.org/dc/elements/1.1/" xmlns:rdf="http://www.w3.org/1999/02/22-rdf-syntax-ns#">
 <metadata>
  <rdf:RDF>
   <cc:Work rdf:about="">
    <dc:format>image/svg+xml</dc:format>
    <dc:type rdf:resource="http://purl.org/dc/dcmitype/StillImage"/>
    <dc:title/>
   </cc:Work>
  </rdf:RDF>
 </metadata>
 <g transform="translate(14.129 -58.615)" fill="#e00000">
  <circle cx="35.565" cy="703.55" r="4.9153"/>
  <circle cx="34.513" cy="682.71" r="4.9153"/>
  <circle cx="34.609" cy="676.3" r="4.9153"/>
  <circle cx="31.932" cy="665.31" r="4.9153"/>
  <circle cx="30.498" cy="651.35" r="4.9153"/>
  <circle cx="25.431" cy="635.86" r="4.9153"/>
  <circle cx="23.805" cy="622.57" r="4.9153"/>
  <circle cx="20.172" cy="607.28" r="4.9153"/>
  <circle cx="17.974" cy="589.4" r="4.9153"/>
  <circle cx="12.333" cy="572.67" r="4.9153"/>
  <circle cx="9.3692" cy="553.93" r="4.9153"/>
  <circle cx="12.046" cy="539.4" r="4.9153"/>
  <circle cx="13.002" cy="523.53" r="4.9153"/>
  <circle cx="17.017" cy="504.02" r="4.9153"/>
  <circle cx="19.694" cy="485.09" r="4.9153"/>
  <circle cx="25.048" cy="468.27" r="4.9153"/>
  <circle cx="28.681" cy="451.44" r="4.9153"/>
  <circle cx="24.857" cy="434.42" r="4.9153"/>
  <circle cx="23.327" cy="418.55" r="4.9153"/>
  <circle cx="26.578" cy="400.39" r="4.9153"/>
  <circle cx="27.534" cy="383.37" r="4.9153"/>
  <circle cx="24.857" cy="367.88" r="4.9153"/>
  <circle cx="24.857" cy="350.1" r="4.9153"/>
  <circle cx="25.239" cy="334.42" r="4.9153"/>
  <circle cx="26.96" cy="315.11" r="4.9153"/>
  <circle cx="23.71" cy="295.42" r="4.9153"/>
  <circle cx="23.136" cy="277.63" r="4.9153"/>
  <circle cx="28.299" cy="259.66" r="4.9153"/>
  <circle cx="29.637" cy="242.07" r="4.9153"/>
  <circle cx="27.151" cy="222.57" r="4.9153"/>
 </g>
</svg>
