<?xml version="1.0" encoding="UTF-8"?>
<!-- Created with Inkscape (http://www.inkscape.org/) -->
<svg width="100" height="650" version="1.1" viewBox="0 0 100 650" xmlns="http://www.w3.org/2000/svg" xmlns:cc="http://creativecommons.org/ns#" xmlns:dc="http://purl.org/dc/elements/1.1/" xmlns:rdf="http://www.w3.org/1999/02/22-rdf-syntax-ns#">
 <metadata>
  <rdf:RDF>
   <cc:Work rdf:about="">
    <dc:format>image/svg+xml</dc:format>
    <dc:type rdf:resource="http://purl.org/dc/dcmitype/StillImage"/>
    <dc:title/>
   </cc:Work>
  </rdf:RDF>
 </metadata>
 <g transform="translate(16.989 -65.003)" fill="#e00000">
  <circle cx="32.627" cy="709.89" r="4.9153"/>
  <circle cx="33.593" cy="692.7" r="4.9153"/>
  <circle cx="33.979" cy="684.4" r="4.9153"/>
  <circle cx="31.276" cy="672.63" r="4.9153"/>
  <circle cx="29.731" cy="658.73" r="4.9153"/>
  <circle cx="26.449" cy="646.56" r="4.9153"/>
  <circle cx="24.905" cy="630.35" r="4.9153"/>
  <circle cx="27.608" cy="615.29" r="4.9153"/>
  <circle cx="31.469" cy="597.53" r="4.9153"/>
  <circle cx="25.87" cy="580.15" r="4.9153"/>
  <circle cx="23.36" cy="563.16" r="4.9153"/>
  <circle cx="26.256" cy="546.36" r="4.9153"/>
  <circle cx="27.608" cy="532.66" r="4.9153"/>
  <circle cx="22.588" cy="516.25" r="4.9153"/>
  <circle cx="20.078" cy="498.87" r="4.9153"/>
  <circle cx="16.024" cy="481.5" r="4.9153"/>
  <circle cx="16.217" cy="463.15" r="4.9153"/>
  <circle cx="17.762" cy="446.55" r="4.9153"/>
  <circle cx="20.271" cy="429.56" r="4.9153"/>
  <circle cx="23.747" cy="413.34" r="4.9153"/>
  <circle cx="26.063" cy="397.13" r="4.9153"/>
  <circle cx="31.276" cy="378.4" r="4.9153"/>
  <circle cx="32.241" cy="360.83" r="4.9153"/>
  <circle cx="30.89" cy="344.23" r="4.9153"/>
  <circle cx="31.083" cy="327.24" r="4.9153"/>
  <circle cx="27.994" cy="307.55" r="4.9153"/>
  <circle cx="26.642" cy="287.85" r="4.9153"/>
  <circle cx="27.994" cy="269.51" r="4.9153"/>
  <circle cx="30.89" cy="250.79" r="4.9153"/>
  <circle cx="35.523" cy="229.16" r="4.9153"/>
 </g>
</svg>
