<?xml version="1.0" encoding="UTF-8"?>
<!-- Created with Inkscape (http://www.inkscape.org/) -->
<svg width="100" height="650" version="1.1" viewBox="0 0 100 650" xmlns="http://www.w3.org/2000/svg" xmlns:cc="http://creativecommons.org/ns#" xmlns:dc="http://purl.org/dc/elements/1.1/" xmlns:rdf="http://www.w3.org/1999/02/22-rdf-syntax-ns#">
 <metadata>
  <rdf:RDF>
   <cc:Work rdf:about="">
    <dc:format>image/svg+xml</dc:format>
    <dc:type rdf:resource="http://purl.org/dc/dcmitype/StillImage"/>
    <dc:title/>
   </cc:Work>
  </rdf:RDF>
 </metadata>
 <g transform="translate(15.447 -45.017)" fill="#e00000">
  <circle cx="34.264" cy="689.96" r="4.9153"/>
  <circle cx="34.077" cy="666.18" r="4.9153"/>
  <circle cx="33.328" cy="658.51" r="4.9153"/>
  <circle cx="32.766" cy="649.14" r="4.9153"/>
  <circle cx="31.83" cy="639.22" r="4.9153"/>
  <circle cx="29.021" cy="626.86" r="4.9153"/>
  <circle cx="28.647" cy="613.76" r="4.9153"/>
  <circle cx="26.026" cy="599.71" r="4.9153"/>
  <circle cx="22.843" cy="583.8" r="4.9153"/>
  <circle cx="26.4" cy="569.57" r="4.9153"/>
  <circle cx="27.898" cy="553.47" r="4.9153"/>
  <circle cx="25.09" cy="539.05" r="4.9153"/>
  <circle cx="25.464" cy="520.89" r="4.9153"/>
  <circle cx="28.834" cy="506.28" r="4.9153"/>
  <circle cx="29.396" cy="490.18" r="4.9153"/>
  <circle cx="35.575" cy="473.33" r="4.9153"/>
  <circle cx="40.068" cy="454.79" r="4.9153"/>
  <circle cx="36.324" cy="436.26" r="4.9153"/>
  <circle cx="35.762" cy="417.91" r="4.9153"/>
  <circle cx="44.749" cy="397.13" r="4.9153"/>
  <circle cx="46.06" cy="380.46" r="4.9153"/>
  <circle cx="50.179" cy="366.04" r="4.9153"/>
  <circle cx="50.553" cy="349.19" r="4.9153"/>
  <circle cx="49.056" cy="331.78" r="4.9153"/>
  <circle cx="49.43" cy="314.37" r="4.9153"/>
  <circle cx="45.311" cy="293.4" r="4.9153"/>
  <circle cx="44.188" cy="276.36" r="4.9153"/>
  <circle cx="38.196" cy="256.89" r="4.9153"/>
  <circle cx="35.575" cy="238.35" r="4.9153"/>
  <circle cx="33.141" cy="218.5" r="4.9153"/>
 </g>
</svg>
