<?xml version="1.0" encoding="UTF-8"?>
<!-- Created with Inkscape (http://www.inkscape.org/) -->
<svg width="100" height="650" version="1.1" viewBox="0 0 100 650" xmlns="http://www.w3.org/2000/svg" xmlns:cc="http://creativecommons.org/ns#" xmlns:dc="http://purl.org/dc/elements/1.1/" xmlns:rdf="http://www.w3.org/1999/02/22-rdf-syntax-ns#">
 <metadata>
  <rdf:RDF>
   <cc:Work rdf:about="">
    <dc:format>image/svg+xml</dc:format>
    <dc:type rdf:resource="http://purl.org/dc/dcmitype/StillImage"/>
    <dc:title/>
   </cc:Work>
  </rdf:RDF>
 </metadata>
 <g transform="translate(27.406 -48.791)" fill="#e00000">
  <circle cx="22.507" cy="693.63" r="4.9153"/>
  <circle cx="23.831" cy="670.19" r="4.9153"/>
  <circle cx="23.566" cy="663.18" r="4.9153"/>
  <circle cx="22.11" cy="650.73" r="4.9153"/>
  <circle cx="21.58" cy="638.15" r="4.9153"/>
  <circle cx="20.124" cy="623.99" r="4.9153"/>
  <circle cx="18.271" cy="607.57" r="4.9153"/>
  <circle cx="21.316" cy="591.42" r="4.9153"/>
  <circle cx="23.434" cy="570.63" r="4.9153"/>
  <circle cx="25.023" cy="555.14" r="4.9153"/>
  <circle cx="27.141" cy="535.55" r="4.9153"/>
  <circle cx="22.64" cy="518.34" r="4.9153"/>
  <circle cx="22.375" cy="499.93" r="4.9153"/>
  <circle cx="28.068" cy="479.41" r="4.9153"/>
  <circle cx="30.319" cy="461.8" r="4.9153"/>
  <circle cx="36.409" cy="445.52" r="4.9153"/>
  <circle cx="37.997" cy="428.71" r="4.9153"/>
  <circle cx="37.203" cy="410.96" r="4.9153"/>
  <circle cx="35.879" cy="390.71" r="4.9153"/>
  <circle cx="39.454" cy="371.91" r="4.9153"/>
  <circle cx="41.837" cy="353.77" r="4.9153"/>
  <circle cx="49.119" cy="336.82" r="4.9153"/>
  <circle cx="51.899" cy="319.88" r="4.9153"/>
  <circle cx="50.84" cy="302.4" r="4.9153"/>
  <circle cx="50.443" cy="282.94" r="4.9153"/>
  <circle cx="54.15" cy="265.86" r="4.9153"/>
  <circle cx="54.017" cy="249.57" r="4.9153"/>
  <circle cx="53.09" cy="234.08" r="4.9153"/>
  <circle cx="52.164" cy="218.06" r="4.9153"/>
  <circle cx="48.986" cy="202.71" r="4.9153"/>
 </g>
</svg>
