<?xml version="1.0" encoding="UTF-8"?>
<!-- Created with Inkscape (http://www.inkscape.org/) -->
<svg width="100" height="650" version="1.1" viewBox="0 0 100 650" xmlns="http://www.w3.org/2000/svg" xmlns:cc="http://creativecommons.org/ns#" xmlns:dc="http://purl.org/dc/elements/1.1/" xmlns:rdf="http://www.w3.org/1999/02/22-rdf-syntax-ns#">
 <metadata>
  <rdf:RDF>
   <cc:Work rdf:about="">
    <dc:format>image/svg+xml</dc:format>
    <dc:type rdf:resource="http://purl.org/dc/dcmitype/StillImage"/>
    <dc:title/>
   </cc:Work>
  </rdf:RDF>
 </metadata>
 <g transform="translate(17.289 -224.38)" fill="#e00000">
  <circle cx="32.6" cy="869.32" r="4.9153"/>
  <circle cx="31.537" cy="845.23" r="4.9153"/>
  <circle cx="30.946" cy="837.31" r="4.9153"/>
  <circle cx="32.836" cy="823.26" r="4.9153"/>
  <circle cx="34.371" cy="810.15" r="4.9153"/>
  <circle cx="33.308" cy="793.26" r="4.9153"/>
  <circle cx="33.19" cy="775.07" r="4.9153"/>
  <circle cx="36.615" cy="754.28" r="4.9153"/>
  <circle cx="38.978" cy="733.14" r="4.9153"/>
  <circle cx="36.025" cy="713.29" r="4.9153"/>
  <circle cx="34.135" cy="695.93" r="4.9153"/>
  <circle cx="31.418" cy="677.86" r="4.9153"/>
  <circle cx="29.056" cy="657.31" r="4.9153"/>
  <circle cx="32.245" cy="636.16" r="4.9153"/>
  <circle cx="34.371" cy="615.02" r="4.9153"/>
  <circle cx="31.182" cy="596.71" r="4.9153"/>
  <circle cx="30.474" cy="575.45" r="4.9153"/>
  <circle cx="37.324" cy="556.32" r="4.9153"/>
  <circle cx="40.513" cy="538.48" r="4.9153"/>
  <circle cx="36.025" cy="521.36" r="4.9153"/>
  <circle cx="33.19" cy="499.62" r="4.9153"/>
  <circle cx="37.088" cy="479.19" r="4.9153"/>
  <circle cx="37.088" cy="457.58" r="4.9153"/>
  <circle cx="35.434" cy="434.19" r="4.9153"/>
  <circle cx="35.08" cy="410.09" r="4.9153"/>
  <circle cx="29.056" cy="386.71" r="4.9153"/>
  <circle cx="28.584" cy="360.72" r="4.9153"/>
  <circle cx="25.867" cy="335.21" r="4.9153"/>
  <circle cx="24.804" cy="314.3" r="4.9153"/>
  <circle cx="27.639" cy="287.49" r="4.9153"/>
 </g>
</svg>
