<?xml version="1.0" encoding="UTF-8"?>
<!-- Created with Inkscape (http://www.inkscape.org/) -->
<svg width="100" height="650" version="1.1" viewBox="0 0 100 650" xmlns="http://www.w3.org/2000/svg" xmlns:cc="http://creativecommons.org/ns#" xmlns:dc="http://purl.org/dc/elements/1.1/" xmlns:rdf="http://www.w3.org/1999/02/22-rdf-syntax-ns#">
 <metadata>
  <rdf:RDF>
   <cc:Work rdf:about="">
    <dc:format>image/svg+xml</dc:format>
    <dc:type rdf:resource="http://purl.org/dc/dcmitype/StillImage"/>
    <dc:title/>
   </cc:Work>
  </rdf:RDF>
 </metadata>
 <g transform="translate(19.309 -197.88)" fill="#e00000">
  <circle cx="14.055" cy="842.81" r="4.9153"/>
  <circle cx="16.128" cy="820.92" r="4.9153"/>
  <circle cx="15.667" cy="814.7" r="4.9153"/>
  <circle cx="20.275" cy="802.49" r="4.9153"/>
  <circle cx="23.731" cy="787.29" r="4.9153"/>
  <circle cx="20.967" cy="772.54" r="4.9153"/>
  <circle cx="19.815" cy="754.11" r="4.9153"/>
  <circle cx="21.427" cy="734.52" r="4.9153"/>
  <circle cx="23.271" cy="718.63" r="4.9153"/>
  <circle cx="32.026" cy="699.5" r="4.9153"/>
  <circle cx="34.56" cy="684.07" r="4.9153"/>
  <circle cx="41.472" cy="664.48" r="4.9153"/>
  <circle cx="43.316" cy="648.35" r="4.9153"/>
  <circle cx="47.693" cy="628.77" r="4.9153"/>
  <circle cx="49.767" cy="606.65" r="4.9153"/>
  <circle cx="48.154" cy="590.06" r="4.9153"/>
  <circle cx="47.693" cy="570.71" r="4.9153"/>
  <circle cx="53.453" cy="549.51" r="4.9153"/>
  <circle cx="57.14" cy="530.39" r="4.9153"/>
  <circle cx="55.527" cy="511.49" r="4.9153"/>
  <circle cx="54.836" cy="491.91" r="4.9153"/>
  <circle cx="59.444" cy="471.86" r="4.9153"/>
  <circle cx="59.213" cy="451.13" r="4.9153"/>
  <circle cx="63.591" cy="431.08" r="4.9153"/>
  <circle cx="64.743" cy="411.27" r="4.9153"/>
  <circle cx="71.194" cy="392.84" r="4.9153"/>
  <circle cx="75.802" cy="368.64" r="4.9153"/>
  <circle cx="72.807" cy="348.6" r="4.9153"/>
  <circle cx="72.346" cy="323.02" r="4.9153"/>
  <circle cx="65.204" cy="299.29" r="4.9153"/>
 </g>
</svg>
