<?xml version="1.0" encoding="UTF-8"?>
<!-- Created with Inkscape (http://www.inkscape.org/) -->
<svg width="100" height="650" version="1.1" viewBox="0 0 100 650" xmlns="http://www.w3.org/2000/svg" xmlns:cc="http://creativecommons.org/ns#" xmlns:dc="http://purl.org/dc/elements/1.1/" xmlns:rdf="http://www.w3.org/1999/02/22-rdf-syntax-ns#">
 <metadata>
  <rdf:RDF>
   <cc:Work rdf:about="">
    <dc:format>image/svg+xml</dc:format>
    <dc:type rdf:resource="http://purl.org/dc/dcmitype/StillImage"/>
    <dc:title/>
   </cc:Work>
  </rdf:RDF>
 </metadata>
 <g fill="#e00000">
  <circle cx="37.613" cy="644.91" r="4.9153"/>
  <circle cx="42.141" cy="621.31" r="4.9153"/>
  <circle cx="43.995" cy="613.06" r="4.9153"/>
  <circle cx="46.354" cy="599.57" r="4.9153"/>
  <circle cx="47.534" cy="584.57" r="4.9153"/>
  <circle cx="44.332" cy="566.71" r="4.9153"/>
  <circle cx="43.658" cy="550.7" r="4.9153"/>
  <circle cx="45.343" cy="530.81" r="4.9153"/>
  <circle cx="46.186" cy="509.74" r="4.9153"/>
  <circle cx="49.557" cy="489.52" r="4.9153"/>
  <circle cx="51.073" cy="468.79" r="4.9153"/>
  <circle cx="49.894" cy="448.73" r="4.9153"/>
  <circle cx="48.208" cy="428.68" r="4.9153"/>
  <circle cx="51.41" cy="404.07" r="4.9153"/>
  <circle cx="53.433" cy="381.65" r="4.9153"/>
  <circle cx="57.478" cy="361.26" r="4.9153"/>
  <circle cx="61.017" cy="342.89" r="4.9153"/>
  <circle cx="64.556" cy="318.96" r="4.9153"/>
  <circle cx="65.568" cy="299.58" r="4.9153"/>
  <circle cx="64.556" cy="278" r="4.9153"/>
  <circle cx="62.702" cy="252.72" r="4.9153"/>
  <circle cx="67.759" cy="231.83" r="4.9153"/>
  <circle cx="68.77" cy="206.04" r="4.9153"/>
  <circle cx="75.006" cy="183.12" r="4.9153"/>
  <circle cx="77.871" cy="160.7" r="4.9153"/>
  <circle cx="82.253" cy="134.92" r="4.9153"/>
  <circle cx="85.118" cy="112.67" r="4.9153"/>
  <circle cx="88.994" cy="87.894" r="4.9153"/>
  <circle cx="92.365" cy="64.467" r="4.9153"/>
  <circle cx="94.725" cy="41.377" r="4.9153"/>
 </g>
</svg>
