<?xml version="1.0" encoding="UTF-8"?>
<!-- Created with Inkscape (http://www.inkscape.org/) -->
<svg width="100" height="650" version="1.1" viewBox="0 0 100 650" xmlns="http://www.w3.org/2000/svg" xmlns:cc="http://creativecommons.org/ns#" xmlns:dc="http://purl.org/dc/elements/1.1/" xmlns:rdf="http://www.w3.org/1999/02/22-rdf-syntax-ns#">
 <metadata>
  <rdf:RDF>
   <cc:Work rdf:about="">
    <dc:format>image/svg+xml</dc:format>
    <dc:type rdf:resource="http://purl.org/dc/dcmitype/StillImage"/>
    <dc:title/>
   </cc:Work>
  </rdf:RDF>
 </metadata>
 <g transform="translate(15.727 -73.063)" fill="#e00000">
  <circle cx="14.046" cy="718.12" r="4.9153"/>
  <circle cx="15.826" cy="697.15" r="4.9153"/>
  <circle cx="17.607" cy="689.43" r="4.9153"/>
  <circle cx="18.398" cy="679.34" r="4.9153"/>
  <circle cx="19.981" cy="668.46" r="4.9153"/>
  <circle cx="24.531" cy="654.22" r="4.9153"/>
  <circle cx="25.52" cy="641.76" r="4.9153"/>
  <circle cx="31.257" cy="625.73" r="4.9153"/>
  <circle cx="32.642" cy="611.49" r="4.9153"/>
  <circle cx="36.796" cy="595.07" r="4.9153"/>
  <circle cx="38.181" cy="578.05" r="4.9153"/>
  <circle cx="39.764" cy="561.44" r="4.9153"/>
  <circle cx="42.335" cy="543.83" r="4.9153"/>
  <circle cx="45.105" cy="526.22" r="4.9153"/>
  <circle cx="47.677" cy="511.98" r="4.9153"/>
  <circle cx="52.622" cy="496.55" r="4.9153"/>
  <circle cx="56.381" cy="480.92" r="4.9153"/>
  <circle cx="54.205" cy="461.93" r="4.9153"/>
  <circle cx="53.216" cy="444.72" r="4.9153"/>
  <circle cx="57.172" cy="428.89" r="4.9153"/>
  <circle cx="57.172" cy="407.92" r="4.9153"/>
  <circle cx="61.525" cy="389.52" r="4.9153"/>
  <circle cx="65.283" cy="371.52" r="4.9153"/>
  <circle cx="71.614" cy="353.72" r="4.9153"/>
  <circle cx="73.79" cy="335.71" r="4.9153"/>
  <circle cx="77.153" cy="313.95" r="4.9153"/>
  <circle cx="78.934" cy="295.16" r="4.9153"/>
  <circle cx="74.977" cy="273.2" r="4.9153"/>
  <circle cx="72.207" cy="251.24" r="4.9153"/>
  <circle cx="69.636" cy="229.09" r="4.9153"/>
 </g>
</svg>
