<?xml version="1.0" encoding="UTF-8"?>
<!-- Created with Inkscape (http://www.inkscape.org/) -->
<svg width="100" height="650" version="1.1" viewBox="0 0 100 650" xmlns="http://www.w3.org/2000/svg" xmlns:cc="http://creativecommons.org/ns#" xmlns:dc="http://purl.org/dc/elements/1.1/" xmlns:rdf="http://www.w3.org/1999/02/22-rdf-syntax-ns#">
 <metadata>
  <rdf:RDF>
   <cc:Work rdf:about="">
    <dc:format>image/svg+xml</dc:format>
    <dc:type rdf:resource="http://purl.org/dc/dcmitype/StillImage"/>
    <dc:title/>
   </cc:Work>
  </rdf:RDF>
 </metadata>
 <g transform="translate(24.468 -7.6031)" fill="#e00000">
  <circle cx="25.102" cy="652.66" r="4.9153"/>
  <circle cx="27.13" cy="630.6" r="4.9153"/>
  <circle cx="28.145" cy="622.49" r="4.9153"/>
  <circle cx="24.848" cy="611.58" r="4.9153"/>
  <circle cx="23.327" cy="598.4" r="4.9153"/>
  <circle cx="24.088" cy="586.23" r="4.9153"/>
  <circle cx="26.623" cy="572.28" r="4.9153"/>
  <circle cx="21.806" cy="556.82" r="4.9153"/>
  <circle cx="19.777" cy="540.59" r="4.9153"/>
  <circle cx="14.453" cy="526.13" r="4.9153"/>
  <circle cx="11.664" cy="512.7" r="4.9153"/>
  <circle cx="16.481" cy="499.26" r="4.9153"/>
  <circle cx="17.242" cy="482.02" r="4.9153"/>
  <circle cx="21.045" cy="467.56" r="4.9153"/>
  <circle cx="24.341" cy="449.81" r="4.9153"/>
  <circle cx="21.045" cy="434.6" r="4.9153"/>
  <circle cx="21.045" cy="420.4" r="4.9153"/>
  <circle cx="18.256" cy="405.44" r="4.9153"/>
  <circle cx="17.749" cy="390.23" r="4.9153"/>
  <circle cx="23.073" cy="374.76" r="4.9153"/>
  <circle cx="24.088" cy="357.77" r="4.9153"/>
  <circle cx="23.581" cy="341.29" r="4.9153"/>
  <circle cx="21.806" cy="322.78" r="4.9153"/>
  <circle cx="24.848" cy="309.09" r="4.9153"/>
  <circle cx="26.623" cy="293.88" r="4.9153"/>
  <circle cx="29.412" cy="277.65" r="4.9153"/>
  <circle cx="31.187" cy="260.66" r="4.9153"/>
  <circle cx="28.398" cy="241.39" r="4.9153"/>
  <circle cx="27.13" cy="225.42" r="4.9153"/>
  <circle cx="31.441" cy="207.67" r="4.9153"/>
 </g>
</svg>
