<?xml version="1.0" encoding="UTF-8"?>
<!-- Created with Inkscape (http://www.inkscape.org/) -->
<svg width="100" height="650" version="1.1" viewBox="0 0 100 650" xmlns="http://www.w3.org/2000/svg" xmlns:cc="http://creativecommons.org/ns#" xmlns:dc="http://purl.org/dc/elements/1.1/" xmlns:rdf="http://www.w3.org/1999/02/22-rdf-syntax-ns#">
 <metadata>
  <rdf:RDF>
   <cc:Work rdf:about="">
    <dc:format>image/svg+xml</dc:format>
    <dc:type rdf:resource="http://purl.org/dc/dcmitype/StillImage"/>
    <dc:title/>
   </cc:Work>
  </rdf:RDF>
 </metadata>
 <g transform="translate(42.482 -9.0956)" fill="#e00000">
  <circle cx="7.3205" cy="654.06" r="4.9153"/>
  <circle cx="7.0681" cy="631.84" r="4.9153"/>
  <circle cx="7.3205" cy="624.52" r="4.9153"/>
  <circle cx="8.5827" cy="615.44" r="4.9153"/>
  <circle cx="10.35" cy="604.83" r="4.9153"/>
  <circle cx="11.864" cy="593.47" r="4.9153"/>
  <circle cx="15.398" cy="579.09" r="4.9153"/>
  <circle cx="18.68" cy="564.19" r="4.9153"/>
  <circle cx="20.194" cy="549.05" r="4.9153"/>
  <circle cx="23.981" cy="536.43" r="4.9153"/>
  <circle cx="25.748" cy="520.27" r="4.9153"/>
  <circle cx="28.777" cy="504.11" r="4.9153"/>
  <circle cx="30.544" cy="486.19" r="4.9153"/>
  <circle cx="37.36" cy="468.02" r="4.9153"/>
  <circle cx="40.389" cy="453.63" r="4.9153"/>
  <circle cx="38.874" cy="436.46" r="4.9153"/>
  <circle cx="37.612" cy="420.56" r="4.9153"/>
  <circle cx="40.641" cy="405.41" r="4.9153"/>
  <circle cx="41.399" cy="389.76" r="4.9153"/>
  <circle cx="45.185" cy="373.1" r="4.9153"/>
  <circle cx="45.69" cy="355.18" r="4.9153"/>
  <circle cx="41.904" cy="341.55" r="4.9153"/>
  <circle cx="39.127" cy="325.14" r="4.9153"/>
  <circle cx="36.855" cy="304.44" r="4.9153"/>
  <circle cx="35.34" cy="288.29" r="4.9153"/>
  <circle cx="36.855" cy="271.37" r="4.9153"/>
  <circle cx="38.874" cy="258.25" r="4.9153"/>
  <circle cx="41.651" cy="238.3" r="4.9153"/>
  <circle cx="43.166" cy="221.9" r="4.9153"/>
  <circle cx="41.146" cy="202.96" r="4.9153"/>
 </g>
</svg>
