<?xml version="1.0" encoding="UTF-8"?>
<!-- Created with Inkscape (http://www.inkscape.org/) -->
<svg width="100" height="650" version="1.1" viewBox="0 0 100 650" xmlns="http://www.w3.org/2000/svg" xmlns:cc="http://creativecommons.org/ns#" xmlns:dc="http://purl.org/dc/elements/1.1/" xmlns:rdf="http://www.w3.org/1999/02/22-rdf-syntax-ns#">
 <metadata>
  <rdf:RDF>
   <cc:Work rdf:about="">
    <dc:format>image/svg+xml</dc:format>
    <dc:type rdf:resource="http://purl.org/dc/dcmitype/StillImage"/>
    <dc:title/>
   </cc:Work>
  </rdf:RDF>
 </metadata>
 <g transform="translate(16.398 -34.994)" fill="#e00000">
  <circle cx="33.498" cy="680.01" r="4.9153"/>
  <circle cx="34.657" cy="657.21" r="4.9153"/>
  <circle cx="36.074" cy="649.99" r="4.9153"/>
  <circle cx="35.044" cy="638.27" r="4.9153"/>
  <circle cx="33.498" cy="626.67" r="4.9153"/>
  <circle cx="36.847" cy="612.5" r="4.9153"/>
  <circle cx="36.719" cy="596.4" r="4.9153"/>
  <circle cx="42.259" cy="583.13" r="4.9153"/>
  <circle cx="43.547" cy="568.95" r="4.9153"/>
  <circle cx="48.314" cy="551.43" r="4.9153"/>
  <circle cx="52.437" cy="535.97" r="4.9153"/>
  <circle cx="56.302" cy="523.22" r="4.9153"/>
  <circle cx="58.234" cy="507.11" r="4.9153"/>
  <circle cx="56.302" cy="487.92" r="4.9153"/>
  <circle cx="55.014" cy="471.42" r="4.9153"/>
  <circle cx="52.952" cy="454.29" r="4.9153"/>
  <circle cx="50.762" cy="437.93" r="4.9153"/>
  <circle cx="56.431" cy="421.56" r="4.9153"/>
  <circle cx="57.333" cy="401.59" r="4.9153"/>
  <circle cx="53.854" cy="383.3" r="4.9153"/>
  <circle cx="53.081" cy="367.71" r="4.9153"/>
  <circle cx="50.762" cy="347.48" r="4.9153"/>
  <circle cx="49.474" cy="327.77" r="4.9153"/>
  <circle cx="45.222" cy="307.03" r="4.9153"/>
  <circle cx="42.001" cy="287.32" r="4.9153"/>
  <circle cx="44.32" cy="270.31" r="4.9153"/>
  <circle cx="44.32" cy="256.01" r="4.9153"/>
  <circle cx="40.841" cy="241.32" r="4.9153"/>
  <circle cx="39.682" cy="226.76" r="4.9153"/>
  <circle cx="43.16" cy="209.37" r="4.9153"/>
 </g>
</svg>
