<?xml version="1.0" encoding="UTF-8"?>
<!-- Created with Inkscape (http://www.inkscape.org/) -->
<svg width="100" height="650" version="1.1" viewBox="0 0 100 650" xmlns="http://www.w3.org/2000/svg" xmlns:cc="http://creativecommons.org/ns#" xmlns:dc="http://purl.org/dc/elements/1.1/" xmlns:rdf="http://www.w3.org/1999/02/22-rdf-syntax-ns#">
 <metadata>
  <rdf:RDF>
   <cc:Work rdf:about="">
    <dc:format>image/svg+xml</dc:format>
    <dc:type rdf:resource="http://purl.org/dc/dcmitype/StillImage"/>
    <dc:title/>
   </cc:Work>
  </rdf:RDF>
 </metadata>
 <g transform="translate(3.2832 .45286)" fill="#e00000">
  <circle cx="46.488" cy="644.4" r="4.9153"/>
  <circle cx="47.394" cy="621.98" r="4.9153"/>
  <circle cx="46.262" cy="610.66" r="4.9153"/>
  <circle cx="43.092" cy="595.94" r="4.9153"/>
  <circle cx="40.827" cy="581.45" r="4.9153"/>
  <circle cx="39.922" cy="568.09" r="4.9153"/>
  <circle cx="39.695" cy="552.69" r="4.9153"/>
  <circle cx="36.525" cy="533.67" r="4.9153"/>
  <circle cx="36.525" cy="519.63" r="4.9153"/>
  <circle cx="36.072" cy="502.65" r="4.9153"/>
  <circle cx="38.11" cy="487.71" r="4.9153"/>
  <circle cx="39.469" cy="469.82" r="4.9153"/>
  <circle cx="39.695" cy="452.84" r="4.9153"/>
  <circle cx="37.204" cy="434.72" r="4.9153"/>
  <circle cx="35.167" cy="417.74" r="4.9153"/>
  <circle cx="41.733" cy="402.8" r="4.9153"/>
  <circle cx="43.092" cy="384.68" r="4.9153"/>
  <circle cx="47.62" cy="367.25" r="4.9153"/>
  <circle cx="49.432" cy="344.83" r="4.9153"/>
  <circle cx="52.828" cy="323.09" r="4.9153"/>
  <circle cx="52.602" cy="303.17" r="4.9153"/>
  <circle cx="48.526" cy="280.07" r="4.9153"/>
  <circle cx="47.62" cy="261.73" r="4.9153"/>
  <circle cx="48.752" cy="238.63" r="4.9153"/>
  <circle cx="49.432" cy="219.16" r="4.9153"/>
  <circle cx="55.319" cy="196.52" r="4.9153"/>
  <circle cx="58.715" cy="170.93" r="4.9153"/>
  <circle cx="64.829" cy="146.48" r="4.9153"/>
  <circle cx="68.225" cy="123.61" r="4.9153"/>
  <circle cx="70.716" cy="98.7" r="4.9153"/>
  <circle cx="72.301" cy="73.793" r="4.9153"/>
  <circle cx="74.339" cy="46.169" r="4.9153"/>
  <circle cx="75.924" cy="22.167" r="4.9153"/>
 </g>
</svg>
