<?xml version="1.0" encoding="UTF-8"?>
<!-- Created with Inkscape (http://www.inkscape.org/) -->
<svg width="100" height="650" version="1.1" viewBox="0 0 100 650" xmlns="http://www.w3.org/2000/svg" xmlns:cc="http://creativecommons.org/ns#" xmlns:dc="http://purl.org/dc/elements/1.1/" xmlns:rdf="http://www.w3.org/1999/02/22-rdf-syntax-ns#">
 <metadata>
  <rdf:RDF>
   <cc:Work rdf:about="">
    <dc:format>image/svg+xml</dc:format>
    <dc:type rdf:resource="http://purl.org/dc/dcmitype/StillImage"/>
    <dc:title/>
   </cc:Work>
  </rdf:RDF>
 </metadata>
 <g transform="translate(-11.415)" fill="#e00000">
  <circle cx="80.499" cy="645.47" r="4.9153"/>
  <circle cx="79.887" cy="634.46" r="4.9153"/>
  <circle cx="84.577" cy="622.63" r="4.9153"/>
  <circle cx="78.867" cy="606.93" r="4.9153"/>
  <circle cx="80.907" cy="591.84" r="4.9153"/>
  <circle cx="77.848" cy="571.45" r="4.9153"/>
  <circle cx="74.993" cy="551.67" r="4.9153"/>
  <circle cx="70.711" cy="535.56" r="4.9153"/>
  <circle cx="64.185" cy="515.98" r="4.9153"/>
  <circle cx="61.33" cy="496.2" r="4.9153"/>
  <circle cx="63.981" cy="475.81" r="4.9153"/>
  <circle cx="60.107" cy="459.5" r="4.9153"/>
  <circle cx="55.009" cy="441.96" r="4.9153"/>
  <circle cx="52.358" cy="422.59" r="4.9153"/>
  <circle cx="48.279" cy="406.48" r="4.9153"/>
  <circle cx="42.162" cy="387.92" r="4.9153"/>
  <circle cx="37.064" cy="369.16" r="4.9153"/>
  <circle cx="41.958" cy="349.18" r="4.9153"/>
  <circle cx="39.103" cy="330.82" r="4.9153"/>
  <circle cx="43.385" cy="315.12" r="4.9153"/>
  <circle cx="47.26" cy="295.14" r="4.9153"/>
  <circle cx="41.958" cy="277.81" r="4.9153"/>
  <circle cx="45.221" cy="261.7" r="4.9153"/>
  <circle cx="48.279" cy="244.57" r="4.9153"/>
  <circle cx="45.017" cy="224.79" r="4.9153"/>
  <circle cx="40.327" cy="208.47" r="4.9153"/>
  <circle cx="37.472" cy="190.12" r="4.9153"/>
  <circle cx="34.821" cy="169.32" r="4.9153"/>
  <circle cx="31.354" cy="148.93" r="4.9153"/>
  <circle cx="27.48" cy="131.19" r="4.9153"/>
  <circle cx="22.382" cy="109.78" r="4.9153"/>
  <circle cx="26.052" cy="89.588" r="4.9153"/>
  <circle cx="21.974" cy="69.4" r="4.9153"/>
  <circle cx="17.692" cy="49.212" r="4.9153"/>
  <circle cx="23.605" cy="29.228" r="4.9153"/>
  <circle cx="26.868" cy="4.9612" r="4.9153"/>
 </g>
</svg>
