<?xml version="1.0" encoding="UTF-8"?>
<!-- Created with Inkscape (http://www.inkscape.org/) -->
<svg width="100" height="650" version="1.1" viewBox="0 0 100 650" xmlns="http://www.w3.org/2000/svg" xmlns:cc="http://creativecommons.org/ns#" xmlns:dc="http://purl.org/dc/elements/1.1/" xmlns:rdf="http://www.w3.org/1999/02/22-rdf-syntax-ns#">
 <metadata>
  <rdf:RDF>
   <cc:Work rdf:about="">
    <dc:format>image/svg+xml</dc:format>
    <dc:type rdf:resource="http://purl.org/dc/dcmitype/StillImage"/>
    <dc:title/>
   </cc:Work>
  </rdf:RDF>
 </metadata>
 <g transform="translate(17.56 -80.597)" fill="#e00000">
  <circle cx="32.16" cy="725.66" r="4.9153"/>
  <circle cx="32.357" cy="702.98" r="4.9153"/>
  <circle cx="32.949" cy="694.89" r="4.9153"/>
  <circle cx="35.908" cy="681.47" r="4.9153"/>
  <circle cx="37.487" cy="667.66" r="4.9153"/>
  <circle cx="33.935" cy="647.93" r="4.9153"/>
  <circle cx="32.357" cy="631.16" r="4.9153"/>
  <circle cx="37.289" cy="610.44" r="4.9153"/>
  <circle cx="37.092" cy="592.49" r="4.9153"/>
  <circle cx="42.419" cy="573.94" r="4.9153"/>
  <circle cx="44.195" cy="556.19" r="4.9153"/>
  <circle cx="35.316" cy="536.06" r="4.9153"/>
  <circle cx="35.908" cy="518.9" r="4.9153"/>
  <circle cx="29.003" cy="503.11" r="4.9153"/>
  <circle cx="28.411" cy="485.16" r="4.9153"/>
  <circle cx="23.281" cy="467.8" r="4.9153"/>
  <circle cx="21.9" cy="449.25" r="4.9153"/>
  <circle cx="25.452" cy="433.07" r="4.9153"/>
  <circle cx="25.846" cy="414.72" r="4.9153"/>
  <circle cx="30.187" cy="399.33" r="4.9153"/>
  <circle cx="30.384" cy="381.38" r="4.9153"/>
  <circle cx="36.106" cy="362.83" r="4.9153"/>
  <circle cx="39.854" cy="343.3" r="4.9153"/>
  <circle cx="43.208" cy="324.36" r="4.9153"/>
  <circle cx="44.392" cy="303.05" r="4.9153"/>
  <circle cx="42.814" cy="283.91" r="4.9153"/>
  <circle cx="42.617" cy="266.55" r="4.9153"/>
  <circle cx="36.895" cy="250.57" r="4.9153"/>
  <circle cx="33.541" cy="231.63" r="4.9153"/>
 </g>
</svg>
