<?xml version="1.0" encoding="UTF-8"?>
<!-- Created with Inkscape (http://www.inkscape.org/) -->
<svg width="100" height="650" version="1.1" viewBox="0 0 100 650" xmlns="http://www.w3.org/2000/svg" xmlns:cc="http://creativecommons.org/ns#" xmlns:dc="http://purl.org/dc/elements/1.1/" xmlns:rdf="http://www.w3.org/1999/02/22-rdf-syntax-ns#">
 <metadata>
  <rdf:RDF>
   <cc:Work rdf:about="">
    <dc:format>image/svg+xml</dc:format>
    <dc:type rdf:resource="http://purl.org/dc/dcmitype/StillImage"/>
    <dc:title/>
   </cc:Work>
  </rdf:RDF>
 </metadata>
 <g transform="translate(10.225 -70.979)" fill="#e00000">
  <circle cx="39.523" cy="716.05" r="4.9153"/>
  <circle cx="40.68" cy="694.45" r="4.9153"/>
  <circle cx="40.487" cy="683.08" r="4.9153"/>
  <circle cx="39.331" cy="670.55" r="4.9153"/>
  <circle cx="37.403" cy="656.28" r="4.9153"/>
  <circle cx="41.644" cy="641.05" r="4.9153"/>
  <circle cx="42.994" cy="626.2" r="4.9153"/>
  <circle cx="39.909" cy="609.24" r="4.9153"/>
  <circle cx="39.909" cy="590.73" r="4.9153"/>
  <circle cx="40.294" cy="577.04" r="4.9153"/>
  <circle cx="43.765" cy="561.04" r="4.9153"/>
  <circle cx="34.896" cy="542.92" r="4.9153"/>
  <circle cx="34.703" cy="528.07" r="4.9153"/>
  <circle cx="28.148" cy="508.98" r="4.9153"/>
  <circle cx="25.064" cy="492.4" r="4.9153"/>
  <circle cx="20.629" cy="470.81" r="4.9153"/>
  <circle cx="17.93" cy="455" r="4.9153"/>
  <circle cx="23.328" cy="438.81" r="4.9153"/>
  <circle cx="26.992" cy="422.8" r="4.9153"/>
  <circle cx="24.292" cy="404.1" r="4.9153"/>
  <circle cx="25.256" cy="385.59" r="4.9153"/>
  <circle cx="19.665" cy="366.7" r="4.9153"/>
  <circle cx="18.123" cy="348" r="4.9153"/>
  <circle cx="11.953" cy="328.91" r="4.9153"/>
  <circle cx="9.447" cy="308.67" r="4.9153"/>
  <circle cx="6.5551" cy="287.46" r="4.9153"/>
  <circle cx="5.9767" cy="263.55" r="4.9153"/>
  <circle cx="13.689" cy="244.47" r="4.9153"/>
  <circle cx="15.038" cy="226.73" r="4.9153"/>
 </g>
</svg>
