<?xml version="1.0" encoding="UTF-8"?>
<!-- Created with Inkscape (http://www.inkscape.org/) -->
<svg width="100" height="650" version="1.1" viewBox="0 0 100 650" xmlns="http://www.w3.org/2000/svg" xmlns:cc="http://creativecommons.org/ns#" xmlns:dc="http://purl.org/dc/elements/1.1/" xmlns:rdf="http://www.w3.org/1999/02/22-rdf-syntax-ns#">
 <metadata>
  <rdf:RDF>
   <cc:Work rdf:about="">
    <dc:format>image/svg+xml</dc:format>
    <dc:type rdf:resource="http://purl.org/dc/dcmitype/StillImage"/>
    <dc:title/>
   </cc:Work>
  </rdf:RDF>
 </metadata>
 <g transform="translate(-12.552 -36.6)" fill="#e00000">
  <circle cx="62.37" cy="681.68" r="4.9153"/>
  <circle cx="60.847" cy="666.02" r="4.9153"/>
  <circle cx="59.566" cy="658.24" r="4.9153"/>
  <circle cx="63.5" cy="646.53" r="4.9153"/>
  <circle cx="64.873" cy="631.43" r="4.9153"/>
  <circle cx="63.043" cy="614.32" r="4.9153"/>
  <circle cx="63.134" cy="599.32" r="4.9153"/>
  <circle cx="57.187" cy="583.31" r="4.9153"/>
  <circle cx="54.716" cy="564.82" r="4.9153"/>
  <circle cx="51.422" cy="547.71" r="4.9153"/>
  <circle cx="50.416" cy="531.33" r="4.9153"/>
  <circle cx="53.801" cy="515.23" r="4.9153"/>
  <circle cx="55.174" cy="499.4" r="4.9153"/>
  <circle cx="52.703" cy="483.3" r="4.9153"/>
  <circle cx="51.697" cy="468.29" r="4.9153"/>
  <circle cx="48.037" cy="451.46" r="4.9153"/>
  <circle cx="48.403" cy="433.8" r="4.9153"/>
  <circle cx="50.416" cy="419.43" r="4.9153"/>
  <circle cx="52.246" cy="404.43" r="4.9153"/>
  <circle cx="45.292" cy="388.23" r="4.9153"/>
  <circle cx="43.005" cy="370.48" r="4.9153"/>
  <circle cx="40.168" cy="352.45" r="4.9153"/>
  <circle cx="38.613" cy="337.17" r="4.9153"/>
  <circle cx="32.757" cy="320.98" r="4.9153"/>
  <circle cx="32.025" cy="302.04" r="4.9153"/>
  <circle cx="36.234" cy="284.38" r="4.9153"/>
  <circle cx="40.626" cy="264.89" r="4.9153"/>
  <circle cx="43.919" cy="247.23" r="4.9153"/>
  <circle cx="46.115" cy="229.48" r="4.9153"/>
 </g>
</svg>
