<?xml version="1.0" encoding="UTF-8"?>
<!-- Created with Inkscape (http://www.inkscape.org/) -->
<svg width="100" height="650" version="1.1" viewBox="0 0 100 650" xmlns="http://www.w3.org/2000/svg" xmlns:cc="http://creativecommons.org/ns#" xmlns:dc="http://purl.org/dc/elements/1.1/" xmlns:rdf="http://www.w3.org/1999/02/22-rdf-syntax-ns#">
 <metadata>
  <rdf:RDF>
   <cc:Work rdf:about="">
    <dc:format>image/svg+xml</dc:format>
    <dc:type rdf:resource="http://purl.org/dc/dcmitype/StillImage"/>
    <dc:title/>
   </cc:Work>
  </rdf:RDF>
 </metadata>
 <g transform="translate(22.35 62.43)" fill="#e00000">
  <circle cx="25.478" cy="582.61" r="4.9153"/>
  <circle cx="28.183" cy="560.51" r="4.9153"/>
  <circle cx="30.663" cy="551.5" r="4.9153"/>
  <circle cx="27.958" cy="539.77" r="4.9153"/>
  <circle cx="27.732" cy="525.79" r="4.9153"/>
  <circle cx="23.448" cy="511.59" r="4.9153"/>
  <circle cx="21.419" cy="496.93" r="4.9153"/>
  <circle cx="24.576" cy="481.6" r="4.9153"/>
  <circle cx="23.899" cy="466.72" r="4.9153"/>
  <circle cx="22.772" cy="451.61" r="4.9153"/>
  <circle cx="21.645" cy="435.83" r="4.9153"/>
  <circle cx="25.703" cy="419.82" r="4.9153"/>
  <circle cx="29.085" cy="403.82" r="4.9153"/>
  <circle cx="24.576" cy="387.81" r="4.9153"/>
  <circle cx="23.899" cy="373.15" r="4.9153"/>
  <circle cx="26.83" cy="359.85" r="4.9153"/>
  <circle cx="27.281" cy="346.1" r="4.9153"/>
  <circle cx="30.889" cy="331.22" r="4.9153"/>
  <circle cx="32.242" cy="317.24" r="4.9153"/>
  <circle cx="37.653" cy="302.36" r="4.9153"/>
  <circle cx="39.456" cy="287.48" r="4.9153"/>
  <circle cx="42.838" cy="273.27" r="4.9153"/>
  <circle cx="46.897" cy="259.97" r="4.9153"/>
  <circle cx="52.308" cy="245.09" r="4.9153"/>
  <circle cx="56.141" cy="230.21" r="4.9153"/>
  <circle cx="61.101" cy="214.2" r="4.9153"/>
  <circle cx="64.934" cy="200.9" r="4.9153"/>
  <circle cx="70.345" cy="187.59" r="4.9153"/>
  <circle cx="72.6" cy="174.07" r="4.9153"/>
 </g>
</svg>
