<?xml version="1.0" encoding="UTF-8"?>
<!-- Created with Inkscape (http://www.inkscape.org/) -->
<svg width="100" height="650" version="1.1" viewBox="0 0 100 650" xmlns="http://www.w3.org/2000/svg" xmlns:cc="http://creativecommons.org/ns#" xmlns:dc="http://purl.org/dc/elements/1.1/" xmlns:rdf="http://www.w3.org/1999/02/22-rdf-syntax-ns#">
 <metadata>
  <rdf:RDF>
   <cc:Work rdf:about="">
    <dc:format>image/svg+xml</dc:format>
    <dc:type rdf:resource="http://purl.org/dc/dcmitype/StillImage"/>
    <dc:title/>
   </cc:Work>
  </rdf:RDF>
 </metadata>
 <g transform="translate(-5.8676 -82.639)" fill="#e00000">
  <circle cx="55.511" cy="727.66" r="4.9153"/>
  <circle cx="56.942" cy="707.63" r="4.9153"/>
  <circle cx="56.942" cy="697.9" r="4.9153"/>
  <circle cx="59.803" cy="685.6" r="4.9153"/>
  <circle cx="60.948" cy="669.29" r="4.9153"/>
  <circle cx="61.806" cy="653.55" r="4.9153"/>
  <circle cx="64.953" cy="637.81" r="4.9153"/>
  <circle cx="59.803" cy="618.93" r="4.9153"/>
  <circle cx="57.8" cy="600.9" r="4.9153"/>
  <circle cx="52.649" cy="584.59" r="4.9153"/>
  <circle cx="49.502" cy="569.43" r="4.9153"/>
  <circle cx="54.939" cy="550.54" r="4.9153"/>
  <circle cx="57.514" cy="529.94" r="4.9153"/>
  <circle cx="63.809" cy="513.06" r="4.9153"/>
  <circle cx="65.526" cy="494.74" r="4.9153"/>
  <circle cx="61.806" cy="477" r="4.9153"/>
  <circle cx="61.806" cy="456.11" r="4.9153"/>
  <circle cx="56.942" cy="438.95" r="4.9153"/>
  <circle cx="53.794" cy="421.21" r="4.9153"/>
  <circle cx="54.939" cy="401.18" r="4.9153"/>
  <circle cx="57.8" cy="387.44" r="4.9153"/>
  <circle cx="62.95" cy="370.27" r="4.9153"/>
  <circle cx="65.812" cy="350.24" r="4.9153"/>
  <circle cx="64.953" cy="332.22" r="4.9153"/>
  <circle cx="64.095" cy="312.76" r="4.9153"/>
  <circle cx="60.089" cy="293.59" r="4.9153"/>
  <circle cx="58.086" cy="276.13" r="4.9153"/>
  <circle cx="53.508" cy="255.25" r="4.9153"/>
  <circle cx="55.797" cy="240.08" r="4.9153"/>
 </g>
</svg>
