<?xml version="1.0" encoding="UTF-8"?>
<!-- Created with Inkscape (http://www.inkscape.org/) -->
<svg width="100" height="650" version="1.1" viewBox="0 0 100 650" xmlns="http://www.w3.org/2000/svg" xmlns:cc="http://creativecommons.org/ns#" xmlns:dc="http://purl.org/dc/elements/1.1/" xmlns:rdf="http://www.w3.org/1999/02/22-rdf-syntax-ns#">
 <metadata>
  <rdf:RDF>
   <cc:Work rdf:about="">
    <dc:format>image/svg+xml</dc:format>
    <dc:type rdf:resource="http://purl.org/dc/dcmitype/StillImage"/>
    <dc:title/>
   </cc:Work>
  </rdf:RDF>
 </metadata>
 <g transform="translate(8.8411 -145.4)" fill="#e00000">
  <circle cx="40.959" cy="790.29" r="4.9153"/>
  <circle cx="42.252" cy="768.3" r="4.9153"/>
  <circle cx="43.33" cy="758.38" r="4.9153"/>
  <circle cx="39.881" cy="743.29" r="4.9153"/>
  <circle cx="37.941" cy="726.48" r="4.9153"/>
  <circle cx="33.845" cy="712.03" r="4.9153"/>
  <circle cx="31.905" cy="696.08" r="4.9153"/>
  <circle cx="36.432" cy="681.42" r="4.9153"/>
  <circle cx="37.078" cy="664.18" r="4.9153"/>
  <circle cx="40.312" cy="645.64" r="4.9153"/>
  <circle cx="41.174" cy="629.9" r="4.9153"/>
  <circle cx="47.641" cy="613.3" r="4.9153"/>
  <circle cx="51.522" cy="594.12" r="4.9153"/>
  <circle cx="56.48" cy="575.79" r="4.9153"/>
  <circle cx="55.833" cy="560.06" r="4.9153"/>
  <circle cx="60.576" cy="540.87" r="4.9153"/>
  <circle cx="60.576" cy="524.7" r="4.9153"/>
  <circle cx="64.887" cy="507.24" r="4.9153"/>
  <circle cx="65.749" cy="489.35" r="4.9153"/>
  <circle cx="71.139" cy="473.4" r="4.9153"/>
  <circle cx="73.726" cy="452.7" r="4.9153"/>
  <circle cx="67.905" cy="433.08" r="4.9153"/>
  <circle cx="65.965" cy="412.17" r="4.9153"/>
  <circle cx="70.708" cy="389.11" r="4.9153"/>
  <circle cx="73.294" cy="368.2" r="4.9153"/>
  <circle cx="72.432" cy="347.72" r="4.9153"/>
  <circle cx="71.57" cy="325.3" r="4.9153"/>
  <circle cx="66.612" cy="304.82" r="4.9153"/>
  <circle cx="65.318" cy="282.18" r="4.9153"/>
 </g>
</svg>
