<?xml version="1.0" encoding="UTF-8"?>
<!-- Created with Inkscape (http://www.inkscape.org/) -->
<svg width="100" height="650" version="1.1" viewBox="0 0 100 650" xmlns="http://www.w3.org/2000/svg" xmlns:cc="http://creativecommons.org/ns#" xmlns:dc="http://purl.org/dc/elements/1.1/" xmlns:rdf="http://www.w3.org/1999/02/22-rdf-syntax-ns#">
 <metadata>
  <rdf:RDF>
   <cc:Work rdf:about="">
    <dc:format>image/svg+xml</dc:format>
    <dc:type rdf:resource="http://purl.org/dc/dcmitype/StillImage"/>
    <dc:title/>
   </cc:Work>
  </rdf:RDF>
 </metadata>
 <g transform="translate(21.947 -231.78)" fill="#e00000">
  <circle cx="27.794" cy="876.7" r="4.9153"/>
  <circle cx="26.099" cy="856.7" r="4.9153"/>
  <circle cx="25.929" cy="845.35" r="4.9153"/>
  <circle cx="23.557" cy="826.7" r="4.9153"/>
  <circle cx="22.879" cy="806.37" r="4.9153"/>
  <circle cx="18.473" cy="788.06" r="4.9153"/>
  <circle cx="17.456" cy="766.88" r="4.9153"/>
  <circle cx="12.033" cy="747.05" r="4.9153"/>
  <circle cx="11.863" cy="726.71" r="4.9153"/>
  <circle cx="15.592" cy="709.09" r="4.9153"/>
  <circle cx="17.286" cy="691.12" r="4.9153"/>
  <circle cx="22.37" cy="667.4" r="4.9153"/>
  <circle cx="23.218" cy="646.04" r="4.9153"/>
  <circle cx="26.777" cy="626.39" r="4.9153"/>
  <circle cx="26.946" cy="605.88" r="4.9153"/>
  <circle cx="34.912" cy="584.19" r="4.9153"/>
  <circle cx="37.454" cy="559.44" r="4.9153"/>
  <circle cx="32.878" cy="539.28" r="4.9153"/>
  <circle cx="33.556" cy="518.6" r="4.9153"/>
  <circle cx="39.148" cy="495.04" r="4.9153"/>
  <circle cx="39.996" cy="474.88" r="4.9153"/>
  <circle cx="44.572" cy="452.51" r="4.9153"/>
  <circle cx="45.927" cy="431.49" r="4.9153"/>
  <circle cx="38.809" cy="410.48" r="4.9153"/>
  <circle cx="36.267" cy="392.17" r="4.9153"/>
  <circle cx="37.962" cy="371.5" r="4.9153"/>
  <circle cx="39.996" cy="346.25" r="4.9153"/>
  <circle cx="44.741" cy="320.32" r="4.9153"/>
  <circle cx="46.436" cy="298.62" r="4.9153"/>
 </g>
</svg>
