<?xml version="1.0" encoding="UTF-8"?>
<!-- Created with Inkscape (http://www.inkscape.org/) -->
<svg width="100" height="650" version="1.1" viewBox="0 0 100 650" xmlns="http://www.w3.org/2000/svg" xmlns:cc="http://creativecommons.org/ns#" xmlns:dc="http://purl.org/dc/elements/1.1/" xmlns:rdf="http://www.w3.org/1999/02/22-rdf-syntax-ns#">
 <metadata>
  <rdf:RDF>
   <cc:Work rdf:about="">
    <dc:format>image/svg+xml</dc:format>
    <dc:type rdf:resource="http://purl.org/dc/dcmitype/StillImage"/>
    <dc:title/>
   </cc:Work>
  </rdf:RDF>
 </metadata>
 <g transform="translate(1.5932 -93.337)" fill="#e00000">
  <circle cx="48.095" cy="738.26" r="4.9153"/>
  <circle cx="47.597" cy="722.92" r="4.9153"/>
  <circle cx="47.199" cy="714.26" r="4.9153"/>
  <circle cx="42.718" cy="700.62" r="4.9153"/>
  <circle cx="42.32" cy="686.58" r="4.9153"/>
  <circle cx="45.805" cy="670.65" r="4.9153"/>
  <circle cx="47.697" cy="655.01" r="4.9153"/>
  <circle cx="52.875" cy="634.6" r="4.9153"/>
  <circle cx="54.568" cy="621.56" r="4.9153"/>
  <circle cx="62.335" cy="605.52" r="4.9153"/>
  <circle cx="65.82" cy="588.5" r="4.9153"/>
  <circle cx="63.032" cy="570.97" r="4.9153"/>
  <circle cx="62.136" cy="552.05" r="4.9153"/>
  <circle cx="57.555" cy="535.72" r="4.9153"/>
  <circle cx="56.758" cy="519.79" r="4.9153"/>
  <circle cx="52.676" cy="503.26" r="4.9153"/>
  <circle cx="50.983" cy="486.73" r="4.9153"/>
  <circle cx="55.066" cy="468.81" r="4.9153"/>
  <circle cx="55.962" cy="453.57" r="4.9153"/>
  <circle cx="53.672" cy="433.75" r="4.9153"/>
  <circle cx="51.481" cy="417.62" r="4.9153"/>
  <circle cx="54.767" cy="399.1" r="4.9153"/>
  <circle cx="57.754" cy="377.49" r="4.9153"/>
  <circle cx="54.169" cy="358.28" r="4.9153"/>
  <circle cx="53.871" cy="335.57" r="4.9153"/>
  <circle cx="50.684" cy="314.36" r="4.9153"/>
  <circle cx="49.29" cy="297.43" r="4.9153"/>
  <circle cx="55.265" cy="278.51" r="4.9153"/>
  <circle cx="56.758" cy="260.99" r="4.9153"/>
 </g>
</svg>
