<?xml version="1.0" encoding="UTF-8"?>
<!-- Created with Inkscape (http://www.inkscape.org/) -->
<svg width="100" height="650" version="1.1" viewBox="0 0 100 650" xmlns="http://www.w3.org/2000/svg" xmlns:cc="http://creativecommons.org/ns#" xmlns:dc="http://purl.org/dc/elements/1.1/" xmlns:rdf="http://www.w3.org/1999/02/22-rdf-syntax-ns#">
 <metadata>
  <rdf:RDF>
   <cc:Work rdf:about="">
    <dc:format>image/svg+xml</dc:format>
    <dc:type rdf:resource="http://purl.org/dc/dcmitype/StillImage"/>
    <dc:title/>
   </cc:Work>
  </rdf:RDF>
 </metadata>
 <g transform="translate(-7.9179 174.65)" fill="#e00000">
  <circle cx="57.918" cy="470.3" r="4.9153"/>
  <circle cx="59.978" cy="450.73" r="4.9153"/>
  <circle cx="59.463" cy="443.78" r="4.9153"/>
  <circle cx="62.294" cy="432.46" r="4.9153"/>
  <circle cx="62.037" cy="417.53" r="4.9153"/>
  <circle cx="64.869" cy="402.85" r="4.9153"/>
  <circle cx="68.215" cy="387.67" r="4.9153"/>
  <circle cx="62.552" cy="370.68" r="4.9153"/>
  <circle cx="62.552" cy="353.69" r="4.9153"/>
  <circle cx="65.641" cy="337.73" r="4.9153"/>
  <circle cx="66.928" cy="324.34" r="4.9153"/>
  <circle cx="70.532" cy="309.93" r="4.9153"/>
  <circle cx="72.591" cy="293.71" r="4.9153"/>
  <circle cx="67.958" cy="276.72" r="4.9153"/>
  <circle cx="68.215" cy="259.99" r="4.9153"/>
  <circle cx="58.433" cy="243.26" r="4.9153"/>
  <circle cx="56.117" cy="226.27" r="4.9153"/>
  <circle cx="51.998" cy="211.34" r="4.9153"/>
  <circle cx="51.74" cy="194.09" r="4.9153"/>
  <circle cx="47.622" cy="178.65" r="4.9153"/>
  <circle cx="47.622" cy="165.26" r="4.9153"/>
  <circle cx="45.305" cy="149.04" r="4.9153"/>
  <circle cx="42.731" cy="128.19" r="4.9153"/>
  <circle cx="34.751" cy="114.29" r="4.9153"/>
  <circle cx="32.434" cy="99.362" r="4.9153"/>
  <circle cx="24.712" cy="81.343" r="4.9153"/>
  <circle cx="22.91" cy="67.185" r="4.9153"/>
  <circle cx="26.514" cy="51.226" r="4.9153"/>
  <circle cx="29.603" cy="34.751" r="4.9153"/>
 </g>
</svg>
