<?xml version="1.0" encoding="UTF-8"?>
<!-- Created with Inkscape (http://www.inkscape.org/) -->
<svg width="100" height="650" version="1.1" viewBox="0 0 100 650" xmlns="http://www.w3.org/2000/svg" xmlns:cc="http://creativecommons.org/ns#" xmlns:dc="http://purl.org/dc/elements/1.1/" xmlns:rdf="http://www.w3.org/1999/02/22-rdf-syntax-ns#">
 <metadata>
  <rdf:RDF>
   <cc:Work rdf:about="">
    <dc:format>image/svg+xml</dc:format>
    <dc:type rdf:resource="http://purl.org/dc/dcmitype/StillImage"/>
    <dc:title/>
   </cc:Work>
  </rdf:RDF>
 </metadata>
 <g transform="translate(31.283 -244.97)" fill="#e00000">
  <circle cx="18.432" cy="889.98" r="4.9153"/>
  <circle cx="20.799" cy="875.44" r="4.9153"/>
  <circle cx="20.292" cy="865.29" r="4.9153"/>
  <circle cx="15.388" cy="849.56" r="4.9153"/>
  <circle cx="13.528" cy="832.82" r="4.9153"/>
  <circle cx="18.432" cy="816.42" r="4.9153"/>
  <circle cx="19.785" cy="796.47" r="4.9153"/>
  <circle cx="24.012" cy="777.19" r="4.9153"/>
  <circle cx="26.041" cy="751.49" r="4.9153"/>
  <circle cx="30.269" cy="730.01" r="4.9153"/>
  <circle cx="33.143" cy="705.83" r="4.9153"/>
  <circle cx="31.114" cy="684.52" r="4.9153"/>
  <circle cx="29.085" cy="664.57" r="4.9153"/>
  <circle cx="26.718" cy="639.71" r="4.9153"/>
  <circle cx="25.027" cy="615.53" r="4.9153"/>
  <circle cx="28.409" cy="591.35" r="4.9153"/>
  <circle cx="29.761" cy="567.51" r="4.9153"/>
  <circle cx="22.828" cy="546.37" r="4.9153"/>
  <circle cx="22.659" cy="528.28" r="4.9153"/>
  <circle cx="25.703" cy="509.17" r="4.9153"/>
  <circle cx="26.379" cy="486.34" r="4.9153"/>
  <circle cx="24.688" cy="461.31" r="4.9153"/>
  <circle cx="24.519" cy="440.35" r="4.9153"/>
  <circle cx="22.321" cy="417.86" r="4.9153"/>
  <circle cx="20.461" cy="393.17" r="4.9153"/>
  <circle cx="26.041" cy="370.85" r="4.9153"/>
  <circle cx="26.887" cy="349.54" r="4.9153"/>
  <circle cx="20.292" cy="325.87" r="4.9153"/>
  <circle cx="17.924" cy="301.18" r="4.9153"/>
 </g>
</svg>
