<?xml version="1.0" encoding="UTF-8"?>
<!-- Created with Inkscape (http://www.inkscape.org/) -->
<svg width="100" height="650" version="1.1" viewBox="0 0 100 650" xmlns="http://www.w3.org/2000/svg" xmlns:cc="http://creativecommons.org/ns#" xmlns:dc="http://purl.org/dc/elements/1.1/" xmlns:rdf="http://www.w3.org/1999/02/22-rdf-syntax-ns#">
 <metadata>
  <rdf:RDF>
   <cc:Work rdf:about="">
    <dc:format>image/svg+xml</dc:format>
    <dc:type rdf:resource="http://purl.org/dc/dcmitype/StillImage"/>
    <dc:title/>
   </cc:Work>
  </rdf:RDF>
 </metadata>
 <g transform="translate(-6.0377 11.099)" fill="#e00000">
  <circle cx="55.942" cy="633.85" r="4.9153"/>
  <circle cx="57.913" cy="609.94" r="4.9153"/>
  <circle cx="58.16" cy="602.06" r="4.9153"/>
  <circle cx="57.42" cy="588.75" r="4.9153"/>
  <circle cx="55.942" cy="575.69" r="4.9153"/>
  <circle cx="51.506" cy="559.42" r="4.9153"/>
  <circle cx="50.273" cy="544.88" r="4.9153"/>
  <circle cx="55.449" cy="530.1" r="4.9153"/>
  <circle cx="55.449" cy="514.57" r="4.9153"/>
  <circle cx="50.766" cy="497.57" r="4.9153"/>
  <circle cx="47.809" cy="483.03" r="4.9153"/>
  <circle cx="44.113" cy="468.49" r="4.9153"/>
  <circle cx="41.895" cy="455.18" r="4.9153"/>
  <circle cx="40.17" cy="438.18" r="4.9153"/>
  <circle cx="39.43" cy="420.19" r="4.9153"/>
  <circle cx="43.373" cy="402.69" r="4.9153"/>
  <circle cx="44.852" cy="386.42" r="4.9153"/>
  <circle cx="49.781" cy="373.36" r="4.9153"/>
  <circle cx="51.752" cy="358.08" r="4.9153"/>
  <circle cx="44.605" cy="341.57" r="4.9153"/>
  <circle cx="41.402" cy="326.29" r="4.9153"/>
  <circle cx="46.084" cy="308.06" r="4.9153"/>
  <circle cx="47.809" cy="294.26" r="4.9153"/>
  <circle cx="46.33" cy="278.98" r="4.9153"/>
  <circle cx="44.113" cy="265.18" r="4.9153"/>
  <circle cx="37.705" cy="250.14" r="4.9153"/>
  <circle cx="35.98" cy="236.34" r="4.9153"/>
  <circle cx="31.051" cy="220.08" r="4.9153"/>
  <circle cx="31.298" cy="202.58" r="4.9153"/>
 </g>
</svg>
