<?xml version="1.0" encoding="UTF-8"?>
<!-- Created with Inkscape (http://www.inkscape.org/) -->
<svg width="100" height="650" version="1.1" viewBox="0 0 100 650" xmlns="http://www.w3.org/2000/svg" xmlns:cc="http://creativecommons.org/ns#" xmlns:dc="http://purl.org/dc/elements/1.1/" xmlns:rdf="http://www.w3.org/1999/02/22-rdf-syntax-ns#">
 <metadata>
  <rdf:RDF>
   <cc:Work rdf:about="">
    <dc:format>image/svg+xml</dc:format>
    <dc:type rdf:resource="http://purl.org/dc/dcmitype/StillImage"/>
    <dc:title/>
   </cc:Work>
  </rdf:RDF>
 </metadata>
 <g transform="translate(-32.266 8.7344)" fill="#e00000">
  <circle cx="85.938" cy="636.11" r="4.9153"/>
  <circle cx="87.656" cy="612.91" r="4.9153"/>
  <circle cx="88" cy="605" r="4.9153"/>
  <circle cx="90.234" cy="592.97" r="4.9153"/>
  <circle cx="90.406" cy="580.59" r="4.9153"/>
  <circle cx="88.172" cy="567.88" r="4.9153"/>
  <circle cx="84.734" cy="552.75" r="4.9153"/>
  <circle cx="81.984" cy="538.31" r="4.9153"/>
  <circle cx="80.953" cy="521.47" r="4.9153"/>
  <circle cx="73.047" cy="506.69" r="4.9153"/>
  <circle cx="71.156" cy="493.62" r="4.9153"/>
  <circle cx="73.562" cy="477.12" r="4.9153"/>
  <circle cx="75.109" cy="462.69" r="4.9153"/>
  <circle cx="67.719" cy="448.42" r="4.9153"/>
  <circle cx="64.969" cy="431.23" r="4.9153"/>
  <circle cx="62.562" cy="414.05" r="4.9153"/>
  <circle cx="62.562" cy="399.27" r="4.9153"/>
  <circle cx="56.031" cy="382.42" r="4.9153"/>
  <circle cx="54.656" cy="366.61" r="4.9153"/>
  <circle cx="48.469" cy="348.22" r="4.9153"/>
  <circle cx="47.781" cy="332.41" r="4.9153"/>
  <circle cx="44.172" cy="313.33" r="4.9153"/>
  <circle cx="43.312" cy="295.8" r="4.9153"/>
  <circle cx="40.047" cy="277.75" r="4.9153"/>
  <circle cx="39.016" cy="263.66" r="4.9153"/>
  <circle cx="41.938" cy="247.16" r="4.9153"/>
  <circle cx="41.594" cy="231.17" r="4.9153"/>
  <circle cx="38.5" cy="214.84" r="4.9153"/>
  <circle cx="38.672" cy="196.62" r="4.9153"/>
 </g>
</svg>
