<?xml version="1.0" encoding="UTF-8"?>
<!-- Created with Inkscape (http://www.inkscape.org/) -->
<svg width="100" height="650" version="1.1" viewBox="0 0 100 650" xmlns="http://www.w3.org/2000/svg" xmlns:cc="http://creativecommons.org/ns#" xmlns:dc="http://purl.org/dc/elements/1.1/" xmlns:rdf="http://www.w3.org/1999/02/22-rdf-syntax-ns#">
 <metadata>
  <rdf:RDF>
   <cc:Work rdf:about="">
    <dc:format>image/svg+xml</dc:format>
    <dc:type rdf:resource="http://purl.org/dc/dcmitype/StillImage"/>
    <dc:title/>
   </cc:Work>
  </rdf:RDF>
 </metadata>
 <g transform="translate(3.3321 -238.41)" fill="#e00000">
  <circle cx="12.367" cy="883.49" r="4.9153"/>
  <circle cx="13.318" cy="870.89" r="4.9153"/>
  <circle cx="14.269" cy="860.42" r="4.9153"/>
  <circle cx="11.891" cy="844.97" r="4.9153"/>
  <circle cx="13.08" cy="827.13" r="4.9153"/>
  <circle cx="13.793" cy="808.82" r="4.9153"/>
  <circle cx="16.885" cy="790.03" r="4.9153"/>
  <circle cx="23.782" cy="766.72" r="4.9153"/>
  <circle cx="27.587" cy="748.17" r="4.9153"/>
  <circle cx="31.154" cy="726.06" r="4.9153"/>
  <circle cx="33.532" cy="702.28" r="4.9153"/>
  <circle cx="39.716" cy="677.78" r="4.9153"/>
  <circle cx="41.856" cy="653.29" r="4.9153"/>
  <circle cx="45.899" cy="633.31" r="4.9153"/>
  <circle cx="49.942" cy="614.28" r="4.9153"/>
  <circle cx="54.222" cy="595.73" r="4.9153"/>
  <circle cx="57.552" cy="572.9" r="4.9153"/>
  <circle cx="62.784" cy="551.74" r="4.9153"/>
  <circle cx="64.211" cy="534.14" r="4.9153"/>
  <circle cx="72.059" cy="511.31" r="4.9153"/>
  <circle cx="73.248" cy="489.9" r="4.9153"/>
  <circle cx="77.766" cy="467.07" r="4.9153"/>
  <circle cx="79.907" cy="441.15" r="4.9153"/>
  <circle cx="75.626" cy="420.46" r="4.9153"/>
  <circle cx="75.864" cy="394.06" r="4.9153"/>
  <circle cx="80.382" cy="366.24" r="4.9153"/>
  <circle cx="83.712" cy="336.99" r="4.9153"/>
  <circle cx="90.371" cy="313.92" r="4.9153"/>
  <circle cx="91.56" cy="288.71" r="4.9153"/>
 </g>
</svg>
