<?xml version="1.0" encoding="UTF-8"?>
<!-- Created with Inkscape (http://www.inkscape.org/) -->
<svg width="100" height="650" version="1.1" viewBox="0 0 100 650" xmlns="http://www.w3.org/2000/svg" xmlns:cc="http://creativecommons.org/ns#" xmlns:dc="http://purl.org/dc/elements/1.1/" xmlns:rdf="http://www.w3.org/1999/02/22-rdf-syntax-ns#">
 <metadata>
  <rdf:RDF>
   <cc:Work rdf:about="">
    <dc:format>image/svg+xml</dc:format>
    <dc:type rdf:resource="http://purl.org/dc/dcmitype/StillImage"/>
    <dc:title/>
   </cc:Work>
  </rdf:RDF>
 </metadata>
 <g transform="translate(20.23 -23.336)" fill="#e00000">
  <circle cx="29.626" cy="668.32" r="4.9153"/>
  <circle cx="29.245" cy="648.99" r="4.9153"/>
  <circle cx="29.118" cy="640.98" r="4.9153"/>
  <circle cx="27.592" cy="631.32" r="4.9153"/>
  <circle cx="28.101" cy="617.08" r="4.9153"/>
  <circle cx="24.922" cy="605" r="4.9153"/>
  <circle cx="24.159" cy="589.61" r="4.9153"/>
  <circle cx="25.176" cy="574.99" r="4.9153"/>
  <circle cx="27.083" cy="561.13" r="4.9153"/>
  <circle cx="22.252" cy="543.96" r="4.9153"/>
  <circle cx="19.327" cy="528.33" r="4.9153"/>
  <circle cx="23.905" cy="513.19" r="4.9153"/>
  <circle cx="25.049" cy="494.76" r="4.9153"/>
  <circle cx="20.98" cy="479.24" r="4.9153"/>
  <circle cx="19.2" cy="459.66" r="4.9153"/>
  <circle cx="17.038" cy="445.29" r="4.9153"/>
  <circle cx="16.148" cy="427.88" r="4.9153"/>
  <circle cx="17.293" cy="411.98" r="4.9153"/>
  <circle cx="18.691" cy="397.36" r="4.9153"/>
  <circle cx="16.911" cy="382.35" r="4.9153"/>
  <circle cx="16.657" cy="368.24" r="4.9153"/>
  <circle cx="19.327" cy="352.35" r="4.9153"/>
  <circle cx="18.946" cy="337.47" r="4.9153"/>
  <circle cx="23.777" cy="323.23" r="4.9153"/>
  <circle cx="24.922" cy="305.17" r="4.9153"/>
  <circle cx="27.719" cy="289.15" r="4.9153"/>
  <circle cx="29.626" cy="269.95" r="4.9153"/>
  <circle cx="34.204" cy="250.63" r="4.9153"/>
  <circle cx="36.238" cy="233.59" r="4.9153"/>
 </g>
</svg>
