<?xml version="1.0" encoding="UTF-8"?>
<!-- Created with Inkscape (http://www.inkscape.org/) -->
<svg width="100" height="650" version="1.1" viewBox="0 0 100 650" xmlns="http://www.w3.org/2000/svg" xmlns:cc="http://creativecommons.org/ns#" xmlns:dc="http://purl.org/dc/elements/1.1/" xmlns:rdf="http://www.w3.org/1999/02/22-rdf-syntax-ns#">
 <metadata>
  <rdf:RDF>
   <cc:Work rdf:about="">
    <dc:format>image/svg+xml</dc:format>
    <dc:type rdf:resource="http://purl.org/dc/dcmitype/StillImage"/>
    <dc:title/>
   </cc:Work>
  </rdf:RDF>
 </metadata>
 <g transform="translate(9.2669 -246.95)" fill="#e00000">
  <circle cx="40.298" cy="891.85" r="4.9153"/>
  <circle cx="36.898" cy="870.93" r="4.9153"/>
  <circle cx="37.238" cy="859.71" r="4.9153"/>
  <circle cx="34.007" cy="843.22" r="4.9153"/>
  <circle cx="34.687" cy="822.81" r="4.9153"/>
  <circle cx="36.388" cy="803.43" r="4.9153"/>
  <circle cx="37.238" cy="782.17" r="4.9153"/>
  <circle cx="35.367" cy="760.24" r="4.9153"/>
  <circle cx="34.007" cy="736.94" r="4.9153"/>
  <circle cx="24.655" cy="712.46" r="4.9153"/>
  <circle cx="22.275" cy="690.52" r="4.9153"/>
  <circle cx="13.433" cy="669.44" r="4.9153"/>
  <circle cx="11.732" cy="647.17" r="4.9153"/>
  <circle cx="14.793" cy="623.7" r="4.9153"/>
  <circle cx="16.663" cy="599.39" r="4.9153"/>
  <circle cx="11.732" cy="574.22" r="4.9153"/>
  <circle cx="9.1819" cy="550.93" r="4.9153"/>
  <circle cx="16.323" cy="530.35" r="4.9153"/>
  <circle cx="18.534" cy="508.59" r="4.9153"/>
  <circle cx="21.424" cy="487.33" r="4.9153"/>
  <circle cx="23.465" cy="464.38" r="4.9153"/>
  <circle cx="18.024" cy="446.01" r="4.9153"/>
  <circle cx="18.194" cy="423.91" r="4.9153"/>
  <circle cx="12.413" cy="404.02" r="4.9153"/>
  <circle cx="12.583" cy="382.59" r="4.9153"/>
  <circle cx="7.6516" cy="358.11" r="4.9153"/>
  <circle cx="6.1213" cy="337.87" r="4.9153"/>
  <circle cx="8.8418" cy="318.15" r="4.9153"/>
  <circle cx="9.862" cy="295.53" r="4.9153"/>
 </g>
</svg>
