<?xml version="1.0" encoding="UTF-8"?>
<!-- Created with Inkscape (http://www.inkscape.org/) -->
<svg width="100" height="650" version="1.1" viewBox="0 0 100 650" xmlns="http://www.w3.org/2000/svg" xmlns:cc="http://creativecommons.org/ns#" xmlns:dc="http://purl.org/dc/elements/1.1/" xmlns:rdf="http://www.w3.org/1999/02/22-rdf-syntax-ns#">
 <metadata>
  <rdf:RDF>
   <cc:Work rdf:about="">
    <dc:format>image/svg+xml</dc:format>
    <dc:type rdf:resource="http://purl.org/dc/dcmitype/StillImage"/>
    <dc:title/>
   </cc:Work>
  </rdf:RDF>
 </metadata>
 <g transform="translate(-4.4809 96.605)" fill="#e00000">
  <circle cx="54.219" cy="548.32" r="4.9153"/>
  <circle cx="56.758" cy="534.72" r="4.9153"/>
  <circle cx="57.505" cy="527.41" r="4.9153"/>
  <circle cx="55.564" cy="517.1" r="4.9153"/>
  <circle cx="55.862" cy="506.2" r="4.9153"/>
  <circle cx="53.771" cy="494.1" r="4.9153"/>
  <circle cx="50.784" cy="477.67" r="4.9153"/>
  <circle cx="45.855" cy="467.36" r="4.9153"/>
  <circle cx="44.062" cy="453.17" r="4.9153"/>
  <circle cx="47.946" cy="440.92" r="4.9153"/>
  <circle cx="51.232" cy="427.78" r="4.9153"/>
  <circle cx="49.738" cy="416.13" r="4.9153"/>
  <circle cx="48.394" cy="399.25" r="4.9153"/>
  <circle cx="43.913" cy="385.36" r="4.9153"/>
  <circle cx="40.926" cy="372.81" r="4.9153"/>
  <circle cx="43.764" cy="358.62" r="4.9153"/>
  <circle cx="45.257" cy="344.43" r="4.9153"/>
  <circle cx="51.68" cy="333.53" r="4.9153"/>
  <circle cx="54.966" cy="319.34" r="4.9153"/>
  <circle cx="52.576" cy="304.4" r="4.9153"/>
  <circle cx="52.128" cy="291.11" r="4.9153"/>
  <circle cx="49.29" cy="276.92" r="4.9153"/>
  <circle cx="47.05" cy="264.67" r="4.9153"/>
  <circle cx="51.083" cy="250.33" r="4.9153"/>
  <circle cx="52.576" cy="235.85" r="4.9153"/>
  <circle cx="50.635" cy="223.15" r="4.9153"/>
  <circle cx="49.44" cy="208.36" r="4.9153"/>
  <circle cx="46.154" cy="193.43" r="4.9153"/>
  <circle cx="46.154" cy="179.39" r="4.9153"/>
 </g>
</svg>
