<?xml version="1.0" encoding="UTF-8"?>
<!-- Created with Inkscape (http://www.inkscape.org/) -->
<svg width="100" height="650" version="1.1" viewBox="0 0 100 650" xmlns="http://www.w3.org/2000/svg" xmlns:cc="http://creativecommons.org/ns#" xmlns:dc="http://purl.org/dc/elements/1.1/" xmlns:rdf="http://www.w3.org/1999/02/22-rdf-syntax-ns#">
 <metadata>
  <rdf:RDF>
   <cc:Work rdf:about="">
    <dc:format>image/svg+xml</dc:format>
    <dc:type rdf:resource="http://purl.org/dc/dcmitype/StillImage"/>
    <dc:title/>
   </cc:Work>
  </rdf:RDF>
 </metadata>
 <g transform="translate(-2.0732 2.805)" fill="#e00000">
  <circle cx="51.953" cy="642.24" r="4.9153"/>
  <circle cx="55.367" cy="619.8" r="4.9153"/>
  <circle cx="56.831" cy="608.34" r="4.9153"/>
  <circle cx="53.904" cy="592.97" r="4.9153"/>
  <circle cx="53.416" cy="574.44" r="4.9153"/>
  <circle cx="56.831" cy="553.22" r="4.9153"/>
  <circle cx="58.782" cy="532" r="4.9153"/>
  <circle cx="53.66" cy="509.31" r="4.9153"/>
  <circle cx="52.684" cy="489.07" r="4.9153"/>
  <circle cx="56.587" cy="464.68" r="4.9153"/>
  <circle cx="59.514" cy="441.51" r="4.9153"/>
  <circle cx="56.587" cy="422.24" r="4.9153"/>
  <circle cx="55.611" cy="403.46" r="4.9153"/>
  <circle cx="52.197" cy="380.77" r="4.9153"/>
  <circle cx="51.465" cy="358.09" r="4.9153"/>
  <circle cx="54.392" cy="332.97" r="4.9153"/>
  <circle cx="56.099" cy="311.26" r="4.9153"/>
  <circle cx="53.172" cy="288.82" r="4.9153"/>
  <circle cx="53.416" cy="267.36" r="4.9153"/>
  <circle cx="56.099" cy="243.45" r="4.9153"/>
  <circle cx="59.27" cy="218.09" r="4.9153"/>
  <circle cx="52.928" cy="194.67" r="4.9153"/>
  <circle cx="50.245" cy="171.26" r="4.9153"/>
  <circle cx="56.343" cy="148.57" r="4.9153"/>
  <circle cx="58.05" cy="120.77" r="4.9153"/>
  <circle cx="50.733" cy="95.644" r="4.9153"/>
  <circle cx="49.27" cy="69.302" r="4.9153"/>
  <circle cx="54.392" cy="43.935" r="4.9153"/>
  <circle cx="57.319" cy="14.666" r="4.9153"/>
 </g>
</svg>
