<?xml version="1.0" encoding="UTF-8"?>
<!-- Created with Inkscape (http://www.inkscape.org/) -->
<svg width="100" height="650" version="1.1" viewBox="0 0 100 650" xmlns="http://www.w3.org/2000/svg" xmlns:cc="http://creativecommons.org/ns#" xmlns:dc="http://purl.org/dc/elements/1.1/" xmlns:rdf="http://www.w3.org/1999/02/22-rdf-syntax-ns#">
 <metadata>
  <rdf:RDF>
   <cc:Work rdf:about="">
    <dc:format>image/svg+xml</dc:format>
    <dc:type rdf:resource="http://purl.org/dc/dcmitype/StillImage"/>
    <dc:title/>
   </cc:Work>
  </rdf:RDF>
 </metadata>
 <g transform="translate(-4.1994 -28.952)" fill="#e00000">
  <circle cx="54.011" cy="673.98" r="4.9153"/>
  <circle cx="53.235" cy="655.63" r="4.9153"/>
  <circle cx="53.235" cy="646.07" r="4.9153"/>
  <circle cx="50.651" cy="632.89" r="4.9153"/>
  <circle cx="50.651" cy="618.68" r="4.9153"/>
  <circle cx="48.325" cy="604.98" r="4.9153"/>
  <circle cx="48.325" cy="588.7" r="4.9153"/>
  <circle cx="50.909" cy="574.23" r="4.9153"/>
  <circle cx="52.46" cy="557.95" r="4.9153"/>
  <circle cx="59.437" cy="538.56" r="4.9153"/>
  <circle cx="62.022" cy="522.54" r="4.9153"/>
  <circle cx="59.696" cy="503.94" r="4.9153"/>
  <circle cx="58.662" cy="488.43" r="4.9153"/>
  <circle cx="50.393" cy="467.24" r="4.9153"/>
  <circle cx="49.617" cy="451.73" r="4.9153"/>
  <circle cx="55.044" cy="436.49" r="4.9153"/>
  <circle cx="54.269" cy="419.69" r="4.9153"/>
  <circle cx="64.347" cy="402.89" r="4.9153"/>
  <circle cx="66.156" cy="386.87" r="4.9153"/>
  <circle cx="62.797" cy="371.62" r="4.9153"/>
  <circle cx="61.763" cy="357.41" r="4.9153"/>
  <circle cx="58.921" cy="339.32" r="4.9153"/>
  <circle cx="57.887" cy="322.26" r="4.9153"/>
  <circle cx="62.28" cy="306.24" r="4.9153"/>
  <circle cx="64.089" cy="292.03" r="4.9153"/>
  <circle cx="62.28" cy="274.71" r="4.9153"/>
  <circle cx="56.853" cy="258.95" r="4.9153"/>
  <circle cx="55.044" cy="240.08" r="4.9153"/>
  <circle cx="53.235" cy="224.84" r="4.9153"/>
 </g>
</svg>
