<?xml version="1.0" encoding="UTF-8"?>
<!-- Created with Inkscape (http://www.inkscape.org/) -->
<svg width="100" height="650" version="1.1" viewBox="0 0 100 650" xmlns="http://www.w3.org/2000/svg" xmlns:cc="http://creativecommons.org/ns#" xmlns:dc="http://purl.org/dc/elements/1.1/" xmlns:rdf="http://www.w3.org/1999/02/22-rdf-syntax-ns#">
 <metadata>
  <rdf:RDF>
   <cc:Work rdf:about="">
    <dc:format>image/svg+xml</dc:format>
    <dc:type rdf:resource="http://purl.org/dc/dcmitype/StillImage"/>
    <dc:title/>
   </cc:Work>
  </rdf:RDF>
 </metadata>
 <g transform="translate(8.0757 81.353)" fill="#e00000">
  <circle cx="41.724" cy="563.58" r="4.9153"/>
  <circle cx="39.135" cy="547.59" r="4.9153"/>
  <circle cx="38.831" cy="540.89" r="4.9153"/>
  <circle cx="36.547" cy="530.23" r="4.9153"/>
  <circle cx="34.11" cy="520.79" r="4.9153"/>
  <circle cx="37.917" cy="508.91" r="4.9153"/>
  <circle cx="37.765" cy="495.66" r="4.9153"/>
  <circle cx="35.938" cy="483.48" r="4.9153"/>
  <circle cx="34.262" cy="471.45" r="4.9153"/>
  <circle cx="38.222" cy="457.29" r="4.9153"/>
  <circle cx="40.201" cy="444.35" r="4.9153"/>
  <circle cx="37.917" cy="431.55" r="4.9153"/>
  <circle cx="36.547" cy="417.55" r="4.9153"/>
  <circle cx="30.912" cy="403.84" r="4.9153"/>
  <circle cx="29.237" cy="391.81" r="4.9153"/>
  <circle cx="34.719" cy="378.87" r="4.9153"/>
  <circle cx="36.242" cy="366.08" r="4.9153"/>
  <circle cx="42.333" cy="353.59" r="4.9153"/>
  <circle cx="44.313" cy="340.64" r="4.9153"/>
  <circle cx="48.881" cy="326.33" r="4.9153"/>
  <circle cx="52.079" cy="313.39" r="4.9153"/>
  <circle cx="46.292" cy="298.62" r="4.9153"/>
  <circle cx="45.226" cy="286.28" r="4.9153"/>
  <circle cx="40.81" cy="266.94" r="4.9153"/>
  <circle cx="39.897" cy="255.83" r="4.9153"/>
  <circle cx="31.978" cy="241.21" r="4.9153"/>
  <circle cx="29.694" cy="227.81" r="4.9153"/>
  <circle cx="31.065" cy="211.82" r="4.9153"/>
  <circle cx="31.978" cy="196.29" r="4.9153"/>
 </g>
</svg>
