<?xml version="1.0" encoding="UTF-8"?>
<!-- Created with Inkscape (http://www.inkscape.org/) -->
<svg width="100" height="650" version="1.1" viewBox="0 0 100 650" xmlns="http://www.w3.org/2000/svg" xmlns:cc="http://creativecommons.org/ns#" xmlns:dc="http://purl.org/dc/elements/1.1/" xmlns:rdf="http://www.w3.org/1999/02/22-rdf-syntax-ns#">
 <metadata>
  <rdf:RDF>
   <cc:Work rdf:about="">
    <dc:format>image/svg+xml</dc:format>
    <dc:type rdf:resource="http://purl.org/dc/dcmitype/StillImage"/>
    <dc:title/>
   </cc:Work>
  </rdf:RDF>
 </metadata>
 <g transform="translate(-19.283 -3.6706)" fill="#e00000">
  <circle cx="68.801" cy="648.49" r="4.9153"/>
  <circle cx="67.55" cy="637.48" r="4.9153"/>
  <circle cx="71.052" cy="632.22" r="4.9153"/>
  <circle cx="71.553" cy="621.22" r="4.9153"/>
  <circle cx="68.801" cy="605.2" r="4.9153"/>
  <circle cx="68.3" cy="591.44" r="4.9153"/>
  <circle cx="67.55" cy="574.68" r="4.9153"/>
  <circle cx="65.548" cy="557.42" r="4.9153"/>
  <circle cx="60.545" cy="542.16" r="4.9153"/>
  <circle cx="58.793" cy="525.14" r="4.9153"/>
  <circle cx="55.04" cy="509.13" r="4.9153"/>
  <circle cx="54.04" cy="492.12" r="4.9153"/>
  <circle cx="50.287" cy="475.61" r="4.9153"/>
  <circle cx="49.536" cy="460.6" r="4.9153"/>
  <circle cx="44.032" cy="444.34" r="4.9153"/>
  <circle cx="43.532" cy="429.32" r="4.9153"/>
  <circle cx="40.78" cy="413.06" r="4.9153"/>
  <circle cx="39.279" cy="395.8" r="4.9153"/>
  <circle cx="31.773" cy="379.54" r="4.9153"/>
  <circle cx="30.272" cy="363.78" r="4.9153"/>
  <circle cx="34.275" cy="348.01" r="4.9153"/>
  <circle cx="37.277" cy="332" r="4.9153"/>
  <circle cx="34.275" cy="314.74" r="4.9153"/>
  <circle cx="30.773" cy="297.73" r="4.9153"/>
  <circle cx="35.526" cy="281.72" r="4.9153"/>
  <circle cx="35.276" cy="264.2" r="4.9153"/>
  <circle cx="43.032" cy="248.69" r="4.9153"/>
  <circle cx="45.784" cy="233.43" r="4.9153"/>
  <circle cx="49.787" cy="214.67" r="4.9153"/>
 </g>
</svg>
