<?xml version="1.0" encoding="UTF-8"?>
<!-- Created with Inkscape (http://www.inkscape.org/) -->
<svg width="100" height="650" version="1.1" viewBox="0 0 100 650" xmlns="http://www.w3.org/2000/svg" xmlns:cc="http://creativecommons.org/ns#" xmlns:dc="http://purl.org/dc/elements/1.1/" xmlns:rdf="http://www.w3.org/1999/02/22-rdf-syntax-ns#">
 <metadata>
  <rdf:RDF>
   <cc:Work rdf:about="">
    <dc:format>image/svg+xml</dc:format>
    <dc:type rdf:resource="http://purl.org/dc/dcmitype/StillImage"/>
    <dc:title/>
   </cc:Work>
  </rdf:RDF>
 </metadata>
 <g transform="translate(21.989 -66.837)" fill="#e00000">
  <circle cx="27.852" cy="711.86" r="4.9153"/>
  <circle cx="25.554" cy="690.9" r="4.9153"/>
  <circle cx="25.959" cy="680.49" r="4.9153"/>
  <circle cx="27.717" cy="668.05" r="4.9153"/>
  <circle cx="28.258" cy="654.94" r="4.9153"/>
  <circle cx="30.691" cy="639.93" r="4.9153"/>
  <circle cx="30.827" cy="624.38" r="4.9153"/>
  <circle cx="28.393" cy="606.13" r="4.9153"/>
  <circle cx="27.717" cy="589.5" r="4.9153"/>
  <circle cx="21.092" cy="573.28" r="4.9153"/>
  <circle cx="19.334" cy="552.18" r="4.9153"/>
  <circle cx="22.173" cy="536.23" r="4.9153"/>
  <circle cx="25.418" cy="519.6" r="4.9153"/>
  <circle cx="31.097" cy="499.99" r="4.9153"/>
  <circle cx="34.612" cy="484.99" r="4.9153"/>
  <circle cx="38.398" cy="466.6" r="4.9153"/>
  <circle cx="38.533" cy="451.05" r="4.9153"/>
  <circle cx="37.722" cy="432.66" r="4.9153"/>
  <circle cx="36.911" cy="418.47" r="4.9153"/>
  <circle cx="34.612" cy="399.54" r="4.9153"/>
  <circle cx="34.071" cy="379.93" r="4.9153"/>
  <circle cx="38.263" cy="362.09" r="4.9153"/>
  <circle cx="39.074" cy="342.48" r="4.9153"/>
  <circle cx="37.181" cy="321.53" r="4.9153"/>
  <circle cx="37.046" cy="305.98" r="4.9153"/>
  <circle cx="35.559" cy="288.67" r="4.9153"/>
  <circle cx="33.395" cy="271.23" r="4.9153"/>
  <circle cx="30.827" cy="253.38" r="4.9153"/>
  <circle cx="30.556" cy="235.26" r="4.9153"/>
 </g>
</svg>
