<?xml version="1.0" encoding="UTF-8"?>
<!-- Created with Inkscape (http://www.inkscape.org/) -->
<svg width="100" height="650" version="1.1" viewBox="0 0 100 650" xmlns="http://www.w3.org/2000/svg" xmlns:cc="http://creativecommons.org/ns#" xmlns:dc="http://purl.org/dc/elements/1.1/" xmlns:rdf="http://www.w3.org/1999/02/22-rdf-syntax-ns#">
 <metadata>
  <rdf:RDF>
   <cc:Work rdf:about="">
    <dc:format>image/svg+xml</dc:format>
    <dc:type rdf:resource="http://purl.org/dc/dcmitype/StillImage"/>
    <dc:title/>
   </cc:Work>
  </rdf:RDF>
 </metadata>
 <g transform="translate(31.361 -105.3)" fill="#e00000">
  <circle cx="18.412" cy="750.24" r="4.9153"/>
  <circle cx="19.828" cy="734.66" r="4.9153"/>
  <circle cx="21.447" cy="727.38" r="4.9153"/>
  <circle cx="22.863" cy="716.45" r="4.9153"/>
  <circle cx="24.28" cy="700.67" r="4.9153"/>
  <circle cx="27.719" cy="684.08" r="4.9153"/>
  <circle cx="30.754" cy="668.5" r="4.9153"/>
  <circle cx="36.419" cy="649.08" r="4.9153"/>
  <circle cx="39.859" cy="630.46" r="4.9153"/>
  <circle cx="43.501" cy="612.25" r="4.9153"/>
  <circle cx="44.31" cy="592.83" r="4.9153"/>
  <circle cx="43.299" cy="575.83" r="4.9153"/>
  <circle cx="41.275" cy="556.61" r="4.9153"/>
  <circle cx="43.906" cy="540.42" r="4.9153"/>
  <circle cx="47.75" cy="523.43" r="4.9153"/>
  <circle cx="49.976" cy="504.01" r="4.9153"/>
  <circle cx="52.808" cy="486.6" r="4.9153"/>
  <circle cx="55.843" cy="468.19" r="4.9153"/>
  <circle cx="56.855" cy="454.64" r="4.9153"/>
  <circle cx="55.439" cy="435.82" r="4.9153"/>
  <circle cx="51.999" cy="416.4" r="4.9153"/>
  <circle cx="50.583" cy="398.19" r="4.9153"/>
  <circle cx="49.571" cy="380.58" r="4.9153"/>
  <circle cx="53.82" cy="363.99" r="4.9153"/>
  <circle cx="56.855" cy="343.56" r="4.9153"/>
  <circle cx="54.022" cy="325.75" r="4.9153"/>
  <circle cx="53.213" cy="301.27" r="4.9153"/>
  <circle cx="50.38" cy="283.26" r="4.9153"/>
  <circle cx="49.166" cy="264.45" r="4.9153"/>
 </g>
</svg>
