<?xml version="1.0" encoding="UTF-8"?>
<!-- Created with Inkscape (http://www.inkscape.org/) -->
<svg width="100" height="650" version="1.1" viewBox="0 0 100 650" xmlns="http://www.w3.org/2000/svg" xmlns:cc="http://creativecommons.org/ns#" xmlns:dc="http://purl.org/dc/elements/1.1/" xmlns:rdf="http://www.w3.org/1999/02/22-rdf-syntax-ns#">
 <metadata>
  <rdf:RDF>
   <cc:Work rdf:about="">
    <dc:format>image/svg+xml</dc:format>
    <dc:type rdf:resource="http://purl.org/dc/dcmitype/StillImage"/>
    <dc:title/>
   </cc:Work>
  </rdf:RDF>
 </metadata>
 <g transform="translate(3.8076 22)" fill="#e00000">
  <circle cx="45.95" cy="622.97" r="4.9153"/>
  <circle cx="47.147" cy="607.17" r="4.9153"/>
  <circle cx="48.343" cy="597.12" r="4.9153"/>
  <circle cx="47.147" cy="586.83" r="4.9153"/>
  <circle cx="46.668" cy="574.62" r="4.9153"/>
  <circle cx="43.078" cy="561.7" r="4.9153"/>
  <circle cx="43.078" cy="549.49" r="4.9153"/>
  <circle cx="47.386" cy="535.13" r="4.9153"/>
  <circle cx="49.3" cy="522.45" r="4.9153"/>
  <circle cx="45.232" cy="506.42" r="4.9153"/>
  <circle cx="41.881" cy="492.77" r="4.9153"/>
  <circle cx="36.377" cy="477.94" r="4.9153"/>
  <circle cx="35.18" cy="464.06" r="4.9153"/>
  <circle cx="37.574" cy="450.17" r="4.9153"/>
  <circle cx="37.334" cy="435.58" r="4.9153"/>
  <circle cx="44.514" cy="421.46" r="4.9153"/>
  <circle cx="48.583" cy="408.05" r="4.9153"/>
  <circle cx="50.258" cy="392.02" r="4.9153"/>
  <circle cx="52.172" cy="377.18" r="4.9153"/>
  <circle cx="56.959" cy="361.62" r="4.9153"/>
  <circle cx="59.831" cy="347.98" r="4.9153"/>
  <circle cx="54.566" cy="332.67" r="4.9153"/>
  <circle cx="51.694" cy="314.96" r="4.9153"/>
  <circle cx="53.369" cy="298.44" r="4.9153"/>
  <circle cx="56.959" cy="281.69" r="4.9153"/>
  <circle cx="60.788" cy="266.14" r="4.9153"/>
  <circle cx="63.899" cy="249.38" r="4.9153"/>
  <circle cx="58.634" cy="233.35" r="4.9153"/>
  <circle cx="57.437" cy="216.36" r="4.9153"/>
 </g>
</svg>
