<?xml version="1.0" encoding="UTF-8"?>
<!-- Created with Inkscape (http://www.inkscape.org/) -->
<svg width="100" height="650" version="1.1" viewBox="0 0 100 650" xmlns="http://www.w3.org/2000/svg" xmlns:cc="http://creativecommons.org/ns#" xmlns:dc="http://purl.org/dc/elements/1.1/" xmlns:rdf="http://www.w3.org/1999/02/22-rdf-syntax-ns#">
 <metadata>
  <rdf:RDF>
   <cc:Work rdf:about="">
    <dc:format>image/svg+xml</dc:format>
    <dc:type rdf:resource="http://purl.org/dc/dcmitype/StillImage"/>
    <dc:title/>
   </cc:Work>
  </rdf:RDF>
 </metadata>
 <g transform="translate(9.1276 2.6422)" fill="#e00000">
  <circle cx="40.834" cy="642.31" r="4.9153"/>
  <circle cx="38.913" cy="618.53" r="4.9153"/>
  <circle cx="38.913" cy="607.48" r="4.9153"/>
  <circle cx="34.349" cy="595.23" r="4.9153"/>
  <circle cx="34.109" cy="579.14" r="4.9153"/>
  <circle cx="35.55" cy="560.4" r="4.9153"/>
  <circle cx="36.03" cy="542.63" r="4.9153"/>
  <circle cx="41.074" cy="519.57" r="4.9153"/>
  <circle cx="46.119" cy="496.99" r="4.9153"/>
  <circle cx="44.437" cy="475.13" r="4.9153"/>
  <circle cx="41.315" cy="456.88" r="4.9153"/>
  <circle cx="40.594" cy="434.78" r="4.9153"/>
  <circle cx="38.192" cy="412.68" r="4.9153"/>
  <circle cx="31.466" cy="393.95" r="4.9153"/>
  <circle cx="29.305" cy="375.69" r="4.9153"/>
  <circle cx="25.461" cy="353.83" r="4.9153"/>
  <circle cx="24.741" cy="335.82" r="4.9153"/>
  <circle cx="25.942" cy="317.8" r="4.9153"/>
  <circle cx="28.344" cy="296.42" r="4.9153"/>
  <circle cx="26.182" cy="275.77" r="4.9153"/>
  <circle cx="24.501" cy="252.47" r="4.9153"/>
  <circle cx="22.579" cy="227.01" r="4.9153"/>
  <circle cx="22.579" cy="204.19" r="4.9153"/>
  <circle cx="27.863" cy="183.05" r="4.9153"/>
  <circle cx="29.305" cy="157.11" r="4.9153"/>
  <circle cx="29.545" cy="129.72" r="4.9153"/>
  <circle cx="30.265" cy="106.42" r="4.9153"/>
  <circle cx="25.461" cy="80.483" r="4.9153"/>
  <circle cx="24.02" cy="56.943" r="4.9153"/>
 </g>
</svg>
