<?xml version="1.0" encoding="UTF-8"?>
<!-- Created with Inkscape (http://www.inkscape.org/) -->
<svg width="100" height="650" version="1.1" viewBox="0 0 100 650" xmlns="http://www.w3.org/2000/svg" xmlns:cc="http://creativecommons.org/ns#" xmlns:dc="http://purl.org/dc/elements/1.1/" xmlns:rdf="http://www.w3.org/1999/02/22-rdf-syntax-ns#">
 <metadata>
  <rdf:RDF>
   <cc:Work rdf:about="">
    <dc:format>image/svg+xml</dc:format>
    <dc:type rdf:resource="http://purl.org/dc/dcmitype/StillImage"/>
    <dc:title/>
   </cc:Work>
  </rdf:RDF>
 </metadata>
 <g transform="translate(16.993 33.035)" fill="#e00000">
  <circle cx="32.941" cy="611.93" r="4.9153"/>
  <circle cx="34.934" cy="597.75" r="4.9153"/>
  <circle cx="37.278" cy="589.07" r="4.9153"/>
  <circle cx="32.589" cy="578.05" r="4.9153"/>
  <circle cx="30.245" cy="566.1" r="4.9153"/>
  <circle cx="26.493" cy="554.14" r="4.9153"/>
  <circle cx="23.914" cy="541.24" r="4.9153"/>
  <circle cx="27.783" cy="526.59" r="4.9153"/>
  <circle cx="28.486" cy="512.88" r="4.9153"/>
  <circle cx="26.024" cy="495.17" r="4.9153"/>
  <circle cx="24.735" cy="482.05" r="4.9153"/>
  <circle cx="17.35" cy="469.85" r="4.9153"/>
  <circle cx="15.239" cy="454.97" r="4.9153"/>
  <circle cx="20.163" cy="439.84" r="4.9153"/>
  <circle cx="22.625" cy="425.42" r="4.9153"/>
  <circle cx="20.632" cy="408.43" r="4.9153"/>
  <circle cx="18.522" cy="390.96" r="4.9153"/>
  <circle cx="15.943" cy="376.54" r="4.9153"/>
  <circle cx="15.005" cy="358.72" r="4.9153"/>
  <circle cx="17.35" cy="344.54" r="4.9153"/>
  <circle cx="18.405" cy="328.71" r="4.9153"/>
  <circle cx="25.438" cy="312.89" r="4.9153"/>
  <circle cx="27.548" cy="299.29" r="4.9153"/>
  <circle cx="31.768" cy="281.47" r="4.9153"/>
  <circle cx="31.3" cy="267.4" r="4.9153"/>
  <circle cx="30.01" cy="251.46" r="4.9153"/>
  <circle cx="29.307" cy="234.93" r="4.9153"/>
  <circle cx="32.003" cy="222.27" r="4.9153"/>
  <circle cx="32.706" cy="207.85" r="4.9153"/>
 </g>
</svg>
