<?xml version="1.0" encoding="UTF-8"?>
<!-- Created with Inkscape (http://www.inkscape.org/) -->
<svg width="100" height="650" version="1.1" viewBox="0 0 100 650" xmlns="http://www.w3.org/2000/svg" xmlns:cc="http://creativecommons.org/ns#" xmlns:dc="http://purl.org/dc/elements/1.1/" xmlns:rdf="http://www.w3.org/1999/02/22-rdf-syntax-ns#">
 <metadata>
  <rdf:RDF>
   <cc:Work rdf:about="">
    <dc:format>image/svg+xml</dc:format>
    <dc:type rdf:resource="http://purl.org/dc/dcmitype/StillImage"/>
    <dc:title/>
   </cc:Work>
  </rdf:RDF>
 </metadata>
 <g transform="translate(32.846 -225.69)" fill="#e00000">
  <circle cx="17.08" cy="870.6" r="4.9153"/>
  <circle cx="14.945" cy="849.25" r="4.9153"/>
  <circle cx="15.602" cy="838.24" r="4.9153"/>
  <circle cx="17.244" cy="821.65" r="4.9153"/>
  <circle cx="18.886" cy="804.74" r="4.9153"/>
  <circle cx="21.843" cy="783.55" r="4.9153"/>
  <circle cx="23.485" cy="765.65" r="4.9153"/>
  <circle cx="27.755" cy="745.94" r="4.9153"/>
  <circle cx="28.248" cy="726.24" r="4.9153"/>
  <circle cx="25.291" cy="706.04" r="4.9153"/>
  <circle cx="23.978" cy="688.63" r="4.9153"/>
  <circle cx="29.069" cy="666.79" r="4.9153"/>
  <circle cx="31.204" cy="643.79" r="4.9153"/>
  <circle cx="36.952" cy="619.98" r="4.9153"/>
  <circle cx="39.744" cy="599.45" r="4.9153"/>
  <circle cx="36.952" cy="579.74" r="4.9153"/>
  <circle cx="36.952" cy="556.42" r="4.9153"/>
  <circle cx="39.744" cy="533.76" r="4.9153"/>
  <circle cx="40.729" cy="511.1" r="4.9153"/>
  <circle cx="44.014" cy="489.58" r="4.9153"/>
  <circle cx="45.656" cy="466.59" r="4.9153"/>
  <circle cx="42.7" cy="445.73" r="4.9153"/>
  <circle cx="42.864" cy="423.56" r="4.9153"/>
  <circle cx="38.923" cy="404.67" r="4.9153"/>
  <circle cx="38.266" cy="380.04" r="4.9153"/>
  <circle cx="40.565" cy="356.23" r="4.9153"/>
  <circle cx="41.058" cy="332.25" r="4.9153"/>
  <circle cx="45.984" cy="309.59" r="4.9153"/>
  <circle cx="46.313" cy="289.55" r="4.9153"/>
 </g>
</svg>
