<?xml version="1.0" encoding="UTF-8"?>
<!-- Created with Inkscape (http://www.inkscape.org/) -->
<svg width="100" height="650" version="1.1" viewBox="0 0 100 650" xmlns="http://www.w3.org/2000/svg" xmlns:cc="http://creativecommons.org/ns#" xmlns:dc="http://purl.org/dc/elements/1.1/" xmlns:rdf="http://www.w3.org/1999/02/22-rdf-syntax-ns#">
 <metadata>
  <rdf:RDF>
   <cc:Work rdf:about="">
    <dc:format>image/svg+xml</dc:format>
    <dc:type rdf:resource="http://purl.org/dc/dcmitype/StillImage"/>
    <dc:title/>
   </cc:Work>
  </rdf:RDF>
 </metadata>
 <g transform="translate(25.152 -165.98)" fill="#e00000">
  <circle cx="24.877" cy="810.91" r="4.9153"/>
  <circle cx="24.659" cy="787.34" r="4.9153"/>
  <circle cx="24.222" cy="777.52" r="4.9153"/>
  <circle cx="29.242" cy="764.21" r="4.9153"/>
  <circle cx="30.551" cy="746.1" r="4.9153"/>
  <circle cx="32.951" cy="728.64" r="4.9153"/>
  <circle cx="35.788" cy="712.71" r="4.9153"/>
  <circle cx="28.587" cy="692.85" r="4.9153"/>
  <circle cx="27.059" cy="676.26" r="4.9153"/>
  <circle cx="29.678" cy="656.41" r="4.9153"/>
  <circle cx="30.551" cy="639.17" r="4.9153"/>
  <circle cx="24.441" cy="622.15" r="4.9153"/>
  <circle cx="22.913" cy="604.69" r="4.9153"/>
  <circle cx="27.932" cy="590.29" r="4.9153"/>
  <circle cx="28.369" cy="572.17" r="4.9153"/>
  <circle cx="24.441" cy="552.32" r="4.9153"/>
  <circle cx="24.222" cy="531.58" r="4.9153"/>
  <circle cx="17.894" cy="511.73" r="4.9153"/>
  <circle cx="18.767" cy="492.31" r="4.9153"/>
  <circle cx="15.057" cy="470.26" r="4.9153"/>
  <circle cx="12.657" cy="454.12" r="4.9153"/>
  <circle cx="19.422" cy="436.88" r="4.9153"/>
  <circle cx="20.513" cy="413.96" r="4.9153"/>
  <circle cx="29.242" cy="393.45" r="4.9153"/>
  <circle cx="32.297" cy="371.41" r="4.9153"/>
  <circle cx="36.225" cy="350.03" r="4.9153"/>
  <circle cx="37.752" cy="328.86" r="4.9153"/>
  <circle cx="33.606" cy="309.65" r="4.9153"/>
  <circle cx="34.261" cy="288.71" r="4.9153"/>
 </g>
</svg>
