<?xml version="1.0" encoding="UTF-8"?>
<!-- Created with Inkscape (http://www.inkscape.org/) -->
<svg width="100" height="650" version="1.1" viewBox="0 0 100 650" xmlns="http://www.w3.org/2000/svg" xmlns:cc="http://creativecommons.org/ns#" xmlns:dc="http://purl.org/dc/elements/1.1/" xmlns:rdf="http://www.w3.org/1999/02/22-rdf-syntax-ns#">
 <metadata>
  <rdf:RDF>
   <cc:Work rdf:about="">
    <dc:format>image/svg+xml</dc:format>
    <dc:type rdf:resource="http://purl.org/dc/dcmitype/StillImage"/>
    <dc:title/>
   </cc:Work>
  </rdf:RDF>
 </metadata>
 <g transform="translate(29.492 -97.002)" fill="#e00000">
  <circle cx="20.595" cy="742" r="4.9153"/>
  <circle cx="21.794" cy="717.81" r="4.9153"/>
  <circle cx="22.994" cy="708.61" r="4.9153"/>
  <circle cx="23.594" cy="694.22" r="4.9153"/>
  <circle cx="24.993" cy="679.42" r="4.9153"/>
  <circle cx="28.992" cy="663.22" r="4.9153"/>
  <circle cx="30.592" cy="645.63" r="4.9153"/>
  <circle cx="34.591" cy="630.03" r="4.9153"/>
  <circle cx="35.99" cy="613.24" r="4.9153"/>
  <circle cx="41.389" cy="597.04" r="4.9153"/>
  <circle cx="44.788" cy="579.45" r="4.9153"/>
  <circle cx="41.589" cy="563.65" r="4.9153"/>
  <circle cx="41.989" cy="546.06" r="4.9153"/>
  <circle cx="46.588" cy="528.86" r="4.9153"/>
  <circle cx="47.587" cy="513.66" r="4.9153"/>
  <circle cx="45.388" cy="495.87" r="4.9153"/>
  <circle cx="43.788" cy="478.47" r="4.9153"/>
  <circle cx="40.989" cy="461.88" r="4.9153"/>
  <circle cx="39.59" cy="443.88" r="4.9153"/>
  <circle cx="36.79" cy="426.69" r="4.9153"/>
  <circle cx="37.19" cy="409.29" r="4.9153"/>
  <circle cx="38.99" cy="392.5" r="4.9153"/>
  <circle cx="41.389" cy="374.5" r="4.9153"/>
  <circle cx="45.988" cy="358.11" r="4.9153"/>
  <circle cx="48.787" cy="341.91" r="4.9153"/>
  <circle cx="54.985" cy="323.71" r="4.9153"/>
  <circle cx="55.385" cy="303.72" r="4.9153"/>
  <circle cx="53.586" cy="283.92" r="4.9153"/>
  <circle cx="52.386" cy="263.13" r="4.9153"/>
 </g>
</svg>
