<?xml version="1.0" encoding="UTF-8"?>
<!-- Created with Inkscape (http://www.inkscape.org/) -->
<svg width="100" height="650" version="1.1" viewBox="0 0 100 650" xmlns="http://www.w3.org/2000/svg" xmlns:cc="http://creativecommons.org/ns#" xmlns:dc="http://purl.org/dc/elements/1.1/" xmlns:rdf="http://www.w3.org/1999/02/22-rdf-syntax-ns#">
 <metadata>
  <rdf:RDF>
   <cc:Work rdf:about="">
    <dc:format>image/svg+xml</dc:format>
    <dc:type rdf:resource="http://purl.org/dc/dcmitype/StillImage"/>
    <dc:title/>
   </cc:Work>
  </rdf:RDF>
 </metadata>
 <g transform="translate(-36.95 -172.42)" fill="#e00000">
  <circle cx="92.755" cy="817.26" r="4.9153"/>
  <circle cx="94.51" cy="794.23" r="4.9153"/>
  <circle cx="94.729" cy="784.8" r="4.9153"/>
  <circle cx="94.071" cy="771.86" r="4.9153"/>
  <circle cx="93.632" cy="755.86" r="4.9153"/>
  <circle cx="92.755" cy="741.6" r="4.9153"/>
  <circle cx="95.606" cy="724.06" r="4.9153"/>
  <circle cx="97.579" cy="707.83" r="4.9153"/>
  <circle cx="98.676" cy="693.36" r="4.9153"/>
  <circle cx="96.702" cy="672.09" r="4.9153"/>
  <circle cx="93.413" cy="653.67" r="4.9153"/>
  <circle cx="90.782" cy="634.81" r="4.9153"/>
  <circle cx="87.273" cy="618.37" r="4.9153"/>
  <circle cx="81.572" cy="599.51" r="4.9153"/>
  <circle cx="79.379" cy="580.43" r="4.9153"/>
  <circle cx="73.239" cy="564.43" r="4.9153"/>
  <circle cx="74.336" cy="545.79" r="4.9153"/>
  <circle cx="65.784" cy="524.74" r="4.9153"/>
  <circle cx="63.591" cy="504.12" r="4.9153"/>
  <circle cx="66.88" cy="487.9" r="4.9153"/>
  <circle cx="66.88" cy="469.04" r="4.9153"/>
  <circle cx="65.126" cy="448.43" r="4.9153"/>
  <circle cx="63.81" cy="427.6" r="4.9153"/>
  <circle cx="58.328" cy="410.49" r="4.9153"/>
  <circle cx="54.162" cy="389" r="4.9153"/>
  <circle cx="48.68" cy="364.44" r="4.9153"/>
  <circle cx="46.268" cy="343.39" r="4.9153"/>
  <circle cx="44.075" cy="318.83" r="4.9153"/>
  <circle cx="43.637" cy="297.12" r="4.9153"/>
 </g>
</svg>
