<?xml version="1.0" encoding="UTF-8"?>
<!-- Created with Inkscape (http://www.inkscape.org/) -->
<svg width="100" height="650" version="1.1" viewBox="0 0 100 650" xmlns="http://www.w3.org/2000/svg" xmlns:cc="http://creativecommons.org/ns#" xmlns:dc="http://purl.org/dc/elements/1.1/" xmlns:rdf="http://www.w3.org/1999/02/22-rdf-syntax-ns#">
 <metadata>
  <rdf:RDF>
   <cc:Work rdf:about="">
    <dc:format>image/svg+xml</dc:format>
    <dc:type rdf:resource="http://purl.org/dc/dcmitype/StillImage"/>
    <dc:title/>
   </cc:Work>
  </rdf:RDF>
 </metadata>
 <g transform="translate(16.254 144.28)" fill="#e00000">
  <circle cx="23.54" cy="500.47" r="4.9153"/>
  <circle cx="26.028" cy="482.87" r="4.9153"/>
  <circle cx="27.942" cy="476.36" r="4.9153"/>
  <circle cx="28.707" cy="464.49" r="4.9153"/>
  <circle cx="30.813" cy="451.29" r="4.9153"/>
  <circle cx="32.727" cy="438.27" r="4.9153"/>
  <circle cx="34.258" cy="423.16" r="4.9153"/>
  <circle cx="37.128" cy="407.46" r="4.9153"/>
  <circle cx="39.234" cy="388.51" r="4.9153"/>
  <circle cx="42.87" cy="371.1" r="4.9153"/>
  <circle cx="42.87" cy="354.83" r="4.9153"/>
  <circle cx="46.506" cy="339.33" r="4.9153"/>
  <circle cx="48.611" cy="320.19" r="4.9153"/>
  <circle cx="54.927" cy="303.35" r="4.9153"/>
  <circle cx="56.267" cy="286.89" r="4.9153"/>
  <circle cx="61.817" cy="271.77" r="4.9153"/>
  <circle cx="65.07" cy="252.63" r="4.9153"/>
  <circle cx="68.324" cy="233.49" r="4.9153"/>
  <circle cx="69.472" cy="215.7" r="4.9153"/>
  <circle cx="73.683" cy="197.32" r="4.9153"/>
  <circle cx="74.639" cy="180.86" r="4.9153"/>
  <circle cx="74.257" cy="167.28" r="4.9153"/>
  <circle cx="71.769" cy="149.48" r="4.9153"/>
  <circle cx="74.448" cy="132.06" r="4.9153"/>
  <circle cx="76.745" cy="111.2" r="4.9153"/>
  <circle cx="71.577" cy="93.593" r="4.9153"/>
  <circle cx="72.151" cy="74.455" r="4.9153"/>
  <circle cx="70.62" cy="53.403" r="4.9153"/>
  <circle cx="72.343" cy="35.221" r="4.9153"/>
 </g>
</svg>
