<?xml version="1.0" encoding="UTF-8"?>
<!-- Created with Inkscape (http://www.inkscape.org/) -->
<svg width="100" height="650" version="1.1" viewBox="0 0 100 650" xmlns="http://www.w3.org/2000/svg" xmlns:cc="http://creativecommons.org/ns#" xmlns:dc="http://purl.org/dc/elements/1.1/" xmlns:rdf="http://www.w3.org/1999/02/22-rdf-syntax-ns#">
 <metadata>
  <rdf:RDF>
   <cc:Work rdf:about="">
    <dc:format>image/svg+xml</dc:format>
    <dc:type rdf:resource="http://purl.org/dc/dcmitype/StillImage"/>
    <dc:title/>
   </cc:Work>
  </rdf:RDF>
 </metadata>
 <g transform="translate(-50.702 -21.783)" fill="#e00000">
  <circle cx="100.42" cy="666.65" r="4.9153"/>
  <circle cx="100.96" cy="649.13" r="4.9153"/>
  <circle cx="100.78" cy="639.74" r="4.9153"/>
  <circle cx="102.59" cy="627.27" r="4.9153"/>
  <circle cx="103.67" cy="616.62" r="4.9153"/>
  <circle cx="101.51" cy="602.53" r="4.9153"/>
  <circle cx="100.06" cy="587.9" r="4.9153"/>
  <circle cx="98.796" cy="573.09" r="4.9153"/>
  <circle cx="95.726" cy="557.01" r="4.9153"/>
  <circle cx="99.157" cy="540.94" r="4.9153"/>
  <circle cx="100.06" cy="524.14" r="4.9153"/>
  <circle cx="96.629" cy="508.97" r="4.9153"/>
  <circle cx="95.545" cy="490.73" r="4.9153"/>
  <circle cx="91.572" cy="472.49" r="4.9153"/>
  <circle cx="91.572" cy="456.23" r="4.9153"/>
  <circle cx="87.959" cy="439.43" r="4.9153"/>
  <circle cx="86.876" cy="423.54" r="4.9153"/>
  <circle cx="78.567" cy="408.19" r="4.9153"/>
  <circle cx="74.955" cy="392.11" r="4.9153"/>
  <circle cx="68.633" cy="373.15" r="4.9153"/>
  <circle cx="67.55" cy="355.99" r="4.9153"/>
  <circle cx="63.576" cy="341.18" r="4.9153"/>
  <circle cx="62.673" cy="325.11" r="4.9153"/>
  <circle cx="65.202" cy="310.11" r="4.9153"/>
  <circle cx="67.73" cy="291.69" r="4.9153"/>
  <circle cx="61.048" cy="273.81" r="4.9153"/>
  <circle cx="58.7" cy="256.83" r="4.9153"/>
  <circle cx="61.228" cy="240.04" r="4.9153"/>
  <circle cx="61.951" cy="222.52" r="4.9153"/>
 </g>
</svg>
