<?xml version="1.0" encoding="UTF-8"?>
<!-- Created with Inkscape (http://www.inkscape.org/) -->
<svg width="100" height="650" version="1.1" viewBox="0 0 100 650" xmlns="http://www.w3.org/2000/svg" xmlns:cc="http://creativecommons.org/ns#" xmlns:dc="http://purl.org/dc/elements/1.1/" xmlns:rdf="http://www.w3.org/1999/02/22-rdf-syntax-ns#">
 <metadata>
  <rdf:RDF>
   <cc:Work rdf:about="">
    <dc:format>image/svg+xml</dc:format>
    <dc:type rdf:resource="http://purl.org/dc/dcmitype/StillImage"/>
    <dc:title/>
   </cc:Work>
  </rdf:RDF>
 </metadata>
 <g transform="translate(-.75424 -53.515)" fill="#e00000">
  <circle cx="50.534" cy="698.42" r="4.9153"/>
  <circle cx="48.648" cy="674.48" r="4.9153"/>
  <circle cx="47.517" cy="664.29" r="4.9153"/>
  <circle cx="49.78" cy="650.15" r="4.9153"/>
  <circle cx="49.403" cy="635.26" r="4.9153"/>
  <circle cx="52.231" cy="621.11" r="4.9153"/>
  <circle cx="53.739" cy="604.52" r="4.9153"/>
  <circle cx="47.894" cy="589.62" r="4.9153"/>
  <circle cx="46.197" cy="574.54" r="4.9153"/>
  <circle cx="42.237" cy="556.06" r="4.9153"/>
  <circle cx="40.917" cy="539.28" r="4.9153"/>
  <circle cx="35.826" cy="522.88" r="4.9153"/>
  <circle cx="32.244" cy="509.3" r="4.9153"/>
  <circle cx="29.604" cy="492.33" r="4.9153"/>
  <circle cx="25.833" cy="474.98" r="4.9153"/>
  <circle cx="23.004" cy="457.26" r="4.9153"/>
  <circle cx="22.816" cy="442.17" r="4.9153"/>
  <circle cx="15.462" cy="427.28" r="4.9153"/>
  <circle cx="13.576" cy="412.57" r="4.9153"/>
  <circle cx="17.725" cy="394.65" r="4.9153"/>
  <circle cx="19.61" cy="376.55" r="4.9153"/>
  <circle cx="22.627" cy="355.06" r="4.9153"/>
  <circle cx="22.25" cy="335.82" r="4.9153"/>
  <circle cx="21.496" cy="316.21" r="4.9153"/>
  <circle cx="20.553" cy="297.17" r="4.9153"/>
  <circle cx="12.822" cy="280.01" r="4.9153"/>
  <circle cx="9.9936" cy="264.17" r="4.9153"/>
  <circle cx="6.5996" cy="247.96" r="4.9153"/>
  <circle cx="6.7881" cy="228.53" r="4.9153"/>
 </g>
</svg>
