<?xml version="1.0" encoding="UTF-8"?>
<!-- Created with Inkscape (http://www.inkscape.org/) -->
<svg width="100" height="650" version="1.1" viewBox="0 0 100 650" xmlns="http://www.w3.org/2000/svg" xmlns:cc="http://creativecommons.org/ns#" xmlns:dc="http://purl.org/dc/elements/1.1/" xmlns:rdf="http://www.w3.org/1999/02/22-rdf-syntax-ns#">
 <metadata>
  <rdf:RDF>
   <cc:Work rdf:about="">
    <dc:format>image/svg+xml</dc:format>
    <dc:type rdf:resource="http://purl.org/dc/dcmitype/StillImage"/>
    <dc:title/>
   </cc:Work>
  </rdf:RDF>
 </metadata>
 <g transform="translate(-26.387 1.1573)" fill="#e00000">
  <circle cx="76.597" cy="643.78" r="4.9153"/>
  <circle cx="75.942" cy="630.69" r="4.9153"/>
  <circle cx="70.05" cy="617.92" r="4.9153"/>
  <circle cx="72.669" cy="597.95" r="4.9153"/>
  <circle cx="84.78" cy="573.08" r="4.9153"/>
  <circle cx="92.636" cy="544.6" r="4.9153"/>
  <circle cx="88.054" cy="516.77" r="4.9153"/>
  <circle cx="91.654" cy="486.33" r="4.9153"/>
  <circle cx="86.417" cy="457.85" r="4.9153"/>
  <circle cx="84.453" cy="429.05" r="4.9153"/>
  <circle cx="80.197" cy="397.95" r="4.9153"/>
  <circle cx="81.179" cy="366.2" r="4.9153"/>
  <circle cx="76.597" cy="337.07" r="4.9153"/>
  <circle cx="78.888" cy="305.97" r="4.9153"/>
  <circle cx="90.672" cy="274.55" r="4.9153"/>
  <circle cx="96.237" cy="241.81" r="4.9153"/>
  <circle cx="105.73" cy="209.41" r="4.9153"/>
  <circle cx="109.66" cy="179.29" r="4.9153"/>
  <circle cx="102.78" cy="148.52" r="4.9153"/>
  <circle cx="97.219" cy="117.75" r="4.9153"/>
  <circle cx="102.13" cy="84.69" r="4.9153"/>
  <circle cx="99.51" cy="52.284" r="4.9153"/>
 </g>
</svg>
