<?xml version="1.0" encoding="UTF-8"?>
<!-- Created with Inkscape (http://www.inkscape.org/) -->
<svg width="100" height="650" version="1.1" viewBox="0 0 100 650" xmlns="http://www.w3.org/2000/svg" xmlns:cc="http://creativecommons.org/ns#" xmlns:dc="http://purl.org/dc/elements/1.1/" xmlns:rdf="http://www.w3.org/1999/02/22-rdf-syntax-ns#">
 <metadata>
  <rdf:RDF>
   <cc:Work rdf:about="">
    <dc:format>image/svg+xml</dc:format>
    <dc:type rdf:resource="http://purl.org/dc/dcmitype/StillImage"/>
    <dc:title/>
   </cc:Work>
  </rdf:RDF>
 </metadata>
 <g transform="translate(-65.881 -166.8)" fill="#e00000">
  <circle cx="116.54" cy="811.9" r="4.9153"/>
  <circle cx="116.07" cy="797.41" r="4.9153"/>
  <circle cx="113.74" cy="790.87" r="4.9153"/>
  <circle cx="116.54" cy="773.89" r="4.9153"/>
  <circle cx="112.8" cy="751.14" r="4.9153"/>
  <circle cx="106.41" cy="725.43" r="4.9153"/>
  <circle cx="100.65" cy="696.76" r="4.9153"/>
  <circle cx="102.99" cy="669.96" r="4.9153"/>
  <circle cx="110.93" cy="641.45" r="4.9153"/>
  <circle cx="116.7" cy="615.12" r="4.9153"/>
  <circle cx="112.49" cy="584.74" r="4.9153"/>
  <circle cx="104.7" cy="558.25" r="4.9153"/>
  <circle cx="96.754" cy="530.68" r="4.9153"/>
  <circle cx="99.714" cy="502.79" r="4.9153"/>
  <circle cx="97.377" cy="473.34" r="4.9153"/>
  <circle cx="104.08" cy="444.83" r="4.9153"/>
  <circle cx="100.18" cy="417.1" r="4.9153"/>
  <circle cx="106.57" cy="388.9" r="4.9153"/>
  <circle cx="114.67" cy="358.05" r="4.9153"/>
  <circle cx="109.84" cy="331.4" r="4.9153"/>
  <circle cx="100.34" cy="302.27" r="4.9153"/>
  <circle cx="103.14" cy="274.69" r="4.9153"/>
 </g>
</svg>
