<?xml version="1.0" encoding="UTF-8"?>
<!-- Created with Inkscape (http://www.inkscape.org/) -->
<svg width="100" height="650" version="1.1" viewBox="0 0 100 650" xmlns="http://www.w3.org/2000/svg" xmlns:cc="http://creativecommons.org/ns#" xmlns:dc="http://purl.org/dc/elements/1.1/" xmlns:rdf="http://www.w3.org/1999/02/22-rdf-syntax-ns#">
 <metadata>
  <rdf:RDF>
   <cc:Work rdf:about="">
    <dc:format>image/svg+xml</dc:format>
    <dc:type rdf:resource="http://purl.org/dc/dcmitype/StillImage"/>
    <dc:title/>
   </cc:Work>
  </rdf:RDF>
 </metadata>
 <g transform="translate(1.4905 -132.07)" fill="#e00000">
  <circle cx="48.334" cy="776.53" r="4.9153"/>
  <circle cx="51.315" cy="764.4" r="4.9153"/>
  <circle cx="52.166" cy="752.05" r="4.9153"/>
  <circle cx="48.334" cy="745.02" r="4.9153"/>
  <circle cx="51.102" cy="730.75" r="4.9153"/>
  <circle cx="50.25" cy="719.04" r="4.9153"/>
  <circle cx="53.657" cy="702.44" r="4.9153"/>
  <circle cx="53.231" cy="677.95" r="4.9153"/>
  <circle cx="54.083" cy="665.39" r="4.9153"/>
  <circle cx="60.47" cy="643.24" r="4.9153"/>
  <circle cx="55.999" cy="624.51" r="4.9153"/>
  <circle cx="65.155" cy="607.68" r="4.9153"/>
  <circle cx="62.387" cy="582.99" r="4.9153"/>
  <circle cx="65.793" cy="568.29" r="4.9153"/>
  <circle cx="71.542" cy="545.72" r="4.9153"/>
  <circle cx="64.729" cy="528.05" r="4.9153"/>
  <circle cx="68.987" cy="511.23" r="4.9153"/>
  <circle cx="60.896" cy="485.89" r="4.9153"/>
  <circle cx="57.702" cy="474.39" r="4.9153"/>
  <circle cx="58.98" cy="449.48" r="4.9153"/>
  <circle cx="49.824" cy="431.38" r="4.9153"/>
  <circle cx="57.276" cy="412.86" r="4.9153"/>
  <circle cx="56.425" cy="392.42" r="4.9153"/>
  <circle cx="59.193" cy="378.37" r="4.9153"/>
  <circle cx="62.387" cy="350.26" r="4.9153"/>
  <circle cx="63.238" cy="331.95" r="4.9153"/>
  <circle cx="67.284" cy="313.21" r="4.9153"/>
  <circle cx="60.47" cy="288.3" r="4.9153"/>
  <circle cx="60.044" cy="278.29" r="4.9153"/>
  <circle cx="66.432" cy="250.61" r="4.9153"/>
  <circle cx="60.683" cy="229.11" r="4.9153"/>
  <circle cx="70.052" cy="209.94" r="4.9153"/>
  <circle cx="62.6" cy="184.6" r="4.9153"/>
  <circle cx="59.619" cy="167.57" r="4.9153"/>
  <circle cx="60.683" cy="140.53" r="4.9153"/>
 </g>
</svg>
