<?xml version="1.0" encoding="UTF-8"?>
<!-- Created with Inkscape (http://www.inkscape.org/) -->
<svg width="100" height="650" version="1.1" viewBox="0 0 100 650" xmlns="http://www.w3.org/2000/svg" xmlns:cc="http://creativecommons.org/ns#" xmlns:dc="http://purl.org/dc/elements/1.1/" xmlns:rdf="http://www.w3.org/1999/02/22-rdf-syntax-ns#">
 <metadata>
  <rdf:RDF>
   <cc:Work rdf:about="">
    <dc:format>image/svg+xml</dc:format>
    <dc:type rdf:resource="http://purl.org/dc/dcmitype/StillImage"/>
    <dc:title/>
   </cc:Work>
  </rdf:RDF>
 </metadata>
 <g transform="translate(12.818 305.29)" fill="#e00000">
  <circle cx="36.524" cy="339.61" r="4.9153"/>
  <circle cx="35.146" cy="331.75" r="4.9153"/>
  <circle cx="35.697" cy="325.55" r="4.9153"/>
  <circle cx="30.873" cy="319.9" r="4.9153"/>
  <circle cx="33.63" cy="314.11" r="4.9153"/>
  <circle cx="34.319" cy="304.05" r="4.9153"/>
  <circle cx="35.008" cy="298.54" r="4.9153"/>
  <circle cx="40.521" cy="285.3" r="4.9153"/>
  <circle cx="35.697" cy="278" r="4.9153"/>
  <circle cx="45.483" cy="273.04" r="4.9153"/>
  <circle cx="41.899" cy="257.74" r="4.9153"/>
  <circle cx="40.383" cy="250.85" r="4.9153"/>
  <circle cx="41.348" cy="242.85" r="4.9153"/>
  <circle cx="38.04" cy="235.41" r="4.9153"/>
  <circle cx="43.966" cy="227.56" r="4.9153"/>
  <circle cx="45.483" cy="216.67" r="4.9153"/>
  <circle cx="46.585" cy="212.67" r="4.9153"/>
  <circle cx="54.993" cy="198.34" r="4.9153"/>
  <circle cx="50.169" cy="194.06" r="4.9153"/>
  <circle cx="50.582" cy="186.07" r="4.9153"/>
  <circle cx="47.826" cy="174.35" r="4.9153"/>
  <circle cx="45.896" cy="169.94" r="4.9153"/>
  <circle cx="46.447" cy="156.44" r="4.9153"/>
  <circle cx="41.899" cy="151.48" r="4.9153"/>
  <circle cx="47.274" cy="142.24" r="4.9153"/>
  <circle cx="40.659" cy="130.39" r="4.9153"/>
  <circle cx="42.45" cy="126.12" r="4.9153"/>
  <circle cx="44.242" cy="116.88" r="4.9153"/>
  <circle cx="41.348" cy="109.58" r="4.9153"/>
  <circle cx="52.925" cy="101.31" r="4.9153"/>
  <circle cx="47.136" cy="89.178" r="4.9153"/>
  <circle cx="53.89" cy="87.8" r="4.9153"/>
  <circle cx="56.922" cy="73.466" r="4.9153"/>
  <circle cx="53.339" cy="68.229" r="4.9153"/>
  <circle cx="55.819" cy="59.683" r="4.9153"/>
 </g>
</svg>
