<?xml version="1.0" encoding="UTF-8"?>
<!-- Created with Inkscape (http://www.inkscape.org/) -->
<svg width="100" height="650" version="1.1" viewBox="0 0 100 650" xmlns="http://www.w3.org/2000/svg" xmlns:cc="http://creativecommons.org/ns#" xmlns:dc="http://purl.org/dc/elements/1.1/" xmlns:rdf="http://www.w3.org/1999/02/22-rdf-syntax-ns#">
 <metadata>
  <rdf:RDF>
   <cc:Work rdf:about="">
    <dc:format>image/svg+xml</dc:format>
    <dc:type rdf:resource="http://purl.org/dc/dcmitype/StillImage"/>
    <dc:title/>
   </cc:Work>
  </rdf:RDF>
 </metadata>
 <g transform="translate(16.493 205.69)" fill="#e00000">
  <circle cx="33.184" cy="439.33" r="4.9153"/>
  <circle cx="33.545" cy="425.62" r="4.9153"/>
  <circle cx="31.501" cy="418.77" r="4.9153"/>
  <circle cx="31.862" cy="411.08" r="4.9153"/>
  <circle cx="29.577" cy="402.3" r="4.9153"/>
  <circle cx="29.818" cy="394.36" r="4.9153"/>
  <circle cx="34.266" cy="382.34" r="4.9153"/>
  <circle cx="28.495" cy="372.12" r="4.9153"/>
  <circle cx="29.217" cy="363.34" r="4.9153"/>
  <circle cx="26.692" cy="350.12" r="4.9153"/>
  <circle cx="24.287" cy="343.39" r="4.9153"/>
  <circle cx="28.736" cy="325.23" r="4.9153"/>
  <circle cx="18.636" cy="314.17" r="4.9153"/>
  <circle cx="26.211" cy="304.19" r="4.9153"/>
  <circle cx="26.692" cy="289.4" r="4.9153"/>
  <circle cx="23.926" cy="283.87" r="4.9153"/>
  <circle cx="28.495" cy="265.72" r="4.9153"/>
  <circle cx="21.642" cy="257.3" r="4.9153"/>
  <circle cx="29.818" cy="247.92" r="4.9153"/>
  <circle cx="29.577" cy="231.57" r="4.9153"/>
  <circle cx="38.715" cy="211.61" r="4.9153"/>
  <circle cx="31.621" cy="204.4" r="4.9153"/>
  <circle cx="42.442" cy="196.94" r="4.9153"/>
  <circle cx="39.196" cy="180.23" r="4.9153"/>
  <circle cx="42.923" cy="177.1" r="4.9153"/>
  <circle cx="50.017" cy="160.27" r="4.9153"/>
  <circle cx="49.776" cy="153.54" r="4.9153"/>
  <circle cx="53.744" cy="143.08" r="4.9153"/>
  <circle cx="56.269" cy="132.26" r="4.9153"/>
  <circle cx="56.87" cy="123.72" r="4.9153"/>
  <circle cx="63.603" cy="107.49" r="4.9153"/>
  <circle cx="60.718" cy="102.44" r="4.9153"/>
  <circle cx="59.996" cy="92.339" r="4.9153"/>
  <circle cx="55.067" cy="77.31" r="4.9153"/>
  <circle cx="60.357" cy="74.785" r="4.9153"/>
 </g>
</svg>
