<?xml version="1.0" encoding="UTF-8"?>
<!-- Created with Inkscape (http://www.inkscape.org/) -->
<svg width="100" height="650" version="1.1" viewBox="0 0 100 650" xmlns="http://www.w3.org/2000/svg" xmlns:cc="http://creativecommons.org/ns#" xmlns:dc="http://purl.org/dc/elements/1.1/" xmlns:rdf="http://www.w3.org/1999/02/22-rdf-syntax-ns#">
 <metadata>
  <rdf:RDF>
   <cc:Work rdf:about="">
    <dc:format>image/svg+xml</dc:format>
    <dc:type rdf:resource="http://purl.org/dc/dcmitype/StillImage"/>
    <dc:title/>
   </cc:Work>
  </rdf:RDF>
 </metadata>
 <g transform="translate(-.45233 236)" fill="#e00000">
  <circle cx="49.983" cy="408.91" r="4.9153"/>
  <circle cx="47.947" cy="396.92" r="4.9153"/>
  <circle cx="49.078" cy="389.46" r="4.9153"/>
  <circle cx="46.816" cy="378.83" r="4.9153"/>
  <circle cx="45.233" cy="374.3" r="4.9153"/>
  <circle cx="44.555" cy="363" r="4.9153"/>
  <circle cx="42.293" cy="352.82" r="4.9153"/>
  <circle cx="47.721" cy="346.03" r="4.9153"/>
  <circle cx="43.876" cy="331.33" r="4.9153"/>
  <circle cx="47.721" cy="325.68" r="4.9153"/>
  <circle cx="49.983" cy="310.98" r="4.9153"/>
  <circle cx="44.102" cy="300.57" r="4.9153"/>
  <circle cx="48.852" cy="291.3" r="4.9153"/>
  <circle cx="42.971" cy="274.79" r="4.9153"/>
  <circle cx="45.007" cy="254.66" r="4.9153"/>
  <circle cx="37.77" cy="245.84" r="4.9153"/>
  <circle cx="48.173" cy="237.25" r="4.9153"/>
  <circle cx="42.067" cy="220.51" r="4.9153"/>
  <circle cx="44.781" cy="201.74" r="4.9153"/>
  <circle cx="37.091" cy="195.18" r="4.9153"/>
  <circle cx="40.031" cy="186.13" r="4.9153"/>
  <circle cx="39.353" cy="176.64" r="4.9153"/>
  <circle cx="40.031" cy="170.53" r="4.9153"/>
  <circle cx="39.805" cy="157.18" r="4.9153"/>
  <circle cx="35.96" cy="147.01" r="4.9153"/>
  <circle cx="40.484" cy="139.09" r="4.9153"/>
  <circle cx="39.579" cy="128.24" r="4.9153"/>
  <circle cx="38.9" cy="123.03" r="4.9153"/>
  <circle cx="37.317" cy="109.24" r="4.9153"/>
  <circle cx="36.865" cy="102.45" r="4.9153"/>
  <circle cx="42.519" cy="91.371" r="4.9153"/>
  <circle cx="40.031" cy="78.479" r="4.9153"/>
  <circle cx="43.198" cy="68.98" r="4.9153"/>
  <circle cx="41.58" cy="57.258" r="4.9153"/>
  <circle cx="36.143" cy="49.582" r="4.9153"/>
 </g>
</svg>
