<?xml version="1.0" encoding="UTF-8"?>
<!-- Created with Inkscape (http://www.inkscape.org/) -->
<svg width="100" height="650" version="1.1" viewBox="0 0 100 650" xmlns="http://www.w3.org/2000/svg" xmlns:cc="http://creativecommons.org/ns#" xmlns:dc="http://purl.org/dc/elements/1.1/" xmlns:rdf="http://www.w3.org/1999/02/22-rdf-syntax-ns#">
 <metadata>
  <rdf:RDF>
   <cc:Work rdf:about="">
    <dc:format>image/svg+xml</dc:format>
    <dc:type rdf:resource="http://purl.org/dc/dcmitype/StillImage"/>
    <dc:title/>
   </cc:Work>
  </rdf:RDF>
 </metadata>
 <g transform="translate(34.309 232.44)" fill="#e00000">
  <circle cx="15.287" cy="412.51" r="4.9153"/>
  <circle cx="19.539" cy="406.07" r="4.9153"/>
  <circle cx="18.965" cy="398.25" r="4.9153"/>
  <circle cx="16.091" cy="392.62" r="4.9153"/>
  <circle cx="20.229" cy="383.08" r="4.9153"/>
  <circle cx="15.631" cy="373.2" r="4.9153"/>
  <circle cx="21.378" cy="366.76" r="4.9153"/>
  <circle cx="18.85" cy="353.43" r="4.9153"/>
  <circle cx="17.126" cy="346.19" r="4.9153"/>
  <circle cx="22.413" cy="330.21" r="4.9153"/>
  <circle cx="18.735" cy="318.72" r="4.9153"/>
  <circle cx="23.562" cy="310.44" r="4.9153"/>
  <circle cx="22.872" cy="296.31" r="4.9153"/>
  <circle cx="25.976" cy="288.61" r="4.9153"/>
  <circle cx="26.895" cy="276.08" r="4.9153"/>
  <circle cx="24.596" cy="267.34" r="4.9153"/>
  <circle cx="26.55" cy="258.49" r="4.9153"/>
  <circle cx="26.55" cy="247.57" r="4.9153"/>
  <circle cx="27.47" cy="241.71" r="4.9153"/>
  <circle cx="28.159" cy="225.16" r="4.9153"/>
  <circle cx="19.309" cy="216.77" r="4.9153"/>
  <circle cx="30.113" cy="209.76" r="4.9153"/>
  <circle cx="27.585" cy="194.36" r="4.9153"/>
  <circle cx="30.803" cy="191.02" r="4.9153"/>
  <circle cx="35.86" cy="176.66" r="4.9153"/>
  <circle cx="33.906" cy="169.42" r="4.9153"/>
  <circle cx="37.814" cy="159.88" r="4.9153"/>
  <circle cx="35.171" cy="148.84" r="4.9153"/>
  <circle cx="33.102" cy="144.02" r="4.9153"/>
  <circle cx="37.239" cy="127.46" r="4.9153"/>
  <circle cx="34.941" cy="118.38" r="4.9153"/>
  <circle cx="39.078" cy="110.22" r="4.9153"/>
  <circle cx="30.688" cy="92.409" r="4.9153"/>
  <circle cx="34.481" cy="74.249" r="4.9153"/>
  <circle cx="26.435" cy="68.502" r="4.9153"/>
 </g>
</svg>
