<?xml version="1.0" encoding="UTF-8"?>
<!-- Created with Inkscape (http://www.inkscape.org/) -->
<svg width="100" height="650" version="1.1" viewBox="0 0 100 650" xmlns="http://www.w3.org/2000/svg" xmlns:cc="http://creativecommons.org/ns#" xmlns:dc="http://purl.org/dc/elements/1.1/" xmlns:rdf="http://www.w3.org/1999/02/22-rdf-syntax-ns#">
 <metadata>
  <rdf:RDF>
   <cc:Work rdf:about="">
    <dc:format>image/svg+xml</dc:format>
    <dc:type rdf:resource="http://purl.org/dc/dcmitype/StillImage"/>
    <dc:title/>
   </cc:Work>
  </rdf:RDF>
 </metadata>
 <g transform="translate(1.1831 -27.68)" fill="#e00000">
  <circle cx="48.337" cy="672.63" r="4.9153"/>
  <circle cx="46.292" cy="663.89" r="4.9153"/>
  <circle cx="46.664" cy="653.66" r="4.9153"/>
  <circle cx="42.76" cy="643.44" r="4.9153"/>
  <circle cx="46.478" cy="633.21" r="4.9153"/>
  <circle cx="47.779" cy="615.55" r="4.9153"/>
  <circle cx="40.715" cy="604.02" r="4.9153"/>
  <circle cx="46.478" cy="587.11" r="4.9153"/>
  <circle cx="41.644" cy="569.26" r="4.9153"/>
  <circle cx="41.086" cy="553.83" r="4.9153"/>
  <circle cx="42.945" cy="536.91" r="4.9153"/>
  <circle cx="42.388" cy="521.29" r="4.9153"/>
  <circle cx="42.76" cy="502.15" r="4.9153"/>
  <circle cx="37.368" cy="483.18" r="4.9153"/>
  <circle cx="39.041" cy="472.96" r="4.9153"/>
  <circle cx="37.74" cy="446" r="4.9153"/>
  <circle cx="34.579" cy="438.38" r="4.9153"/>
  <circle cx="40.715" cy="417.56" r="4.9153"/>
  <circle cx="40.343" cy="400.27" r="4.9153"/>
  <circle cx="45.734" cy="387.25" r="4.9153"/>
  <circle cx="42.202" cy="365.32" r="4.9153"/>
  <circle cx="37.182" cy="353.05" r="4.9153"/>
  <circle cx="46.85" cy="330.55" r="4.9153"/>
  <circle cx="43.503" cy="312.14" r="4.9153"/>
  <circle cx="44.433" cy="299.87" r="4.9153"/>
  <circle cx="43.503" cy="275.15" r="4.9153"/>
  <circle cx="37.554" cy="263.44" r="4.9153"/>
  <circle cx="44.433" cy="242.61" r="4.9153"/>
  <circle cx="36.439" cy="221.42" r="4.9153"/>
  <circle cx="45.548" cy="210.64" r="4.9153"/>
  <circle cx="41.086" cy="183.31" r="4.9153"/>
  <circle cx="38.298" cy="165.46" r="4.9153"/>
  <circle cx="38.298" cy="147.61" r="4.9153"/>
  <circle cx="34.394" cy="126.05" r="4.9153"/>
  <circle cx="37.86" cy="107.28" r="4.9153"/>
 </g>
</svg>
