<?xml version="1.0" encoding="UTF-8"?>
<!-- Created with Inkscape (http://www.inkscape.org/) -->
<svg width="100" height="650" version="1.1" viewBox="0 0 100 650" xmlns="http://www.w3.org/2000/svg" xmlns:cc="http://creativecommons.org/ns#" xmlns:dc="http://purl.org/dc/elements/1.1/" xmlns:rdf="http://www.w3.org/1999/02/22-rdf-syntax-ns#">
 <metadata>
  <rdf:RDF>
   <cc:Work rdf:about="">
    <dc:format>image/svg+xml</dc:format>
    <dc:type rdf:resource="http://purl.org/dc/dcmitype/StillImage"/>
    <dc:title/>
   </cc:Work>
  </rdf:RDF>
 </metadata>
 <g transform="translate(25.856 213.32)" fill="#e00000">
  <circle cx="23.531" cy="431.69" r="4.9153"/>
  <circle cx="27.763" cy="418.99" r="4.9153"/>
  <circle cx="26.409" cy="411.54" r="4.9153"/>
  <circle cx="26.239" cy="406.63" r="4.9153"/>
  <circle cx="28.102" cy="394.44" r="4.9153"/>
  <circle cx="26.07" cy="388.18" r="4.9153"/>
  <circle cx="29.287" cy="377.34" r="4.9153"/>
  <circle cx="27.424" cy="363.29" r="4.9153"/>
  <circle cx="30.81" cy="358.05" r="4.9153"/>
  <circle cx="32.672" cy="341.12" r="4.9153"/>
  <circle cx="30.979" cy="332.48" r="4.9153"/>
  <circle cx="32.503" cy="319.96" r="4.9153"/>
  <circle cx="27.594" cy="305.74" r="4.9153"/>
  <circle cx="33.519" cy="303.03" r="4.9153"/>
  <circle cx="33.519" cy="286.27" r="4.9153"/>
  <circle cx="37.243" cy="275.94" r="4.9153"/>
  <circle cx="40.798" cy="264.6" r="4.9153"/>
  <circle cx="34.873" cy="253.09" r="4.9153"/>
  <circle cx="36.058" cy="232.1" r="4.9153"/>
  <circle cx="36.227" cy="223.29" r="4.9153"/>
  <circle cx="42.322" cy="211.95" r="4.9153"/>
  <circle cx="40.29" cy="198.41" r="4.9153"/>
  <circle cx="41.983" cy="175.05" r="4.9153"/>
  <circle cx="37.243" cy="169.97" r="4.9153"/>
  <circle cx="38.597" cy="159.13" r="4.9153"/>
  <circle cx="33.011" cy="148.13" r="4.9153"/>
  <circle cx="34.873" cy="141.02" r="4.9153"/>
  <circle cx="36.397" cy="127.82" r="4.9153"/>
  <circle cx="31.149" cy="124.09" r="4.9153"/>
  <circle cx="40.121" cy="111.4" r="4.9153"/>
  <circle cx="37.243" cy="100.39" r="4.9153"/>
  <circle cx="36.904" cy="92.605" r="4.9153"/>
  <circle cx="35.212" cy="79.401" r="4.9153"/>
  <circle cx="28.102" cy="74.83" r="4.9153"/>
  <circle cx="36.227" cy="58.579" r="4.9153"/>
 </g>
</svg>
