<?xml version="1.0" encoding="UTF-8"?>
<!-- Created with Inkscape (http://www.inkscape.org/) -->
<svg width="100" height="650" version="1.1" viewBox="0 0 100 650" xmlns="http://www.w3.org/2000/svg" xmlns:cc="http://creativecommons.org/ns#" xmlns:dc="http://purl.org/dc/elements/1.1/" xmlns:rdf="http://www.w3.org/1999/02/22-rdf-syntax-ns#">
 <metadata>
  <rdf:RDF>
   <cc:Work rdf:about="">
    <dc:format>image/svg+xml</dc:format>
    <dc:type rdf:resource="http://purl.org/dc/dcmitype/StillImage"/>
    <dc:title/>
   </cc:Work>
  </rdf:RDF>
 </metadata>
 <g transform="translate(23.889 191.45)" fill="#e00000">
  <circle cx="26.332" cy="453.35" r="4.9153"/>
  <circle cx="30.306" cy="442.67" r="4.9153"/>
  <circle cx="28.319" cy="433.23" r="4.9153"/>
  <circle cx="31.797" cy="430" r="4.9153"/>
  <circle cx="34.032" cy="416.83" r="4.9153"/>
  <circle cx="31.051" cy="407.89" r="4.9153"/>
  <circle cx="35.771" cy="398.7" r="4.9153"/>
  <circle cx="30.555" cy="382.8" r="4.9153"/>
  <circle cx="36.516" cy="374.6" r="4.9153"/>
  <circle cx="36.268" cy="359.95" r="4.9153"/>
  <circle cx="32.542" cy="351.75" r="4.9153"/>
  <circle cx="37.51" cy="339.58" r="4.9153"/>
  <circle cx="33.784" cy="323.93" r="4.9153"/>
  <circle cx="33.535" cy="319.46" r="4.9153"/>
  <circle cx="33.039" cy="301.57" r="4.9153"/>
  <circle cx="27.574" cy="293.12" r="4.9153"/>
  <circle cx="30.058" cy="278.72" r="4.9153"/>
  <circle cx="25.586" cy="264.56" r="4.9153"/>
  <circle cx="33.039" cy="260.33" r="4.9153"/>
  <circle cx="35.771" cy="240.71" r="4.9153"/>
  <circle cx="34.778" cy="234.75" r="4.9153"/>
  <circle cx="35.026" cy="224.07" r="4.9153"/>
  <circle cx="27.325" cy="211.4" r="4.9153"/>
  <circle cx="37.013" cy="208.67" r="4.9153"/>
  <circle cx="36.765" cy="191.28" r="4.9153"/>
  <circle cx="33.039" cy="184.82" r="4.9153"/>
  <circle cx="36.02" cy="172.15" r="4.9153"/>
  <circle cx="33.039" cy="158.49" r="4.9153"/>
  <circle cx="38.255" cy="148.8" r="4.9153"/>
  <circle cx="38.752" cy="135.38" r="4.9153"/>
  <circle cx="38.504" cy="126.94" r="4.9153"/>
  <circle cx="48.937" cy="114.52" r="4.9153"/>
  <circle cx="39.994" cy="101.6" r="4.9153"/>
  <circle cx="47.695" cy="98.122" r="4.9153"/>
  <circle cx="42.975" cy="78.746" r="4.9153"/>
 </g>
</svg>
