<?xml version="1.0" encoding="UTF-8"?>
<!-- Created with Inkscape (http://www.inkscape.org/) -->
<svg width="100" height="650" version="1.1" viewBox="0 0 100 650" xmlns="http://www.w3.org/2000/svg" xmlns:cc="http://creativecommons.org/ns#" xmlns:dc="http://purl.org/dc/elements/1.1/" xmlns:rdf="http://www.w3.org/1999/02/22-rdf-syntax-ns#">
 <metadata>
  <rdf:RDF>
   <cc:Work rdf:about="">
    <dc:format>image/svg+xml</dc:format>
    <dc:type rdf:resource="http://purl.org/dc/dcmitype/StillImage"/>
    <dc:title/>
   </cc:Work>
  </rdf:RDF>
 </metadata>
 <g transform="translate(-9.1086 100.5)" fill="#e00000">
  <circle cx="59.206" cy="544.32" r="4.9153"/>
  <circle cx="63.76" cy="532.07" r="4.9153"/>
  <circle cx="63.446" cy="523.59" r="4.9153"/>
  <circle cx="62.975" cy="516.21" r="4.9153"/>
  <circle cx="61.876" cy="504.58" r="4.9153"/>
  <circle cx="59.049" cy="494.38" r="4.9153"/>
  <circle cx="61.09" cy="481.18" r="4.9153"/>
  <circle cx="56.065" cy="468.62" r="4.9153"/>
  <circle cx="58.106" cy="458.1" r="4.9153"/>
  <circle cx="52.767" cy="437.68" r="4.9153"/>
  <circle cx="50.097" cy="429.99" r="4.9153"/>
  <circle cx="55.751" cy="411.3" r="4.9153"/>
  <circle cx="51.668" cy="397.95" r="4.9153"/>
  <circle cx="60.619" cy="388.53" r="4.9153"/>
  <circle cx="58.735" cy="370.31" r="4.9153"/>
  <circle cx="62.19" cy="359.47" r="4.9153"/>
  <circle cx="68.471" cy="340.47" r="4.9153"/>
  <circle cx="56.85" cy="329.17" r="4.9153"/>
  <circle cx="61.718" cy="317.23" r="4.9153"/>
  <circle cx="54.337" cy="299.33" r="4.9153"/>
  <circle cx="54.966" cy="290.69" r="4.9153"/>
  <circle cx="53.081" cy="276.71" r="4.9153"/>
  <circle cx="50.568" cy="263.99" r="4.9153"/>
  <circle cx="51.982" cy="253.78" r="4.9153"/>
  <circle cx="45.7" cy="237.45" r="4.9153"/>
  <circle cx="47.427" cy="230.07" r="4.9153"/>
  <circle cx="50.568" cy="211.22" r="4.9153"/>
  <circle cx="49.312" cy="199.29" r="4.9153"/>
  <circle cx="56.85" cy="185" r="4.9153"/>
  <circle cx="57.792" cy="168.19" r="4.9153"/>
  <circle cx="60.933" cy="161.13" r="4.9153"/>
  <circle cx="61.718" cy="140.55" r="4.9153"/>
  <circle cx="51.511" cy="131.13" r="4.9153"/>
  <circle cx="60.776" cy="116.84" r="4.9153"/>
  <circle cx="57.949" cy="97.996" r="4.9153"/>
 </g>
</svg>
