<?xml version="1.0" encoding="UTF-8"?>
<!-- Created with Inkscape (http://www.inkscape.org/) -->
<svg width="100" height="650" version="1.1" viewBox="0 0 100 650" xmlns="http://www.w3.org/2000/svg" xmlns:cc="http://creativecommons.org/ns#" xmlns:dc="http://purl.org/dc/elements/1.1/" xmlns:rdf="http://www.w3.org/1999/02/22-rdf-syntax-ns#">
 <metadata>
  <rdf:RDF>
   <cc:Work rdf:about="">
    <dc:format>image/svg+xml</dc:format>
    <dc:type rdf:resource="http://purl.org/dc/dcmitype/StillImage"/>
    <dc:title/>
   </cc:Work>
  </rdf:RDF>
 </metadata>
 <g transform="translate(3.6933 297.38)" fill="#e00000">
  <circle cx="46.264" cy="347.46" r="4.9153"/>
  <circle cx="43.834" cy="339.98" r="4.9153"/>
  <circle cx="44.223" cy="333.57" r="4.9153"/>
  <circle cx="39.557" cy="328.03" r="4.9153"/>
  <circle cx="40.821" cy="321.81" r="4.9153"/>
  <circle cx="39.946" cy="313.25" r="4.9153"/>
  <circle cx="36.836" cy="307.81" r="4.9153"/>
  <circle cx="40.724" cy="296.34" r="4.9153"/>
  <circle cx="34.795" cy="289.25" r="4.9153"/>
  <circle cx="37.03" cy="282.35" r="4.9153"/>
  <circle cx="36.35" cy="270.1" r="4.9153"/>
  <circle cx="38.78" cy="265.43" r="4.9153"/>
  <circle cx="42.473" cy="253.96" r="4.9153"/>
  <circle cx="36.544" cy="246.87" r="4.9153"/>
  <circle cx="41.696" cy="241.33" r="4.9153"/>
  <circle cx="39.557" cy="222.28" r="4.9153"/>
  <circle cx="43.737" cy="211.2" r="4.9153"/>
  <circle cx="36.836" cy="204.69" r="4.9153"/>
  <circle cx="44.417" cy="199.15" r="4.9153"/>
  <circle cx="41.501" cy="187.68" r="4.9153"/>
  <circle cx="36.739" cy="183.21" r="4.9153"/>
  <circle cx="40.335" cy="168.53" r="4.9153"/>
  <circle cx="36.544" cy="163.19" r="4.9153"/>
  <circle cx="41.015" cy="154.93" r="4.9153"/>
  <circle cx="37.905" cy="143.85" r="4.9153"/>
  <circle cx="39.363" cy="127.81" r="4.9153"/>
  <circle cx="31.296" cy="121.59" r="4.9153"/>
  <circle cx="39.363" cy="114.98" r="4.9153"/>
  <circle cx="35.281" cy="99.039" r="4.9153"/>
  <circle cx="39.946" cy="83.489" r="4.9153"/>
  <circle cx="32.657" cy="80.378" r="4.9153"/>
  <circle cx="37.808" cy="73.186" r="4.9153"/>
  <circle cx="34.212" cy="62.203" r="4.9153"/>
  <circle cx="34.212" cy="57.149" r="4.9153"/>
  <circle cx="41.21" cy="43.542" r="4.9153"/>
 </g>
</svg>
