<?xml version="1.0" encoding="UTF-8"?>
<!-- Created with Inkscape (http://www.inkscape.org/) -->
<svg width="100" height="650" version="1.1" viewBox="0 0 100 650" xmlns="http://www.w3.org/2000/svg" xmlns:cc="http://creativecommons.org/ns#" xmlns:dc="http://purl.org/dc/elements/1.1/" xmlns:rdf="http://www.w3.org/1999/02/22-rdf-syntax-ns#">
 <metadata>
  <rdf:RDF>
   <cc:Work rdf:about="">
    <dc:format>image/svg+xml</dc:format>
    <dc:type rdf:resource="http://purl.org/dc/dcmitype/StillImage"/>
    <dc:title/>
   </cc:Work>
  </rdf:RDF>
 </metadata>
 <g transform="translate(16.736 -87.921)" fill="#e00000">
  <circle cx="32.816" cy="732.9" r="4.9153"/>
  <circle cx="35.402" cy="723.16" r="4.9153"/>
  <circle cx="35.601" cy="716.99" r="4.9153"/>
  <circle cx="35.402" cy="706.65" r="4.9153"/>
  <circle cx="32.618" cy="694.52" r="4.9153"/>
  <circle cx="36.595" cy="680.99" r="4.9153"/>
  <circle cx="34.606" cy="662.5" r="4.9153"/>
  <circle cx="36.198" cy="648.37" r="4.9153"/>
  <circle cx="41.369" cy="624.71" r="4.9153"/>
  <circle cx="36.794" cy="605.22" r="4.9153"/>
  <circle cx="37.59" cy="587.12" r="4.9153"/>
  <circle cx="32.618" cy="563.45" r="4.9153"/>
  <circle cx="30.032" cy="548.93" r="4.9153"/>
  <circle cx="30.231" cy="525.06" r="4.9153"/>
  <circle cx="24.463" cy="506.17" r="4.9153"/>
  <circle cx="32.22" cy="492.25" r="4.9153"/>
  <circle cx="27.645" cy="465.4" r="4.9153"/>
  <circle cx="24.861" cy="454.66" r="4.9153"/>
  <circle cx="28.441" cy="429.2" r="4.9153"/>
  <circle cx="21.48" cy="413.89" r="4.9153"/>
  <circle cx="28.242" cy="393.6" r="4.9153"/>
  <circle cx="25.06" cy="371.32" r="4.9153"/>
  <circle cx="24.065" cy="363.57" r="4.9153"/>
  <circle cx="23.668" cy="340.69" r="4.9153"/>
  <circle cx="17.104" cy="323.19" r="4.9153"/>
  <circle cx="28.64" cy="307.88" r="4.9153"/>
  <circle cx="23.071" cy="281.03" r="4.9153"/>
  <circle cx="29.634" cy="265.91" r="4.9153"/>
  <circle cx="33.612" cy="245.43" r="4.9153"/>
  <circle cx="33.811" cy="227.93" r="4.9153"/>
  <circle cx="38.982" cy="209.03" r="4.9153"/>
  <circle cx="38.584" cy="183.77" r="4.9153"/>
  <circle cx="39.38" cy="166.27" r="4.9153"/>
  <circle cx="38.982" cy="143.2" r="4.9153"/>
  <circle cx="35.004" cy="123.71" r="4.9153"/>
 </g>
</svg>
