<?xml version="1.0" encoding="UTF-8"?>
<!-- Created with Inkscape (http://www.inkscape.org/) -->
<svg width="100" height="650" version="1.1" viewBox="0 0 100 650" xmlns="http://www.w3.org/2000/svg" xmlns:cc="http://creativecommons.org/ns#" xmlns:dc="http://purl.org/dc/elements/1.1/" xmlns:rdf="http://www.w3.org/1999/02/22-rdf-syntax-ns#">
 <metadata>
  <rdf:RDF>
   <cc:Work rdf:about="">
    <dc:format>image/svg+xml</dc:format>
    <dc:type rdf:resource="http://purl.org/dc/dcmitype/StillImage"/>
    <dc:title/>
   </cc:Work>
  </rdf:RDF>
 </metadata>
 <g transform="translate(-9.4294 -130.41)" fill="#e00000">
  <circle cx="59.55" cy="775.35" r="4.9153"/>
  <circle cx="60.294" cy="767.46" r="4.9153"/>
  <circle cx="63.569" cy="758.82" r="4.9153"/>
  <circle cx="59.848" cy="747.96" r="4.9153"/>
  <circle cx="59.848" cy="737.68" r="4.9153"/>
  <circle cx="61.783" cy="720.56" r="4.9153"/>
  <circle cx="60.294" cy="707.91" r="4.9153"/>
  <circle cx="64.909" cy="688.85" r="4.9153"/>
  <circle cx="62.378" cy="670.24" r="4.9153"/>
  <circle cx="65.505" cy="653.27" r="4.9153"/>
  <circle cx="67.738" cy="630.2" r="4.9153"/>
  <circle cx="64.463" cy="608.76" r="4.9153"/>
  <circle cx="68.631" cy="590.6" r="4.9153"/>
  <circle cx="59.252" cy="565.73" r="4.9153"/>
  <circle cx="61.039" cy="553.53" r="4.9153"/>
  <circle cx="64.612" cy="528.07" r="4.9153"/>
  <circle cx="62.23" cy="510.8" r="4.9153"/>
  <circle cx="64.463" cy="490.11" r="4.9153"/>
  <circle cx="61.932" cy="469.86" r="4.9153"/>
  <circle cx="59.699" cy="454.82" r="4.9153"/>
  <circle cx="58.508" cy="427.13" r="4.9153"/>
  <circle cx="49.873" cy="411.2" r="4.9153"/>
  <circle cx="56.87" cy="389.76" r="4.9153"/>
  <circle cx="50.171" cy="367.58" r="4.9153"/>
  <circle cx="54.488" cy="357.46" r="4.9153"/>
  <circle cx="52.106" cy="327.98" r="4.9153"/>
  <circle cx="46.449" cy="312.5" r="4.9153"/>
  <circle cx="48.235" cy="290.91" r="4.9153"/>
  <circle cx="39.452" cy="269.77" r="4.9153"/>
  <circle cx="46.449" cy="257.86" r="4.9153"/>
  <circle cx="46.747" cy="228.38" r="4.9153"/>
  <circle cx="42.429" cy="209.18" r="4.9153"/>
  <circle cx="46.598" cy="188.04" r="4.9153"/>
  <circle cx="31.859" cy="162.58" r="4.9153"/>
  <circle cx="37.814" cy="145.31" r="4.9153"/>
 </g>
</svg>
