<?xml version="1.0" encoding="UTF-8"?>
<!-- Created with Inkscape (http://www.inkscape.org/) -->
<svg width="100" height="650" version="1.1" viewBox="0 0 100 650" xmlns="http://www.w3.org/2000/svg" xmlns:cc="http://creativecommons.org/ns#" xmlns:dc="http://purl.org/dc/elements/1.1/" xmlns:rdf="http://www.w3.org/1999/02/22-rdf-syntax-ns#">
 <metadata>
  <rdf:RDF>
   <cc:Work rdf:about="">
    <dc:format>image/svg+xml</dc:format>
    <dc:type rdf:resource="http://purl.org/dc/dcmitype/StillImage"/>
    <dc:title/>
   </cc:Work>
  </rdf:RDF>
 </metadata>
 <g transform="translate(-23.064 -.1058)" fill="#e00000">
  <circle cx="72.867" cy="645.08" r="4.9153"/>
  <circle cx="72.268" cy="630.41" r="4.9153"/>
  <circle cx="71.221" cy="619.49" r="4.9153"/>
  <circle cx="67.031" cy="607.82" r="4.9153"/>
  <circle cx="67.031" cy="593.31" r="4.9153"/>
  <circle cx="67.779" cy="577.9" r="4.9153"/>
  <circle cx="68.378" cy="561.29" r="4.9153"/>
  <circle cx="67.779" cy="539.59" r="4.9153"/>
  <circle cx="63.291" cy="524.18" r="4.9153"/>
  <circle cx="63.59" cy="502.19" r="4.9153"/>
  <circle cx="57.755" cy="480.34" r="4.9153"/>
  <circle cx="63.141" cy="467.03" r="4.9153"/>
  <circle cx="64.488" cy="439.94" r="4.9153"/>
  <circle cx="56.857" cy="421.39" r="4.9153"/>
  <circle cx="63.44" cy="399.4" r="4.9153"/>
  <circle cx="50.273" cy="378.15" r="4.9153"/>
  <circle cx="54.164" cy="362.89" r="4.9153"/>
  <circle cx="49.974" cy="335.21" r="4.9153"/>
  <circle cx="46.982" cy="319.8" r="4.9153"/>
  <circle cx="53.565" cy="300.34" r="4.9153"/>
  <circle cx="47.281" cy="279.1" r="4.9153"/>
  <circle cx="56.408" cy="266.98" r="4.9153"/>
  <circle cx="56.707" cy="240.94" r="4.9153"/>
  <circle cx="50.423" cy="230.02" r="4.9153"/>
  <circle cx="52.967" cy="205.18" r="4.9153"/>
  <circle cx="51.77" cy="186.03" r="4.9153"/>
  <circle cx="56.857" cy="171.37" r="4.9153"/>
  <circle cx="52.817" cy="146.23" r="4.9153"/>
  <circle cx="47.88" cy="129.62" r="4.9153"/>
  <circle cx="48.179" cy="106.43" r="4.9153"/>
  <circle cx="45.934" cy="85.186" r="4.9153"/>
  <circle cx="43.241" cy="68.129" r="4.9153"/>
  <circle cx="41.595" cy="39.85" r="4.9153"/>
  <circle cx="37.555" cy="25.187" r="4.9153"/>
  <circle cx="38.453" cy="6.4446" r="4.9153"/>
 </g>
</svg>
