<?xml version="1.0" encoding="UTF-8"?>
<!-- Created with Inkscape (http://www.inkscape.org/) -->
<svg width="100" height="650" version="1.1" viewBox="0 0 100 650" xmlns="http://www.w3.org/2000/svg" xmlns:cc="http://creativecommons.org/ns#" xmlns:dc="http://purl.org/dc/elements/1.1/" xmlns:rdf="http://www.w3.org/1999/02/22-rdf-syntax-ns#">
 <metadata>
  <rdf:RDF>
   <cc:Work rdf:about="">
    <dc:format>image/svg+xml</dc:format>
    <dc:type rdf:resource="http://purl.org/dc/dcmitype/StillImage"/>
    <dc:title/>
   </cc:Work>
  </rdf:RDF>
 </metadata>
 <g transform="translate(18.8 -47.6)" fill="#e00000">
  <circle cx="30.924" cy="692.39" r="4.9153"/>
  <circle cx="33.375" cy="677.68" r="4.9153"/>
  <circle cx="36.203" cy="670.52" r="4.9153"/>
  <circle cx="37.523" cy="658.45" r="4.9153"/>
  <circle cx="35.638" cy="648.46" r="4.9153"/>
  <circle cx="36.958" cy="635.07" r="4.9153"/>
  <circle cx="33.375" cy="619.42" r="4.9153"/>
  <circle cx="38.278" cy="607.35" r="4.9153"/>
  <circle cx="37.523" cy="584.53" r="4.9153"/>
  <circle cx="35.826" cy="574.92" r="4.9153"/>
  <circle cx="43.557" cy="549.84" r="4.9153"/>
  <circle cx="38.089" cy="534.38" r="4.9153"/>
  <circle cx="47.328" cy="518.16" r="4.9153"/>
  <circle cx="46.951" cy="500.44" r="4.9153"/>
  <circle cx="47.14" cy="487.8" r="4.9153"/>
  <circle cx="52.419" cy="470.27" r="4.9153"/>
  <circle cx="49.78" cy="451.79" r="4.9153"/>
  <circle cx="51.665" cy="435.95" r="4.9153"/>
  <circle cx="50.157" cy="413.7" r="4.9153"/>
  <circle cx="44.877" cy="400.12" r="4.9153"/>
  <circle cx="47.517" cy="378.63" r="4.9153"/>
  <circle cx="39.22" cy="361.66" r="4.9153"/>
  <circle cx="42.237" cy="342.8" r="4.9153"/>
  <circle cx="44.123" cy="324.7" r="4.9153"/>
  <circle cx="43.466" cy="309.21" r="4.9153"/>
  <circle cx="44.799" cy="287.21" r="4.9153"/>
  <circle cx="37.466" cy="272.54" r="4.9153"/>
  <circle cx="43.199" cy="256.41" r="4.9153"/>
  <circle cx="36.133" cy="232.81" r="4.9153"/>
  <circle cx="39.066" cy="220.67" r="4.9153"/>
  <circle cx="43.466" cy="197.07" r="4.9153"/>
  <circle cx="39.066" cy="180.27" r="4.9153"/>
  <circle cx="44.799" cy="160.67" r="4.9153"/>
  <circle cx="40.933" cy="137.07" r="4.9153"/>
  <circle cx="39.866" cy="122.81" r="4.9153"/>
 </g>
</svg>
