<?xml version="1.0" encoding="UTF-8"?>
<!-- Created with Inkscape (http://www.inkscape.org/) -->
<svg width="100" height="650" version="1.1" viewBox="0 0 100 650" xmlns="http://www.w3.org/2000/svg" xmlns:cc="http://creativecommons.org/ns#" xmlns:dc="http://purl.org/dc/elements/1.1/" xmlns:rdf="http://www.w3.org/1999/02/22-rdf-syntax-ns#">
 <metadata>
  <rdf:RDF>
   <cc:Work rdf:about="">
    <dc:format>image/svg+xml</dc:format>
    <dc:type rdf:resource="http://purl.org/dc/dcmitype/StillImage"/>
    <dc:title/>
   </cc:Work>
  </rdf:RDF>
 </metadata>
 <g transform="translate(-9.3407 246.57)" fill="#e00000">
  <circle cx="59.104" cy="398.27" r="4.9153"/>
  <circle cx="58.46" cy="387" r="4.9153"/>
  <circle cx="60.876" cy="379.91" r="4.9153"/>
  <circle cx="62.003" cy="372.67" r="4.9153"/>
  <circle cx="64.419" cy="368" r="4.9153"/>
  <circle cx="66.351" cy="354.95" r="4.9153"/>
  <circle cx="63.291" cy="347.22" r="4.9153"/>
  <circle cx="68.445" cy="338.04" r="4.9153"/>
  <circle cx="64.741" cy="327.41" r="4.9153"/>
  <circle cx="62.164" cy="319.36" r="4.9153"/>
  <circle cx="60.715" cy="306.16" r="4.9153"/>
  <circle cx="62.164" cy="294.72" r="4.9153"/>
  <circle cx="68.445" cy="285.7" r="4.9153"/>
  <circle cx="61.842" cy="272.98" r="4.9153"/>
  <circle cx="67.801" cy="271.53" r="4.9153"/>
  <circle cx="68.284" cy="250.76" r="4.9153"/>
  <circle cx="61.359" cy="246.08" r="4.9153"/>
  <circle cx="64.419" cy="236.42" r="4.9153"/>
  <circle cx="56.044" cy="223.86" r="4.9153"/>
  <circle cx="63.291" cy="221.28" r="4.9153"/>
  <circle cx="63.613" cy="206.79" r="4.9153"/>
  <circle cx="57.01" cy="202.92" r="4.9153"/>
  <circle cx="66.029" cy="191.97" r="4.9153"/>
  <circle cx="51.213" cy="179.09" r="4.9153"/>
  <circle cx="55.883" cy="176.83" r="4.9153"/>
  <circle cx="57.655" cy="160.41" r="4.9153"/>
  <circle cx="56.366" cy="155.09" r="4.9153"/>
  <circle cx="59.265" cy="144.46" r="4.9153"/>
  <circle cx="49.28" cy="133.51" r="4.9153"/>
  <circle cx="51.052" cy="127.23" r="4.9153"/>
  <circle cx="49.602" cy="115.8" r="4.9153"/>
  <circle cx="47.831" cy="109.36" r="4.9153"/>
  <circle cx="56.849" cy="94.862" r="4.9153"/>
  <circle cx="53.467" cy="85.038" r="4.9153"/>
  <circle cx="60.392" cy="81.978" r="4.9153"/>
 </g>
</svg>
