<?xml version="1.0" encoding="UTF-8"?>
<!-- Created with Inkscape (http://www.inkscape.org/) -->
<svg width="100" height="650" version="1.1" viewBox="0 0 100 650" xmlns="http://www.w3.org/2000/svg" xmlns:cc="http://creativecommons.org/ns#" xmlns:dc="http://purl.org/dc/elements/1.1/" xmlns:rdf="http://www.w3.org/1999/02/22-rdf-syntax-ns#">
 <metadata>
  <rdf:RDF>
   <cc:Work rdf:about="">
    <dc:format>image/svg+xml</dc:format>
    <dc:type rdf:resource="http://purl.org/dc/dcmitype/StillImage"/>
    <dc:title/>
   </cc:Work>
  </rdf:RDF>
 </metadata>
 <g transform="translate(22.276 24.098)" fill="#e00000">
  <circle cx="27.246" cy="620.86" r="4.9153"/>
  <circle cx="26.905" cy="606.9" r="4.9153"/>
  <circle cx="27.927" cy="598.73" r="4.9153"/>
  <circle cx="27.075" cy="588.85" r="4.9153"/>
  <circle cx="25.543" cy="581.02" r="4.9153"/>
  <circle cx="27.075" cy="567.22" r="4.9153"/>
  <circle cx="23.329" cy="552.24" r="4.9153"/>
  <circle cx="27.075" cy="542.53" r="4.9153"/>
  <circle cx="28.438" cy="519.37" r="4.9153"/>
  <circle cx="22.818" cy="508.81" r="4.9153"/>
  <circle cx="26.905" cy="490.25" r="4.9153"/>
  <circle cx="22.989" cy="472.54" r="4.9153"/>
  <circle cx="27.586" cy="460.79" r="4.9153"/>
  <circle cx="29.8" cy="440.87" r="4.9153"/>
  <circle cx="26.735" cy="431.5" r="4.9153"/>
  <circle cx="34.398" cy="412.09" r="4.9153"/>
  <circle cx="29.63" cy="394.72" r="4.9153"/>
  <circle cx="34.227" cy="384.34" r="4.9153"/>
  <circle cx="32.014" cy="360.5" r="4.9153"/>
  <circle cx="30.141" cy="352.66" r="4.9153"/>
  <circle cx="37.293" cy="331.72" r="4.9153"/>
  <circle cx="36.271" cy="317.07" r="4.9153"/>
  <circle cx="40.698" cy="305.15" r="4.9153"/>
  <circle cx="37.974" cy="279.27" r="4.9153"/>
  <circle cx="36.101" cy="269.39" r="4.9153"/>
  <circle cx="43.082" cy="252.19" r="4.9153"/>
  <circle cx="38.825" cy="237.38" r="4.9153"/>
  <circle cx="42.231" cy="223.07" r="4.9153"/>
  <circle cx="42.061" cy="198.38" r="4.9153"/>
  <circle cx="40.528" cy="188.34" r="4.9153"/>
  <circle cx="41.89" cy="171.31" r="4.9153"/>
  <circle cx="37.293" cy="153.09" r="4.9153"/>
  <circle cx="47.68" cy="142.02" r="4.9153"/>
  <circle cx="41.72" cy="117.5" r="4.9153"/>
  <circle cx="38.314" cy="108.13" r="4.9153"/>
 </g>
</svg>
