<?xml version="1.0" encoding="UTF-8"?>
<!-- Created with Inkscape (http://www.inkscape.org/) -->
<svg width="100" height="650" version="1.1" viewBox="0 0 100 650" xmlns="http://www.w3.org/2000/svg" xmlns:cc="http://creativecommons.org/ns#" xmlns:dc="http://purl.org/dc/elements/1.1/" xmlns:rdf="http://www.w3.org/1999/02/22-rdf-syntax-ns#">
 <metadata>
  <rdf:RDF>
   <cc:Work rdf:about="">
    <dc:format>image/svg+xml</dc:format>
    <dc:type rdf:resource="http://purl.org/dc/dcmitype/StillImage"/>
    <dc:title/>
   </cc:Work>
  </rdf:RDF>
 </metadata>
 <g fill="#e00000">
  <circle cx="49.73" cy="644.78" r="4.9153"/>
  <circle cx="53.7" cy="629.31" r="4.9153"/>
  <circle cx="53.909" cy="621.16" r="4.9153"/>
  <circle cx="56.417" cy="610.3" r="4.9153"/>
  <circle cx="55.79" cy="594.42" r="4.9153"/>
  <circle cx="59.342" cy="582.51" r="4.9153"/>
  <circle cx="59.969" cy="564.54" r="4.9153"/>
  <circle cx="55.79" cy="547.82" r="4.9153"/>
  <circle cx="63.73" cy="527.14" r="4.9153"/>
  <circle cx="57.88" cy="503.94" r="4.9153"/>
  <circle cx="61.85" cy="486.18" r="4.9153"/>
  <circle cx="65.402" cy="459.23" r="4.9153"/>
  <circle cx="61.85" cy="442.93" r="4.9153"/>
  <circle cx="65.611" cy="422.87" r="4.9153"/>
  <circle cx="58.924" cy="402.81" r="4.9153"/>
  <circle cx="59.133" cy="387.98" r="4.9153"/>
  <circle cx="56.626" cy="361.23" r="4.9153"/>
  <circle cx="49.521" cy="349.11" r="4.9153"/>
  <circle cx="55.372" cy="327.8" r="4.9153"/>
  <circle cx="41.999" cy="300.63" r="4.9153"/>
  <circle cx="46.178" cy="293.11" r="4.9153"/>
  <circle cx="50.357" cy="264.69" r="4.9153"/>
  <circle cx="45.342" cy="248.81" r="4.9153"/>
  <circle cx="54.536" cy="227.92" r="4.9153"/>
  <circle cx="52.029" cy="209.95" r="4.9153"/>
  <circle cx="57.462" cy="193.23" r="4.9153"/>
  <circle cx="60.805" cy="166.9" r="4.9153"/>
  <circle cx="52.865" cy="153.53" r="4.9153"/>
  <circle cx="61.641" cy="128.04" r="4.9153"/>
  <circle cx="52.029" cy="106.73" r="4.9153"/>
  <circle cx="52.029" cy="89.175" r="4.9153"/>
  <circle cx="49.104" cy="59.922" r="4.9153"/>
  <circle cx="42.835" cy="47.802" r="4.9153"/>
  <circle cx="46.596" cy="25.654" r="4.9153"/>
  <circle cx="36.984" cy="5.8332" r="4.9153"/>
 </g>
</svg>
