<?xml version="1.0" encoding="UTF-8"?>
<!-- Created with Inkscape (http://www.inkscape.org/) -->
<svg width="100" height="650" version="1.1" viewBox="0 0 100 650" xmlns="http://www.w3.org/2000/svg" xmlns:cc="http://creativecommons.org/ns#" xmlns:dc="http://purl.org/dc/elements/1.1/" xmlns:rdf="http://www.w3.org/1999/02/22-rdf-syntax-ns#">
 <metadata>
  <rdf:RDF>
   <cc:Work rdf:about="">
    <dc:format>image/svg+xml</dc:format>
    <dc:type rdf:resource="http://purl.org/dc/dcmitype/StillImage"/>
    <dc:title/>
   </cc:Work>
  </rdf:RDF>
 </metadata>
 <g transform="translate(20.882 30.146)" fill="#e00000">
  <circle cx="29.022" cy="614.9" r="4.9153"/>
  <circle cx="30.084" cy="600.15" r="4.9153"/>
  <circle cx="29.73" cy="592.37" r="4.9153"/>
  <circle cx="35.039" cy="581.98" r="4.9153"/>
  <circle cx="29.612" cy="571.6" r="4.9153"/>
  <circle cx="36.691" cy="562.75" r="4.9153"/>
  <circle cx="34.331" cy="540.69" r="4.9153"/>
  <circle cx="32.561" cy="532.91" r="4.9153"/>
  <circle cx="35.275" cy="515.56" r="4.9153"/>
  <circle cx="26.309" cy="499.52" r="4.9153"/>
  <circle cx="31.854" cy="486.19" r="4.9153"/>
  <circle cx="30.084" cy="462.71" r="4.9153"/>
  <circle cx="29.848" cy="451.86" r="4.9153"/>
  <circle cx="29.73" cy="430.15" r="4.9153"/>
  <circle cx="24.657" cy="411.15" r="4.9153"/>
  <circle cx="29.258" cy="396.53" r="4.9153"/>
  <circle cx="26.191" cy="377.18" r="4.9153"/>
  <circle cx="22.062" cy="365.38" r="4.9153"/>
  <circle cx="22.533" cy="344.38" r="4.9153"/>
  <circle cx="20.41" cy="326.45" r="4.9153"/>
  <circle cx="29.022" cy="317.13" r="4.9153"/>
  <circle cx="24.303" cy="291.88" r="4.9153"/>
  <circle cx="27.134" cy="283.15" r="4.9153"/>
  <circle cx="35.039" cy="264.63" r="4.9153"/>
  <circle cx="27.252" cy="253.3" r="4.9153"/>
  <circle cx="37.634" cy="238.44" r="4.9153"/>
  <circle cx="35.747" cy="219.92" r="4.9153"/>
  <circle cx="35.393" cy="210.71" r="4.9153"/>
  <circle cx="37.634" cy="189.83" r="4.9153"/>
  <circle cx="34.331" cy="178.15" r="4.9153"/>
  <circle cx="42.353" cy="164.82" r="4.9153"/>
  <circle cx="39.994" cy="145.47" r="4.9153"/>
  <circle cx="39.994" cy="136.74" r="4.9153"/>
  <circle cx="47.072" cy="110.32" r="4.9153"/>
  <circle cx="40.702" cy="100.29" r="4.9153"/>
 </g>
</svg>
