<?xml version="1.0" encoding="UTF-8"?>
<!-- Created with Inkscape (http://www.inkscape.org/) -->
<svg width="100" height="650" version="1.1" viewBox="0 0 100 650" xmlns="http://www.w3.org/2000/svg" xmlns:cc="http://creativecommons.org/ns#" xmlns:dc="http://purl.org/dc/elements/1.1/" xmlns:rdf="http://www.w3.org/1999/02/22-rdf-syntax-ns#">
 <metadata>
  <rdf:RDF>
   <cc:Work rdf:about="">
    <dc:format>image/svg+xml</dc:format>
    <dc:type rdf:resource="http://purl.org/dc/dcmitype/StillImage"/>
    <dc:title/>
   </cc:Work>
  </rdf:RDF>
 </metadata>
 <g transform="translate(21.273 -4.9788)" fill="#e00000">
  <circle cx="28.693" cy="650.1" r="4.9153"/>
  <circle cx="32.106" cy="638.09" r="4.9153"/>
  <circle cx="31.095" cy="626.71" r="4.9153"/>
  <circle cx="29.073" cy="618.88" r="4.9153"/>
  <circle cx="29.578" cy="606.49" r="4.9153"/>
  <circle cx="25.786" cy="593.72" r="4.9153"/>
  <circle cx="32.486" cy="581.59" r="4.9153"/>
  <circle cx="31.854" cy="562.75" r="4.9153"/>
  <circle cx="31.98" cy="552.52" r="4.9153"/>
  <circle cx="39.69" cy="531.15" r="4.9153"/>
  <circle cx="32.865" cy="517.88" r="4.9153"/>
  <circle cx="37.668" cy="505.49" r="4.9153"/>
  <circle cx="34.761" cy="483.37" r="4.9153"/>
  <circle cx="35.898" cy="471.11" r="4.9153"/>
  <circle cx="40.955" cy="447.22" r="4.9153"/>
  <circle cx="41.46" cy="433.7" r="4.9153"/>
  <circle cx="44.494" cy="417.01" r="4.9153"/>
  <circle cx="45.126" cy="394.39" r="4.9153"/>
  <circle cx="48.159" cy="384.91" r="4.9153"/>
  <circle cx="54.985" cy="365.06" r="4.9153"/>
  <circle cx="52.078" cy="350.14" r="4.9153"/>
  <circle cx="60.294" cy="333.33" r="4.9153"/>
  <circle cx="60.041" cy="312.86" r="4.9153"/>
  <circle cx="64.592" cy="302.62" r="4.9153"/>
  <circle cx="68.131" cy="282.77" r="4.9153"/>
  <circle cx="69.901" cy="268.49" r="4.9153"/>
  <circle cx="73.314" cy="253.57" r="4.9153"/>
  <circle cx="69.395" cy="234.49" r="4.9153"/>
  <circle cx="67.752" cy="222.73" r="4.9153"/>
  <circle cx="69.648" cy="196.69" r="4.9153"/>
  <circle cx="61.053" cy="184.56" r="4.9153"/>
  <circle cx="65.729" cy="168" r="4.9153"/>
  <circle cx="56.502" cy="143.48" r="4.9153"/>
  <circle cx="63.328" cy="138.17" r="4.9153"/>
  <circle cx="68.131" cy="107.83" r="4.9153"/>
 </g>
</svg>
