<?xml version="1.0" encoding="UTF-8"?>
<!-- Created with Inkscape (http://www.inkscape.org/) -->
<svg width="100" height="650" version="1.1" viewBox="0 0 100 650" xmlns="http://www.w3.org/2000/svg" xmlns:cc="http://creativecommons.org/ns#" xmlns:dc="http://purl.org/dc/elements/1.1/" xmlns:rdf="http://www.w3.org/1999/02/22-rdf-syntax-ns#">
 <metadata>
  <rdf:RDF>
   <cc:Work rdf:about="">
    <dc:format>image/svg+xml</dc:format>
    <dc:type rdf:resource="http://purl.org/dc/dcmitype/StillImage"/>
    <dc:title/>
   </cc:Work>
  </rdf:RDF>
 </metadata>
 <g transform="translate(24.668 26.7)" fill="#e00000">
  <circle cx="25.09" cy="618.17" r="4.9153"/>
  <circle cx="24.134" cy="606.22" r="4.9153"/>
  <circle cx="24.851" cy="596.9" r="4.9153"/>
  <circle cx="26.523" cy="588.54" r="4.9153"/>
  <circle cx="28.196" cy="577.55" r="4.9153"/>
  <circle cx="21.983" cy="565.6" r="4.9153"/>
  <circle cx="28.196" cy="554.13" r="4.9153"/>
  <circle cx="22.461" cy="535.25" r="4.9153"/>
  <circle cx="21.744" cy="523.07" r="4.9153"/>
  <circle cx="24.612" cy="505.86" r="4.9153"/>
  <circle cx="24.134" cy="488.42" r="4.9153"/>
  <circle cx="30.585" cy="473.13" r="4.9153"/>
  <circle cx="29.63" cy="453.05" r="4.9153"/>
  <circle cx="33.692" cy="440.15" r="4.9153"/>
  <circle cx="39.665" cy="418.65" r="4.9153"/>
  <circle cx="34.886" cy="405.03" r="4.9153"/>
  <circle cx="43.011" cy="389.49" r="4.9153"/>
  <circle cx="42.533" cy="370.62" r="4.9153"/>
  <circle cx="45.4" cy="355.32" r="4.9153"/>
  <circle cx="47.79" cy="335.97" r="4.9153"/>
  <circle cx="43.011" cy="323.31" r="4.9153"/>
  <circle cx="46.117" cy="307.3" r="4.9153"/>
  <circle cx="47.073" cy="292.48" r="4.9153"/>
  <circle cx="48.506" cy="278.86" r="4.9153"/>
  <circle cx="52.091" cy="259.98" r="4.9153"/>
  <circle cx="42.055" cy="246.6" r="4.9153"/>
  <circle cx="50.418" cy="232.74" r="4.9153"/>
  <circle cx="47.79" cy="216.02" r="4.9153"/>
  <circle cx="48.984" cy="203.59" r="4.9153"/>
  <circle cx="55.197" cy="183.28" r="4.9153"/>
  <circle cx="50.896" cy="171.81" r="4.9153"/>
  <circle cx="63.56" cy="157.48" r="4.9153"/>
  <circle cx="56.153" cy="138.12" r="4.9153"/>
  <circle cx="58.303" cy="129.52" r="4.9153"/>
  <circle cx="59.737" cy="106.34" r="4.9153"/>
 </g>
</svg>
