<?xml version="1.0" encoding="UTF-8"?>
<!-- Created with Inkscape (http://www.inkscape.org/) -->
<svg width="100" height="650" version="1.1" viewBox="0 0 100 650" xmlns="http://www.w3.org/2000/svg" xmlns:cc="http://creativecommons.org/ns#" xmlns:dc="http://purl.org/dc/elements/1.1/" xmlns:rdf="http://www.w3.org/1999/02/22-rdf-syntax-ns#">
 <metadata>
  <rdf:RDF>
   <cc:Work rdf:about="">
    <dc:format>image/svg+xml</dc:format>
    <dc:type rdf:resource="http://purl.org/dc/dcmitype/StillImage"/>
    <dc:title/>
   </cc:Work>
  </rdf:RDF>
 </metadata>
 <g transform="translate(-13.351 100.2)" fill="#e00000">
  <circle cx="63.135" cy="544.9" r="4.9153"/>
  <circle cx="61.954" cy="532.51" r="4.9153"/>
  <circle cx="58.709" cy="525.73" r="4.9153"/>
  <circle cx="61.364" cy="520.12" r="4.9153"/>
  <circle cx="60.479" cy="508.62" r="4.9153"/>
  <circle cx="61.069" cy="501.83" r="4.9153"/>
  <circle cx="63.135" cy="488.56" r="4.9153"/>
  <circle cx="63.135" cy="488.56" r="4.9153"/>
  <circle cx="64.02" cy="475.87" r="4.9153"/>
  <circle cx="68.15" cy="464.66" r="4.9153"/>
  <circle cx="65.79" cy="446.37" r="4.9153"/>
  <circle cx="64.315" cy="434.27" r="4.9153"/>
  <circle cx="67.56" cy="420.7" r="4.9153"/>
  <circle cx="61.954" cy="408.6" r="4.9153"/>
  <circle cx="66.97" cy="395.62" r="4.9153"/>
  <circle cx="63.43" cy="376.74" r="4.9153"/>
  <circle cx="59.889" cy="369.07" r="4.9153"/>
  <circle cx="63.43" cy="349.6" r="4.9153"/>
  <circle cx="56.644" cy="337.8" r="4.9153"/>
  <circle cx="63.725" cy="326.59" r="4.9153"/>
  <circle cx="59.004" cy="305.05" r="4.9153"/>
  <circle cx="57.824" cy="300.92" r="4.9153"/>
  <circle cx="61.069" cy="279.39" r="4.9153"/>
  <circle cx="55.759" cy="269.06" r="4.9153"/>
  <circle cx="58.119" cy="255.78" r="4.9153"/>
  <circle cx="57.529" cy="236.61" r="4.9153"/>
  <circle cx="56.054" cy="230.41" r="4.9153"/>
  <circle cx="55.759" cy="210.94" r="4.9153"/>
  <circle cx="46.908" cy="197.07" r="4.9153"/>
  <circle cx="56.349" cy="182.32" r="4.9153"/>
  <circle cx="46.318" cy="164.62" r="4.9153"/>
  <circle cx="47.498" cy="154.59" r="4.9153"/>
  <circle cx="44.843" cy="138.36" r="4.9153"/>
  <circle cx="41.303" cy="124.79" r="4.9153"/>
  <circle cx="43.958" cy="113.29" r="4.9153"/>
 </g>
</svg>
