<?xml version="1.0" encoding="UTF-8"?>
<!-- Created with Inkscape (http://www.inkscape.org/) -->
<svg width="100" height="650" version="1.1" viewBox="0 0 100 650" xmlns="http://www.w3.org/2000/svg" xmlns:cc="http://creativecommons.org/ns#" xmlns:dc="http://purl.org/dc/elements/1.1/" xmlns:rdf="http://www.w3.org/1999/02/22-rdf-syntax-ns#">
 <metadata>
  <rdf:RDF>
   <cc:Work rdf:about="">
    <dc:format>image/svg+xml</dc:format>
    <dc:type rdf:resource="http://purl.org/dc/dcmitype/StillImage"/>
    <dc:title/>
   </cc:Work>
  </rdf:RDF>
 </metadata>
 <g transform="translate(11.413 60.442)" fill="#e00000">
  <circle cx="38.259" cy="584.49" r="4.9153"/>
  <circle cx="41.153" cy="569.54" r="4.9153"/>
  <circle cx="41.153" cy="564.4" r="4.9153"/>
  <circle cx="44.528" cy="551.54" r="4.9153"/>
  <circle cx="43.082" cy="543.99" r="4.9153"/>
  <circle cx="48.708" cy="530.8" r="4.9153"/>
  <circle cx="46.297" cy="513.44" r="4.9153"/>
  <circle cx="49.833" cy="506.37" r="4.9153"/>
  <circle cx="52.084" cy="485.63" r="4.9153"/>
  <circle cx="45.654" cy="473.09" r="4.9153"/>
  <circle cx="48.869" cy="455.25" r="4.9153"/>
  <circle cx="42.921" cy="437.57" r="4.9153"/>
  <circle cx="44.368" cy="425.51" r="4.9153"/>
  <circle cx="47.261" cy="405.42" r="4.9153"/>
  <circle cx="43.242" cy="393.2" r="4.9153"/>
  <circle cx="54.334" cy="378.09" r="4.9153"/>
  <circle cx="45.975" cy="357.19" r="4.9153"/>
  <circle cx="53.852" cy="344.33" r="4.9153"/>
  <circle cx="55.942" cy="326.97" r="4.9153"/>
  <circle cx="56.745" cy="314.59" r="4.9153"/>
  <circle cx="59.639" cy="299.64" r="4.9153"/>
  <circle cx="54.977" cy="284.05" r="4.9153"/>
  <circle cx="56.102" cy="273.76" r="4.9153"/>
  <circle cx="51.923" cy="257.04" r="4.9153"/>
  <circle cx="45.332" cy="246.75" r="4.9153"/>
  <circle cx="56.906" cy="228.11" r="4.9153"/>
  <circle cx="46.297" cy="212.84" r="4.9153"/>
  <circle cx="50.958" cy="204.32" r="4.9153"/>
  <circle cx="49.029" cy="183.26" r="4.9153"/>
  <circle cx="42.599" cy="175.7" r="4.9153"/>
  <circle cx="46.618" cy="158.5" r="4.9153"/>
  <circle cx="41.313" cy="141.94" r="4.9153"/>
  <circle cx="48.386" cy="133.1" r="4.9153"/>
  <circle cx="45.011" cy="109.31" r="4.9153"/>
  <circle cx="39.706" cy="102.08" r="4.9153"/>
 </g>
</svg>
