<?xml version="1.0" encoding="UTF-8"?>
<!-- Created with Inkscape (http://www.inkscape.org/) -->
<svg width="100" height="650" version="1.1" viewBox="0 0 100 650" xmlns="http://www.w3.org/2000/svg" xmlns:cc="http://creativecommons.org/ns#" xmlns:dc="http://purl.org/dc/elements/1.1/" xmlns:rdf="http://www.w3.org/1999/02/22-rdf-syntax-ns#">
 <metadata>
  <rdf:RDF>
   <cc:Work rdf:about="">
    <dc:format>image/svg+xml</dc:format>
    <dc:type rdf:resource="http://purl.org/dc/dcmitype/StillImage"/>
    <dc:title/>
   </cc:Work>
  </rdf:RDF>
 </metadata>
 <g transform="translate(24.707 249.65)" fill="#e00000">
  <circle cx="24.544" cy="395.31" r="4.9153"/>
  <circle cx="27.633" cy="382.15" r="4.9153"/>
  <circle cx="27.145" cy="376.95" r="4.9153"/>
  <circle cx="27.47" cy="369.14" r="4.9153"/>
  <circle cx="25.52" cy="359.88" r="4.9153"/>
  <circle cx="26.982" cy="352.73" r="4.9153"/>
  <circle cx="30.396" cy="341.51" r="4.9153"/>
  <circle cx="25.682" cy="332.41" r="4.9153"/>
  <circle cx="32.346" cy="326.07" r="4.9153"/>
  <circle cx="29.583" cy="311.44" r="4.9153"/>
  <circle cx="31.371" cy="303.8" r="4.9153"/>
  <circle cx="30.233" cy="294.7" r="4.9153"/>
  <circle cx="28.12" cy="284.95" r="4.9153"/>
  <circle cx="32.509" cy="276.17" r="4.9153"/>
  <circle cx="30.558" cy="262.68" r="4.9153"/>
  <circle cx="32.671" cy="257.64" r="4.9153"/>
  <circle cx="37.548" cy="243.99" r="4.9153"/>
  <circle cx="30.883" cy="237" r="4.9153"/>
  <circle cx="42.262" cy="229.52" r="4.9153"/>
  <circle cx="36.41" cy="217.33" r="4.9153"/>
  <circle cx="35.597" cy="210.83" r="4.9153"/>
  <circle cx="39.661" cy="196.03" r="4.9153"/>
  <circle cx="35.76" cy="187.42" r="4.9153"/>
  <circle cx="38.361" cy="179.13" r="4.9153"/>
  <circle cx="35.11" cy="167.59" r="4.9153"/>
  <circle cx="33.159" cy="161.25" r="4.9153"/>
  <circle cx="34.785" cy="147.43" r="4.9153"/>
  <circle cx="33.972" cy="140.93" r="4.9153"/>
  <circle cx="38.035" cy="132.8" r="4.9153"/>
  <circle cx="33.322" cy="121.26" r="4.9153"/>
  <circle cx="34.785" cy="114.92" r="4.9153"/>
  <circle cx="37.71" cy="103.38" r="4.9153"/>
  <circle cx="31.859" cy="98.833" r="4.9153"/>
  <circle cx="39.661" cy="89.405" r="4.9153"/>
  <circle cx="39.173" cy="79.002" r="4.9153"/>
 </g>
</svg>
