<?xml version="1.0" encoding="UTF-8"?>
<!-- Created with Inkscape (http://www.inkscape.org/) -->
<svg width="100" height="650" version="1.1" viewBox="0 0 100 650" xmlns="http://www.w3.org/2000/svg" xmlns:cc="http://creativecommons.org/ns#" xmlns:dc="http://purl.org/dc/elements/1.1/" xmlns:rdf="http://www.w3.org/1999/02/22-rdf-syntax-ns#">
 <metadata>
  <rdf:RDF>
   <cc:Work rdf:about="">
    <dc:format>image/svg+xml</dc:format>
    <dc:type rdf:resource="http://purl.org/dc/dcmitype/StillImage"/>
    <dc:title/>
   </cc:Work>
  </rdf:RDF>
 </metadata>
 <g transform="translate(8.3849 -100.46)" fill="#e00000">
  <circle cx="41.503" cy="745.42" r="4.9153"/>
  <circle cx="40.89" cy="732.13" r="4.9153"/>
  <circle cx="41.299" cy="720.27" r="4.9153"/>
  <circle cx="35.779" cy="711.69" r="4.9153"/>
  <circle cx="37.005" cy="700.85" r="4.9153"/>
  <circle cx="36.188" cy="682.66" r="4.9153"/>
  <circle cx="36.596" cy="669.16" r="4.9153"/>
  <circle cx="42.117" cy="647.29" r="4.9153"/>
  <circle cx="36.801" cy="628.68" r="4.9153"/>
  <circle cx="45.183" cy="613.14" r="4.9153"/>
  <circle cx="41.503" cy="585.13" r="4.9153"/>
  <circle cx="43.752" cy="573.48" r="4.9153"/>
  <circle cx="47.023" cy="549.15" r="4.9153"/>
  <circle cx="40.276" cy="526.25" r="4.9153"/>
  <circle cx="44.979" cy="507.44" r="4.9153"/>
  <circle cx="46.41" cy="484.14" r="4.9153"/>
  <circle cx="48.046" cy="468.39" r="4.9153"/>
  <circle cx="47.023" cy="447.33" r="4.9153"/>
  <circle cx="42.73" cy="429.75" r="4.9153"/>
  <circle cx="50.09" cy="413.4" r="4.9153"/>
  <circle cx="47.432" cy="392.54" r="4.9153"/>
  <circle cx="45.592" cy="373.94" r="4.9153"/>
  <circle cx="47.841" cy="352.27" r="4.9153"/>
  <circle cx="37.21" cy="339.59" r="4.9153"/>
  <circle cx="42.525" cy="323.85" r="4.9153"/>
  <circle cx="35.574" cy="305.04" r="4.9153"/>
  <circle cx="33.325" cy="290.73" r="4.9153"/>
  <circle cx="36.596" cy="266.19" r="4.9153"/>
  <circle cx="31.076" cy="251.27" r="4.9153"/>
  <circle cx="38.028" cy="233.69" r="4.9153"/>
  <circle cx="33.53" cy="210.58" r="4.9153"/>
  <circle cx="35.165" cy="192.39" r="4.9153"/>
  <circle cx="40.89" cy="167.85" r="4.9153"/>
  <circle cx="38.845" cy="153.13" r="4.9153"/>
  <circle cx="44.979" cy="134.12" r="4.9153"/>
 </g>
</svg>
