<?xml version="1.0" encoding="UTF-8"?>
<!-- Created with Inkscape (http://www.inkscape.org/) -->
<svg width="100" height="650" version="1.1" viewBox="0 0 100 650" xmlns="http://www.w3.org/2000/svg" xmlns:cc="http://creativecommons.org/ns#" xmlns:dc="http://purl.org/dc/elements/1.1/" xmlns:rdf="http://www.w3.org/1999/02/22-rdf-syntax-ns#">
 <metadata>
  <rdf:RDF>
   <cc:Work rdf:about="">
    <dc:format>image/svg+xml</dc:format>
    <dc:type rdf:resource="http://purl.org/dc/dcmitype/StillImage"/>
    <dc:title/>
   </cc:Work>
  </rdf:RDF>
 </metadata>
 <g transform="translate(5.4628 237.07)" fill="#e00000">
  <circle cx="44.185" cy="407.95" r="4.9153"/>
  <circle cx="42.257" cy="398.79" r="4.9153"/>
  <circle cx="43.221" cy="391.4" r="4.9153"/>
  <circle cx="42.096" cy="385.62" r="4.9153"/>
  <circle cx="44.506" cy="377.75" r="4.9153"/>
  <circle cx="42.899" cy="368.75" r="4.9153"/>
  <circle cx="41.453" cy="359.43" r="4.9153"/>
  <circle cx="39.686" cy="349.47" r="4.9153"/>
  <circle cx="37.758" cy="340.47" r="4.9153"/>
  <circle cx="40.007" cy="328.9" r="4.9153"/>
  <circle cx="30.367" cy="317.81" r="4.9153"/>
  <circle cx="34.866" cy="312.67" r="4.9153"/>
  <circle cx="33.42" cy="295.16" r="4.9153"/>
  <circle cx="32.938" cy="290.5" r="4.9153"/>
  <circle cx="38.079" cy="277.97" r="4.9153"/>
  <circle cx="34.223" cy="265.11" r="4.9153"/>
  <circle cx="40.811" cy="259.17" r="4.9153"/>
  <circle cx="44.024" cy="246.96" r="4.9153"/>
  <circle cx="41.614" cy="242.46" r="4.9153"/>
  <circle cx="52.7" cy="227.68" r="4.9153"/>
  <circle cx="45.952" cy="216.43" r="4.9153"/>
  <circle cx="52.379" cy="210.33" r="4.9153"/>
  <circle cx="51.576" cy="198.11" r="4.9153"/>
  <circle cx="49.166" cy="190.24" r="4.9153"/>
  <circle cx="53.343" cy="177.87" r="4.9153"/>
  <circle cx="48.523" cy="167.91" r="4.9153"/>
  <circle cx="54.628" cy="161.64" r="4.9153"/>
  <circle cx="54.628" cy="142.2" r="4.9153"/>
  <circle cx="58.324" cy="128.86" r="4.9153"/>
  <circle cx="53.504" cy="116.49" r="4.9153"/>
  <circle cx="59.127" cy="111.03" r="4.9153"/>
  <circle cx="56.878" cy="99.622" r="4.9153"/>
  <circle cx="50.13" cy="93.677" r="4.9153"/>
  <circle cx="54.307" cy="79.538" r="4.9153"/>
  <circle cx="44.345" cy="68.131" r="4.9153"/>
 </g>
</svg>
