<?xml version="1.0" encoding="UTF-8"?>
<!-- Created with Inkscape (http://www.inkscape.org/) -->
<svg width="100" height="650" version="1.1" viewBox="0 0 100 650" xmlns="http://www.w3.org/2000/svg" xmlns:cc="http://creativecommons.org/ns#" xmlns:dc="http://purl.org/dc/elements/1.1/" xmlns:rdf="http://www.w3.org/1999/02/22-rdf-syntax-ns#">
 <metadata>
  <rdf:RDF>
   <cc:Work rdf:about="">
    <dc:format>image/svg+xml</dc:format>
    <dc:type rdf:resource="http://purl.org/dc/dcmitype/StillImage"/>
    <dc:title/>
   </cc:Work>
  </rdf:RDF>
 </metadata>
 <g transform="translate(26.977 -87.594)" fill="#e00000">
  <circle cx="22.811" cy="732.54" r="4.9153"/>
  <circle cx="24.795" cy="719.25" r="4.9153"/>
  <circle cx="26.977" cy="710.12" r="4.9153"/>
  <circle cx="24.993" cy="699.01" r="4.9153"/>
  <circle cx="22.018" cy="686.91" r="4.9153"/>
  <circle cx="22.018" cy="672.83" r="4.9153"/>
  <circle cx="19.439" cy="656.57" r="4.9153"/>
  <circle cx="18.249" cy="646.85" r="4.9153"/>
  <circle cx="18.249" cy="623.04" r="4.9153"/>
  <circle cx="13.687" cy="605.39" r="4.9153"/>
  <circle cx="15.075" cy="590.31" r="4.9153"/>
  <circle cx="14.877" cy="567.5" r="4.9153"/>
  <circle cx="15.67" cy="552.82" r="4.9153"/>
  <circle cx="19.241" cy="530.21" r="4.9153"/>
  <circle cx="14.877" cy="514.14" r="4.9153"/>
  <circle cx="19.439" cy="494.11" r="4.9153"/>
  <circle cx="16.464" cy="473.28" r="4.9153"/>
  <circle cx="21.026" cy="458.8" r="4.9153"/>
  <circle cx="23.208" cy="431.23" r="4.9153"/>
  <circle cx="15.274" cy="417.15" r="4.9153"/>
  <circle cx="23.01" cy="398.1" r="4.9153"/>
  <circle cx="16.464" cy="377.28" r="4.9153"/>
  <circle cx="20.629" cy="362.4" r="4.9153"/>
  <circle cx="26.977" cy="342.17" r="4.9153"/>
  <circle cx="23.605" cy="328.48" r="4.9153"/>
  <circle cx="38.283" cy="309.24" r="4.9153"/>
  <circle cx="30.547" cy="286.03" r="4.9153"/>
  <circle cx="33.126" cy="271.95" r="4.9153"/>
  <circle cx="32.729" cy="244.18" r="4.9153"/>
  <circle cx="29.754" cy="233.67" r="4.9153"/>
  <circle cx="40.465" cy="212.64" r="4.9153"/>
  <circle cx="27.77" cy="188.84" r="4.9153"/>
  <circle cx="33.523" cy="174.56" r="4.9153"/>
  <circle cx="32.729" cy="147.58" r="4.9153"/>
  <circle cx="29.357" cy="134.29" r="4.9153"/>
 </g>
</svg>
