<?xml version="1.0" encoding="UTF-8"?>
<!-- Created with Inkscape (http://www.inkscape.org/) -->
<svg width="100" height="650" version="1.1" viewBox="0 0 100 650" xmlns="http://www.w3.org/2000/svg" xmlns:cc="http://creativecommons.org/ns#" xmlns:dc="http://purl.org/dc/elements/1.1/" xmlns:rdf="http://www.w3.org/1999/02/22-rdf-syntax-ns#">
 <metadata>
  <rdf:RDF>
   <cc:Work rdf:about="">
    <dc:format>image/svg+xml</dc:format>
    <dc:type rdf:resource="http://purl.org/dc/dcmitype/StillImage"/>
    <dc:title/>
   </cc:Work>
  </rdf:RDF>
 </metadata>
 <g transform="translate(31.094 -113.58)" fill="#e00000">
  <circle cx="17.947" cy="758.37" r="4.9153"/>
  <circle cx="20.451" cy="743.76" r="4.9153"/>
  <circle cx="25.042" cy="732.49" r="4.9153"/>
  <circle cx="18.782" cy="722.47" r="4.9153"/>
  <circle cx="22.538" cy="713.71" r="4.9153"/>
  <circle cx="18.364" cy="692.84" r="4.9153"/>
  <circle cx="15.86" cy="681.99" r="4.9153"/>
  <circle cx="16.695" cy="661.12" r="4.9153"/>
  <circle cx="11.269" cy="643.17" r="4.9153"/>
  <circle cx="15.86" cy="627.31" r="4.9153"/>
  <circle cx="13.356" cy="599.35" r="4.9153"/>
  <circle cx="12.104" cy="588.5" r="4.9153"/>
  <circle cx="17.53" cy="566.79" r="4.9153"/>
  <circle cx="17.53" cy="547.59" r="4.9153"/>
  <circle cx="21.703" cy="532.57" r="4.9153"/>
  <circle cx="17.947" cy="507.53" r="4.9153"/>
  <circle cx="17.53" cy="490.83" r="4.9153"/>
  <circle cx="23.79" cy="467.88" r="4.9153"/>
  <circle cx="16.278" cy="451.18" r="4.9153"/>
  <circle cx="25.46" cy="433.65" r="4.9153"/>
  <circle cx="23.373" cy="409.44" r="4.9153"/>
  <circle cx="26.294" cy="397.76" r="4.9153"/>
  <circle cx="32.138" cy="376.05" r="4.9153"/>
  <circle cx="29.216" cy="357.27" r="4.9153"/>
  <circle cx="31.303" cy="339.74" r="4.9153"/>
  <circle cx="27.129" cy="318.04" r="4.9153"/>
  <circle cx="22.956" cy="302.6" r="4.9153"/>
  <circle cx="32.972" cy="273.8" r="4.9153"/>
  <circle cx="28.799" cy="257.94" r="4.9153"/>
  <circle cx="29.216" cy="240.82" r="4.9153"/>
  <circle cx="24.208" cy="214.95" r="4.9153"/>
  <circle cx="24.208" cy="202.84" r="4.9153"/>
  <circle cx="30.886" cy="173.63" r="4.9153"/>
  <circle cx="30.051" cy="156.51" r="4.9153"/>
  <circle cx="33.39" cy="136.06" r="4.9153"/>
 </g>
</svg>
