<?xml version="1.0" encoding="UTF-8"?>
<!-- Created with Inkscape (http://www.inkscape.org/) -->
<svg width="100" height="650" version="1.1" viewBox="0 0 100 650" xmlns="http://www.w3.org/2000/svg" xmlns:cc="http://creativecommons.org/ns#" xmlns:dc="http://purl.org/dc/elements/1.1/" xmlns:rdf="http://www.w3.org/1999/02/22-rdf-syntax-ns#">
 <metadata>
  <rdf:RDF>
   <cc:Work rdf:about="">
    <dc:format>image/svg+xml</dc:format>
    <dc:type rdf:resource="http://purl.org/dc/dcmitype/StillImage"/>
    <dc:title/>
   </cc:Work>
  </rdf:RDF>
 </metadata>
 <g transform="translate(21.788 223.42)" fill="#e00000">
  <circle cx="27.751" cy="421.3" r="4.9153"/>
  <circle cx="29.7" cy="401.24" r="4.9153"/>
  <circle cx="30.961" cy="393.44" r="4.9153"/>
  <circle cx="32.681" cy="382.09" r="4.9153"/>
  <circle cx="36.695" cy="368.21" r="4.9153"/>
  <circle cx="39.218" cy="353.07" r="4.9153"/>
  <circle cx="42.428" cy="338.63" r="4.9153"/>
  <circle cx="41.97" cy="323.6" r="4.9153"/>
  <circle cx="38.644" cy="308.93" r="4.9153"/>
  <circle cx="35.204" cy="292.76" r="4.9153"/>
  <circle cx="37.039" cy="278.65" r="4.9153"/>
  <circle cx="33.14" cy="265.92" r="4.9153"/>
  <circle cx="30.617" cy="251.93" r="4.9153"/>
  <circle cx="31.879" cy="238.06" r="4.9153"/>
  <circle cx="30.388" cy="222.35" r="4.9153"/>
  <circle cx="32.681" cy="207.33" r="4.9153"/>
  <circle cx="38.071" cy="194.25" r="4.9153"/>
  <circle cx="34.745" cy="181.18" r="4.9153"/>
  <circle cx="36.58" cy="171.09" r="4.9153"/>
  <circle cx="39.906" cy="160.31" r="4.9153"/>
  <circle cx="38.3" cy="149.76" r="4.9153"/>
  <circle cx="36.695" cy="136.12" r="4.9153"/>
  <circle cx="30.617" cy="122.93" r="4.9153"/>
  <circle cx="26.718" cy="108.02" r="4.9153"/>
  <circle cx="21.558" cy="95.751" r="4.9153"/>
  <circle cx="17.086" cy="80.041" r="4.9153"/>
  <circle cx="20.756" cy="63.987" r="4.9153"/>
  <circle cx="18.118" cy="48.965" r="4.9153"/>
  <circle cx="15.366" cy="33.943" r="4.9153"/>
  <circle cx="17.774" cy="17.545" r="4.9153"/>
 </g>
</svg>
