<?xml version="1.0" encoding="UTF-8"?>
<!-- Created with Inkscape (http://www.inkscape.org/) -->
<svg width="100" height="650" version="1.1" viewBox="0 0 100 650" xmlns="http://www.w3.org/2000/svg" xmlns:cc="http://creativecommons.org/ns#" xmlns:dc="http://purl.org/dc/elements/1.1/" xmlns:rdf="http://www.w3.org/1999/02/22-rdf-syntax-ns#">
 <metadata>
  <rdf:RDF>
   <cc:Work rdf:about="">
    <dc:format>image/svg+xml</dc:format>
    <dc:type rdf:resource="http://purl.org/dc/dcmitype/StillImage"/>
    <dc:title/>
   </cc:Work>
  </rdf:RDF>
 </metadata>
 <g transform="translate(14.494 225.72)" fill="#e00000">
  <circle cx="35.302" cy="419.18" r="4.9153"/>
  <circle cx="38.718" cy="402.33" r="4.9153"/>
  <circle cx="41.793" cy="391.28" r="4.9153"/>
  <circle cx="43.387" cy="378.07" r="4.9153"/>
  <circle cx="42.135" cy="365.32" r="4.9153"/>
  <circle cx="39.743" cy="349.26" r="4.9153"/>
  <circle cx="38.149" cy="335.03" r="4.9153"/>
  <circle cx="33.48" cy="319.43" r="4.9153"/>
  <circle cx="38.263" cy="306.22" r="4.9153"/>
  <circle cx="35.644" cy="293.58" r="4.9153"/>
  <circle cx="38.604" cy="279.68" r="4.9153"/>
  <circle cx="41.224" cy="265.11" r="4.9153"/>
  <circle cx="44.64" cy="251.33" r="4.9153"/>
  <circle cx="42.818" cy="235.27" r="4.9153"/>
  <circle cx="41.11" cy="219.56" r="4.9153"/>
  <circle cx="44.298" cy="203.95" r="4.9153"/>
  <circle cx="42.135" cy="186.76" r="4.9153"/>
  <circle cx="38.49" cy="171.73" r="4.9153"/>
  <circle cx="40.199" cy="156.47" r="4.9153"/>
  <circle cx="36.668" cy="140.75" r="4.9153"/>
  <circle cx="30.633" cy="127.43" r="4.9153"/>
  <circle cx="28.355" cy="116.5" r="4.9153"/>
  <circle cx="23.459" cy="102.03" r="4.9153"/>
  <circle cx="27.786" cy="87.344" r="4.9153"/>
  <circle cx="30.519" cy="72.881" r="4.9153"/>
  <circle cx="34.163" cy="62.405" r="4.9153"/>
  <circle cx="32.569" cy="48.512" r="4.9153"/>
  <circle cx="33.935" cy="35.53" r="4.9153"/>
  <circle cx="38.604" cy="26.647" r="4.9153"/>
  <circle cx="41.11" cy="10.477" r="4.9153"/>
 </g>
</svg>
