<?xml version="1.0" encoding="UTF-8"?>
<!-- Created with Inkscape (http://www.inkscape.org/) -->
<svg width="100" height="650" version="1.1" viewBox="0 0 100 650" xmlns="http://www.w3.org/2000/svg" xmlns:cc="http://creativecommons.org/ns#" xmlns:dc="http://purl.org/dc/elements/1.1/" xmlns:rdf="http://www.w3.org/1999/02/22-rdf-syntax-ns#">
 <metadata>
  <rdf:RDF>
   <cc:Work rdf:about="">
    <dc:format>image/svg+xml</dc:format>
    <dc:type rdf:resource="http://purl.org/dc/dcmitype/StillImage"/>
    <dc:title/>
   </cc:Work>
  </rdf:RDF>
 </metadata>
 <g transform="translate(7.34 191.51)" fill="#e00000">
  <circle cx="42.429" cy="453.47" r="4.9153"/>
  <circle cx="40.817" cy="436.11" r="4.9153"/>
  <circle cx="39.206" cy="427.69" r="4.9153"/>
  <circle cx="41.892" cy="417.49" r="4.9153"/>
  <circle cx="39.206" cy="403.17" r="4.9153"/>
  <circle cx="43.861" cy="388.13" r="4.9153"/>
  <circle cx="41.175" cy="372.02" r="4.9153"/>
  <circle cx="43.324" cy="358.41" r="4.9153"/>
  <circle cx="40.817" cy="343.37" r="4.9153"/>
  <circle cx="42.966" cy="329.95" r="4.9153"/>
  <circle cx="48.694" cy="315.27" r="4.9153"/>
  <circle cx="45.651" cy="301.48" r="4.9153"/>
  <circle cx="41.534" cy="285.01" r="4.9153"/>
  <circle cx="37.774" cy="270.87" r="4.9153"/>
  <circle cx="30.434" cy="258.16" r="4.9153"/>
  <circle cx="33.298" cy="241.15" r="4.9153"/>
  <circle cx="37.058" cy="224.14" r="4.9153"/>
  <circle cx="32.94" cy="213.76" r="4.9153"/>
  <circle cx="37.237" cy="194.96" r="4.9153"/>
  <circle cx="33.298" cy="180.46" r="4.9153"/>
  <circle cx="40.459" cy="164.17" r="4.9153"/>
  <circle cx="43.861" cy="147.88" r="4.9153"/>
  <circle cx="49.232" cy="135.53" r="4.9153"/>
  <circle cx="47.083" cy="118.7" r="4.9153"/>
  <circle cx="51.559" cy="103.12" r="4.9153"/>
  <circle cx="49.411" cy="85.58" r="4.9153"/>
  <circle cx="41.534" cy="69.826" r="4.9153"/>
  <circle cx="45.83" cy="52.46" r="4.9153"/>
  <circle cx="48.336" cy="35.99" r="4.9153"/>
  <circle cx="43.861" cy="20.773" r="4.9153"/>
 </g>
</svg>
