<?xml version="1.0" encoding="UTF-8"?>
<!-- Created with Inkscape (http://www.inkscape.org/) -->
<svg width="100" height="650" version="1.1" viewBox="0 0 100 650" xmlns="http://www.w3.org/2000/svg" xmlns:cc="http://creativecommons.org/ns#" xmlns:dc="http://purl.org/dc/elements/1.1/" xmlns:rdf="http://www.w3.org/1999/02/22-rdf-syntax-ns#">
 <metadata>
  <rdf:RDF>
   <cc:Work rdf:about="">
    <dc:format>image/svg+xml</dc:format>
    <dc:type rdf:resource="http://purl.org/dc/dcmitype/StillImage"/>
    <dc:title/>
   </cc:Work>
  </rdf:RDF>
 </metadata>
 <g transform="translate(-.8528 170.15)" fill="#e00000">
  <circle cx="50.922" cy="474.51" r="4.9153"/>
  <circle cx="51.726" cy="461.78" r="4.9153"/>
  <circle cx="52.932" cy="452" r="4.9153"/>
  <circle cx="58.694" cy="438.6" r="4.9153"/>
  <circle cx="62.312" cy="423.45" r="4.9153"/>
  <circle cx="67.404" cy="408.18" r="4.9153"/>
  <circle cx="64.992" cy="392.5" r="4.9153"/>
  <circle cx="61.508" cy="376.95" r="4.9153"/>
  <circle cx="55.076" cy="360.07" r="4.9153"/>
  <circle cx="47.035" cy="342.25" r="4.9153"/>
  <circle cx="41.943" cy="326.7" r="4.9153"/>
  <circle cx="46.767" cy="312.23" r="4.9153"/>
  <circle cx="45.159" cy="296.28" r="4.9153"/>
  <circle cx="40.201" cy="278.46" r="4.9153"/>
  <circle cx="45.427" cy="262.25" r="4.9153"/>
  <circle cx="43.953" cy="246.03" r="4.9153"/>
  <circle cx="39.933" cy="229.28" r="4.9153"/>
  <circle cx="33.367" cy="213.74" r="4.9153"/>
  <circle cx="34.305" cy="197.39" r="4.9153"/>
  <circle cx="37.923" cy="182.25" r="4.9153"/>
  <circle cx="43.283" cy="167.1" r="4.9153"/>
  <circle cx="39.397" cy="152.76" r="4.9153"/>
  <circle cx="43.685" cy="139.23" r="4.9153"/>
  <circle cx="48.108" cy="123.82" r="4.9153"/>
  <circle cx="46.499" cy="104.26" r="4.9153"/>
  <circle cx="42.211" cy="89.381" r="4.9153"/>
  <circle cx="45.293" cy="74.64" r="4.9153"/>
  <circle cx="42.211" cy="59.632" r="4.9153"/>
  <circle cx="40.201" cy="42.345" r="4.9153"/>
  <circle cx="42.077" cy="23.317" r="4.9153"/>
 </g>
</svg>
