<?xml version="1.0" encoding="UTF-8"?>
<!-- Created with Inkscape (http://www.inkscape.org/) -->
<svg width="100" height="650" version="1.1" viewBox="0 0 100 650" xmlns="http://www.w3.org/2000/svg" xmlns:cc="http://creativecommons.org/ns#" xmlns:dc="http://purl.org/dc/elements/1.1/" xmlns:rdf="http://www.w3.org/1999/02/22-rdf-syntax-ns#">
 <metadata>
  <rdf:RDF>
   <cc:Work rdf:about="">
    <dc:format>image/svg+xml</dc:format>
    <dc:type rdf:resource="http://purl.org/dc/dcmitype/StillImage"/>
    <dc:title/>
   </cc:Work>
  </rdf:RDF>
 </metadata>
 <g transform="translate(-6.1243 233.8)" fill="#e00000">
  <circle cx="55.706" cy="411.09" r="4.9153"/>
  <circle cx="54.531" cy="393.3" r="4.9153"/>
  <circle cx="53.021" cy="383.74" r="4.9153"/>
  <circle cx="47.652" cy="371.32" r="4.9153"/>
  <circle cx="42.45" cy="358.07" r="4.9153"/>
  <circle cx="39.934" cy="342.8" r="4.9153"/>
  <circle cx="44.464" cy="328.37" r="4.9153"/>
  <circle cx="43.289" cy="315.28" r="4.9153"/>
  <circle cx="39.934" cy="302.36" r="4.9153"/>
  <circle cx="33.222" cy="287.76" r="4.9153"/>
  <circle cx="35.235" cy="274.51" r="4.9153"/>
  <circle cx="42.618" cy="262.76" r="4.9153"/>
  <circle cx="46.645" cy="252.02" r="4.9153"/>
  <circle cx="43.96" cy="238.94" r="4.9153"/>
  <circle cx="45.806" cy="229.04" r="4.9153"/>
  <circle cx="39.262" cy="218.3" r="4.9153"/>
  <circle cx="42.786" cy="204.88" r="4.9153"/>
  <circle cx="46.981" cy="190.95" r="4.9153"/>
  <circle cx="51.343" cy="177.19" r="4.9153"/>
  <circle cx="54.867" cy="163.26" r="4.9153"/>
  <circle cx="52.685" cy="151.69" r="4.9153"/>
  <circle cx="46.31" cy="137.26" r="4.9153"/>
  <circle cx="51.847" cy="124.17" r="4.9153"/>
  <circle cx="50.169" cy="108.4" r="4.9153"/>
  <circle cx="46.813" cy="93.632" r="4.9153"/>
  <circle cx="51.008" cy="79.37" r="4.9153"/>
  <circle cx="45.638" cy="66.786" r="4.9153"/>
  <circle cx="48.826" cy="53.866" r="4.9153"/>
  <circle cx="52.853" cy="42.288" r="4.9153"/>
  <circle cx="58.39" cy="26.684" r="4.9153"/>
 </g>
</svg>
