<?xml version="1.0" encoding="UTF-8"?>
<!-- Created with Inkscape (http://www.inkscape.org/) -->
<svg width="100" height="650" version="1.1" viewBox="0 0 100 650" xmlns="http://www.w3.org/2000/svg" xmlns:cc="http://creativecommons.org/ns#" xmlns:dc="http://purl.org/dc/elements/1.1/" xmlns:rdf="http://www.w3.org/1999/02/22-rdf-syntax-ns#">
 <metadata>
  <rdf:RDF>
   <cc:Work rdf:about="">
    <dc:format>image/svg+xml</dc:format>
    <dc:type rdf:resource="http://purl.org/dc/dcmitype/StillImage"/>
    <dc:title/>
   </cc:Work>
  </rdf:RDF>
 </metadata>
 <g transform="translate(20.932 258.65)" fill="#e00000">
  <circle cx="28.972" cy="386.34" r="4.9153"/>
  <circle cx="30.792" cy="371.33" r="4.9153"/>
  <circle cx="28.668" cy="362.07" r="4.9153"/>
  <circle cx="25.179" cy="351.76" r="4.9153"/>
  <circle cx="28.516" cy="341.44" r="4.9153"/>
  <circle cx="31.702" cy="329.16" r="4.9153"/>
  <circle cx="29.882" cy="319" r="4.9153"/>
  <circle cx="33.977" cy="306.86" r="4.9153"/>
  <circle cx="30.943" cy="294.42" r="4.9153"/>
  <circle cx="32.915" cy="283.8" r="4.9153"/>
  <circle cx="30.337" cy="270.31" r="4.9153"/>
  <circle cx="27.455" cy="256.65" r="4.9153"/>
  <circle cx="32.764" cy="240.88" r="4.9153"/>
  <circle cx="35.646" cy="228.74" r="4.9153"/>
  <circle cx="35.191" cy="216.15" r="4.9153"/>
  <circle cx="36.859" cy="200.99" r="4.9153"/>
  <circle cx="34.129" cy="190.06" r="4.9153"/>
  <circle cx="37.921" cy="175.05" r="4.9153"/>
  <circle cx="39.438" cy="161.7" r="4.9153"/>
  <circle cx="38.528" cy="148.66" r="4.9153"/>
  <circle cx="39.893" cy="136.98" r="4.9153"/>
  <circle cx="36.859" cy="124.23" r="4.9153"/>
  <circle cx="34.129" cy="110.28" r="4.9153"/>
  <circle cx="38.528" cy="98.903" r="4.9153"/>
  <circle cx="41.713" cy="84.948" r="4.9153"/>
  <circle cx="39.134" cy="71.145" r="4.9153"/>
  <circle cx="42.32" cy="58.858" r="4.9153"/>
  <circle cx="37.769" cy="45.055" r="4.9153"/>
  <circle cx="42.926" cy="31.1" r="4.9153"/>
  <circle cx="47.174" cy="18.359" r="4.9153"/>
 </g>
</svg>
