<?xml version="1.0" encoding="UTF-8"?>
<!-- Created with Inkscape (http://www.inkscape.org/) -->
<svg width="100" height="650" version="1.1" viewBox="0 0 100 650" xmlns="http://www.w3.org/2000/svg" xmlns:cc="http://creativecommons.org/ns#" xmlns:dc="http://purl.org/dc/elements/1.1/" xmlns:rdf="http://www.w3.org/1999/02/22-rdf-syntax-ns#">
 <metadata>
  <rdf:RDF>
   <cc:Work rdf:about="">
    <dc:format>image/svg+xml</dc:format>
    <dc:type rdf:resource="http://purl.org/dc/dcmitype/StillImage"/>
    <dc:title/>
   </cc:Work>
  </rdf:RDF>
 </metadata>
 <g transform="translate(23.95 216.23)" fill="#e00000">
  <circle cx="24.182" cy="428.54" r="4.9153"/>
  <circle cx="23.368" cy="408.89" r="4.9153"/>
  <circle cx="25.112" cy="402.26" r="4.9153"/>
  <circle cx="29.298" cy="392.03" r="4.9153"/>
  <circle cx="27.089" cy="380.29" r="4.9153"/>
  <circle cx="29.879" cy="367.62" r="4.9153"/>
  <circle cx="34.064" cy="355.99" r="4.9153"/>
  <circle cx="37.785" cy="343.9" r="4.9153"/>
  <circle cx="41.621" cy="331.11" r="4.9153"/>
  <circle cx="39.296" cy="315.53" r="4.9153"/>
  <circle cx="43.714" cy="301.23" r="4.9153"/>
  <circle cx="42.086" cy="287.4" r="4.9153"/>
  <circle cx="36.041" cy="274.96" r="4.9153"/>
  <circle cx="32.088" cy="262.75" r="4.9153"/>
  <circle cx="34.413" cy="248.33" r="4.9153"/>
  <circle cx="38.017" cy="236.13" r="4.9153"/>
  <circle cx="34.413" cy="221.83" r="4.9153"/>
  <circle cx="30.111" cy="207.99" r="4.9153"/>
  <circle cx="31.855" cy="193.46" r="4.9153"/>
  <circle cx="36.157" cy="179.86" r="4.9153"/>
  <circle cx="35.227" cy="166.37" r="4.9153"/>
  <circle cx="36.273" cy="151.14" r="4.9153"/>
  <circle cx="35.459" cy="136.95" r="4.9153"/>
  <circle cx="36.855" cy="121.72" r="4.9153"/>
  <circle cx="35.227" cy="103.36" r="4.9153"/>
  <circle cx="28.484" cy="86.73" r="4.9153"/>
  <circle cx="23.485" cy="70.919" r="4.9153"/>
  <circle cx="27.67" cy="55.689" r="4.9153"/>
  <circle cx="32.204" cy="37.436" r="4.9153"/>
  <circle cx="29.53" cy="19.764" r="4.9153"/>
 </g>
</svg>
