<?xml version="1.0" encoding="UTF-8"?>
<!-- Created with Inkscape (http://www.inkscape.org/) -->
<svg width="100" height="650" version="1.1" viewBox="0 0 100 650" xmlns="http://www.w3.org/2000/svg" xmlns:cc="http://creativecommons.org/ns#" xmlns:dc="http://purl.org/dc/elements/1.1/" xmlns:rdf="http://www.w3.org/1999/02/22-rdf-syntax-ns#">
 <metadata>
  <rdf:RDF>
   <cc:Work rdf:about="">
    <dc:format>image/svg+xml</dc:format>
    <dc:type rdf:resource="http://purl.org/dc/dcmitype/StillImage"/>
    <dc:title/>
   </cc:Work>
  </rdf:RDF>
 </metadata>
 <g transform="translate(14.883 226.85)" fill="#e00000">
  <circle cx="35.027" cy="417.99" r="4.9153"/>
  <circle cx="36.232" cy="396.22" r="4.9153"/>
  <circle cx="39.204" cy="386.26" r="4.9153"/>
  <circle cx="39.204" cy="373.65" r="4.9153"/>
  <circle cx="35.348" cy="360.88" r="4.9153"/>
  <circle cx="30.849" cy="347.7" r="4.9153"/>
  <circle cx="34.062" cy="332.6" r="4.9153"/>
  <circle cx="38.24" cy="316.85" r="4.9153"/>
  <circle cx="35.669" cy="302.39" r="4.9153"/>
  <circle cx="38.883" cy="287.93" r="4.9153"/>
  <circle cx="44.667" cy="272.51" r="4.9153"/>
  <circle cx="40.168" cy="258.69" r="4.9153"/>
  <circle cx="37.597" cy="245.83" r="4.9153"/>
  <circle cx="39.847" cy="231.37" r="4.9153"/>
  <circle cx="43.381" cy="216.59" r="4.9153"/>
  <circle cx="41.132" cy="201.81" r="4.9153"/>
  <circle cx="38.883" cy="188.63" r="4.9153"/>
  <circle cx="41.132" cy="175.78" r="4.9153"/>
  <circle cx="44.345" cy="163.25" r="4.9153"/>
  <circle cx="48.523" cy="149.43" r="4.9153"/>
  <circle cx="46.595" cy="139.47" r="4.9153"/>
  <circle cx="47.559" cy="127.9" r="4.9153"/>
  <circle cx="54.307" cy="112.8" r="4.9153"/>
  <circle cx="57.842" cy="98.98" r="4.9153"/>
  <circle cx="56.235" cy="86.126" r="4.9153"/>
  <circle cx="52.379" cy="75.522" r="4.9153"/>
  <circle cx="50.13" cy="57.848" r="4.9153"/>
  <circle cx="44.667" cy="43.066" r="4.9153"/>
  <circle cx="46.916" cy="29.891" r="4.9153"/>
  <circle cx="51.415" cy="13.181" r="4.9153"/>
 </g>
</svg>
