<?xml version="1.0" encoding="UTF-8"?>
<!-- Created with Inkscape (http://www.inkscape.org/) -->
<svg width="100" height="650" version="1.1" viewBox="0 0 100 650" xmlns="http://www.w3.org/2000/svg" xmlns:cc="http://creativecommons.org/ns#" xmlns:dc="http://purl.org/dc/elements/1.1/" xmlns:rdf="http://www.w3.org/1999/02/22-rdf-syntax-ns#">
 <metadata>
  <rdf:RDF>
   <cc:Work rdf:about="">
    <dc:format>image/svg+xml</dc:format>
    <dc:type rdf:resource="http://purl.org/dc/dcmitype/StillImage"/>
    <dc:title/>
   </cc:Work>
  </rdf:RDF>
 </metadata>
 <g transform="translate(14.378 216.55)" fill="#e00000">
  <circle cx="35.355" cy="428.27" r="4.9153"/>
  <circle cx="36.533" cy="412.94" r="4.9153"/>
  <circle cx="39.244" cy="405.17" r="4.9153"/>
  <circle cx="38.537" cy="393.85" r="4.9153"/>
  <circle cx="36.298" cy="379.95" r="4.9153"/>
  <circle cx="31.937" cy="367.1" r="4.9153"/>
  <circle cx="33.351" cy="352.02" r="4.9153"/>
  <circle cx="37.83" cy="338.94" r="4.9153"/>
  <circle cx="42.897" cy="322.91" r="4.9153"/>
  <circle cx="45.961" cy="309.24" r="4.9153"/>
  <circle cx="50.322" cy="294.15" r="4.9153"/>
  <circle cx="47.847" cy="279.77" r="4.9153"/>
  <circle cx="50.675" cy="266.46" r="4.9153"/>
  <circle cx="48.672" cy="251.73" r="4.9153"/>
  <circle cx="45.136" cy="238.17" r="4.9153"/>
  <circle cx="38.773" cy="224.03" r="4.9153"/>
  <circle cx="43.369" cy="209.65" r="4.9153"/>
  <circle cx="41.601" cy="195.39" r="4.9153"/>
  <circle cx="35.944" cy="177.36" r="4.9153"/>
  <circle cx="40.894" cy="163.69" r="4.9153"/>
  <circle cx="37.83" cy="148.25" r="4.9153"/>
  <circle cx="33.587" cy="135.29" r="4.9153"/>
  <circle cx="31.702" cy="119.03" r="4.9153"/>
  <circle cx="27.105" cy="103.12" r="4.9153"/>
  <circle cx="21.566" cy="89.33" r="4.9153"/>
  <circle cx="24.866" cy="72.831" r="4.9153"/>
  <circle cx="22.509" cy="55.743" r="4.9153"/>
  <circle cx="18.149" cy="42.662" r="4.9153"/>
  <circle cx="23.923" cy="25.927" r="4.9153"/>
  <circle cx="18.149" cy="15.203" r="4.9153"/>
 </g>
</svg>
