<?xml version="1.0" encoding="UTF-8"?>
<!-- Created with Inkscape (http://www.inkscape.org/) -->
<svg width="100" height="650" version="1.1" viewBox="0 0 100 650" xmlns="http://www.w3.org/2000/svg" xmlns:cc="http://creativecommons.org/ns#" xmlns:dc="http://purl.org/dc/elements/1.1/" xmlns:rdf="http://www.w3.org/1999/02/22-rdf-syntax-ns#">
 <metadata>
  <rdf:RDF>
   <cc:Work rdf:about="">
    <dc:format>image/svg+xml</dc:format>
    <dc:type rdf:resource="http://purl.org/dc/dcmitype/StillImage"/>
    <dc:title/>
   </cc:Work>
  </rdf:RDF>
 </metadata>
 <g transform="translate(20.772 229.3)" fill="#e00000">
  <circle cx="29.129" cy="415.61" r="4.9153"/>
  <circle cx="27.696" cy="406.7" r="4.9153"/>
  <circle cx="30.88" cy="401.28" r="4.9153"/>
  <circle cx="27.537" cy="389.35" r="4.9153"/>
  <circle cx="31.198" cy="376.45" r="4.9153"/>
  <circle cx="33.586" cy="361.49" r="4.9153"/>
  <circle cx="32.153" cy="350.03" r="4.9153"/>
  <circle cx="33.904" cy="335.39" r="4.9153"/>
  <circle cx="32.471" cy="321.22" r="4.9153"/>
  <circle cx="28.492" cy="309.76" r="4.9153"/>
  <circle cx="25.468" cy="293.68" r="4.9153"/>
  <circle cx="26.582" cy="280.31" r="4.9153"/>
  <circle cx="22.762" cy="268.53" r="4.9153"/>
  <circle cx="17.032" cy="251.82" r="4.9153"/>
  <circle cx="19.897" cy="240.2" r="4.9153"/>
  <circle cx="24.672" cy="227.15" r="4.9153"/>
  <circle cx="21.966" cy="212.18" r="4.9153"/>
  <circle cx="15.917" cy="199.29" r="4.9153"/>
  <circle cx="12.893" cy="186.56" r="4.9153"/>
  <circle cx="15.758" cy="169.37" r="4.9153"/>
  <circle cx="20.056" cy="153.61" r="4.9153"/>
  <circle cx="17.509" cy="141.83" r="4.9153"/>
  <circle cx="17.509" cy="126.23" r="4.9153"/>
  <circle cx="21.807" cy="111.11" r="4.9153"/>
  <circle cx="19.738" cy="97.579" r="4.9153"/>
  <circle cx="17.191" cy="81.98" r="4.9153"/>
  <circle cx="18.146" cy="64.312" r="4.9153"/>
  <circle cx="24.513" cy="49.509" r="4.9153"/>
  <circle cx="27.537" cy="34.069" r="4.9153"/>
  <circle cx="23.08" cy="19.584" r="4.9153"/>
 </g>
</svg>
