<?xml version="1.0" encoding="UTF-8"?>
<!-- Created with Inkscape (http://www.inkscape.org/) -->
<svg width="100" height="650" version="1.1" viewBox="0 0 100 650" xmlns="http://www.w3.org/2000/svg" xmlns:cc="http://creativecommons.org/ns#" xmlns:dc="http://purl.org/dc/elements/1.1/" xmlns:rdf="http://www.w3.org/1999/02/22-rdf-syntax-ns#">
 <metadata>
  <rdf:RDF>
   <cc:Work rdf:about="">
    <dc:format>image/svg+xml</dc:format>
    <dc:type rdf:resource="http://purl.org/dc/dcmitype/StillImage"/>
    <dc:title/>
   </cc:Work>
  </rdf:RDF>
 </metadata>
 <g transform="translate(21.717 205.91)" fill="#e00000">
  <circle cx="28.193" cy="439.08" r="4.9153"/>
  <circle cx="26.993" cy="417.01" r="4.9153"/>
  <circle cx="24.114" cy="406.93" r="4.9153"/>
  <circle cx="26.033" cy="392.18" r="4.9153"/>
  <circle cx="28.193" cy="377.06" r="4.9153"/>
  <circle cx="31.432" cy="363.14" r="4.9153"/>
  <circle cx="29.272" cy="348.51" r="4.9153"/>
  <circle cx="31.432" cy="331.95" r="4.9153"/>
  <circle cx="30.352" cy="315.16" r="4.9153"/>
  <circle cx="31.312" cy="299.92" r="4.9153"/>
  <circle cx="35.151" cy="285.76" r="4.9153"/>
  <circle cx="31.672" cy="269.09" r="4.9153"/>
  <circle cx="34.671" cy="256.37" r="4.9153"/>
  <circle cx="38.27" cy="241.98" r="4.9153"/>
  <circle cx="34.551" cy="227.46" r="4.9153"/>
  <circle cx="38.03" cy="215.82" r="4.9153"/>
  <circle cx="34.791" cy="202.03" r="4.9153"/>
  <circle cx="31.912" cy="192.07" r="4.9153"/>
  <circle cx="35.031" cy="179.47" r="4.9153"/>
  <circle cx="31.432" cy="164.96" r="4.9153"/>
  <circle cx="32.871" cy="150.2" r="4.9153"/>
  <circle cx="29.872" cy="138.32" r="4.9153"/>
  <circle cx="28.792" cy="123.93" r="4.9153"/>
  <circle cx="30.352" cy="110.97" r="4.9153"/>
  <circle cx="28.312" cy="93.575" r="4.9153"/>
  <circle cx="30.712" cy="79.299" r="4.9153"/>
  <circle cx="26.633" cy="62.623" r="4.9153"/>
  <circle cx="31.192" cy="51.106" r="4.9153"/>
  <circle cx="34.191" cy="35.391" r="4.9153"/>
  <circle cx="36.23" cy="18.235" r="4.9153"/>
 </g>
</svg>
