<?xml version="1.0" encoding="UTF-8"?>
<!-- Created with Inkscape (http://www.inkscape.org/) -->
<svg width="100" height="650" version="1.1" viewBox="0 0 100 650" xmlns="http://www.w3.org/2000/svg" xmlns:cc="http://creativecommons.org/ns#" xmlns:dc="http://purl.org/dc/elements/1.1/" xmlns:rdf="http://www.w3.org/1999/02/22-rdf-syntax-ns#">
 <metadata>
  <rdf:RDF>
   <cc:Work rdf:about="">
    <dc:format>image/svg+xml</dc:format>
    <dc:type rdf:resource="http://purl.org/dc/dcmitype/StillImage"/>
    <dc:title/>
   </cc:Work>
  </rdf:RDF>
 </metadata>
 <g transform="translate(-3.0916 208.61)" fill="#e00000">
  <circle cx="52.971" cy="436.39" r="4.9153"/>
  <circle cx="56.166" cy="413.01" r="4.9153"/>
  <circle cx="59.53" cy="400.91" r="4.9153"/>
  <circle cx="56.334" cy="386.95" r="4.9153"/>
  <circle cx="52.971" cy="370.13" r="4.9153"/>
  <circle cx="55.998" cy="353.32" r="4.9153"/>
  <circle cx="52.299" cy="337.51" r="4.9153"/>
  <circle cx="54.485" cy="323.55" r="4.9153"/>
  <circle cx="52.635" cy="308.58" r="4.9153"/>
  <circle cx="54.821" cy="293.79" r="4.9153"/>
  <circle cx="50.281" cy="281.85" r="4.9153"/>
  <circle cx="45.74" cy="268.73" r="4.9153"/>
  <circle cx="42.377" cy="256.96" r="4.9153"/>
  <circle cx="40.023" cy="243.34" r="4.9153"/>
  <circle cx="42.041" cy="230.39" r="4.9153"/>
  <circle cx="39.518" cy="220.13" r="4.9153"/>
  <circle cx="42.377" cy="211.55" r="4.9153"/>
  <circle cx="41.032" cy="196.08" r="4.9153"/>
  <circle cx="37.5" cy="184.48" r="4.9153"/>
  <circle cx="33.296" cy="168.34" r="4.9153"/>
  <circle cx="38.341" cy="155.56" r="4.9153"/>
  <circle cx="34.473" cy="140.09" r="4.9153"/>
  <circle cx="29.092" cy="127.3" r="4.9153"/>
  <circle cx="32.119" cy="115.53" r="4.9153"/>
  <circle cx="36.659" cy="99.558" r="4.9153"/>
  <circle cx="39.855" cy="85.096" r="4.9153"/>
  <circle cx="42.881" cy="70.971" r="4.9153"/>
  <circle cx="40.023" cy="54.322" r="4.9153"/>
  <circle cx="44.227" cy="42.551" r="4.9153"/>
  <circle cx="47.59" cy="27.585" r="4.9153"/>
 </g>
</svg>
