<?xml version="1.0" encoding="UTF-8"?>
<!-- Created with Inkscape (http://www.inkscape.org/) -->
<svg width="100" height="650" version="1.1" viewBox="0 0 100 650" xmlns="http://www.w3.org/2000/svg" xmlns:cc="http://creativecommons.org/ns#" xmlns:dc="http://purl.org/dc/elements/1.1/" xmlns:rdf="http://www.w3.org/1999/02/22-rdf-syntax-ns#">
 <metadata>
  <rdf:RDF>
   <cc:Work rdf:about="">
    <dc:format>image/svg+xml</dc:format>
    <dc:type rdf:resource="http://purl.org/dc/dcmitype/StillImage"/>
    <dc:title/>
   </cc:Work>
  </rdf:RDF>
 </metadata>
 <g transform="translate(-10.38 181.99)" fill="#e00000">
  <circle cx="60.114" cy="462.86" r="4.9153"/>
  <circle cx="63.544" cy="446.62" r="4.9153"/>
  <circle cx="59.572" cy="437.41" r="4.9153"/>
  <circle cx="56.142" cy="423.51" r="4.9153"/>
  <circle cx="50.005" cy="407.62" r="4.9153"/>
  <circle cx="54.518" cy="391.92" r="4.9153"/>
  <circle cx="53.615" cy="376.94" r="4.9153"/>
  <circle cx="49.463" cy="362.49" r="4.9153"/>
  <circle cx="43.506" cy="346.97" r="4.9153"/>
  <circle cx="37.368" cy="333.25" r="4.9153"/>
  <circle cx="32.133" cy="316.46" r="4.9153"/>
  <circle cx="24.37" cy="300.94" r="4.9153"/>
  <circle cx="27.8" cy="288.3" r="4.9153"/>
  <circle cx="31.591" cy="273.86" r="4.9153"/>
  <circle cx="36.465" cy="259.42" r="4.9153"/>
  <circle cx="35.743" cy="243.53" r="4.9153"/>
  <circle cx="40.437" cy="230.53" r="4.9153"/>
  <circle cx="37.007" cy="216.45" r="4.9153"/>
  <circle cx="40.076" cy="200.57" r="4.9153"/>
  <circle cx="36.465" cy="186.12" r="4.9153"/>
  <circle cx="33.577" cy="170.78" r="4.9153"/>
  <circle cx="36.285" cy="153.81" r="4.9153"/>
  <circle cx="31.05" cy="137.74" r="4.9153"/>
  <circle cx="32.313" cy="123.12" r="4.9153"/>
  <circle cx="29.967" cy="106.15" r="4.9153"/>
  <circle cx="33.216" cy="90.809" r="4.9153"/>
  <circle cx="35.743" cy="73.298" r="4.9153"/>
  <circle cx="40.978" cy="57.051" r="4.9153"/>
  <circle cx="38.632" cy="38.819" r="4.9153"/>
  <circle cx="41.52" cy="22.03" r="4.9153"/>
 </g>
</svg>
