<?xml version="1.0" encoding="UTF-8"?>
<!-- Created with Inkscape (http://www.inkscape.org/) -->
<svg width="100" height="650" version="1.1" viewBox="0 0 100 650" xmlns="http://www.w3.org/2000/svg" xmlns:cc="http://creativecommons.org/ns#" xmlns:dc="http://purl.org/dc/elements/1.1/" xmlns:rdf="http://www.w3.org/1999/02/22-rdf-syntax-ns#">
 <metadata>
  <rdf:RDF>
   <cc:Work rdf:about="">
    <dc:format>image/svg+xml</dc:format>
    <dc:type rdf:resource="http://purl.org/dc/dcmitype/StillImage"/>
    <dc:title/>
   </cc:Work>
  </rdf:RDF>
 </metadata>
 <g transform="translate(-4.1295 165.52)" fill="#e00000">
  <circle cx="53.69" cy="479.45" r="4.9153"/>
  <circle cx="53.125" cy="459.48" r="4.9153"/>
  <circle cx="50.299" cy="447.61" r="4.9153"/>
  <circle cx="48.227" cy="435.93" r="4.9153"/>
  <circle cx="45.59" cy="419.36" r="4.9153"/>
  <circle cx="48.039" cy="403.91" r="4.9153"/>
  <circle cx="52.183" cy="389.78" r="4.9153"/>
  <circle cx="46.155" cy="373.77" r="4.9153"/>
  <circle cx="43.141" cy="360.39" r="4.9153"/>
  <circle cx="38.054" cy="344.57" r="4.9153"/>
  <circle cx="40.315" cy="329.5" r="4.9153"/>
  <circle cx="44.648" cy="311.41" r="4.9153"/>
  <circle cx="49.357" cy="295.4" r="4.9153"/>
  <circle cx="52.937" cy="280.7" r="4.9153"/>
  <circle cx="56.139" cy="268.08" r="4.9153"/>
  <circle cx="61.037" cy="252.26" r="4.9153"/>
  <circle cx="66.312" cy="238.69" r="4.9153"/>
  <circle cx="73.094" cy="224.75" r="4.9153"/>
  <circle cx="69.703" cy="206.48" r="4.9153"/>
  <circle cx="64.052" cy="192.54" r="4.9153"/>
  <circle cx="67.819" cy="175.96" r="4.9153"/>
  <circle cx="74.601" cy="159.76" r="4.9153"/>
  <circle cx="78.557" cy="143.37" r="4.9153"/>
  <circle cx="82.325" cy="125.85" r="4.9153"/>
  <circle cx="87.223" cy="112.1" r="4.9153"/>
  <circle cx="91.368" cy="92.693" r="4.9153"/>
  <circle cx="87.977" cy="75.361" r="4.9153"/>
  <circle cx="84.963" cy="62.551" r="4.9153"/>
  <circle cx="80.064" cy="43.901" r="4.9153"/>
  <circle cx="81.195" cy="24.497" r="4.9153"/>
 </g>
</svg>
