<?xml version="1.0" encoding="UTF-8"?>
<!-- Created with Inkscape (http://www.inkscape.org/) -->
<svg width="100" height="650" version="1.1" viewBox="0 0 100 650" xmlns="http://www.w3.org/2000/svg" xmlns:cc="http://creativecommons.org/ns#" xmlns:dc="http://purl.org/dc/elements/1.1/" xmlns:rdf="http://www.w3.org/1999/02/22-rdf-syntax-ns#">
 <metadata>
  <rdf:RDF>
   <cc:Work rdf:about="">
    <dc:format>image/svg+xml</dc:format>
    <dc:type rdf:resource="http://purl.org/dc/dcmitype/StillImage"/>
    <dc:title/>
   </cc:Work>
  </rdf:RDF>
 </metadata>
 <g transform="translate(15.35 237.45)" fill="#e00000">
  <circle cx="34.292" cy="407.26" r="4.9153"/>
  <circle cx="34.292" cy="386.97" r="4.9153"/>
  <circle cx="32.247" cy="377.53" r="4.9153"/>
  <circle cx="32.719" cy="366.99" r="4.9153"/>
  <circle cx="30.674" cy="353.15" r="4.9153"/>
  <circle cx="26.741" cy="338.83" r="4.9153"/>
  <circle cx="21.55" cy="323.89" r="4.9153"/>
  <circle cx="23.123" cy="309.1" r="4.9153"/>
  <circle cx="21.708" cy="295.73" r="4.9153"/>
  <circle cx="24.539" cy="283.93" r="4.9153"/>
  <circle cx="26.427" cy="269.46" r="4.9153"/>
  <circle cx="29.415" cy="256.25" r="4.9153"/>
  <circle cx="33.662" cy="241.15" r="4.9153"/>
  <circle cx="38.067" cy="229.35" r="4.9153"/>
  <circle cx="42.629" cy="217.55" r="4.9153"/>
  <circle cx="39.483" cy="203.08" r="4.9153"/>
  <circle cx="44.516" cy="190.65" r="4.9153"/>
  <circle cx="41.37" cy="174.92" r="4.9153"/>
  <circle cx="44.044" cy="163.28" r="4.9153"/>
  <circle cx="42.471" cy="151.64" r="4.9153"/>
  <circle cx="36.494" cy="137.8" r="4.9153"/>
  <circle cx="30.202" cy="126.32" r="4.9153"/>
  <circle cx="24.854" cy="113.26" r="4.9153"/>
  <circle cx="21.236" cy="100.99" r="4.9153"/>
  <circle cx="15.887" cy="87.308" r="4.9153"/>
  <circle cx="20.449" cy="73.937" r="4.9153"/>
  <circle cx="25.483" cy="61.353" r="4.9153"/>
  <circle cx="24.224" cy="46.252" r="4.9153"/>
  <circle cx="19.348" cy="32.41" r="4.9153"/>
  <circle cx="22.179" cy="17.781" r="4.9153"/>
 </g>
</svg>
