<?xml version="1.0" encoding="UTF-8"?>
<!-- Created with Inkscape (http://www.inkscape.org/) -->
<svg width="100" height="650" version="1.1" viewBox="0 0 100 650" xmlns="http://www.w3.org/2000/svg" xmlns:cc="http://creativecommons.org/ns#" xmlns:dc="http://purl.org/dc/elements/1.1/" xmlns:rdf="http://www.w3.org/1999/02/22-rdf-syntax-ns#">
 <metadata>
  <rdf:RDF>
   <cc:Work rdf:about="">
    <dc:format>image/svg+xml</dc:format>
    <dc:type rdf:resource="http://purl.org/dc/dcmitype/StillImage"/>
    <dc:title/>
   </cc:Work>
  </rdf:RDF>
 </metadata>
 <g transform="translate(38.344 248.58)" fill="#e00000">
  <circle cx="11.698" cy="396.44" r="4.9153"/>
  <circle cx="13.648" cy="386.69" r="4.9153"/>
  <circle cx="16.247" cy="379.32" r="4.9153"/>
  <circle cx="18.414" cy="367.19" r="4.9153"/>
  <circle cx="16.031" cy="353.76" r="4.9153"/>
  <circle cx="19.064" cy="341.41" r="4.9153"/>
  <circle cx="16.681" cy="326.9" r="4.9153"/>
  <circle cx="12.998" cy="314.12" r="4.9153"/>
  <circle cx="16.031" cy="300.03" r="4.9153"/>
  <circle cx="19.713" cy="285.52" r="4.9153"/>
  <circle cx="23.18" cy="270.57" r="4.9153"/>
  <circle cx="26.646" cy="258.22" r="4.9153"/>
  <circle cx="22.313" cy="244.58" r="4.9153"/>
  <circle cx="26.212" cy="230.28" r="4.9153"/>
  <circle cx="21.663" cy="218.15" r="4.9153"/>
  <circle cx="22.096" cy="205.37" r="4.9153"/>
  <circle cx="26.646" cy="188.69" r="4.9153"/>
  <circle cx="24.696" cy="174.82" r="4.9153"/>
  <circle cx="27.945" cy="161.82" r="4.9153"/>
  <circle cx="24.479" cy="149.69" r="4.9153"/>
  <circle cx="22.096" cy="136.48" r="4.9153"/>
  <circle cx="25.129" cy="122.83" r="4.9153"/>
  <circle cx="30.328" cy="107.88" r="4.9153"/>
  <circle cx="28.379" cy="95.101" r="4.9153"/>
  <circle cx="31.628" cy="83.403" r="4.9153"/>
  <circle cx="37.261" cy="71.272" r="4.9153"/>
  <circle cx="42.893" cy="57.624" r="4.9153"/>
  <circle cx="49.825" cy="47.876" r="4.9153"/>
  <circle cx="47.009" cy="32.061" r="4.9153"/>
  <circle cx="50.258" cy="19.064" r="4.9153"/>
 </g>
</svg>
