<?xml version="1.0" encoding="UTF-8"?>
<!-- Created with Inkscape (http://www.inkscape.org/) -->
<svg width="100" height="650" version="1.1" viewBox="0 0 100 650" xmlns="http://www.w3.org/2000/svg" xmlns:cc="http://creativecommons.org/ns#" xmlns:dc="http://purl.org/dc/elements/1.1/" xmlns:rdf="http://www.w3.org/1999/02/22-rdf-syntax-ns#">
 <metadata>
  <rdf:RDF>
   <cc:Work rdf:about="">
    <dc:format>image/svg+xml</dc:format>
    <dc:type rdf:resource="http://purl.org/dc/dcmitype/StillImage"/>
    <dc:title/>
   </cc:Work>
  </rdf:RDF>
 </metadata>
 <g transform="translate(18.369 286.69)" fill="#e00000">
  <circle cx="31.201" cy="358.34" r="4.9153"/>
  <circle cx="35.05" cy="345.01" r="4.9153"/>
  <circle cx="33.676" cy="337.45" r="4.9153"/>
  <circle cx="30.652" cy="329.06" r="4.9153"/>
  <circle cx="26.391" cy="319.03" r="4.9153"/>
  <circle cx="24.466" cy="307.07" r="4.9153"/>
  <circle cx="20.48" cy="294.29" r="4.9153"/>
  <circle cx="16.494" cy="283.84" r="4.9153"/>
  <circle cx="19.93" cy="271.47" r="4.9153"/>
  <circle cx="24.054" cy="260.2" r="4.9153"/>
  <circle cx="27.49" cy="249.89" r="4.9153"/>
  <circle cx="24.054" cy="238.21" r="4.9153"/>
  <circle cx="29.964" cy="227.62" r="4.9153"/>
  <circle cx="34.5" cy="214.7" r="4.9153"/>
  <circle cx="31.889" cy="202.75" r="4.9153"/>
  <circle cx="27.215" cy="191.34" r="4.9153"/>
  <circle cx="31.201" cy="178.97" r="4.9153"/>
  <circle cx="34.225" cy="168.93" r="4.9153"/>
  <circle cx="37.387" cy="156.84" r="4.9153"/>
  <circle cx="42.472" cy="145.57" r="4.9153"/>
  <circle cx="46.871" cy="133.2" r="4.9153"/>
  <circle cx="42.885" cy="121.24" r="4.9153"/>
  <circle cx="40.548" cy="109.55" r="4.9153"/>
  <circle cx="35.875" cy="94.159" r="4.9153"/>
  <circle cx="29.415" cy="80.964" r="4.9153"/>
  <circle cx="24.191" cy="68.456" r="4.9153"/>
  <circle cx="26.391" cy="54.848" r="4.9153"/>
  <circle cx="30.377" cy="42.202" r="4.9153"/>
  <circle cx="26.94" cy="26.67" r="4.9153"/>
  <circle cx="29.964" cy="14.987" r="4.9153"/>
 </g>
</svg>
