<?xml version="1.0" encoding="UTF-8"?>
<!-- Created with Inkscape (http://www.inkscape.org/) -->
<svg width="100" height="650" version="1.1" viewBox="0 0 100 650" xmlns="http://www.w3.org/2000/svg" xmlns:cc="http://creativecommons.org/ns#" xmlns:dc="http://purl.org/dc/elements/1.1/" xmlns:rdf="http://www.w3.org/1999/02/22-rdf-syntax-ns#">
 <metadata>
  <rdf:RDF>
   <cc:Work rdf:about="">
    <dc:format>image/svg+xml</dc:format>
    <dc:type rdf:resource="http://purl.org/dc/dcmitype/StillImage"/>
    <dc:title/>
   </cc:Work>
  </rdf:RDF>
 </metadata>
 <g transform="translate(30.277 167.87)" fill="#e00000">
  <circle cx="11.355" cy="476.91" r="4.9153"/>
  <circle cx="10.989" cy="458.23" r="4.9153"/>
  <circle cx="7.1426" cy="447.24" r="4.9153"/>
  <circle cx="8.974" cy="434.42" r="4.9153"/>
  <circle cx="13.369" cy="419.41" r="4.9153"/>
  <circle cx="18.131" cy="403.11" r="4.9153"/>
  <circle cx="16.666" cy="387.72" r="4.9153"/>
  <circle cx="12.271" cy="371.06" r="4.9153"/>
  <circle cx="16.483" cy="355.85" r="4.9153"/>
  <circle cx="13.736" cy="339.92" r="4.9153"/>
  <circle cx="17.216" cy="325.27" r="4.9153"/>
  <circle cx="23.626" cy="310.25" r="4.9153"/>
  <circle cx="28.754" cy="294.87" r="4.9153"/>
  <circle cx="34.614" cy="280.95" r="4.9153"/>
  <circle cx="39.925" cy="261.9" r="4.9153"/>
  <circle cx="37.361" cy="245.24" r="4.9153"/>
  <circle cx="31.684" cy="228.02" r="4.9153"/>
  <circle cx="33.332" cy="209.34" r="4.9153"/>
  <circle cx="31.501" cy="194.14" r="4.9153"/>
  <circle cx="33.149" cy="179.49" r="4.9153"/>
  <circle cx="39.559" cy="161.72" r="4.9153"/>
  <circle cx="44.687" cy="147.44" r="4.9153"/>
  <circle cx="47.984" cy="132.42" r="4.9153"/>
  <circle cx="51.463" cy="115.39" r="4.9153"/>
  <circle cx="48.716" cy="102.2" r="4.9153"/>
  <circle cx="53.478" cy="86.267" r="4.9153"/>
  <circle cx="57.324" cy="71.249" r="4.9153"/>
  <circle cx="60.254" cy="54.034" r="4.9153"/>
  <circle cx="65.199" cy="37.917" r="4.9153"/>
  <circle cx="62.086" cy="20.702" r="4.9153"/>
 </g>
</svg>
