<?xml version="1.0" encoding="UTF-8"?>
<!-- Created with Inkscape (http://www.inkscape.org/) -->
<svg width="100" height="650" version="1.1" viewBox="0 0 100 650" xmlns="http://www.w3.org/2000/svg" xmlns:cc="http://creativecommons.org/ns#" xmlns:dc="http://purl.org/dc/elements/1.1/" xmlns:rdf="http://www.w3.org/1999/02/22-rdf-syntax-ns#">
 <metadata>
  <rdf:RDF>
   <cc:Work rdf:about="">
    <dc:format>image/svg+xml</dc:format>
    <dc:type rdf:resource="http://purl.org/dc/dcmitype/StillImage"/>
    <dc:title/>
   </cc:Work>
  </rdf:RDF>
 </metadata>
 <g transform="translate(2.8269 214.98)" fill="#e00000">
  <circle cx="47.034" cy="429.77" r="4.9153"/>
  <circle cx="45.74" cy="415.9" r="4.9153"/>
  <circle cx="43.506" cy="408.61" r="4.9153"/>
  <circle cx="39.861" cy="395.2" r="4.9153"/>
  <circle cx="37.862" cy="380.5" r="4.9153"/>
  <circle cx="40.332" cy="364.51" r="4.9153"/>
  <circle cx="39.626" cy="349.46" r="4.9153"/>
  <circle cx="42.331" cy="335.35" r="4.9153"/>
  <circle cx="40.919" cy="321.24" r="4.9153"/>
  <circle cx="35.628" cy="306.54" r="4.9153"/>
  <circle cx="37.51" cy="291.02" r="4.9153"/>
  <circle cx="35.393" cy="276.09" r="4.9153"/>
  <circle cx="37.274" cy="261.51" r="4.9153"/>
  <circle cx="42.918" cy="248.1" r="4.9153"/>
  <circle cx="48.68" cy="234.82" r="4.9153"/>
  <circle cx="53.031" cy="220.47" r="4.9153"/>
  <circle cx="50.326" cy="204.36" r="4.9153"/>
  <circle cx="44.682" cy="189.31" r="4.9153"/>
  <circle cx="40.214" cy="176.14" r="4.9153"/>
  <circle cx="42.095" cy="163.44" r="4.9153"/>
  <circle cx="45.035" cy="149.8" r="4.9153"/>
  <circle cx="48.915" cy="134.99" r="4.9153"/>
  <circle cx="52.208" cy="120.76" r="4.9153"/>
  <circle cx="56.323" cy="106.18" r="4.9153"/>
  <circle cx="62.085" cy="91.599" r="4.9153"/>
  <circle cx="66.318" cy="75.372" r="4.9153"/>
  <circle cx="71.844" cy="62.202" r="4.9153"/>
  <circle cx="76.312" cy="44.8" r="4.9153"/>
  <circle cx="73.49" cy="31.278" r="4.9153"/>
  <circle cx="69.375" cy="17.755" r="4.9153"/>
 </g>
</svg>
