<?xml version="1.0" encoding="UTF-8"?>
<!-- Created with Inkscape (http://www.inkscape.org/) -->
<svg width="100" height="650" version="1.1" viewBox="0 0 100 650" xmlns="http://www.w3.org/2000/svg" xmlns:cc="http://creativecommons.org/ns#" xmlns:dc="http://purl.org/dc/elements/1.1/" xmlns:rdf="http://www.w3.org/1999/02/22-rdf-syntax-ns#">
 <metadata>
  <rdf:RDF>
   <cc:Work rdf:about="">
    <dc:format>image/svg+xml</dc:format>
    <dc:type rdf:resource="http://purl.org/dc/dcmitype/StillImage"/>
    <dc:title/>
   </cc:Work>
  </rdf:RDF>
 </metadata>
 <g transform="translate(33.824 231.84)" fill="#e00000">
  <circle cx="16.077" cy="413.06" r="4.9153"/>
  <circle cx="19.897" cy="392.37" r="4.9153"/>
  <circle cx="18.623" cy="379.79" r="4.9153"/>
  <circle cx="21.648" cy="369.61" r="4.9153"/>
  <circle cx="19.578" cy="358.47" r="4.9153"/>
  <circle cx="14.326" cy="344.3" r="4.9153"/>
  <circle cx="12.893" cy="329.02" r="4.9153"/>
  <circle cx="16.077" cy="314.53" r="4.9153"/>
  <circle cx="14.166" cy="300.05" r="4.9153"/>
  <circle cx="18.305" cy="288.43" r="4.9153"/>
  <circle cx="12.893" cy="274.74" r="4.9153"/>
  <circle cx="13.211" cy="264.08" r="4.9153"/>
  <circle cx="17.668" cy="249.75" r="4.9153"/>
  <circle cx="20.056" cy="235.74" r="4.9153"/>
  <circle cx="23.876" cy="223.96" r="4.9153"/>
  <circle cx="30.084" cy="210.91" r="4.9153"/>
  <circle cx="28.651" cy="197.54" r="4.9153"/>
  <circle cx="24.513" cy="184.33" r="4.9153"/>
  <circle cx="26.741" cy="172.55" r="4.9153"/>
  <circle cx="22.603" cy="159.98" r="4.9153"/>
  <circle cx="24.513" cy="144.38" r="4.9153"/>
  <circle cx="28.333" cy="130.53" r="4.9153"/>
  <circle cx="31.835" cy="117.32" r="4.9153"/>
  <circle cx="33.745" cy="104.42" r="4.9153"/>
  <circle cx="32.79" cy="91.053" r="4.9153"/>
  <circle cx="37.088" cy="76.25" r="4.9153"/>
  <circle cx="40.112" cy="61.765" r="4.9153"/>
  <circle cx="45.524" cy="45.689" r="4.9153"/>
  <circle cx="48.389" cy="31.204" r="4.9153"/>
  <circle cx="53.164" cy="16.878" r="4.9153"/>
 </g>
</svg>
