<?xml version="1.0" encoding="UTF-8"?>
<!-- Created with Inkscape (http://www.inkscape.org/) -->
<svg width="100" height="650" version="1.1" viewBox="0 0 100 650" xmlns="http://www.w3.org/2000/svg" xmlns:cc="http://creativecommons.org/ns#" xmlns:dc="http://purl.org/dc/elements/1.1/" xmlns:rdf="http://www.w3.org/1999/02/22-rdf-syntax-ns#">
 <metadata>
  <rdf:RDF>
   <cc:Work rdf:about="">
    <dc:format>image/svg+xml</dc:format>
    <dc:type rdf:resource="http://purl.org/dc/dcmitype/StillImage"/>
    <dc:title/>
   </cc:Work>
  </rdf:RDF>
 </metadata>
 <g transform="translate(5.7548 272.58)" fill="#e00000">
  <circle cx="44.144" cy="372.25" r="4.9153"/>
  <circle cx="42.25" cy="356.07" r="4.9153"/>
  <circle cx="41.231" cy="346.75" r="4.9153"/>
  <circle cx="38.754" cy="337.28" r="4.9153"/>
  <circle cx="42.105" cy="322.42" r="4.9153"/>
  <circle cx="44.873" cy="309.45" r="4.9153"/>
  <circle cx="48.806" cy="298.09" r="4.9153"/>
  <circle cx="46.912" cy="286.14" r="4.9153"/>
  <circle cx="48.806" cy="273.32" r="4.9153"/>
  <circle cx="53.177" cy="259.63" r="4.9153"/>
  <circle cx="50.118" cy="248.41" r="4.9153"/>
  <circle cx="52.449" cy="233.69" r="4.9153"/>
  <circle cx="57.111" cy="219.27" r="4.9153"/>
  <circle cx="55.071" cy="205.87" r="4.9153"/>
  <circle cx="52.303" cy="192.03" r="4.9153"/>
  <circle cx="47.495" cy="179.79" r="4.9153"/>
  <circle cx="44.144" cy="168.57" r="4.9153"/>
  <circle cx="48.952" cy="152.83" r="4.9153"/>
  <circle cx="44.873" cy="142.2" r="4.9153"/>
  <circle cx="43.416" cy="128.94" r="4.9153"/>
  <circle cx="44.436" cy="118.16" r="4.9153"/>
  <circle cx="43.27" cy="104.32" r="4.9153"/>
  <circle cx="39.774" cy="93.102" r="4.9153"/>
  <circle cx="34.529" cy="79.407" r="4.9153"/>
  <circle cx="28.701" cy="70.228" r="4.9153"/>
  <circle cx="21.562" cy="61.632" r="4.9153"/>
  <circle cx="24.185" cy="50.56" r="4.9153"/>
  <circle cx="20.397" cy="37.302" r="4.9153"/>
  <circle cx="16.9" cy="28.561" r="4.9153"/>
  <circle cx="15.152" cy="13.846" r="4.9153"/>
 </g>
</svg>
