<?xml version="1.0" encoding="UTF-8"?>
<!-- Created with Inkscape (http://www.inkscape.org/) -->
<svg width="100" height="650" version="1.1" viewBox="0 0 100 650" xmlns="http://www.w3.org/2000/svg" xmlns:cc="http://creativecommons.org/ns#" xmlns:dc="http://purl.org/dc/elements/1.1/" xmlns:rdf="http://www.w3.org/1999/02/22-rdf-syntax-ns#">
 <metadata>
  <rdf:RDF>
   <cc:Work rdf:about="">
    <dc:format>image/svg+xml</dc:format>
    <dc:type rdf:resource="http://purl.org/dc/dcmitype/StillImage"/>
    <dc:title/>
   </cc:Work>
  </rdf:RDF>
 </metadata>
 <g transform="translate(-38.424 164.92)" fill="#e00000">
  <circle cx="102.03" cy="480.38" r="4.9153"/>
  <circle cx="102.03" cy="466.68" r="4.9153"/>
  <circle cx="102.03" cy="458.54" r="4.9153"/>
  <circle cx="100.04" cy="449.01" r="4.9153"/>
  <circle cx="102.03" cy="437.3" r="4.9153"/>
  <circle cx="102.23" cy="424.2" r="4.9153"/>
  <circle cx="99.448" cy="410.9" r="4.9153"/>
  <circle cx="100.24" cy="394.82" r="4.9153"/>
  <circle cx="97.662" cy="377.95" r="4.9153"/>
  <circle cx="96.272" cy="360.68" r="4.9153"/>
  <circle cx="94.486" cy="341.62" r="4.9153"/>
  <circle cx="95.875" cy="323.36" r="4.9153"/>
  <circle cx="96.074" cy="303.51" r="4.9153"/>
  <circle cx="96.669" cy="285.05" r="4.9153"/>
  <circle cx="98.853" cy="266.19" r="4.9153"/>
  <circle cx="96.471" cy="241.78" r="4.9153"/>
  <circle cx="94.287" cy="221.33" r="4.9153"/>
  <circle cx="91.508" cy="201.29" r="4.9153"/>
  <circle cx="87.141" cy="181.44" r="4.9153"/>
  <circle cx="82.576" cy="160" r="4.9153"/>
  <circle cx="80.392" cy="137.77" r="4.9153"/>
  <circle cx="75.827" cy="115.34" r="4.9153"/>
  <circle cx="78.606" cy="90.721" r="4.9153"/>
  <circle cx="81.583" cy="68.688" r="4.9153"/>
  <circle cx="86.149" cy="45.86" r="4.9153"/>
 </g>
</svg>
