<?xml version="1.0" encoding="UTF-8"?>
<!-- Created with Inkscape (http://www.inkscape.org/) -->
<svg width="100" height="650" version="1.1" viewBox="0 0 100 650" xmlns="http://www.w3.org/2000/svg" xmlns:cc="http://creativecommons.org/ns#" xmlns:dc="http://purl.org/dc/elements/1.1/" xmlns:rdf="http://www.w3.org/1999/02/22-rdf-syntax-ns#">
 <metadata>
  <rdf:RDF>
   <cc:Work rdf:about="">
    <dc:format>image/svg+xml</dc:format>
    <dc:type rdf:resource="http://purl.org/dc/dcmitype/StillImage"/>
    <dc:title/>
   </cc:Work>
  </rdf:RDF>
 </metadata>
 <g transform="translate(-76.078 168.04)" fill="#e00000">
  <circle cx="122.44" cy="477.1" r="4.9153"/>
  <circle cx="122.88" cy="466.52" r="4.9153"/>
  <circle cx="124.2" cy="459.76" r="4.9153"/>
  <circle cx="123.9" cy="452.41" r="4.9153"/>
  <circle cx="126.99" cy="443.74" r="4.9153"/>
  <circle cx="126.55" cy="432.56" r="4.9153"/>
  <circle cx="126.55" cy="419.63" r="4.9153"/>
  <circle cx="125.23" cy="405.52" r="4.9153"/>
  <circle cx="124.49" cy="390.68" r="4.9153"/>
  <circle cx="127.14" cy="375.98" r="4.9153"/>
  <circle cx="129.78" cy="360.84" r="4.9153"/>
  <circle cx="128.02" cy="343.94" r="4.9153"/>
  <circle cx="130.37" cy="324.68" r="4.9153"/>
  <circle cx="130.37" cy="306.75" r="4.9153"/>
  <circle cx="129.34" cy="288.38" r="4.9153"/>
  <circle cx="126.84" cy="268.53" r="4.9153"/>
  <circle cx="125.96" cy="250.01" r="4.9153"/>
  <circle cx="125.67" cy="228.41" r="4.9153"/>
  <circle cx="126.11" cy="207.24" r="4.9153"/>
  <circle cx="126.84" cy="184.61" r="4.9153"/>
  <circle cx="121.41" cy="160.8" r="4.9153"/>
  <circle cx="121.41" cy="140.22" r="4.9153"/>
  <circle cx="123.32" cy="116.7" r="4.9153"/>
  <circle cx="124.79" cy="94.656" r="4.9153"/>
  <circle cx="126.55" cy="70.404" r="4.9153"/>
 </g>
</svg>
