<?xml version="1.0" encoding="UTF-8"?>
<!-- Created with Inkscape (http://www.inkscape.org/) -->
<svg width="100" height="650" version="1.1" viewBox="0 0 100 650" xmlns="http://www.w3.org/2000/svg" xmlns:cc="http://creativecommons.org/ns#" xmlns:dc="http://purl.org/dc/elements/1.1/" xmlns:rdf="http://www.w3.org/1999/02/22-rdf-syntax-ns#">
 <metadata>
  <rdf:RDF>
   <cc:Work rdf:about="">
    <dc:format>image/svg+xml</dc:format>
    <dc:type rdf:resource="http://purl.org/dc/dcmitype/StillImage"/>
    <dc:title/>
   </cc:Work>
  </rdf:RDF>
 </metadata>
 <g transform="translate(-13.128 27.229)" fill="#e00000">
  <circle cx="63.453" cy="617.42" r="4.9153"/>
  <circle cx="59.32" cy="590.92" r="4.9153"/>
  <circle cx="59.32" cy="577.55" r="4.9153"/>
  <circle cx="56.403" cy="553.97" r="4.9153"/>
  <circle cx="57.132" cy="533.79" r="4.9153"/>
  <circle cx="59.32" cy="512.88" r="4.9153"/>
  <circle cx="61.508" cy="491" r="4.9153"/>
  <circle cx="60.535" cy="466.93" r="4.9153"/>
  <circle cx="56.646" cy="448.46" r="4.9153"/>
  <circle cx="60.049" cy="425.85" r="4.9153"/>
  <circle cx="61.994" cy="407.61" r="4.9153"/>
  <circle cx="60.535" cy="386.22" r="4.9153"/>
  <circle cx="58.347" cy="368.47" r="4.9153"/>
  <circle cx="58.347" cy="338.81" r="4.9153"/>
  <circle cx="58.834" cy="324.47" r="4.9153"/>
  <circle cx="56.403" cy="300.89" r="4.9153"/>
  <circle cx="53.728" cy="279.49" r="4.9153"/>
  <circle cx="56.159" cy="254.94" r="4.9153"/>
  <circle cx="52.999" cy="235.49" r="4.9153"/>
  <circle cx="54.458" cy="214.83" r="4.9153"/>
 </g>
</svg>
