<?xml version="1.0" encoding="UTF-8"?>
<!-- Created with Inkscape (http://www.inkscape.org/) -->
<svg width="100" height="650" version="1.1" viewBox="0 0 100 650" xmlns="http://www.w3.org/2000/svg" xmlns:cc="http://creativecommons.org/ns#" xmlns:dc="http://purl.org/dc/elements/1.1/" xmlns:rdf="http://www.w3.org/1999/02/22-rdf-syntax-ns#">
 <metadata>
  <rdf:RDF>
   <cc:Work rdf:about="">
    <dc:format>image/svg+xml</dc:format>
    <dc:type rdf:resource="http://purl.org/dc/dcmitype/StillImage"/>
    <dc:title/>
   </cc:Work>
  </rdf:RDF>
 </metadata>
 <g transform="translate(34.304 -251.78)" fill="#e00000">
  <circle cx="15.49" cy="896.57" r="4.9153"/>
  <circle cx="15.32" cy="881.08" r="4.9153"/>
  <circle cx="15.66" cy="873.93" r="4.9153"/>
  <circle cx="18.384" cy="859.98" r="4.9153"/>
  <circle cx="19.065" cy="843.29" r="4.9153"/>
  <circle cx="15.66" cy="823.38" r="4.9153"/>
  <circle cx="13.277" cy="804.99" r="4.9153"/>
  <circle cx="19.916" cy="786.27" r="4.9153"/>
  <circle cx="22.299" cy="766.01" r="4.9153"/>
  <circle cx="33.193" cy="745.76" r="4.9153"/>
  <circle cx="35.236" cy="726.18" r="4.9153"/>
  <circle cx="42.045" cy="706.44" r="4.9153"/>
  <circle cx="45.279" cy="685.67" r="4.9153"/>
  <circle cx="48.854" cy="660.99" r="4.9153"/>
  <circle cx="49.875" cy="638.35" r="4.9153"/>
  <circle cx="49.194" cy="617.41" r="4.9153"/>
  <circle cx="47.833" cy="593.75" r="4.9153"/>
  <circle cx="50.216" cy="571.28" r="4.9153"/>
  <circle cx="52.599" cy="547.28" r="4.9153"/>
  <circle cx="49.194" cy="526" r="4.9153"/>
  <circle cx="48.003" cy="502.51" r="4.9153"/>
  <circle cx="54.471" cy="477.49" r="4.9153"/>
  <circle cx="58.557" cy="455.53" r="4.9153"/>
  <circle cx="56.003" cy="429.65" r="4.9153"/>
  <circle cx="55.152" cy="404.97" r="4.9153"/>
  <circle cx="60.94" cy="378.08" r="4.9153"/>
  <circle cx="64.004" cy="352.37" r="4.9153"/>
  <circle cx="67.749" cy="324.29" r="4.9153"/>
 </g>
</svg>
