<?xml version="1.0" encoding="UTF-8"?>
<!-- Created with Inkscape (http://www.inkscape.org/) -->
<svg width="100" height="650" version="1.1" viewBox="0 0 100 650" xmlns="http://www.w3.org/2000/svg" xmlns:cc="http://creativecommons.org/ns#" xmlns:dc="http://purl.org/dc/elements/1.1/" xmlns:rdf="http://www.w3.org/1999/02/22-rdf-syntax-ns#">
 <metadata>
  <rdf:RDF>
   <cc:Work rdf:about="">
    <dc:format>image/svg+xml</dc:format>
    <dc:type rdf:resource="http://purl.org/dc/dcmitype/StillImage"/>
    <dc:title/>
   </cc:Work>
  </rdf:RDF>
 </metadata>
 <g transform="translate(13.431 -174.32)" fill="#e00000">
  <circle cx="36.546" cy="819.32" r="4.9153"/>
  <circle cx="36.077" cy="797.61" r="4.9153"/>
  <circle cx="35.765" cy="788.4" r="4.9153"/>
  <circle cx="37.326" cy="773.72" r="4.9153"/>
  <circle cx="39.357" cy="759.66" r="4.9153"/>
  <circle cx="37.014" cy="743.57" r="4.9153"/>
  <circle cx="35.765" cy="728.42" r="4.9153"/>
  <circle cx="39.513" cy="711.4" r="4.9153"/>
  <circle cx="39.201" cy="697.19" r="4.9153"/>
  <circle cx="43.261" cy="682.04" r="4.9153"/>
  <circle cx="44.198" cy="667.51" r="4.9153"/>
  <circle cx="48.259" cy="651.27" r="4.9153"/>
  <circle cx="51.539" cy="634.4" r="4.9153"/>
  <circle cx="57.161" cy="615.51" r="4.9153"/>
  <circle cx="60.128" cy="594.42" r="4.9153"/>
  <circle cx="63.252" cy="574.43" r="4.9153"/>
  <circle cx="64.97" cy="554.29" r="4.9153"/>
  <circle cx="62.471" cy="534.76" r="4.9153"/>
  <circle cx="62.003" cy="515.09" r="4.9153"/>
  <circle cx="67.313" cy="493.06" r="4.9153"/>
  <circle cx="67.625" cy="472.45" r="4.9153"/>
  <circle cx="66.532" cy="451.99" r="4.9153"/>
  <circle cx="65.751" cy="431.06" r="4.9153"/>
  <circle cx="68.718" cy="409.82" r="4.9153"/>
  <circle cx="70.749" cy="384.68" r="4.9153"/>
  <circle cx="66.844" cy="365.94" r="4.9153"/>
  <circle cx="66.376" cy="345.94" r="4.9153"/>
  <circle cx="63.877" cy="321.11" r="4.9153"/>
 </g>
</svg>
