<?xml version="1.0" encoding="UTF-8"?>
<!-- Created with Inkscape (http://www.inkscape.org/) -->
<svg width="100" height="650" version="1.1" viewBox="0 0 100 650" xmlns="http://www.w3.org/2000/svg" xmlns:cc="http://creativecommons.org/ns#" xmlns:dc="http://purl.org/dc/elements/1.1/" xmlns:rdf="http://www.w3.org/1999/02/22-rdf-syntax-ns#">
 <metadata>
  <rdf:RDF>
   <cc:Work rdf:about="">
    <dc:format>image/svg+xml</dc:format>
    <dc:type rdf:resource="http://purl.org/dc/dcmitype/StillImage"/>
    <dc:title/>
   </cc:Work>
  </rdf:RDF>
 </metadata>
 <g transform="translate(24.065 -47.967)" fill="#e00000">
  <circle cx="25.572" cy="692.89" r="4.9153"/>
  <circle cx="25.572" cy="672.58" r="4.9153"/>
  <circle cx="25.948" cy="665.44" r="4.9153"/>
  <circle cx="22.188" cy="656.6" r="4.9153"/>
  <circle cx="21.623" cy="645.13" r="4.9153"/>
  <circle cx="25.008" cy="632.91" r="4.9153"/>
  <circle cx="26.7" cy="618.43" r="4.9153"/>
  <circle cx="23.88" cy="604.89" r="4.9153"/>
  <circle cx="23.88" cy="589.1" r="4.9153"/>
  <circle cx="19.931" cy="575.56" r="4.9153"/>
  <circle cx="18.803" cy="561.27" r="4.9153"/>
  <circle cx="21.999" cy="547.54" r="4.9153"/>
  <circle cx="23.128" cy="530.43" r="4.9153"/>
  <circle cx="18.615" cy="515.58" r="4.9153"/>
  <circle cx="17.863" cy="500.16" r="4.9153"/>
  <circle cx="14.666" cy="484.36" r="4.9153"/>
  <circle cx="14.102" cy="467.63" r="4.9153"/>
  <circle cx="17.299" cy="448.64" r="4.9153"/>
  <circle cx="18.991" cy="429.08" r="4.9153"/>
  <circle cx="16.171" cy="410.09" r="4.9153"/>
  <circle cx="15.418" cy="391.1" r="4.9153"/>
  <circle cx="21.999" cy="371.55" r="4.9153"/>
  <circle cx="23.316" cy="353.31" r="4.9153"/>
  <circle cx="28.204" cy="338.45" r="4.9153"/>
  <circle cx="31.213" cy="320.78" r="4.9153"/>
  <circle cx="28.957" cy="301.22" r="4.9153"/>
  <circle cx="27.452" cy="284.11" r="4.9153"/>
  <circle cx="31.965" cy="267" r="4.9153"/>
 </g>
</svg>
