<?xml version="1.0" encoding="UTF-8"?>
<!-- Created with Inkscape (http://www.inkscape.org/) -->
<svg width="100" height="650" version="1.1" viewBox="0 0 100 650" xmlns="http://www.w3.org/2000/svg" xmlns:cc="http://creativecommons.org/ns#" xmlns:dc="http://purl.org/dc/elements/1.1/" xmlns:rdf="http://www.w3.org/1999/02/22-rdf-syntax-ns#">
 <metadata>
  <rdf:RDF>
   <cc:Work rdf:about="">
    <dc:format>image/svg+xml</dc:format>
    <dc:type rdf:resource="http://purl.org/dc/dcmitype/StillImage"/>
    <dc:title/>
   </cc:Work>
  </rdf:RDF>
 </metadata>
 <g transform="translate(-6.3272 -9.4544)" fill="#e00000">
  <circle cx="55.965" cy="654.46" r="4.9153"/>
  <circle cx="55.43" cy="638.96" r="4.9153"/>
  <circle cx="55.252" cy="632.01" r="4.9153"/>
  <circle cx="52.935" cy="624.34" r="4.9153"/>
  <circle cx="51.152" cy="615.07" r="4.9153"/>
  <circle cx="48.122" cy="604.38" r="4.9153"/>
  <circle cx="46.518" cy="592.44" r="4.9153"/>
  <circle cx="48.479" cy="581.21" r="4.9153"/>
  <circle cx="51.152" cy="568.02" r="4.9153"/>
  <circle cx="52.578" cy="555.9" r="4.9153"/>
  <circle cx="54.539" cy="544.5" r="4.9153"/>
  <circle cx="49.37" cy="531.66" r="4.9153"/>
  <circle cx="47.231" cy="516.51" r="4.9153"/>
  <circle cx="40.993" cy="500.12" r="4.9153"/>
  <circle cx="39.389" cy="482.83" r="4.9153"/>
  <circle cx="35.111" cy="464.83" r="4.9153"/>
  <circle cx="32.438" cy="448.43" r="4.9153"/>
  <circle cx="25.309" cy="430.78" r="4.9153"/>
  <circle cx="24.418" cy="416.17" r="4.9153"/>
  <circle cx="18.892" cy="400.84" r="4.9153"/>
  <circle cx="18.358" cy="383.2" r="4.9153"/>
  <circle cx="25.131" cy="364.13" r="4.9153"/>
  <circle cx="27.626" cy="344.7" r="4.9153"/>
  <circle cx="33.329" cy="327.05" r="4.9153"/>
  <circle cx="33.864" cy="306.91" r="4.9153"/>
  <circle cx="30.121" cy="290.16" r="4.9153"/>
  <circle cx="28.339" cy="270.91" r="4.9153"/>
  <circle cx="31.012" cy="251.66" r="4.9153"/>
 </g>
</svg>
