<?xml version="1.0" encoding="UTF-8"?>
<!-- Created with Inkscape (http://www.inkscape.org/) -->
<svg width="100" height="650" version="1.1" viewBox="0 0 100 650" xmlns="http://www.w3.org/2000/svg" xmlns:cc="http://creativecommons.org/ns#" xmlns:dc="http://purl.org/dc/elements/1.1/" xmlns:rdf="http://www.w3.org/1999/02/22-rdf-syntax-ns#">
 <metadata>
  <rdf:RDF>
   <cc:Work rdf:about="">
    <dc:format>image/svg+xml</dc:format>
    <dc:type rdf:resource="http://purl.org/dc/dcmitype/StillImage"/>
    <dc:title/>
   </cc:Work>
  </rdf:RDF>
 </metadata>
 <g transform="translate(31.291 -97.855)" fill="#e00000">
  <circle cx="18.792" cy="742.79" r="4.9153"/>
  <circle cx="20.005" cy="720.16" r="4.9153"/>
  <circle cx="22.227" cy="711.07" r="4.9153"/>
  <circle cx="19.802" cy="698.34" r="4.9153"/>
  <circle cx="18.994" cy="685.81" r="4.9153"/>
  <circle cx="17.58" cy="672.47" r="4.9153"/>
  <circle cx="17.176" cy="656.31" r="4.9153"/>
  <circle cx="22.025" cy="640.55" r="4.9153"/>
  <circle cx="25.056" cy="624.59" r="4.9153"/>
  <circle cx="18.792" cy="609.03" r="4.9153"/>
  <circle cx="17.782" cy="596.3" r="4.9153"/>
  <circle cx="22.227" cy="580.13" r="4.9153"/>
  <circle cx="24.45" cy="563.16" r="4.9153"/>
  <circle cx="32.937" cy="545.17" r="4.9153"/>
  <circle cx="35.564" cy="525.57" r="4.9153"/>
  <circle cx="34.351" cy="509" r="4.9153"/>
  <circle cx="33.341" cy="491.22" r="4.9153"/>
  <circle cx="41.221" cy="472.23" r="4.9153"/>
  <circle cx="45.263" cy="455.05" r="4.9153"/>
  <circle cx="41.828" cy="435.65" r="4.9153"/>
  <circle cx="40.615" cy="416.05" r="4.9153"/>
  <circle cx="48.698" cy="394.84" r="4.9153"/>
  <circle cx="51.527" cy="375.84" r="4.9153"/>
  <circle cx="51.527" cy="356.65" r="4.9153"/>
  <circle cx="49.91" cy="333.21" r="4.9153"/>
  <circle cx="45.667" cy="314.01" r="4.9153"/>
  <circle cx="43.04" cy="294.01" r="4.9153"/>
  <circle cx="46.071" cy="274.41" r="4.9153"/>
 </g>
</svg>
