<?xml version="1.0" encoding="UTF-8"?>
<!-- Created with Inkscape (http://www.inkscape.org/) -->
<svg width="100" height="650" version="1.1" viewBox="0 0 100 650" xmlns="http://www.w3.org/2000/svg" xmlns:cc="http://creativecommons.org/ns#" xmlns:dc="http://purl.org/dc/elements/1.1/" xmlns:rdf="http://www.w3.org/1999/02/22-rdf-syntax-ns#">
 <metadata>
  <rdf:RDF>
   <cc:Work rdf:about="">
    <dc:format>image/svg+xml</dc:format>
    <dc:type rdf:resource="http://purl.org/dc/dcmitype/StillImage"/>
    <dc:title/>
   </cc:Work>
  </rdf:RDF>
 </metadata>
 <g transform="translate(6.7246 -95.736)" fill="#e00000">
  <circle cx="43.046" cy="740.78" r="4.9153"/>
  <circle cx="44.447" cy="717.96" r="4.9153"/>
  <circle cx="45.248" cy="709.55" r="4.9153"/>
  <circle cx="43.446" cy="696.54" r="4.9153"/>
  <circle cx="42.044" cy="682.92" r="4.9153"/>
  <circle cx="44.047" cy="668.11" r="4.9153"/>
  <circle cx="45.048" cy="654.69" r="4.9153"/>
  <circle cx="51.855" cy="641.68" r="4.9153"/>
  <circle cx="52.656" cy="626.46" r="4.9153"/>
  <circle cx="50.253" cy="611.05" r="4.9153"/>
  <circle cx="48.852" cy="592.83" r="4.9153"/>
  <circle cx="44.247" cy="576.81" r="4.9153"/>
  <circle cx="43.246" cy="560.99" r="4.9153"/>
  <circle cx="40.443" cy="544.78" r="4.9153"/>
  <circle cx="39.642" cy="527.96" r="4.9153"/>
  <circle cx="42.645" cy="508.14" r="4.9153"/>
  <circle cx="43.046" cy="490.72" r="4.9153"/>
  <circle cx="37.239" cy="470.5" r="4.9153"/>
  <circle cx="36.038" cy="452.28" r="4.9153"/>
  <circle cx="38.641" cy="433.06" r="4.9153"/>
  <circle cx="40.643" cy="414.44" r="4.9153"/>
  <circle cx="37.44" cy="394.02" r="4.9153"/>
  <circle cx="38.04" cy="374.6" r="4.9153"/>
  <circle cx="43.646" cy="351.77" r="4.9153"/>
  <circle cx="44.847" cy="332.75" r="4.9153"/>
  <circle cx="49.653" cy="312.93" r="4.9153"/>
  <circle cx="49.653" cy="289.11" r="4.9153"/>
  <circle cx="56.059" cy="266.48" r="4.9153"/>
 </g>
</svg>
