<?xml version="1.0" encoding="UTF-8"?>
<!-- Created with Inkscape (http://www.inkscape.org/) -->
<svg width="100" height="650" version="1.1" viewBox="0 0 100 650" xmlns="http://www.w3.org/2000/svg" xmlns:cc="http://creativecommons.org/ns#" xmlns:dc="http://purl.org/dc/elements/1.1/" xmlns:rdf="http://www.w3.org/1999/02/22-rdf-syntax-ns#">
 <metadata>
  <rdf:RDF>
   <cc:Work rdf:about="">
    <dc:format>image/svg+xml</dc:format>
    <dc:type rdf:resource="http://purl.org/dc/dcmitype/StillImage"/>
    <dc:title/>
   </cc:Work>
  </rdf:RDF>
 </metadata>
 <g transform="translate(24.121 -105.9)" fill="#e00000">
  <circle cx="26.068" cy="750.87" r="4.9153"/>
  <circle cx="25.864" cy="730.31" r="4.9153"/>
  <circle cx="25.66" cy="721.55" r="4.9153"/>
  <circle cx="28.512" cy="710.55" r="4.9153"/>
  <circle cx="29.734" cy="697.92" r="4.9153"/>
  <circle cx="32.381" cy="683.06" r="4.9153"/>
  <circle cx="34.418" cy="667.17" r="4.9153"/>
  <circle cx="38.083" cy="652.92" r="4.9153"/>
  <circle cx="41.546" cy="639.27" r="4.9153"/>
  <circle cx="36.658" cy="625.42" r="4.9153"/>
  <circle cx="34.621" cy="610.76" r="4.9153"/>
  <circle cx="41.546" cy="593.86" r="4.9153"/>
  <circle cx="42.767" cy="577.16" r="4.9153"/>
  <circle cx="46.637" cy="558.83" r="4.9153"/>
  <circle cx="49.488" cy="536.63" r="4.9153"/>
  <circle cx="46.433" cy="516.67" r="4.9153"/>
  <circle cx="46.23" cy="496.71" r="4.9153"/>
  <circle cx="39.916" cy="481.03" r="4.9153"/>
  <circle cx="40.731" cy="462.91" r="4.9153"/>
  <circle cx="42.36" cy="442.34" r="4.9153"/>
  <circle cx="43.378" cy="426.25" r="4.9153"/>
  <circle cx="40.12" cy="406.29" r="4.9153"/>
  <circle cx="38.694" cy="389.8" r="4.9153"/>
  <circle cx="36.251" cy="371.26" r="4.9153"/>
  <circle cx="36.251" cy="350.9" r="4.9153"/>
  <circle cx="34.418" cy="330.74" r="4.9153"/>
  <circle cx="34.01" cy="312" r="4.9153"/>
  <circle cx="36.251" cy="292.04" r="4.9153"/>
 </g>
</svg>
