<?xml version="1.0" encoding="UTF-8"?>
<!-- Created with Inkscape (http://www.inkscape.org/) -->
<svg width="100" height="650" version="1.1" viewBox="0 0 100 650" xmlns="http://www.w3.org/2000/svg" xmlns:cc="http://creativecommons.org/ns#" xmlns:dc="http://purl.org/dc/elements/1.1/" xmlns:rdf="http://www.w3.org/1999/02/22-rdf-syntax-ns#">
 <metadata>
  <rdf:RDF>
   <cc:Work rdf:about="">
    <dc:format>image/svg+xml</dc:format>
    <dc:type rdf:resource="http://purl.org/dc/dcmitype/StillImage"/>
    <dc:title/>
   </cc:Work>
  </rdf:RDF>
 </metadata>
 <g transform="translate(23.028 -190.32)" fill="#e00000">
  <circle cx="26.773" cy="835.22" r="4.9153"/>
  <circle cx="25.02" cy="809.57" r="4.9153"/>
  <circle cx="25.498" cy="803.51" r="4.9153"/>
  <circle cx="29.801" cy="788.69" r="4.9153"/>
  <circle cx="31.235" cy="773.07" r="4.9153"/>
  <circle cx="36.175" cy="757.3" r="4.9153"/>
  <circle cx="36.494" cy="739.61" r="4.9153"/>
  <circle cx="40.318" cy="722.08" r="4.9153"/>
  <circle cx="42.39" cy="701.68" r="4.9153"/>
  <circle cx="38.725" cy="684.47" r="4.9153"/>
  <circle cx="38.725" cy="666.14" r="4.9153"/>
  <circle cx="40.159" cy="650.84" r="4.9153"/>
  <circle cx="42.39" cy="631.24" r="4.9153"/>
  <circle cx="50.677" cy="611.96" r="4.9153"/>
  <circle cx="53.864" cy="594.43" r="4.9153"/>
  <circle cx="52.43" cy="572.28" r="4.9153"/>
  <circle cx="50.836" cy="553.15" r="4.9153"/>
  <circle cx="48.605" cy="531.64" r="4.9153"/>
  <circle cx="48.127" cy="506.46" r="4.9153"/>
  <circle cx="53.227" cy="485.27" r="4.9153"/>
  <circle cx="53.864" cy="461.84" r="4.9153"/>
  <circle cx="50.358" cy="436.98" r="4.9153"/>
  <circle cx="49.083" cy="415.31" r="4.9153"/>
  <circle cx="52.749" cy="391.72" r="4.9153"/>
  <circle cx="53.227" cy="369.09" r="4.9153"/>
  <circle cx="59.92" cy="347.9" r="4.9153"/>
  <circle cx="62.629" cy="323.36" r="4.9153"/>
  <circle cx="62.31" cy="298.65" r="4.9153"/>
 </g>
</svg>
