<?xml version="1.0" encoding="UTF-8"?>
<!-- Created with Inkscape (http://www.inkscape.org/) -->
<svg width="100" height="650" version="1.1" viewBox="0 0 100 650" xmlns="http://www.w3.org/2000/svg" xmlns:cc="http://creativecommons.org/ns#" xmlns:dc="http://purl.org/dc/elements/1.1/" xmlns:rdf="http://www.w3.org/1999/02/22-rdf-syntax-ns#">
 <metadata>
  <rdf:RDF>
   <cc:Work rdf:about="">
    <dc:format>image/svg+xml</dc:format>
    <dc:type rdf:resource="http://purl.org/dc/dcmitype/StillImage"/>
    <dc:title/>
   </cc:Work>
  </rdf:RDF>
 </metadata>
 <g transform="translate(28.959 -251.65)" fill="#e00000">
  <circle cx="21.018" cy="896.55" r="4.9153"/>
  <circle cx="19.937" cy="872.77" r="4.9153"/>
  <circle cx="18.856" cy="863.28" r="4.9153"/>
  <circle cx="23.54" cy="848.99" r="4.9153"/>
  <circle cx="25.221" cy="832.78" r="4.9153"/>
  <circle cx="23.78" cy="816.56" r="4.9153"/>
  <circle cx="23.9" cy="799.63" r="4.9153"/>
  <circle cx="18.976" cy="780.53" r="4.9153"/>
  <circle cx="16.694" cy="764.68" r="4.9153"/>
  <circle cx="12.731" cy="748.23" r="4.9153"/>
  <circle cx="11.89" cy="728.65" r="4.9153"/>
  <circle cx="16.454" cy="708.11" r="4.9153"/>
  <circle cx="18.015" cy="686.01" r="4.9153"/>
  <circle cx="22.339" cy="665.36" r="4.9153"/>
  <circle cx="24.501" cy="645.66" r="4.9153"/>
  <circle cx="31.466" cy="624.04" r="4.9153"/>
  <circle cx="33.268" cy="603.75" r="4.9153"/>
  <circle cx="27.383" cy="581.05" r="4.9153"/>
  <circle cx="24.981" cy="554.74" r="4.9153"/>
  <circle cx="27.863" cy="530" r="4.9153"/>
  <circle cx="29.184" cy="505.98" r="4.9153"/>
  <circle cx="24.861" cy="480.28" r="4.9153"/>
  <circle cx="24.14" cy="455.42" r="4.9153"/>
  <circle cx="17.054" cy="433.08" r="4.9153"/>
  <circle cx="16.934" cy="407.5" r="4.9153"/>
  <circle cx="12.49" cy="381.56" r="4.9153"/>
  <circle cx="12.731" cy="358.26" r="4.9153"/>
  <circle cx="7.3261" cy="332.44" r="4.9153"/>
 </g>
</svg>
