<?xml version="1.0" encoding="UTF-8"?>
<!-- Created with Inkscape (http://www.inkscape.org/) -->
<svg width="100" height="650" version="1.1" viewBox="0 0 100 650" xmlns="http://www.w3.org/2000/svg" xmlns:cc="http://creativecommons.org/ns#" xmlns:dc="http://purl.org/dc/elements/1.1/" xmlns:rdf="http://www.w3.org/1999/02/22-rdf-syntax-ns#">
 <metadata>
  <rdf:RDF>
   <cc:Work rdf:about="">
    <dc:format>image/svg+xml</dc:format>
    <dc:type rdf:resource="http://purl.org/dc/dcmitype/StillImage"/>
    <dc:title/>
   </cc:Work>
  </rdf:RDF>
 </metadata>
 <g transform="translate(16.424 33.854)" fill="#e00000">
  <circle cx="33.388" cy="611.16" r="4.9153"/>
  <circle cx="34.558" cy="594.68" r="4.9153"/>
  <circle cx="35.414" cy="588" r="4.9153"/>
  <circle cx="36.953" cy="578.94" r="4.9153"/>
  <circle cx="38.322" cy="569.01" r="4.9153"/>
  <circle cx="41.059" cy="557.55" r="4.9153"/>
  <circle cx="42.257" cy="544.72" r="4.9153"/>
  <circle cx="39.349" cy="531.38" r="4.9153"/>
  <circle cx="38.835" cy="520.08" r="4.9153"/>
  <circle cx="41.059" cy="507.08" r="4.9153"/>
  <circle cx="41.915" cy="496.13" r="4.9153"/>
  <circle cx="46.705" cy="484.5" r="4.9153"/>
  <circle cx="48.074" cy="470.64" r="4.9153"/>
  <circle cx="43.112" cy="457.98" r="4.9153"/>
  <circle cx="42.599" cy="445.49" r="4.9153"/>
  <circle cx="37.98" cy="431.47" r="4.9153"/>
  <circle cx="38.493" cy="418.29" r="4.9153"/>
  <circle cx="34.045" cy="402.21" r="4.9153"/>
  <circle cx="32.163" cy="386.98" r="4.9153"/>
  <circle cx="35.756" cy="369.02" r="4.9153"/>
  <circle cx="36.782" cy="354.99" r="4.9153"/>
  <circle cx="33.019" cy="338.57" r="4.9153"/>
  <circle cx="30.966" cy="322.49" r="4.9153"/>
  <circle cx="34.045" cy="306.06" r="4.9153"/>
  <circle cx="36.098" cy="287.93" r="4.9153"/>
  <circle cx="42.428" cy="271.85" r="4.9153"/>
  <circle cx="45.336" cy="253.54" r="4.9153"/>
  <circle cx="48.758" cy="236.78" r="4.9153"/>
 </g>
</svg>
