<?xml version="1.0" encoding="UTF-8"?>
<!-- Created with Inkscape (http://www.inkscape.org/) -->
<svg width="100" height="650" version="1.1" viewBox="0 0 100 650" xmlns="http://www.w3.org/2000/svg" xmlns:cc="http://creativecommons.org/ns#" xmlns:dc="http://purl.org/dc/elements/1.1/" xmlns:rdf="http://www.w3.org/1999/02/22-rdf-syntax-ns#">
 <metadata>
  <rdf:RDF>
   <cc:Work rdf:about="">
    <dc:format>image/svg+xml</dc:format>
    <dc:type rdf:resource="http://purl.org/dc/dcmitype/StillImage"/>
    <dc:title/>
   </cc:Work>
  </rdf:RDF>
 </metadata>
 <g transform="translate(26.425 -217.68)" fill="#e00000">
  <circle cx="23.385" cy="862.66" r="4.9153"/>
  <circle cx="25.489" cy="836" r="4.9153"/>
  <circle cx="26.191" cy="826.64" r="4.9153"/>
  <circle cx="23.151" cy="812.38" r="4.9153"/>
  <circle cx="21.28" cy="795.54" r="4.9153"/>
  <circle cx="17.538" cy="776.37" r="4.9153"/>
  <circle cx="18.006" cy="759.3" r="4.9153"/>
  <circle cx="25.489" cy="740.82" r="4.9153"/>
  <circle cx="28.997" cy="722.35" r="4.9153"/>
  <circle cx="36.246" cy="705.28" r="4.9153"/>
  <circle cx="36.948" cy="687.97" r="4.9153"/>
  <circle cx="44.898" cy="668.1" r="4.9153"/>
  <circle cx="44.431" cy="648.69" r="4.9153"/>
  <circle cx="41.858" cy="626" r="4.9153"/>
  <circle cx="39.286" cy="598.64" r="4.9153"/>
  <circle cx="34.843" cy="574.32" r="4.9153"/>
  <circle cx="34.609" cy="548.37" r="4.9153"/>
  <circle cx="29.932" cy="519.6" r="4.9153"/>
  <circle cx="28.997" cy="494.35" r="4.9153"/>
  <circle cx="25.489" cy="468.16" r="4.9153"/>
  <circle cx="24.554" cy="444.07" r="4.9153"/>
  <circle cx="19.877" cy="420.92" r="4.9153"/>
  <circle cx="17.071" cy="396.37" r="4.9153"/>
  <circle cx="14.498" cy="366.9" r="4.9153"/>
  <circle cx="13.563" cy="338.37" r="4.9153"/>
  <circle cx="15.434" cy="315.46" r="4.9153"/>
  <circle cx="18.941" cy="287.16" r="4.9153"/>
  <circle cx="16.603" cy="258.63" r="4.9153"/>
 </g>
</svg>
