<?xml version="1.0" encoding="UTF-8"?>
<!-- Created with Inkscape (http://www.inkscape.org/) -->
<svg width="100" height="650" version="1.1" viewBox="0 0 100 650" xmlns="http://www.w3.org/2000/svg" xmlns:cc="http://creativecommons.org/ns#" xmlns:dc="http://purl.org/dc/elements/1.1/" xmlns:rdf="http://www.w3.org/1999/02/22-rdf-syntax-ns#">
 <metadata>
  <rdf:RDF>
   <cc:Work rdf:about="">
    <dc:format>image/svg+xml</dc:format>
    <dc:type rdf:resource="http://purl.org/dc/dcmitype/StillImage"/>
    <dc:title/>
   </cc:Work>
  </rdf:RDF>
 </metadata>
 <g transform="translate(5.3914 -153.86)" fill="#e00000">
  <circle cx="44.194" cy="798.85" r="4.9153"/>
  <circle cx="45.257" cy="784.57" r="4.9153"/>
  <circle cx="47.536" cy="777.74" r="4.9153"/>
  <circle cx="45.561" cy="766.2" r="4.9153"/>
  <circle cx="46.017" cy="751.77" r="4.9153"/>
  <circle cx="42.828" cy="736.74" r="4.9153"/>
  <circle cx="41.764" cy="721.4" r="4.9153"/>
  <circle cx="37.056" cy="703.93" r="4.9153"/>
  <circle cx="35.386" cy="686.77" r="4.9153"/>
  <circle cx="38.575" cy="670.06" r="4.9153"/>
  <circle cx="40.246" cy="655.18" r="4.9153"/>
  <circle cx="45.865" cy="639.23" r="4.9153"/>
  <circle cx="48.295" cy="622.38" r="4.9153"/>
  <circle cx="45.106" cy="605.37" r="4.9153"/>
  <circle cx="45.561" cy="584.71" r="4.9153"/>
  <circle cx="48.75" cy="565.58" r="4.9153"/>
  <circle cx="50.877" cy="547.05" r="4.9153"/>
  <circle cx="47.839" cy="526.39" r="4.9153"/>
  <circle cx="47.384" cy="505.89" r="4.9153"/>
  <circle cx="51.332" cy="481.74" r="4.9153"/>
  <circle cx="53.914" cy="461.39" r="4.9153"/>
  <circle cx="58.622" cy="438.61" r="4.9153"/>
  <circle cx="61.659" cy="417.5" r="4.9153"/>
  <circle cx="57.407" cy="394.72" r="4.9153"/>
  <circle cx="56.496" cy="371.33" r="4.9153"/>
  <circle cx="59.23" cy="351.59" r="4.9153"/>
  <circle cx="60.445" cy="330.94" r="4.9153"/>
  <circle cx="58.622" cy="310.59" r="4.9153"/>
 </g>
</svg>
