<?xml version="1.0" encoding="UTF-8"?>
<!-- Created with Inkscape (http://www.inkscape.org/) -->
<svg width="100" height="650" version="1.1" viewBox="0 0 100 650" xmlns="http://www.w3.org/2000/svg" xmlns:cc="http://creativecommons.org/ns#" xmlns:dc="http://purl.org/dc/elements/1.1/" xmlns:rdf="http://www.w3.org/1999/02/22-rdf-syntax-ns#">
 <metadata>
  <rdf:RDF>
   <cc:Work rdf:about="">
    <dc:format>image/svg+xml</dc:format>
    <dc:type rdf:resource="http://purl.org/dc/dcmitype/StillImage"/>
    <dc:title/>
   </cc:Work>
  </rdf:RDF>
 </metadata>
 <g transform="translate(11.564 -52.009)" fill="#e00000">
  <circle cx="38.425" cy="696.84" r="4.9153"/>
  <circle cx="36.829" cy="674.63" r="4.9153"/>
  <circle cx="36.829" cy="668.12" r="4.9153"/>
  <circle cx="42.28" cy="656.29" r="4.9153"/>
  <circle cx="43.743" cy="641.53" r="4.9153"/>
  <circle cx="50.125" cy="625.17" r="4.9153"/>
  <circle cx="52.385" cy="610.55" r="4.9153"/>
  <circle cx="56.108" cy="595.39" r="4.9153"/>
  <circle cx="57.57" cy="578.37" r="4.9153"/>
  <circle cx="49.992" cy="562.15" r="4.9153"/>
  <circle cx="50.258" cy="547.53" r="4.9153"/>
  <circle cx="55.576" cy="528.91" r="4.9153"/>
  <circle cx="58.368" cy="513.89" r="4.9153"/>
  <circle cx="54.778" cy="496.87" r="4.9153"/>
  <circle cx="54.114" cy="480.52" r="4.9153"/>
  <circle cx="58.368" cy="461.64" r="4.9153"/>
  <circle cx="59.166" cy="442.22" r="4.9153"/>
  <circle cx="62.623" cy="426.14" r="4.9153"/>
  <circle cx="64.75" cy="406.59" r="4.9153"/>
  <circle cx="68.074" cy="390.9" r="4.9153"/>
  <circle cx="69.537" cy="374.68" r="4.9153"/>
  <circle cx="64.617" cy="358.2" r="4.9153"/>
  <circle cx="62.756" cy="340.91" r="4.9153"/>
  <circle cx="57.437" cy="319.11" r="4.9153"/>
  <circle cx="55.177" cy="300.23" r="4.9153"/>
  <circle cx="49.46" cy="283.21" r="4.9153"/>
  <circle cx="47.599" cy="263.93" r="4.9153"/>
  <circle cx="45.604" cy="247.58" r="4.9153"/>
  <circle cx="43.876" cy="229.23" r="4.9153"/>
  <circle cx="50.923" cy="212.08" r="4.9153"/>
 </g>
</svg>
