<?xml version="1.0" encoding="UTF-8"?>
<!-- Created with Inkscape (http://www.inkscape.org/) -->
<svg width="100" height="650" version="1.1" viewBox="0 0 100 650" xmlns="http://www.w3.org/2000/svg" xmlns:cc="http://creativecommons.org/ns#" xmlns:dc="http://purl.org/dc/elements/1.1/" xmlns:rdf="http://www.w3.org/1999/02/22-rdf-syntax-ns#">
 <metadata>
  <rdf:RDF>
   <cc:Work rdf:about="">
    <dc:format>image/svg+xml</dc:format>
    <dc:type rdf:resource="http://purl.org/dc/dcmitype/StillImage"/>
    <dc:title/>
   </cc:Work>
  </rdf:RDF>
 </metadata>
 <g transform="translate(35.917 -44.232)" fill="#e00000">
  <circle cx="13.718" cy="689.06" r="4.9153"/>
  <circle cx="16.499" cy="668.3" r="4.9153"/>
  <circle cx="16.314" cy="659.77" r="4.9153"/>
  <circle cx="19.094" cy="651.06" r="4.9153"/>
  <circle cx="20.207" cy="637.16" r="4.9153"/>
  <circle cx="18.909" cy="624.74" r="4.9153"/>
  <circle cx="18.538" cy="609.9" r="4.9153"/>
  <circle cx="22.06" cy="592.11" r="4.9153"/>
  <circle cx="25.768" cy="575.05" r="4.9153"/>
  <circle cx="23.543" cy="556.7" r="4.9153"/>
  <circle cx="23.358" cy="541.87" r="4.9153"/>
  <circle cx="25.212" cy="527.6" r="4.9153"/>
  <circle cx="26.51" cy="511.84" r="4.9153"/>
  <circle cx="32.812" cy="495.15" r="4.9153"/>
  <circle cx="33.925" cy="479.95" r="4.9153"/>
  <circle cx="41.525" cy="464.57" r="4.9153"/>
  <circle cx="45.233" cy="448.99" r="4.9153"/>
  <circle cx="48.385" cy="432.68" r="4.9153"/>
  <circle cx="50.609" cy="418.03" r="4.9153"/>
  <circle cx="48.57" cy="401.72" r="4.9153"/>
  <circle cx="48.385" cy="383.55" r="4.9153"/>
  <circle cx="45.604" cy="367.61" r="4.9153"/>
  <circle cx="44.121" cy="352.04" r="4.9153"/>
  <circle cx="41.896" cy="333.5" r="4.9153"/>
  <circle cx="41.155" cy="314.78" r="4.9153"/>
  <circle cx="38.93" cy="296.24" r="4.9153"/>
  <circle cx="38.374" cy="276.4" r="4.9153"/>
  <circle cx="34.11" cy="254.71" r="4.9153"/>
  <circle cx="34.296" cy="236.36" r="4.9153"/>
  <circle cx="40.042" cy="217.08" r="4.9153"/>
 </g>
</svg>
