<?xml version="1.0" encoding="UTF-8"?>
<!-- Created with Inkscape (http://www.inkscape.org/) -->
<svg width="100" height="650" version="1.1" viewBox="0 0 100 650" xmlns="http://www.w3.org/2000/svg" xmlns:cc="http://creativecommons.org/ns#" xmlns:dc="http://purl.org/dc/elements/1.1/" xmlns:rdf="http://www.w3.org/1999/02/22-rdf-syntax-ns#">
 <metadata>
  <rdf:RDF>
   <cc:Work rdf:about="">
    <dc:format>image/svg+xml</dc:format>
    <dc:type rdf:resource="http://purl.org/dc/dcmitype/StillImage"/>
    <dc:title/>
   </cc:Work>
  </rdf:RDF>
 </metadata>
 <g transform="translate(41.192 -101.14)" fill="#e00000">
  <circle cx="8.5646" cy="746.14" r="4.9153"/>
  <circle cx="9.5842" cy="723.91" r="4.9153"/>
  <circle cx="11.012" cy="713.41" r="4.9153"/>
  <circle cx="15.09" cy="700.06" r="4.9153"/>
  <circle cx="16.517" cy="688.13" r="4.9153"/>
  <circle cx="19.372" cy="673.14" r="4.9153"/>
  <circle cx="21.615" cy="655.4" r="4.9153"/>
  <circle cx="18.557" cy="639.8" r="4.9153"/>
  <circle cx="17.435" cy="621.55" r="4.9153"/>
  <circle cx="20.698" cy="603.19" r="4.9153"/>
  <circle cx="21.921" cy="585.86" r="4.9153"/>
  <circle cx="17.741" cy="569.24" r="4.9153"/>
  <circle cx="15.702" cy="552.11" r="4.9153"/>
  <circle cx="17.129" cy="533.15" r="4.9153"/>
  <circle cx="19.882" cy="514.08" r="4.9153"/>
  <circle cx="23.247" cy="495.42" r="4.9153"/>
  <circle cx="24.368" cy="479.21" r="4.9153"/>
  <circle cx="28.651" cy="461.16" r="4.9153"/>
  <circle cx="27.937" cy="442.4" r="4.9153"/>
  <circle cx="26.815" cy="423.64" r="4.9153"/>
  <circle cx="25.286" cy="407.94" r="4.9153"/>
  <circle cx="28.447" cy="387.45" r="4.9153"/>
  <circle cx="30.894" cy="367.77" r="4.9153"/>
  <circle cx="26.713" cy="348.19" r="4.9153"/>
  <circle cx="25.898" cy="329.33" r="4.9153"/>
  <circle cx="31.608" cy="308.12" r="4.9153"/>
  <circle cx="34.36" cy="288.34" r="4.9153"/>
  <circle cx="38.031" cy="267.34" r="4.9153"/>
  <circle cx="38.439" cy="246.64" r="4.9153"/>
  <circle cx="36.298" cy="228.08" r="4.9153"/>
 </g>
</svg>
