<?xml version="1.0" encoding="UTF-8"?>
<!-- Created with Inkscape (http://www.inkscape.org/) -->
<svg width="100" height="650" version="1.1" viewBox="0 0 100 650" xmlns="http://www.w3.org/2000/svg" xmlns:cc="http://creativecommons.org/ns#" xmlns:dc="http://purl.org/dc/elements/1.1/" xmlns:rdf="http://www.w3.org/1999/02/22-rdf-syntax-ns#">
 <metadata>
  <rdf:RDF>
   <cc:Work rdf:about="">
    <dc:format>image/svg+xml</dc:format>
    <dc:type rdf:resource="http://purl.org/dc/dcmitype/StillImage"/>
    <dc:title/>
   </cc:Work>
  </rdf:RDF>
 </metadata>
 <g transform="translate(23.164 -82.66)" fill="#e00000">
  <circle cx="16.79" cy="727.68" r="4.9153"/>
  <circle cx="18.594" cy="705.2" r="4.9153"/>
  <circle cx="19.01" cy="694.65" r="4.9153"/>
  <circle cx="20.398" cy="684.11" r="4.9153"/>
  <circle cx="22.202" cy="670.23" r="4.9153"/>
  <circle cx="25.393" cy="654.13" r="4.9153"/>
  <circle cx="28.307" cy="638.32" r="4.9153"/>
  <circle cx="31.083" cy="622.5" r="4.9153"/>
  <circle cx="32.609" cy="606.4" r="4.9153"/>
  <circle cx="35.662" cy="587.39" r="4.9153"/>
  <circle cx="37.327" cy="568.93" r="4.9153"/>
  <circle cx="44.404" cy="551.31" r="4.9153"/>
  <circle cx="47.595" cy="534.11" r="4.9153"/>
  <circle cx="52.175" cy="517.73" r="4.9153"/>
  <circle cx="52.868" cy="498.17" r="4.9153"/>
  <circle cx="49.399" cy="482.07" r="4.9153"/>
  <circle cx="49.538" cy="461.26" r="4.9153"/>
  <circle cx="53.285" cy="442.52" r="4.9153"/>
  <circle cx="53.978" cy="424.62" r="4.9153"/>
  <circle cx="58.974" cy="408.8" r="4.9153"/>
  <circle cx="59.529" cy="394.09" r="4.9153"/>
  <circle cx="64.247" cy="377.17" r="4.9153"/>
  <circle cx="64.524" cy="360.79" r="4.9153"/>
  <circle cx="62.304" cy="342.61" r="4.9153"/>
  <circle cx="62.027" cy="323.6" r="4.9153"/>
  <circle cx="64.941" cy="306.54" r="4.9153"/>
  <circle cx="65.912" cy="286" r="4.9153"/>
  <circle cx="69.104" cy="266.29" r="4.9153"/>
  <circle cx="71.046" cy="247.98" r="4.9153"/>
  <circle cx="67.022" cy="227.86" r="4.9153"/>
 </g>
</svg>
