<?xml version="1.0" encoding="UTF-8"?>
<!-- Created with Inkscape (http://www.inkscape.org/) -->
<svg width="100" height="650" version="1.1" viewBox="0 0 100 650" xmlns="http://www.w3.org/2000/svg" xmlns:cc="http://creativecommons.org/ns#" xmlns:dc="http://purl.org/dc/elements/1.1/" xmlns:rdf="http://www.w3.org/1999/02/22-rdf-syntax-ns#">
 <metadata>
  <rdf:RDF>
   <cc:Work rdf:about="">
    <dc:format>image/svg+xml</dc:format>
    <dc:type rdf:resource="http://purl.org/dc/dcmitype/StillImage"/>
    <dc:title/>
   </cc:Work>
  </rdf:RDF>
 </metadata>
 <g transform="translate(23.036 62.583)" fill="#e00000">
  <circle cx="26.875" cy="582.22" r="4.9153"/>
  <circle cx="29.585" cy="567.32" r="4.9153"/>
  <circle cx="28.907" cy="560.32" r="4.9153"/>
  <circle cx="32.973" cy="551.51" r="4.9153"/>
  <circle cx="32.973" cy="540.22" r="4.9153"/>
  <circle cx="36.36" cy="529.83" r="4.9153"/>
  <circle cx="37.264" cy="516.96" r="4.9153"/>
  <circle cx="39.296" cy="504.99" r="4.9153"/>
  <circle cx="41.78" cy="494.6" r="4.9153"/>
  <circle cx="38.619" cy="481.05" r="4.9153"/>
  <circle cx="37.264" cy="467.04" r="4.9153"/>
  <circle cx="40.199" cy="453.49" r="4.9153"/>
  <circle cx="41.103" cy="441.3" r="4.9153"/>
  <circle cx="38.844" cy="426.17" r="4.9153"/>
  <circle cx="37.489" cy="413.29" r="4.9153"/>
  <circle cx="42.458" cy="397.94" r="4.9153"/>
  <circle cx="42.684" cy="382.13" r="4.9153"/>
  <circle cx="47.426" cy="368.8" r="4.9153"/>
  <circle cx="49.459" cy="352.54" r="4.9153"/>
  <circle cx="41.329" cy="338.77" r="4.9153"/>
  <circle cx="41.78" cy="324.99" r="4.9153"/>
  <circle cx="47.426" cy="309.63" r="4.9153"/>
  <circle cx="49.459" cy="295.86" r="4.9153"/>
  <circle cx="55.557" cy="280.28" r="4.9153"/>
  <circle cx="56.686" cy="266.95" r="4.9153"/>
  <circle cx="60.525" cy="252.5" r="4.9153"/>
  <circle cx="60.977" cy="236.01" r="4.9153"/>
  <circle cx="68.204" cy="221.33" r="4.9153"/>
  <circle cx="71.365" cy="204.39" r="4.9153"/>
  <circle cx="67.3" cy="187.68" r="4.9153"/>
 </g>
</svg>
