<?xml version="1.0" encoding="UTF-8"?>
<!-- Created with Inkscape (http://www.inkscape.org/) -->
<svg width="100" height="650" version="1.1" viewBox="0 0 100 650" xmlns="http://www.w3.org/2000/svg" xmlns:cc="http://creativecommons.org/ns#" xmlns:dc="http://purl.org/dc/elements/1.1/" xmlns:rdf="http://www.w3.org/1999/02/22-rdf-syntax-ns#">
 <metadata>
  <rdf:RDF>
   <cc:Work rdf:about="">
    <dc:format>image/svg+xml</dc:format>
    <dc:type rdf:resource="http://purl.org/dc/dcmitype/StillImage"/>
    <dc:title/>
   </cc:Work>
  </rdf:RDF>
 </metadata>
 <g transform="translate(31.95 25.24)" fill="#e00000">
  <circle cx="17.938" cy="619.71" r="4.9153"/>
  <circle cx="16.753" cy="605.83" r="4.9153"/>
  <circle cx="16.415" cy="599.74" r="4.9153"/>
  <circle cx="19.8" cy="591.11" r="4.9153"/>
  <circle cx="22.338" cy="579.77" r="4.9153"/>
  <circle cx="20.138" cy="567.59" r="4.9153"/>
  <circle cx="19.461" cy="553.71" r="4.9153"/>
  <circle cx="24.876" cy="541.69" r="4.9153"/>
  <circle cx="27.584" cy="526.97" r="4.9153"/>
  <circle cx="32.661" cy="512.59" r="4.9153"/>
  <circle cx="33.676" cy="496.85" r="4.9153"/>
  <circle cx="31.138" cy="482.47" r="4.9153"/>
  <circle cx="30.968" cy="466.9" r="4.9153"/>
  <circle cx="27.415" cy="451.33" r="4.9153"/>
  <circle cx="27.076" cy="437.79" r="4.9153"/>
  <circle cx="23.184" cy="421.04" r="4.9153"/>
  <circle cx="21.661" cy="406.82" r="4.9153"/>
  <circle cx="25.384" cy="390.58" r="4.9153"/>
  <circle cx="26.399" cy="377.71" r="4.9153"/>
  <circle cx="30.968" cy="362.15" r="4.9153"/>
  <circle cx="32.661" cy="345.56" r="4.9153"/>
  <circle cx="30.968" cy="332.53" r="4.9153"/>
  <circle cx="30.292" cy="316.79" r="4.9153"/>
  <circle cx="33.507" cy="301.22" r="4.9153"/>
  <circle cx="34.522" cy="284.13" r="4.9153"/>
  <circle cx="38.584" cy="269.07" r="4.9153"/>
  <circle cx="40.614" cy="254.35" r="4.9153"/>
  <circle cx="42.984" cy="236.24" r="4.9153"/>
  <circle cx="43.999" cy="220.33" r="4.9153"/>
  <circle cx="50.43" cy="202.73" r="4.9153"/>
 </g>
</svg>
