<?xml version="1.0" encoding="UTF-8"?>
<!-- Created with Inkscape (http://www.inkscape.org/) -->
<svg width="93" height="745" version="1.1" viewBox="0 0 93 745" xmlns="http://www.w3.org/2000/svg" xmlns:cc="http://creativecommons.org/ns#" xmlns:dc="http://purl.org/dc/elements/1.1/" xmlns:rdf="http://www.w3.org/1999/02/22-rdf-syntax-ns#">
 <metadata>
  <rdf:RDF>
   <cc:Work rdf:about="">
    <dc:format>image/svg+xml</dc:format>
    <dc:type rdf:resource="http://purl.org/dc/dcmitype/StillImage"/>
    <dc:title/>
   </cc:Work>
  </rdf:RDF>
 </metadata>
 <g transform="translate(-14)" fill="#e00000">
  <circle cx="48.733" cy="739.71" r="4.9153"/>
  <circle cx="48.733" cy="721.43" r="4.9153"/>
  <circle cx="48.873" cy="714.45" r="4.9153"/>
  <circle cx="51.942" cy="702.87" r="4.9153"/>
  <circle cx="53.337" cy="689.9" r="4.9153"/>
  <circle cx="50.966" cy="675.67" r="4.9153"/>
  <circle cx="50.129" cy="662.83" r="4.9153"/>
  <circle cx="52.64" cy="646.79" r="4.9153"/>
  <circle cx="53.756" cy="629.63" r="4.9153"/>
  <circle cx="50.547" cy="612.47" r="4.9153"/>
  <circle cx="48.733" cy="597.26" r="4.9153"/>
  <circle cx="51.942" cy="582.62" r="4.9153"/>
  <circle cx="52.082" cy="563.64" r="4.9153"/>
  <circle cx="56.128" cy="546.34" r="4.9153"/>
  <circle cx="56.965" cy="526.53" r="4.9153"/>
  <circle cx="63.661" cy="510.49" r="4.9153"/>
  <circle cx="67.009" cy="489.98" r="4.9153"/>
  <circle cx="65.893" cy="472.26" r="4.9153"/>
  <circle cx="65.754" cy="453.29" r="4.9153"/>
  <circle cx="68.684" cy="430.83" r="4.9153"/>
  <circle cx="69.242" cy="413.81" r="4.9153"/>
  <circle cx="78.589" cy="394.14" r="4.9153"/>
  <circle cx="80.542" cy="377.67" r="4.9153"/>
  <circle cx="85.006" cy="360.93" r="4.9153"/>
  <circle cx="86.402" cy="341.4" r="4.9153"/>
  <circle cx="90.447" cy="324.94" r="4.9153"/>
  <circle cx="93.377" cy="306.66" r="4.9153"/>
  <circle cx="95.47" cy="290.06" r="4.9153"/>
  <circle cx="98.26" cy="270.39" r="4.9153"/>
  <circle cx="100.63" cy="249.18" r="4.9153"/>
 </g>
</svg>
