<?xml version="1.0" encoding="UTF-8"?>
<!-- Created with Inkscape (http://www.inkscape.org/) -->
<svg width="100" height="650" version="1.1" viewBox="0 0 100 650" xmlns="http://www.w3.org/2000/svg" xmlns:cc="http://creativecommons.org/ns#" xmlns:dc="http://purl.org/dc/elements/1.1/" xmlns:rdf="http://www.w3.org/1999/02/22-rdf-syntax-ns#">
 <metadata>
  <rdf:RDF>
   <cc:Work rdf:about="">
    <dc:format>image/svg+xml</dc:format>
    <dc:type rdf:resource="http://purl.org/dc/dcmitype/StillImage"/>
    <dc:title/>
   </cc:Work>
  </rdf:RDF>
 </metadata>
 <g transform="translate(16.985 -267.66)" fill="#e00000">
  <circle cx="10.478" cy="912.56" r="4.9153"/>
  <circle cx="12.723" cy="887.12" r="4.9153"/>
  <circle cx="13.471" cy="879.13" r="4.9153"/>
  <circle cx="15.717" cy="866.91" r="4.9153"/>
  <circle cx="16.964" cy="851.44" r="4.9153"/>
  <circle cx="15.218" cy="831.98" r="4.9153"/>
  <circle cx="15.467" cy="810.53" r="4.9153"/>
  <circle cx="20.457" cy="792.82" r="4.9153"/>
  <circle cx="25.197" cy="770.11" r="4.9153"/>
  <circle cx="28.44" cy="748.16" r="4.9153"/>
  <circle cx="30.685" cy="726.96" r="4.9153"/>
  <circle cx="38.169" cy="707.25" r="4.9153"/>
  <circle cx="39.915" cy="687.29" r="4.9153"/>
  <circle cx="35.674" cy="663.84" r="4.9153"/>
  <circle cx="33.678" cy="644.13" r="4.9153"/>
  <circle cx="39.416" cy="626.42" r="4.9153"/>
  <circle cx="41.911" cy="603.22" r="4.9153"/>
  <circle cx="48.397" cy="582.76" r="4.9153"/>
  <circle cx="51.141" cy="559.06" r="4.9153"/>
  <circle cx="47.898" cy="536.11" r="4.9153"/>
  <circle cx="46.651" cy="509.67" r="4.9153"/>
  <circle cx="53.137" cy="485.47" r="4.9153"/>
  <circle cx="55.133" cy="457.78" r="4.9153"/>
  <circle cx="58.875" cy="434.58" r="4.9153"/>
  <circle cx="59.873" cy="411.38" r="4.9153"/>
  <circle cx="63.615" cy="387.43" r="4.9153"/>
  <circle cx="64.613" cy="360.24" r="4.9153"/>
  <circle cx="69.353" cy="333.54" r="4.9153"/>
  <circle cx="71.349" cy="308.59" r="4.9153"/>
  <circle cx="77.336" cy="281.15" r="4.9153"/>
 </g>
</svg>
