<?xml version="1.0" encoding="UTF-8"?>
<!-- Created with Inkscape (http://www.inkscape.org/) -->
<svg width="100" height="650" version="1.1" viewBox="0 0 100 650" xmlns="http://www.w3.org/2000/svg" xmlns:cc="http://creativecommons.org/ns#" xmlns:dc="http://purl.org/dc/elements/1.1/" xmlns:rdf="http://www.w3.org/1999/02/22-rdf-syntax-ns#">
 <metadata>
  <rdf:RDF>
   <cc:Work rdf:about="">
    <dc:format>image/svg+xml</dc:format>
    <dc:type rdf:resource="http://purl.org/dc/dcmitype/StillImage"/>
    <dc:title/>
   </cc:Work>
  </rdf:RDF>
 </metadata>
 <g transform="translate(16.296 .82302)" fill="#e00000">
  <circle cx="32.844" cy="644.15" r="4.9153"/>
  <circle cx="32.379" cy="637.17" r="4.9153"/>
  <circle cx="35.987" cy="624.94" r="4.9153"/>
  <circle cx="37.733" cy="609.35" r="4.9153"/>
  <circle cx="32.146" cy="591.66" r="4.9153"/>
  <circle cx="30.051" cy="573.15" r="4.9153"/>
  <circle cx="33.426" cy="551.38" r="4.9153"/>
  <circle cx="35.521" cy="531.95" r="4.9153"/>
  <circle cx="39.013" cy="513.09" r="4.9153"/>
  <circle cx="40.526" cy="492.02" r="4.9153"/>
  <circle cx="43.785" cy="473.4" r="4.9153"/>
  <circle cx="45.298" cy="452.45" r="4.9153"/>
  <circle cx="41.69" cy="431.5" r="4.9153"/>
  <circle cx="42.039" cy="412.18" r="4.9153"/>
  <circle cx="38.78" cy="392.86" r="4.9153"/>
  <circle cx="37.616" cy="369.69" r="4.9153"/>
  <circle cx="34.823" cy="347.93" r="4.9153"/>
  <circle cx="34.008" cy="326.86" r="4.9153"/>
  <circle cx="41.224" cy="306.38" r="4.9153"/>
  <circle cx="43.203" cy="285.89" r="4.9153"/>
  <circle cx="51.118" cy="262.85" r="4.9153"/>
  <circle cx="55.075" cy="239.8" r="4.9153"/>
  <circle cx="57.636" cy="216.06" r="4.9153"/>
  <circle cx="60.08" cy="195.34" r="4.9153"/>
  <circle cx="65.318" cy="174.85" r="4.9153"/>
  <circle cx="67.064" cy="151.22" r="4.9153"/>
  <circle cx="63.456" cy="128.3" r="4.9153"/>
  <circle cx="61.477" cy="103.85" r="4.9153"/>
  <circle cx="64.387" cy="81.622" r="4.9153"/>
  <circle cx="64.037" cy="54.269" r="4.9153"/>
 </g>
</svg>
