<?xml version="1.0" encoding="UTF-8"?>
<!-- Created with Inkscape (http://www.inkscape.org/) -->
<svg width="100" height="650" version="1.1" viewBox="0 0 100 650" xmlns="http://www.w3.org/2000/svg" xmlns:cc="http://creativecommons.org/ns#" xmlns:dc="http://purl.org/dc/elements/1.1/" xmlns:rdf="http://www.w3.org/1999/02/22-rdf-syntax-ns#">
 <metadata>
  <rdf:RDF>
   <cc:Work rdf:about="">
    <dc:format>image/svg+xml</dc:format>
    <dc:type rdf:resource="http://purl.org/dc/dcmitype/StillImage"/>
    <dc:title/>
   </cc:Work>
  </rdf:RDF>
 </metadata>
 <g transform="translate(-62.373 64.746)">
  <g fill="#e00000">
   <circle cx="112.37" cy="580.17" r="4.9153"/>
   <circle cx="116.95" cy="573.05" r="4.9153"/>
   <circle cx="113.9" cy="566.61" r="4.9153"/>
   <circle cx="111.02" cy="563.22" r="4.9153"/>
   <circle cx="112.54" cy="554.75" r="4.9153"/>
   <circle cx="105.25" cy="548.98" r="4.9153"/>
   <circle cx="105.76" cy="539.49" r="4.9153"/>
   <circle cx="106.95" cy="529.15" r="4.9153"/>
   <circle cx="109.49" cy="523.73" r="4.9153"/>
   <circle cx="112.03" cy="509.32" r="4.9153"/>
   <circle cx="110.51" cy="500" r="4.9153"/>
   <circle cx="112.88" cy="486.78" r="4.9153"/>
   <circle cx="111.69" cy="474.24" r="4.9153"/>
   <circle cx="117.46" cy="463.73" r="4.9153"/>
   <circle cx="120" cy="447.46" r="4.9153"/>
   <circle cx="119.66" cy="438.31" r="4.9153"/>
   <circle cx="126.61" cy="422.03" r="4.9153"/>
   <circle cx="116.78" cy="408.47" r="4.9153"/>
   <circle cx="115.08" cy="396.95" r="4.9153"/>
   <circle cx="107.29" cy="382.54" r="4.9153"/>
   <circle cx="103.39" cy="367.12" r="4.9153"/>
   <circle cx="101.36" cy="353.73" r="4.9153"/>
   <circle cx="94.915" cy="337.46" r="4.9153"/>
   <circle cx="89.492" cy="322.88" r="4.9153"/>
   <circle cx="86.949" cy="303.39" r="4.9153"/>
  </g>
 </g>
</svg>
