<?xml version="1.0" encoding="UTF-8"?>
<!-- Created with Inkscape (http://www.inkscape.org/) -->
<svg width="100" height="650" version="1.1" viewBox="0 0 100 650" xmlns="http://www.w3.org/2000/svg" xmlns:cc="http://creativecommons.org/ns#" xmlns:dc="http://purl.org/dc/elements/1.1/" xmlns:rdf="http://www.w3.org/1999/02/22-rdf-syntax-ns#">
 <metadata>
  <rdf:RDF>
   <cc:Work rdf:about="">
    <dc:format>image/svg+xml</dc:format>
    <dc:type rdf:resource="http://purl.org/dc/dcmitype/StillImage"/>
    <dc:title/>
   </cc:Work>
  </rdf:RDF>
 </metadata>
 <g transform="translate(-26.034 27.696)" fill="#e00000">
  <circle cx="75.856" cy="617.36" r="4.9153"/>
  <circle cx="76.77" cy="610.18" r="4.9153"/>
  <circle cx="73.898" cy="601.69" r="4.9153"/>
  <circle cx="75.203" cy="594.64" r="4.9153"/>
  <circle cx="66.586" cy="588.77" r="4.9153"/>
  <circle cx="70.242" cy="582.63" r="4.9153"/>
  <circle cx="64.758" cy="572.32" r="4.9153"/>
  <circle cx="61.886" cy="568.4" r="4.9153"/>
  <circle cx="65.934" cy="555.6" r="4.9153"/>
  <circle cx="64.497" cy="545.94" r="4.9153"/>
  <circle cx="72.853" cy="538.24" r="4.9153"/>
  <circle cx="73.506" cy="523.49" r="4.9153"/>
  <circle cx="73.767" cy="513.69" r="4.9153"/>
  <circle cx="76.117" cy="499.72" r="4.9153"/>
  <circle cx="73.376" cy="487.58" r="4.9153"/>
  <circle cx="75.334" cy="476.09" r="4.9153"/>
  <circle cx="77.815" cy="460.69" r="4.9153"/>
  <circle cx="79.251" cy="451.29" r="4.9153"/>
  <circle cx="76.901" cy="436.27" r="4.9153"/>
  <circle cx="69.85" cy="424.26" r="4.9153"/>
  <circle cx="68.153" cy="412.9" r="4.9153"/>
  <circle cx="62.147" cy="399.71" r="4.9153"/>
  <circle cx="68.284" cy="390.7" r="4.9153"/>
  <circle cx="71.417" cy="373.73" r="4.9153"/>
  <circle cx="62.931" cy="361.2" r="4.9153"/>
 </g>
</svg>
