<?xml version="1.0" encoding="UTF-8"?>
<!-- Created with Inkscape (http://www.inkscape.org/) -->
<svg width="100" height="650" version="1.1" viewBox="0 0 100 650" xmlns="http://www.w3.org/2000/svg" xmlns:cc="http://creativecommons.org/ns#" xmlns:dc="http://purl.org/dc/elements/1.1/" xmlns:rdf="http://www.w3.org/1999/02/22-rdf-syntax-ns#">
 <metadata>
  <rdf:RDF>
   <cc:Work rdf:about="">
    <dc:format>image/svg+xml</dc:format>
    <dc:type rdf:resource="http://purl.org/dc/dcmitype/StillImage"/>
    <dc:title/>
   </cc:Work>
  </rdf:RDF>
 </metadata>
 <g transform="translate(-44.778 99.857)" fill="#e00000">
  <circle cx="94.355" cy="545.12" r="4.9153"/>
  <circle cx="93.441" cy="533.47" r="4.9153"/>
  <circle cx="90.014" cy="527.3" r="4.9153"/>
  <circle cx="94.583" cy="523.41" r="4.9153"/>
  <circle cx="98.924" cy="516.1" r="4.9153"/>
  <circle cx="98.467" cy="508.33" r="4.9153"/>
  <circle cx="102.35" cy="502.62" r="4.9153"/>
  <circle cx="105.55" cy="494.17" r="4.9153"/>
  <circle cx="105.78" cy="485.49" r="4.9153"/>
  <circle cx="111.03" cy="474.75" r="4.9153"/>
  <circle cx="110.8" cy="464.01" r="4.9153"/>
  <circle cx="113.55" cy="455.79" r="4.9153"/>
  <circle cx="113.32" cy="442.08" r="4.9153"/>
  <circle cx="105.78" cy="432.03" r="4.9153"/>
  <circle cx="105.78" cy="419.01" r="4.9153"/>
  <circle cx="98.238" cy="404.16" r="4.9153"/>
  <circle cx="97.781" cy="392.05" r="4.9153"/>
  <circle cx="94.583" cy="374.91" r="4.9153"/>
  <circle cx="92.984" cy="363.72" r="4.9153"/>
  <circle cx="95.725" cy="348.64" r="4.9153"/>
  <circle cx="92.298" cy="335.16" r="4.9153"/>
  <circle cx="88.871" cy="322.14" r="4.9153"/>
  <circle cx="89.328" cy="305.69" r="4.9153"/>
  <circle cx="92.527" cy="295.18" r="4.9153"/>
  <circle cx="97.781" cy="280.79" r="4.9153"/>
 </g>
</svg>
