<?xml version="1.0" encoding="UTF-8"?>
<!-- Created with Inkscape (http://www.inkscape.org/) -->
<svg width="100" height="650" version="1.1" viewBox="0 0 100 650" xmlns="http://www.w3.org/2000/svg" xmlns:cc="http://creativecommons.org/ns#" xmlns:dc="http://purl.org/dc/elements/1.1/" xmlns:rdf="http://www.w3.org/1999/02/22-rdf-syntax-ns#">
 <metadata>
  <rdf:RDF>
   <cc:Work rdf:about="">
    <dc:format>image/svg+xml</dc:format>
    <dc:type rdf:resource="http://purl.org/dc/dcmitype/StillImage"/>
    <dc:title/>
   </cc:Work>
  </rdf:RDF>
 </metadata>
 <g transform="translate(-71.492 95.78)" fill="#e00000">
  <circle cx="120.6" cy="548.75" r="4.9153"/>
  <circle cx="122.13" cy="539.33" r="4.9153"/>
  <circle cx="123.82" cy="533.05" r="4.9153"/>
  <circle cx="119.72" cy="529.02" r="4.9153"/>
  <circle cx="124.06" cy="523.55" r="4.9153"/>
  <circle cx="118.75" cy="516.46" r="4.9153"/>
  <circle cx="117.22" cy="510.26" r="4.9153"/>
  <circle cx="120.04" cy="499.39" r="4.9153"/>
  <circle cx="116.33" cy="493.76" r="4.9153"/>
  <circle cx="125.51" cy="483.69" r="4.9153"/>
  <circle cx="121.65" cy="471.46" r="4.9153"/>
  <circle cx="120.2" cy="463.57" r="4.9153"/>
  <circle cx="117.94" cy="445.05" r="4.9153"/>
  <circle cx="117.62" cy="438.21" r="4.9153"/>
  <circle cx="121.08" cy="424.84" r="4.9153"/>
  <circle cx="115.69" cy="410.83" r="4.9153"/>
  <circle cx="117.54" cy="399.16" r="4.9153"/>
  <circle cx="122.61" cy="380.89" r="4.9153"/>
  <circle cx="124.55" cy="369.21" r="4.9153"/>
  <circle cx="124.06" cy="355.28" r="4.9153"/>
  <circle cx="121.41" cy="341.11" r="4.9153"/>
  <circle cx="118.35" cy="328.31" r="4.9153"/>
  <circle cx="117.38" cy="311.33" r="4.9153"/>
  <circle cx="109.97" cy="300.78" r="4.9153"/>
  <circle cx="113.6" cy="283.87" r="4.9153"/>
  <circle cx="114.97" cy="266.48" r="4.9153"/>
 </g>
</svg>
