<?xml version="1.0" encoding="UTF-8"?>
<!-- Created with Inkscape (http://www.inkscape.org/) -->
<svg width="100" height="650" version="1.1" viewBox="0 0 100 650" xmlns="http://www.w3.org/2000/svg" xmlns:cc="http://creativecommons.org/ns#" xmlns:dc="http://purl.org/dc/elements/1.1/" xmlns:rdf="http://www.w3.org/1999/02/22-rdf-syntax-ns#">
 <metadata>
  <rdf:RDF>
   <cc:Work rdf:about="">
    <dc:format>image/svg+xml</dc:format>
    <dc:type rdf:resource="http://purl.org/dc/dcmitype/StillImage"/>
    <dc:title/>
   </cc:Work>
  </rdf:RDF>
 </metadata>
 <g transform="translate(-23.462 220.74)" fill="#e00000">
  <circle cx="73.978" cy="424.07" r="4.9153"/>
  <circle cx="75.332" cy="410.86" r="4.9153"/>
  <circle cx="80.58" cy="399.86" r="4.9153"/>
  <circle cx="77.702" cy="382.08" r="4.9153"/>
  <circle cx="80.749" cy="363.12" r="4.9153"/>
  <circle cx="70.084" cy="340.95" r="4.9153"/>
  <circle cx="52.987" cy="318.26" r="4.9153"/>
  <circle cx="52.479" cy="298.8" r="4.9153"/>
  <circle cx="48.247" cy="273.74" r="4.9153"/>
  <circle cx="50.447" cy="254.78" r="4.9153"/>
  <circle cx="41.644" cy="228.2" r="4.9153"/>
  <circle cx="31.826" cy="205.01" r="4.9153"/>
  <circle cx="39.952" cy="184.19" r="4.9153"/>
  <circle cx="37.243" cy="166.41" r="4.9153"/>
  <circle cx="41.306" cy="140.17" r="4.9153"/>
  <circle cx="37.751" cy="120.03" r="4.9153"/>
  <circle cx="30.641" cy="100.05" r="4.9153"/>
  <circle cx="33.519" cy="77.37" r="4.9153"/>
  <circle cx="43.676" cy="51.469" r="4.9153"/>
 </g>
</svg>
