<?xml version="1.0" encoding="UTF-8"?>
<!-- Created with Inkscape (http://www.inkscape.org/) -->
<svg width="100" height="650" version="1.1" viewBox="0 0 100 650" xmlns="http://www.w3.org/2000/svg" xmlns:cc="http://creativecommons.org/ns#" xmlns:dc="http://purl.org/dc/elements/1.1/" xmlns:rdf="http://www.w3.org/1999/02/22-rdf-syntax-ns#">
 <metadata>
  <rdf:RDF>
   <cc:Work rdf:about="">
    <dc:format>image/svg+xml</dc:format>
    <dc:type rdf:resource="http://purl.org/dc/dcmitype/StillImage"/>
    <dc:title/>
   </cc:Work>
  </rdf:RDF>
 </metadata>
 <g transform="translate(-32.472 149.64)" fill="#e00000">
  <circle cx="56.059" cy="495.67" r="4.9153"/>
  <circle cx="54.772" cy="473.22" r="4.9153"/>
  <circle cx="60.207" cy="460.2" r="4.9153"/>
  <circle cx="69.216" cy="437.89" r="4.9153"/>
  <circle cx="78.083" cy="413.87" r="4.9153"/>
  <circle cx="90.524" cy="389.7" r="4.9153"/>
  <circle cx="91.382" cy="364.96" r="4.9153"/>
  <circle cx="81.229" cy="341.36" r="4.9153"/>
  <circle cx="84.947" cy="314.05" r="4.9153"/>
  <circle cx="96.531" cy="291.31" r="4.9153"/>
  <circle cx="91.954" cy="270.14" r="4.9153"/>
  <circle cx="97.961" cy="243.83" r="4.9153"/>
  <circle cx="104.83" cy="216.09" r="4.9153"/>
  <circle cx="113.69" cy="194.63" r="4.9153"/>
  <circle cx="109.69" cy="167.18" r="4.9153"/>
  <circle cx="113.55" cy="140.29" r="4.9153"/>
  <circle cx="119.84" cy="111.12" r="4.9153"/>
  <circle cx="127.42" cy="80.514" r="4.9153"/>
  <circle cx="114.41" cy="62.209" r="4.9153"/>
 </g>
</svg>
