<?xml version="1.0" encoding="UTF-8"?>
<!-- Created with Inkscape (http://www.inkscape.org/) -->
<svg width="100" height="650" version="1.1" viewBox="0 0 100 650" xmlns="http://www.w3.org/2000/svg" xmlns:cc="http://creativecommons.org/ns#" xmlns:dc="http://purl.org/dc/elements/1.1/" xmlns:rdf="http://www.w3.org/1999/02/22-rdf-syntax-ns#">
 <metadata>
  <rdf:RDF>
   <cc:Work rdf:about="">
    <dc:format>image/svg+xml</dc:format>
    <dc:type rdf:resource="http://purl.org/dc/dcmitype/StillImage"/>
    <dc:title/>
   </cc:Work>
  </rdf:RDF>
 </metadata>
 <g transform="translate(-19.294 158.84)" fill="#e00000">
  <circle cx="75.882" cy="486.26" r="4.9153"/>
  <circle cx="78.147" cy="461.72" r="4.9153"/>
  <circle cx="73.995" cy="449.64" r="4.9153"/>
  <circle cx="70.219" cy="433.03" r="4.9153"/>
  <circle cx="66.444" cy="411.51" r="4.9153"/>
  <circle cx="53.231" cy="386.21" r="4.9153"/>
  <circle cx="55.496" cy="360.92" r="4.9153"/>
  <circle cx="63.046" cy="340.91" r="4.9153"/>
  <circle cx="55.118" cy="324.68" r="4.9153"/>
  <circle cx="42.66" cy="297.87" r="4.9153"/>
  <circle cx="42.283" cy="272.2" r="4.9153"/>
  <circle cx="38.13" cy="246.15" r="4.9153"/>
  <circle cx="41.15" cy="225.77" r="4.9153"/>
  <circle cx="48.7" cy="201.98" r="4.9153"/>
  <circle cx="53.608" cy="173.29" r="4.9153"/>
  <circle cx="47.568" cy="150.64" r="4.9153"/>
  <circle cx="52.476" cy="121.95" r="4.9153"/>
  <circle cx="40.395" cy="94.387" r="4.9153"/>
  <circle cx="25.294" cy="65.318" r="4.9153"/>
 </g>
</svg>
