<?xml version="1.0" encoding="UTF-8"?>
<!-- Created with Inkscape (http://www.inkscape.org/) -->
<svg width="100" height="650" version="1.1" viewBox="0 0 100 650" xmlns="http://www.w3.org/2000/svg" xmlns:cc="http://creativecommons.org/ns#" xmlns:dc="http://purl.org/dc/elements/1.1/" xmlns:rdf="http://www.w3.org/1999/02/22-rdf-syntax-ns#">
 <metadata>
  <rdf:RDF>
   <cc:Work rdf:about="">
    <dc:format>image/svg+xml</dc:format>
    <dc:type rdf:resource="http://purl.org/dc/dcmitype/StillImage"/>
    <dc:title/>
   </cc:Work>
  </rdf:RDF>
 </metadata>
 <g transform="translate(-18.382 218.51)" fill="#e00000">
  <circle cx="68.505" cy="426.49" r="4.9153"/>
  <circle cx="68.505" cy="409.63" r="4.9153"/>
  <circle cx="70.261" cy="393.82" r="4.9153"/>
  <circle cx="66.748" cy="378.36" r="4.9153"/>
  <circle cx="60.073" cy="357.28" r="4.9153"/>
  <circle cx="47.778" cy="335.15" r="4.9153"/>
  <circle cx="34.077" cy="316.53" r="4.9153"/>
  <circle cx="40.4" cy="289.83" r="4.9153"/>
  <circle cx="49.183" cy="273.32" r="4.9153"/>
  <circle cx="60.776" cy="251.89" r="4.9153"/>
  <circle cx="68.505" cy="231.17" r="4.9153"/>
  <circle cx="77.99" cy="208.33" r="4.9153"/>
  <circle cx="75.531" cy="182.69" r="4.9153"/>
  <circle cx="80.449" cy="159.85" r="4.9153"/>
  <circle cx="76.936" cy="139.47" r="4.9153"/>
  <circle cx="80.8" cy="123.67" r="4.9153"/>
  <circle cx="76.233" cy="101.88" r="4.9153"/>
  <circle cx="69.207" cy="77.294" r="4.9153"/>
  <circle cx="74.828" cy="53.756" r="4.9153"/>
 </g>
</svg>
