<?xml version="1.0" encoding="UTF-8"?>
<!-- Created with Inkscape (http://www.inkscape.org/) -->
<svg width="100" height="650" version="1.1" viewBox="0 0 100 650" xmlns="http://www.w3.org/2000/svg" xmlns:cc="http://creativecommons.org/ns#" xmlns:dc="http://purl.org/dc/elements/1.1/" xmlns:rdf="http://www.w3.org/1999/02/22-rdf-syntax-ns#">
 <metadata>
  <rdf:RDF>
   <cc:Work rdf:about="">
    <dc:format>image/svg+xml</dc:format>
    <dc:type rdf:resource="http://purl.org/dc/dcmitype/StillImage"/>
    <dc:title/>
   </cc:Work>
  </rdf:RDF>
 </metadata>
 <g transform="translate(-3.937 115.21)" fill="#e00000">
  <circle cx="54.462" cy="529.76" r="4.9153"/>
  <circle cx="55.118" cy="511.38" r="4.9153"/>
  <circle cx="48.119" cy="499.57" r="4.9153"/>
  <circle cx="42.651" cy="475.73" r="4.9153"/>
  <circle cx="36.308" cy="451.67" r="4.9153"/>
  <circle cx="42.432" cy="424.55" r="4.9153"/>
  <circle cx="41.776" cy="398.52" r="4.9153"/>
  <circle cx="51.619" cy="370.53" r="4.9153"/>
  <circle cx="59.712" cy="345.81" r="4.9153"/>
  <circle cx="57.962" cy="319.34" r="4.9153"/>
  <circle cx="43.307" cy="288.94" r="4.9153"/>
  <circle cx="42.87" cy="265.32" r="4.9153"/>
  <circle cx="34.558" cy="236.23" r="4.9153"/>
  <circle cx="21.216" cy="204.73" r="4.9153"/>
  <circle cx="25.809" cy="178.49" r="4.9153"/>
  <circle cx="17.935" cy="148.96" r="4.9153"/>
  <circle cx="22.966" cy="122.49" r="4.9153"/>
  <circle cx="30.403" cy="91.872" r="4.9153"/>
  <circle cx="37.62" cy="57.751" r="4.9153"/>
 </g>
</svg>
