<?xml version="1.0" encoding="UTF-8"?>
<!-- Created with Inkscape (http://www.inkscape.org/) -->
<svg width="100" height="650" version="1.1" viewBox="0 0 100 650" xmlns="http://www.w3.org/2000/svg" xmlns:cc="http://creativecommons.org/ns#" xmlns:dc="http://purl.org/dc/elements/1.1/" xmlns:rdf="http://www.w3.org/1999/02/22-rdf-syntax-ns#">
 <metadata>
  <rdf:RDF>
   <cc:Work rdf:about="">
    <dc:format>image/svg+xml</dc:format>
    <dc:type rdf:resource="http://purl.org/dc/dcmitype/StillImage"/>
    <dc:title/>
   </cc:Work>
  </rdf:RDF>
 </metadata>
 <g transform="translate(-24.702 14.556)" fill="#e00000">
  <circle cx="74.861" cy="630.4" r="4.9153"/>
  <circle cx="76.877" cy="601.92" r="4.9153"/>
  <circle cx="79.902" cy="584.53" r="4.9153"/>
  <circle cx="84.439" cy="564.11" r="4.9153"/>
  <circle cx="89.732" cy="533.11" r="4.9153"/>
  <circle cx="87.716" cy="500.34" r="4.9153"/>
  <circle cx="81.162" cy="468.58" r="4.9153"/>
  <circle cx="85.447" cy="438.84" r="4.9153"/>
  <circle cx="81.666" cy="410.61" r="4.9153"/>
  <circle cx="86.707" cy="377.59" r="4.9153"/>
  <circle cx="94.773" cy="344.82" r="4.9153"/>
  <circle cx="88.22" cy="309.03" r="4.9153"/>
  <circle cx="92.757" cy="270.97" r="4.9153"/>
  <circle cx="99.31" cy="235.68" r="4.9153"/>
  <circle cx="96.286" cy="202.41" r="4.9153"/>
  <circle cx="99.31" cy="176.45" r="4.9153"/>
  <circle cx="106.87" cy="147.21" r="4.9153"/>
  <circle cx="115.19" cy="113.18" r="4.9153"/>
  <circle cx="107.12" cy="79.407" r="4.9153"/>
 </g>
</svg>
