<?xml version="1.0" encoding="UTF-8"?>
<!-- Created with Inkscape (http://www.inkscape.org/) -->
<svg width="100" height="650" version="1.1" viewBox="0 0 100 650" xmlns="http://www.w3.org/2000/svg" xmlns:cc="http://creativecommons.org/ns#" xmlns:dc="http://purl.org/dc/elements/1.1/" xmlns:rdf="http://www.w3.org/1999/02/22-rdf-syntax-ns#">
 <metadata>
  <rdf:RDF>
   <cc:Work rdf:about="">
    <dc:format>image/svg+xml</dc:format>
    <dc:type rdf:resource="http://purl.org/dc/dcmitype/StillImage"/>
    <dc:title/>
   </cc:Work>
  </rdf:RDF>
 </metadata>
 <g transform="translate(-12.374 19.623)" fill="#e00000">
  <circle cx="101.29" cy="625.33" r="4.9153"/>
  <circle cx="101.85" cy="602.16" r="4.9153"/>
  <circle cx="99.051" cy="587.77" r="4.9153"/>
  <circle cx="94.379" cy="567.77" r="4.9153"/>
  <circle cx="101.67" cy="544.03" r="4.9153"/>
  <circle cx="107.46" cy="518.24" r="4.9153"/>
  <circle cx="102.98" cy="489.28" r="4.9153"/>
  <circle cx="91.202" cy="461.24" r="4.9153"/>
  <circle cx="92.323" cy="434.89" r="4.9153"/>
  <circle cx="81.11" cy="410.6" r="4.9153"/>
  <circle cx="71.765" cy="390.22" r="4.9153"/>
  <circle cx="65.411" cy="371.91" r="4.9153"/>
  <circle cx="67.654" cy="348.55" r="4.9153"/>
  <circle cx="59.431" cy="327.24" r="4.9153"/>
  <circle cx="61.673" cy="306.87" r="4.9153"/>
  <circle cx="56.814" cy="283.14" r="4.9153"/>
  <circle cx="42.237" cy="256.41" r="4.9153"/>
  <circle cx="26.725" cy="219.22" r="4.9153"/>
  <circle cx="17.941" cy="192.87" r="4.9153"/>
 </g>
</svg>
