<?xml version="1.0" encoding="UTF-8"?>
<!-- Created with Inkscape (http://www.inkscape.org/) -->
<svg width="170" height="650" version="1.1" viewBox="0 0 170 650" xmlns="http://www.w3.org/2000/svg" xmlns:cc="http://creativecommons.org/ns#" xmlns:dc="http://purl.org/dc/elements/1.1/" xmlns:rdf="http://www.w3.org/1999/02/22-rdf-syntax-ns#">
 <metadata>
  <rdf:RDF>
   <cc:Work rdf:about="">
    <dc:format>image/svg+xml</dc:format>
    <dc:type rdf:resource="http://purl.org/dc/dcmitype/StillImage"/>
    <dc:title/>
   </cc:Work>
  </rdf:RDF>
 </metadata>
 <g transform="translate(-25.449 -52.551)" fill="#e00000">
  <circle cx="187.59" cy="697.46" r="4.9153"/>
  <circle cx="187.04" cy="671.83" r="4.9153"/>
  <circle cx="175.59" cy="652.2" r="4.9153"/>
  <circle cx="178.86" cy="622.21" r="4.9153"/>
  <circle cx="165.23" cy="588.95" r="4.9153"/>
  <circle cx="146.14" cy="551.86" r="4.9153"/>
  <circle cx="127.6" cy="524.6" r="4.9153"/>
  <circle cx="117.24" cy="488.61" r="4.9153"/>
  <circle cx="107.43" cy="449.89" r="4.9153"/>
  <circle cx="100.88" cy="418.26" r="4.9153"/>
  <circle cx="89.976" cy="380.09" r="4.9153"/>
  <circle cx="81.251" cy="346.28" r="4.9153"/>
  <circle cx="71.981" cy="313.56" r="4.9153"/>
  <circle cx="76.344" cy="273.76" r="4.9153"/>
  <circle cx="68.164" cy="235.58" r="4.9153"/>
  <circle cx="59.984" cy="201.77" r="4.9153"/>
  <circle cx="50.169" cy="158.7" r="4.9153"/>
  <circle cx="39.262" cy="120.52" r="4.9153"/>
  <circle cx="30.537" cy="77.444" r="4.9153"/>
 </g>
</svg>
