<?xml version="1.0" encoding="UTF-8"?>
<!-- Created with Inkscape (http://www.inkscape.org/) -->
<svg width="100" height="650" version="1.1" viewBox="0 0 100 650" xmlns="http://www.w3.org/2000/svg" xmlns:cc="http://creativecommons.org/ns#" xmlns:dc="http://purl.org/dc/elements/1.1/" xmlns:rdf="http://www.w3.org/1999/02/22-rdf-syntax-ns#">
 <metadata>
  <rdf:RDF>
   <cc:Work rdf:about="">
    <dc:format>image/svg+xml</dc:format>
    <dc:type rdf:resource="http://purl.org/dc/dcmitype/StillImage"/>
    <dc:title/>
   </cc:Work>
  </rdf:RDF>
 </metadata>
 <g transform="translate(-32.032 241.11)" fill="#e00000">
  <circle cx="89.031" cy="403.83" r="4.9153"/>
  <circle cx="88.802" cy="389.68" r="4.9153"/>
  <circle cx="84.237" cy="378.95" r="4.9153"/>
  <circle cx="79.443" cy="362.29" r="4.9153"/>
  <circle cx="81.954" cy="344.94" r="4.9153"/>
  <circle cx="89.031" cy="327.82" r="4.9153"/>
  <circle cx="97.934" cy="306.36" r="4.9153"/>
  <circle cx="91.085" cy="285.58" r="4.9153"/>
  <circle cx="92.227" cy="264.81" r="4.9153"/>
  <circle cx="88.574" cy="249.06" r="4.9153"/>
  <circle cx="83.552" cy="231.48" r="4.9153"/>
  <circle cx="87.433" cy="211.85" r="4.9153"/>
  <circle cx="82.182" cy="189.93" r="4.9153"/>
  <circle cx="74.877" cy="173.04" r="4.9153"/>
  <circle cx="68.029" cy="149.75" r="4.9153"/>
  <circle cx="59.354" cy="129.44" r="4.9153"/>
  <circle cx="52.505" cy="108.43" r="4.9153"/>
  <circle cx="45.2" cy="87.433" r="4.9153"/>
  <circle cx="38.808" cy="65.289" r="4.9153"/>
 </g>
</svg>
