<?xml version="1.0" encoding="UTF-8"?>
<!-- Created with Inkscape (http://www.inkscape.org/) -->
<svg width="100" height="650" version="1.1" viewBox="0 0 100 650" xmlns="http://www.w3.org/2000/svg" xmlns:cc="http://creativecommons.org/ns#" xmlns:dc="http://purl.org/dc/elements/1.1/" xmlns:rdf="http://www.w3.org/1999/02/22-rdf-syntax-ns#">
 <metadata>
  <rdf:RDF>
   <cc:Work rdf:about="">
    <dc:format>image/svg+xml</dc:format>
    <dc:type rdf:resource="http://purl.org/dc/dcmitype/StillImage"/>
    <dc:title/>
   </cc:Work>
  </rdf:RDF>
 </metadata>
 <g transform="translate(5.6359 196.05)" fill="#e00000">
  <circle cx="43.379" cy="448.83" r="4.9153"/>
  <circle cx="44.062" cy="429.02" r="4.9153"/>
  <circle cx="44.745" cy="418.43" r="4.9153"/>
  <circle cx="50.552" cy="397.25" r="4.9153"/>
  <circle cx="57.725" cy="375.05" r="4.9153"/>
  <circle cx="57.725" cy="349.43" r="4.9153"/>
  <circle cx="59.774" cy="327.57" r="4.9153"/>
  <circle cx="56.359" cy="303.66" r="4.9153"/>
  <circle cx="52.943" cy="279.75" r="4.9153"/>
  <circle cx="44.062" cy="258.23" r="4.9153"/>
  <circle cx="47.478" cy="232.27" r="4.9153"/>
  <circle cx="44.404" cy="210.07" r="4.9153"/>
  <circle cx="39.964" cy="189.58" r="4.9153"/>
  <circle cx="41.33" cy="160.54" r="4.9153"/>
  <circle cx="48.503" cy="139.37" r="4.9153"/>
  <circle cx="45.77" cy="115.11" r="4.9153"/>
  <circle cx="53.968" cy="92.571" r="4.9153"/>
  <circle cx="52.602" cy="72.077" r="4.9153"/>
  <circle cx="47.82" cy="50.9" r="4.9153"/>
 </g>
</svg>
