<?xml version="1.0" encoding="UTF-8"?>
<!-- Created with Inkscape (http://www.inkscape.org/) -->
<svg width="100" height="650" version="1.1" viewBox="0 0 100 650" xmlns="http://www.w3.org/2000/svg" xmlns:cc="http://creativecommons.org/ns#" xmlns:dc="http://purl.org/dc/elements/1.1/" xmlns:rdf="http://www.w3.org/1999/02/22-rdf-syntax-ns#">
 <metadata>
  <rdf:RDF>
   <cc:Work rdf:about="">
    <dc:format>image/svg+xml</dc:format>
    <dc:type rdf:resource="http://purl.org/dc/dcmitype/StillImage"/>
    <dc:title/>
   </cc:Work>
  </rdf:RDF>
 </metadata>
 <g transform="translate(-47.854 234.7)" fill="#e00000">
  <circle cx="103" cy="410.12" r="4.9153"/>
  <circle cx="103.71" cy="387.96" r="4.9153"/>
  <circle cx="101.35" cy="376.88" r="4.9153"/>
  <circle cx="103" cy="359.68" r="4.9153"/>
  <circle cx="98.051" cy="338.23" r="4.9153"/>
  <circle cx="101.82" cy="318.67" r="4.9153"/>
  <circle cx="100.41" cy="300.52" r="4.9153"/>
  <circle cx="94.515" cy="283.07" r="4.9153"/>
  <circle cx="101.11" cy="265.63" r="4.9153"/>
  <circle cx="91.687" cy="245.6" r="4.9153"/>
  <circle cx="77.309" cy="225.56" r="4.9153"/>
  <circle cx="67.41" cy="206" r="4.9153"/>
  <circle cx="54.211" cy="187.38" r="4.9153"/>
  <circle cx="55.625" cy="164.52" r="4.9153"/>
  <circle cx="65.996" cy="144.01" r="4.9153"/>
  <circle cx="61.753" cy="124.21" r="4.9153"/>
  <circle cx="63.639" cy="105.12" r="4.9153"/>
  <circle cx="69.296" cy="85.559" r="4.9153"/>
  <circle cx="74.717" cy="66.467" r="4.9153"/>
 </g>
</svg>
