<?xml version="1.0" encoding="UTF-8"?>
<!-- Created with Inkscape (http://www.inkscape.org/) -->
<svg width="100" height="650" version="1.1" viewBox="0 0 100 650" xmlns="http://www.w3.org/2000/svg" xmlns:cc="http://creativecommons.org/ns#" xmlns:dc="http://purl.org/dc/elements/1.1/" xmlns:rdf="http://www.w3.org/1999/02/22-rdf-syntax-ns#">
 <metadata>
  <rdf:RDF>
   <cc:Work rdf:about="">
    <dc:format>image/svg+xml</dc:format>
    <dc:type rdf:resource="http://purl.org/dc/dcmitype/StillImage"/>
    <dc:title/>
   </cc:Work>
  </rdf:RDF>
 </metadata>
 <g transform="translate(-20.075 166.36)" fill="#e00000">
  <circle cx="71.397" cy="478.52" r="4.9153"/>
  <circle cx="73.296" cy="461.81" r="4.9153"/>
  <circle cx="67.219" cy="448.52" r="4.9153"/>
  <circle cx="55.446" cy="428.77" r="4.9153"/>
  <circle cx="46.332" cy="405.6" r="4.9153"/>
  <circle cx="37.217" cy="379.4" r="4.9153"/>
  <circle cx="39.116" cy="356.99" r="4.9153"/>
  <circle cx="25.824" cy="334.58" r="4.9153"/>
  <circle cx="30.761" cy="308" r="4.9153"/>
  <circle cx="39.496" cy="284.07" r="4.9153"/>
  <circle cx="53.168" cy="263.19" r="4.9153"/>
  <circle cx="48.99" cy="241.54" r="4.9153"/>
  <circle cx="52.788" cy="213.82" r="4.9153"/>
  <circle cx="67.599" cy="189.89" r="4.9153"/>
  <circle cx="76.334" cy="163.69" r="4.9153"/>
  <circle cx="72.536" cy="138.24" r="4.9153"/>
  <circle cx="75.954" cy="116.98" r="4.9153"/>
  <circle cx="71.017" cy="96.468" r="4.9153"/>
  <circle cx="53.927" cy="67.606" r="4.9153"/>
 </g>
</svg>
