<?xml version="1.0" encoding="UTF-8"?>
<!-- Created with Inkscape (http://www.inkscape.org/) -->
<svg width="100" height="650" version="1.1" viewBox="0 0 100 650" xmlns="http://www.w3.org/2000/svg" xmlns:cc="http://creativecommons.org/ns#" xmlns:dc="http://purl.org/dc/elements/1.1/" xmlns:rdf="http://www.w3.org/1999/02/22-rdf-syntax-ns#">
 <metadata>
  <rdf:RDF>
   <cc:Work rdf:about="">
    <dc:format>image/svg+xml</dc:format>
    <dc:type rdf:resource="http://purl.org/dc/dcmitype/StillImage"/>
    <dc:title/>
   </cc:Work>
  </rdf:RDF>
 </metadata>
 <g transform="translate(.92112 185.04)" fill="#e00000">
  <circle cx="32.173" cy="459.99" r="4.9153"/>
  <circle cx="35.097" cy="437.12" r="4.9153"/>
  <circle cx="37.225" cy="423.03" r="4.9153"/>
  <circle cx="43.074" cy="402.82" r="4.9153"/>
  <circle cx="48.658" cy="383.41" r="4.9153"/>
  <circle cx="45.733" cy="360.28" r="4.9153"/>
  <circle cx="53.444" cy="339.54" r="4.9153"/>
  <circle cx="45.733" cy="318" r="4.9153"/>
  <circle cx="48.924" cy="300.19" r="4.9153"/>
  <circle cx="55.571" cy="278.39" r="4.9153"/>
  <circle cx="47.062" cy="252.6" r="4.9153"/>
  <circle cx="49.721" cy="231.06" r="4.9153"/>
  <circle cx="56.9" cy="206.06" r="4.9153"/>
  <circle cx="63.016" cy="181.87" r="4.9153"/>
  <circle cx="76.842" cy="162.46" r="4.9153"/>
  <circle cx="74.183" cy="140.12" r="4.9153"/>
  <circle cx="78.703" cy="116.46" r="4.9153"/>
  <circle cx="86.946" cy="95.454" r="4.9153"/>
  <circle cx="94.125" cy="74.981" r="4.9153"/>
 </g>
</svg>
