<?xml version="1.0" encoding="UTF-8"?>
<!-- Created with Inkscape (http://www.inkscape.org/) -->
<svg width="100" height="650" version="1.1" viewBox="0 0 100 650" xmlns="http://www.w3.org/2000/svg" xmlns:cc="http://creativecommons.org/ns#" xmlns:dc="http://purl.org/dc/elements/1.1/" xmlns:rdf="http://www.w3.org/1999/02/22-rdf-syntax-ns#">
 <metadata>
  <rdf:RDF>
   <cc:Work rdf:about="">
    <dc:format>image/svg+xml</dc:format>
    <dc:type rdf:resource="http://purl.org/dc/dcmitype/StillImage"/>
    <dc:title/>
   </cc:Work>
  </rdf:RDF>
 </metadata>
 <g transform="translate(-19.285 202.19)" fill="#e00000">
  <circle cx="69.379" cy="442.72" r="4.9153"/>
  <circle cx="71.077" cy="432.77" r="4.9153"/>
  <circle cx="73.261" cy="424.28" r="4.9153"/>
  <circle cx="77.385" cy="406.09" r="4.9153"/>
  <circle cx="85.147" cy="383.28" r="4.9153"/>
  <circle cx="92.425" cy="356.11" r="4.9153"/>
  <circle cx="85.147" cy="328.94" r="4.9153"/>
  <circle cx="84.905" cy="304.2" r="4.9153"/>
  <circle cx="90.484" cy="282.13" r="4.9153"/>
  <circle cx="88.786" cy="261.75" r="4.9153"/>
  <circle cx="81.994" cy="240.4" r="4.9153"/>
  <circle cx="67.681" cy="212.75" r="4.9153"/>
  <circle cx="71.805" cy="188.25" r="4.9153"/>
  <circle cx="63.8" cy="163.99" r="4.9153"/>
  <circle cx="57.25" cy="141.91" r="4.9153"/>
  <circle cx="57.493" cy="118.62" r="4.9153"/>
  <circle cx="55.794" cy="95.093" r="4.9153"/>
  <circle cx="41.482" cy="74.474" r="4.9153"/>
  <circle cx="45.849" cy="51.185" r="4.9153"/>
 </g>
</svg>
