<?xml version="1.0" encoding="UTF-8"?>
<!-- Created with Inkscape (http://www.inkscape.org/) -->
<svg width="100" height="650" version="1.1" viewBox="0 0 100 650" xmlns="http://www.w3.org/2000/svg" xmlns:cc="http://creativecommons.org/ns#" xmlns:dc="http://purl.org/dc/elements/1.1/" xmlns:rdf="http://www.w3.org/1999/02/22-rdf-syntax-ns#">
 <metadata>
  <rdf:RDF>
   <cc:Work rdf:about="">
    <dc:format>image/svg+xml</dc:format>
    <dc:type rdf:resource="http://purl.org/dc/dcmitype/StillImage"/>
    <dc:title/>
   </cc:Work>
  </rdf:RDF>
 </metadata>
 <g transform="translate(-1.7418 .37765)" fill="#e00000">
  <circle cx="57.78" cy="644.71" r="4.9153"/>
  <circle cx="57.025" cy="617.52" r="4.9153"/>
  <circle cx="50.983" cy="603.55" r="4.9153"/>
  <circle cx="53.626" cy="581.27" r="4.9153"/>
  <circle cx="57.403" cy="549.55" r="4.9153"/>
  <circle cx="65.333" cy="513.29" r="4.9153"/>
  <circle cx="59.668" cy="478.93" r="4.9153"/>
  <circle cx="53.248" cy="437.01" r="4.9153"/>
  <circle cx="44.185" cy="401.51" r="4.9153"/>
  <circle cx="35.877" cy="369.41" r="4.9153"/>
  <circle cx="29.079" cy="328.24" r="4.9153"/>
  <circle cx="20.015" cy="291.23" r="4.9153"/>
  <circle cx="26.058" cy="256.11" r="4.9153"/>
  <circle cx="23.037" cy="218.73" r="4.9153"/>
  <circle cx="7.1753" cy="181.34" r="4.9153"/>
  <circle cx="10.197" cy="142.82" r="4.9153"/>
  <circle cx="16.617" cy="106.94" r="4.9153"/>
  <circle cx="13.973" cy="68.044" r="4.9153"/>
  <circle cx="20.393" cy="26.125" r="4.9153"/>
 </g>
</svg>
