<?xml version="1.0" encoding="UTF-8"?>
<!-- Created with Inkscape (http://www.inkscape.org/) -->
<svg width="100" height="650" version="1.1" viewBox="0 0 100 650" xmlns="http://www.w3.org/2000/svg" xmlns:cc="http://creativecommons.org/ns#" xmlns:dc="http://purl.org/dc/elements/1.1/" xmlns:rdf="http://www.w3.org/1999/02/22-rdf-syntax-ns#">
 <metadata>
  <rdf:RDF>
   <cc:Work rdf:about="">
    <dc:format>image/svg+xml</dc:format>
    <dc:type rdf:resource="http://purl.org/dc/dcmitype/StillImage"/>
    <dc:title/>
   </cc:Work>
  </rdf:RDF>
 </metadata>
 <g transform="translate(-32.129 -50.997)" fill="#e00000">
  <circle cx="82.501" cy="695.96" r="4.9153"/>
  <circle cx="81.684" cy="673.36" r="4.9153"/>
  <circle cx="83.59" cy="658.39" r="4.9153"/>
  <circle cx="72.971" cy="633.88" r="4.9153"/>
  <circle cx="75.15" cy="607.74" r="4.9153"/>
  <circle cx="69.976" cy="576.16" r="4.9153"/>
  <circle cx="62.08" cy="543.75" r="4.9153"/>
  <circle cx="67.798" cy="503.73" r="4.9153"/>
  <circle cx="76.239" cy="462.89" r="4.9153"/>
  <circle cx="72.971" cy="420.14" r="4.9153"/>
  <circle cx="81.14" cy="384.74" r="4.9153"/>
  <circle cx="97.749" cy="350.71" r="4.9153"/>
  <circle cx="107.82" cy="311.23" r="4.9153"/>
  <circle cx="103.19" cy="272.56" r="4.9153"/>
  <circle cx="108.1" cy="235.26" r="4.9153"/>
  <circle cx="98.838" cy="203.13" r="4.9153"/>
  <circle cx="104.56" cy="157.12" r="4.9153"/>
  <circle cx="93.937" cy="108.38" r="4.9153"/>
  <circle cx="77.056" cy="66.991" r="4.9153"/>
 </g>
</svg>
