<?xml version="1.0" encoding="UTF-8"?>
<!-- Created with Inkscape (http://www.inkscape.org/) -->
<svg width="100" height="650" version="1.1" viewBox="0 0 100 650" xmlns="http://www.w3.org/2000/svg" xmlns:cc="http://creativecommons.org/ns#" xmlns:dc="http://purl.org/dc/elements/1.1/" xmlns:rdf="http://www.w3.org/1999/02/22-rdf-syntax-ns#">
 <metadata>
  <rdf:RDF>
   <cc:Work rdf:about="">
    <dc:format>image/svg+xml</dc:format>
    <dc:type rdf:resource="http://purl.org/dc/dcmitype/StillImage"/>
    <dc:title/>
   </cc:Work>
  </rdf:RDF>
 </metadata>
 <g transform="translate(-15.188 194.87)" fill="#e00000">
  <circle cx="80.456" cy="449.86" r="4.9153"/>
  <circle cx="81.155" cy="437.97" r="4.9153"/>
  <circle cx="79.057" cy="426.42" r="4.9153"/>
  <circle cx="74.159" cy="404.73" r="4.9153"/>
  <circle cx="64.015" cy="380.6" r="4.9153"/>
  <circle cx="65.764" cy="352.96" r="4.9153"/>
  <circle cx="60.517" cy="329.88" r="4.9153"/>
  <circle cx="48.274" cy="305.74" r="4.9153"/>
  <circle cx="47.574" cy="278.45" r="4.9153"/>
  <circle cx="53.521" cy="253.62" r="4.9153"/>
  <circle cx="60.517" cy="228.78" r="4.9153"/>
  <circle cx="55.27" cy="206.04" r="4.9153"/>
  <circle cx="46.175" cy="181.21" r="4.9153"/>
  <circle cx="36.03" cy="153.22" r="4.9153"/>
  <circle cx="26.236" cy="124.54" r="4.9153"/>
  <circle cx="25.886" cy="101.8" r="4.9153"/>
  <circle cx="33.232" cy="76.964" r="4.9153"/>
  <circle cx="29.384" cy="53.527" r="4.9153"/>
  <circle cx="21.688" cy="30.789" r="4.9153"/>
 </g>
</svg>
