<?xml version="1.0" encoding="UTF-8"?>
<!-- Created with Inkscape (http://www.inkscape.org/) -->
<svg width="150" height="650" version="1.1" viewBox="0 0 150 650" xmlns="http://www.w3.org/2000/svg" xmlns:cc="http://creativecommons.org/ns#" xmlns:dc="http://purl.org/dc/elements/1.1/" xmlns:rdf="http://www.w3.org/1999/02/22-rdf-syntax-ns#">
 <metadata>
  <rdf:RDF>
   <cc:Work rdf:about="">
    <dc:format>image/svg+xml</dc:format>
    <dc:type rdf:resource="http://purl.org/dc/dcmitype/StillImage"/>
    <dc:title/>
   </cc:Work>
  </rdf:RDF>
 </metadata>
 <g transform="translate(-85.715 50.683)" fill="#e00000">
  <circle cx="181.76" cy="594.3" r="4.9153"/>
  <circle cx="184.33" cy="573.77" r="4.9153"/>
  <circle cx="187.6" cy="556.73" r="4.9153"/>
  <circle cx="193.9" cy="533.17" r="4.9153"/>
  <circle cx="189.7" cy="503.77" r="4.9153"/>
  <circle cx="178.96" cy="472.74" r="4.9153"/>
  <circle cx="170.1" cy="448.24" r="4.9153"/>
  <circle cx="158.2" cy="419.3" r="4.9153"/>
  <circle cx="148.63" cy="390.6" r="4.9153"/>
  <circle cx="135.33" cy="357.24" r="4.9153"/>
  <circle cx="127.63" cy="325.27" r="4.9153"/>
  <circle cx="122.27" cy="295.17" r="4.9153"/>
  <circle cx="113.4" cy="262.5" r="4.9153"/>
  <circle cx="106.87" cy="235.21" r="4.9153"/>
  <circle cx="112.93" cy="207.67" r="4.9153"/>
  <circle cx="108.03" cy="172.67" r="4.9153"/>
  <circle cx="92.399" cy="144.44" r="4.9153"/>
  <circle cx="99.632" cy="110.84" r="4.9153"/>
  <circle cx="111.77" cy="84.24" r="4.9153"/>
 </g>
</svg>
