<?xml version="1.0" encoding="UTF-8"?>
<!-- Created with Inkscape (http://www.inkscape.org/) -->
<svg width="100" height="650" version="1.1" viewBox="0 0 100 650" xmlns="http://www.w3.org/2000/svg" xmlns:cc="http://creativecommons.org/ns#" xmlns:dc="http://purl.org/dc/elements/1.1/" xmlns:rdf="http://www.w3.org/1999/02/22-rdf-syntax-ns#">
 <metadata>
  <rdf:RDF>
   <cc:Work rdf:about="">
    <dc:format>image/svg+xml</dc:format>
    <dc:type rdf:resource="http://purl.org/dc/dcmitype/StillImage"/>
    <dc:title/>
   </cc:Work>
  </rdf:RDF>
 </metadata>
 <g fill="#e00000">
  <circle cx="50.17" cy="644.95" r="4.9153"/>
  <circle cx="49.934" cy="628.69" r="4.9153"/>
  <circle cx="48.284" cy="617.37" r="4.9153"/>
  <circle cx="47.105" cy="603.7" r="4.9153"/>
  <circle cx="44.984" cy="588.62" r="4.9153"/>
  <circle cx="48.755" cy="574.47" r="4.9153"/>
  <circle cx="53.705" cy="556.33" r="4.9153"/>
  <circle cx="48.52" cy="542.42" r="4.9153"/>
  <circle cx="50.17" cy="527.1" r="4.9153"/>
  <circle cx="48.048" cy="508.01" r="4.9153"/>
  <circle cx="47.813" cy="493.87" r="4.9153"/>
  <circle cx="46.398" cy="466.29" r="4.9153"/>
  <circle cx="44.041" cy="445.78" r="4.9153"/>
  <circle cx="45.927" cy="421.98" r="4.9153"/>
  <circle cx="46.398" cy="394.87" r="4.9153"/>
  <circle cx="44.277" cy="368.24" r="4.9153"/>
  <circle cx="45.927" cy="335.24" r="4.9153"/>
  <circle cx="42.627" cy="309.31" r="4.9153"/>
  <circle cx="47.577" cy="280.56" r="4.9153"/>
  <circle cx="46.87" cy="247.8" r="4.9153"/>
  <circle cx="51.112" cy="222.1" r="4.9153"/>
  <circle cx="55.591" cy="190.28" r="4.9153"/>
  <circle cx="54.884" cy="165.54" r="4.9153"/>
  <circle cx="57.476" cy="139.85" r="4.9153"/>
  <circle cx="52.055" cy="109.91" r="4.9153"/>
  <circle cx="51.819" cy="85.399" r="4.9153"/>
  <circle cx="51.819" cy="53.344" r="4.9153"/>
  <circle cx="52.527" cy="21.289" r="4.9153"/>
 </g>
</svg>
