<?xml version="1.0" encoding="UTF-8"?>
<!-- Created with Inkscape (http://www.inkscape.org/) -->
<svg width="100" height="650" version="1.1" viewBox="0 0 100 650" xmlns="http://www.w3.org/2000/svg" xmlns:cc="http://creativecommons.org/ns#" xmlns:dc="http://purl.org/dc/elements/1.1/" xmlns:rdf="http://www.w3.org/1999/02/22-rdf-syntax-ns#">
 <metadata>
  <rdf:RDF>
   <cc:Work rdf:about="">
    <dc:format>image/svg+xml</dc:format>
    <dc:type rdf:resource="http://purl.org/dc/dcmitype/StillImage"/>
    <dc:title/>
   </cc:Work>
  </rdf:RDF>
 </metadata>
 <g transform="translate(17.515 219.95)" fill="#e00000">
  <circle cx="31.672" cy="424.93" r="4.9153"/>
  <circle cx="30.472" cy="415.33" r="4.9153"/>
  <circle cx="30.232" cy="407.41" r="4.9153"/>
  <circle cx="27.353" cy="400.21" r="4.9153"/>
  <circle cx="28.073" cy="390.62" r="4.9153"/>
  <circle cx="27.113" cy="378.38" r="4.9153"/>
  <circle cx="29.272" cy="371.18" r="4.9153"/>
  <circle cx="30.952" cy="358.47" r="4.9153"/>
  <circle cx="30.472" cy="348.39" r="4.9153"/>
  <circle cx="36.47" cy="337.83" r="4.9153"/>
  <circle cx="34.791" cy="324.39" r="4.9153"/>
  <circle cx="35.271" cy="314.8" r="4.9153"/>
  <circle cx="36.47" cy="302.32" r="4.9153"/>
  <circle cx="30.232" cy="291.76" r="4.9153"/>
  <circle cx="32.391" cy="280.01" r="4.9153"/>
  <circle cx="31.432" cy="267.77" r="4.9153"/>
  <circle cx="30.472" cy="256.49" r="4.9153"/>
  <circle cx="32.391" cy="242.34" r="4.9153"/>
  <circle cx="29.752" cy="232.74" r="4.9153"/>
  <circle cx="35.751" cy="218.58" r="4.9153"/>
  <circle cx="34.551" cy="205.63" r="4.9153"/>
  <circle cx="39.59" cy="195.07" r="4.9153"/>
  <circle cx="42.469" cy="182.59" r="4.9153"/>
  <circle cx="42.469" cy="172.75" r="4.9153"/>
  <circle cx="47.507" cy="158.84" r="4.9153"/>
  <circle cx="48.467" cy="146.6" r="4.9153"/>
  <circle cx="50.387" cy="134.36" r="4.9153"/>
  <circle cx="51.346" cy="119.49" r="4.9153"/>
  <circle cx="47.987" cy="108.21" r="4.9153"/>
  <circle cx="53.026" cy="94.775" r="4.9153"/>
  <circle cx="52.066" cy="81.338" r="4.9153"/>
  <circle cx="55.185" cy="72.461" r="4.9153"/>
  <circle cx="56.865" cy="53.506" r="4.9153"/>
  <circle cx="57.585" cy="45.348" r="4.9153"/>
  <circle cx="59.504" cy="30.952" r="4.9153"/>
 </g>
</svg>
