<?xml version="1.0" encoding="UTF-8"?>
<!-- Created with Inkscape (http://www.inkscape.org/) -->
<svg width="100" height="650" version="1.1" viewBox="0 0 100 650" xmlns="http://www.w3.org/2000/svg" xmlns:cc="http://creativecommons.org/ns#" xmlns:dc="http://purl.org/dc/elements/1.1/" xmlns:rdf="http://www.w3.org/1999/02/22-rdf-syntax-ns#">
 <metadata>
  <rdf:RDF>
   <cc:Work rdf:about="">
    <dc:format>image/svg+xml</dc:format>
    <dc:type rdf:resource="http://purl.org/dc/dcmitype/StillImage"/>
    <dc:title/>
   </cc:Work>
  </rdf:RDF>
 </metadata>
 <g transform="translate(-3.8853 254.29)" fill="#e00000">
  <circle cx="54.843" cy="390.18" r="4.9153"/>
  <circle cx="54.245" cy="381.37" r="4.9153"/>
  <circle cx="54.245" cy="374.19" r="4.9153"/>
  <circle cx="51.854" cy="366.27" r="4.9153"/>
  <circle cx="50.958" cy="358.8" r="4.9153"/>
  <circle cx="53.349" cy="347.15" r="4.9153"/>
  <circle cx="52.004" cy="339.52" r="4.9153"/>
  <circle cx="58.43" cy="329.66" r="4.9153"/>
  <circle cx="57.384" cy="317.26" r="4.9153"/>
  <circle cx="57.533" cy="309.79" r="4.9153"/>
  <circle cx="56.786" cy="297.83" r="4.9153"/>
  <circle cx="57.981" cy="288.72" r="4.9153"/>
  <circle cx="63.361" cy="278.4" r="4.9153"/>
  <circle cx="63.361" cy="265.7" r="4.9153"/>
  <circle cx="67.097" cy="259.28" r="4.9153"/>
  <circle cx="65.752" cy="243.59" r="4.9153"/>
  <circle cx="63.66" cy="236.56" r="4.9153"/>
  <circle cx="66.649" cy="225.8" r="4.9153"/>
  <circle cx="65.901" cy="214.3" r="4.9153"/>
  <circle cx="69.04" cy="206.68" r="4.9153"/>
  <circle cx="71.281" cy="194.12" r="4.9153"/>
  <circle cx="65.752" cy="188" r="4.9153"/>
  <circle cx="70.086" cy="176.19" r="4.9153"/>
  <circle cx="64.407" cy="166.03" r="4.9153"/>
  <circle cx="65.005" cy="158.26" r="4.9153"/>
  <circle cx="66.798" cy="143.76" r="4.9153"/>
  <circle cx="65.603" cy="134.05" r="4.9153"/>
  <circle cx="68.292" cy="122.84" r="4.9153"/>
  <circle cx="68.143" cy="111.04" r="4.9153"/>
  <circle cx="67.993" cy="101.32" r="4.9153"/>
  <circle cx="66.798" cy="86.379" r="4.9153"/>
  <circle cx="62.315" cy="77.862" r="4.9153"/>
  <circle cx="66.798" cy="64.412" r="4.9153"/>
  <circle cx="64.706" cy="52.308" r="4.9153"/>
  <circle cx="65.752" cy="41.997" r="4.9153"/>
 </g>
</svg>
