<?xml version="1.0" encoding="UTF-8"?>
<!-- Created with Inkscape (http://www.inkscape.org/) -->
<svg width="100" height="650" version="1.1" viewBox="0 0 100 650" xmlns="http://www.w3.org/2000/svg" xmlns:cc="http://creativecommons.org/ns#" xmlns:dc="http://purl.org/dc/elements/1.1/" xmlns:rdf="http://www.w3.org/1999/02/22-rdf-syntax-ns#">
 <metadata>
  <rdf:RDF>
   <cc:Work rdf:about="">
    <dc:format>image/svg+xml</dc:format>
    <dc:type rdf:resource="http://purl.org/dc/dcmitype/StillImage"/>
    <dc:title/>
   </cc:Work>
  </rdf:RDF>
 </metadata>
 <g transform="translate(.46441 22.06)" fill="#e00000">
  <circle cx="50.079" cy="622.91" r="4.9153"/>
  <circle cx="49.915" cy="609.12" r="4.9153"/>
  <circle cx="48.93" cy="599.92" r="4.9153"/>
  <circle cx="52.214" cy="587.77" r="4.9153"/>
  <circle cx="50.736" cy="572.5" r="4.9153"/>
  <circle cx="52.378" cy="557.89" r="4.9153"/>
  <circle cx="51.229" cy="540.48" r="4.9153"/>
  <circle cx="49.915" cy="529.15" r="4.9153"/>
  <circle cx="51.065" cy="512.9" r="4.9153"/>
  <circle cx="50.244" cy="497.46" r="4.9153"/>
  <circle cx="51.557" cy="481.7" r="4.9153"/>
  <circle cx="49.423" cy="465.28" r="4.9153"/>
  <circle cx="47.617" cy="451.82" r="4.9153"/>
  <circle cx="48.109" cy="431.95" r="4.9153"/>
  <circle cx="44.661" cy="416.51" r="4.9153"/>
  <circle cx="49.094" cy="402.07" r="4.9153"/>
  <circle cx="48.438" cy="383.35" r="4.9153"/>
  <circle cx="45.482" cy="367.42" r="4.9153"/>
  <circle cx="46.303" cy="349.03" r="4.9153"/>
  <circle cx="45.482" cy="332.78" r="4.9153"/>
  <circle cx="47.617" cy="314.55" r="4.9153"/>
  <circle cx="45.482" cy="295.83" r="4.9153"/>
  <circle cx="45.81" cy="282.37" r="4.9153"/>
  <circle cx="44.661" cy="262.5" r="4.9153"/>
  <circle cx="42.198" cy="244.77" r="4.9153"/>
  <circle cx="47.945" cy="229" r="4.9153"/>
  <circle cx="46.631" cy="206.67" r="4.9153"/>
  <circle cx="48.93" cy="191.24" r="4.9153"/>
  <circle cx="49.258" cy="171.37" r="4.9153"/>
  <circle cx="45.975" cy="153.8" r="4.9153"/>
  <circle cx="49.258" cy="133.28" r="4.9153"/>
  <circle cx="49.094" cy="111.6" r="4.9153"/>
  <circle cx="51.065" cy="93.543" r="4.9153"/>
  <circle cx="50.736" cy="73.676" r="4.9153"/>
  <circle cx="48.438" cy="54.137" r="4.9153"/>
 </g>
</svg>
