<?xml version="1.0" encoding="UTF-8"?>
<!-- Created with Inkscape (http://www.inkscape.org/) -->
<svg width="100" height="650" version="1.1" viewBox="0 0 100 650" xmlns="http://www.w3.org/2000/svg" xmlns:cc="http://creativecommons.org/ns#" xmlns:dc="http://purl.org/dc/elements/1.1/" xmlns:rdf="http://www.w3.org/1999/02/22-rdf-syntax-ns#">
 <metadata>
  <rdf:RDF>
   <cc:Work rdf:about="">
    <dc:format>image/svg+xml</dc:format>
    <dc:type rdf:resource="http://purl.org/dc/dcmitype/StillImage"/>
    <dc:title/>
   </cc:Work>
  </rdf:RDF>
 </metadata>
 <g transform="translate(-2.0254 195.29)" fill="#e00000">
  <circle cx="50.843" cy="449.36" r="4.9153"/>
  <circle cx="50.485" cy="437.18" r="4.9153"/>
  <circle cx="51.917" cy="429.13" r="4.9153"/>
  <circle cx="51.38" cy="419.1" r="4.9153"/>
  <circle cx="52.812" cy="409.25" r="4.9153"/>
  <circle cx="56.034" cy="394.75" r="4.9153"/>
  <circle cx="54.423" cy="384.19" r="4.9153"/>
  <circle cx="59.257" cy="370.23" r="4.9153"/>
  <circle cx="57.109" cy="356.8" r="4.9153"/>
  <circle cx="59.973" cy="345.16" r="4.9153"/>
  <circle cx="61.405" cy="329.95" r="4.9153"/>
  <circle cx="57.288" cy="320.1" r="4.9153"/>
  <circle cx="58.183" cy="307.75" r="4.9153"/>
  <circle cx="52.454" cy="293.61" r="4.9153"/>
  <circle cx="54.423" cy="283.4" r="4.9153"/>
  <circle cx="56.213" cy="268.54" r="4.9153"/>
  <circle cx="55.676" cy="257.62" r="4.9153"/>
  <circle cx="59.794" cy="245.09" r="4.9153"/>
  <circle cx="58.362" cy="232.74" r="4.9153"/>
  <circle cx="61.584" cy="222.35" r="4.9153"/>
  <circle cx="61.763" cy="205.88" r="4.9153"/>
  <circle cx="59.078" cy="195.32" r="4.9153"/>
  <circle cx="62.121" cy="182.07" r="4.9153"/>
  <circle cx="54.423" cy="170.08" r="4.9153"/>
  <circle cx="57.646" cy="159.7" r="4.9153"/>
  <circle cx="53.886" cy="146.09" r="4.9153"/>
  <circle cx="51.917" cy="136.42" r="4.9153"/>
  <circle cx="53.886" cy="121.92" r="4.9153"/>
  <circle cx="49.232" cy="107.96" r="4.9153"/>
  <circle cx="49.769" cy="96.5" r="4.9153"/>
  <circle cx="49.59" cy="80.746" r="4.9153"/>
  <circle cx="46.904" cy="71.079" r="4.9153"/>
  <circle cx="50.306" cy="55.504" r="4.9153"/>
  <circle cx="50.485" cy="41.54" r="4.9153"/>
  <circle cx="52.991" cy="31.156" r="4.9153"/>
 </g>
</svg>
