<?xml version="1.0" encoding="UTF-8"?>
<!-- Created with Inkscape (http://www.inkscape.org/) -->
<svg width="100" height="650" version="1.1" viewBox="0 0 100 650" xmlns="http://www.w3.org/2000/svg" xmlns:cc="http://creativecommons.org/ns#" xmlns:dc="http://purl.org/dc/elements/1.1/" xmlns:rdf="http://www.w3.org/1999/02/22-rdf-syntax-ns#">
 <metadata>
  <rdf:RDF>
   <cc:Work rdf:about="">
    <dc:format>image/svg+xml</dc:format>
    <dc:type rdf:resource="http://purl.org/dc/dcmitype/StillImage"/>
    <dc:title/>
   </cc:Work>
  </rdf:RDF>
 </metadata>
 <g transform="translate(-5.4112 155.64)" fill="#e00000">
  <circle cx="55.464" cy="489.14" r="4.9153"/>
  <circle cx="54.305" cy="477.16" r="4.9153"/>
  <circle cx="52.179" cy="470.2" r="4.9153"/>
  <circle cx="53.145" cy="460.34" r="4.9153"/>
  <circle cx="51.599" cy="448.94" r="4.9153"/>
  <circle cx="54.691" cy="437.34" r="4.9153"/>
  <circle cx="54.885" cy="423.24" r="4.9153"/>
  <circle cx="53.145" cy="412.99" r="4.9153"/>
  <circle cx="54.305" cy="399.27" r="4.9153"/>
  <circle cx="48.121" cy="386.13" r="4.9153"/>
  <circle cx="49.667" cy="374.73" r="4.9153"/>
  <circle cx="46.575" cy="360.62" r="4.9153"/>
  <circle cx="43.676" cy="349.22" r="4.9153"/>
  <circle cx="44.062" cy="332.21" r="4.9153"/>
  <circle cx="38.265" cy="319.27" r="4.9153"/>
  <circle cx="43.869" cy="307.86" r="4.9153"/>
  <circle cx="41.743" cy="291.82" r="4.9153"/>
  <circle cx="42.71" cy="280.81" r="4.9153"/>
  <circle cx="44.256" cy="264.38" r="4.9153"/>
  <circle cx="45.415" cy="251.05" r="4.9153"/>
  <circle cx="48.7" cy="238.48" r="4.9153"/>
  <circle cx="45.995" cy="222.06" r="4.9153"/>
  <circle cx="45.608" cy="211.24" r="4.9153"/>
  <circle cx="46.768" cy="193.26" r="4.9153"/>
  <circle cx="41.357" cy="179.16" r="4.9153"/>
  <circle cx="45.802" cy="164.27" r="4.9153"/>
  <circle cx="45.415" cy="148.23" r="4.9153"/>
  <circle cx="47.348" cy="136.64" r="4.9153"/>
  <circle cx="49.667" cy="116.73" r="4.9153"/>
  <circle cx="48.894" cy="101.85" r="4.9153"/>
  <circle cx="51.599" cy="86.199" r="4.9153"/>
  <circle cx="54.112" cy="68.806" r="4.9153"/>
  <circle cx="56.431" cy="53.539" r="4.9153"/>
  <circle cx="58.75" cy="37.498" r="4.9153"/>
  <circle cx="56.431" cy="23.198" r="4.9153"/>
 </g>
</svg>
