<?xml version="1.0" encoding="UTF-8"?>
<!-- Created with Inkscape (http://www.inkscape.org/) -->
<svg width="100" height="650" version="1.1" viewBox="0 0 100 650" xmlns="http://www.w3.org/2000/svg" xmlns:cc="http://creativecommons.org/ns#" xmlns:dc="http://purl.org/dc/elements/1.1/" xmlns:rdf="http://www.w3.org/1999/02/22-rdf-syntax-ns#">
 <metadata>
  <rdf:RDF>
   <cc:Work rdf:about="">
    <dc:format>image/svg+xml</dc:format>
    <dc:type rdf:resource="http://purl.org/dc/dcmitype/StillImage"/>
    <dc:title/>
   </cc:Work>
  </rdf:RDF>
 </metadata>
 <g transform="translate(19.128 212.26)" fill="#e00000">
  <circle cx="30.654" cy="432.59" r="4.9153"/>
  <circle cx="28.202" cy="424.74" r="4.9153"/>
  <circle cx="27.711" cy="417.88" r="4.9153"/>
  <circle cx="29.183" cy="407.82" r="4.9153"/>
  <circle cx="29.918" cy="399.48" r="4.9153"/>
  <circle cx="33.106" cy="386.98" r="4.9153"/>
  <circle cx="33.842" cy="375.45" r="4.9153"/>
  <circle cx="39.728" cy="366.13" r="4.9153"/>
  <circle cx="38.502" cy="353.63" r="4.9153"/>
  <circle cx="42.671" cy="343.57" r="4.9153"/>
  <circle cx="45.613" cy="330.08" r="4.9153"/>
  <circle cx="38.011" cy="319.54" r="4.9153"/>
  <circle cx="42.916" cy="306.54" r="4.9153"/>
  <circle cx="42.425" cy="294.28" r="4.9153"/>
  <circle cx="43.406" cy="282.02" r="4.9153"/>
  <circle cx="40.954" cy="270.25" r="4.9153"/>
  <circle cx="38.502" cy="258.23" r="4.9153"/>
  <circle cx="38.502" cy="246.46" r="4.9153"/>
  <circle cx="37.275" cy="231.5" r="4.9153"/>
  <circle cx="35.068" cy="221.45" r="4.9153"/>
  <circle cx="36.294" cy="206.73" r="4.9153"/>
  <circle cx="36.049" cy="194.96" r="4.9153"/>
  <circle cx="41.69" cy="182.94" r="4.9153"/>
  <circle cx="37.766" cy="168.72" r="4.9153"/>
  <circle cx="38.256" cy="160.14" r="4.9153"/>
  <circle cx="35.804" cy="144.44" r="4.9153"/>
  <circle cx="33.842" cy="130.95" r="4.9153"/>
  <circle cx="37.766" cy="118.94" r="4.9153"/>
  <circle cx="35.804" cy="102.26" r="4.9153"/>
  <circle cx="35.314" cy="92.943" r="4.9153"/>
  <circle cx="35.804" cy="77.494" r="4.9153"/>
  <circle cx="37.275" cy="64.987" r="4.9153"/>
  <circle cx="38.992" cy="51.008" r="4.9153"/>
  <circle cx="40.709" cy="34.823" r="4.9153"/>
  <circle cx="42.671" cy="24.523" r="4.9153"/>
 </g>
</svg>
