<?xml version="1.0" encoding="UTF-8"?>
<!-- Created with Inkscape (http://www.inkscape.org/) -->
<svg width="100" height="650" version="1.1" viewBox="0 0 100 650" xmlns="http://www.w3.org/2000/svg" xmlns:cc="http://creativecommons.org/ns#" xmlns:dc="http://purl.org/dc/elements/1.1/" xmlns:rdf="http://www.w3.org/1999/02/22-rdf-syntax-ns#">
 <metadata>
  <rdf:RDF>
   <cc:Work rdf:about="">
    <dc:format>image/svg+xml</dc:format>
    <dc:type rdf:resource="http://purl.org/dc/dcmitype/StillImage"/>
    <dc:title/>
   </cc:Work>
  </rdf:RDF>
 </metadata>
 <g transform="translate(-8.2898 132.47)" fill="#e00000">
  <circle cx="57.78" cy="512.49" r="4.9153"/>
  <circle cx="60.572" cy="503.83" r="4.9153"/>
  <circle cx="60.292" cy="493.78" r="4.9153"/>
  <circle cx="61.409" cy="483.46" r="4.9153"/>
  <circle cx="65.875" cy="470.89" r="4.9153"/>
  <circle cx="67.271" cy="458.89" r="4.9153"/>
  <circle cx="71.178" cy="447.73" r="4.9153"/>
  <circle cx="72.016" cy="432.65" r="4.9153"/>
  <circle cx="72.016" cy="420.65" r="4.9153"/>
  <circle cx="72.295" cy="405.86" r="4.9153"/>
  <circle cx="68.945" cy="392.74" r="4.9153"/>
  <circle cx="73.691" cy="379.9" r="4.9153"/>
  <circle cx="73.132" cy="362.03" r="4.9153"/>
  <circle cx="76.203" cy="349.75" r="4.9153"/>
  <circle cx="78.157" cy="334.68" r="4.9153"/>
  <circle cx="79.273" cy="317.93" r="4.9153"/>
  <circle cx="83.739" cy="304.81" r="4.9153"/>
  <circle cx="83.739" cy="286.39" r="4.9153"/>
  <circle cx="84.856" cy="272.15" r="4.9153"/>
  <circle cx="86.252" cy="255.68" r="4.9153"/>
  <circle cx="80.948" cy="240.33" r="4.9153"/>
  <circle cx="83.46" cy="227.77" r="4.9153"/>
  <circle cx="80.669" cy="209.91" r="4.9153"/>
  <circle cx="75.645" cy="199.02" r="4.9153"/>
  <circle cx="77.878" cy="178.09" r="4.9153"/>
  <circle cx="72.016" cy="164.41" r="4.9153"/>
  <circle cx="73.97" cy="148.22" r="4.9153"/>
  <circle cx="69.225" cy="130.35" r="4.9153"/>
  <circle cx="67.829" cy="118.91" r="4.9153"/>
  <circle cx="66.712" cy="101.05" r="4.9153"/>
  <circle cx="63.642" cy="85.135" r="4.9153"/>
  <circle cx="68.108" cy="70.062" r="4.9153"/>
  <circle cx="66.433" cy="50.244" r="4.9153"/>
  <circle cx="65.875" cy="35.729" r="4.9153"/>
  <circle cx="67.271" cy="17.306" r="4.9153"/>
 </g>
</svg>
