<?xml version="1.0" encoding="UTF-8"?>
<!-- Created with Inkscape (http://www.inkscape.org/) -->
<svg width="100" height="650" version="1.1" viewBox="0 0 100 650" xmlns="http://www.w3.org/2000/svg" xmlns:cc="http://creativecommons.org/ns#" xmlns:dc="http://purl.org/dc/elements/1.1/" xmlns:rdf="http://www.w3.org/1999/02/22-rdf-syntax-ns#">
 <metadata>
  <rdf:RDF>
   <cc:Work rdf:about="">
    <dc:format>image/svg+xml</dc:format>
    <dc:type rdf:resource="http://purl.org/dc/dcmitype/StillImage"/>
    <dc:title/>
   </cc:Work>
  </rdf:RDF>
 </metadata>
 <g transform="translate(-27.267 20.602)" fill="#e00000">
  <circle cx="77.765" cy="624.08" r="4.9153"/>
  <circle cx="77.551" cy="612.51" r="4.9153"/>
  <circle cx="75.195" cy="601.37" r="4.9153"/>
  <circle cx="77.98" cy="591.3" r="4.9153"/>
  <circle cx="80.764" cy="576.31" r="4.9153"/>
  <circle cx="76.908" cy="561.09" r="4.9153"/>
  <circle cx="77.123" cy="548.24" r="4.9153"/>
  <circle cx="77.765" cy="534.53" r="4.9153"/>
  <circle cx="77.551" cy="522.11" r="4.9153"/>
  <circle cx="83.764" cy="506.68" r="4.9153"/>
  <circle cx="81.836" cy="491.47" r="4.9153"/>
  <circle cx="82.478" cy="479.04" r="4.9153"/>
  <circle cx="79.908" cy="460.41" r="4.9153"/>
  <circle cx="76.48" cy="450.77" r="4.9153"/>
  <circle cx="79.265" cy="432.56" r="4.9153"/>
  <circle cx="72.838" cy="415.63" r="4.9153"/>
  <circle cx="74.766" cy="402.99" r="4.9153"/>
  <circle cx="71.338" cy="384.78" r="4.9153"/>
  <circle cx="69.196" cy="373" r="4.9153"/>
  <circle cx="69.41" cy="356.08" r="4.9153"/>
  <circle cx="64.483" cy="341.08" r="4.9153"/>
  <circle cx="69.196" cy="326.94" r="4.9153"/>
  <circle cx="70.267" cy="309.59" r="4.9153"/>
  <circle cx="72.838" cy="299.09" r="4.9153"/>
  <circle cx="76.48" cy="280.45" r="4.9153"/>
  <circle cx="73.909" cy="265.46" r="4.9153"/>
  <circle cx="79.908" cy="251.75" r="4.9153"/>
  <circle cx="79.693" cy="233.75" r="4.9153"/>
  <circle cx="80.122" cy="221.97" r="4.9153"/>
  <circle cx="80.122" cy="203.97" r="4.9153"/>
  <circle cx="76.051" cy="187.48" r="4.9153"/>
  <circle cx="80.764" cy="173.34" r="4.9153"/>
  <circle cx="78.622" cy="152.13" r="4.9153"/>
  <circle cx="82.264" cy="139.49" r="4.9153"/>
  <circle cx="84.406" cy="118.93" r="4.9153"/>
 </g>
</svg>
