<?xml version="1.0" encoding="UTF-8"?>
<!-- Created with Inkscape (http://www.inkscape.org/) -->
<svg width="100" height="650" version="1.1" viewBox="0 0 100 650" xmlns="http://www.w3.org/2000/svg" xmlns:cc="http://creativecommons.org/ns#" xmlns:dc="http://purl.org/dc/elements/1.1/" xmlns:rdf="http://www.w3.org/1999/02/22-rdf-syntax-ns#">
 <metadata>
  <rdf:RDF>
   <cc:Work rdf:about="">
    <dc:format>image/svg+xml</dc:format>
    <dc:type rdf:resource="http://purl.org/dc/dcmitype/StillImage"/>
    <dc:title/>
   </cc:Work>
  </rdf:RDF>
 </metadata>
 <g transform="translate(-14.905 80.027)" fill="#e00000">
  <circle cx="65.628" cy="564.86" r="4.9153"/>
  <circle cx="68.076" cy="552.62" r="4.9153"/>
  <circle cx="70.523" cy="541.5" r="4.9153"/>
  <circle cx="69.855" cy="531.26" r="4.9153"/>
  <circle cx="73.86" cy="518.14" r="4.9153"/>
  <circle cx="73.637" cy="503.9" r="4.9153"/>
  <circle cx="74.305" cy="493.67" r="4.9153"/>
  <circle cx="78.309" cy="475.2" r="4.9153"/>
  <circle cx="78.976" cy="462.74" r="4.9153"/>
  <circle cx="78.754" cy="447.62" r="4.9153"/>
  <circle cx="75.417" cy="431.38" r="4.9153"/>
  <circle cx="75.639" cy="421.14" r="4.9153"/>
  <circle cx="74.527" cy="403.12" r="4.9153"/>
  <circle cx="71.857" cy="388.44" r="4.9153"/>
  <circle cx="72.302" cy="372.64" r="4.9153"/>
  <circle cx="69.633" cy="354.85" r="4.9153"/>
  <circle cx="68.965" cy="341.05" r="4.9153"/>
  <circle cx="69.855" cy="321.03" r="4.9153"/>
  <circle cx="68.076" cy="307.24" r="4.9153"/>
  <circle cx="75.195" cy="290.11" r="4.9153"/>
  <circle cx="73.192" cy="274.31" r="4.9153"/>
  <circle cx="72.97" cy="259.63" r="4.9153"/>
  <circle cx="71.413" cy="241.61" r="4.9153"/>
  <circle cx="74.972" cy="227.15" r="4.9153"/>
  <circle cx="77.419" cy="210.91" r="4.9153"/>
  <circle cx="74.527" cy="192.22" r="4.9153"/>
  <circle cx="76.084" cy="178.21" r="4.9153"/>
  <circle cx="72.302" cy="158.18" r="4.9153"/>
  <circle cx="70.078" cy="143.95" r="4.9153"/>
  <circle cx="73.192" cy="125.7" r="4.9153"/>
  <circle cx="72.525" cy="107.68" r="4.9153"/>
  <circle cx="71.635" cy="91.888" r="4.9153"/>
  <circle cx="70.078" cy="72.533" r="4.9153"/>
  <circle cx="70.3" cy="59.63" r="4.9153"/>
  <circle cx="76.084" cy="42.054" r="4.9153"/>
 </g>
</svg>
