<?xml version="1.0" encoding="UTF-8"?>
<!-- Created with Inkscape (http://www.inkscape.org/) -->
<svg width="100" height="650" version="1.1" viewBox="0 0 100 650" xmlns="http://www.w3.org/2000/svg" xmlns:cc="http://creativecommons.org/ns#" xmlns:dc="http://purl.org/dc/elements/1.1/" xmlns:rdf="http://www.w3.org/1999/02/22-rdf-syntax-ns#">
 <metadata>
  <rdf:RDF>
   <cc:Work rdf:about="">
    <dc:format>image/svg+xml</dc:format>
    <dc:type rdf:resource="http://purl.org/dc/dcmitype/StillImage"/>
    <dc:title/>
   </cc:Work>
  </rdf:RDF>
 </metadata>
 <g transform="translate(-20.453 175.64)" fill="#e00000">
  <circle cx="70.586" cy="469.29" r="4.9153"/>
  <circle cx="71.117" cy="460.27" r="4.9153"/>
  <circle cx="69.524" cy="456.15" r="4.9153"/>
  <circle cx="69.259" cy="451.78" r="4.9153"/>
  <circle cx="71.647" cy="445.94" r="4.9153"/>
  <circle cx="69.524" cy="439.83" r="4.9153"/>
  <circle cx="69.922" cy="432.94" r="4.9153"/>
  <circle cx="67.534" cy="424.31" r="4.9153"/>
  <circle cx="66.207" cy="417.81" r="4.9153"/>
  <circle cx="64.881" cy="406.93" r="4.9153"/>
  <circle cx="62.625" cy="398.44" r="4.9153"/>
  <circle cx="64.881" cy="388.35" r="4.9153"/>
  <circle cx="65.677" cy="376.02" r="4.9153"/>
  <circle cx="64.483" cy="367.13" r="4.9153"/>
  <circle cx="68.065" cy="352.4" r="4.9153"/>
  <circle cx="58.645" cy="340.59" r="4.9153"/>
  <circle cx="58.512" cy="325.99" r="4.9153"/>
  <circle cx="55.46" cy="311.8" r="4.9153"/>
  <circle cx="54.001" cy="299.46" r="4.9153"/>
  <circle cx="53.735" cy="282.87" r="4.9153"/>
  <circle cx="50.949" cy="269.87" r="4.9153"/>
  <circle cx="50.684" cy="255.81" r="4.9153"/>
  <circle cx="48.163" cy="239.22" r="4.9153"/>
  <circle cx="46.969" cy="227.28" r="4.9153"/>
  <circle cx="47.898" cy="209.9" r="4.9153"/>
  <circle cx="41.131" cy="195.7" r="4.9153"/>
  <circle cx="40.998" cy="180.71" r="4.9153"/>
  <circle cx="40.202" cy="161.87" r="4.9153"/>
  <circle cx="40.6" cy="148.47" r="4.9153"/>
  <circle cx="45.642" cy="132.41" r="4.9153"/>
  <circle cx="42.59" cy="115.17" r="4.9153"/>
  <circle cx="52.807" cy="97.52" r="4.9153"/>
  <circle cx="49.888" cy="73.637" r="4.9153"/>
  <circle cx="47.765" cy="59.573" r="4.9153"/>
  <circle cx="45.775" cy="39.273" r="4.9153"/>
 </g>
</svg>
