<?xml version="1.0" encoding="UTF-8"?>
<!-- Created with Inkscape (http://www.inkscape.org/) -->
<svg width="100" height="650" version="1.1" viewBox="0 0 100 650" xmlns="http://www.w3.org/2000/svg" xmlns:cc="http://creativecommons.org/ns#" xmlns:dc="http://purl.org/dc/elements/1.1/" xmlns:rdf="http://www.w3.org/1999/02/22-rdf-syntax-ns#">
 <metadata>
  <rdf:RDF>
   <cc:Work rdf:about="">
    <dc:format>image/svg+xml</dc:format>
    <dc:type rdf:resource="http://purl.org/dc/dcmitype/StillImage"/>
    <dc:title/>
   </cc:Work>
  </rdf:RDF>
 </metadata>
 <g transform="translate(-5.6104 268.81)" fill="#e00000">
  <circle cx="55.2" cy="376.2" r="4.9153"/>
  <circle cx="55.937" cy="367.13" r="4.9153"/>
  <circle cx="55.144" cy="363.17" r="4.9153"/>
  <circle cx="58.941" cy="360.84" r="4.9153"/>
  <circle cx="59.281" cy="354.61" r="4.9153"/>
  <circle cx="61.661" cy="348.2" r="4.9153"/>
  <circle cx="62.794" cy="340.27" r="4.9153"/>
  <circle cx="65.855" cy="335.23" r="4.9153"/>
  <circle cx="64.608" cy="325.7" r="4.9153"/>
  <circle cx="62.624" cy="319.64" r="4.9153"/>
  <circle cx="63.531" cy="315.84" r="4.9153"/>
  <circle cx="59.961" cy="299.86" r="4.9153"/>
  <circle cx="58.261" cy="293.63" r="4.9153"/>
  <circle cx="54.407" cy="277.87" r="4.9153"/>
  <circle cx="55.087" cy="272.83" r="4.9153"/>
  <circle cx="57.694" cy="259.57" r="4.9153"/>
  <circle cx="60.017" cy="247.1" r="4.9153"/>
  <circle cx="64.721" cy="237.75" r="4.9153"/>
  <circle cx="68.292" cy="222.16" r="4.9153"/>
  <circle cx="70.332" cy="214.85" r="4.9153"/>
  <circle cx="79.117" cy="197.28" r="4.9153"/>
  <circle cx="80.703" cy="186.46" r="4.9153"/>
  <circle cx="82.12" cy="174.1" r="4.9153"/>
  <circle cx="81.553" cy="161.24" r="4.9153"/>
  <circle cx="77.53" cy="152.79" r="4.9153"/>
  <circle cx="79.91" cy="135.56" r="4.9153"/>
  <circle cx="71.466" cy="124.34" r="4.9153"/>
  <circle cx="71.126" cy="114.48" r="4.9153"/>
  <circle cx="74.243" cy="99.292" r="4.9153"/>
  <circle cx="76.51" cy="88.581" r="4.9153"/>
  <circle cx="77.02" cy="70.956" r="4.9153"/>
  <circle cx="70.445" cy="57.694" r="4.9153"/>
  <circle cx="76.963" cy="45.452" r="4.9153"/>
  <circle cx="74.583" cy="25.9" r="4.9153"/>
 </g>
</svg>
