<?xml version="1.0" encoding="UTF-8"?>
<!-- Created with Inkscape (http://www.inkscape.org/) -->
<svg width="100" height="650" version="1.1" viewBox="0 0 100 650" xmlns="http://www.w3.org/2000/svg" xmlns:cc="http://creativecommons.org/ns#" xmlns:dc="http://purl.org/dc/elements/1.1/" xmlns:rdf="http://www.w3.org/1999/02/22-rdf-syntax-ns#">
 <metadata>
  <rdf:RDF>
   <cc:Work rdf:about="">
    <dc:format>image/svg+xml</dc:format>
    <dc:type rdf:resource="http://purl.org/dc/dcmitype/StillImage"/>
    <dc:title/>
   </cc:Work>
  </rdf:RDF>
 </metadata>
 <g transform="translate(10.78 314.78)" fill="#e00000">
  <circle cx="38.855" cy="330.18" r="4.9153"/>
  <circle cx="39.692" cy="319.95" r="4.9153"/>
  <circle cx="36.067" cy="317.07" r="4.9153"/>
  <circle cx="38.669" cy="312.61" r="4.9153"/>
  <circle cx="37.926" cy="307.22" r="4.9153"/>
  <circle cx="37.554" cy="303.59" r="4.9153"/>
  <circle cx="37.647" cy="298.39" r="4.9153"/>
  <circle cx="37.647" cy="291.14" r="4.9153"/>
  <circle cx="40.343" cy="285.93" r="4.9153"/>
  <circle cx="42.388" cy="278.68" r="4.9153"/>
  <circle cx="43.782" cy="273.1" r="4.9153"/>
  <circle cx="45.083" cy="262.69" r="4.9153"/>
  <circle cx="43.41" cy="257.02" r="4.9153"/>
  <circle cx="47.593" cy="246.33" r="4.9153"/>
  <circle cx="48.895" cy="238.34" r="4.9153"/>
  <circle cx="48.988" cy="232.2" r="4.9153"/>
  <circle cx="48.709" cy="219" r="4.9153"/>
  <circle cx="45.176" cy="210.82" r="4.9153"/>
  <circle cx="47.872" cy="201.71" r="4.9153"/>
  <circle cx="47.5" cy="191.02" r="4.9153"/>
  <circle cx="48.058" cy="181.54" r="4.9153"/>
  <circle cx="51.126" cy="169.92" r="4.9153"/>
  <circle cx="47.593" cy="162.77" r="4.9153"/>
  <circle cx="52.985" cy="151.98" r="4.9153"/>
  <circle cx="52.706" cy="139.15" r="4.9153"/>
  <circle cx="55.401" cy="130.51" r="4.9153"/>
  <circle cx="57.447" cy="116.38" r="4.9153"/>
  <circle cx="54.565" cy="108.48" r="4.9153"/>
  <circle cx="53.914" cy="97.603" r="4.9153"/>
  <circle cx="53.914" cy="86.077" r="4.9153"/>
  <circle cx="55.123" cy="75.387" r="4.9153"/>
  <circle cx="53.635" cy="62.466" r="4.9153"/>
  <circle cx="48.616" cy="54.007" r="4.9153"/>
  <circle cx="53.728" cy="41.179" r="4.9153"/>
  <circle cx="50.661" cy="26.864" r="4.9153"/>
 </g>
</svg>
