<?xml version="1.0" encoding="UTF-8"?>
<!-- Created with Inkscape (http://www.inkscape.org/) -->
<svg width="100" height="650" version="1.1" viewBox="0 0 100 650" xmlns="http://www.w3.org/2000/svg" xmlns:cc="http://creativecommons.org/ns#" xmlns:dc="http://purl.org/dc/elements/1.1/" xmlns:rdf="http://www.w3.org/1999/02/22-rdf-syntax-ns#">
 <metadata>
  <rdf:RDF>
   <cc:Work rdf:about="">
    <dc:format>image/svg+xml</dc:format>
    <dc:type rdf:resource="http://purl.org/dc/dcmitype/StillImage"/>
    <dc:title/>
   </cc:Work>
  </rdf:RDF>
 </metadata>
 <g transform="translate(-.46875 379.53)" fill="#e00000">
  <circle cx="50.234" cy="265.62" r="4.9153"/>
  <circle cx="50.391" cy="255.62" r="4.9153"/>
  <circle cx="49.766" cy="252.27" r="4.9153"/>
  <circle cx="52.969" cy="248.44" r="4.9153"/>
  <circle cx="50.469" cy="246.41" r="4.9153"/>
  <circle cx="51.172" cy="242.66" r="4.9153"/>
  <circle cx="50.234" cy="235.7" r="4.9153"/>
  <circle cx="46.25" cy="232.97" r="4.9153"/>
  <circle cx="46.406" cy="227.42" r="4.9153"/>
  <circle cx="42.891" cy="222.66" r="4.9153"/>
  <circle cx="42.812" cy="218.91" r="4.9153"/>
  <circle cx="42.891" cy="208.91" r="4.9153"/>
  <circle cx="42.109" cy="205.86" r="4.9153"/>
  <circle cx="45.156" cy="197.34" r="4.9153"/>
  <circle cx="43.828" cy="190.47" r="4.9153"/>
  <circle cx="48.047" cy="185.86" r="4.9153"/>
  <circle cx="47.969" cy="173.12" r="4.9153"/>
  <circle cx="51.016" cy="167.81" r="4.9153"/>
  <circle cx="53.516" cy="161.95" r="4.9153"/>
  <circle cx="55.625" cy="153.44" r="4.9153"/>
  <circle cx="58.906" cy="147.42" r="4.9153"/>
  <circle cx="61.328" cy="136.56" r="4.9153"/>
  <circle cx="64.297" cy="129.77" r="4.9153"/>
  <circle cx="65.156" cy="118.98" r="4.9153"/>
  <circle cx="61.641" cy="110.47" r="4.9153"/>
  <circle cx="68.359" cy="103.59" r="4.9153"/>
  <circle cx="70.859" cy="92.344" r="4.9153"/>
  <circle cx="74.766" cy="85.781" r="4.9153"/>
  <circle cx="79.531" cy="76.328" r="4.9153"/>
  <circle cx="76.094" cy="67.734" r="4.9153"/>
  <circle cx="77.812" cy="61.25" r="4.9153"/>
  <circle cx="73.906" cy="49.219" r="4.9153"/>
  <circle cx="70.938" cy="43.516" r="4.9153"/>
  <circle cx="74.453" cy="33.359" r="4.9153"/>
  <circle cx="70" cy="25.234" r="4.9153"/>
 </g>
</svg>
