<?xml version="1.0" encoding="UTF-8"?>
<!-- Created with Inkscape (http://www.inkscape.org/) -->
<svg width="100" height="650" version="1.1" viewBox="0 0 100 650" xmlns="http://www.w3.org/2000/svg" xmlns:cc="http://creativecommons.org/ns#" xmlns:dc="http://purl.org/dc/elements/1.1/" xmlns:rdf="http://www.w3.org/1999/02/22-rdf-syntax-ns#">
 <metadata>
  <rdf:RDF>
   <cc:Work rdf:about="">
    <dc:format>image/svg+xml</dc:format>
    <dc:type rdf:resource="http://purl.org/dc/dcmitype/StillImage"/>
    <dc:title/>
   </cc:Work>
  </rdf:RDF>
 </metadata>
 <g transform="translate(-13.107 53.078)" fill="#e00000">
  <circle cx="62.783" cy="591.91" r="4.9153"/>
  <circle cx="60.194" cy="583.01" r="4.9153"/>
  <circle cx="58.09" cy="577.34" r="4.9153"/>
  <circle cx="59.87" cy="567.15" r="4.9153"/>
  <circle cx="60.194" cy="553.56" r="4.9153"/>
  <circle cx="57.281" cy="544.01" r="4.9153"/>
  <circle cx="56.634" cy="526.21" r="4.9153"/>
  <circle cx="48.382" cy="513.91" r="4.9153"/>
  <circle cx="54.369" cy="500.64" r="4.9153"/>
  <circle cx="47.087" cy="488.99" r="4.9153"/>
  <circle cx="46.602" cy="477.18" r="4.9153"/>
  <circle cx="45.469" cy="455.34" r="4.9153"/>
  <circle cx="35.922" cy="448.38" r="4.9153"/>
  <circle cx="49.029" cy="429.61" r="4.9153"/>
  <circle cx="41.262" cy="411.81" r="4.9153"/>
  <circle cx="50.647" cy="403.56" r="4.9153"/>
  <circle cx="51.618" cy="374.92" r="4.9153"/>
  <circle cx="51.78" cy="357.6" r="4.9153"/>
  <circle cx="57.605" cy="335.27" r="4.9153"/>
  <circle cx="54.854" cy="310.52" r="4.9153"/>
  <circle cx="61.65" cy="295.63" r="4.9153"/>
  <circle cx="67.475" cy="267.64" r="4.9153"/>
  <circle cx="64.401" cy="258.25" r="4.9153"/>
  <circle cx="74.595" cy="234.95" r="4.9153"/>
  <circle cx="70.873" cy="212.13" r="4.9153"/>
  <circle cx="73.139" cy="195.79" r="4.9153"/>
  <circle cx="71.521" cy="172.01" r="4.9153"/>
  <circle cx="64.401" cy="157.12" r="4.9153"/>
  <circle cx="66.019" cy="129.77" r="4.9153"/>
  <circle cx="54.369" cy="102.43" r="4.9153"/>
  <circle cx="64.886" cy="87.378" r="4.9153"/>
 </g>
</svg>
