<?xml version="1.0" encoding="UTF-8"?>
<!-- Created with Inkscape (http://www.inkscape.org/) -->
<svg width="100" height="650" version="1.1" viewBox="0 0 100 650" xmlns="http://www.w3.org/2000/svg" xmlns:cc="http://creativecommons.org/ns#" xmlns:dc="http://purl.org/dc/elements/1.1/" xmlns:rdf="http://www.w3.org/1999/02/22-rdf-syntax-ns#">
 <metadata>
  <rdf:RDF>
   <cc:Work rdf:about="">
    <dc:format>image/svg+xml</dc:format>
    <dc:type rdf:resource="http://purl.org/dc/dcmitype/StillImage"/>
    <dc:title/>
   </cc:Work>
  </rdf:RDF>
 </metadata>
 <g transform="translate(-13.987 181.71)" fill="#e00000">
  <circle cx="64.212" cy="463.11" r="4.9153"/>
  <circle cx="61.033" cy="456.75" r="4.9153"/>
  <circle cx="63.213" cy="450.58" r="4.9153"/>
  <circle cx="61.941" cy="442.31" r="4.9153"/>
  <circle cx="64.847" cy="436.41" r="4.9153"/>
  <circle cx="63.213" cy="421.42" r="4.9153"/>
  <circle cx="59.126" cy="414.34" r="4.9153"/>
  <circle cx="61.033" cy="401.26" r="4.9153"/>
  <circle cx="52.95" cy="387.64" r="4.9153"/>
  <circle cx="63.303" cy="382.55" r="4.9153"/>
  <circle cx="62.668" cy="362.3" r="4.9153"/>
  <circle cx="73.566" cy="344.86" r="4.9153"/>
  <circle cx="66.482" cy="329.42" r="4.9153"/>
  <circle cx="76.2" cy="324.61" r="4.9153"/>
  <circle cx="76.654" cy="307.53" r="4.9153"/>
  <circle cx="78.017" cy="292.46" r="4.9153"/>
  <circle cx="82.195" cy="275.38" r="4.9153"/>
  <circle cx="73.657" cy="260.4" r="4.9153"/>
  <circle cx="75.746" cy="253.13" r="4.9153"/>
  <circle cx="71.205" cy="222.89" r="4.9153"/>
  <circle cx="62.577" cy="217.62" r="4.9153"/>
  <circle cx="67.754" cy="195" r="4.9153"/>
  <circle cx="61.759" cy="175.2" r="4.9153"/>
  <circle cx="68.844" cy="162.13" r="4.9153"/>
  <circle cx="63.213" cy="142.87" r="4.9153"/>
  <circle cx="59.398" cy="132.97" r="4.9153"/>
  <circle cx="68.299" cy="111.45" r="4.9153"/>
  <circle cx="65.302" cy="97.187" r="4.9153"/>
  <circle cx="72.749" cy="84.017" r="4.9153"/>
  <circle cx="70.569" cy="55.227" r="4.9153"/>
  <circle cx="76.291" cy="46.144" r="4.9153"/>
 </g>
</svg>
