<?xml version="1.0" encoding="UTF-8"?>
<!-- Created with Inkscape (http://www.inkscape.org/) -->
<svg width="100" height="650" version="1.1" viewBox="0 0 100 650" xmlns="http://www.w3.org/2000/svg" xmlns:cc="http://creativecommons.org/ns#" xmlns:dc="http://purl.org/dc/elements/1.1/" xmlns:rdf="http://www.w3.org/1999/02/22-rdf-syntax-ns#">
 <metadata>
  <rdf:RDF>
   <cc:Work rdf:about="">
    <dc:format>image/svg+xml</dc:format>
    <dc:type rdf:resource="http://purl.org/dc/dcmitype/StillImage"/>
    <dc:title/>
   </cc:Work>
  </rdf:RDF>
 </metadata>
 <g fill="#e00000">
  <circle cx="49.785" cy="644.87" r="4.9153"/>
  <circle cx="48.587" cy="634.94" r="4.9153"/>
  <circle cx="48.587" cy="627.42" r="4.9153"/>
  <circle cx="47.389" cy="620.23" r="4.9153"/>
  <circle cx="53.719" cy="608.08" r="4.9153"/>
  <circle cx="49.442" cy="593.88" r="4.9153"/>
  <circle cx="48.758" cy="583.11" r="4.9153"/>
  <circle cx="50.811" cy="563.77" r="4.9153"/>
  <circle cx="49.1" cy="553.17" r="4.9153"/>
  <circle cx="57.141" cy="538.63" r="4.9153"/>
  <circle cx="50.127" cy="519.98" r="4.9153"/>
  <circle cx="58.167" cy="513.13" r="4.9153"/>
  <circle cx="62.102" cy="488.5" r="4.9153"/>
  <circle cx="56.628" cy="481.31" r="4.9153"/>
  <circle cx="64.155" cy="460.61" r="4.9153"/>
  <circle cx="59.023" cy="438.37" r="4.9153"/>
  <circle cx="61.589" cy="421.09" r="4.9153"/>
  <circle cx="57.996" cy="393.72" r="4.9153"/>
  <circle cx="50.982" cy="380.72" r="4.9153"/>
  <circle cx="58.681" cy="355.74" r="4.9153"/>
  <circle cx="45.336" cy="328.54" r="4.9153"/>
  <circle cx="47.389" cy="317.08" r="4.9153"/>
  <circle cx="45.679" cy="283.72" r="4.9153"/>
  <circle cx="39.178" cy="270.37" r="4.9153"/>
  <circle cx="45.336" cy="246.25" r="4.9153"/>
  <circle cx="28.571" cy="216.65" r="4.9153"/>
  <circle cx="36.098" cy="202.28" r="4.9153"/>
  <circle cx="28.399" cy="170.63" r="4.9153"/>
  <circle cx="23.78" cy="151.81" r="4.9153"/>
  <circle cx="32.848" cy="129.23" r="4.9153"/>
  <circle cx="24.807" cy="102.37" r="4.9153"/>
 </g>
</svg>
