<?xml version="1.0" encoding="UTF-8"?>
<!-- Created with Inkscape (http://www.inkscape.org/) -->
<svg width="100" height="650" version="1.1" viewBox="0 0 100 650" xmlns="http://www.w3.org/2000/svg" xmlns:cc="http://creativecommons.org/ns#" xmlns:dc="http://purl.org/dc/elements/1.1/" xmlns:rdf="http://www.w3.org/1999/02/22-rdf-syntax-ns#">
 <metadata>
  <rdf:RDF>
   <cc:Work rdf:about="">
    <dc:format>image/svg+xml</dc:format>
    <dc:type rdf:resource="http://purl.org/dc/dcmitype/StillImage"/>
    <dc:title/>
   </cc:Work>
  </rdf:RDF>
 </metadata>
 <g transform="translate(14.983 177.75)" fill="#e00000">
  <circle cx="33.954" cy="467.07" r="4.9153"/>
  <circle cx="32.423" cy="456.85" r="4.9153"/>
  <circle cx="31.657" cy="452.26" r="4.9153"/>
  <circle cx="31.274" cy="444.85" r="4.9153"/>
  <circle cx="24.764" cy="436.56" r="4.9153"/>
  <circle cx="27.061" cy="427.62" r="4.9153"/>
  <circle cx="24.764" cy="413.84" r="4.9153"/>
  <circle cx="27.061" cy="405.54" r="4.9153"/>
  <circle cx="29.104" cy="392.9" r="4.9153"/>
  <circle cx="23.487" cy="380.26" r="4.9153"/>
  <circle cx="27.7" cy="370.31" r="4.9153"/>
  <circle cx="27.827" cy="354.48" r="4.9153"/>
  <circle cx="26.806" cy="346.31" r="4.9153"/>
  <circle cx="37.146" cy="325.5" r="4.9153"/>
  <circle cx="28.721" cy="312.61" r="4.9153"/>
  <circle cx="37.784" cy="297.68" r="4.9153"/>
  <circle cx="37.018" cy="280.83" r="4.9153"/>
  <circle cx="39.699" cy="274.32" r="4.9153"/>
  <circle cx="48.251" cy="249.55" r="4.9153"/>
  <circle cx="35.103" cy="237.17" r="4.9153"/>
  <circle cx="39.188" cy="220.58" r="4.9153"/>
  <circle cx="40.72" cy="199.9" r="4.9153"/>
  <circle cx="42.89" cy="189.43" r="4.9153"/>
  <circle cx="51.698" cy="165.82" r="4.9153"/>
  <circle cx="44.932" cy="151.14" r="4.9153"/>
  <circle cx="58.463" cy="137.09" r="4.9153"/>
  <circle cx="55.399" cy="113.86" r="4.9153"/>
  <circle cx="52.719" cy="104.54" r="4.9153"/>
  <circle cx="56.165" cy="77.1" r="4.9153"/>
  <circle cx="46.209" cy="61.271" r="4.9153"/>
  <circle cx="52.336" cy="43.4" r="4.9153"/>
 </g>
</svg>
