<?xml version="1.0" encoding="UTF-8"?>
<!-- Created with Inkscape (http://www.inkscape.org/) -->
<svg width="100" height="650" version="1.1" viewBox="0 0 100 650" xmlns="http://www.w3.org/2000/svg" xmlns:cc="http://creativecommons.org/ns#" xmlns:dc="http://purl.org/dc/elements/1.1/" xmlns:rdf="http://www.w3.org/1999/02/22-rdf-syntax-ns#">
 <metadata>
  <rdf:RDF>
   <cc:Work rdf:about="">
    <dc:format>image/svg+xml</dc:format>
    <dc:type rdf:resource="http://purl.org/dc/dcmitype/StillImage"/>
    <dc:title/>
   </cc:Work>
  </rdf:RDF>
 </metadata>
 <g transform="translate(22.023 201.46)" fill="#e00000">
  <circle cx="27.512" cy="443.49" r="4.9153"/>
  <circle cx="29.848" cy="431.98" r="4.9153"/>
  <circle cx="32.53" cy="429.64" r="4.9153"/>
  <circle cx="29.588" cy="422.64" r="4.9153"/>
  <circle cx="27.339" cy="414.24" r="4.9153"/>
  <circle cx="33.049" cy="399.19" r="4.9153"/>
  <circle cx="29.848" cy="382.92" r="4.9153"/>
  <circle cx="35.991" cy="372.02" r="4.9153"/>
  <circle cx="35.991" cy="356.88" r="4.9153"/>
  <circle cx="37.98" cy="351.95" r="4.9153"/>
  <circle cx="43.777" cy="332.05" r="4.9153"/>
  <circle cx="43.085" cy="319.94" r="4.9153"/>
  <circle cx="46.459" cy="307.31" r="4.9153"/>
  <circle cx="46.113" cy="289.57" r="4.9153"/>
  <circle cx="50.525" cy="284.3" r="4.9153"/>
  <circle cx="54.591" cy="265.96" r="4.9153"/>
  <circle cx="48.189" cy="254.36" r="4.9153"/>
  <circle cx="55.111" cy="241.3" r="4.9153"/>
  <circle cx="47.584" cy="225.21" r="4.9153"/>
  <circle cx="51.996" cy="220.62" r="4.9153"/>
  <circle cx="57.273" cy="197" r="4.9153"/>
  <circle cx="50.006" cy="189.82" r="4.9153"/>
  <circle cx="59.177" cy="173.04" r="4.9153"/>
  <circle cx="58.831" cy="153.74" r="4.9153"/>
  <circle cx="63.589" cy="149.16" r="4.9153"/>
  <circle cx="66.358" cy="130.64" r="4.9153"/>
  <circle cx="62.724" cy="117.84" r="4.9153"/>
  <circle cx="65.925" cy="101.92" r="4.9153"/>
  <circle cx="59.004" cy="81.59" r="4.9153"/>
  <circle cx="62.378" cy="78.822" r="4.9153"/>
  <circle cx="60.215" cy="57.02" r="4.9153"/>
 </g>
</svg>
