<?xml version="1.0" encoding="UTF-8"?>
<!-- Created with Inkscape (http://www.inkscape.org/) -->
<svg width="100" height="650" version="1.1" viewBox="0 0 100 650" xmlns="http://www.w3.org/2000/svg" xmlns:cc="http://creativecommons.org/ns#" xmlns:dc="http://purl.org/dc/elements/1.1/" xmlns:rdf="http://www.w3.org/1999/02/22-rdf-syntax-ns#">
 <metadata>
  <rdf:RDF>
   <cc:Work rdf:about="">
    <dc:format>image/svg+xml</dc:format>
    <dc:type rdf:resource="http://purl.org/dc/dcmitype/StillImage"/>
    <dc:title/>
   </cc:Work>
  </rdf:RDF>
 </metadata>
 <g transform="translate(8.9931 318.81)" fill="#e00000">
  <circle cx="40.735" cy="326.25" r="4.9153"/>
  <circle cx="36.95" cy="319.65" r="4.9153"/>
  <circle cx="38.644" cy="317.5" r="4.9153"/>
  <circle cx="36.233" cy="308.77" r="4.9153"/>
  <circle cx="33.301" cy="306.88" r="4.9153"/>
  <circle cx="37.406" cy="296.06" r="4.9153"/>
  <circle cx="36.103" cy="287.59" r="4.9153"/>
  <circle cx="40.73" cy="281.59" r="4.9153"/>
  <circle cx="40.367" cy="270.03" r="4.9153"/>
  <circle cx="39.076" cy="268.19" r="4.9153"/>
  <circle cx="46.265" cy="255.47" r="4.9153"/>
  <circle cx="40.919" cy="245.89" r="4.9153"/>
  <circle cx="51.61" cy="244.04" r="4.9153"/>
  <circle cx="52.532" cy="228.01" r="4.9153"/>
  <circle cx="57.324" cy="212.52" r="4.9153"/>
  <circle cx="46.449" cy="202.39" r="4.9153"/>
  <circle cx="50.136" cy="192.99" r="4.9153"/>
  <circle cx="48.108" cy="181.56" r="4.9153"/>
  <circle cx="39.814" cy="175.11" r="4.9153"/>
  <circle cx="47.555" cy="155.75" r="4.9153"/>
  <circle cx="36.127" cy="146.9" r="4.9153"/>
  <circle cx="42.947" cy="140.45" r="4.9153"/>
  <circle cx="34.284" cy="116.68" r="4.9153"/>
  <circle cx="32.441" cy="115.02" r="4.9153"/>
  <circle cx="37.786" cy="98.428" r="4.9153"/>
  <circle cx="37.417" cy="88.29" r="4.9153"/>
  <circle cx="34.468" cy="77.968" r="4.9153"/>
  <circle cx="29.123" cy="59.536" r="4.9153"/>
  <circle cx="31.888" cy="54.928" r="4.9153"/>
  <circle cx="35.574" cy="40.367" r="4.9153"/>
  <circle cx="28.674" cy="26.854" r="4.9153"/>
 </g>
</svg>
