<?xml version="1.0" encoding="UTF-8"?>
<!-- Created with Inkscape (http://www.inkscape.org/) -->
<svg width="100" height="650" version="1.1" viewBox="0 0 100 650" xmlns="http://www.w3.org/2000/svg" xmlns:cc="http://creativecommons.org/ns#" xmlns:dc="http://purl.org/dc/elements/1.1/" xmlns:rdf="http://www.w3.org/1999/02/22-rdf-syntax-ns#">
 <metadata>
  <rdf:RDF>
   <cc:Work rdf:about="">
    <dc:format>image/svg+xml</dc:format>
    <dc:type rdf:resource="http://purl.org/dc/dcmitype/StillImage"/>
    <dc:title/>
   </cc:Work>
  </rdf:RDF>
 </metadata>
 <g transform="translate(-4.7831 183.55)" fill="#e00000">
  <circle cx="54.74" cy="461.31" r="4.9153"/>
  <circle cx="55.625" cy="452.1" r="4.9153"/>
  <circle cx="50.134" cy="447.67" r="4.9153"/>
  <circle cx="52.614" cy="442.71" r="4.9153"/>
  <circle cx="48.717" cy="428.89" r="4.9153"/>
  <circle cx="50.488" cy="423.4" r="4.9153"/>
  <circle cx="52.26" cy="410.29" r="4.9153"/>
  <circle cx="48.362" cy="400.72" r="4.9153"/>
  <circle cx="51.374" cy="391.16" r="4.9153"/>
  <circle cx="46.236" cy="376.45" r="4.9153"/>
  <circle cx="44.465" cy="372.38" r="4.9153"/>
  <circle cx="45.351" cy="355.19" r="4.9153"/>
  <circle cx="38.973" cy="345.1" r="4.9153"/>
  <circle cx="46.591" cy="335" r="4.9153"/>
  <circle cx="42.871" cy="316.93" r="4.9153"/>
  <circle cx="46.236" cy="295.67" r="4.9153"/>
  <circle cx="32.596" cy="284.69" r="4.9153"/>
  <circle cx="39.682" cy="269.98" r="4.9153"/>
  <circle cx="37.556" cy="246.42" r="4.9153"/>
  <circle cx="41.631" cy="235.62" r="4.9153"/>
  <circle cx="39.15" cy="216.13" r="4.9153"/>
  <circle cx="39.682" cy="198.06" r="4.9153"/>
  <circle cx="44.111" cy="182.29" r="4.9153"/>
  <circle cx="38.796" cy="158.2" r="4.9153"/>
  <circle cx="46.768" cy="148.28" r="4.9153"/>
  <circle cx="50.311" cy="126.14" r="4.9153"/>
  <circle cx="47.831" cy="112.5" r="4.9153"/>
  <circle cx="60.586" cy="99.388" r="4.9153"/>
  <circle cx="52.614" cy="76.358" r="4.9153"/>
  <circle cx="58.637" cy="68.209" r="4.9153"/>
  <circle cx="63.635" cy="38.081" r="4.9153"/>
 </g>
</svg>
