<?xml version="1.0" encoding="UTF-8"?>
<!-- Created with Inkscape (http://www.inkscape.org/) -->
<svg width="100" height="650" version="1.1" viewBox="0 0 100 650" xmlns="http://www.w3.org/2000/svg" xmlns:cc="http://creativecommons.org/ns#" xmlns:dc="http://purl.org/dc/elements/1.1/" xmlns:rdf="http://www.w3.org/1999/02/22-rdf-syntax-ns#">
 <metadata>
  <rdf:RDF>
   <cc:Work rdf:about="">
    <dc:format>image/svg+xml</dc:format>
    <dc:type rdf:resource="http://purl.org/dc/dcmitype/StillImage"/>
    <dc:title/>
   </cc:Work>
  </rdf:RDF>
 </metadata>
 <g transform="translate(1.3681 289.6)" fill="#e00000">
  <circle cx="48.275" cy="355.32" r="4.9153"/>
  <circle cx="46.32" cy="346.13" r="4.9153"/>
  <circle cx="46.516" cy="340.66" r="4.9153"/>
  <circle cx="43.584" cy="335.19" r="4.9153"/>
  <circle cx="49.252" cy="329.32" r="4.9153"/>
  <circle cx="44.952" cy="320.73" r="4.9153"/>
  <circle cx="43.584" cy="315.06" r="4.9153"/>
  <circle cx="51.011" cy="300.4" r="4.9153"/>
  <circle cx="47.298" cy="295.12" r="4.9153"/>
  <circle cx="49.838" cy="287.89" r="4.9153"/>
  <circle cx="46.516" cy="273.82" r="4.9153"/>
  <circle cx="41.434" cy="273.04" r="4.9153"/>
  <circle cx="50.034" cy="258.38" r="4.9153"/>
  <circle cx="41.825" cy="251.73" r="4.9153"/>
  <circle cx="49.057" cy="241.37" r="4.9153"/>
  <circle cx="43.193" cy="230.23" r="4.9153"/>
  <circle cx="42.412" cy="223.39" r="4.9153"/>
  <circle cx="45.734" cy="205.61" r="4.9153"/>
  <circle cx="33.812" cy="200.33" r="4.9153"/>
  <circle cx="50.034" cy="190.36" r="4.9153"/>
  <circle cx="40.066" cy="169.06" r="4.9153"/>
  <circle cx="47.493" cy="162.81" r="4.9153"/>
  <circle cx="48.666" cy="149.12" r="4.9153"/>
  <circle cx="43.389" cy="139.94" r="4.9153"/>
  <circle cx="45.93" cy="127.43" r="4.9153"/>
  <circle cx="41.239" cy="111.6" r="4.9153"/>
  <circle cx="45.93" cy="109.06" r="4.9153"/>
  <circle cx="45.734" cy="90.686" r="4.9153"/>
  <circle cx="36.353" cy="82.673" r="4.9153"/>
  <circle cx="47.102" cy="67.624" r="4.9153"/>
  <circle cx="36.157" cy="49.448" r="4.9153"/>
 </g>
</svg>
