<?xml version="1.0" encoding="UTF-8"?>
<!-- Created with Inkscape (http://www.inkscape.org/) -->
<svg width="100" height="650" version="1.1" viewBox="0 0 100 650" xmlns="http://www.w3.org/2000/svg" xmlns:cc="http://creativecommons.org/ns#" xmlns:dc="http://purl.org/dc/elements/1.1/" xmlns:rdf="http://www.w3.org/1999/02/22-rdf-syntax-ns#">
 <metadata>
  <rdf:RDF>
   <cc:Work rdf:about="">
    <dc:format>image/svg+xml</dc:format>
    <dc:type rdf:resource="http://purl.org/dc/dcmitype/StillImage"/>
    <dc:title/>
   </cc:Work>
  </rdf:RDF>
 </metadata>
 <g transform="translate(1.3753 99.13)" fill="#e00000">
  <circle cx="48.593" cy="545.67" r="4.9153"/>
  <circle cx="46.759" cy="532.23" r="4.9153"/>
  <circle cx="43.55" cy="518.78" r="4.9153"/>
  <circle cx="40.494" cy="513.13" r="4.9153"/>
  <circle cx="43.55" cy="500.6" r="4.9153"/>
  <circle cx="42.939" cy="487.3" r="4.9153"/>
  <circle cx="42.939" cy="474.47" r="4.9153"/>
  <circle cx="41.716" cy="456.59" r="4.9153"/>
  <circle cx="41.869" cy="443.6" r="4.9153"/>
  <circle cx="44.467" cy="429.24" r="4.9153"/>
  <circle cx="38.966" cy="413.5" r="4.9153"/>
  <circle cx="41.564" cy="405.09" r="4.9153"/>
  <circle cx="39.73" cy="380.18" r="4.9153"/>
  <circle cx="39.73" cy="371.63" r="4.9153"/>
  <circle cx="44.773" cy="353.14" r="4.9153"/>
  <circle cx="31.173" cy="337.4" r="4.9153"/>
  <circle cx="41.411" cy="321.96" r="4.9153"/>
  <circle cx="39.271" cy="295.07" r="4.9153"/>
  <circle cx="45.537" cy="280.71" r="4.9153"/>
  <circle cx="49.662" cy="261.91" r="4.9153"/>
  <circle cx="48.287" cy="241.28" r="4.9153"/>
  <circle cx="55.011" cy="221.11" r="4.9153"/>
  <circle cx="56.386" cy="196.51" r="4.9153"/>
  <circle cx="56.997" cy="186.42" r="4.9153"/>
  <circle cx="62.345" cy="158.16" r="4.9153"/>
  <circle cx="48.745" cy="143.18" r="4.9153"/>
  <circle cx="59.289" cy="121.79" r="4.9153"/>
  <circle cx="60.817" cy="98.561" r="4.9153"/>
  <circle cx="66.166" cy="82.669" r="4.9153"/>
  <circle cx="74.264" cy="55.622" r="4.9153"/>
  <circle cx="59.9" cy="37.896" r="4.9153"/>
 </g>
</svg>
