<?xml version="1.0" encoding="UTF-8"?>
<!-- Created with Inkscape (http://www.inkscape.org/) -->
<svg width="100" height="650" version="1.1" viewBox="0 0 100 650" xmlns="http://www.w3.org/2000/svg" xmlns:cc="http://creativecommons.org/ns#" xmlns:dc="http://purl.org/dc/elements/1.1/" xmlns:rdf="http://www.w3.org/1999/02/22-rdf-syntax-ns#">
 <metadata>
  <rdf:RDF>
   <cc:Work rdf:about="">
    <dc:format>image/svg+xml</dc:format>
    <dc:type rdf:resource="http://purl.org/dc/dcmitype/StillImage"/>
    <dc:title/>
   </cc:Work>
  </rdf:RDF>
 </metadata>
 <g transform="translate(-12.183 233.01)" fill="#e00000">
  <circle cx="62.173" cy="411.89" r="4.9153"/>
  <circle cx="65.262" cy="406.69" r="4.9153"/>
  <circle cx="65.831" cy="399.62" r="4.9153"/>
  <circle cx="63.149" cy="394.1" r="4.9153"/>
  <circle cx="66.074" cy="384.83" r="4.9153"/>
  <circle cx="59.979" cy="374.59" r="4.9153"/>
  <circle cx="62.498" cy="369.96" r="4.9153"/>
  <circle cx="61.117" cy="352.97" r="4.9153"/>
  <circle cx="56.24" cy="348.1" r="4.9153"/>
  <circle cx="60.06" cy="336.31" r="4.9153"/>
  <circle cx="51.032" cy="322.74" r="4.9153"/>
  <circle cx="54.25" cy="316.53" r="4.9153"/>
  <circle cx="53.331" cy="301.02" r="4.9153"/>
  <circle cx="50.342" cy="295.73" r="4.9153"/>
  <circle cx="55.284" cy="283.55" r="4.9153"/>
  <circle cx="46.779" cy="275.04" r="4.9153"/>
  <circle cx="46.894" cy="264.47" r="4.9153"/>
  <circle cx="44.365" cy="245.16" r="4.9153"/>
  <circle cx="37.699" cy="239.87" r="4.9153"/>
  <circle cx="47.124" cy="221.02" r="4.9153"/>
  <circle cx="41.032" cy="203.9" r="4.9153"/>
  <circle cx="43.446" cy="196.31" r="4.9153"/>
  <circle cx="42.756" cy="172.63" r="4.9153"/>
  <circle cx="39.653" cy="169.3" r="4.9153"/>
  <circle cx="47.928" cy="149.65" r="4.9153"/>
  <circle cx="41.147" cy="134.71" r="4.9153"/>
  <circle cx="42.986" cy="123.67" r="4.9153"/>
  <circle cx="44.94" cy="99.65" r="4.9153"/>
  <circle cx="41.377" cy="95.972" r="4.9153"/>
  <circle cx="50.227" cy="77.122" r="4.9153"/>
  <circle cx="35.745" cy="63.215" r="4.9153"/>
 </g>
</svg>
