<?xml version="1.0" encoding="UTF-8"?>
<!-- Created with Inkscape (http://www.inkscape.org/) -->
<svg width="100" height="650" version="1.1" viewBox="0 0 100 650" xmlns="http://www.w3.org/2000/svg" xmlns:cc="http://creativecommons.org/ns#" xmlns:dc="http://purl.org/dc/elements/1.1/" xmlns:rdf="http://www.w3.org/1999/02/22-rdf-syntax-ns#">
 <metadata>
  <rdf:RDF>
   <cc:Work rdf:about="">
    <dc:format>image/svg+xml</dc:format>
    <dc:type rdf:resource="http://purl.org/dc/dcmitype/StillImage"/>
    <dc:title/>
   </cc:Work>
  </rdf:RDF>
 </metadata>
 <g transform="translate(9.6308 241.52)" fill="#e00000">
  <circle cx="40.39" cy="403.44" r="4.9153"/>
  <circle cx="40.899" cy="393.7" r="4.9153"/>
  <circle cx="42.504" cy="389.51" r="4.9153"/>
  <circle cx="43.952" cy="381.29" r="4.9153"/>
  <circle cx="44.461" cy="373.07" r="4.9153"/>
  <circle cx="51.349" cy="364.54" r="4.9153"/>
  <circle cx="45.165" cy="352.64" r="4.9153"/>
  <circle cx="47.044" cy="346.06" r="4.9153"/>
  <circle cx="47.379" cy="330.99" r="4.9153"/>
  <circle cx="44.501" cy="323.24" r="4.9153"/>
  <circle cx="56.014" cy="311.06" r="4.9153"/>
  <circle cx="46.051" cy="298" r="4.9153"/>
  <circle cx="46.051" cy="291.36" r="4.9153"/>
  <circle cx="46.051" cy="275.42" r="4.9153"/>
  <circle cx="46.272" cy="266.34" r="4.9153"/>
  <circle cx="51.807" cy="255.27" r="4.9153"/>
  <circle cx="42.73" cy="244.2" r="4.9153"/>
  <circle cx="49.15" cy="240" r="4.9153"/>
  <circle cx="49.15" cy="216.53" r="4.9153"/>
  <circle cx="43.173" cy="210.11" r="4.9153"/>
  <circle cx="49.372" cy="197.49" r="4.9153"/>
  <circle cx="38.966" cy="183.98" r="4.9153"/>
  <circle cx="51.807" cy="180.66" r="4.9153"/>
  <circle cx="46.051" cy="155.42" r="4.9153"/>
  <circle cx="44.058" cy="145.24" r="4.9153"/>
  <circle cx="51.807" cy="127.97" r="4.9153"/>
  <circle cx="44.501" cy="113.8" r="4.9153"/>
  <circle cx="56.457" cy="106.05" r="4.9153"/>
  <circle cx="53.8" cy="84.574" r="4.9153"/>
  <circle cx="54.464" cy="74.833" r="4.9153"/>
  <circle cx="63.541" cy="56.014" r="4.9153"/>
 </g>
</svg>
