<?xml version="1.0" encoding="UTF-8"?>
<!-- Created with Inkscape (http://www.inkscape.org/) -->
<svg width="100" height="650" version="1.1" viewBox="0 0 100 650" xmlns="http://www.w3.org/2000/svg" xmlns:cc="http://creativecommons.org/ns#" xmlns:dc="http://purl.org/dc/elements/1.1/" xmlns:rdf="http://www.w3.org/1999/02/22-rdf-syntax-ns#">
 <metadata>
  <rdf:RDF>
   <cc:Work rdf:about="">
    <dc:format>image/svg+xml</dc:format>
    <dc:type rdf:resource="http://purl.org/dc/dcmitype/StillImage"/>
    <dc:title/>
   </cc:Work>
  </rdf:RDF>
 </metadata>
 <g transform="translate(8.4235 318.14)" fill="#e00000">
  <circle cx="40.513" cy="326.92" r="4.9153"/>
  <circle cx="40.379" cy="317.69" r="4.9153"/>
  <circle cx="41.048" cy="314.75" r="4.9153"/>
  <circle cx="44.123" cy="308.06" r="4.9153"/>
  <circle cx="42.519" cy="304.85" r="4.9153"/>
  <circle cx="48" cy="297.37" r="4.9153"/>
  <circle cx="45.46" cy="285.6" r="4.9153"/>
  <circle cx="44.925" cy="284.26" r="4.9153"/>
  <circle cx="45.059" cy="269.16" r="4.9153"/>
  <circle cx="38.24" cy="263.14" r="4.9153"/>
  <circle cx="42.251" cy="254.71" r="4.9153"/>
  <circle cx="43.454" cy="240.68" r="4.9153"/>
  <circle cx="39.577" cy="240.54" r="4.9153"/>
  <circle cx="45.727" cy="227.84" r="4.9153"/>
  <circle cx="43.321" cy="221.02" r="4.9153"/>
  <circle cx="52.413" cy="208.85" r="4.9153"/>
  <circle cx="48.936" cy="197.09" r="4.9153"/>
  <circle cx="51.477" cy="195.75" r="4.9153"/>
  <circle cx="50.14" cy="181.98" r="4.9153"/>
  <circle cx="42.786" cy="173.02" r="4.9153"/>
  <circle cx="52.012" cy="160.72" r="4.9153"/>
  <circle cx="41.85" cy="147.88" r="4.9153"/>
  <circle cx="39.176" cy="137.59" r="4.9153"/>
  <circle cx="36.769" cy="123.28" r="4.9153"/>
  <circle cx="34.63" cy="114.86" r="4.9153"/>
  <circle cx="40.78" cy="103.49" r="4.9153"/>
  <circle cx="30.351" cy="86.245" r="4.9153"/>
  <circle cx="37.839" cy="84.908" r="4.9153"/>
  <circle cx="35.566" cy="62.579" r="4.9153"/>
  <circle cx="33.025" cy="55.894" r="4.9153"/>
  <circle cx="43.989" cy="41.587" r="4.9153"/>
 </g>
</svg>
