<?xml version="1.0" encoding="UTF-8"?>
<!-- Created with Inkscape (http://www.inkscape.org/) -->
<svg width="100" height="650" version="1.1" viewBox="0 0 100 650" xmlns="http://www.w3.org/2000/svg" xmlns:cc="http://creativecommons.org/ns#" xmlns:dc="http://purl.org/dc/elements/1.1/" xmlns:rdf="http://www.w3.org/1999/02/22-rdf-syntax-ns#">
 <metadata>
  <rdf:RDF>
   <cc:Work rdf:about="">
    <dc:format>image/svg+xml</dc:format>
    <dc:type rdf:resource="http://purl.org/dc/dcmitype/StillImage"/>
    <dc:title/>
   </cc:Work>
  </rdf:RDF>
 </metadata>
 <g transform="translate(20.327 156.85)" fill="#e00000">
  <circle cx="29.204" cy="488.21" r="4.9153"/>
  <circle cx="31.125" cy="482.64" r="4.9153"/>
  <circle cx="35.737" cy="476.88" r="4.9153"/>
  <circle cx="32.662" cy="467.46" r="4.9153"/>
  <circle cx="36.121" cy="458.82" r="4.9153"/>
  <circle cx="40.54" cy="441.72" r="4.9153"/>
  <circle cx="38.426" cy="437.68" r="4.9153"/>
  <circle cx="48.417" cy="422.51" r="4.9153"/>
  <circle cx="44.767" cy="410.59" r="4.9153"/>
  <circle cx="48.225" cy="400.22" r="4.9153"/>
  <circle cx="49.186" cy="386.19" r="4.9153"/>
  <circle cx="44.383" cy="376.78" r="4.9153"/>
  <circle cx="48.225" cy="360.06" r="4.9153"/>
  <circle cx="43.23" cy="344.88" r="4.9153"/>
  <circle cx="52.644" cy="341.62" r="4.9153"/>
  <circle cx="55.91" cy="315.3" r="4.9153"/>
  <circle cx="55.718" cy="304.15" r="4.9153"/>
  <circle cx="55.718" cy="287.05" r="4.9153"/>
  <circle cx="46.688" cy="265.53" r="4.9153"/>
  <circle cx="50.147" cy="252.28" r="4.9153"/>
  <circle cx="46.496" cy="230.57" r="4.9153"/>
  <circle cx="45.727" cy="220.77" r="4.9153"/>
  <circle cx="55.91" cy="198.1" r="4.9153"/>
  <circle cx="48.994" cy="175.42" r="4.9153"/>
  <circle cx="58.985" cy="168.89" r="4.9153"/>
  <circle cx="53.029" cy="141.03" r="4.9153"/>
  <circle cx="45.535" cy="136.8" r="4.9153"/>
  <circle cx="55.91" cy="113.17" r="4.9153"/>
  <circle cx="51.299" cy="97.802" r="4.9153"/>
  <circle cx="63.019" cy="88.003" r="4.9153"/>
  <circle cx="60.714" cy="63.987" r="4.9153"/>
 </g>
</svg>
