<?xml version="1.0" encoding="UTF-8"?>
<!-- Created with Inkscape (http://www.inkscape.org/) -->
<svg width="100" height="650" version="1.1" viewBox="0 0 100 650" xmlns="http://www.w3.org/2000/svg" xmlns:cc="http://creativecommons.org/ns#" xmlns:dc="http://purl.org/dc/elements/1.1/" xmlns:rdf="http://www.w3.org/1999/02/22-rdf-syntax-ns#">
 <metadata>
  <rdf:RDF>
   <cc:Work rdf:about="">
    <dc:format>image/svg+xml</dc:format>
    <dc:type rdf:resource="http://purl.org/dc/dcmitype/StillImage"/>
    <dc:title/>
   </cc:Work>
  </rdf:RDF>
 </metadata>
 <g transform="translate(-7.3227 240.39)" fill="#e00000">
  <circle cx="57.178" cy="404.54" r="4.9153"/>
  <circle cx="57.288" cy="392.31" r="4.9153"/>
  <circle cx="54.864" cy="388.68" r="4.9153"/>
  <circle cx="58.61" cy="381.85" r="4.9153"/>
  <circle cx="57.398" cy="371.27" r="4.9153"/>
  <circle cx="56.737" cy="363.01" r="4.9153"/>
  <circle cx="57.068" cy="351.33" r="4.9153"/>
  <circle cx="58.61" cy="343.73" r="4.9153"/>
  <circle cx="61.034" cy="334.58" r="4.9153"/>
  <circle cx="60.042" cy="324.01" r="4.9153"/>
  <circle cx="63.898" cy="318.94" r="4.9153"/>
  <circle cx="63.458" cy="302.86" r="4.9153"/>
  <circle cx="59.271" cy="294.81" r="4.9153"/>
  <circle cx="68.636" cy="283.36" r="4.9153"/>
  <circle cx="63.017" cy="269.03" r="4.9153"/>
  <circle cx="61.805" cy="265.18" r="4.9153"/>
  <circle cx="62.686" cy="239.29" r="4.9153"/>
  <circle cx="47.703" cy="235.76" r="4.9153"/>
  <circle cx="58.941" cy="220.01" r="4.9153"/>
  <circle cx="47.263" cy="204.14" r="4.9153"/>
  <circle cx="48.364" cy="196.32" r="4.9153"/>
  <circle cx="44.619" cy="174.51" r="4.9153"/>
  <circle cx="33.712" cy="166.91" r="4.9153"/>
  <circle cx="49.356" cy="148.18" r="4.9153"/>
  <circle cx="42.525" cy="131.76" r="4.9153"/>
  <circle cx="40.983" cy="122.84" r="4.9153"/>
  <circle cx="42.636" cy="100.81" r="4.9153"/>
  <circle cx="31.839" cy="97.059" r="4.9153"/>
  <circle cx="40.212" cy="78.661" r="4.9153"/>
  <circle cx="25.559" cy="58.61" r="4.9153"/>
  <circle cx="33.822" cy="53.653" r="4.9153"/>
 </g>
</svg>
