<?xml version="1.0" encoding="UTF-8"?>
<!-- Created with Inkscape (http://www.inkscape.org/) -->
<svg width="100" height="650" version="1.1" viewBox="0 0 100 650" xmlns="http://www.w3.org/2000/svg" xmlns:cc="http://creativecommons.org/ns#" xmlns:dc="http://purl.org/dc/elements/1.1/" xmlns:rdf="http://www.w3.org/1999/02/22-rdf-syntax-ns#">
 <metadata>
  <rdf:RDF>
   <cc:Work rdf:about="">
    <dc:format>image/svg+xml</dc:format>
    <dc:type rdf:resource="http://purl.org/dc/dcmitype/StillImage"/>
    <dc:title/>
   </cc:Work>
  </rdf:RDF>
 </metadata>
 <g transform="translate(4.9145 174.92)" fill="#e00000">
  <circle cx="44.231" cy="470.16" r="4.9153"/>
  <circle cx="45.323" cy="458.7" r="4.9153"/>
  <circle cx="46.233" cy="453.42" r="4.9153"/>
  <circle cx="48.326" cy="443.23" r="4.9153"/>
  <circle cx="48.508" cy="435.58" r="4.9153"/>
  <circle cx="48.144" cy="425.11" r="4.9153"/>
  <circle cx="43.776" cy="409.92" r="4.9153"/>
  <circle cx="47.78" cy="405.64" r="4.9153"/>
  <circle cx="51.057" cy="387.44" r="4.9153"/>
  <circle cx="45.869" cy="378.43" r="4.9153"/>
  <circle cx="56.699" cy="364.87" r="4.9153"/>
  <circle cx="48.872" cy="348.76" r="4.9153"/>
  <circle cx="48.963" cy="341.48" r="4.9153"/>
  <circle cx="48.053" cy="324.64" r="4.9153"/>
  <circle cx="45.232" cy="313.26" r="4.9153"/>
  <circle cx="51.148" cy="299.7" r="4.9153"/>
  <circle cx="47.689" cy="283.5" r="4.9153"/>
  <circle cx="52.786" cy="272.85" r="4.9153"/>
  <circle cx="54.151" cy="251.01" r="4.9153"/>
  <circle cx="43.23" cy="239.27" r="4.9153"/>
  <circle cx="50.693" cy="220.16" r="4.9153"/>
  <circle cx="40.044" cy="200.5" r="4.9153"/>
  <circle cx="41.683" cy="187.67" r="4.9153"/>
  <circle cx="45.96" cy="164.64" r="4.9153"/>
  <circle cx="43.23" cy="150.9" r="4.9153"/>
  <circle cx="47.962" cy="132.06" r="4.9153"/>
  <circle cx="46.87" cy="116.86" r="4.9153"/>
  <circle cx="48.781" cy="105.12" r="4.9153"/>
  <circle cx="47.325" cy="84.009" r="4.9153"/>
  <circle cx="39.225" cy="74.726" r="4.9153"/>
  <circle cx="46.961" cy="55.341" r="4.9153"/>
 </g>
</svg>
