<?xml version="1.0" encoding="UTF-8"?>
<!-- Created with Inkscape (http://www.inkscape.org/) -->
<svg width="100" height="650" version="1.1" viewBox="0 0 100 650" xmlns="http://www.w3.org/2000/svg" xmlns:cc="http://creativecommons.org/ns#" xmlns:dc="http://purl.org/dc/elements/1.1/" xmlns:rdf="http://www.w3.org/1999/02/22-rdf-syntax-ns#">
 <metadata>
  <rdf:RDF>
   <cc:Work rdf:about="">
    <dc:format>image/svg+xml</dc:format>
    <dc:type rdf:resource="http://purl.org/dc/dcmitype/StillImage"/>
    <dc:title/>
   </cc:Work>
  </rdf:RDF>
 </metadata>
 <g transform="translate(1.373 66.46)" fill="#e00000">
  <circle cx="48.284" cy="578.39" r="4.9153"/>
  <circle cx="47.712" cy="572.21" r="4.9153"/>
  <circle cx="46.911" cy="564.32" r="4.9153"/>
  <circle cx="44.509" cy="554.71" r="4.9153"/>
  <circle cx="44.394" cy="543.26" r="4.9153"/>
  <circle cx="44.165" cy="527.13" r="4.9153"/>
  <circle cx="47.941" cy="518.32" r="4.9153"/>
  <circle cx="44.966" cy="499.67" r="4.9153"/>
  <circle cx="41.991" cy="491.32" r="4.9153"/>
  <circle cx="47.026" cy="473.01" r="4.9153"/>
  <circle cx="40.046" cy="456.54" r="4.9153"/>
  <circle cx="40.733" cy="447.84" r="4.9153"/>
  <circle cx="39.703" cy="425.76" r="4.9153"/>
  <circle cx="35.126" cy="418.89" r="4.9153"/>
  <circle cx="45.31" cy="396.58" r="4.9153"/>
  <circle cx="40.046" cy="376.21" r="4.9153"/>
  <circle cx="47.14" cy="360.31" r="4.9153"/>
  <circle cx="45.081" cy="336.4" r="4.9153"/>
  <circle cx="36.27" cy="327.01" r="4.9153"/>
  <circle cx="51.145" cy="304.7" r="4.9153"/>
  <circle cx="43.25" cy="283.54" r="4.9153"/>
  <circle cx="47.598" cy="268.66" r="4.9153"/>
  <circle cx="43.822" cy="241.89" r="4.9153"/>
  <circle cx="42.449" cy="232.16" r="4.9153"/>
  <circle cx="51.145" cy="209.74" r="4.9153"/>
  <circle cx="41.419" cy="186.74" r="4.9153"/>
  <circle cx="49.657" cy="171.86" r="4.9153"/>
  <circle cx="42.335" cy="140.06" r="4.9153"/>
  <circle cx="38.216" cy="128.61" r="4.9153"/>
  <circle cx="52.976" cy="99.437" r="4.9153"/>
  <circle cx="39.131" cy="75.982" r="4.9153"/>
 </g>
</svg>
