<?xml version="1.0" encoding="UTF-8"?>
<!-- Created with Inkscape (http://www.inkscape.org/) -->
<svg width="100" height="650" version="1.1" viewBox="0 0 100 650" xmlns="http://www.w3.org/2000/svg" xmlns:cc="http://creativecommons.org/ns#" xmlns:dc="http://purl.org/dc/elements/1.1/" xmlns:rdf="http://www.w3.org/1999/02/22-rdf-syntax-ns#">
 <metadata>
  <rdf:RDF>
   <cc:Work rdf:about="">
    <dc:format>image/svg+xml</dc:format>
    <dc:type rdf:resource="http://purl.org/dc/dcmitype/StillImage"/>
    <dc:title/>
   </cc:Work>
  </rdf:RDF>
 </metadata>
 <g transform="translate(-46.487 33.044)" fill="#e00000">
  <circle cx="96.872" cy="611.98" r="4.9153"/>
  <circle cx="96.872" cy="607.62" r="4.9153"/>
  <circle cx="96.872" cy="602.25" r="4.9153"/>
  <circle cx="95.421" cy="593.62" r="4.9153"/>
  <circle cx="93.897" cy="585.42" r="4.9153"/>
  <circle cx="95.349" cy="577.44" r="4.9153"/>
  <circle cx="97.888" cy="567.2" r="4.9153"/>
  <circle cx="100.28" cy="555.16" r="4.9153"/>
  <circle cx="101.59" cy="542.32" r="4.9153"/>
  <circle cx="100.28" cy="532.45" r="4.9153"/>
  <circle cx="97.888" cy="521.34" r="4.9153"/>
  <circle cx="98.469" cy="509.59" r="4.9153"/>
  <circle cx="100.21" cy="498.2" r="4.9153"/>
  <circle cx="99.412" cy="487.53" r="4.9153"/>
  <circle cx="100.07" cy="477.15" r="4.9153"/>
  <circle cx="98.832" cy="464.31" r="4.9153"/>
  <circle cx="97.38" cy="451.76" r="4.9153"/>
  <circle cx="91.067" cy="438.55" r="4.9153"/>
  <circle cx="86.931" cy="425.05" r="4.9153"/>
 </g>
</svg>
