<?xml version="1.0" encoding="UTF-8"?>
<!-- Created with Inkscape (http://www.inkscape.org/) -->
<svg width="100" height="650" version="1.1" viewBox="0 0 100 650" xmlns="http://www.w3.org/2000/svg" xmlns:cc="http://creativecommons.org/ns#" xmlns:dc="http://purl.org/dc/elements/1.1/" xmlns:rdf="http://www.w3.org/1999/02/22-rdf-syntax-ns#">
 <metadata>
  <rdf:RDF>
   <cc:Work rdf:about="">
    <dc:format>image/svg+xml</dc:format>
    <dc:type rdf:resource="http://purl.org/dc/dcmitype/StillImage"/>
    <dc:title/>
   </cc:Work>
  </rdf:RDF>
 </metadata>
 <g transform="translate(-51.729 72.015)" fill="#e00000">
  <circle cx="101.7" cy="572.97" r="4.9153"/>
  <circle cx="102.13" cy="567.38" r="4.9153"/>
  <circle cx="103.14" cy="562.5" r="4.9153"/>
  <circle cx="102.42" cy="553.18" r="4.9153"/>
  <circle cx="103.28" cy="541.7" r="4.9153"/>
  <circle cx="100.84" cy="529.94" r="4.9153"/>
  <circle cx="98.689" cy="517.74" r="4.9153"/>
  <circle cx="100.55" cy="502.25" r="4.9153"/>
  <circle cx="98.402" cy="489.49" r="4.9153"/>
  <circle cx="95.82" cy="473.42" r="4.9153"/>
  <circle cx="91.804" cy="459.79" r="4.9153"/>
  <circle cx="86.64" cy="444.73" r="4.9153"/>
  <circle cx="82.337" cy="429.53" r="4.9153"/>
  <circle cx="81.906" cy="414.18" r="4.9153"/>
  <circle cx="81.476" cy="399.55" r="4.9153"/>
  <circle cx="81.906" cy="384.2" r="4.9153"/>
  <circle cx="84.058" cy="367.27" r="4.9153"/>
  <circle cx="83.484" cy="348.77" r="4.9153"/>
  <circle cx="81.476" cy="330.69" r="4.9153"/>
  <circle cx="76.742" cy="312.48" r="4.9153"/>
 </g>
</svg>
