<?xml version="1.0" encoding="UTF-8"?>
<!-- Created with Inkscape (http://www.inkscape.org/) -->
<svg width="100" height="650" version="1.1" viewBox="0 0 100 650" xmlns="http://www.w3.org/2000/svg" xmlns:cc="http://creativecommons.org/ns#" xmlns:dc="http://purl.org/dc/elements/1.1/" xmlns:rdf="http://www.w3.org/1999/02/22-rdf-syntax-ns#">
 <metadata>
  <rdf:RDF>
   <cc:Work rdf:about="">
    <dc:format>image/svg+xml</dc:format>
    <dc:type rdf:resource="http://purl.org/dc/dcmitype/StillImage"/>
    <dc:title/>
   </cc:Work>
  </rdf:RDF>
 </metadata>
 <g transform="translate(-62.669 -206.45)" fill="#e00000">
  <circle cx="122.52" cy="851.43" r="4.9153"/>
  <circle cx="123.82" cy="826.66" r="4.9153"/>
  <circle cx="122.84" cy="811.02" r="4.9153"/>
  <circle cx="124.47" cy="795.71" r="4.9153"/>
  <circle cx="125.12" cy="777.79" r="4.9153"/>
  <circle cx="127.73" cy="756.93" r="4.9153"/>
  <circle cx="127.73" cy="738.2" r="4.9153"/>
  <circle cx="124.8" cy="717.02" r="4.9153"/>
  <circle cx="122.19" cy="693.88" r="4.9153"/>
  <circle cx="119.42" cy="668.79" r="4.9153"/>
  <circle cx="117.3" cy="641.91" r="4.9153"/>
  <circle cx="107.04" cy="618.29" r="4.9153"/>
  <circle cx="104.27" cy="591.08" r="4.9153"/>
  <circle cx="107.53" cy="563.71" r="4.9153"/>
  <circle cx="110.13" cy="539.93" r="4.9153"/>
  <circle cx="106.71" cy="512.88" r="4.9153"/>
  <circle cx="102.8" cy="489.09" r="4.9153"/>
  <circle cx="99.869" cy="459.61" r="4.9153"/>
  <circle cx="96.937" cy="433.7" r="4.9153"/>
  <circle cx="100.03" cy="405.68" r="4.9153"/>
  <circle cx="102.15" cy="375.38" r="4.9153"/>
  <circle cx="104.59" cy="347.84" r="4.9153"/>
  <circle cx="106.55" cy="318.84" r="4.9153"/>
  <circle cx="101.17" cy="286.1" r="4.9153"/>
  <circle cx="99.218" cy="255.14" r="4.9153"/>
 </g>
</svg>
