<?xml version="1.0" encoding="UTF-8"?>
<!-- Created with Inkscape (http://www.inkscape.org/) -->
<svg width="100" height="650" version="1.1" viewBox="0 0 100 650" xmlns="http://www.w3.org/2000/svg" xmlns:cc="http://creativecommons.org/ns#" xmlns:dc="http://purl.org/dc/elements/1.1/" xmlns:rdf="http://www.w3.org/1999/02/22-rdf-syntax-ns#">
 <metadata>
  <rdf:RDF>
   <cc:Work rdf:about="">
    <dc:format>image/svg+xml</dc:format>
    <dc:type rdf:resource="http://purl.org/dc/dcmitype/StillImage"/>
    <dc:title/>
   </cc:Work>
  </rdf:RDF>
 </metadata>
 <g transform="translate(-60.515 -120.94)" fill="#e00000">
  <circle cx="120.11" cy="766.02" r="4.9153"/>
  <circle cx="122.7" cy="740.77" r="4.9153"/>
  <circle cx="123.41" cy="726.38" r="4.9153"/>
  <circle cx="125.77" cy="708.68" r="4.9153"/>
  <circle cx="128.36" cy="691.93" r="4.9153"/>
  <circle cx="131.2" cy="673.52" r="4.9153"/>
  <circle cx="133.08" cy="652.99" r="4.9153"/>
  <circle cx="129.78" cy="631.52" r="4.9153"/>
  <circle cx="127.42" cy="608.4" r="4.9153"/>
  <circle cx="130.25" cy="583.15" r="4.9153"/>
  <circle cx="129.54" cy="557.66" r="4.9153"/>
  <circle cx="126" cy="530.53" r="4.9153"/>
  <circle cx="122.94" cy="500.56" r="4.9153"/>
  <circle cx="115.86" cy="476.97" r="4.9153"/>
  <circle cx="113.73" cy="447.47" r="4.9153"/>
  <circle cx="108.54" cy="417.03" r="4.9153"/>
  <circle cx="106.66" cy="389.66" r="4.9153"/>
  <circle cx="108.78" cy="358.51" r="4.9153"/>
  <circle cx="109.49" cy="333.26" r="4.9153"/>
  <circle cx="106.18" cy="305.89" r="4.9153"/>
  <circle cx="104.53" cy="276.16" r="4.9153"/>
  <circle cx="99.341" cy="245.48" r="4.9153"/>
  <circle cx="96.509" cy="213.63" r="4.9153"/>
  <circle cx="90.846" cy="184.61" r="4.9153"/>
  <circle cx="89.43" cy="153.46" r="4.9153"/>
 </g>
</svg>
