<?xml version="1.0" encoding="UTF-8"?>
<!-- Created with Inkscape (http://www.inkscape.org/) -->
<svg width="100" height="650" version="1.1" viewBox="0 0 100 650" xmlns="http://www.w3.org/2000/svg" xmlns:cc="http://creativecommons.org/ns#" xmlns:dc="http://purl.org/dc/elements/1.1/" xmlns:rdf="http://www.w3.org/1999/02/22-rdf-syntax-ns#">
 <metadata>
  <rdf:RDF>
   <cc:Work rdf:about="">
    <dc:format>image/svg+xml</dc:format>
    <dc:type rdf:resource="http://purl.org/dc/dcmitype/StillImage"/>
    <dc:title/>
   </cc:Work>
  </rdf:RDF>
 </metadata>
 <g transform="translate(19.463 -262.19)" fill="#e00000">
  <circle cx="30.229" cy="906.86" r="4.9153"/>
  <circle cx="29.492" cy="891.14" r="4.9153"/>
  <circle cx="29" cy="875.9" r="4.9153"/>
  <circle cx="26.542" cy="861.64" r="4.9153"/>
  <circle cx="25.805" cy="846.16" r="4.9153"/>
  <circle cx="28.263" cy="823.8" r="4.9153"/>
  <circle cx="29.737" cy="800.69" r="4.9153"/>
  <circle cx="34.161" cy="780.54" r="4.9153"/>
  <circle cx="36.864" cy="757.44" r="4.9153"/>
  <circle cx="39.568" cy="733.85" r="4.9153"/>
  <circle cx="42.025" cy="708.78" r="4.9153"/>
  <circle cx="35.881" cy="677.81" r="4.9153"/>
  <circle cx="34.407" cy="649.55" r="4.9153"/>
  <circle cx="38.093" cy="617.6" r="4.9153"/>
  <circle cx="38.831" cy="587.62" r="4.9153"/>
  <circle cx="36.373" cy="558.86" r="4.9153"/>
  <circle cx="34.898" cy="524.46" r="4.9153"/>
  <circle cx="38.585" cy="494.23" r="4.9153"/>
  <circle cx="40.305" cy="464.98" r="4.9153"/>
  <circle cx="32.932" cy="434.02" r="4.9153"/>
 </g>
</svg>
