<?xml version="1.0" encoding="UTF-8"?>
<!-- Created with Inkscape (http://www.inkscape.org/) -->
<svg width="100" height="650" version="1.1" viewBox="0 0 100 650" xmlns="http://www.w3.org/2000/svg" xmlns:cc="http://creativecommons.org/ns#" xmlns:dc="http://purl.org/dc/elements/1.1/" xmlns:rdf="http://www.w3.org/1999/02/22-rdf-syntax-ns#">
 <metadata>
  <rdf:RDF>
   <cc:Work rdf:about="">
    <dc:format>image/svg+xml</dc:format>
    <dc:type rdf:resource="http://purl.org/dc/dcmitype/StillImage"/>
    <dc:title/>
   </cc:Work>
  </rdf:RDF>
 </metadata>
 <g transform="translate(-46.89 -250.24)" fill="#e00000">
  <circle cx="96.518" cy="895.06" r="4.9153"/>
  <circle cx="101.03" cy="871.1" r="4.9153"/>
  <circle cx="101.03" cy="859.47" r="4.9153"/>
  <circle cx="103.29" cy="844.72" r="4.9153"/>
  <circle cx="104.33" cy="827.88" r="4.9153"/>
  <circle cx="107.45" cy="812.6" r="4.9153"/>
  <circle cx="108.15" cy="792.12" r="4.9153"/>
  <circle cx="102.77" cy="772.85" r="4.9153"/>
  <circle cx="100.16" cy="749.59" r="4.9153"/>
  <circle cx="95.303" cy="730.67" r="4.9153"/>
  <circle cx="94.955" cy="708.1" r="4.9153"/>
  <circle cx="89.053" cy="682.41" r="4.9153"/>
  <circle cx="88.012" cy="659.84" r="4.9153"/>
  <circle cx="81.589" cy="635.54" r="4.9153"/>
  <circle cx="79.679" cy="606.89" r="4.9153"/>
  <circle cx="83.325" cy="583.81" r="4.9153"/>
  <circle cx="84.54" cy="555.86" r="4.9153"/>
  <circle cx="78.638" cy="531.73" r="4.9153"/>
  <circle cx="77.075" cy="503.09" r="4.9153"/>
  <circle cx="79.506" cy="475.14" r="4.9153"/>
 </g>
</svg>
