<?xml version="1.0" encoding="UTF-8"?>
<!-- Created with Inkscape (http://www.inkscape.org/) -->
<svg width="100" height="650" version="1.1" viewBox="0 0 100 650" xmlns="http://www.w3.org/2000/svg" xmlns:cc="http://creativecommons.org/ns#" xmlns:dc="http://purl.org/dc/elements/1.1/" xmlns:rdf="http://www.w3.org/1999/02/22-rdf-syntax-ns#">
 <metadata>
  <rdf:RDF>
   <cc:Work rdf:about="">
    <dc:format>image/svg+xml</dc:format>
    <dc:type rdf:resource="http://purl.org/dc/dcmitype/StillImage"/>
    <dc:title/>
   </cc:Work>
  </rdf:RDF>
 </metadata>
 <g transform="translate(-21.398 -289.74)" fill="#e00000">
  <circle cx="70.825" cy="934.74" r="4.9153"/>
  <circle cx="68.823" cy="916.97" r="4.9153"/>
  <circle cx="68.823" cy="903.71" r="4.9153"/>
  <circle cx="71.576" cy="884.69" r="4.9153"/>
  <circle cx="71.075" cy="863.91" r="4.9153"/>
  <circle cx="69.323" cy="834.38" r="4.9153"/>
  <circle cx="68.823" cy="804.85" r="4.9153"/>
  <circle cx="72.076" cy="778.07" r="4.9153"/>
  <circle cx="74.579" cy="743.79" r="4.9153"/>
  <circle cx="71.325" cy="713.25" r="4.9153"/>
  <circle cx="71.576" cy="682.72" r="4.9153"/>
  <circle cx="67.071" cy="641.43" r="4.9153"/>
  <circle cx="65.569" cy="604.64" r="4.9153"/>
  <circle cx="59.813" cy="567.6" r="4.9153"/>
  <circle cx="56.56" cy="530.06" r="4.9153"/>
  <circle cx="50.804" cy="488.27" r="4.9153"/>
  <circle cx="50.053" cy="448.72" r="4.9153"/>
  <circle cx="42.795" cy="414.44" r="4.9153"/>
  <circle cx="39.417" cy="373.65" r="4.9153"/>
  <circle cx="34.685" cy="328.81" r="4.9153"/>
 </g>
</svg>
