<?xml version="1.0" encoding="UTF-8"?>
<!-- Created with Inkscape (http://www.inkscape.org/) -->
<svg width="100" height="650" version="1.1" viewBox="0 0 100 650" xmlns="http://www.w3.org/2000/svg" xmlns:cc="http://creativecommons.org/ns#" xmlns:dc="http://purl.org/dc/elements/1.1/" xmlns:rdf="http://www.w3.org/1999/02/22-rdf-syntax-ns#">
 <metadata>
  <rdf:RDF>
   <cc:Work rdf:about="">
    <dc:format>image/svg+xml</dc:format>
    <dc:type rdf:resource="http://purl.org/dc/dcmitype/StillImage"/>
    <dc:title/>
   </cc:Work>
  </rdf:RDF>
 </metadata>
 <g transform="translate(-9.4276 -227.96)" fill="#e00000">
  <circle cx="59.427" cy="872.91" r="4.9153"/>
  <circle cx="63.468" cy="849.17" r="4.9153"/>
  <circle cx="64.983" cy="833.01" r="4.9153"/>
  <circle cx="66.835" cy="817.69" r="4.9153"/>
  <circle cx="69.36" cy="801.19" r="4.9153"/>
  <circle cx="71.885" cy="777.62" r="4.9153"/>
  <circle cx="73.232" cy="758.26" r="4.9153"/>
  <circle cx="69.697" cy="733.85" r="4.9153"/>
  <circle cx="67.845" cy="711.12" r="4.9153"/>
  <circle cx="63.131" cy="688.56" r="4.9153"/>
  <circle cx="59.596" cy="662.64" r="4.9153"/>
  <circle cx="55.219" cy="637.38" r="4.9153"/>
  <circle cx="54.882" cy="604.22" r="4.9153"/>
  <circle cx="48.821" cy="574.08" r="4.9153"/>
  <circle cx="49.832" cy="545.97" r="4.9153"/>
  <circle cx="42.761" cy="513.98" r="4.9153"/>
  <circle cx="40.909" cy="487.05" r="4.9153"/>
  <circle cx="34.512" cy="454.56" r="4.9153"/>
  <circle cx="31.818" cy="421.9" r="4.9153"/>
  <circle cx="37.374" cy="391.43" r="4.9153"/>
 </g>
</svg>
