<?xml version="1.0" encoding="UTF-8"?>
<!-- Created with Inkscape (http://www.inkscape.org/) -->
<svg width="100" height="650" version="1.1" viewBox="0 0 100 650" xmlns="http://www.w3.org/2000/svg" xmlns:cc="http://creativecommons.org/ns#" xmlns:dc="http://purl.org/dc/elements/1.1/" xmlns:rdf="http://www.w3.org/1999/02/22-rdf-syntax-ns#">
 <metadata>
  <rdf:RDF>
   <cc:Work rdf:about="">
    <dc:format>image/svg+xml</dc:format>
    <dc:type rdf:resource="http://purl.org/dc/dcmitype/StillImage"/>
    <dc:title/>
   </cc:Work>
  </rdf:RDF>
 </metadata>
 <g transform="translate(-44.566 44.616)" fill="#e00000">
  <circle cx="93.915" cy="600.37" r="4.9153"/>
  <circle cx="92.632" cy="591.27" r="4.9153"/>
  <circle cx="91.232" cy="581.47" r="4.9153"/>
  <circle cx="91.582" cy="572.72" r="4.9153"/>
  <circle cx="91.699" cy="562.8" r="4.9153"/>
  <circle cx="89.365" cy="548.68" r="4.9153"/>
  <circle cx="87.966" cy="538.65" r="4.9153"/>
  <circle cx="86.332" cy="526.17" r="4.9153"/>
  <circle cx="84.699" cy="513.33" r="4.9153"/>
  <circle cx="88.899" cy="501.9" r="4.9153"/>
  <circle cx="85.166" cy="484.99" r="4.9153"/>
  <circle cx="87.382" cy="477.4" r="4.9153"/>
  <circle cx="88.199" cy="463.64" r="4.9153"/>
  <circle cx="85.166" cy="453.25" r="4.9153"/>
  <circle cx="87.849" cy="442.99" r="4.9153"/>
  <circle cx="84.116" cy="430.04" r="4.9153"/>
  <circle cx="83.532" cy="422.69" r="4.9153"/>
  <circle cx="88.549" cy="407.05" r="4.9153"/>
  <circle cx="84.116" cy="399.7" r="4.9153"/>
  <circle cx="88.316" cy="390.37" r="4.9153"/>
  <circle cx="83.066" cy="376.84" r="4.9153"/>
  <circle cx="86.916" cy="370.54" r="4.9153"/>
  <circle cx="86.799" cy="357" r="4.9153"/>
  <circle cx="83.299" cy="349.3" r="4.9153"/>
  <circle cx="87.266" cy="339.74" r="4.9153"/>
  <circle cx="83.649" cy="327.25" r="4.9153"/>
  <circle cx="81.432" cy="319.2" r="4.9153"/>
  <circle cx="83.416" cy="305.79" r="4.9153"/>
  <circle cx="75.949" cy="300.07" r="4.9153"/>
  <circle cx="77.116" cy="290.74" r="4.9153"/>
  <circle cx="74.432" cy="280.82" r="4.9153"/>
  <circle cx="72.332" cy="274.29" r="4.9153"/>
  <circle cx="73.382" cy="260.29" r="4.9153"/>
  <circle cx="65.332" cy="252.24" r="4.9153"/>
  <circle cx="69.066" cy="241.27" r="4.9153"/>
  <circle cx="63.232" cy="227.86" r="4.9153"/>
  <circle cx="64.166" cy="219.81" r="4.9153"/>
  <circle cx="64.866" cy="207.56" r="4.9153"/>
  <circle cx="64.516" cy="198.11" r="4.9153"/>
  <circle cx="66.849" cy="187.72" r="4.9153"/>
  <circle cx="64.982" cy="175.36" r="4.9153"/>
  <circle cx="67.549" cy="166.14" r="4.9153"/>
  <circle cx="68.599" cy="156.46" r="4.9153"/>
  <circle cx="68.132" cy="145.72" r="4.9153"/>
  <circle cx="68.949" cy="136.04" r="4.9153"/>
  <circle cx="62.066" cy="123.32" r="4.9153"/>
  <circle cx="61.599" cy="115.62" r="4.9153"/>
 </g>
</svg>
