<?xml version="1.0" encoding="UTF-8"?>
<!-- Created with Inkscape (http://www.inkscape.org/) -->
<svg width="100" height="650" version="1.1" viewBox="0 0 100 650" xmlns="http://www.w3.org/2000/svg" xmlns:cc="http://creativecommons.org/ns#" xmlns:dc="http://purl.org/dc/elements/1.1/" xmlns:rdf="http://www.w3.org/1999/02/22-rdf-syntax-ns#">
 <metadata>
  <rdf:RDF>
   <cc:Work rdf:about="">
    <dc:format>image/svg+xml</dc:format>
    <dc:type rdf:resource="http://purl.org/dc/dcmitype/StillImage"/>
    <dc:title/>
   </cc:Work>
  </rdf:RDF>
 </metadata>
 <g fill="#e00000">
  <circle cx="51.293" cy="645.18" r="4.9153"/>
  <circle cx="49.629" cy="624.46" r="4.9153"/>
  <circle cx="48.721" cy="609.17" r="4.9153"/>
  <circle cx="53.714" cy="594.65" r="4.9153"/>
  <circle cx="53.411" cy="578.46" r="4.9153"/>
  <circle cx="50.839" cy="558.18" r="4.9153"/>
  <circle cx="48.721" cy="533.22" r="4.9153"/>
  <circle cx="41.609" cy="506.28" r="4.9153"/>
  <circle cx="39.188" cy="480.56" r="4.9153"/>
  <circle cx="45.997" cy="446.21" r="4.9153"/>
  <circle cx="49.477" cy="413.68" r="4.9153"/>
  <circle cx="43.274" cy="381.3" r="4.9153"/>
  <circle cx="41.458" cy="350.13" r="4.9153"/>
  <circle cx="29.353" cy="312.46" r="4.9153"/>
  <circle cx="25.722" cy="279.93" r="4.9153"/>
  <circle cx="30.866" cy="244.97" r="4.9153"/>
  <circle cx="30.261" cy="204.42" r="4.9153"/>
  <circle cx="36.465" cy="164.48" r="4.9153"/>
  <circle cx="37.07" cy="120.6" r="4.9153"/>
  <circle cx="22.242" cy="78.23" r="4.9153"/>
  <circle cx="19.064" cy="39.949" r="4.9153"/>
 </g>
</svg>
