<?xml version="1.0" encoding="UTF-8"?>
<!-- Created with Inkscape (http://www.inkscape.org/) -->
<svg width="100" height="650" version="1.1" viewBox="0 0 100 650" xmlns="http://www.w3.org/2000/svg" xmlns:cc="http://creativecommons.org/ns#" xmlns:dc="http://purl.org/dc/elements/1.1/" xmlns:rdf="http://www.w3.org/1999/02/22-rdf-syntax-ns#">
 <metadata>
  <rdf:RDF>
   <cc:Work rdf:about="">
    <dc:format>image/svg+xml</dc:format>
    <dc:type rdf:resource="http://purl.org/dc/dcmitype/StillImage"/>
    <dc:title/>
   </cc:Work>
  </rdf:RDF>
 </metadata>
 <g fill="#e00000">
  <circle cx="48.55" cy="645.14" r="4.9153"/>
  <circle cx="48.885" cy="618.86" r="4.9153"/>
  <circle cx="47.88" cy="610.16" r="4.9153"/>
  <circle cx="50.391" cy="598.27" r="4.9153"/>
  <circle cx="51.396" cy="581.53" r="4.9153"/>
  <circle cx="48.717" cy="565.96" r="4.9153"/>
  <circle cx="48.048" cy="544.86" r="4.9153"/>
  <circle cx="44.699" cy="528.29" r="4.9153"/>
  <circle cx="45.034" cy="505.86" r="4.9153"/>
  <circle cx="38.003" cy="484.26" r="4.9153"/>
  <circle cx="37.668" cy="461.99" r="4.9153"/>
  <circle cx="40.849" cy="437.55" r="4.9153"/>
  <circle cx="43.025" cy="416.63" r="4.9153"/>
  <circle cx="50.726" cy="391.68" r="4.9153"/>
  <circle cx="53.572" cy="368.75" r="4.9153"/>
  <circle cx="58.427" cy="346.31" r="4.9153"/>
  <circle cx="60.269" cy="320.36" r="4.9153"/>
  <circle cx="67.802" cy="296.26" r="4.9153"/>
  <circle cx="71.82" cy="270.14" r="4.9153"/>
  <circle cx="76.006" cy="248.04" r="4.9153"/>
  <circle cx="78.35" cy="226.61" r="4.9153"/>
  <circle cx="82.2" cy="202.84" r="4.9153"/>
  <circle cx="84.879" cy="177.06" r="4.9153"/>
  <circle cx="81.53" cy="150.77" r="4.9153"/>
  <circle cx="80.693" cy="125.49" r="4.9153"/>
  <circle cx="84.544" cy="100.55" r="4.9153"/>
  <circle cx="86.051" cy="77.446" r="4.9153"/>
  <circle cx="82.2" cy="55.18" r="4.9153"/>
  <circle cx="81.53" cy="32.244" r="4.9153"/>
  <circle cx="79.187" cy="6.286" r="4.9153"/>
 </g>
</svg>
