<?xml version="1.0" encoding="UTF-8"?>
<!-- Created with Inkscape (http://www.inkscape.org/) -->
<svg width="100" height="650" version="1.1" viewBox="0 0 100 650" xmlns="http://www.w3.org/2000/svg" xmlns:cc="http://creativecommons.org/ns#" xmlns:dc="http://purl.org/dc/elements/1.1/" xmlns:rdf="http://www.w3.org/1999/02/22-rdf-syntax-ns#">
 <metadata>
  <rdf:RDF>
   <cc:Work rdf:about="">
    <dc:format>image/svg+xml</dc:format>
    <dc:type rdf:resource="http://purl.org/dc/dcmitype/StillImage"/>
    <dc:title/>
   </cc:Work>
  </rdf:RDF>
 </metadata>
 <g transform="translate(22.534 -205.91)" fill="#e00000">
  <circle cx="23.299" cy="850.89" r="4.9153"/>
  <circle cx="25.564" cy="834.39" r="4.9153"/>
  <circle cx="26.858" cy="825.01" r="4.9153"/>
  <circle cx="28.476" cy="810.77" r="4.9153"/>
  <circle cx="30.579" cy="793.94" r="4.9153"/>
  <circle cx="33.492" cy="777.44" r="4.9153"/>
  <circle cx="34.786" cy="760.45" r="4.9153"/>
  <circle cx="38.669" cy="740.87" r="4.9153"/>
  <circle cx="39.802" cy="717.25" r="4.9153"/>
  <circle cx="37.051" cy="696.87" r="4.9153"/>
  <circle cx="36.404" cy="675.67" r="4.9153"/>
  <circle cx="39.964" cy="657.87" r="4.9153"/>
  <circle cx="43.523" cy="639.75" r="4.9153"/>
  <circle cx="41.42" cy="621.95" r="4.9153"/>
  <circle cx="39.316" cy="603.83" r="4.9153"/>
  <circle cx="43.685" cy="581.02" r="4.9153"/>
  <circle cx="43.847" cy="560.79" r="4.9153"/>
  <circle cx="48.215" cy="541.7" r="4.9153"/>
  <circle cx="49.671" cy="522.45" r="4.9153"/>
  <circle cx="56.79" cy="499.31" r="4.9153"/>
  <circle cx="61.159" cy="476.18" r="4.9153"/>
  <circle cx="58.246" cy="454.66" r="4.9153"/>
  <circle cx="57.761" cy="432.98" r="4.9153"/>
  <circle cx="61.159" cy="411.78" r="4.9153"/>
  <circle cx="62.777" cy="393.34" r="4.9153"/>
  <circle cx="69.249" cy="374.24" r="4.9153"/>
  <circle cx="71.19" cy="352.4" r="4.9153"/>
  <circle cx="70.058" cy="331.21" r="4.9153"/>
  <circle cx="68.601" cy="304.35" r="4.9153"/>
  <circle cx="64.88" cy="280.89" r="4.9153"/>
 </g>
</svg>
