<?xml version="1.0" encoding="UTF-8"?>
<!-- Created with Inkscape (http://www.inkscape.org/) -->
<svg width="97" height="685" version="1.1" viewBox="0 0 97 685" xmlns="http://www.w3.org/2000/svg" xmlns:cc="http://creativecommons.org/ns#" xmlns:dc="http://purl.org/dc/elements/1.1/" xmlns:rdf="http://www.w3.org/1999/02/22-rdf-syntax-ns#">
 <metadata>
  <rdf:RDF>
   <cc:Work rdf:about="">
    <dc:format>image/svg+xml</dc:format>
    <dc:type rdf:resource="http://purl.org/dc/dcmitype/StillImage"/>
    <dc:title/>
   </cc:Work>
  </rdf:RDF>
 </metadata>
 <g transform="translate(6.2721 7.982)" fill="#e00000">
  <circle cx="23.402" cy="671.94" r="4.9153"/>
  <circle cx="21.588" cy="657.61" r="4.9153"/>
  <circle cx="21.406" cy="651.26" r="4.9153"/>
  <circle cx="23.402" cy="642.19" r="4.9153"/>
  <circle cx="23.765" cy="631.48" r="4.9153"/>
  <circle cx="28.844" cy="618.97" r="4.9153"/>
  <circle cx="29.57" cy="602.82" r="4.9153"/>
  <circle cx="33.016" cy="588.31" r="4.9153"/>
  <circle cx="35.012" cy="572.16" r="4.9153"/>
  <circle cx="37.914" cy="554.2" r="4.9153"/>
  <circle cx="40.454" cy="536.61" r="4.9153"/>
  <circle cx="44.082" cy="519.92" r="4.9153"/>
  <circle cx="46.078" cy="502.5" r="4.9153"/>
  <circle cx="44.445" cy="484" r="4.9153"/>
  <circle cx="42.994" cy="467.85" r="4.9153"/>
  <circle cx="48.618" cy="449.35" r="4.9153"/>
  <circle cx="50.432" cy="431.03" r="4.9153"/>
  <circle cx="58.232" cy="416.51" r="4.9153"/>
  <circle cx="60.953" cy="401.1" r="4.9153"/>
  <circle cx="66.396" cy="384.77" r="4.9153"/>
  <circle cx="69.661" cy="366.99" r="4.9153"/>
  <circle cx="73.108" cy="347.94" r="4.9153"/>
  <circle cx="74.922" cy="331.8" r="4.9153"/>
  <circle cx="77.643" cy="316.38" r="4.9153"/>
  <circle cx="78.55" cy="298.96" r="4.9153"/>
  <circle cx="75.466" cy="283.36" r="4.9153"/>
  <circle cx="73.833" cy="263.95" r="4.9153"/>
  <circle cx="78.731" cy="246.17" r="4.9153"/>
  <circle cx="81.815" cy="223.5" r="4.9153"/>
  <circle cx="85.988" cy="204.27" r="4.9153"/>
 </g>
</svg>
