<?xml version="1.0" encoding="UTF-8"?>
<!-- Created with Inkscape (http://www.inkscape.org/) -->
<svg width="100" height="650" version="1.1" viewBox="0 0 100 650" xmlns="http://www.w3.org/2000/svg" xmlns:cc="http://creativecommons.org/ns#" xmlns:dc="http://purl.org/dc/elements/1.1/" xmlns:rdf="http://www.w3.org/1999/02/22-rdf-syntax-ns#">
 <metadata>
  <rdf:RDF>
   <cc:Work rdf:about="">
    <dc:format>image/svg+xml</dc:format>
    <dc:type rdf:resource="http://purl.org/dc/dcmitype/StillImage"/>
    <dc:title/>
   </cc:Work>
  </rdf:RDF>
 </metadata>
 <g transform="translate(38.147 -121.84)" fill="#e00000">
  <circle cx="11.613" cy="766.77" r="4.9153"/>
  <circle cx="12.789" cy="752.81" r="4.9153"/>
  <circle cx="14.994" cy="745.6" r="4.9153"/>
  <circle cx="16.317" cy="733.11" r="4.9153"/>
  <circle cx="17.199" cy="720.03" r="4.9153"/>
  <circle cx="21.903" cy="704.44" r="4.9153"/>
  <circle cx="22.932" cy="685.92" r="4.9153"/>
  <circle cx="29.4" cy="670.34" r="4.9153"/>
  <circle cx="32.928" cy="650.64" r="4.9153"/>
  <circle cx="37.485" cy="632.85" r="4.9153"/>
  <circle cx="39.984" cy="615.21" r="4.9153"/>
  <circle cx="37.191" cy="596.98" r="4.9153"/>
  <circle cx="36.897" cy="577.87" r="4.9153"/>
  <circle cx="38.367" cy="559.35" r="4.9153"/>
  <circle cx="39.69" cy="544.65" r="4.9153"/>
  <circle cx="45.865" cy="527.45" r="4.9153"/>
  <circle cx="46.012" cy="509.81" r="4.9153"/>
  <circle cx="45.424" cy="490.56" r="4.9153"/>
  <circle cx="44.542" cy="470.42" r="4.9153"/>
  <circle cx="49.687" cy="452.19" r="4.9153"/>
  <circle cx="51.304" cy="434.69" r="4.9153"/>
  <circle cx="49.246" cy="414.85" r="4.9153"/>
  <circle cx="49.246" cy="398.53" r="4.9153"/>
  <circle cx="43.954" cy="377.8" r="4.9153"/>
  <circle cx="44.101" cy="357.96" r="4.9153"/>
  <circle cx="44.101" cy="334.88" r="4.9153"/>
  <circle cx="46.012" cy="316.65" r="4.9153"/>
  <circle cx="44.983" cy="296.22" r="4.9153"/>
  <circle cx="43.66" cy="273.58" r="4.9153"/>
  <circle cx="45.424" cy="252.71" r="4.9153"/>
 </g>
</svg>
