<?xml version="1.0" encoding="UTF-8"?>
<!-- Created with Inkscape (http://www.inkscape.org/) -->
<svg width="100" height="650" version="1.1" viewBox="0 0 100 650" xmlns="http://www.w3.org/2000/svg" xmlns:cc="http://creativecommons.org/ns#" xmlns:dc="http://purl.org/dc/elements/1.1/" xmlns:rdf="http://www.w3.org/1999/02/22-rdf-syntax-ns#">
 <metadata>
  <rdf:RDF>
   <cc:Work rdf:about="">
    <dc:format>image/svg+xml</dc:format>
    <dc:type rdf:resource="http://purl.org/dc/dcmitype/StillImage"/>
    <dc:title/>
   </cc:Work>
  </rdf:RDF>
 </metadata>
 <g transform="translate(-12.386 11.195)" fill="#e00000">
  <circle cx="62.17" cy="633.8" r="4.9153"/>
  <circle cx="64.076" cy="621.18" r="4.9153"/>
  <circle cx="64.314" cy="611.41" r="4.9153"/>
  <circle cx="61.932" cy="596.64" r="4.9153"/>
  <circle cx="63.837" cy="582.59" r="4.9153"/>
  <circle cx="67.41" cy="567.82" r="4.9153"/>
  <circle cx="71.698" cy="552.58" r="4.9153"/>
  <circle cx="67.649" cy="537.09" r="4.9153"/>
  <circle cx="70.269" cy="521.85" r="4.9153"/>
  <circle cx="66.696" cy="506.13" r="4.9153"/>
  <circle cx="64.076" cy="490.17" r="4.9153"/>
  <circle cx="68.125" cy="473.97" r="4.9153"/>
  <circle cx="70.031" cy="459.68" r="4.9153"/>
  <circle cx="65.743" cy="445.39" r="4.9153"/>
  <circle cx="66.934" cy="429.9" r="4.9153"/>
  <circle cx="64.79" cy="414.66" r="4.9153"/>
  <circle cx="65.743" cy="400.61" r="4.9153"/>
  <circle cx="68.84" cy="386.79" r="4.9153"/>
  <circle cx="68.363" cy="370.59" r="4.9153"/>
  <circle cx="71.698" cy="356.78" r="4.9153"/>
  <circle cx="66.458" cy="342.01" r="4.9153"/>
  <circle cx="64.076" cy="326.76" r="4.9153"/>
  <circle cx="64.552" cy="314.38" r="4.9153"/>
  <circle cx="69.316" cy="296.04" r="4.9153"/>
  <circle cx="67.649" cy="282.22" r="4.9153"/>
  <circle cx="65.267" cy="266.98" r="4.9153"/>
  <circle cx="62.646" cy="251.73" r="4.9153"/>
  <circle cx="56.691" cy="237.44" r="4.9153"/>
  <circle cx="58.359" cy="223.15" r="4.9153"/>
  <circle cx="55.024" cy="206.47" r="4.9153"/>
  <circle cx="51.213" cy="191.47" r="4.9153"/>
  <circle cx="46.211" cy="175.27" r="4.9153"/>
  <circle cx="43.352" cy="161.93" r="4.9153"/>
  <circle cx="40.017" cy="141.44" r="4.9153"/>
  <circle cx="37.397" cy="128.11" r="4.9153"/>
  <circle cx="32.395" cy="111.91" r="4.9153"/>
 </g>
</svg>
