<?xml version="1.0" encoding="UTF-8"?>
<!-- Created with Inkscape (http://www.inkscape.org/) -->
<svg width="100" height="650" version="1.1" viewBox="0 0 100 650" xmlns="http://www.w3.org/2000/svg" xmlns:cc="http://creativecommons.org/ns#" xmlns:dc="http://purl.org/dc/elements/1.1/" xmlns:rdf="http://www.w3.org/1999/02/22-rdf-syntax-ns#">
 <metadata>
  <rdf:RDF>
   <cc:Work rdf:about="">
    <dc:format>image/svg+xml</dc:format>
    <dc:type rdf:resource="http://purl.org/dc/dcmitype/StillImage"/>
    <dc:title/>
   </cc:Work>
  </rdf:RDF>
 </metadata>
 <g transform="translate(15.016 -9.0052)" fill="#e00000">
  <circle cx="34.829" cy="653.94" r="4.9153"/>
  <circle cx="33.763" cy="631.55" r="4.9153"/>
  <circle cx="33.586" cy="623.2" r="4.9153"/>
  <circle cx="34.829" cy="610.58" r="4.9153"/>
  <circle cx="36.784" cy="596.19" r="4.9153"/>
  <circle cx="34.652" cy="581.08" r="4.9153"/>
  <circle cx="33.763" cy="564.38" r="4.9153"/>
  <circle cx="38.917" cy="547.68" r="4.9153"/>
  <circle cx="40.16" cy="531.15" r="4.9153"/>
  <circle cx="43.892" cy="517.64" r="4.9153"/>
  <circle cx="43.892" cy="502.72" r="4.9153"/>
  <circle cx="49.401" cy="484.24" r="4.9153"/>
  <circle cx="52.777" cy="468.07" r="4.9153"/>
  <circle cx="55.798" cy="452.25" r="4.9153"/>
  <circle cx="58.108" cy="437.32" r="4.9153"/>
  <circle cx="53.133" cy="419.2" r="4.9153"/>
  <circle cx="50.467" cy="404.45" r="4.9153"/>
  <circle cx="48.868" cy="387.74" r="4.9153"/>
  <circle cx="46.202" cy="372.64" r="4.9153"/>
  <circle cx="40.516" cy="357.18" r="4.9153"/>
  <circle cx="38.739" cy="341.01" r="4.9153"/>
  <circle cx="41.938" cy="325.55" r="4.9153"/>
  <circle cx="44.603" cy="310.44" r="4.9153"/>
  <circle cx="47.979" cy="294.81" r="4.9153"/>
  <circle cx="50.823" cy="277.21" r="4.9153"/>
  <circle cx="54.91" cy="262.46" r="4.9153"/>
  <circle cx="55.62" cy="247" r="4.9153"/>
  <circle cx="51.711" cy="229.59" r="4.9153"/>
  <circle cx="50.112" cy="212.53" r="4.9153"/>
 </g>
</svg>
