<?xml version="1.0" encoding="UTF-8"?>
<!-- Created with Inkscape (http://www.inkscape.org/) -->
<svg width="100" height="650" version="1.1" viewBox="0 0 100 650" xmlns="http://www.w3.org/2000/svg" xmlns:cc="http://creativecommons.org/ns#" xmlns:dc="http://purl.org/dc/elements/1.1/" xmlns:rdf="http://www.w3.org/1999/02/22-rdf-syntax-ns#">
 <metadata>
  <rdf:RDF>
   <cc:Work rdf:about="">
    <dc:format>image/svg+xml</dc:format>
    <dc:type rdf:resource="http://purl.org/dc/dcmitype/StillImage"/>
    <dc:title/>
   </cc:Work>
  </rdf:RDF>
 </metadata>
 <g transform="translate(-23.28 -66.494)" fill="#e00000">
  <circle cx="80.628" cy="711.64" r="4.9153"/>
  <circle cx="81.302" cy="700.85" r="4.9153"/>
  <circle cx="81.842" cy="693.98" r="4.9153"/>
  <circle cx="80.561" cy="682.63" r="4.9153"/>
  <circle cx="80.275" cy="670.42" r="4.9153"/>
  <circle cx="76.653" cy="656.5" r="4.9153"/>
  <circle cx="76.462" cy="641.25" r="4.9153"/>
  <circle cx="73.411" cy="622.94" r="4.9153"/>
  <circle cx="72.458" cy="605.21" r="4.9153"/>
  <circle cx="64.64" cy="589.19" r="4.9153"/>
  <circle cx="60.826" cy="572.61" r="4.9153"/>
  <circle cx="57.013" cy="556.59" r="4.9153"/>
  <circle cx="54.725" cy="539.24" r="4.9153"/>
  <circle cx="49.386" cy="521.5" r="4.9153"/>
  <circle cx="46.907" cy="504.34" r="4.9153"/>
  <circle cx="52.246" cy="487.75" r="4.9153"/>
  <circle cx="55.297" cy="467.92" r="4.9153"/>
  <circle cx="49.576" cy="448.28" r="4.9153"/>
  <circle cx="47.479" cy="430.74" r="4.9153"/>
  <circle cx="42.521" cy="413.96" r="4.9153"/>
  <circle cx="39.852" cy="397.37" r="4.9153"/>
  <circle cx="36.801" cy="379.26" r="4.9153"/>
  <circle cx="33.75" cy="359.81" r="4.9153"/>
  <circle cx="30.89" cy="340.17" r="4.9153"/>
  <circle cx="29.555" cy="319.19" r="4.9153"/>
  <circle cx="34.131" cy="299.17" r="4.9153"/>
  <circle cx="36.229" cy="279.53" r="4.9153"/>
  <circle cx="33.178" cy="256.27" r="4.9153"/>
  <circle cx="32.797" cy="240.44" r="4.9153"/>
 </g>
</svg>
