<?xml version="1.0" encoding="UTF-8"?>
<!-- Created with Inkscape (http://www.inkscape.org/) -->
<svg width="100" height="650" version="1.1" viewBox="0 0 100 650" xmlns="http://www.w3.org/2000/svg" xmlns:cc="http://creativecommons.org/ns#" xmlns:dc="http://purl.org/dc/elements/1.1/" xmlns:rdf="http://www.w3.org/1999/02/22-rdf-syntax-ns#">
 <metadata>
  <rdf:RDF>
   <cc:Work rdf:about="">
    <dc:format>image/svg+xml</dc:format>
    <dc:type rdf:resource="http://purl.org/dc/dcmitype/StillImage"/>
    <dc:title/>
   </cc:Work>
  </rdf:RDF>
 </metadata>
 <g transform="translate(8.4066 -115.74)" fill="#e00000">
  <circle cx="41.406" cy="760.88" r="4.9153"/>
  <circle cx="40.176" cy="740.59" r="4.9153"/>
  <circle cx="39.356" cy="731.16" r="4.9153"/>
  <circle cx="38.126" cy="716.81" r="4.9153"/>
  <circle cx="37.306" cy="699.8" r="4.9153"/>
  <circle cx="33.412" cy="683.19" r="4.9153"/>
  <circle cx="32.182" cy="664.95" r="4.9153"/>
  <circle cx="25.212" cy="644.45" r="4.9153"/>
  <circle cx="22.548" cy="627.44" r="4.9153"/>
  <circle cx="19.063" cy="608.99" r="4.9153"/>
  <circle cx="18.858" cy="587.06" r="4.9153"/>
  <circle cx="26.032" cy="573.12" r="4.9153"/>
  <circle cx="28.697" cy="555.7" r="4.9153"/>
  <circle cx="35.461" cy="537.45" r="4.9153"/>
  <circle cx="37.921" cy="519.01" r="4.9153"/>
  <circle cx="34.436" cy="499.33" r="4.9153"/>
  <circle cx="34.436" cy="478.83" r="4.9153"/>
  <circle cx="30.952" cy="459.97" r="4.9153"/>
  <circle cx="29.927" cy="445.42" r="4.9153"/>
  <circle cx="28.902" cy="426.97" r="4.9153"/>
  <circle cx="24.802" cy="408.52" r="4.9153"/>
  <circle cx="20.293" cy="393.97" r="4.9153"/>
  <circle cx="17.833" cy="374.29" r="4.9153"/>
  <circle cx="23.983" cy="355.43" r="4.9153"/>
  <circle cx="27.262" cy="333.3" r="4.9153"/>
  <circle cx="23.573" cy="315.67" r="4.9153"/>
  <circle cx="24.188" cy="295.99" r="4.9153"/>
  <circle cx="26.442" cy="275.29" r="4.9153"/>
  <circle cx="27.672" cy="252.94" r="4.9153"/>
 </g>
</svg>
