<?xml version="1.0" encoding="UTF-8"?>
<!-- Created with Inkscape (http://www.inkscape.org/) -->
<svg width="100" height="650" version="1.1" viewBox="0 0 100 650" xmlns="http://www.w3.org/2000/svg" xmlns:cc="http://creativecommons.org/ns#" xmlns:dc="http://purl.org/dc/elements/1.1/" xmlns:rdf="http://www.w3.org/1999/02/22-rdf-syntax-ns#">
 <metadata>
  <rdf:RDF>
   <cc:Work rdf:about="">
    <dc:format>image/svg+xml</dc:format>
    <dc:type rdf:resource="http://purl.org/dc/dcmitype/StillImage"/>
    <dc:title/>
   </cc:Work>
  </rdf:RDF>
 </metadata>
 <g transform="translate(.12228 2.5027)" fill="#e00000">
  <circle cx="49.632" cy="642.45" r="4.9153"/>
  <circle cx="46.346" cy="625.85" r="4.9153"/>
  <circle cx="45.482" cy="618.59" r="4.9153"/>
  <circle cx="43.407" cy="607.35" r="4.9153"/>
  <circle cx="41.85" cy="592.47" r="4.9153"/>
  <circle cx="45.655" cy="577.77" r="4.9153"/>
  <circle cx="45.655" cy="561.52" r="4.9153"/>
  <circle cx="41.677" cy="545.09" r="4.9153"/>
  <circle cx="39.429" cy="527.1" r="4.9153"/>
  <circle cx="36.143" cy="512.58" r="4.9153"/>
  <circle cx="36.316" cy="496.67" r="4.9153"/>
  <circle cx="38.91" cy="480.58" r="4.9153"/>
  <circle cx="40.467" cy="465.37" r="4.9153"/>
  <circle cx="37.873" cy="448.59" r="4.9153"/>
  <circle cx="37.527" cy="434.41" r="4.9153"/>
  <circle cx="44.444" cy="418.67" r="4.9153"/>
  <circle cx="45.978" cy="404.52" r="4.9153"/>
  <circle cx="38.886" cy="388.75" r="4.9153"/>
  <circle cx="34.606" cy="373.46" r="4.9153"/>
  <circle cx="39.62" cy="356.95" r="4.9153"/>
  <circle cx="40.965" cy="340.69" r="4.9153"/>
  <circle cx="38.886" cy="326.02" r="4.9153"/>
  <circle cx="38.397" cy="310.12" r="4.9153"/>
  <circle cx="29.837" cy="292.39" r="4.9153"/>
  <circle cx="26.046" cy="275.02" r="4.9153"/>
  <circle cx="29.103" cy="257.78" r="4.9153"/>
  <circle cx="28.003" cy="241.76" r="4.9153"/>
  <circle cx="32.283" cy="224.64" r="4.9153"/>
  <circle cx="34.239" cy="206.3" r="4.9153"/>
 </g>
</svg>
