<?xml version="1.0" encoding="UTF-8"?>
<!-- Created with Inkscape (http://www.inkscape.org/) -->
<svg width="100" height="650" version="1.1" viewBox="0 0 100 650" xmlns="http://www.w3.org/2000/svg" xmlns:cc="http://creativecommons.org/ns#" xmlns:dc="http://purl.org/dc/elements/1.1/" xmlns:rdf="http://www.w3.org/1999/02/22-rdf-syntax-ns#">
 <metadata>
  <rdf:RDF>
   <cc:Work rdf:about="">
    <dc:format>image/svg+xml</dc:format>
    <dc:type rdf:resource="http://purl.org/dc/dcmitype/StillImage"/>
    <dc:title/>
   </cc:Work>
  </rdf:RDF>
 </metadata>
 <g transform="translate(19.5 -296.53)" fill="#e00000">
  <circle cx="12.458" cy="941.44" r="4.9153"/>
  <circle cx="14.492" cy="917.29" r="4.9153"/>
  <circle cx="15.254" cy="906.86" r="4.9153"/>
  <circle cx="18.559" cy="891.61" r="4.9153"/>
  <circle cx="20.339" cy="873.56" r="4.9153"/>
  <circle cx="17.288" cy="854.49" r="4.9153"/>
  <circle cx="16.78" cy="835.68" r="4.9153"/>
  <circle cx="13.475" cy="813.31" r="4.9153"/>
  <circle cx="11.441" cy="789.41" r="4.9153"/>
  <circle cx="20.085" cy="770.08" r="4.9153"/>
  <circle cx="24.407" cy="750.76" r="4.9153"/>
  <circle cx="27.966" cy="732.46" r="4.9153"/>
  <circle cx="32.034" cy="710.34" r="4.9153"/>
  <circle cx="37.627" cy="690.25" r="4.9153"/>
  <circle cx="41.186" cy="665.85" r="4.9153"/>
  <circle cx="45.763" cy="642.71" r="4.9153"/>
  <circle cx="46.78" cy="622.12" r="4.9153"/>
  <circle cx="54.407" cy="600.76" r="4.9153"/>
  <circle cx="56.695" cy="579.41" r="4.9153"/>
  <circle cx="64.576" cy="558.56" r="4.9153"/>
  <circle cx="67.627" cy="532.37" r="4.9153"/>
  <circle cx="65.339" cy="510.76" r="4.9153"/>
  <circle cx="64.831" cy="486.61" r="4.9153"/>
  <circle cx="67.119" cy="461.69" r="4.9153"/>
  <circle cx="68.39" cy="434.75" r="4.9153"/>
  <circle cx="72.966" cy="412.12" r="4.9153"/>
  <circle cx="74.746" cy="387.97" r="4.9153"/>
  <circle cx="68.644" cy="357.46" r="4.9153"/>
  <circle cx="67.119" cy="330.51" r="4.9153"/>
 </g>
</svg>
