<?xml version="1.0" encoding="UTF-8"?>
<!-- Created with Inkscape (http://www.inkscape.org/) -->
<svg width="100" height="650" version="1.1" viewBox="0 0 100 650" xmlns="http://www.w3.org/2000/svg" xmlns:cc="http://creativecommons.org/ns#" xmlns:dc="http://purl.org/dc/elements/1.1/" xmlns:rdf="http://www.w3.org/1999/02/22-rdf-syntax-ns#">
 <metadata>
  <rdf:RDF>
   <cc:Work rdf:about="">
    <dc:format>image/svg+xml</dc:format>
    <dc:type rdf:resource="http://purl.org/dc/dcmitype/StillImage"/>
    <dc:title/>
   </cc:Work>
  </rdf:RDF>
 </metadata>
 <g transform="translate(5.9964 212.09)" fill="#e00000">
  <circle cx="43.834" cy="432.85" r="4.9153"/>
  <circle cx="42.162" cy="422.81" r="4.9153"/>
  <circle cx="40.012" cy="416" r="4.9153"/>
  <circle cx="39.295" cy="410.39" r="4.9153"/>
  <circle cx="39.295" cy="401.79" r="4.9153"/>
  <circle cx="38.937" cy="394.27" r="4.9153"/>
  <circle cx="44.551" cy="383.52" r="4.9153"/>
  <circle cx="41.803" cy="372.05" r="4.9153"/>
  <circle cx="44.312" cy="361.3" r="4.9153"/>
  <circle cx="47.417" cy="346.13" r="4.9153"/>
  <circle cx="42.878" cy="341.47" r="4.9153"/>
  <circle cx="50.164" cy="326.31" r="4.9153"/>
  <circle cx="48.134" cy="315.08" r="4.9153"/>
  <circle cx="49.567" cy="305.28" r="4.9153"/>
  <circle cx="48.97" cy="293.94" r="4.9153"/>
  <circle cx="47.775" cy="284.62" r="4.9153"/>
  <circle cx="56.256" cy="270.53" r="4.9153"/>
  <circle cx="51.359" cy="259.54" r="4.9153"/>
  <circle cx="58.047" cy="252.97" r="4.9153"/>
  <circle cx="59.839" cy="233.74" r="4.9153"/>
  <circle cx="61.272" cy="217.62" r="4.9153"/>
  <circle cx="54.942" cy="204.96" r="4.9153"/>
  <circle cx="64.258" cy="199.82" r="4.9153"/>
  <circle cx="64.019" cy="185.49" r="4.9153"/>
  <circle cx="60.555" cy="177.84" r="4.9153"/>
  <circle cx="62.705" cy="164.35" r="4.9153"/>
  <circle cx="60.794" cy="153.24" r="4.9153"/>
  <circle cx="65.811" cy="144.04" r="4.9153"/>
  <circle cx="67.722" cy="129.59" r="4.9153"/>
  <circle cx="68.558" cy="123.86" r="4.9153"/>
  <circle cx="73.335" cy="108.69" r="4.9153"/>
  <circle cx="61.989" cy="97.701" r="4.9153"/>
  <circle cx="64.855" cy="89.579" r="4.9153"/>
 </g>
</svg>
