<?xml version="1.0" encoding="UTF-8"?>
<!-- Created with Inkscape (http://www.inkscape.org/) -->
<svg width="100" height="650" version="1.1" viewBox="0 0 100 650" xmlns="http://www.w3.org/2000/svg" xmlns:cc="http://creativecommons.org/ns#" xmlns:dc="http://purl.org/dc/elements/1.1/" xmlns:rdf="http://www.w3.org/1999/02/22-rdf-syntax-ns#">
 <metadata>
  <rdf:RDF>
   <cc:Work rdf:about="">
    <dc:format>image/svg+xml</dc:format>
    <dc:type rdf:resource="http://purl.org/dc/dcmitype/StillImage"/>
    <dc:title/>
   </cc:Work>
  </rdf:RDF>
 </metadata>
 <g transform="translate(-11.458 5.5085)" fill="#e00000">
  <circle cx="61.27" cy="639.29" r="4.9153"/>
  <circle cx="62.536" cy="626.88" r="4.9153"/>
  <circle cx="65.827" cy="615.74" r="4.9153"/>
  <circle cx="62.282" cy="607.64" r="4.9153"/>
  <circle cx="65.574" cy="599.29" r="4.9153"/>
  <circle cx="59.244" cy="581.56" r="4.9153"/>
  <circle cx="57.472" cy="574.47" r="4.9153"/>
  <circle cx="60.763" cy="554.47" r="4.9153"/>
  <circle cx="56.206" cy="539.54" r="4.9153"/>
  <circle cx="54.687" cy="523.59" r="4.9153"/>
  <circle cx="53.421" cy="505.1" r="4.9153"/>
  <circle cx="51.142" cy="493.71" r="4.9153"/>
  <circle cx="49.117" cy="476.49" r="4.9153"/>
  <circle cx="47.092" cy="459.78" r="4.9153"/>
  <circle cx="56.966" cy="444.85" r="4.9153"/>
  <circle cx="52.661" cy="424.59" r="4.9153"/>
  <circle cx="54.687" cy="416.49" r="4.9153"/>
  <circle cx="58.231" cy="393.7" r="4.9153"/>
  <circle cx="56.459" cy="378.51" r="4.9153"/>
  <circle cx="59.751" cy="362.82" r="4.9153"/>
  <circle cx="55.953" cy="344.84" r="4.9153"/>
  <circle cx="53.927" cy="330.66" r="4.9153"/>
  <circle cx="54.687" cy="313.45" r="4.9153"/>
  <circle cx="53.927" cy="297.75" r="4.9153"/>
  <circle cx="62.282" cy="283.82" r="4.9153"/>
  <circle cx="51.902" cy="263.82" r="4.9153"/>
  <circle cx="53.168" cy="252.68" r="4.9153"/>
  <circle cx="57.725" cy="228.88" r="4.9153"/>
  <circle cx="51.396" cy="216.98" r="4.9153"/>
  <circle cx="56.712" cy="198.76" r="4.9153"/>
  <circle cx="51.902" cy="180.27" r="4.9153"/>
  <circle cx="48.864" cy="163.56" r="4.9153"/>
  <circle cx="49.117" cy="141.54" r="4.9153"/>
  <circle cx="38.737" cy="132.17" r="4.9153"/>
  <circle cx="45.319" cy="112.42" r="4.9153"/>
 </g>
</svg>
