<?xml version="1.0" encoding="UTF-8"?>
<!-- Created with Inkscape (http://www.inkscape.org/) -->
<svg width="100" height="650" version="1.1" viewBox="0 0 100 650" xmlns="http://www.w3.org/2000/svg" xmlns:cc="http://creativecommons.org/ns#" xmlns:dc="http://purl.org/dc/elements/1.1/" xmlns:rdf="http://www.w3.org/1999/02/22-rdf-syntax-ns#">
 <metadata>
  <rdf:RDF>
   <cc:Work rdf:about="">
    <dc:format>image/svg+xml</dc:format>
    <dc:type rdf:resource="http://purl.org/dc/dcmitype/StillImage"/>
    <dc:title/>
   </cc:Work>
  </rdf:RDF>
 </metadata>
 <g transform="translate(6.5947 100.4)" fill="#e00000">
  <circle cx="43.184" cy="544.6" r="4.9153"/>
  <circle cx="44.248" cy="531.2" r="4.9153"/>
  <circle cx="46.375" cy="522.48" r="4.9153"/>
  <circle cx="44.674" cy="513.33" r="4.9153"/>
  <circle cx="42.121" cy="505.24" r="4.9153"/>
  <circle cx="42.546" cy="492.05" r="4.9153"/>
  <circle cx="38.292" cy="479.08" r="4.9153"/>
  <circle cx="40.632" cy="467.59" r="4.9153"/>
  <circle cx="39.355" cy="449.93" r="4.9153"/>
  <circle cx="37.653" cy="439.94" r="4.9153"/>
  <circle cx="41.695" cy="421" r="4.9153"/>
  <circle cx="36.164" cy="405.05" r="4.9153"/>
  <circle cx="39.355" cy="391.01" r="4.9153"/>
  <circle cx="39.568" cy="372.71" r="4.9153"/>
  <circle cx="39.355" cy="365.91" r="4.9153"/>
  <circle cx="44.674" cy="344.21" r="4.9153"/>
  <circle cx="38.504" cy="330.38" r="4.9153"/>
  <circle cx="44.248" cy="316.55" r="4.9153"/>
  <circle cx="41.483" cy="301.66" r="4.9153"/>
  <circle cx="44.461" cy="286.77" r="4.9153"/>
  <circle cx="50.205" cy="270.81" r="4.9153"/>
  <circle cx="46.801" cy="259.75" r="4.9153"/>
  <circle cx="50.417" cy="247.2" r="4.9153"/>
  <circle cx="52.757" cy="233.8" r="4.9153"/>
  <circle cx="55.523" cy="221.25" r="4.9153"/>
  <circle cx="54.885" cy="207.42" r="4.9153"/>
  <circle cx="51.056" cy="193.81" r="4.9153"/>
  <circle cx="50.417" cy="181.25" r="4.9153"/>
  <circle cx="46.482" cy="166.15" r="4.9153"/>
  <circle cx="42.653" cy="162.75" r="4.9153"/>
  <circle cx="44.035" cy="144.66" r="4.9153"/>
  <circle cx="35.632" cy="132.54" r="4.9153"/>
  <circle cx="40.013" cy="120.04" r="4.9153"/>
  <circle cx="38.809" cy="99.581" r="4.9153"/>
  <circle cx="43.397" cy="91.907" r="4.9153"/>
 </g>
</svg>
