<?xml version="1.0" encoding="UTF-8"?>
<!-- Created with Inkscape (http://www.inkscape.org/) -->
<svg width="100" height="650" version="1.1" viewBox="0 0 100 650" xmlns="http://www.w3.org/2000/svg" xmlns:cc="http://creativecommons.org/ns#" xmlns:dc="http://purl.org/dc/elements/1.1/" xmlns:rdf="http://www.w3.org/1999/02/22-rdf-syntax-ns#">
 <metadata>
  <rdf:RDF>
   <cc:Work rdf:about="">
    <dc:format>image/svg+xml</dc:format>
    <dc:type rdf:resource="http://purl.org/dc/dcmitype/StillImage"/>
    <dc:title/>
   </cc:Work>
  </rdf:RDF>
 </metadata>
 <g transform="translate(11.308 16.397)" fill="#e00000">
  <circle cx="38.222" cy="628.41" r="4.9153"/>
  <circle cx="40.62" cy="617.86" r="4.9153"/>
  <circle cx="41.42" cy="608.1" r="4.9153"/>
  <circle cx="38.861" cy="602.98" r="4.9153"/>
  <circle cx="42.38" cy="594.83" r="4.9153"/>
  <circle cx="38.382" cy="584.59" r="4.9153"/>
  <circle cx="40.141" cy="577.39" r="4.9153"/>
  <circle cx="40.301" cy="564.92" r="4.9153"/>
  <circle cx="35.023" cy="559.48" r="4.9153"/>
  <circle cx="38.701" cy="549.25" r="4.9153"/>
  <circle cx="33.424" cy="536.29" r="4.9153"/>
  <circle cx="36.942" cy="533.1" r="4.9153"/>
  <circle cx="37.742" cy="517.1" r="4.9153"/>
  <circle cx="34.543" cy="508.79" r="4.9153"/>
  <circle cx="39.981" cy="499.19" r="4.9153"/>
  <circle cx="35.663" cy="489.12" r="4.9153"/>
  <circle cx="37.902" cy="479.2" r="4.9153"/>
  <circle cx="36.303" cy="468.97" r="4.9153"/>
  <circle cx="32.624" cy="460.33" r="4.9153"/>
  <circle cx="42.54" cy="450.26" r="4.9153"/>
  <circle cx="32.624" cy="436.34" r="4.9153"/>
  <circle cx="39.661" cy="431.55" r="4.9153"/>
  <circle cx="40.62" cy="418.11" r="4.9153"/>
  <circle cx="41.1" cy="411.71" r="4.9153"/>
  <circle cx="45.738" cy="402.28" r="4.9153"/>
  <circle cx="38.062" cy="390.6" r="4.9153"/>
  <circle cx="38.382" cy="384.21" r="4.9153"/>
  <circle cx="35.343" cy="371.89" r="4.9153"/>
  <circle cx="35.503" cy="361.02" r="4.9153"/>
  <circle cx="41.42" cy="350.62" r="4.9153"/>
  <circle cx="34.703" cy="339.91" r="4.9153"/>
  <circle cx="37.422" cy="332.71" r="4.9153"/>
  <circle cx="36.462" cy="317.36" r="4.9153"/>
  <circle cx="27.827" cy="312.56" r="4.9153"/>
  <circle cx="33.744" cy="297.53" r="4.9153"/>
 </g>
</svg>
