<?xml version="1.0" encoding="UTF-8"?>
<!-- Created with Inkscape (http://www.inkscape.org/) -->
<svg width="100" height="650" version="1.1" viewBox="0 0 100 650" xmlns="http://www.w3.org/2000/svg" xmlns:cc="http://creativecommons.org/ns#" xmlns:dc="http://purl.org/dc/elements/1.1/" xmlns:rdf="http://www.w3.org/1999/02/22-rdf-syntax-ns#">
 <metadata>
  <rdf:RDF>
   <cc:Work rdf:about="">
    <dc:format>image/svg+xml</dc:format>
    <dc:type rdf:resource="http://purl.org/dc/dcmitype/StillImage"/>
    <dc:title/>
   </cc:Work>
  </rdf:RDF>
 </metadata>
 <g transform="translate(-3.7881 81.306)" fill="#e00000">
  <circle cx="53.572" cy="563.86" r="4.9153"/>
  <circle cx="52.456" cy="553.81" r="4.9153"/>
  <circle cx="51.117" cy="547.78" r="4.9153"/>
  <circle cx="53.572" cy="538.86" r="4.9153"/>
  <circle cx="51.563" cy="529.48" r="4.9153"/>
  <circle cx="56.921" cy="521.22" r="4.9153"/>
  <circle cx="57.59" cy="506.49" r="4.9153"/>
  <circle cx="58.706" cy="498.23" r="4.9153"/>
  <circle cx="61.831" cy="483.27" r="4.9153"/>
  <circle cx="59.376" cy="468.54" r="4.9153"/>
  <circle cx="67.189" cy="458.05" r="4.9153"/>
  <circle cx="61.831" cy="441.09" r="4.9153"/>
  <circle cx="60.939" cy="429.48" r="4.9153"/>
  <circle cx="64.064" cy="410.51" r="4.9153"/>
  <circle cx="55.135" cy="396.89" r="4.9153"/>
  <circle cx="61.608" cy="383.05" r="4.9153"/>
  <circle cx="62.278" cy="366.98" r="4.9153"/>
  <circle cx="59.822" cy="353.36" r="4.9153"/>
  <circle cx="60.492" cy="338.18" r="4.9153"/>
  <circle cx="51.34" cy="324.34" r="4.9153"/>
  <circle cx="53.796" cy="309.61" r="4.9153"/>
  <circle cx="48.215" cy="291.98" r="4.9153"/>
  <circle cx="47.322" cy="283.05" r="4.9153"/>
  <circle cx="49.778" cy="267.65" r="4.9153"/>
  <circle cx="46.206" cy="254.25" r="4.9153"/>
  <circle cx="56.474" cy="242.87" r="4.9153"/>
  <circle cx="53.349" cy="222.78" r="4.9153"/>
  <circle cx="51.34" cy="212.29" r="4.9153"/>
  <circle cx="54.465" cy="192.87" r="4.9153"/>
  <circle cx="45.76" cy="179.7" r="4.9153"/>
  <circle cx="55.805" cy="166.75" r="4.9153"/>
  <circle cx="56.251" cy="148.22" r="4.9153"/>
  <circle cx="55.135" cy="139.52" r="4.9153"/>
  <circle cx="64.287" cy="114.3" r="4.9153"/>
  <circle cx="56.474" cy="103.8" r="4.9153"/>
 </g>
</svg>
