<?xml version="1.0" encoding="UTF-8"?>
<!-- Created with Inkscape (http://www.inkscape.org/) -->
<svg width="100" height="650" version="1.1" viewBox="0 0 100 650" xmlns="http://www.w3.org/2000/svg" xmlns:cc="http://creativecommons.org/ns#" xmlns:dc="http://purl.org/dc/elements/1.1/" xmlns:rdf="http://www.w3.org/1999/02/22-rdf-syntax-ns#">
 <metadata>
  <rdf:RDF>
   <cc:Work rdf:about="">
    <dc:format>image/svg+xml</dc:format>
    <dc:type rdf:resource="http://purl.org/dc/dcmitype/StillImage"/>
    <dc:title/>
   </cc:Work>
  </rdf:RDF>
 </metadata>
 <g transform="translate(14.09 215.03)" fill="#e00000">
  <circle cx="35.43" cy="429.78" r="4.9153"/>
  <circle cx="39.22" cy="422.53" r="4.9153"/>
  <circle cx="37.243" cy="415.45" r="4.9153"/>
  <circle cx="41.528" cy="409.35" r="4.9153"/>
  <circle cx="43.175" cy="397.81" r="4.9153"/>
  <circle cx="38.396" cy="391.39" r="4.9153"/>
  <circle cx="40.374" cy="382.16" r="4.9153"/>
  <circle cx="37.737" cy="370.62" r="4.9153"/>
  <circle cx="41.857" cy="364.85" r="4.9153"/>
  <circle cx="42.352" cy="345.74" r="4.9153"/>
  <circle cx="38.396" cy="340.47" r="4.9153"/>
  <circle cx="39.55" cy="330.25" r="4.9153"/>
  <circle cx="33.618" cy="319.87" r="4.9153"/>
  <circle cx="39.88" cy="313.28" r="4.9153"/>
  <circle cx="40.868" cy="299.43" r="4.9153"/>
  <circle cx="40.539" cy="291.36" r="4.9153"/>
  <circle cx="46.142" cy="278.83" r="4.9153"/>
  <circle cx="41.692" cy="265.16" r="4.9153"/>
  <circle cx="48.778" cy="257.91" r="4.9153"/>
  <circle cx="46.966" cy="245.38" r="4.9153"/>
  <circle cx="44.988" cy="237.47" r="4.9153"/>
  <circle cx="50.591" cy="226.43" r="4.9153"/>
  <circle cx="45.318" cy="214.89" r="4.9153"/>
  <circle cx="50.756" cy="205.17" r="4.9153"/>
  <circle cx="51.415" cy="194.3" r="4.9153"/>
  <circle cx="48.449" cy="182.43" r="4.9153"/>
  <circle cx="50.756" cy="170.4" r="4.9153"/>
  <circle cx="41.033" cy="158.37" r="4.9153"/>
  <circle cx="48.449" cy="155.07" r="4.9153"/>
  <circle cx="45.911" cy="136.1" r="4.9153"/>
  <circle cx="48.941" cy="121.19" r="4.9153"/>
  <circle cx="40.318" cy="110" r="4.9153"/>
  <circle cx="43.114" cy="101.61" r="4.9153"/>
  <circle cx="40.551" cy="88.093" r="4.9153"/>
  <circle cx="40.551" cy="80.169" r="4.9153"/>
 </g>
</svg>
