<?xml version="1.0" encoding="UTF-8"?>
<!-- Created with Inkscape (http://www.inkscape.org/) -->
<svg width="100" height="650" version="1.1" viewBox="0 0 100 650" xmlns="http://www.w3.org/2000/svg" xmlns:cc="http://creativecommons.org/ns#" xmlns:dc="http://purl.org/dc/elements/1.1/" xmlns:rdf="http://www.w3.org/1999/02/22-rdf-syntax-ns#">
 <metadata>
  <rdf:RDF>
   <cc:Work rdf:about="">
    <dc:format>image/svg+xml</dc:format>
    <dc:type rdf:resource="http://purl.org/dc/dcmitype/StillImage"/>
    <dc:title/>
   </cc:Work>
  </rdf:RDF>
 </metadata>
 <g transform="translate(17.758 214.52)" fill="#e00000">
  <circle cx="32.178" cy="430.47" r="4.9153"/>
  <circle cx="31.322" cy="418.49" r="4.9153"/>
  <circle cx="32.349" cy="410.96" r="4.9153"/>
  <circle cx="30.98" cy="402.91" r="4.9153"/>
  <circle cx="33.889" cy="396.58" r="4.9153"/>
  <circle cx="32.691" cy="384.26" r="4.9153"/>
  <circle cx="29.268" cy="377.75" r="4.9153"/>
  <circle cx="34.061" cy="366.11" r="4.9153"/>
  <circle cx="33.718" cy="354.99" r="4.9153"/>
  <circle cx="36.799" cy="347.29" r="4.9153"/>
  <circle cx="36.799" cy="328.29" r="4.9153"/>
  <circle cx="29.61" cy="322.81" r="4.9153"/>
  <circle cx="39.538" cy="308.43" r="4.9153"/>
  <circle cx="32.52" cy="294.74" r="4.9153"/>
  <circle cx="39.024" cy="288.41" r="4.9153"/>
  <circle cx="42.276" cy="273" r="4.9153"/>
  <circle cx="38.511" cy="269.07" r="4.9153"/>
  <circle cx="44.672" cy="255.72" r="4.9153"/>
  <circle cx="40.907" cy="242.02" r="4.9153"/>
  <circle cx="45.186" cy="236.72" r="4.9153"/>
  <circle cx="43.988" cy="221.31" r="4.9153"/>
  <circle cx="38.511" cy="216.01" r="4.9153"/>
  <circle cx="43.645" cy="200.6" r="4.9153"/>
  <circle cx="35.088" cy="190.33" r="4.9153"/>
  <circle cx="36.97" cy="182.29" r="4.9153"/>
  <circle cx="32.691" cy="163.46" r="4.9153"/>
  <circle cx="29.61" cy="161.07" r="4.9153"/>
  <circle cx="38.511" cy="147.03" r="4.9153"/>
  <circle cx="32.349" cy="138.47" r="4.9153"/>
  <circle cx="38.34" cy="131.46" r="4.9153"/>
  <circle cx="35.088" cy="110.06" r="4.9153"/>
  <circle cx="38.853" cy="97.053" r="4.9153"/>
  <circle cx="32.007" cy="85.928" r="4.9153"/>
  <circle cx="39.024" cy="79.081" r="4.9153"/>
  <circle cx="41.078" cy="66.416" r="4.9153"/>
 </g>
</svg>
