<?xml version="1.0" encoding="UTF-8"?>
<!-- Created with Inkscape (http://www.inkscape.org/) -->
<svg width="100" height="650" version="1.1" viewBox="0 0 100 650" xmlns="http://www.w3.org/2000/svg" xmlns:cc="http://creativecommons.org/ns#" xmlns:dc="http://purl.org/dc/elements/1.1/" xmlns:rdf="http://www.w3.org/1999/02/22-rdf-syntax-ns#">
 <metadata>
  <rdf:RDF>
   <cc:Work rdf:about="">
    <dc:format>image/svg+xml</dc:format>
    <dc:type rdf:resource="http://purl.org/dc/dcmitype/StillImage"/>
    <dc:title/>
   </cc:Work>
  </rdf:RDF>
 </metadata>
 <g transform="translate(15.245 168.55)" fill="#e00000">
  <circle cx="34.398" cy="476.36" r="4.9153"/>
  <circle cx="39.35" cy="454.21" r="4.9153"/>
  <circle cx="35.962" cy="443.27" r="4.9153"/>
  <circle cx="34.919" cy="430.24" r="4.9153"/>
  <circle cx="36.222" cy="415.39" r="4.9153"/>
  <circle cx="38.828" cy="397.4" r="4.9153"/>
  <circle cx="37.265" cy="384.38" r="4.9153"/>
  <circle cx="39.35" cy="369.26" r="4.9153"/>
  <circle cx="36.483" cy="352.58" r="4.9153"/>
  <circle cx="38.828" cy="333.56" r="4.9153"/>
  <circle cx="42.477" cy="318.44" r="4.9153"/>
  <circle cx="41.956" cy="303.33" r="4.9153"/>
  <circle cx="37.525" cy="288.22" r="4.9153"/>
  <circle cx="34.659" cy="275.45" r="4.9153"/>
  <circle cx="31.011" cy="261.9" r="4.9153"/>
  <circle cx="32.314" cy="249.13" r="4.9153"/>
  <circle cx="30.75" cy="231.93" r="4.9153"/>
  <circle cx="33.877" cy="215.25" r="4.9153"/>
  <circle cx="33.617" cy="201.96" r="4.9153"/>
  <circle cx="34.919" cy="187.37" r="4.9153"/>
  <circle cx="40.131" cy="169.91" r="4.9153"/>
  <circle cx="44.301" cy="155.83" r="4.9153"/>
  <circle cx="47.428" cy="140.2" r="4.9153"/>
  <circle cx="43.78" cy="121.44" r="4.9153"/>
  <circle cx="45.343" cy="105.54" r="4.9153"/>
  <circle cx="42.477" cy="90.686" r="4.9153"/>
  <circle cx="46.907" cy="71.924" r="4.9153"/>
  <circle cx="44.301" cy="56.549" r="4.9153"/>
  <circle cx="40.913" cy="40.392" r="4.9153"/>
  <circle cx="38.828" cy="21.108" r="4.9153"/>
 </g>
</svg>
