<?xml version="1.0" encoding="UTF-8"?>
<!-- Created with Inkscape (http://www.inkscape.org/) -->
<svg width="100" height="650" version="1.1" viewBox="0 0 100 650" xmlns="http://www.w3.org/2000/svg" xmlns:cc="http://creativecommons.org/ns#" xmlns:dc="http://purl.org/dc/elements/1.1/" xmlns:rdf="http://www.w3.org/1999/02/22-rdf-syntax-ns#">
 <metadata>
  <rdf:RDF>
   <cc:Work rdf:about="">
    <dc:format>image/svg+xml</dc:format>
    <dc:type rdf:resource="http://purl.org/dc/dcmitype/StillImage"/>
    <dc:title/>
   </cc:Work>
  </rdf:RDF>
 </metadata>
 <g transform="translate(-7.2014 15.35)" fill="#e00000">
  <circle cx="56.664" cy="629.72" r="4.9153"/>
  <circle cx="55.337" cy="608.5" r="4.9153"/>
  <circle cx="57.611" cy="599.97" r="4.9153"/>
  <circle cx="55.906" cy="588.41" r="4.9153"/>
  <circle cx="59.696" cy="571.73" r="4.9153"/>
  <circle cx="54.958" cy="557.14" r="4.9153"/>
  <circle cx="51.547" cy="540.08" r="4.9153"/>
  <circle cx="48.136" cy="524.35" r="4.9153"/>
  <circle cx="48.704" cy="508.06" r="4.9153"/>
  <circle cx="44.725" cy="492.14" r="4.9153"/>
  <circle cx="52.305" cy="476.98" r="4.9153"/>
  <circle cx="48.894" cy="461.25" r="4.9153"/>
  <circle cx="45.672" cy="444.57" r="4.9153"/>
  <circle cx="49.083" cy="426.76" r="4.9153"/>
  <circle cx="42.261" cy="411.22" r="4.9153"/>
  <circle cx="38.471" cy="396.25" r="4.9153"/>
  <circle cx="34.68" cy="378.24" r="4.9153"/>
  <circle cx="37.902" cy="363.27" r="4.9153"/>
  <circle cx="42.45" cy="347.54" r="4.9153"/>
  <circle cx="47.757" cy="332.76" r="4.9153"/>
  <circle cx="54.579" cy="317.41" r="4.9153"/>
  <circle cx="53.442" cy="299.22" r="4.9153"/>
  <circle cx="48.894" cy="282.16" r="4.9153"/>
  <circle cx="42.071" cy="264.91" r="4.9153"/>
  <circle cx="46.999" cy="249.94" r="4.9153"/>
  <circle cx="50.978" cy="235.54" r="4.9153"/>
  <circle cx="59.127" cy="217.54" r="4.9153"/>
  <circle cx="56.474" cy="204.65" r="4.9153"/>
  <circle cx="53.821" cy="182.67" r="4.9153"/>
  <circle cx="46.43" cy="163.34" r="4.9153"/>
 </g>
</svg>
