<?xml version="1.0" encoding="UTF-8"?>
<!-- Created with Inkscape (http://www.inkscape.org/) -->
<svg width="100" height="650" version="1.1" viewBox="0 0 100 650" xmlns="http://www.w3.org/2000/svg" xmlns:cc="http://creativecommons.org/ns#" xmlns:dc="http://purl.org/dc/elements/1.1/" xmlns:rdf="http://www.w3.org/1999/02/22-rdf-syntax-ns#">
 <metadata>
  <rdf:RDF>
   <cc:Work rdf:about="">
    <dc:format>image/svg+xml</dc:format>
    <dc:type rdf:resource="http://purl.org/dc/dcmitype/StillImage"/>
    <dc:title/>
   </cc:Work>
  </rdf:RDF>
 </metadata>
 <g transform="translate(18.419 245.21)" fill="#e00000">
  <circle cx="31.166" cy="399.89" r="4.9153"/>
  <circle cx="31.011" cy="380.04" r="4.9153"/>
  <circle cx="28.375" cy="373.07" r="4.9153"/>
  <circle cx="25.429" cy="361.13" r="4.9153"/>
  <circle cx="20.777" cy="348.57" r="4.9153"/>
  <circle cx="16.901" cy="336.63" r="4.9153"/>
  <circle cx="12.559" cy="323.45" r="4.9153"/>
  <circle cx="15.04" cy="311.04" r="4.9153"/>
  <circle cx="18.606" cy="297.86" r="4.9153"/>
  <circle cx="23.103" cy="285.62" r="4.9153"/>
  <circle cx="19.382" cy="273.68" r="4.9153"/>
  <circle cx="14.11" cy="261.27" r="4.9153"/>
  <circle cx="9.7684" cy="247.47" r="4.9153"/>
  <circle cx="12.404" cy="234.91" r="4.9153"/>
  <circle cx="15.66" cy="222.2" r="4.9153"/>
  <circle cx="11.629" cy="211.5" r="4.9153"/>
  <circle cx="14.11" cy="198.16" r="4.9153"/>
  <circle cx="17.366" cy="186.23" r="4.9153"/>
  <circle cx="13.49" cy="174.6" r="4.9153"/>
  <circle cx="14.265" cy="159.25" r="4.9153"/>
  <circle cx="19.692" cy="144.67" r="4.9153"/>
  <circle cx="25.584" cy="130.41" r="4.9153"/>
  <circle cx="29.15" cy="117.07" r="4.9153"/>
  <circle cx="32.561" cy="101.1" r="4.9153"/>
  <circle cx="27.91" cy="88.076" r="4.9153"/>
  <circle cx="32.251" cy="73.346" r="4.9153"/>
  <circle cx="26.824" cy="57.065" r="4.9153"/>
  <circle cx="28.995" cy="43.266" r="4.9153"/>
  <circle cx="34.732" cy="30.551" r="4.9153"/>
  <circle cx="38.764" cy="14.736" r="4.9153"/>
 </g>
</svg>
