<?xml version="1.0" encoding="UTF-8"?>
<!-- Created with Inkscape (http://www.inkscape.org/) -->
<svg width="100" height="650" version="1.1" viewBox="0 0 100 650" xmlns="http://www.w3.org/2000/svg" xmlns:cc="http://creativecommons.org/ns#" xmlns:dc="http://purl.org/dc/elements/1.1/" xmlns:rdf="http://www.w3.org/1999/02/22-rdf-syntax-ns#">
 <metadata>
  <rdf:RDF>
   <cc:Work rdf:about="">
    <dc:format>image/svg+xml</dc:format>
    <dc:type rdf:resource="http://purl.org/dc/dcmitype/StillImage"/>
    <dc:title/>
   </cc:Work>
  </rdf:RDF>
 </metadata>
 <g transform="translate(21.208 273.77)" fill="#e00000">
  <circle cx="27.829" cy="371.01" r="4.9153"/>
  <circle cx="31.146" cy="350.39" r="4.9153"/>
  <circle cx="29.848" cy="343.91" r="4.9153"/>
  <circle cx="31.578" cy="332.8" r="4.9153"/>
  <circle cx="34.03" cy="321.56" r="4.9153"/>
  <circle cx="37.923" cy="308.43" r="4.9153"/>
  <circle cx="39.653" cy="294.59" r="4.9153"/>
  <circle cx="45.709" cy="281.61" r="4.9153"/>
  <circle cx="50.467" cy="267.77" r="4.9153"/>
  <circle cx="46.718" cy="254.94" r="4.9153"/>
  <circle cx="41.383" cy="242.1" r="4.9153"/>
  <circle cx="38.788" cy="229.42" r="4.9153"/>
  <circle cx="39.797" cy="216.87" r="4.9153"/>
  <circle cx="45.565" cy="206.49" r="4.9153"/>
  <circle cx="48.16" cy="191.35" r="4.9153"/>
  <circle cx="44.988" cy="180.25" r="4.9153"/>
  <circle cx="40.662" cy="167.41" r="4.9153"/>
  <circle cx="43.114" cy="155.44" r="4.9153"/>
  <circle cx="49.602" cy="142.76" r="4.9153"/>
  <circle cx="53.496" cy="132.23" r="4.9153"/>
  <circle cx="49.026" cy="122.86" r="4.9153"/>
  <circle cx="50.756" cy="112.91" r="4.9153"/>
  <circle cx="46.286" cy="102.53" r="4.9153"/>
  <circle cx="50.323" cy="88.684" r="4.9153"/>
  <circle cx="48.016" cy="77.869" r="4.9153"/>
  <circle cx="45.421" cy="66.045" r="4.9153"/>
  <circle cx="42.537" cy="53.501" r="4.9153"/>
  <circle cx="37.346" cy="42.109" r="4.9153"/>
  <circle cx="40.23" cy="29.276" r="4.9153"/>
  <circle cx="37.49" cy="18.894" r="4.9153"/>
 </g>
</svg>
