<?xml version="1.0" encoding="UTF-8"?>
<!-- Created with Inkscape (http://www.inkscape.org/) -->
<svg width="100" height="650" version="1.1" viewBox="0 0 100 650" xmlns="http://www.w3.org/2000/svg" xmlns:cc="http://creativecommons.org/ns#" xmlns:dc="http://purl.org/dc/elements/1.1/" xmlns:rdf="http://www.w3.org/1999/02/22-rdf-syntax-ns#">
 <metadata>
  <rdf:RDF>
   <cc:Work rdf:about="">
    <dc:format>image/svg+xml</dc:format>
    <dc:type rdf:resource="http://purl.org/dc/dcmitype/StillImage"/>
    <dc:title/>
   </cc:Work>
  </rdf:RDF>
 </metadata>
 <g transform="translate(32.341 224.33)" fill="#e00000">
  <circle cx="17.537" cy="420.32" r="4.9153"/>
  <circle cx="16.74" cy="409.84" r="4.9153"/>
  <circle cx="19.928" cy="401.42" r="4.9153"/>
  <circle cx="23.345" cy="390.48" r="4.9153"/>
  <circle cx="20.156" cy="378.3" r="4.9153"/>
  <circle cx="16.74" cy="366" r="4.9153"/>
  <circle cx="21.409" cy="353.82" r="4.9153"/>
  <circle cx="24.939" cy="340.95" r="4.9153"/>
  <circle cx="30.177" cy="325.69" r="4.9153"/>
  <circle cx="28.925" cy="312.59" r="4.9153"/>
  <circle cx="22.662" cy="299.5" r="4.9153"/>
  <circle cx="25.281" cy="287.88" r="4.9153"/>
  <circle cx="29.38" cy="275.58" r="4.9153"/>
  <circle cx="25.508" cy="261.12" r="4.9153"/>
  <circle cx="22.662" cy="245.86" r="4.9153"/>
  <circle cx="24.37" cy="231.4" r="4.9153"/>
  <circle cx="29.38" cy="218.64" r="4.9153"/>
  <circle cx="33.935" cy="203.16" r="4.9153"/>
  <circle cx="32.91" cy="190.4" r="4.9153"/>
  <circle cx="34.96" cy="177.65" r="4.9153"/>
  <circle cx="39.06" cy="162.16" r="4.9153"/>
  <circle cx="37.693" cy="147.36" r="4.9153"/>
  <circle cx="41.907" cy="132.89" r="4.9153"/>
  <circle cx="36.213" cy="116.5" r="4.9153"/>
  <circle cx="39.629" cy="102.94" r="4.9153"/>
  <circle cx="44.298" cy="87.685" r="4.9153"/>
  <circle cx="49.537" cy="73.792" r="4.9153"/>
  <circle cx="53.636" cy="57.963" r="4.9153"/>
  <circle cx="57.963" cy="44.526" r="4.9153"/>
  <circle cx="56.141" cy="27.9" r="4.9153"/>
 </g>
</svg>
