<?xml version="1.0" encoding="UTF-8"?>
<!-- Created with Inkscape (http://www.inkscape.org/) -->
<svg width="100" height="650" version="1.1" viewBox="0 0 100 650" xmlns="http://www.w3.org/2000/svg" xmlns:cc="http://creativecommons.org/ns#" xmlns:dc="http://purl.org/dc/elements/1.1/" xmlns:rdf="http://www.w3.org/1999/02/22-rdf-syntax-ns#">
 <metadata>
  <rdf:RDF>
   <cc:Work rdf:about="">
    <dc:format>image/svg+xml</dc:format>
    <dc:type rdf:resource="http://purl.org/dc/dcmitype/StillImage"/>
    <dc:title/>
   </cc:Work>
  </rdf:RDF>
 </metadata>
 <g transform="translate(34.05 306.64)" fill="#e00000">
  <circle cx="15.439" cy="338.18" r="4.9153"/>
  <circle cx="16.266" cy="324.49" r="4.9153"/>
  <circle cx="15.622" cy="316.58" r="4.9153"/>
  <circle cx="16.358" cy="306.66" r="4.9153"/>
  <circle cx="15.255" cy="297.1" r="4.9153"/>
  <circle cx="17.552" cy="286.26" r="4.9153"/>
  <circle cx="21.688" cy="274.68" r="4.9153"/>
  <circle cx="25.18" cy="263.74" r="4.9153"/>
  <circle cx="28.58" cy="254.92" r="4.9153"/>
  <circle cx="26.834" cy="244.35" r="4.9153"/>
  <circle cx="22.147" cy="233.32" r="4.9153"/>
  <circle cx="26.374" cy="224.13" r="4.9153"/>
  <circle cx="32.715" cy="212.46" r="4.9153"/>
  <circle cx="29.039" cy="203" r="4.9153"/>
  <circle cx="25.823" cy="191.97" r="4.9153"/>
  <circle cx="22.606" cy="181.31" r="4.9153"/>
  <circle cx="18.287" cy="171.85" r="4.9153"/>
  <circle cx="24.077" cy="159.35" r="4.9153"/>
  <circle cx="28.764" cy="148.6" r="4.9153"/>
  <circle cx="32.991" cy="136.56" r="4.9153"/>
  <circle cx="30.601" cy="124.61" r="4.9153"/>
  <circle cx="34.185" cy="112.94" r="4.9153"/>
  <circle cx="40.434" cy="101.82" r="4.9153"/>
  <circle cx="46.224" cy="91.804" r="4.9153"/>
  <circle cx="45.672" cy="79.031" r="4.9153"/>
  <circle cx="36.942" cy="67.268" r="4.9153"/>
  <circle cx="41.813" cy="54.77" r="4.9153"/>
  <circle cx="46.04" cy="42.18" r="4.9153"/>
  <circle cx="52.748" cy="30.969" r="4.9153"/>
  <circle cx="55.965" cy="18.104" r="4.9153"/>
 </g>
</svg>
