<?xml version="1.0" encoding="UTF-8"?>
<!-- Created with Inkscape (http://www.inkscape.org/) -->
<svg width="100" height="650" version="1.1" viewBox="0 0 100 650" xmlns="http://www.w3.org/2000/svg" xmlns:cc="http://creativecommons.org/ns#" xmlns:dc="http://purl.org/dc/elements/1.1/" xmlns:rdf="http://www.w3.org/1999/02/22-rdf-syntax-ns#">
 <metadata>
  <rdf:RDF>
   <cc:Work rdf:about="">
    <dc:format>image/svg+xml</dc:format>
    <dc:type rdf:resource="http://purl.org/dc/dcmitype/StillImage"/>
    <dc:title/>
   </cc:Work>
  </rdf:RDF>
 </metadata>
 <g transform="translate(22.956 256.63)" fill="#e00000">
  <circle cx="26.857" cy="388.1" r="4.9153"/>
  <circle cx="29.513" cy="375.85" r="4.9153"/>
  <circle cx="29.365" cy="366.85" r="4.9153"/>
  <circle cx="23.758" cy="358.14" r="4.9153"/>
  <circle cx="20.954" cy="347.37" r="4.9153"/>
  <circle cx="23.463" cy="336.01" r="4.9153"/>
  <circle cx="26.561" cy="324.5" r="4.9153"/>
  <circle cx="29.218" cy="310.92" r="4.9153"/>
  <circle cx="32.464" cy="297.64" r="4.9153"/>
  <circle cx="37.186" cy="284.21" r="4.9153"/>
  <circle cx="39.99" cy="270.19" r="4.9153"/>
  <circle cx="45.45" cy="259.13" r="4.9153"/>
  <circle cx="43.826" cy="249.39" r="4.9153"/>
  <circle cx="46.483" cy="235.22" r="4.9153"/>
  <circle cx="42.941" cy="221.06" r="4.9153"/>
  <circle cx="40.432" cy="206.15" r="4.9153"/>
  <circle cx="36.301" cy="195.97" r="4.9153"/>
  <circle cx="31.874" cy="182.54" r="4.9153"/>
  <circle cx="33.497" cy="168.52" r="4.9153"/>
  <circle cx="36.743" cy="154.36" r="4.9153"/>
  <circle cx="36.448" cy="139.9" r="4.9153"/>
  <circle cx="32.612" cy="126.32" r="4.9153"/>
  <circle cx="27.299" cy="111.42" r="4.9153"/>
  <circle cx="31.283" cy="97.397" r="4.9153"/>
  <circle cx="33.054" cy="83.674" r="4.9153"/>
  <circle cx="38.071" cy="71.278" r="4.9153"/>
  <circle cx="35.12" cy="59.178" r="4.9153"/>
  <circle cx="29.955" cy="46.193" r="4.9153"/>
  <circle cx="25.971" cy="32.322" r="4.9153"/>
  <circle cx="28.185" cy="19.484" r="4.9153"/>
 </g>
</svg>
