<?xml version="1.0" encoding="UTF-8"?>
<!-- Created with Inkscape (http://www.inkscape.org/) -->
<svg width="100" height="650" version="1.1" viewBox="0 0 100 650" xmlns="http://www.w3.org/2000/svg" xmlns:cc="http://creativecommons.org/ns#" xmlns:dc="http://purl.org/dc/elements/1.1/" xmlns:rdf="http://www.w3.org/1999/02/22-rdf-syntax-ns#">
 <metadata>
  <rdf:RDF>
   <cc:Work rdf:about="">
    <dc:format>image/svg+xml</dc:format>
    <dc:type rdf:resource="http://purl.org/dc/dcmitype/StillImage"/>
    <dc:title/>
   </cc:Work>
  </rdf:RDF>
 </metadata>
 <g transform="translate(12.575 244.58)" fill="#e00000">
  <circle cx="37.406" cy="400.33" r="4.9153"/>
  <circle cx="39.953" cy="380.59" r="4.9153"/>
  <circle cx="41.704" cy="371.36" r="4.9153"/>
  <circle cx="44.728" cy="357.83" r="4.9153"/>
  <circle cx="47.275" cy="344.78" r="4.9153"/>
  <circle cx="43.773" cy="331.25" r="4.9153"/>
  <circle cx="38.361" cy="315.33" r="4.9153"/>
  <circle cx="34.063" cy="303.71" r="4.9153"/>
  <circle cx="37.883" cy="288.91" r="4.9153"/>
  <circle cx="42.34" cy="275.54" r="4.9153"/>
  <circle cx="38.679" cy="263.12" r="4.9153"/>
  <circle cx="30.402" cy="250.55" r="4.9153"/>
  <circle cx="28.651" cy="236.22" r="4.9153"/>
  <circle cx="29.766" cy="222.53" r="4.9153"/>
  <circle cx="25.786" cy="209.96" r="4.9153"/>
  <circle cx="28.97" cy="197.86" r="4.9153"/>
  <circle cx="23.717" cy="184.33" r="4.9153"/>
  <circle cx="20.533" cy="172.71" r="4.9153"/>
  <circle cx="14.803" cy="159.18" r="4.9153"/>
  <circle cx="15.44" cy="149.63" r="4.9153"/>
  <circle cx="19.101" cy="135.94" r="4.9153"/>
  <circle cx="24.035" cy="122.57" r="4.9153"/>
  <circle cx="29.288" cy="111.9" r="4.9153"/>
  <circle cx="33.267" cy="99.33" r="4.9153"/>
  <circle cx="36.292" cy="85.641" r="4.9153"/>
  <circle cx="41.067" cy="71.156" r="4.9153"/>
  <circle cx="45.365" cy="59.377" r="4.9153"/>
  <circle cx="50.14" cy="45.848" r="4.9153"/>
  <circle cx="53.323" cy="32.477" r="4.9153"/>
  <circle cx="50.936" cy="19.266" r="4.9153"/>
 </g>
</svg>
