<?xml version="1.0" encoding="UTF-8"?>
<!-- Created with Inkscape (http://www.inkscape.org/) -->
<svg width="100" height="650" version="1.1" viewBox="0 0 100 650" xmlns="http://www.w3.org/2000/svg" xmlns:cc="http://creativecommons.org/ns#" xmlns:dc="http://purl.org/dc/elements/1.1/" xmlns:rdf="http://www.w3.org/1999/02/22-rdf-syntax-ns#">
 <metadata>
  <rdf:RDF>
   <cc:Work rdf:about="">
    <dc:format>image/svg+xml</dc:format>
    <dc:type rdf:resource="http://purl.org/dc/dcmitype/StillImage"/>
    <dc:title/>
   </cc:Work>
  </rdf:RDF>
 </metadata>
 <g transform="translate(5.4741 253.12)" fill="#e00000">
  <circle cx="44.705" cy="391.71" r="4.9153"/>
  <circle cx="47.442" cy="375.28" r="4.9153"/>
  <circle cx="49.267" cy="368.29" r="4.9153"/>
  <circle cx="48.05" cy="357.95" r="4.9153"/>
  <circle cx="45.009" cy="343.66" r="4.9153"/>
  <circle cx="38.927" cy="331.8" r="4.9153"/>
  <circle cx="40.143" cy="319.63" r="4.9153"/>
  <circle cx="45.617" cy="306.86" r="4.9153"/>
  <circle cx="50.483" cy="292.87" r="4.9153"/>
  <circle cx="55.045" cy="278.27" r="4.9153"/>
  <circle cx="53.524" cy="265.19" r="4.9153"/>
  <circle cx="55.653" cy="253.94" r="4.9153"/>
  <circle cx="52.004" cy="240.87" r="4.9153"/>
  <circle cx="46.53" cy="230.22" r="4.9153"/>
  <circle cx="49.267" cy="220.49" r="4.9153"/>
  <circle cx="56.261" cy="208.93" r="4.9153"/>
  <circle cx="53.22" cy="195.55" r="4.9153"/>
  <circle cx="48.05" cy="182.17" r="4.9153"/>
  <circle cx="41.968" cy="170.01" r="4.9153"/>
  <circle cx="38.927" cy="158.15" r="4.9153"/>
  <circle cx="35.277" cy="145.07" r="4.9153"/>
  <circle cx="28.891" cy="129.86" r="4.9153"/>
  <circle cx="34.365" cy="117.09" r="4.9153"/>
  <circle cx="38.927" cy="100.97" r="4.9153"/>
  <circle cx="34.973" cy="89.415" r="4.9153"/>
  <circle cx="38.319" cy="75.73" r="4.9153"/>
  <circle cx="33.149" cy="61.741" r="4.9153"/>
  <circle cx="35.886" cy="48.664" r="4.9153"/>
  <circle cx="32.236" cy="33.458" r="4.9153"/>
  <circle cx="38.014" cy="20.077" r="4.9153"/>
 </g>
</svg>
