<?xml version="1.0" encoding="UTF-8"?>
<!-- Created with Inkscape (http://www.inkscape.org/) -->
<svg width="100" height="650" version="1.1" viewBox="0 0 100 650" xmlns="http://www.w3.org/2000/svg" xmlns:cc="http://creativecommons.org/ns#" xmlns:dc="http://purl.org/dc/elements/1.1/" xmlns:rdf="http://www.w3.org/1999/02/22-rdf-syntax-ns#">
 <metadata>
  <rdf:RDF>
   <cc:Work rdf:about="">
    <dc:format>image/svg+xml</dc:format>
    <dc:type rdf:resource="http://purl.org/dc/dcmitype/StillImage"/>
    <dc:title/>
   </cc:Work>
  </rdf:RDF>
 </metadata>
 <g transform="translate(-118.76 136.43)" fill="#e00000">
  <circle cx="159.34" cy="508.05" r="4.9153"/>
  <circle cx="159.21" cy="495.09" r="4.9153"/>
  <circle cx="160.95" cy="486.83" r="4.9153"/>
  <circle cx="160.95" cy="478.15" r="4.9153"/>
  <circle cx="161.15" cy="466.62" r="4.9153"/>
  <circle cx="163.5" cy="452.43" r="4.9153"/>
  <circle cx="166.25" cy="438.14" r="4.9153"/>
  <circle cx="169.52" cy="421" r="4.9153"/>
  <circle cx="170.64" cy="403.44" r="4.9153"/>
  <circle cx="175.85" cy="386.71" r="4.9153"/>
  <circle cx="178.7" cy="370.07" r="4.9153"/>
  <circle cx="180.34" cy="354.05" r="4.9153"/>
  <circle cx="178.3" cy="334.66" r="4.9153"/>
  <circle cx="176.36" cy="315.06" r="4.9153"/>
  <circle cx="177.17" cy="294.96" r="4.9153"/>
  <circle cx="172.68" cy="272.4" r="4.9153"/>
  <circle cx="168.09" cy="253.83" r="4.9153"/>
  <circle cx="170.85" cy="232.19" r="4.9153"/>
  <circle cx="167.68" cy="212.49" r="4.9153"/>
  <circle cx="165.33" cy="189.43" r="4.9153"/>
  <circle cx="166.15" cy="165.55" r="4.9153"/>
  <circle cx="165.54" cy="143.09" r="4.9153"/>
  <circle cx="164.52" cy="119.42" r="4.9153"/>
  <circle cx="166.46" cy="95.636" r="4.9153"/>
  <circle cx="166.46" cy="69.917" r="4.9153"/>
 </g>
</svg>
