<?xml version="1.0" encoding="UTF-8"?>
<!-- Created with Inkscape (http://www.inkscape.org/) -->
<svg width="100" height="650" version="1.1" viewBox="0 0 100 650" xmlns="http://www.w3.org/2000/svg" xmlns:cc="http://creativecommons.org/ns#" xmlns:dc="http://purl.org/dc/elements/1.1/" xmlns:rdf="http://www.w3.org/1999/02/22-rdf-syntax-ns#">
 <metadata>
  <rdf:RDF>
   <cc:Work rdf:about="">
    <dc:format>image/svg+xml</dc:format>
    <dc:type rdf:resource="http://purl.org/dc/dcmitype/StillImage"/>
    <dc:title/>
   </cc:Work>
  </rdf:RDF>
 </metadata>
 <g transform="translate(-66.367 50.676)" fill="#e00000">
  <circle cx="116" cy="594.24" r="4.9153"/>
  <circle cx="115.16" cy="581.07" r="4.9153"/>
  <circle cx="117.12" cy="573.51" r="4.9153"/>
  <circle cx="115.44" cy="563.98" r="4.9153"/>
  <circle cx="117.12" cy="553.33" r="4.9153"/>
  <circle cx="115.44" cy="540.73" r="4.9153"/>
  <circle cx="117.68" cy="527" r="4.9153"/>
  <circle cx="119.08" cy="511.87" r="4.9153"/>
  <circle cx="118.52" cy="496.46" r="4.9153"/>
  <circle cx="123.14" cy="477.82" r="4.9153"/>
  <circle cx="124.26" cy="459.75" r="4.9153"/>
  <circle cx="123.42" cy="442.38" r="4.9153"/>
  <circle cx="122.02" cy="421.92" r="4.9153"/>
  <circle cx="119.64" cy="403.99" r="4.9153"/>
  <circle cx="119.92" cy="384.8" r="4.9153"/>
  <circle cx="121.6" cy="364.77" r="4.9153"/>
  <circle cx="123.42" cy="344.87" r="4.9153"/>
  <circle cx="119.36" cy="323.16" r="4.9153"/>
  <circle cx="116.7" cy="302.84" r="4.9153"/>
  <circle cx="116.98" cy="281.97" r="4.9153"/>
  <circle cx="117.12" cy="259.55" r="4.9153"/>
  <circle cx="114.6" cy="238.4" r="4.9153"/>
  <circle cx="110.11" cy="215" r="4.9153"/>
  <circle cx="110.68" cy="193.15" r="4.9153"/>
  <circle cx="115.16" cy="169.19" r="4.9153"/>
 </g>
</svg>
