<?xml version="1.0" encoding="UTF-8"?>
<!-- Created with Inkscape (http://www.inkscape.org/) -->
<svg width="100" height="650" version="1.1" viewBox="0 0 100 650" xmlns="http://www.w3.org/2000/svg" xmlns:cc="http://creativecommons.org/ns#" xmlns:dc="http://purl.org/dc/elements/1.1/" xmlns:rdf="http://www.w3.org/1999/02/22-rdf-syntax-ns#">
 <metadata>
  <rdf:RDF>
   <cc:Work rdf:about="">
    <dc:format>image/svg+xml</dc:format>
    <dc:type rdf:resource="http://purl.org/dc/dcmitype/StillImage"/>
    <dc:title/>
   </cc:Work>
  </rdf:RDF>
 </metadata>
 <g transform="translate(-13.384 161.63)" fill="#e00000">
  <circle cx="64.282" cy="483.02" r="4.9153"/>
  <circle cx="58.2" cy="457.58" r="4.9153"/>
  <circle cx="59.306" cy="439.88" r="4.9153"/>
  <circle cx="56.403" cy="419.56" r="4.9153"/>
  <circle cx="58.614" cy="399.1" r="4.9153"/>
  <circle cx="57.094" cy="373.67" r="4.9153"/>
  <circle cx="54.191" cy="353.48" r="4.9153"/>
  <circle cx="57.647" cy="327.77" r="4.9153"/>
  <circle cx="54.605" cy="306.76" r="4.9153"/>
  <circle cx="57.508" cy="278" r="4.9153"/>
  <circle cx="59.306" cy="259.62" r="4.9153"/>
  <circle cx="57.508" cy="239.43" r="4.9153"/>
  <circle cx="59.997" cy="215.66" r="4.9153"/>
  <circle cx="58.753" cy="186.21" r="4.9153"/>
  <circle cx="59.859" cy="171" r="4.9153"/>
  <circle cx="63.453" cy="136.03" r="4.9153"/>
  <circle cx="59.72" cy="119.58" r="4.9153"/>
  <circle cx="59.859" cy="90.686" r="4.9153"/>
  <circle cx="59.167" cy="66.909" r="4.9153"/>
  <circle cx="56.403" cy="39.952" r="4.9153"/>
 </g>
</svg>
