<?xml version="1.0" encoding="UTF-8"?>
<!-- Created with Inkscape (http://www.inkscape.org/) -->
<svg width="100" height="650" version="1.1" viewBox="0 0 100 650" xmlns="http://www.w3.org/2000/svg" xmlns:cc="http://creativecommons.org/ns#" xmlns:dc="http://purl.org/dc/elements/1.1/" xmlns:rdf="http://www.w3.org/1999/02/22-rdf-syntax-ns#">
 <metadata>
  <rdf:RDF>
   <cc:Work rdf:about="">
    <dc:format>image/svg+xml</dc:format>
    <dc:type rdf:resource="http://purl.org/dc/dcmitype/StillImage"/>
    <dc:title/>
   </cc:Work>
  </rdf:RDF>
 </metadata>
 <g fill="#e00000">
  <circle cx="37.813" cy="645" r="4.9153"/>
  <circle cx="40.908" cy="619.9" r="4.9153"/>
  <circle cx="41.939" cy="610.62" r="4.9153"/>
  <circle cx="44.174" cy="594.46" r="4.9153"/>
  <circle cx="45.549" cy="578.47" r="4.9153"/>
  <circle cx="46.237" cy="559.73" r="4.9153"/>
  <circle cx="46.925" cy="538.59" r="4.9153"/>
  <circle cx="50.191" cy="520.54" r="4.9153"/>
  <circle cx="51.91" cy="500.08" r="4.9153"/>
  <circle cx="57.411" cy="482.72" r="4.9153"/>
  <circle cx="59.474" cy="462.6" r="4.9153"/>
  <circle cx="57.755" cy="441.63" r="4.9153"/>
  <circle cx="57.755" cy="416.53" r="4.9153"/>
  <circle cx="63.084" cy="394.01" r="4.9153"/>
  <circle cx="65.491" cy="367.71" r="4.9153"/>
  <circle cx="63.428" cy="343.3" r="4.9153"/>
  <circle cx="64.115" cy="319.06" r="4.9153"/>
  <circle cx="67.897" cy="293.45" r="4.9153"/>
  <circle cx="70.476" cy="266.63" r="4.9153"/>
  <circle cx="68.241" cy="239.64" r="4.9153"/>
  <circle cx="68.585" cy="210.07" r="4.9153"/>
  <circle cx="72.883" cy="180.16" r="4.9153"/>
  <circle cx="73.914" cy="149.04" r="4.9153"/>
  <circle cx="81.306" cy="124.63" r="4.9153"/>
  <circle cx="83.541" cy="98.675" r="4.9153"/>
  <circle cx="87.667" cy="74.264" r="4.9153"/>
  <circle cx="89.386" cy="47.962" r="4.9153"/>
  <circle cx="93.512" cy="17.362" r="4.9153"/>
 </g>
</svg>
