<?xml version="1.0" encoding="UTF-8"?>
<!-- Created with Inkscape (http://www.inkscape.org/) -->
<svg width="100" height="650" version="1.1" viewBox="0 0 100 650" xmlns="http://www.w3.org/2000/svg" xmlns:cc="http://creativecommons.org/ns#" xmlns:dc="http://purl.org/dc/elements/1.1/" xmlns:rdf="http://www.w3.org/1999/02/22-rdf-syntax-ns#">
 <metadata>
  <rdf:RDF>
   <cc:Work rdf:about="">
    <dc:format>image/svg+xml</dc:format>
    <dc:type rdf:resource="http://purl.org/dc/dcmitype/StillImage"/>
    <dc:title/>
   </cc:Work>
  </rdf:RDF>
 </metadata>
 <g transform="translate(22.835 -11.719)" fill="#e00000">
  <circle cx="26.704" cy="656.6" r="4.9153"/>
  <circle cx="27.503" cy="635.4" r="4.9153"/>
  <circle cx="28.567" cy="628.75" r="4.9153"/>
  <circle cx="30.874" cy="618.63" r="4.9153"/>
  <circle cx="31.051" cy="606.83" r="4.9153"/>
  <circle cx="29.366" cy="594.59" r="4.9153"/>
  <circle cx="28.922" cy="579.33" r="4.9153"/>
  <circle cx="31.584" cy="564.34" r="4.9153"/>
  <circle cx="30.342" cy="548.72" r="4.9153"/>
  <circle cx="29.366" cy="534.08" r="4.9153"/>
  <circle cx="28.035" cy="518.38" r="4.9153"/>
  <circle cx="26.172" cy="501.79" r="4.9153"/>
  <circle cx="24.575" cy="483.87" r="4.9153"/>
  <circle cx="21.292" cy="469.5" r="4.9153"/>
  <circle cx="21.292" cy="453.26" r="4.9153"/>
  <circle cx="14.905" cy="436.76" r="4.9153"/>
  <circle cx="13.219" cy="419.99" r="4.9153"/>
  <circle cx="16.679" cy="403.49" r="4.9153"/>
  <circle cx="17.655" cy="387.88" r="4.9153"/>
  <circle cx="25.728" cy="372.26" r="4.9153"/>
  <circle cx="26.882" cy="356.74" r="4.9153"/>
  <circle cx="25.285" cy="339.97" r="4.9153"/>
  <circle cx="23.333" cy="324.35" r="4.9153"/>
  <circle cx="20.494" cy="307.23" r="4.9153"/>
  <circle cx="20.583" cy="291.62" r="4.9153"/>
  <circle cx="16.147" cy="274.14" r="4.9153"/>
  <circle cx="15.703" cy="256.22" r="4.9153"/>
  <circle cx="12.421" cy="236.79" r="4.9153"/>
 </g>
</svg>
