<?xml version="1.0" encoding="UTF-8"?>
<!-- Created with Inkscape (http://www.inkscape.org/) -->
<svg width="100" height="650" version="1.1" viewBox="0 0 100 650" xmlns="http://www.w3.org/2000/svg" xmlns:cc="http://creativecommons.org/ns#" xmlns:dc="http://purl.org/dc/elements/1.1/" xmlns:rdf="http://www.w3.org/1999/02/22-rdf-syntax-ns#">
 <metadata>
  <rdf:RDF>
   <cc:Work rdf:about="">
    <dc:format>image/svg+xml</dc:format>
    <dc:type rdf:resource="http://purl.org/dc/dcmitype/StillImage"/>
    <dc:title/>
   </cc:Work>
  </rdf:RDF>
 </metadata>
 <g fill="#e00000">
  <circle cx="49.748" cy="645" r="4.9153"/>
  <circle cx="51.633" cy="618.27" r="4.9153"/>
  <circle cx="51.804" cy="609.87" r="4.9153"/>
  <circle cx="49.577" cy="595.65" r="4.9153"/>
  <circle cx="50.262" cy="581.43" r="4.9153"/>
  <circle cx="47.692" cy="562.07" r="4.9153"/>
  <circle cx="46.321" cy="543.22" r="4.9153"/>
  <circle cx="42.209" cy="525.74" r="4.9153"/>
  <circle cx="41.01" cy="507.58" r="4.9153"/>
  <circle cx="36.383" cy="489.08" r="4.9153"/>
  <circle cx="37.069" cy="472.28" r="4.9153"/>
  <circle cx="31.414" cy="452.07" r="4.9153"/>
  <circle cx="30.386" cy="432.53" r="4.9153"/>
  <circle cx="26.102" cy="407.52" r="4.9153"/>
  <circle cx="25.931" cy="385.93" r="4.9153"/>
  <circle cx="22.333" cy="365.36" r="4.9153"/>
  <circle cx="20.619" cy="341.2" r="4.9153"/>
  <circle cx="25.76" cy="319.61" r="4.9153"/>
  <circle cx="27.13" cy="294.6" r="4.9153"/>
  <circle cx="36.726" cy="272.32" r="4.9153"/>
  <circle cx="40.153" cy="250.05" r="4.9153"/>
  <circle cx="46.15" cy="223.15" r="4.9153"/>
  <circle cx="48.891" cy="194.7" r="4.9153"/>
  <circle cx="54.546" cy="166.95" r="4.9153"/>
  <circle cx="55.574" cy="138.16" r="4.9153"/>
  <circle cx="65.855" cy="113.49" r="4.9153"/>
  <circle cx="68.768" cy="87.959" r="4.9153"/>
  <circle cx="74.765" cy="61.571" r="4.9153"/>
 </g>
</svg>
