<?xml version="1.0" encoding="UTF-8"?>
<!-- Created with Inkscape (http://www.inkscape.org/) -->
<svg width="100" height="650" version="1.1" viewBox="0 0 100 650" xmlns="http://www.w3.org/2000/svg" xmlns:cc="http://creativecommons.org/ns#" xmlns:dc="http://purl.org/dc/elements/1.1/" xmlns:rdf="http://www.w3.org/1999/02/22-rdf-syntax-ns#">
 <metadata>
  <rdf:RDF>
   <cc:Work rdf:about="">
    <dc:format>image/svg+xml</dc:format>
    <dc:type rdf:resource="http://purl.org/dc/dcmitype/StillImage"/>
    <dc:title/>
   </cc:Work>
  </rdf:RDF>
 </metadata>
 <g transform="translate(14.006 63.086)" fill="#e00000">
  <circle cx="35.677" cy="581.98" r="4.9153"/>
  <circle cx="33.764" cy="559.92" r="4.9153"/>
  <circle cx="34.664" cy="553.17" r="4.9153"/>
  <circle cx="33.539" cy="544.5" r="4.9153"/>
  <circle cx="33.088" cy="532.57" r="4.9153"/>
  <circle cx="29.599" cy="520.08" r="4.9153"/>
  <circle cx="29.149" cy="508.04" r="4.9153"/>
  <circle cx="26.561" cy="493.97" r="4.9153"/>
  <circle cx="26.111" cy="478.78" r="4.9153"/>
  <circle cx="31.963" cy="466.51" r="4.9153"/>
  <circle cx="33.313" cy="451.09" r="4.9153"/>
  <circle cx="32.075" cy="435.11" r="4.9153"/>
  <circle cx="30.95" cy="417.44" r="4.9153"/>
  <circle cx="27.574" cy="403.93" r="4.9153"/>
  <circle cx="26.898" cy="389.53" r="4.9153"/>
  <circle cx="30.725" cy="376.13" r="4.9153"/>
  <circle cx="34.439" cy="359.25" r="4.9153"/>
  <circle cx="31.513" cy="342.82" r="4.9153"/>
  <circle cx="31.063" cy="328.87" r="4.9153"/>
  <circle cx="25.21" cy="312.88" r="4.9153"/>
  <circle cx="24.197" cy="297.92" r="4.9153"/>
  <circle cx="21.159" cy="284.41" r="4.9153"/>
  <circle cx="19.47" cy="270.57" r="4.9153"/>
  <circle cx="22.847" cy="257.51" r="4.9153"/>
  <circle cx="24.535" cy="244.12" r="4.9153"/>
  <circle cx="20.371" cy="228.36" r="4.9153"/>
  <circle cx="17.445" cy="212.49" r="4.9153"/>
  <circle cx="12.718" cy="196.74" r="4.9153"/>
 </g>
</svg>
