<?xml version="1.0" encoding="UTF-8"?>
<!-- Created with Inkscape (http://www.inkscape.org/) -->
<svg width="100" height="650" version="1.1" viewBox="0 0 100 650" xmlns="http://www.w3.org/2000/svg" xmlns:cc="http://creativecommons.org/ns#" xmlns:dc="http://purl.org/dc/elements/1.1/" xmlns:rdf="http://www.w3.org/1999/02/22-rdf-syntax-ns#">
 <metadata>
  <rdf:RDF>
   <cc:Work rdf:about="">
    <dc:format>image/svg+xml</dc:format>
    <dc:type rdf:resource="http://purl.org/dc/dcmitype/StillImage"/>
    <dc:title/>
   </cc:Work>
  </rdf:RDF>
 </metadata>
 <g transform="translate(19.154 87.477)" fill="#e00000">
  <circle cx="30.527" cy="557.45" r="4.9153"/>
  <circle cx="30.312" cy="535.3" r="4.9153"/>
  <circle cx="30.097" cy="527.56" r="4.9153"/>
  <circle cx="28.162" cy="516.17" r="4.9153"/>
  <circle cx="27.947" cy="502.63" r="4.9153"/>
  <circle cx="25.152" cy="488.87" r="4.9153"/>
  <circle cx="24.078" cy="477.04" r="4.9153"/>
  <circle cx="29.022" cy="462.21" r="4.9153"/>
  <circle cx="28.377" cy="448.88" r="4.9153"/>
  <circle cx="32.032" cy="435.34" r="4.9153"/>
  <circle cx="35.256" cy="421.8" r="4.9153"/>
  <circle cx="37.621" cy="406.53" r="4.9153"/>
  <circle cx="39.341" cy="392.99" r="4.9153"/>
  <circle cx="36.761" cy="376.22" r="4.9153"/>
  <circle cx="35.686" cy="362.03" r="4.9153"/>
  <circle cx="38.696" cy="348.27" r="4.9153"/>
  <circle cx="40.631" cy="334.94" r="4.9153"/>
  <circle cx="38.266" cy="320.11" r="4.9153"/>
  <circle cx="37.621" cy="305.49" r="4.9153"/>
  <circle cx="33.752" cy="289.58" r="4.9153"/>
  <circle cx="33.537" cy="276.68" r="4.9153"/>
  <circle cx="29.452" cy="262.07" r="4.9153"/>
  <circle cx="29.022" cy="249.81" r="4.9153"/>
  <circle cx="31.817" cy="238.2" r="4.9153"/>
  <circle cx="32.892" cy="227.45" r="4.9153"/>
  <circle cx="36.761" cy="216.49" r="4.9153"/>
  <circle cx="37.406" cy="204.67" r="4.9153"/>
  <circle cx="40.846" cy="193.27" r="4.9153"/>
 </g>
</svg>
