<?xml version="1.0" encoding="UTF-8"?>
<!-- Created with Inkscape (http://www.inkscape.org/) -->
<svg width="100" height="650" version="1.1" viewBox="0 0 100 650" xmlns="http://www.w3.org/2000/svg" xmlns:cc="http://creativecommons.org/ns#" xmlns:dc="http://purl.org/dc/elements/1.1/" xmlns:rdf="http://www.w3.org/1999/02/22-rdf-syntax-ns#">
 <metadata>
  <rdf:RDF>
   <cc:Work rdf:about="">
    <dc:format>image/svg+xml</dc:format>
    <dc:type rdf:resource="http://purl.org/dc/dcmitype/StillImage"/>
    <dc:title/>
   </cc:Work>
  </rdf:RDF>
 </metadata>
 <g transform="translate(-14.129 -40.566)" fill="#e00000">
  <circle cx="63.889" cy="685.44" r="4.9153"/>
  <circle cx="62.837" cy="671.76" r="4.9153"/>
  <circle cx="61.786" cy="666.51" r="4.9153"/>
  <circle cx="60.997" cy="656.78" r="4.9153"/>
  <circle cx="60.734" cy="645.74" r="4.9153"/>
  <circle cx="58.631" cy="631.01" r="4.9153"/>
  <circle cx="57.579" cy="617.6" r="4.9153"/>
  <circle cx="56.002" cy="603.14" r="4.9153"/>
  <circle cx="54.95" cy="587.37" r="4.9153"/>
  <circle cx="52.058" cy="570.8" r="4.9153"/>
  <circle cx="50.217" cy="554.24" r="4.9153"/>
  <circle cx="43.644" cy="537.15" r="4.9153"/>
  <circle cx="42.593" cy="522.95" r="4.9153"/>
  <circle cx="38.386" cy="504.55" r="4.9153"/>
  <circle cx="37.071" cy="486.14" r="4.9153"/>
  <circle cx="39.964" cy="470.9" r="4.9153"/>
  <circle cx="39.701" cy="455.38" r="4.9153"/>
  <circle cx="37.86" cy="438.29" r="4.9153"/>
  <circle cx="37.071" cy="421.2" r="4.9153"/>
  <circle cx="32.602" cy="402.01" r="4.9153"/>
  <circle cx="29.973" cy="382.55" r="4.9153"/>
  <circle cx="36.809" cy="365.99" r="4.9153"/>
  <circle cx="38.386" cy="348.9" r="4.9153"/>
  <circle cx="33.391" cy="331.29" r="4.9153"/>
  <circle cx="31.813" cy="314.98" r="4.9153"/>
  <circle cx="39.701" cy="296.58" r="4.9153"/>
  <circle cx="41.015" cy="276.86" r="4.9153"/>
  <circle cx="39.438" cy="257.93" r="4.9153"/>
  <circle cx="38.912" cy="239.53" r="4.9153"/>
  <circle cx="34.179" cy="222.44" r="4.9153"/>
 </g>
</svg>
