<?xml version="1.0" encoding="UTF-8"?>
<!-- Created with Inkscape (http://www.inkscape.org/) -->
<svg width="100" height="650" version="1.1" viewBox="0 0 100 650" xmlns="http://www.w3.org/2000/svg" xmlns:cc="http://creativecommons.org/ns#" xmlns:dc="http://purl.org/dc/elements/1.1/" xmlns:rdf="http://www.w3.org/1999/02/22-rdf-syntax-ns#">
 <metadata>
  <rdf:RDF>
   <cc:Work rdf:about="">
    <dc:format>image/svg+xml</dc:format>
    <dc:type rdf:resource="http://purl.org/dc/dcmitype/StillImage"/>
    <dc:title/>
   </cc:Work>
  </rdf:RDF>
 </metadata>
 <g transform="translate(26.41 -70.506)" fill="#e00000">
  <circle cx="15.309" cy="715.31" r="4.9153"/>
  <circle cx="17.556" cy="701.69" r="4.9153"/>
  <circle cx="18.82" cy="695.51" r="4.9153"/>
  <circle cx="21.769" cy="686.24" r="4.9153"/>
  <circle cx="22.753" cy="672.05" r="4.9153"/>
  <circle cx="22.331" cy="656.46" r="4.9153"/>
  <circle cx="21.629" cy="641.29" r="4.9153"/>
  <circle cx="27.387" cy="625.28" r="4.9153"/>
  <circle cx="28.792" cy="610.82" r="4.9153"/>
  <circle cx="24.859" cy="595.37" r="4.9153"/>
  <circle cx="23.736" cy="576.13" r="4.9153"/>
  <circle cx="30.056" cy="557.87" r="4.9153"/>
  <circle cx="31.46" cy="541.01" r="4.9153"/>
  <circle cx="36.657" cy="526.27" r="4.9153"/>
  <circle cx="39.044" cy="507.45" r="4.9153"/>
  <circle cx="44.943" cy="487.36" r="4.9153"/>
  <circle cx="48.033" cy="468.68" r="4.9153"/>
  <circle cx="44.662" cy="449.02" r="4.9153"/>
  <circle cx="45.365" cy="431.75" r="4.9153"/>
  <circle cx="41.853" cy="414.33" r="4.9153"/>
  <circle cx="40.73" cy="395.37" r="4.9153"/>
  <circle cx="44.101" cy="381.33" r="4.9153"/>
  <circle cx="45.645" cy="364.19" r="4.9153"/>
  <circle cx="48.595" cy="347.34" r="4.9153"/>
  <circle cx="49.999" cy="329.22" r="4.9153"/>
  <circle cx="55.477" cy="308.99" r="4.9153"/>
  <circle cx="58.145" cy="290.46" r="4.9153"/>
  <circle cx="64.746" cy="273.04" r="4.9153"/>
  <circle cx="67.836" cy="253.66" r="4.9153"/>
  <circle cx="66.291" cy="231.75" r="4.9153"/>
 </g>
</svg>
