<?xml version="1.0" encoding="UTF-8"?>
<!-- Created with Inkscape (http://www.inkscape.org/) -->
<svg width="100" height="650" version="1.1" viewBox="0 0 100 650" xmlns="http://www.w3.org/2000/svg" xmlns:cc="http://creativecommons.org/ns#" xmlns:dc="http://purl.org/dc/elements/1.1/" xmlns:rdf="http://www.w3.org/1999/02/22-rdf-syntax-ns#">
 <metadata>
  <rdf:RDF>
   <cc:Work rdf:about="">
    <dc:format>image/svg+xml</dc:format>
    <dc:type rdf:resource="http://purl.org/dc/dcmitype/StillImage"/>
    <dc:title/>
   </cc:Work>
  </rdf:RDF>
 </metadata>
 <g transform="translate(11.983 -58.229)" fill="#e00000">
  <circle cx="37.835" cy="702.98" r="4.9153"/>
  <circle cx="37.969" cy="681.3" r="4.9153"/>
  <circle cx="37.565" cy="674.03" r="4.9153"/>
  <circle cx="39.316" cy="662.18" r="4.9153"/>
  <circle cx="39.585" cy="650.74" r="4.9153"/>
  <circle cx="39.316" cy="638.35" r="4.9153"/>
  <circle cx="37.565" cy="622.06" r="4.9153"/>
  <circle cx="34.334" cy="604.69" r="4.9153"/>
  <circle cx="31.91" cy="587.99" r="4.9153"/>
  <circle cx="33.93" cy="573.86" r="4.9153"/>
  <circle cx="35.411" cy="556.89" r="4.9153"/>
  <circle cx="37.027" cy="539.66" r="4.9153"/>
  <circle cx="39.585" cy="522.96" r="4.9153"/>
  <circle cx="37.027" cy="504.51" r="4.9153"/>
  <circle cx="35.68" cy="487.68" r="4.9153"/>
  <circle cx="33.661" cy="470.58" r="4.9153"/>
  <circle cx="33.795" cy="453.89" r="4.9153"/>
  <circle cx="36.353" cy="439.62" r="4.9153"/>
  <circle cx="38.777" cy="422.38" r="4.9153"/>
  <circle cx="35.546" cy="402.99" r="4.9153"/>
  <circle cx="36.219" cy="383.47" r="4.9153"/>
  <circle cx="33.391" cy="367.72" r="4.9153"/>
  <circle cx="32.718" cy="351.02" r="4.9153"/>
  <circle cx="37.161" cy="332.98" r="4.9153"/>
  <circle cx="39.854" cy="316.96" r="4.9153"/>
  <circle cx="37.431" cy="299.05" r="4.9153"/>
  <circle cx="36.353" cy="281.95" r="4.9153"/>
  <circle cx="39.316" cy="263.1" r="4.9153"/>
  <circle cx="39.585" cy="243.98" r="4.9153"/>
  <circle cx="37.161" cy="223.79" r="4.9153"/>
 </g>
</svg>
