<?xml version="1.0" encoding="UTF-8"?>
<!-- Created with Inkscape (http://www.inkscape.org/) -->
<svg width="100" height="650" version="1.1" viewBox="0 0 100 650" xmlns="http://www.w3.org/2000/svg" xmlns:cc="http://creativecommons.org/ns#" xmlns:dc="http://purl.org/dc/elements/1.1/" xmlns:rdf="http://www.w3.org/1999/02/22-rdf-syntax-ns#">
 <metadata>
  <rdf:RDF>
   <cc:Work rdf:about="">
    <dc:format>image/svg+xml</dc:format>
    <dc:type rdf:resource="http://purl.org/dc/dcmitype/StillImage"/>
    <dc:title/>
   </cc:Work>
  </rdf:RDF>
 </metadata>
 <g transform="translate(25.878 -61.776)" fill="#e00000">
  <circle cx="24.082" cy="706.71" r="4.9153"/>
  <circle cx="26.547" cy="686.8" r="4.9153"/>
  <circle cx="27.495" cy="679.02" r="4.9153"/>
  <circle cx="24.082" cy="668.22" r="4.9153"/>
  <circle cx="23.323" cy="655.51" r="4.9153"/>
  <circle cx="27.684" cy="641.29" r="4.9153"/>
  <circle cx="29.96" cy="626.5" r="4.9153"/>
  <circle cx="32.994" cy="609.43" r="4.9153"/>
  <circle cx="33.752" cy="594.64" r="4.9153"/>
  <circle cx="30.149" cy="580.61" r="4.9153"/>
  <circle cx="28.822" cy="562.6" r="4.9153"/>
  <circle cx="35.648" cy="546.29" r="4.9153"/>
  <circle cx="37.165" cy="530.36" r="4.9153"/>
  <circle cx="40.958" cy="512.54" r="4.9153"/>
  <circle cx="42.475" cy="497.75" r="4.9153"/>
  <circle cx="38.682" cy="480.11" r="4.9153"/>
  <circle cx="37.734" cy="464.38" r="4.9153"/>
  <circle cx="40.199" cy="445.22" r="4.9153"/>
  <circle cx="41.526" cy="426.64" r="4.9153"/>
  <circle cx="48.353" cy="406.54" r="4.9153"/>
  <circle cx="50.628" cy="388.53" r="4.9153"/>
  <circle cx="46.457" cy="370.89" r="4.9153"/>
  <circle cx="45.129" cy="354.59" r="4.9153"/>
  <circle cx="40.768" cy="338.28" r="4.9153"/>
  <circle cx="40.199" cy="319.32" r="4.9153"/>
  <circle cx="35.648" cy="300.55" r="4.9153"/>
  <circle cx="33.562" cy="281.2" r="4.9153"/>
  <circle cx="30.718" cy="258.07" r="4.9153"/>
  <circle cx="30.718" cy="237.4" r="4.9153"/>
  <circle cx="25.409" cy="215.41" r="4.9153"/>
 </g>
</svg>
