<?xml version="1.0" encoding="UTF-8"?>
<!-- Created with Inkscape (http://www.inkscape.org/) -->
<svg width="100" height="650" version="1.1" viewBox="0 0 100 650" xmlns="http://www.w3.org/2000/svg" xmlns:cc="http://creativecommons.org/ns#" xmlns:dc="http://purl.org/dc/elements/1.1/" xmlns:rdf="http://www.w3.org/1999/02/22-rdf-syntax-ns#">
 <metadata>
  <rdf:RDF>
   <cc:Work rdf:about="">
    <dc:format>image/svg+xml</dc:format>
    <dc:type rdf:resource="http://purl.org/dc/dcmitype/StillImage"/>
    <dc:title/>
   </cc:Work>
  </rdf:RDF>
 </metadata>
 <g transform="translate(22.902 -152.54)" fill="#e00000">
  <circle cx="26.88" cy="797.59" r="4.9153"/>
  <circle cx="29.031" cy="771.57" r="4.9153"/>
  <circle cx="30.106" cy="764.48" r="4.9153"/>
  <circle cx="26.665" cy="751.57" r="4.9153"/>
  <circle cx="25.59" cy="735.01" r="4.9153"/>
  <circle cx="21.719" cy="718.24" r="4.9153"/>
  <circle cx="19.354" cy="700.18" r="4.9153"/>
  <circle cx="14.623" cy="679.53" r="4.9153"/>
  <circle cx="13.548" cy="660.61" r="4.9153"/>
  <circle cx="8.8167" cy="643.41" r="4.9153"/>
  <circle cx="7.0964" cy="622.98" r="4.9153"/>
  <circle cx="12.688" cy="603.84" r="4.9153"/>
  <circle cx="15.483" cy="584.06" r="4.9153"/>
  <circle cx="22.364" cy="563.63" r="4.9153"/>
  <circle cx="24.73" cy="542.77" r="4.9153"/>
  <circle cx="21.719" cy="521.05" r="4.9153"/>
  <circle cx="18.924" cy="499.76" r="4.9153"/>
  <circle cx="14.193" cy="475.89" r="4.9153"/>
  <circle cx="10.322" cy="455.46" r="4.9153"/>
  <circle cx="13.978" cy="433.96" r="4.9153"/>
  <circle cx="15.483" cy="413.74" r="4.9153"/>
  <circle cx="23.655" cy="393.53" r="4.9153"/>
  <circle cx="27.095" cy="371.81" r="4.9153"/>
  <circle cx="23.225" cy="349.87" r="4.9153"/>
  <circle cx="20.859" cy="327.29" r="4.9153"/>
  <circle cx="24.085" cy="307.08" r="4.9153"/>
  <circle cx="23.87" cy="290.74" r="4.9153"/>
  <circle cx="30.966" cy="272.67" r="4.9153"/>
  <circle cx="31.826" cy="249.88" r="4.9153"/>
  <circle cx="35.697" cy="229.88" r="4.9153"/>
 </g>
</svg>
