<?xml version="1.0" encoding="UTF-8"?>
<!-- Created with Inkscape (http://www.inkscape.org/) -->
<svg width="100" height="650" version="1.1" viewBox="0 0 100 650" xmlns="http://www.w3.org/2000/svg" xmlns:cc="http://creativecommons.org/ns#" xmlns:dc="http://purl.org/dc/elements/1.1/" xmlns:rdf="http://www.w3.org/1999/02/22-rdf-syntax-ns#">
 <metadata>
  <rdf:RDF>
   <cc:Work rdf:about="">
    <dc:format>image/svg+xml</dc:format>
    <dc:type rdf:resource="http://purl.org/dc/dcmitype/StillImage"/>
    <dc:title/>
   </cc:Work>
  </rdf:RDF>
 </metadata>
 <g transform="translate(12.93 6.672)" fill="#e00000">
  <circle cx="37.06" cy="638.44" r="4.9153"/>
  <circle cx="36.207" cy="617.35" r="4.9153"/>
  <circle cx="36.694" cy="610.89" r="4.9153"/>
  <circle cx="33.159" cy="604.07" r="4.9153"/>
  <circle cx="32.793" cy="592.97" r="4.9153"/>
  <circle cx="34.866" cy="580.05" r="4.9153"/>
  <circle cx="34.988" cy="567.37" r="4.9153"/>
  <circle cx="34.256" cy="552.38" r="4.9153"/>
  <circle cx="33.281" cy="536.89" r="4.9153"/>
  <circle cx="38.767" cy="520.31" r="4.9153"/>
  <circle cx="39.255" cy="504.59" r="4.9153"/>
  <circle cx="45.96" cy="490.93" r="4.9153"/>
  <circle cx="48.398" cy="477.16" r="4.9153"/>
  <circle cx="43.034" cy="461.19" r="4.9153"/>
  <circle cx="40.839" cy="444.73" r="4.9153"/>
  <circle cx="43.278" cy="428.15" r="4.9153"/>
  <circle cx="44.619" cy="412.67" r="4.9153"/>
  <circle cx="42.424" cy="396.94" r="4.9153"/>
  <circle cx="41.571" cy="382.19" r="4.9153"/>
  <circle cx="38.523" cy="366.1" r="4.9153"/>
  <circle cx="36.694" cy="349.76" r="4.9153"/>
  <circle cx="40.839" cy="334.53" r="4.9153"/>
  <circle cx="40.596" cy="319.29" r="4.9153"/>
  <circle cx="48.398" cy="301.49" r="4.9153"/>
  <circle cx="52.055" cy="284.42" r="4.9153"/>
  <circle cx="49.617" cy="269.06" r="4.9153"/>
  <circle cx="49.739" cy="253.09" r="4.9153"/>
  <circle cx="46.325" cy="236.02" r="4.9153"/>
  <circle cx="45.594" cy="219.93" r="4.9153"/>
  <circle cx="43.399" cy="201.89" r="4.9153"/>
 </g>
</svg>
