<?xml version="1.0" encoding="UTF-8"?>
<!-- Created with Inkscape (http://www.inkscape.org/) -->
<svg width="100" height="650" version="1.1" viewBox="0 0 100 650" xmlns="http://www.w3.org/2000/svg" xmlns:cc="http://creativecommons.org/ns#" xmlns:dc="http://purl.org/dc/elements/1.1/" xmlns:rdf="http://www.w3.org/1999/02/22-rdf-syntax-ns#">
 <metadata>
  <rdf:RDF>
   <cc:Work rdf:about="">
    <dc:format>image/svg+xml</dc:format>
    <dc:type rdf:resource="http://purl.org/dc/dcmitype/StillImage"/>
    <dc:title/>
   </cc:Work>
  </rdf:RDF>
 </metadata>
 <g transform="translate(-32.546 200.57)" fill="#e00000">
  <circle cx="83.221" cy="444.42" r="4.9153"/>
  <circle cx="84.947" cy="421.98" r="4.9153"/>
  <circle cx="88.4" cy="411.62" r="4.9153"/>
  <circle cx="93.235" cy="396.43" r="4.9153"/>
  <circle cx="85.293" cy="370.87" r="4.9153"/>
  <circle cx="69.063" cy="348.08" r="4.9153"/>
  <circle cx="52.142" cy="321.49" r="4.9153"/>
  <circle cx="40.402" cy="298.36" r="4.9153"/>
  <circle cx="46.272" cy="276.26" r="4.9153"/>
  <circle cx="54.56" cy="253.47" r="4.9153"/>
  <circle cx="65.955" cy="225.84" r="4.9153"/>
  <circle cx="59.739" cy="202.36" r="4.9153"/>
  <circle cx="70.789" cy="177.5" r="4.9153"/>
  <circle cx="58.703" cy="152.29" r="4.9153"/>
  <circle cx="59.739" cy="125.35" r="4.9153"/>
  <circle cx="65.955" cy="106.02" r="4.9153"/>
  <circle cx="74.933" cy="82.881" r="4.9153"/>
  <circle cx="71.135" cy="62.163" r="4.9153"/>
  <circle cx="80.458" cy="40.408" r="4.9153"/>
 </g>
</svg>
