<?xml version="1.0" encoding="UTF-8"?>
<!-- Created with Inkscape (http://www.inkscape.org/) -->
<svg width="100" height="650" version="1.1" viewBox="0 0 100 650" xmlns="http://www.w3.org/2000/svg" xmlns:cc="http://creativecommons.org/ns#" xmlns:dc="http://purl.org/dc/elements/1.1/" xmlns:rdf="http://www.w3.org/1999/02/22-rdf-syntax-ns#">
 <metadata>
  <rdf:RDF>
   <cc:Work rdf:about="">
    <dc:format>image/svg+xml</dc:format>
    <dc:type rdf:resource="http://purl.org/dc/dcmitype/StillImage"/>
    <dc:title/>
   </cc:Work>
  </rdf:RDF>
 </metadata>
 <g transform="translate(-4.2044 298.63)" fill="#e00000">
  <circle cx="54.257" cy="346.37" r="4.9153"/>
  <circle cx="52.656" cy="332.55" r="4.9153"/>
  <circle cx="50.053" cy="325.34" r="4.9153"/>
  <circle cx="45.448" cy="307.73" r="4.9153"/>
  <circle cx="37.84" cy="291.51" r="4.9153"/>
  <circle cx="26.828" cy="274.09" r="4.9153"/>
  <circle cx="28.03" cy="257.47" r="4.9153"/>
  <circle cx="37.239" cy="239.05" r="4.9153"/>
  <circle cx="49.653" cy="222.24" r="4.9153"/>
  <circle cx="58.462" cy="204.22" r="4.9153"/>
  <circle cx="71.676" cy="187" r="4.9153"/>
  <circle cx="80.685" cy="168.38" r="4.9153"/>
  <circle cx="70.675" cy="149.56" r="4.9153"/>
  <circle cx="61.865" cy="128.94" r="4.9153"/>
  <circle cx="67.271" cy="109.32" r="4.9153"/>
  <circle cx="77.682" cy="92.698" r="4.9153"/>
  <circle cx="75.28" cy="79.484" r="4.9153"/>
  <circle cx="60.664" cy="63.667" r="4.9153"/>
  <circle cx="43.046" cy="46.049" r="4.9153"/>
 </g>
</svg>
