<?xml version="1.0" encoding="UTF-8"?>
<!-- Created with Inkscape (http://www.inkscape.org/) -->
<svg width="100" height="650" version="1.1" viewBox="0 0 100 650" xmlns="http://www.w3.org/2000/svg" xmlns:cc="http://creativecommons.org/ns#" xmlns:dc="http://purl.org/dc/elements/1.1/" xmlns:rdf="http://www.w3.org/1999/02/22-rdf-syntax-ns#">
 <metadata>
  <rdf:RDF>
   <cc:Work rdf:about="">
    <dc:format>image/svg+xml</dc:format>
    <dc:type rdf:resource="http://purl.org/dc/dcmitype/StillImage"/>
    <dc:title/>
   </cc:Work>
  </rdf:RDF>
 </metadata>
 <g transform="translate(-42.632 123.27)" fill="#e00000">
  <circle cx="91.049" cy="521.84" r="4.9153"/>
  <circle cx="93.814" cy="496.52" r="4.9153"/>
  <circle cx="94.027" cy="484.82" r="4.9153"/>
  <circle cx="101.9" cy="462.49" r="4.9153"/>
  <circle cx="93.814" cy="435.04" r="4.9153"/>
  <circle cx="84.454" cy="406.32" r="4.9153"/>
  <circle cx="88.071" cy="381.22" r="4.9153"/>
  <circle cx="95.516" cy="356.12" r="4.9153"/>
  <circle cx="105.3" cy="328.25" r="4.9153"/>
  <circle cx="116.36" cy="302.51" r="4.9153"/>
  <circle cx="106.58" cy="278.9" r="4.9153"/>
  <circle cx="101.05" cy="255.92" r="4.9153"/>
  <circle cx="108.07" cy="226.78" r="4.9153"/>
  <circle cx="121.26" cy="199.34" r="4.9153"/>
  <circle cx="111.47" cy="168.28" r="4.9153"/>
  <circle cx="102.32" cy="144.66" r="4.9153"/>
  <circle cx="109.77" cy="123.82" r="4.9153"/>
  <circle cx="123.17" cy="98.289" r="4.9153"/>
  <circle cx="136.57" cy="71.272" r="4.9153"/>
 </g>
</svg>
