<?xml version="1.0" encoding="UTF-8"?>
<!-- Created with Inkscape (http://www.inkscape.org/) -->
<svg width="100" height="650" version="1.1" viewBox="0 0 100 650" xmlns="http://www.w3.org/2000/svg" xmlns:cc="http://creativecommons.org/ns#" xmlns:dc="http://purl.org/dc/elements/1.1/" xmlns:rdf="http://www.w3.org/1999/02/22-rdf-syntax-ns#">
 <metadata>
  <rdf:RDF>
   <cc:Work rdf:about="">
    <dc:format>image/svg+xml</dc:format>
    <dc:type rdf:resource="http://purl.org/dc/dcmitype/StillImage"/>
    <dc:title/>
   </cc:Work>
  </rdf:RDF>
 </metadata>
 <g transform="translate(-9.7969 208.46)" fill="#e00000">
  <circle cx="60.197" cy="436.67" r="4.9153"/>
  <circle cx="61.391" cy="419.95" r="4.9153"/>
  <circle cx="64.019" cy="406.81" r="4.9153"/>
  <circle cx="69.274" cy="390.8" r="4.9153"/>
  <circle cx="62.347" cy="368.35" r="4.9153"/>
  <circle cx="53.508" cy="346.13" r="4.9153"/>
  <circle cx="42.52" cy="327.26" r="4.9153"/>
  <circle cx="32.726" cy="304.81" r="4.9153"/>
  <circle cx="22.216" cy="282.11" r="4.9153"/>
  <circle cx="29.382" cy="257.03" r="4.9153"/>
  <circle cx="34.398" cy="237.2" r="4.9153"/>
  <circle cx="26.515" cy="214.99" r="4.9153"/>
  <circle cx="32.965" cy="189.91" r="4.9153"/>
  <circle cx="29.86" cy="165.06" r="4.9153"/>
  <circle cx="34.159" cy="143.57" r="4.9153"/>
  <circle cx="45.626" cy="122.07" r="4.9153"/>
  <circle cx="42.759" cy="100.09" r="4.9153"/>
  <circle cx="35.832" cy="76.918" r="4.9153"/>
  <circle cx="43.953" cy="51.597" r="4.9153"/>
 </g>
</svg>
