<?xml version="1.0" encoding="UTF-8"?>
<!-- Created with Inkscape (http://www.inkscape.org/) -->
<svg width="100" height="650" version="1.1" viewBox="0 0 100 650" xmlns="http://www.w3.org/2000/svg" xmlns:cc="http://creativecommons.org/ns#" xmlns:dc="http://purl.org/dc/elements/1.1/" xmlns:rdf="http://www.w3.org/1999/02/22-rdf-syntax-ns#">
 <metadata>
  <rdf:RDF>
   <cc:Work rdf:about="">
    <dc:format>image/svg+xml</dc:format>
    <dc:type rdf:resource="http://purl.org/dc/dcmitype/StillImage"/>
    <dc:title/>
   </cc:Work>
  </rdf:RDF>
 </metadata>
 <g transform="translate(-28.22 206.89)" fill="#e00000">
  <circle cx="79.074" cy="438.25" r="4.9153"/>
  <circle cx="79.57" cy="417.18" r="4.9153"/>
  <circle cx="81.305" cy="407.02" r="4.9153"/>
  <circle cx="85.519" cy="388.68" r="4.9153"/>
  <circle cx="78.826" cy="365.87" r="4.9153"/>
  <circle cx="81.801" cy="341.58" r="4.9153"/>
  <circle cx="75.604" cy="321.5" r="4.9153"/>
  <circle cx="83.536" cy="301.42" r="4.9153"/>
  <circle cx="89.485" cy="275.15" r="4.9153"/>
  <circle cx="94.691" cy="248.62" r="4.9153"/>
  <circle cx="105.85" cy="220.86" r="4.9153"/>
  <circle cx="102.38" cy="194.83" r="4.9153"/>
  <circle cx="106.84" cy="170.05" r="4.9153"/>
  <circle cx="103.37" cy="152.94" r="4.9153"/>
  <circle cx="96.674" cy="134.6" r="4.9153"/>
  <circle cx="88.989" cy="111.3" r="4.9153"/>
  <circle cx="78.826" cy="92.708" r="4.9153"/>
  <circle cx="71.142" cy="68.415" r="4.9153"/>
  <circle cx="64.697" cy="48.833" r="4.9153"/>
 </g>
</svg>
