<?xml version="1.0" encoding="UTF-8"?>
<!-- Created with Inkscape (http://www.inkscape.org/) -->
<svg width="100" height="650" version="1.1" viewBox="0 0 100 650" xmlns="http://www.w3.org/2000/svg" xmlns:cc="http://creativecommons.org/ns#" xmlns:dc="http://purl.org/dc/elements/1.1/" xmlns:rdf="http://www.w3.org/1999/02/22-rdf-syntax-ns#">
 <metadata>
  <rdf:RDF>
   <cc:Work rdf:about="">
    <dc:format>image/svg+xml</dc:format>
    <dc:type rdf:resource="http://purl.org/dc/dcmitype/StillImage"/>
    <dc:title/>
   </cc:Work>
  </rdf:RDF>
 </metadata>
 <g transform="translate(26.983 249.81)" fill="#e00000">
  <circle cx="14.885" cy="394.77" r="4.9153"/>
  <circle cx="17.986" cy="374.93" r="4.9153"/>
  <circle cx="14.575" cy="363.14" r="4.9153"/>
  <circle cx="19.847" cy="345.16" r="4.9153"/>
  <circle cx="26.049" cy="330.89" r="4.9153"/>
  <circle cx="20.467" cy="312.59" r="4.9153"/>
  <circle cx="27.6" cy="296.78" r="4.9153"/>
  <circle cx="24.809" cy="278.48" r="4.9153"/>
  <circle cx="33.182" cy="257.4" r="4.9153"/>
  <circle cx="40.934" cy="233.52" r="4.9153"/>
  <circle cx="39.384" cy="212.74" r="4.9153"/>
  <circle cx="30.701" cy="192.89" r="4.9153"/>
  <circle cx="38.143" cy="171.19" r="4.9153"/>
  <circle cx="34.732" cy="152.89" r="4.9153"/>
  <circle cx="40.004" cy="135.52" r="4.9153"/>
  <circle cx="45.896" cy="115.06" r="4.9153"/>
  <circle cx="55.509" cy="97.69" r="4.9153"/>
  <circle cx="67.293" cy="76.602" r="4.9153"/>
  <circle cx="58.61" cy="53.654" r="4.9153"/>
 </g>
</svg>
