<?xml version="1.0" encoding="UTF-8"?>
<!-- Created with Inkscape (http://www.inkscape.org/) -->
<svg width="100" height="650" version="1.1" viewBox="0 0 100 650" xmlns="http://www.w3.org/2000/svg" xmlns:cc="http://creativecommons.org/ns#" xmlns:dc="http://purl.org/dc/elements/1.1/" xmlns:rdf="http://www.w3.org/1999/02/22-rdf-syntax-ns#">
 <metadata>
  <rdf:RDF>
   <cc:Work rdf:about="">
    <dc:format>image/svg+xml</dc:format>
    <dc:type rdf:resource="http://purl.org/dc/dcmitype/StillImage"/>
    <dc:title/>
   </cc:Work>
  </rdf:RDF>
 </metadata>
 <g transform="translate(-15.922 30.916)" fill="#e00000">
  <circle cx="75.626" cy="613.85" r="4.9153"/>
  <circle cx="77.529" cy="593.64" r="4.9153"/>
  <circle cx="70.632" cy="584.84" r="4.9153"/>
  <circle cx="60.881" cy="568.67" r="4.9153"/>
  <circle cx="61.595" cy="550.12" r="4.9153"/>
  <circle cx="56.363" cy="531.33" r="4.9153"/>
  <circle cx="63.735" cy="506.12" r="4.9153"/>
  <circle cx="78.718" cy="489" r="4.9153"/>
  <circle cx="71.108" cy="468.07" r="4.9153"/>
  <circle cx="59.692" cy="447.14" r="4.9153"/>
  <circle cx="50.417" cy="423.84" r="4.9153"/>
  <circle cx="56.601" cy="403.38" r="4.9153"/>
  <circle cx="51.131" cy="381.5" r="4.9153"/>
  <circle cx="44.234" cy="357.96" r="4.9153"/>
  <circle cx="35.673" cy="337.98" r="4.9153"/>
  <circle cx="21.641" cy="315.63" r="4.9153"/>
  <circle cx="21.641" cy="294.46" r="4.9153"/>
  <circle cx="32.343" cy="272.58" r="4.9153"/>
  <circle cx="30.203" cy="249.28" r="4.9153"/>
 </g>
</svg>
