<?xml version="1.0" encoding="UTF-8"?>
<!-- Created with Inkscape (http://www.inkscape.org/) -->
<svg width="100" height="650" version="1.1" viewBox="0 0 100 650" xmlns="http://www.w3.org/2000/svg" xmlns:cc="http://creativecommons.org/ns#" xmlns:dc="http://purl.org/dc/elements/1.1/" xmlns:rdf="http://www.w3.org/1999/02/22-rdf-syntax-ns#">
 <metadata>
  <rdf:RDF>
   <cc:Work rdf:about="">
    <dc:format>image/svg+xml</dc:format>
    <dc:type rdf:resource="http://purl.org/dc/dcmitype/StillImage"/>
    <dc:title/>
   </cc:Work>
  </rdf:RDF>
 </metadata>
 <g transform="translate(-14.873 31.949)">
  <g transform="translate(-26.373 6.9407)" fill="#e00000">
   <circle cx="99.558" cy="606.24" r="4.9153"/>
   <circle cx="100.96" cy="586.61" r="4.9153"/>
   <circle cx="98.156" cy="571.18" r="4.9153"/>
   <circle cx="94.417" cy="547.81" r="4.9153"/>
   <circle cx="84.134" cy="520.24" r="4.9153"/>
   <circle cx="89.275" cy="494.53" r="4.9153"/>
   <circle cx="80.394" cy="460.41" r="4.9153"/>
   <circle cx="68.242" cy="427.22" r="4.9153"/>
   <circle cx="53.285" cy="395.9" r="4.9153"/>
   <circle cx="54.22" cy="358.51" r="4.9153"/>
   <circle cx="64.503" cy="330.47" r="4.9153"/>
   <circle cx="75.253" cy="293.54" r="4.9153"/>
   <circle cx="75.253" cy="257.55" r="4.9153"/>
   <circle cx="83.666" cy="221.56" r="4.9153"/>
   <circle cx="90.677" cy="183.7" r="4.9153"/>
   <circle cx="86.938" cy="154.72" r="4.9153"/>
   <circle cx="73.383" cy="125.74" r="4.9153"/>
   <circle cx="60.763" cy="97.697" r="4.9153"/>
   <circle cx="47.676" cy="62.641" r="4.9153"/>
  </g>
 </g>
</svg>
