<?xml version="1.0" encoding="UTF-8"?>
<!-- Created with Inkscape (http://www.inkscape.org/) -->
<svg width="100" height="650" version="1.1" viewBox="0 0 100 650" xmlns="http://www.w3.org/2000/svg" xmlns:cc="http://creativecommons.org/ns#" xmlns:dc="http://purl.org/dc/elements/1.1/" xmlns:rdf="http://www.w3.org/1999/02/22-rdf-syntax-ns#">
 <metadata>
  <rdf:RDF>
   <cc:Work rdf:about="">
    <dc:format>image/svg+xml</dc:format>
    <dc:type rdf:resource="http://purl.org/dc/dcmitype/StillImage"/>
    <dc:title/>
   </cc:Work>
  </rdf:RDF>
 </metadata>
 <g transform="translate(6.0938 -219.53)" fill="#e00000">
  <circle cx="42.758" cy="864.45" r="4.9153"/>
  <circle cx="43.089" cy="853.51" r="4.9153"/>
  <circle cx="42.758" cy="844.56" r="4.9153"/>
  <circle cx="39.112" cy="830.64" r="4.9153"/>
  <circle cx="38.78" cy="820.03" r="4.9153"/>
  <circle cx="41.432" cy="804.46" r="4.9153"/>
  <circle cx="39.443" cy="793.19" r="4.9153"/>
  <circle cx="40.769" cy="778.6" r="4.9153"/>
  <circle cx="38.78" cy="764.68" r="4.9153"/>
  <circle cx="41.432" cy="749.77" r="4.9153"/>
  <circle cx="42.426" cy="732.86" r="4.9153"/>
  <circle cx="36.792" cy="719.6" r="4.9153"/>
  <circle cx="41.101" cy="695.08" r="4.9153"/>
  <circle cx="33.146" cy="675.52" r="4.9153"/>
  <circle cx="34.14" cy="656.63" r="4.9153"/>
  <circle cx="34.14" cy="634.42" r="4.9153"/>
  <circle cx="33.809" cy="616.52" r="4.9153"/>
  <circle cx="35.134" cy="593.65" r="4.9153"/>
  <circle cx="30.163" cy="568.46" r="4.9153"/>
  <circle cx="30.494" cy="549.57" r="4.9153"/>
  <circle cx="27.842" cy="524.04" r="4.9153"/>
  <circle cx="27.511" cy="504.49" r="4.9153"/>
  <circle cx="32.151" cy="477.64" r="4.9153"/>
  <circle cx="30.163" cy="454.77" r="4.9153"/>
  <circle cx="37.786" cy="435.21" r="4.9153"/>
  <circle cx="34.471" cy="406.71" r="4.9153"/>
  <circle cx="34.471" cy="385.83" r="4.9153"/>
  <circle cx="39.443" cy="362.29" r="4.9153"/>
 </g>
</svg>
