<?xml version="1.0" encoding="UTF-8"?>
<!-- Created with Inkscape (http://www.inkscape.org/) -->
<svg width="100" height="650" version="1.1" viewBox="0 0 100 650" xmlns="http://www.w3.org/2000/svg" xmlns:cc="http://creativecommons.org/ns#" xmlns:dc="http://purl.org/dc/elements/1.1/" xmlns:rdf="http://www.w3.org/1999/02/22-rdf-syntax-ns#">
 <metadata>
  <rdf:RDF>
   <cc:Work rdf:about="">
    <dc:format>image/svg+xml</dc:format>
    <dc:type rdf:resource="http://purl.org/dc/dcmitype/StillImage"/>
    <dc:title/>
   </cc:Work>
  </rdf:RDF>
 </metadata>
 <g transform="translate(-.32362 55.181)" fill="#e00000">
  <circle cx="50.162" cy="589.64" r="4.9153"/>
  <circle cx="51.132" cy="581.23" r="4.9153"/>
  <circle cx="53.721" cy="571.19" r="4.9153"/>
  <circle cx="54.692" cy="559.22" r="4.9153"/>
  <circle cx="55.016" cy="545.3" r="4.9153"/>
  <circle cx="57.928" cy="530.42" r="4.9153"/>
  <circle cx="59.223" cy="515.53" r="4.9153"/>
  <circle cx="63.106" cy="498.38" r="4.9153"/>
  <circle cx="61.165" cy="480.9" r="4.9153"/>
  <circle cx="66.019" cy="467.64" r="4.9153"/>
  <circle cx="66.019" cy="448.22" r="4.9153"/>
  <circle cx="64.725" cy="434.63" r="4.9153"/>
  <circle cx="64.401" cy="417.8" r="4.9153"/>
  <circle cx="62.136" cy="399.35" r="4.9153"/>
  <circle cx="63.43" cy="385.43" r="4.9153"/>
  <circle cx="65.048" cy="365.05" r="4.9153"/>
  <circle cx="64.077" cy="352.43" r="4.9153"/>
  <circle cx="71.197" cy="334.63" r="4.9153"/>
  <circle cx="72.492" cy="318.44" r="4.9153"/>
  <circle cx="76.375" cy="300.97" r="4.9153"/>
  <circle cx="77.022" cy="281.55" r="4.9153"/>
  <circle cx="77.022" cy="264.72" r="4.9153"/>
  <circle cx="80.258" cy="246.28" r="4.9153"/>
  <circle cx="76.699" cy="228.15" r="4.9153"/>
  <circle cx="78.964" cy="208.41" r="4.9153"/>
  <circle cx="79.288" cy="188.35" r="4.9153"/>
  <circle cx="80.582" cy="172.81" r="4.9153"/>
  <circle cx="79.935" cy="148.54" r="4.9153"/>
  <circle cx="77.022" cy="127.51" r="4.9153"/>
  <circle cx="81.877" cy="109.38" r="4.9153"/>
  <circle cx="81.877" cy="85.113" r="4.9153"/>
  <circle cx="78.964" cy="69.255" r="4.9153"/>
  <circle cx="79.288" cy="46.602" r="4.9153"/>
  <circle cx="75.404" cy="27.508" r="4.9153"/>
 </g>
</svg>
