<?xml version="1.0" encoding="UTF-8"?>
<!-- Created with Inkscape (http://www.inkscape.org/) -->
<svg width="100" height="650" version="1.1" viewBox="0 0 100 650" xmlns="http://www.w3.org/2000/svg" xmlns:cc="http://creativecommons.org/ns#" xmlns:dc="http://purl.org/dc/elements/1.1/" xmlns:rdf="http://www.w3.org/1999/02/22-rdf-syntax-ns#">
 <metadata>
  <rdf:RDF>
   <cc:Work rdf:about="">
    <dc:format>image/svg+xml</dc:format>
    <dc:type rdf:resource="http://purl.org/dc/dcmitype/StillImage"/>
    <dc:title/>
   </cc:Work>
  </rdf:RDF>
 </metadata>
 <g transform="translate(5.4576 212.2)" fill="#e00000">
  <circle cx="44.136" cy="432.58" r="4.9153"/>
  <circle cx="42.475" cy="422.37" r="4.9153"/>
  <circle cx="43.424" cy="415.02" r="4.9153"/>
  <circle cx="41.525" cy="406.47" r="4.9153"/>
  <circle cx="44.847" cy="398.17" r="4.9153"/>
  <circle cx="43.186" cy="387.02" r="4.9153"/>
  <circle cx="41.051" cy="378.24" r="4.9153"/>
  <circle cx="44.61" cy="366.85" r="4.9153"/>
  <circle cx="41.525" cy="356.17" r="4.9153"/>
  <circle cx="43.424" cy="347.15" r="4.9153"/>
  <circle cx="42" cy="331.02" r="4.9153"/>
  <circle cx="43.186" cy="322.24" r="4.9153"/>
  <circle cx="45.797" cy="307.05" r="4.9153"/>
  <circle cx="45.559" cy="294.71" r="4.9153"/>
  <circle cx="48.407" cy="284.51" r="4.9153"/>
  <circle cx="46.034" cy="270.75" r="4.9153"/>
  <circle cx="43.898" cy="260.54" r="4.9153"/>
  <circle cx="47.932" cy="246.54" r="4.9153"/>
  <circle cx="47.22" cy="234.92" r="4.9153"/>
  <circle cx="47.458" cy="223.53" r="4.9153"/>
  <circle cx="43.898" cy="205.73" r="4.9153"/>
  <circle cx="41.288" cy="197.66" r="4.9153"/>
  <circle cx="42.237" cy="182.71" r="4.9153"/>
  <circle cx="42.712" cy="170.37" r="4.9153"/>
  <circle cx="44.61" cy="156.85" r="4.9153"/>
  <circle cx="45.559" cy="143.08" r="4.9153"/>
  <circle cx="46.746" cy="131.22" r="4.9153"/>
  <circle cx="47.695" cy="115.56" r="4.9153"/>
  <circle cx="42.949" cy="103.93" r="4.9153"/>
  <circle cx="47.458" cy="91.119" r="4.9153"/>
  <circle cx="47.22" cy="75.932" r="4.9153"/>
  <circle cx="47.932" cy="63.831" r="4.9153"/>
  <circle cx="48.407" cy="49.119" r="4.9153"/>
  <circle cx="42.949" cy="35.831" r="4.9153"/>
  <circle cx="46.508" cy="24.441" r="4.9153"/>
 </g>
</svg>
