<?xml version="1.0" encoding="UTF-8"?>
<!-- Created with Inkscape (http://www.inkscape.org/) -->
<svg width="100" height="650" version="1.1" viewBox="0 0 100 650" xmlns="http://www.w3.org/2000/svg" xmlns:cc="http://creativecommons.org/ns#" xmlns:dc="http://purl.org/dc/elements/1.1/" xmlns:rdf="http://www.w3.org/1999/02/22-rdf-syntax-ns#">
 <metadata>
  <rdf:RDF>
   <cc:Work rdf:about="">
    <dc:format>image/svg+xml</dc:format>
    <dc:type rdf:resource="http://purl.org/dc/dcmitype/StillImage"/>
    <dc:title/>
   </cc:Work>
  </rdf:RDF>
 </metadata>
 <g transform="translate(-13.234 22.215)" fill="#e00000">
  <circle cx="64.281" cy="622.59" r="4.9153"/>
  <circle cx="65.462" cy="609.82" r="4.9153"/>
  <circle cx="67.826" cy="599.43" r="4.9153"/>
  <circle cx="70.662" cy="584.06" r="4.9153"/>
  <circle cx="72.789" cy="569.89" r="4.9153"/>
  <circle cx="76.806" cy="553.82" r="4.9153"/>
  <circle cx="74.443" cy="539.64" r="4.9153"/>
  <circle cx="75.388" cy="523.09" r="4.9153"/>
  <circle cx="71.371" cy="504.42" r="4.9153"/>
  <circle cx="70.662" cy="492.13" r="4.9153"/>
  <circle cx="69.716" cy="473.94" r="4.9153"/>
  <circle cx="66.644" cy="456.68" r="4.9153"/>
  <circle cx="66.88" cy="439.43" r="4.9153"/>
  <circle cx="67.826" cy="420.76" r="4.9153"/>
  <circle cx="70.662" cy="406.35" r="4.9153"/>
  <circle cx="73.261" cy="385.55" r="4.9153"/>
  <circle cx="74.443" cy="371.84" r="4.9153"/>
  <circle cx="73.97" cy="354.83" r="4.9153"/>
  <circle cx="73.261" cy="337.1" r="4.9153"/>
  <circle cx="69.716" cy="322.92" r="4.9153"/>
  <circle cx="67.589" cy="304.49" r="4.9153"/>
  <circle cx="68.062" cy="289.13" r="4.9153"/>
  <circle cx="71.134" cy="269.28" r="4.9153"/>
  <circle cx="72.08" cy="250.37" r="4.9153"/>
  <circle cx="77.042" cy="235.48" r="4.9153"/>
  <circle cx="80.351" cy="214.21" r="4.9153"/>
  <circle cx="81.769" cy="199.8" r="4.9153"/>
  <circle cx="88.859" cy="181.36" r="4.9153"/>
  <circle cx="87.204" cy="164.11" r="4.9153"/>
  <circle cx="92.404" cy="147.81" r="4.9153"/>
  <circle cx="91.458" cy="120.63" r="4.9153"/>
  <circle cx="93.822" cy="104.79" r="4.9153"/>
  <circle cx="97.839" cy="83.053" r="4.9153"/>
  <circle cx="92.404" cy="62.256" r="4.9153"/>
  <circle cx="94.058" cy="43.586" r="4.9153"/>
 </g>
</svg>
