<?xml version="1.0" encoding="UTF-8"?>
<!-- Created with Inkscape (http://www.inkscape.org/) -->
<svg width="100" height="650" version="1.1" viewBox="0 0 100 650" xmlns="http://www.w3.org/2000/svg" xmlns:cc="http://creativecommons.org/ns#" xmlns:dc="http://purl.org/dc/elements/1.1/" xmlns:rdf="http://www.w3.org/1999/02/22-rdf-syntax-ns#">
 <metadata>
  <rdf:RDF>
   <cc:Work rdf:about="">
    <dc:format>image/svg+xml</dc:format>
    <dc:type rdf:resource="http://purl.org/dc/dcmitype/StillImage"/>
    <dc:title/>
   </cc:Work>
  </rdf:RDF>
 </metadata>
 <g transform="translate(-18.907 183.79)" fill="#e00000">
  <circle cx="67.989" cy="461.16" r="4.9153"/>
  <circle cx="67.859" cy="451.06" r="4.9153"/>
  <circle cx="66.823" cy="443.42" r="4.9153"/>
  <circle cx="64.363" cy="434.09" r="4.9153"/>
  <circle cx="66.305" cy="423.21" r="4.9153"/>
  <circle cx="62.161" cy="411.43" r="4.9153"/>
  <circle cx="61.384" cy="399.9" r="4.9153"/>
  <circle cx="61.902" cy="387.86" r="4.9153"/>
  <circle cx="62.55" cy="375.69" r="4.9153"/>
  <circle cx="64.881" cy="363.9" r="4.9153"/>
  <circle cx="64.104" cy="350.3" r="4.9153"/>
  <circle cx="64.881" cy="340.07" r="4.9153"/>
  <circle cx="64.104" cy="327.77" r="4.9153"/>
  <circle cx="60.736" cy="315.99" r="4.9153"/>
  <circle cx="60.866" cy="303.16" r="4.9153"/>
  <circle cx="56.851" cy="288.92" r="4.9153"/>
  <circle cx="58.794" cy="278.82" r="4.9153"/>
  <circle cx="60.477" cy="261.85" r="4.9153"/>
  <circle cx="61.384" cy="248.9" r="4.9153"/>
  <circle cx="65.269" cy="235.18" r="4.9153"/>
  <circle cx="64.233" cy="220.8" r="4.9153"/>
  <circle cx="67.341" cy="207.59" r="4.9153"/>
  <circle cx="69.025" cy="191.66" r="4.9153"/>
  <circle cx="65.658" cy="181.17" r="4.9153"/>
  <circle cx="68.507" cy="164.73" r="4.9153"/>
  <circle cx="68.636" cy="150.74" r="4.9153"/>
  <circle cx="72.003" cy="139.73" r="4.9153"/>
  <circle cx="74.593" cy="121.73" r="4.9153"/>
  <circle cx="75.111" cy="109.04" r="4.9153"/>
  <circle cx="79.255" cy="94.666" r="4.9153"/>
  <circle cx="80.032" cy="80.939" r="4.9153"/>
  <circle cx="80.55" cy="70.19" r="4.9153"/>
  <circle cx="80.162" cy="50.635" r="4.9153"/>
  <circle cx="75.888" cy="40.016" r="4.9153"/>
  <circle cx="77.96" cy="24.605" r="4.9153"/>
 </g>
</svg>
