<?xml version="1.0" encoding="UTF-8"?>
<!-- Created with Inkscape (http://www.inkscape.org/) -->
<svg width="100" height="650" version="1.1" viewBox="0 0 100 650" xmlns="http://www.w3.org/2000/svg" xmlns:cc="http://creativecommons.org/ns#" xmlns:dc="http://purl.org/dc/elements/1.1/" xmlns:rdf="http://www.w3.org/1999/02/22-rdf-syntax-ns#">
 <metadata>
  <rdf:RDF>
   <cc:Work rdf:about="">
    <dc:format>image/svg+xml</dc:format>
    <dc:type rdf:resource="http://purl.org/dc/dcmitype/StillImage"/>
    <dc:title/>
   </cc:Work>
  </rdf:RDF>
 </metadata>
 <g transform="translate(2.952 28.677)" fill="#e00000">
  <circle cx="46.519" cy="616.01" r="4.9153"/>
  <circle cx="42.642" cy="608.25" r="4.9153"/>
  <circle cx="43.239" cy="599.9" r="4.9153"/>
  <circle cx="45.624" cy="587.68" r="4.9153"/>
  <circle cx="45.028" cy="576.64" r="4.9153"/>
  <circle cx="45.326" cy="562.93" r="4.9153"/>
  <circle cx="43.537" cy="549.21" r="4.9153"/>
  <circle cx="41.45" cy="536.68" r="4.9153"/>
  <circle cx="41.151" cy="518.49" r="4.9153"/>
  <circle cx="43.239" cy="507.46" r="4.9153"/>
  <circle cx="45.326" cy="489.87" r="4.9153"/>
  <circle cx="42.941" cy="474.66" r="4.9153"/>
  <circle cx="43.537" cy="460.35" r="4.9153"/>
  <circle cx="42.046" cy="440.07" r="4.9153"/>
  <circle cx="40.257" cy="428.14" r="4.9153"/>
  <circle cx="45.624" cy="411.14" r="4.9153"/>
  <circle cx="44.73" cy="395.04" r="4.9153"/>
  <circle cx="49.799" cy="380.13" r="4.9153"/>
  <circle cx="50.992" cy="364.03" r="4.9153"/>
  <circle cx="47.414" cy="351.2" r="4.9153"/>
  <circle cx="51.588" cy="332.12" r="4.9153"/>
  <circle cx="46.519" cy="317.51" r="4.9153"/>
  <circle cx="48.308" cy="304.69" r="4.9153"/>
  <circle cx="49.799" cy="286.79" r="4.9153"/>
  <circle cx="50.694" cy="273.67" r="4.9153"/>
  <circle cx="51.588" cy="255.78" r="4.9153"/>
  <circle cx="48.308" cy="238.49" r="4.9153"/>
  <circle cx="52.185" cy="224.77" r="4.9153"/>
  <circle cx="51.887" cy="204.49" r="4.9153"/>
  <circle cx="49.501" cy="192.56" r="4.9153"/>
  <circle cx="52.483" cy="173.18" r="4.9153"/>
  <circle cx="45.326" cy="155.88" r="4.9153"/>
  <circle cx="47.414" cy="139.78" r="4.9153"/>
  <circle cx="44.73" cy="120.99" r="4.9153"/>
  <circle cx="43.239" cy="107.58" r="4.9153"/>
 </g>
</svg>
