<?xml version="1.0" encoding="UTF-8"?>
<!-- Created with Inkscape (http://www.inkscape.org/) -->
<svg width="100" height="650" version="1.1" viewBox="0 0 100 650" xmlns="http://www.w3.org/2000/svg" xmlns:cc="http://creativecommons.org/ns#" xmlns:dc="http://purl.org/dc/elements/1.1/" xmlns:rdf="http://www.w3.org/1999/02/22-rdf-syntax-ns#">
 <metadata>
  <rdf:RDF>
   <cc:Work rdf:about="">
    <dc:format>image/svg+xml</dc:format>
    <dc:type rdf:resource="http://purl.org/dc/dcmitype/StillImage"/>
    <dc:title/>
   </cc:Work>
  </rdf:RDF>
 </metadata>
 <g transform="translate(-15.364 71.797)" fill="#e00000">
  <circle cx="64.907" cy="572.87" r="4.9153"/>
  <circle cx="69.61" cy="560.96" r="4.9153"/>
  <circle cx="66.788" cy="552.49" r="4.9153"/>
  <circle cx="72.746" cy="540.58" r="4.9153"/>
  <circle cx="73.059" cy="525.53" r="4.9153"/>
  <circle cx="71.805" cy="514.86" r="4.9153"/>
  <circle cx="70.237" cy="498.56" r="4.9153"/>
  <circle cx="66.475" cy="484.14" r="4.9153"/>
  <circle cx="66.788" cy="470.34" r="4.9153"/>
  <circle cx="61.144" cy="452.15" r="4.9153"/>
  <circle cx="59.576" cy="440.86" r="4.9153"/>
  <circle cx="59.576" cy="423.31" r="4.9153"/>
  <circle cx="54.246" cy="410.76" r="4.9153"/>
  <circle cx="56.127" cy="396.97" r="4.9153"/>
  <circle cx="52.051" cy="379.09" r="4.9153"/>
  <circle cx="54.246" cy="366.55" r="4.9153"/>
  <circle cx="56.754" cy="348.36" r="4.9153"/>
  <circle cx="51.424" cy="333.94" r="4.9153"/>
  <circle cx="50.169" cy="316.69" r="4.9153"/>
  <circle cx="54.873" cy="299.45" r="4.9153"/>
  <circle cx="55.5" cy="285.03" r="4.9153"/>
  <circle cx="59.576" cy="264.02" r="4.9153"/>
  <circle cx="57.695" cy="248.65" r="4.9153"/>
  <circle cx="59.576" cy="232.97" r="4.9153"/>
  <circle cx="55.5" cy="213.53" r="4.9153"/>
  <circle cx="53.305" cy="199.42" r="4.9153"/>
  <circle cx="53.619" cy="180.92" r="4.9153"/>
  <circle cx="54.873" cy="163.99" r="4.9153"/>
  <circle cx="56.754" cy="146.43" r="4.9153"/>
  <circle cx="52.678" cy="126.36" r="4.9153"/>
  <circle cx="53.305" cy="110.69" r="4.9153"/>
  <circle cx="51.737" cy="88.11" r="4.9153"/>
  <circle cx="48.602" cy="71.805" r="4.9153"/>
  <circle cx="57.381" cy="54.873" r="4.9153"/>
  <circle cx="52.992" cy="31.669" r="4.9153"/>
 </g>
</svg>
