<?xml version="1.0" encoding="UTF-8"?>
<!-- Created with Inkscape (http://www.inkscape.org/) -->
<svg width="100" height="650" version="1.1" viewBox="0 0 100 650" xmlns="http://www.w3.org/2000/svg" xmlns:cc="http://creativecommons.org/ns#" xmlns:dc="http://purl.org/dc/elements/1.1/" xmlns:rdf="http://www.w3.org/1999/02/22-rdf-syntax-ns#">
 <metadata>
  <rdf:RDF>
   <cc:Work rdf:about="">
    <dc:format>image/svg+xml</dc:format>
    <dc:type rdf:resource="http://purl.org/dc/dcmitype/StillImage"/>
    <dc:title/>
   </cc:Work>
  </rdf:RDF>
 </metadata>
 <g transform="translate(-13.929 156.79)" fill="#e00000">
  <circle cx="63.486" cy="488.19" r="4.9153"/>
  <circle cx="68.208" cy="476.92" r="4.9153"/>
  <circle cx="65.796" cy="470.62" r="4.9153"/>
  <circle cx="65.394" cy="461.64" r="4.9153"/>
  <circle cx="63.518" cy="447.84" r="4.9153"/>
  <circle cx="63.384" cy="443.96" r="4.9153"/>
  <circle cx="69.012" cy="427.88" r="4.9153"/>
  <circle cx="64.724" cy="417.42" r="4.9153"/>
  <circle cx="66.064" cy="407.91" r="4.9153"/>
  <circle cx="62.982" cy="389.68" r="4.9153"/>
  <circle cx="60.302" cy="385.53" r="4.9153"/>
  <circle cx="65.394" cy="365.43" r="4.9153"/>
  <circle cx="53.602" cy="354.84" r="4.9153"/>
  <circle cx="56.684" cy="343.85" r="4.9153"/>
  <circle cx="53.468" cy="324.02" r="4.9153"/>
  <circle cx="54.004" cy="318.53" r="4.9153"/>
  <circle cx="63.25" cy="297.09" r="4.9153"/>
  <circle cx="51.458" cy="281.81" r="4.9153"/>
  <circle cx="54.674" cy="270.15" r="4.9153"/>
  <circle cx="53.2" cy="247.77" r="4.9153"/>
  <circle cx="51.592" cy="239.47" r="4.9153"/>
  <circle cx="63.786" cy="211.73" r="4.9153"/>
  <circle cx="55.21" cy="199.67" r="4.9153"/>
  <circle cx="63.786" cy="186.27" r="4.9153"/>
  <circle cx="52.53" cy="160" r="4.9153"/>
  <circle cx="49.046" cy="148.74" r="4.9153"/>
  <circle cx="52.798" cy="127.84" r="4.9153"/>
  <circle cx="37.789" cy="113.9" r="4.9153"/>
  <circle cx="42.077" cy="95.411" r="4.9153"/>
  <circle cx="37.521" cy="78.258" r="4.9153"/>
  <circle cx="35.913" cy="67.806" r="4.9153"/>
 </g>
</svg>
