<?xml version="1.0" encoding="UTF-8"?>
<!-- Created with Inkscape (http://www.inkscape.org/) -->
<svg width="100" height="650" version="1.1" viewBox="0 0 100 650" xmlns="http://www.w3.org/2000/svg" xmlns:cc="http://creativecommons.org/ns#" xmlns:dc="http://purl.org/dc/elements/1.1/" xmlns:rdf="http://www.w3.org/1999/02/22-rdf-syntax-ns#">
 <metadata>
  <rdf:RDF>
   <cc:Work rdf:about="">
    <dc:format>image/svg+xml</dc:format>
    <dc:type rdf:resource="http://purl.org/dc/dcmitype/StillImage"/>
    <dc:title/>
   </cc:Work>
  </rdf:RDF>
 </metadata>
 <g transform="translate(20.922 250.82)" fill="#e00000">
  <circle cx="28.118" cy="394.09" r="4.9153"/>
  <circle cx="24.575" cy="385.57" r="4.9153"/>
  <circle cx="27.675" cy="380.81" r="4.9153"/>
  <circle cx="26.9" cy="371.95" r="4.9153"/>
  <circle cx="26.346" cy="367.52" r="4.9153"/>
  <circle cx="30.774" cy="357.67" r="4.9153"/>
  <circle cx="29.667" cy="348.59" r="4.9153"/>
  <circle cx="36.42" cy="341.73" r="4.9153"/>
  <circle cx="33.32" cy="326.23" r="4.9153"/>
  <circle cx="36.752" cy="319.15" r="4.9153"/>
  <circle cx="42.841" cy="304.75" r="4.9153"/>
  <circle cx="38.191" cy="295.23" r="4.9153"/>
  <circle cx="43.283" cy="285.71" r="4.9153"/>
  <circle cx="43.726" cy="270" r="4.9153"/>
  <circle cx="54.132" cy="246.75" r="4.9153"/>
  <circle cx="43.726" cy="238.34" r="4.9153"/>
  <circle cx="48.043" cy="224.94" r="4.9153"/>
  <circle cx="45.055" cy="208.11" r="4.9153"/>
  <circle cx="40.294" cy="199.92" r="4.9153"/>
  <circle cx="44.501" cy="178.11" r="4.9153"/>
  <circle cx="40.405" cy="168.26" r="4.9153"/>
  <circle cx="48.154" cy="155.53" r="4.9153"/>
  <circle cx="44.39" cy="133.84" r="4.9153"/>
  <circle cx="49.261" cy="108.49" r="4.9153"/>
  <circle cx="38.302" cy="96.53" r="4.9153"/>
  <circle cx="51.586" cy="84.131" r="4.9153"/>
  <circle cx="46.162" cy="67.084" r="4.9153"/>
  <circle cx="49.815" cy="56.567" r="4.9153"/>
  <circle cx="54.464" cy="36.863" r="4.9153"/>
  <circle cx="52.471" cy="26.014" r="4.9153"/>
  <circle cx="52.582" cy="14.723" r="4.9153"/>
 </g>
</svg>
