<?xml version="1.0" encoding="UTF-8"?>
<!-- Created with Inkscape (http://www.inkscape.org/) -->
<svg width="100" height="650" version="1.1" viewBox="0 0 100 650" xmlns="http://www.w3.org/2000/svg" xmlns:cc="http://creativecommons.org/ns#" xmlns:dc="http://purl.org/dc/elements/1.1/" xmlns:rdf="http://www.w3.org/1999/02/22-rdf-syntax-ns#">
 <metadata>
  <rdf:RDF>
   <cc:Work rdf:about="">
    <dc:format>image/svg+xml</dc:format>
    <dc:type rdf:resource="http://purl.org/dc/dcmitype/StillImage"/>
    <dc:title/>
   </cc:Work>
  </rdf:RDF>
 </metadata>
 <g transform="translate(11.773 252.7)" fill="#e00000">
  <circle cx="29.822" cy="392.22" r="4.9153"/>
  <circle cx="28.201" cy="385.2" r="4.9153"/>
  <circle cx="27.661" cy="382.28" r="4.9153"/>
  <circle cx="26.689" cy="372.34" r="4.9153"/>
  <circle cx="24.852" cy="366.62" r="4.9153"/>
  <circle cx="27.985" cy="355.81" r="4.9153"/>
  <circle cx="26.797" cy="345.44" r="4.9153"/>
  <circle cx="31.335" cy="337.44" r="4.9153"/>
  <circle cx="32.307" cy="324.37" r="4.9153"/>
  <circle cx="32.415" cy="317.35" r="4.9153"/>
  <circle cx="39.006" cy="305.89" r="4.9153"/>
  <circle cx="34.9" cy="292.39" r="4.9153"/>
  <circle cx="42.248" cy="287.31" r="4.9153"/>
  <circle cx="39.871" cy="266.13" r="4.9153"/>
  <circle cx="31.875" cy="260.08" r="4.9153"/>
  <circle cx="46.138" cy="243.76" r="4.9153"/>
  <circle cx="37.386" cy="229.18" r="4.9153"/>
  <circle cx="45.165" cy="220.86" r="4.9153"/>
  <circle cx="46.138" cy="197.95" r="4.9153"/>
  <circle cx="41.383" cy="194.6" r="4.9153"/>
  <circle cx="50.136" cy="176.01" r="4.9153"/>
  <circle cx="47.981" cy="157.7" r="4.9153"/>
  <circle cx="54.552" cy="147.77" r="4.9153"/>
  <circle cx="58.067" cy="129.43" r="4.9153"/>
  <circle cx="53.941" cy="122.71" r="4.9153"/>
  <circle cx="65.554" cy="102.23" r="4.9153"/>
  <circle cx="63.721" cy="88.786" r="4.9153"/>
  <circle cx="69.527" cy="75.798" r="4.9153"/>
  <circle cx="70.902" cy="53.029" r="4.9153"/>
  <circle cx="83.127" cy="32.706" r="4.9153"/>
  <circle cx="78.237" cy="19.565" r="4.9153"/>
 </g>
</svg>
