<?xml version="1.0" encoding="UTF-8"?>
<!-- Created with Inkscape (http://www.inkscape.org/) -->
<svg width="100" height="650" version="1.1" viewBox="0 0 100 650" xmlns="http://www.w3.org/2000/svg" xmlns:cc="http://creativecommons.org/ns#" xmlns:dc="http://purl.org/dc/elements/1.1/" xmlns:rdf="http://www.w3.org/1999/02/22-rdf-syntax-ns#">
 <metadata>
  <rdf:RDF>
   <cc:Work rdf:about="">
    <dc:format>image/svg+xml</dc:format>
    <dc:type rdf:resource="http://purl.org/dc/dcmitype/StillImage"/>
    <dc:title/>
   </cc:Work>
  </rdf:RDF>
 </metadata>
 <g transform="translate(.31939 61.372)" fill="#e00000">
  <circle cx="49.345" cy="583.52" r="4.9153"/>
  <circle cx="47.429" cy="573.62" r="4.9153"/>
  <circle cx="48.387" cy="566.75" r="4.9153"/>
  <circle cx="49.824" cy="557.17" r="4.9153"/>
  <circle cx="51.581" cy="545.67" r="4.9153"/>
  <circle cx="53.497" cy="530.82" r="4.9153"/>
  <circle cx="54.934" cy="521.72" r="4.9153"/>
  <circle cx="62.919" cy="507.02" r="4.9153"/>
  <circle cx="56.212" cy="494.09" r="4.9153"/>
  <circle cx="63.079" cy="483.87" r="4.9153"/>
  <circle cx="58.767" cy="460.39" r="4.9153"/>
  <circle cx="52.379" cy="454.49" r="4.9153"/>
  <circle cx="58.927" cy="435.16" r="4.9153"/>
  <circle cx="45.033" cy="422.55" r="4.9153"/>
  <circle cx="49.984" cy="409.29" r="4.9153"/>
  <circle cx="50.463" cy="390.29" r="4.9153"/>
  <circle cx="50.463" cy="380.07" r="4.9153"/>
  <circle cx="57.968" cy="352.92" r="4.9153"/>
  <circle cx="47.109" cy="336.15" r="4.9153"/>
  <circle cx="57.649" cy="322.26" r="4.9153"/>
  <circle cx="56.691" cy="298.31" r="4.9153"/>
  <circle cx="52.06" cy="285.05" r="4.9153"/>
  <circle cx="56.531" cy="252.47" r="4.9153"/>
  <circle cx="43.117" cy="231.39" r="4.9153"/>
  <circle cx="51.261" cy="210.32" r="4.9153"/>
  <circle cx="51.261" cy="183.81" r="4.9153"/>
  <circle cx="54.296" cy="171.99" r="4.9153"/>
  <circle cx="54.615" cy="147.08" r="4.9153"/>
  <circle cx="42.478" cy="126" r="4.9153"/>
  <circle cx="51.102" cy="106.04" r="4.9153"/>
  <circle cx="46.311" cy="76.972" r="4.9153"/>
 </g>
</svg>
