<?xml version="1.0" encoding="UTF-8"?>
<!-- Created with Inkscape (http://www.inkscape.org/) -->
<svg width="100" height="650" version="1.1" viewBox="0 0 100 650" xmlns="http://www.w3.org/2000/svg" xmlns:cc="http://creativecommons.org/ns#" xmlns:dc="http://purl.org/dc/elements/1.1/" xmlns:rdf="http://www.w3.org/1999/02/22-rdf-syntax-ns#">
 <metadata>
  <rdf:RDF>
   <cc:Work rdf:about="">
    <dc:format>image/svg+xml</dc:format>
    <dc:type rdf:resource="http://purl.org/dc/dcmitype/StillImage"/>
    <dc:title/>
   </cc:Work>
  </rdf:RDF>
 </metadata>
 <g transform="translate(13.551 69.86)" fill="#e00000">
  <circle cx="35.612" cy="574.99" r="4.9153"/>
  <circle cx="37.975" cy="563.49" r="4.9153"/>
  <circle cx="39.709" cy="554.82" r="4.9153"/>
  <circle cx="35.454" cy="545.21" r="4.9153"/>
  <circle cx="35.297" cy="530.55" r="4.9153"/>
  <circle cx="35.927" cy="517.47" r="4.9153"/>
  <circle cx="38.921" cy="509.91" r="4.9153"/>
  <circle cx="45.066" cy="491.95" r="4.9153"/>
  <circle cx="45.697" cy="480.92" r="4.9153"/>
  <circle cx="54.678" cy="470.2" r="4.9153"/>
  <circle cx="49.478" cy="454.29" r="4.9153"/>
  <circle cx="47.587" cy="440.58" r="4.9153"/>
  <circle cx="47.903" cy="424.03" r="4.9153"/>
  <circle cx="46.012" cy="412.53" r="4.9153"/>
  <circle cx="57.357" cy="395.35" r="4.9153"/>
  <circle cx="53.102" cy="374.4" r="4.9153"/>
  <circle cx="57.357" cy="366.68" r="4.9153"/>
  <circle cx="60.666" cy="339.89" r="4.9153"/>
  <circle cx="58.302" cy="321.92" r="4.9153"/>
  <circle cx="67.442" cy="300.02" r="4.9153"/>
  <circle cx="57.672" cy="277.96" r="4.9153"/>
  <circle cx="64.133" cy="265.04" r="4.9153"/>
  <circle cx="69.175" cy="236.99" r="4.9153"/>
  <circle cx="60.981" cy="223.6" r="4.9153"/>
  <circle cx="66.969" cy="206.11" r="4.9153"/>
  <circle cx="61.927" cy="181.53" r="4.9153"/>
  <circle cx="68.545" cy="167.82" r="4.9153"/>
  <circle cx="66.969" cy="141.97" r="4.9153"/>
  <circle cx="60.981" cy="124.48" r="4.9153"/>
  <circle cx="68.702" cy="98.799" r="4.9153"/>
  <circle cx="63.03" cy="72.011" r="4.9153"/>
 </g>
</svg>
