<?xml version="1.0" encoding="UTF-8"?>
<!-- Created with Inkscape (http://www.inkscape.org/) -->
<svg width="100" height="650" version="1.1" viewBox="0 0 100 650" xmlns="http://www.w3.org/2000/svg" xmlns:cc="http://creativecommons.org/ns#" xmlns:dc="http://purl.org/dc/elements/1.1/" xmlns:rdf="http://www.w3.org/1999/02/22-rdf-syntax-ns#">
 <metadata>
  <rdf:RDF>
   <cc:Work rdf:about="">
    <dc:format>image/svg+xml</dc:format>
    <dc:type rdf:resource="http://purl.org/dc/dcmitype/StillImage"/>
    <dc:title/>
   </cc:Work>
  </rdf:RDF>
 </metadata>
 <g transform="translate(-9.4171 223.2)" fill="#e00000">
  <circle cx="59.025" cy="421.59" r="4.9153"/>
  <circle cx="56.503" cy="414.36" r="4.9153"/>
  <circle cx="57.848" cy="407.63" r="4.9153"/>
  <circle cx="55.325" cy="399.73" r="4.9153"/>
  <circle cx="60.37" cy="395.69" r="4.9153"/>
  <circle cx="62.052" cy="380.89" r="4.9153"/>
  <circle cx="61.716" cy="376.02" r="4.9153"/>
  <circle cx="65.247" cy="363.74" r="4.9153"/>
  <circle cx="57.343" cy="350.29" r="4.9153"/>
  <circle cx="63.061" cy="347.93" r="4.9153"/>
  <circle cx="59.193" cy="333.14" r="4.9153"/>
  <circle cx="53.308" cy="325.23" r="4.9153"/>
  <circle cx="56.671" cy="311.78" r="4.9153"/>
  <circle cx="47.086" cy="298.49" r="4.9153"/>
  <circle cx="52.13" cy="291.43" r="4.9153"/>
  <circle cx="51.458" cy="273.27" r="4.9153"/>
  <circle cx="48.263" cy="270.24" r="4.9153"/>
  <circle cx="56.671" cy="247.37" r="4.9153"/>
  <circle cx="47.422" cy="237.96" r="4.9153"/>
  <circle cx="54.485" cy="224.33" r="4.9153"/>
  <circle cx="52.803" cy="207.85" r="4.9153"/>
  <circle cx="50.281" cy="196.25" r="4.9153"/>
  <circle cx="52.803" cy="179.6" r="4.9153"/>
  <circle cx="50.953" cy="168.84" r="4.9153"/>
  <circle cx="57.512" cy="157.57" r="4.9153"/>
  <circle cx="56.503" cy="136.22" r="4.9153"/>
  <circle cx="60.37" cy="122.93" r="4.9153"/>
  <circle cx="64.07" cy="109.48" r="4.9153"/>
  <circle cx="60.202" cy="96.868" r="4.9153"/>
  <circle cx="74.328" cy="88.123" r="4.9153"/>
  <circle cx="68.947" cy="64.58" r="4.9153"/>
 </g>
</svg>
