<?xml version="1.0" encoding="UTF-8"?>
<!-- Created with Inkscape (http://www.inkscape.org/) -->
<svg width="100" height="650" version="1.1" viewBox="0 0 100 650" xmlns="http://www.w3.org/2000/svg" xmlns:cc="http://creativecommons.org/ns#" xmlns:dc="http://purl.org/dc/elements/1.1/" xmlns:rdf="http://www.w3.org/1999/02/22-rdf-syntax-ns#">
 <metadata>
  <rdf:RDF>
   <cc:Work rdf:about="">
    <dc:format>image/svg+xml</dc:format>
    <dc:type rdf:resource="http://purl.org/dc/dcmitype/StillImage"/>
    <dc:title/>
   </cc:Work>
  </rdf:RDF>
 </metadata>
 <g transform="translate(-2.4045 234.34)" fill="#e00000">
  <circle cx="52.257" cy="410.37" r="4.9153"/>
  <circle cx="51.936" cy="401.55" r="4.9153"/>
  <circle cx="51.295" cy="392.73" r="4.9153"/>
  <circle cx="45.204" cy="386" r="4.9153"/>
  <circle cx="50.814" cy="376.38" r="4.9153"/>
  <circle cx="40.074" cy="365.8" r="4.9153"/>
  <circle cx="46.005" cy="363.24" r="4.9153"/>
  <circle cx="45.845" cy="346.41" r="4.9153"/>
  <circle cx="42.479" cy="343.36" r="4.9153"/>
  <circle cx="53.379" cy="327.97" r="4.9153"/>
  <circle cx="47.769" cy="317.23" r="4.9153"/>
  <circle cx="51.936" cy="308.1" r="4.9153"/>
  <circle cx="52.578" cy="295.75" r="4.9153"/>
  <circle cx="47.929" cy="287.58" r="4.9153"/>
  <circle cx="53.058" cy="269.79" r="4.9153"/>
  <circle cx="50.814" cy="257.44" r="4.9153"/>
  <circle cx="56.264" cy="248.63" r="4.9153"/>
  <circle cx="56.104" cy="234.04" r="4.9153"/>
  <circle cx="55.944" cy="222.98" r="4.9153"/>
  <circle cx="60.112" cy="206.63" r="4.9153"/>
  <circle cx="51.776" cy="195.09" r="4.9153"/>
  <circle cx="57.387" cy="183.07" r="4.9153"/>
  <circle cx="57.867" cy="165.75" r="4.9153"/>
  <circle cx="52.898" cy="161.59" r="4.9153"/>
  <circle cx="55.944" cy="143.15" r="4.9153"/>
  <circle cx="48.73" cy="131.93" r="4.9153"/>
  <circle cx="50.975" cy="122.47" r="4.9153"/>
  <circle cx="43.601" cy="96.024" r="4.9153"/>
  <circle cx="49.532" cy="76.468" r="4.9153"/>
  <circle cx="44.563" cy="63.804" r="4.9153"/>
  <circle cx="48.059" cy="53.047" r="4.9153"/>
 </g>
</svg>
