<?xml version="1.0" encoding="UTF-8"?>
<!-- Created with Inkscape (http://www.inkscape.org/) -->
<svg width="100" height="650" version="1.1" viewBox="0 0 100 650" xmlns="http://www.w3.org/2000/svg" xmlns:cc="http://creativecommons.org/ns#" xmlns:dc="http://purl.org/dc/elements/1.1/" xmlns:rdf="http://www.w3.org/1999/02/22-rdf-syntax-ns#">
 <metadata>
  <rdf:RDF>
   <cc:Work rdf:about="">
    <dc:format>image/svg+xml</dc:format>
    <dc:type rdf:resource="http://purl.org/dc/dcmitype/StillImage"/>
    <dc:title/>
   </cc:Work>
  </rdf:RDF>
 </metadata>
 <g transform="translate(11.402 154.68)" fill="#e00000">
  <circle cx="39.083" cy="490.31" r="4.9153"/>
  <circle cx="42.636" cy="481.29" r="4.9153"/>
  <circle cx="39.903" cy="477.19" r="4.9153"/>
  <circle cx="46.735" cy="470.63" r="4.9153"/>
  <circle cx="43.456" cy="458.88" r="4.9153"/>
  <circle cx="41.816" cy="452.32" r="4.9153"/>
  <circle cx="44.275" cy="436.19" r="4.9153"/>
  <circle cx="39.083" cy="423.9" r="4.9153"/>
  <circle cx="50.835" cy="414.33" r="4.9153"/>
  <circle cx="44.549" cy="394.93" r="4.9153"/>
  <circle cx="42.909" cy="385.63" r="4.9153"/>
  <circle cx="47.282" cy="372.51" r="4.9153"/>
  <circle cx="44.822" cy="361.04" r="4.9153"/>
  <circle cx="51.655" cy="353.66" r="4.9153"/>
  <circle cx="44.002" cy="334.25" r="4.9153"/>
  <circle cx="45.642" cy="321.13" r="4.9153"/>
  <circle cx="51.381" cy="303.1" r="4.9153"/>
  <circle cx="48.102" cy="290.8" r="4.9153"/>
  <circle cx="57.121" cy="277.13" r="4.9153"/>
  <circle cx="50.015" cy="259.09" r="4.9153"/>
  <circle cx="49.195" cy="244.33" r="4.9153"/>
  <circle cx="55.754" cy="227.12" r="4.9153"/>
  <circle cx="51.381" cy="208.81" r="4.9153"/>
  <circle cx="62.04" cy="189.95" r="4.9153"/>
  <circle cx="56.574" cy="166.72" r="4.9153"/>
  <circle cx="54.934" cy="157.42" r="4.9153"/>
  <circle cx="57.941" cy="129.82" r="4.9153"/>
  <circle cx="50.835" cy="113.97" r="4.9153"/>
  <circle cx="59.034" cy="96.75" r="4.9153"/>
  <circle cx="50.015" cy="72.426" r="4.9153"/>
  <circle cx="52.201" cy="61.767" r="4.9153"/>
 </g>
</svg>
