<?xml version="1.0" encoding="UTF-8"?>
<!-- Created with Inkscape (http://www.inkscape.org/) -->
<svg width="100" height="650" version="1.1" viewBox="0 0 100 650" xmlns="http://www.w3.org/2000/svg" xmlns:cc="http://creativecommons.org/ns#" xmlns:dc="http://purl.org/dc/elements/1.1/" xmlns:rdf="http://www.w3.org/1999/02/22-rdf-syntax-ns#">
 <metadata>
  <rdf:RDF>
   <cc:Work rdf:about="">
    <dc:format>image/svg+xml</dc:format>
    <dc:type rdf:resource="http://purl.org/dc/dcmitype/StillImage"/>
    <dc:title/>
   </cc:Work>
  </rdf:RDF>
 </metadata>
 <g transform="translate(-9.1949 95.932)" fill="#e00000">
  <circle cx="59.355" cy="548.88" r="4.9153"/>
  <circle cx="58.306" cy="538.19" r="4.9153"/>
  <circle cx="58.516" cy="533.36" r="4.9153"/>
  <circle cx="57.572" cy="523.51" r="4.9153"/>
  <circle cx="56.943" cy="511.55" r="4.9153"/>
  <circle cx="52.748" cy="501.9" r="4.9153"/>
  <circle cx="50.546" cy="491.31" r="4.9153"/>
  <circle cx="51.175" cy="478.83" r="4.9153"/>
  <circle cx="52.434" cy="466.46" r="4.9153"/>
  <circle cx="50.861" cy="451.88" r="4.9153"/>
  <circle cx="50.861" cy="438.67" r="4.9153"/>
  <circle cx="54.951" cy="426.19" r="4.9153"/>
  <circle cx="55.894" cy="414.02" r="4.9153"/>
  <circle cx="53.273" cy="401.96" r="4.9153"/>
  <circle cx="52.853" cy="388.44" r="4.9153"/>
  <circle cx="52.329" cy="374.7" r="4.9153"/>
  <circle cx="53.902" cy="360.23" r="4.9153"/>
  <circle cx="55.894" cy="346.07" r="4.9153"/>
  <circle cx="57.677" cy="332.23" r="4.9153"/>
  <circle cx="59.145" cy="317.65" r="4.9153"/>
  <circle cx="60.194" cy="302.13" r="4.9153"/>
  <circle cx="55.475" cy="287.13" r="4.9153"/>
  <circle cx="53.273" cy="272.66" r="4.9153"/>
  <circle cx="47.924" cy="258.82" r="4.9153"/>
  <circle cx="45.198" cy="243.3" r="4.9153"/>
  <circle cx="41.423" cy="228.51" r="4.9153"/>
  <circle cx="39.85" cy="213.1" r="4.9153"/>
  <circle cx="37.438" cy="199.26" r="4.9153"/>
  <circle cx="35.655" cy="185.31" r="4.9153"/>
  <circle cx="32.089" cy="172.3" r="4.9153"/>
  <circle cx="33.033" cy="160.04" r="4.9153"/>
  <circle cx="31.67" cy="143.26" r="4.9153"/>
  <circle cx="30.516" cy="128.16" r="4.9153"/>
  <circle cx="34.082" cy="113.26" r="4.9153"/>
  <circle cx="35.655" cy="97.429" r="4.9153"/>
  <circle cx="34.816" cy="82.748" r="4.9153"/>
  <circle cx="35.026" cy="67.123" r="4.9153"/>
  <circle cx="28.734" cy="51.602" r="4.9153"/>
  <circle cx="27.056" cy="36.816" r="4.9153"/>
 </g>
</svg>
