<?xml version="1.0" encoding="UTF-8"?>
<!-- Created with Inkscape (http://www.inkscape.org/) -->
<svg width="102" height="622" version="1.1" viewBox="0 0 102 622" xmlns="http://www.w3.org/2000/svg" xmlns:cc="http://creativecommons.org/ns#" xmlns:dc="http://purl.org/dc/elements/1.1/" xmlns:rdf="http://www.w3.org/1999/02/22-rdf-syntax-ns#">
 <metadata>
  <rdf:RDF>
   <cc:Work rdf:about="">
    <dc:format>image/svg+xml</dc:format>
    <dc:type rdf:resource="http://purl.org/dc/dcmitype/StillImage"/>
    <dc:title/>
   </cc:Work>
  </rdf:RDF>
 </metadata>
 <g transform="translate(-12.23 24.227)" fill="#e00000">
  <circle cx="61.85" cy="592.76" r="4.9153"/>
  <circle cx="60.336" cy="571.57" r="4.9153"/>
  <circle cx="59.986" cy="563.64" r="4.9153"/>
  <circle cx="59.753" cy="550.6" r="4.9153"/>
  <circle cx="59.87" cy="539.65" r="4.9153"/>
  <circle cx="58.472" cy="526.37" r="4.9153"/>
  <circle cx="57.773" cy="511.58" r="4.9153"/>
  <circle cx="61.617" cy="500.16" r="4.9153"/>
  <circle cx="62.782" cy="487.12" r="4.9153"/>
  <circle cx="62.316" cy="473.14" r="4.9153"/>
  <circle cx="62.316" cy="459.63" r="4.9153"/>
  <circle cx="59.171" cy="447.05" r="4.9153"/>
  <circle cx="58.705" cy="432.72" r="4.9153"/>
  <circle cx="54.628" cy="417.23" r="4.9153"/>
  <circle cx="54.279" cy="401.86" r="4.9153"/>
  <circle cx="56.725" cy="385.78" r="4.9153"/>
  <circle cx="58.355" cy="372.97" r="4.9153"/>
  <circle cx="61.384" cy="356.43" r="4.9153"/>
  <circle cx="62.665" cy="341.29" r="4.9153"/>
  <circle cx="60.452" cy="328.48" r="4.9153"/>
  <circle cx="59.171" cy="313.45" r="4.9153"/>
  <circle cx="61.151" cy="300.06" r="4.9153"/>
  <circle cx="61.617" cy="283.86" r="4.9153"/>
  <circle cx="58.705" cy="269.65" r="4.9153"/>
  <circle cx="56.958" cy="256.14" r="4.9153"/>
  <circle cx="54.395" cy="237.74" r="4.9153"/>
  <circle cx="54.512" cy="221.78" r="4.9153"/>
  <circle cx="48.921" cy="206.17" r="4.9153"/>
  <circle cx="46.358" cy="192.43" r="4.9153"/>
  <circle cx="43.33" cy="176.59" r="4.9153"/>
  <circle cx="41.583" cy="162.61" r="4.9153"/>
  <circle cx="37.972" cy="148.28" r="4.9153"/>
  <circle cx="37.04" cy="134.42" r="4.9153"/>
  <circle cx="31.566" cy="120.91" r="4.9153"/>
  <circle cx="31.1" cy="106.47" r="4.9153"/>
  <circle cx="34.361" cy="87.6" r="4.9153"/>
  <circle cx="35.526" cy="71.992" r="4.9153"/>
  <circle cx="32.73" cy="54.636" r="4.9153"/>
  <circle cx="32.264" cy="39.494" r="4.9153"/>
 </g>
</svg>
