<?xml version="1.0" encoding="UTF-8"?>
<!-- Created with Inkscape (http://www.inkscape.org/) -->
<svg width="100" height="650" version="1.1" viewBox="0 0 100 650" xmlns="http://www.w3.org/2000/svg" xmlns:cc="http://creativecommons.org/ns#" xmlns:dc="http://purl.org/dc/elements/1.1/" xmlns:rdf="http://www.w3.org/1999/02/22-rdf-syntax-ns#">
 <metadata>
  <rdf:RDF>
   <cc:Work rdf:about="">
    <dc:format>image/svg+xml</dc:format>
    <dc:type rdf:resource="http://purl.org/dc/dcmitype/StillImage"/>
    <dc:title/>
   </cc:Work>
  </rdf:RDF>
 </metadata>
 <g transform="translate(-.55826 141.42)" fill="#e00000">
  <circle cx="50.331" cy="503.51" r="4.9153"/>
  <circle cx="51.12" cy="489.7" r="4.9153"/>
  <circle cx="51.515" cy="482.79" r="4.9153"/>
  <circle cx="49.147" cy="473.31" r="4.9153"/>
  <circle cx="49.739" cy="462.06" r="4.9153"/>
  <circle cx="48.16" cy="451.21" r="4.9153"/>
  <circle cx="47.765" cy="441.14" r="4.9153"/>
  <circle cx="53.291" cy="429.89" r="4.9153"/>
  <circle cx="54.081" cy="418.44" r="4.9153"/>
  <circle cx="52.897" cy="406.8" r="4.9153"/>
  <circle cx="52.897" cy="396.34" r="4.9153"/>
  <circle cx="49.739" cy="386.67" r="4.9153"/>
  <circle cx="47.765" cy="374.82" r="4.9153"/>
  <circle cx="45.594" cy="362.59" r="4.9153"/>
  <circle cx="43.423" cy="348.57" r="4.9153"/>
  <circle cx="41.054" cy="334.95" r="4.9153"/>
  <circle cx="39.278" cy="320.94" r="4.9153"/>
  <circle cx="35.33" cy="308.11" r="4.9153"/>
  <circle cx="33.356" cy="299.23" r="4.9153"/>
  <circle cx="31.58" cy="285.02" r="4.9153"/>
  <circle cx="30.001" cy="271.4" r="4.9153"/>
  <circle cx="27.83" cy="259.75" r="4.9153"/>
  <circle cx="27.83" cy="247.91" r="4.9153"/>
  <circle cx="27.04" cy="236.66" r="4.9153"/>
  <circle cx="29.014" cy="223.04" r="4.9153"/>
  <circle cx="26.448" cy="208.24" r="4.9153"/>
  <circle cx="26.448" cy="195.8" r="4.9153"/>
  <circle cx="24.277" cy="181.99" r="4.9153"/>
  <circle cx="24.475" cy="167.78" r="4.9153"/>
  <circle cx="22.698" cy="153.96" r="4.9153"/>
  <circle cx="21.909" cy="140.74" r="4.9153"/>
  <circle cx="18.751" cy="126.92" r="4.9153"/>
  <circle cx="17.961" cy="112.51" r="4.9153"/>
  <circle cx="22.106" cy="98.892" r="4.9153"/>
  <circle cx="24.869" cy="87.05" r="4.9153"/>
  <circle cx="27.04" cy="73.431" r="4.9153"/>
  <circle cx="28.225" cy="60.207" r="4.9153"/>
  <circle cx="29.409" cy="47.574" r="4.9153"/>
  <circle cx="30.988" cy="33.956" r="4.9153"/>
 </g>
</svg>
