<?xml version="1.0" encoding="UTF-8"?>
<!-- Created with Inkscape (http://www.inkscape.org/) -->
<svg width="100" height="650" version="1.1" viewBox="0 0 100 650" xmlns="http://www.w3.org/2000/svg" xmlns:cc="http://creativecommons.org/ns#" xmlns:dc="http://purl.org/dc/elements/1.1/" xmlns:rdf="http://www.w3.org/1999/02/22-rdf-syntax-ns#">
 <metadata>
  <rdf:RDF>
   <cc:Work rdf:about="">
    <dc:format>image/svg+xml</dc:format>
    <dc:type rdf:resource="http://purl.org/dc/dcmitype/StillImage"/>
    <dc:title/>
   </cc:Work>
  </rdf:RDF>
 </metadata>
 <g transform="translate(-1.4966 -2.1564)" fill="#e00000">
  <circle cx="51.502" cy="647.13" r="4.9153"/>
  <circle cx="50.444" cy="625.79" r="4.9153"/>
  <circle cx="49.562" cy="617.14" r="4.9153"/>
  <circle cx="44.976" cy="606.21" r="4.9153"/>
  <circle cx="43.742" cy="592.1" r="4.9153"/>
  <circle cx="45.329" cy="578.69" r="4.9153"/>
  <circle cx="45.682" cy="565.47" r="4.9153"/>
  <circle cx="48.856" cy="553.65" r="4.9153"/>
  <circle cx="50.62" cy="541.65" r="4.9153"/>
  <circle cx="55.206" cy="526.66" r="4.9153"/>
  <circle cx="55.912" cy="511.14" r="4.9153"/>
  <circle cx="55.206" cy="498.62" r="4.9153"/>
  <circle cx="53.971" cy="485.21" r="4.9153"/>
  <circle cx="59.086" cy="471.46" r="4.9153"/>
  <circle cx="61.732" cy="456.46" r="4.9153"/>
  <circle cx="59.263" cy="442.18" r="4.9153"/>
  <circle cx="58.734" cy="425.95" r="4.9153"/>
  <circle cx="61.379" cy="410.96" r="4.9153"/>
  <circle cx="62.261" cy="395.97" r="4.9153"/>
  <circle cx="64.201" cy="382.21" r="4.9153"/>
  <circle cx="65.612" cy="364.92" r="4.9153"/>
  <circle cx="67.905" cy="349.4" r="4.9153"/>
  <circle cx="68.434" cy="330.35" r="4.9153"/>
  <circle cx="66.847" cy="311.13" r="4.9153"/>
  <circle cx="67.023" cy="296.14" r="4.9153"/>
  <circle cx="64.73" cy="278.68" r="4.9153"/>
  <circle cx="63.672" cy="263.33" r="4.9153"/>
  <circle cx="61.203" cy="246.4" r="4.9153"/>
  <circle cx="59.968" cy="230" r="4.9153"/>
  <circle cx="56.441" cy="212.71" r="4.9153"/>
  <circle cx="56.617" cy="192.78" r="4.9153"/>
  <circle cx="51.678" cy="172.32" r="4.9153"/>
  <circle cx="50.091" cy="150.1" r="4.9153"/>
  <circle cx="44.623" cy="131.93" r="4.9153"/>
  <circle cx="44.976" cy="117.11" r="4.9153"/>
  <circle cx="46.74" cy="100.53" r="4.9153"/>
  <circle cx="47.445" cy="83.603" r="4.9153"/>
  <circle cx="50.267" cy="64.554" r="4.9153"/>
  <circle cx="50.797" cy="43.918" r="4.9153"/>
 </g>
</svg>
