<?xml version="1.0" encoding="UTF-8"?>
<!-- Created with Inkscape (http://www.inkscape.org/) -->
<svg width="100" height="650" version="1.1" viewBox="0 0 100 650" xmlns="http://www.w3.org/2000/svg" xmlns:cc="http://creativecommons.org/ns#" xmlns:dc="http://purl.org/dc/elements/1.1/" xmlns:rdf="http://www.w3.org/1999/02/22-rdf-syntax-ns#">
 <metadata>
  <rdf:RDF>
   <cc:Work rdf:about="">
    <dc:format>image/svg+xml</dc:format>
    <dc:type rdf:resource="http://purl.org/dc/dcmitype/StillImage"/>
    <dc:title/>
   </cc:Work>
  </rdf:RDF>
 </metadata>
 <g transform="translate(4.8302 84.545)" fill="#e00000">
  <circle cx="45.577" cy="560.37" r="4.9153"/>
  <circle cx="43.898" cy="545.48" r="4.9153"/>
  <circle cx="43.786" cy="538.31" r="4.9153"/>
  <circle cx="39.978" cy="527.45" r="4.9153"/>
  <circle cx="38.41" cy="515.92" r="4.9153"/>
  <circle cx="32.587" cy="504.61" r="4.9153"/>
  <circle cx="29.676" cy="494.53" r="4.9153"/>
  <circle cx="32.027" cy="482.66" r="4.9153"/>
  <circle cx="32.699" cy="471.35" r="4.9153"/>
  <circle cx="35.387" cy="458.92" r="4.9153"/>
  <circle cx="37.962" cy="447.49" r="4.9153"/>
  <circle cx="40.874" cy="435.29" r="4.9153"/>
  <circle cx="43.674" cy="424.31" r="4.9153"/>
  <circle cx="41.994" cy="410.43" r="4.9153"/>
  <circle cx="39.53" cy="397.66" r="4.9153"/>
  <circle cx="38.522" cy="385.79" r="4.9153"/>
  <circle cx="37.514" cy="371.79" r="4.9153"/>
  <circle cx="34.827" cy="357.24" r="4.9153"/>
  <circle cx="33.371" cy="343.57" r="4.9153"/>
  <circle cx="38.074" cy="329.46" r="4.9153"/>
  <circle cx="40.986" cy="315.02" r="4.9153"/>
  <circle cx="38.858" cy="299.56" r="4.9153"/>
  <circle cx="37.514" cy="287.02" r="4.9153"/>
  <circle cx="43.786" cy="273.25" r="4.9153"/>
  <circle cx="45.465" cy="259.14" r="4.9153"/>
  <circle cx="42.666" cy="245.81" r="4.9153"/>
  <circle cx="41.658" cy="232.26" r="4.9153"/>
  <circle cx="35.947" cy="219.16" r="4.9153"/>
  <circle cx="33.035" cy="204.15" r="4.9153"/>
  <circle cx="34.379" cy="187.69" r="4.9153"/>
  <circle cx="36.619" cy="173.81" r="4.9153"/>
  <circle cx="39.306" cy="157.23" r="4.9153"/>
  <circle cx="39.754" cy="140.55" r="4.9153"/>
  <circle cx="42.442" cy="123.75" r="4.9153"/>
  <circle cx="42.778" cy="109.42" r="4.9153"/>
  <circle cx="40.202" cy="94.186" r="4.9153"/>
  <circle cx="38.97" cy="75.037" r="4.9153"/>
  <circle cx="40.314" cy="56.896" r="4.9153"/>
  <circle cx="41.322" cy="37.858" r="4.9153"/>
 </g>
</svg>
