<?xml version="1.0" encoding="UTF-8"?>
<!-- Created with Inkscape (http://www.inkscape.org/) -->
<svg width="100" height="650" version="1.1" viewBox="0 0 100 650" xmlns="http://www.w3.org/2000/svg" xmlns:cc="http://creativecommons.org/ns#" xmlns:dc="http://purl.org/dc/elements/1.1/" xmlns:rdf="http://www.w3.org/1999/02/22-rdf-syntax-ns#">
 <metadata>
  <rdf:RDF>
   <cc:Work rdf:about="">
    <dc:format>image/svg+xml</dc:format>
    <dc:type rdf:resource="http://purl.org/dc/dcmitype/StillImage"/>
    <dc:title/>
   </cc:Work>
  </rdf:RDF>
 </metadata>
 <g transform="translate(15.667 80.445)" fill="#e00000">
  <circle cx="33.946" cy="564.33" r="4.9153"/>
  <circle cx="33.946" cy="545.44" r="4.9153"/>
  <circle cx="33.485" cy="538.83" r="4.9153"/>
  <circle cx="33.332" cy="528.08" r="4.9153"/>
  <circle cx="33.485" cy="517.64" r="4.9153"/>
  <circle cx="35.175" cy="504.58" r="4.9153"/>
  <circle cx="35.328" cy="492.29" r="4.9153"/>
  <circle cx="33.792" cy="480.47" r="4.9153"/>
  <circle cx="33.332" cy="469.1" r="4.9153"/>
  <circle cx="36.711" cy="458.19" r="4.9153"/>
  <circle cx="39.168" cy="444.98" r="4.9153"/>
  <circle cx="38.093" cy="431.01" r="4.9153"/>
  <circle cx="36.711" cy="417.03" r="4.9153"/>
  <circle cx="39.168" cy="402.9" r="4.9153"/>
  <circle cx="40.704" cy="389.23" r="4.9153"/>
  <circle cx="43.316" cy="377.4" r="4.9153"/>
  <circle cx="44.852" cy="363.58" r="4.9153"/>
  <circle cx="47.156" cy="350.52" r="4.9153"/>
  <circle cx="49.613" cy="336.23" r="4.9153"/>
  <circle cx="47.924" cy="321.33" r="4.9153"/>
  <circle cx="48.538" cy="306.13" r="4.9153"/>
  <circle cx="48.845" cy="290.46" r="4.9153"/>
  <circle cx="50.842" cy="277.56" r="4.9153"/>
  <circle cx="49.306" cy="261.43" r="4.9153"/>
  <circle cx="47.924" cy="246.38" r="4.9153"/>
  <circle cx="44.544" cy="234.55" r="4.9153"/>
  <circle cx="43.008" cy="218.73" r="4.9153"/>
  <circle cx="40.244" cy="204.6" r="4.9153"/>
  <circle cx="39.322" cy="188.47" r="4.9153"/>
  <circle cx="41.472" cy="173.57" r="4.9153"/>
  <circle cx="43.93" cy="158.36" r="4.9153"/>
  <circle cx="40.551" cy="143.46" r="4.9153"/>
  <circle cx="38.247" cy="126.57" r="4.9153"/>
  <circle cx="39.322" cy="112.74" r="4.9153"/>
  <circle cx="39.936" cy="94.619" r="4.9153"/>
  <circle cx="42.394" cy="82.638" r="4.9153"/>
  <circle cx="43.162" cy="66.356" r="4.9153"/>
  <circle cx="41.319" cy="50.381" r="4.9153"/>
  <circle cx="41.933" cy="35.482" r="4.9153"/>
 </g>
</svg>
