<?xml version="1.0" encoding="UTF-8"?>
<!-- Created with Inkscape (http://www.inkscape.org/) -->
<svg width="100" height="650" version="1.1" viewBox="0 0 100 650" xmlns="http://www.w3.org/2000/svg" xmlns:cc="http://creativecommons.org/ns#" xmlns:dc="http://purl.org/dc/elements/1.1/" xmlns:rdf="http://www.w3.org/1999/02/22-rdf-syntax-ns#">
 <metadata>
  <rdf:RDF>
   <cc:Work rdf:about="">
    <dc:format>image/svg+xml</dc:format>
    <dc:type rdf:resource="http://purl.org/dc/dcmitype/StillImage"/>
    <dc:title/>
   </cc:Work>
  </rdf:RDF>
 </metadata>
 <g transform="translate(28.496 77.942)" fill="#e00000">
  <circle cx="21.053" cy="567.09" r="4.9153"/>
  <circle cx="22.173" cy="546.49" r="4.9153"/>
  <circle cx="24.412" cy="538.42" r="4.9153"/>
  <circle cx="27.996" cy="525.66" r="4.9153"/>
  <circle cx="29.116" cy="512.67" r="4.9153"/>
  <circle cx="28.668" cy="498.78" r="4.9153"/>
  <circle cx="28.444" cy="488.26" r="4.9153"/>
  <circle cx="30.46" cy="475.27" r="4.9153"/>
  <circle cx="30.907" cy="463.84" r="4.9153"/>
  <circle cx="34.267" cy="452.2" r="4.9153"/>
  <circle cx="34.715" cy="438.76" r="4.9153"/>
  <circle cx="34.043" cy="425.77" r="4.9153"/>
  <circle cx="33.371" cy="411.44" r="4.9153"/>
  <circle cx="38.522" cy="397.77" r="4.9153"/>
  <circle cx="40.314" cy="382.32" r="4.9153"/>
  <circle cx="43.898" cy="367.54" r="4.9153"/>
  <circle cx="44.569" cy="353.65" r="4.9153"/>
  <circle cx="47.033" cy="338.2" r="4.9153"/>
  <circle cx="47.257" cy="325.88" r="4.9153"/>
  <circle cx="51.064" cy="312.67" r="4.9153"/>
  <circle cx="51.064" cy="299.45" r="4.9153"/>
  <circle cx="49.273" cy="285.34" r="4.9153"/>
  <circle cx="48.825" cy="269.89" r="4.9153"/>
  <circle cx="45.913" cy="256" r="4.9153"/>
  <circle cx="45.465" cy="241" r="4.9153"/>
  <circle cx="46.809" cy="224.65" r="4.9153"/>
  <circle cx="49.273" cy="211.21" r="4.9153"/>
  <circle cx="43.898" cy="196.2" r="4.9153"/>
  <circle cx="43.226" cy="181.87" r="4.9153"/>
  <circle cx="45.017" cy="166.86" r="4.9153"/>
  <circle cx="46.137" cy="150.96" r="4.9153"/>
  <circle cx="43.898" cy="137.3" r="4.9153"/>
  <circle cx="42.778" cy="120.95" r="4.9153"/>
  <circle cx="37.403" cy="107.51" r="4.9153"/>
  <circle cx="35.835" cy="92.282" r="4.9153"/>
  <circle cx="36.955" cy="77.948" r="4.9153"/>
  <circle cx="39.866" cy="64.286" r="4.9153"/>
  <circle cx="41.21" cy="49.281" r="4.9153"/>
  <circle cx="43.002" cy="34.723" r="4.9153"/>
 </g>
</svg>
