<?xml version="1.0" encoding="UTF-8"?>
<!-- Created with Inkscape (http://www.inkscape.org/) -->
<svg width="100" height="650" version="1.1" viewBox="0 0 100 650" xmlns="http://www.w3.org/2000/svg" xmlns:cc="http://creativecommons.org/ns#" xmlns:dc="http://purl.org/dc/elements/1.1/" xmlns:rdf="http://www.w3.org/1999/02/22-rdf-syntax-ns#">
 <metadata>
  <rdf:RDF>
   <cc:Work rdf:about="">
    <dc:format>image/svg+xml</dc:format>
    <dc:type rdf:resource="http://purl.org/dc/dcmitype/StillImage"/>
    <dc:title/>
   </cc:Work>
  </rdf:RDF>
 </metadata>
 <g transform="translate(-1.3178 39.201)" fill="#e00000">
  <circle cx="51.229" cy="605.69" r="4.9153"/>
  <circle cx="53.206" cy="593.67" r="4.9153"/>
  <circle cx="53.535" cy="585.43" r="4.9153"/>
  <circle cx="55.183" cy="574.07" r="4.9153"/>
  <circle cx="55.677" cy="559.57" r="4.9153"/>
  <circle cx="52.053" cy="546.39" r="4.9153"/>
  <circle cx="51.724" cy="532.72" r="4.9153"/>
  <circle cx="47.935" cy="518.72" r="4.9153"/>
  <circle cx="46.288" cy="504.06" r="4.9153"/>
  <circle cx="40.687" cy="490.55" r="4.9153"/>
  <circle cx="38.875" cy="476.55" r="4.9153"/>
  <circle cx="41.181" cy="463.53" r="4.9153"/>
  <circle cx="41.346" cy="448.05" r="4.9153"/>
  <circle cx="35.581" cy="435.37" r="4.9153"/>
  <circle cx="33.274" cy="418.57" r="4.9153"/>
  <circle cx="34.757" cy="402.09" r="4.9153"/>
  <circle cx="36.898" cy="385.29" r="4.9153"/>
  <circle cx="34.098" cy="368.65" r="4.9153"/>
  <circle cx="32.78" cy="353" r="4.9153"/>
  <circle cx="33.604" cy="338.51" r="4.9153"/>
  <circle cx="33.769" cy="320.88" r="4.9153"/>
  <circle cx="33.604" cy="304.41" r="4.9153"/>
  <circle cx="32.78" cy="287.94" r="4.9153"/>
  <circle cx="29.65" cy="273.77" r="4.9153"/>
  <circle cx="28.992" cy="258.62" r="4.9153"/>
  <circle cx="24.379" cy="243.13" r="4.9153"/>
  <circle cx="22.732" cy="227.32" r="4.9153"/>
  <circle cx="19.932" cy="210.68" r="4.9153"/>
  <circle cx="18.12" cy="195.69" r="4.9153"/>
  <circle cx="22.897" cy="180.04" r="4.9153"/>
  <circle cx="24.05" cy="164.23" r="4.9153"/>
  <circle cx="26.85" cy="146.77" r="4.9153"/>
  <circle cx="28.168" cy="129.31" r="4.9153"/>
  <circle cx="30.639" cy="112.51" r="4.9153"/>
  <circle cx="31.957" cy="96.034" r="4.9153"/>
  <circle cx="32.78" cy="80.715" r="4.9153"/>
  <circle cx="34.922" cy="65.725" r="4.9153"/>
  <circle cx="37.063" cy="47.77" r="4.9153"/>
  <circle cx="38.051" cy="29.486" r="4.9153"/>
 </g>
</svg>
