<?xml version="1.0" encoding="UTF-8"?>
<!-- Created with Inkscape (http://www.inkscape.org/) -->
<svg width="100" height="650" version="1.1" viewBox="0 0 100 650" xmlns="http://www.w3.org/2000/svg" xmlns:cc="http://creativecommons.org/ns#" xmlns:dc="http://purl.org/dc/elements/1.1/" xmlns:rdf="http://www.w3.org/1999/02/22-rdf-syntax-ns#">
 <metadata>
  <rdf:RDF>
   <cc:Work rdf:about="">
    <dc:format>image/svg+xml</dc:format>
    <dc:type rdf:resource="http://purl.org/dc/dcmitype/StillImage"/>
    <dc:title/>
   </cc:Work>
  </rdf:RDF>
 </metadata>
 <g transform="translate(13.843 179.17)" fill="#e00000">
  <circle cx="35.595" cy="465.62" r="4.9153"/>
  <circle cx="34.516" cy="450.7" r="4.9153"/>
  <circle cx="34.876" cy="444.05" r="4.9153"/>
  <circle cx="32.359" cy="435.06" r="4.9153"/>
  <circle cx="32.179" cy="426.25" r="4.9153"/>
  <circle cx="32" cy="415.82" r="4.9153"/>
  <circle cx="33.977" cy="405.75" r="4.9153"/>
  <circle cx="37.213" cy="394.07" r="4.9153"/>
  <circle cx="39.55" cy="385.26" r="4.9153"/>
  <circle cx="36.674" cy="374.83" r="4.9153"/>
  <circle cx="34.337" cy="364.41" r="4.9153"/>
  <circle cx="37.752" cy="354.16" r="4.9153"/>
  <circle cx="40.269" cy="342.47" r="4.9153"/>
  <circle cx="42.966" cy="332.23" r="4.9153"/>
  <circle cx="45.483" cy="322.7" r="4.9153"/>
  <circle cx="47.64" cy="311.55" r="4.9153"/>
  <circle cx="49.258" cy="300.59" r="4.9153"/>
  <circle cx="47.46" cy="289.8" r="4.9153"/>
  <circle cx="47.28" cy="279.19" r="4.9153"/>
  <circle cx="48.718" cy="264.99" r="4.9153"/>
  <circle cx="49.797" cy="254.56" r="4.9153"/>
  <circle cx="47.64" cy="242.52" r="4.9153"/>
  <circle cx="47.999" cy="230.83" r="4.9153"/>
  <circle cx="44.044" cy="219.87" r="4.9153"/>
  <circle cx="42.247" cy="208" r="4.9153"/>
  <circle cx="42.067" cy="195.24" r="4.9153"/>
  <circle cx="42.966" cy="183.37" r="4.9153"/>
  <circle cx="41.528" cy="168.99" r="4.9153"/>
  <circle cx="39.91" cy="155.69" r="4.9153"/>
  <circle cx="45.303" cy="142.75" r="4.9153"/>
  <circle cx="46.022" cy="128.54" r="4.9153"/>
  <circle cx="50.157" cy="116.32" r="4.9153"/>
  <circle cx="49.797" cy="104.45" r="4.9153"/>
  <circle cx="48.539" cy="91.151" r="4.9153"/>
  <circle cx="47.82" cy="77.309" r="4.9153"/>
  <circle cx="45.483" cy="65.444" r="4.9153"/>
  <circle cx="45.303" cy="52.32" r="4.9153"/>
  <circle cx="38.471" cy="39.736" r="4.9153"/>
  <circle cx="37.213" cy="27.152" r="4.9153"/>
 </g>
</svg>
