<?xml version="1.0" encoding="UTF-8"?>
<!-- Created with Inkscape (http://www.inkscape.org/) -->
<svg width="100" height="650" version="1.1" viewBox="0 0 100 650" xmlns="http://www.w3.org/2000/svg" xmlns:cc="http://creativecommons.org/ns#" xmlns:dc="http://purl.org/dc/elements/1.1/" xmlns:rdf="http://www.w3.org/1999/02/22-rdf-syntax-ns#">
 <metadata>
  <rdf:RDF>
   <cc:Work rdf:about="">
    <dc:format>image/svg+xml</dc:format>
    <dc:type rdf:resource="http://purl.org/dc/dcmitype/StillImage"/>
    <dc:title/>
   </cc:Work>
  </rdf:RDF>
 </metadata>
 <g transform="translate(14.944 161.69)" fill="#e00000">
  <circle cx="34.112" cy="483.32" r="4.9153"/>
  <circle cx="34.112" cy="464.04" r="4.9153"/>
  <circle cx="33.927" cy="455.51" r="4.9153"/>
  <circle cx="32.073" cy="446.61" r="4.9153"/>
  <circle cx="31.516" cy="434.01" r="4.9153"/>
  <circle cx="33.556" cy="422.7" r="4.9153"/>
  <circle cx="36.337" cy="410.83" r="4.9153"/>
  <circle cx="40.971" cy="398.04" r="4.9153"/>
  <circle cx="41.528" cy="386.55" r="4.9153"/>
  <circle cx="40.971" cy="373.2" r="4.9153"/>
  <circle cx="39.674" cy="359.48" r="4.9153"/>
  <circle cx="38.376" cy="347.61" r="4.9153"/>
  <circle cx="38.005" cy="335.38" r="4.9153"/>
  <circle cx="34.297" cy="322.03" r="4.9153"/>
  <circle cx="32.629" cy="309.61" r="4.9153"/>
  <circle cx="34.112" cy="298.67" r="4.9153"/>
  <circle cx="35.78" cy="285.88" r="4.9153"/>
  <circle cx="33" cy="274.2" r="4.9153"/>
  <circle cx="32.443" cy="261.96" r="4.9153"/>
  <circle cx="29.848" cy="249.73" r="4.9153"/>
  <circle cx="27.623" cy="237.31" r="4.9153"/>
  <circle cx="30.404" cy="226.55" r="4.9153"/>
  <circle cx="30.775" cy="213.58" r="4.9153"/>
  <circle cx="30.96" cy="202.82" r="4.9153"/>
  <circle cx="30.219" cy="191.14" r="4.9153"/>
  <circle cx="32.443" cy="180.95" r="4.9153"/>
  <circle cx="35.224" cy="170.75" r="4.9153"/>
  <circle cx="32.443" cy="158.52" r="4.9153"/>
  <circle cx="31.702" cy="147.21" r="4.9153"/>
  <circle cx="28.365" cy="138.12" r="4.9153"/>
  <circle cx="26.14" cy="126.63" r="4.9153"/>
  <circle cx="30.033" cy="114.39" r="4.9153"/>
  <circle cx="30.219" cy="102.71" r="4.9153"/>
  <circle cx="34.112" cy="92.146" r="4.9153"/>
  <circle cx="35.595" cy="80.837" r="4.9153"/>
  <circle cx="38.932" cy="68.416" r="4.9153"/>
  <circle cx="43.196" cy="56.551" r="4.9153"/>
  <circle cx="40.415" cy="43.388" r="4.9153"/>
  <circle cx="39.674" cy="32.45" r="4.9153"/>
 </g>
</svg>
