<?xml version="1.0" encoding="UTF-8"?>
<!-- Created with Inkscape (http://www.inkscape.org/) -->
<svg width="109" height="958" version="1.1" viewBox="0 0 109 958" xmlns="http://www.w3.org/2000/svg" xmlns:cc="http://creativecommons.org/ns#" xmlns:dc="http://purl.org/dc/elements/1.1/" xmlns:rdf="http://www.w3.org/1999/02/22-rdf-syntax-ns#">
 <metadata>
  <rdf:RDF>
   <cc:Work rdf:about="">
    <dc:format>image/svg+xml</dc:format>
    <dc:type rdf:resource="http://purl.org/dc/dcmitype/StillImage"/>
    <dc:title/>
   </cc:Work>
  </rdf:RDF>
 </metadata>
 <g transform="translate(3.8056 15.222)" fill="#e00000">
  <circle cx="45.921" cy="937.45" r="4.9153"/>
  <circle cx="44.779" cy="910.05" r="4.9153"/>
  <circle cx="43.765" cy="892.67" r="4.9153"/>
  <circle cx="47.697" cy="874.02" r="4.9153"/>
  <circle cx="48.712" cy="849.54" r="4.9153"/>
  <circle cx="46.428" cy="831.02" r="4.9153"/>
  <circle cx="46.428" cy="805.9" r="4.9153"/>
  <circle cx="51.883" cy="777.11" r="4.9153"/>
  <circle cx="55.689" cy="744.12" r="4.9153"/>
  <circle cx="61.778" cy="708.99" r="4.9153"/>
  <circle cx="65.076" cy="672.96" r="4.9153"/>
  <circle cx="72.941" cy="633.89" r="4.9153"/>
  <circle cx="74.971" cy="601.03" r="4.9153"/>
  <circle cx="70.404" cy="566.91" r="4.9153"/>
  <circle cx="69.77" cy="530.25" r="4.9153"/>
  <circle cx="74.336" cy="493.72" r="4.9153"/>
  <circle cx="77.888" cy="460.1" r="4.9153"/>
  <circle cx="74.463" cy="420.14" r="4.9153"/>
  <circle cx="75.605" cy="381.96" r="4.9153"/>
  <circle cx="70.531" cy="343.14" r="4.9153"/>
 </g>
</svg>
