<?xml version="1.0" encoding="UTF-8"?>
<!-- Created with Inkscape (http://www.inkscape.org/) -->
<svg width="100" height="650" version="1.1" viewBox="0 0 100 650" xmlns="http://www.w3.org/2000/svg" xmlns:cc="http://creativecommons.org/ns#" xmlns:dc="http://purl.org/dc/elements/1.1/" xmlns:rdf="http://www.w3.org/1999/02/22-rdf-syntax-ns#">
 <metadata>
  <rdf:RDF>
   <cc:Work rdf:about="">
    <dc:format>image/svg+xml</dc:format>
    <dc:type rdf:resource="http://purl.org/dc/dcmitype/StillImage"/>
    <dc:title/>
   </cc:Work>
  </rdf:RDF>
 </metadata>
 <g transform="translate(39.024 -295.9)" fill="#e00000">
  <circle cx="10.865" cy="940.92" r="4.9153"/>
  <circle cx="11.589" cy="917.02" r="4.9153"/>
  <circle cx="11.227" cy="901.45" r="4.9153"/>
  <circle cx="8.692" cy="885.87" r="4.9153"/>
  <circle cx="7.9677" cy="864.14" r="4.9153"/>
  <circle cx="11.227" cy="846.4" r="4.9153"/>
  <circle cx="11.227" cy="822.5" r="4.9153"/>
  <circle cx="17.384" cy="797.87" r="4.9153"/>
  <circle cx="21.006" cy="774.33" r="4.9153"/>
  <circle cx="13.4" cy="748.61" r="4.9153"/>
  <circle cx="11.952" cy="722.54" r="4.9153"/>
  <circle cx="14.487" cy="693.56" r="4.9153"/>
  <circle cx="16.66" cy="661.69" r="4.9153"/>
  <circle cx="22.454" cy="629.82" r="4.9153"/>
  <circle cx="24.627" cy="598.68" r="4.9153"/>
  <circle cx="28.611" cy="572.6" r="4.9153"/>
  <circle cx="32.957" cy="541.45" r="4.9153"/>
  <circle cx="28.249" cy="512.84" r="4.9153"/>
  <circle cx="27.887" cy="481.7" r="4.9153"/>
  <circle cx="32.233" cy="455.62" r="4.9153"/>
 </g>
</svg>
