<?xml version="1.0" encoding="UTF-8"?>
<!-- Created with Inkscape (http://www.inkscape.org/) -->
<svg width="100" height="650" version="1.1" viewBox="0 0 100 650" xmlns="http://www.w3.org/2000/svg" xmlns:cc="http://creativecommons.org/ns#" xmlns:dc="http://purl.org/dc/elements/1.1/" xmlns:rdf="http://www.w3.org/1999/02/22-rdf-syntax-ns#">
 <metadata>
  <rdf:RDF>
   <cc:Work rdf:about="">
    <dc:format>image/svg+xml</dc:format>
    <dc:type rdf:resource="http://purl.org/dc/dcmitype/StillImage"/>
    <dc:title/>
   </cc:Work>
  </rdf:RDF>
 </metadata>
 <g transform="translate(29.83 1.0685)" fill="#e00000">
  <circle cx="20.148" cy="643.82" r="4.9153"/>
  <circle cx="20.4" cy="617.63" r="4.9153"/>
  <circle cx="20.904" cy="603.27" r="4.9153"/>
  <circle cx="18.133" cy="581.11" r="4.9153"/>
  <circle cx="17.126" cy="560.71" r="4.9153"/>
  <circle cx="15.363" cy="537.29" r="4.9153"/>
  <circle cx="10.83" cy="506.81" r="4.9153"/>
  <circle cx="14.859" cy="478.1" r="4.9153"/>
  <circle cx="18.385" cy="446.37" r="4.9153"/>
  <circle cx="26.948" cy="410.61" r="4.9153"/>
  <circle cx="32.993" cy="375.35" r="4.9153"/>
  <circle cx="29.719" cy="338.58" r="4.9153"/>
  <circle cx="31.734" cy="302.56" r="4.9153"/>
  <circle cx="36.015" cy="264.03" r="4.9153"/>
  <circle cx="37.526" cy="228.01" r="4.9153"/>
  <circle cx="37.023" cy="186.46" r="4.9153"/>
  <circle cx="35.763" cy="143.14" r="4.9153"/>
  <circle cx="40.8" cy="106.37" r="4.9153"/>
  <circle cx="44.326" cy="68.084" r="4.9153"/>
  <circle cx="49.867" cy="29.047" r="4.9153"/>
 </g>
</svg>
