<?xml version="1.0" encoding="UTF-8"?>
<!-- Created with Inkscape (http://www.inkscape.org/) -->
<svg width="100" height="650" version="1.1" viewBox="0 0 100 650" xmlns="http://www.w3.org/2000/svg" xmlns:cc="http://creativecommons.org/ns#" xmlns:dc="http://purl.org/dc/elements/1.1/" xmlns:rdf="http://www.w3.org/1999/02/22-rdf-syntax-ns#">
 <metadata>
  <rdf:RDF>
   <cc:Work rdf:about="">
    <dc:format>image/svg+xml</dc:format>
    <dc:type rdf:resource="http://purl.org/dc/dcmitype/StillImage"/>
    <dc:title/>
   </cc:Work>
  </rdf:RDF>
 </metadata>
 <g transform="translate(16.962 -244.16)" fill="#e00000">
  <circle cx="32.727" cy="888.96" r="4.9153"/>
  <circle cx="36.497" cy="863.77" r="4.9153"/>
  <circle cx="37.696" cy="849.89" r="4.9153"/>
  <circle cx="36.497" cy="831.9" r="4.9153"/>
  <circle cx="34.783" cy="813.73" r="4.9153"/>
  <circle cx="38.21" cy="791.63" r="4.9153"/>
  <circle cx="38.896" cy="772.61" r="4.9153"/>
  <circle cx="42.837" cy="750.17" r="4.9153"/>
  <circle cx="44.207" cy="725.49" r="4.9153"/>
  <circle cx="42.322" cy="702.87" r="4.9153"/>
  <circle cx="41.123" cy="676.31" r="4.9153"/>
  <circle cx="44.721" cy="647.87" r="4.9153"/>
  <circle cx="47.634" cy="618.74" r="4.9153"/>
  <circle cx="52.432" cy="587.21" r="4.9153"/>
  <circle cx="55.002" cy="557.57" r="4.9153"/>
  <circle cx="59.8" cy="523.99" r="4.9153"/>
  <circle cx="61.513" cy="492.46" r="4.9153"/>
  <circle cx="67.682" cy="461.1" r="4.9153"/>
  <circle cx="68.367" cy="429.41" r="4.9153"/>
  <circle cx="64.94" cy="399.25" r="4.9153"/>
 </g>
</svg>
