<?xml version="1.0" encoding="UTF-8"?>
<!-- Created with Inkscape (http://www.inkscape.org/) -->
<svg width="100" height="650" version="1.1" viewBox="0 0 100 650" xmlns="http://www.w3.org/2000/svg" xmlns:cc="http://creativecommons.org/ns#" xmlns:dc="http://purl.org/dc/elements/1.1/" xmlns:rdf="http://www.w3.org/1999/02/22-rdf-syntax-ns#">
 <metadata>
  <rdf:RDF>
   <cc:Work rdf:about="">
    <dc:format>image/svg+xml</dc:format>
    <dc:type rdf:resource="http://purl.org/dc/dcmitype/StillImage"/>
    <dc:title/>
   </cc:Work>
  </rdf:RDF>
 </metadata>
 <g transform="translate(29.072 -225.66)" fill="#e00000">
  <circle cx="20.99" cy="870.71" r="4.9153"/>
  <circle cx="26.297" cy="846.58" r="4.9153"/>
  <circle cx="28.469" cy="830.66" r="4.9153"/>
  <circle cx="29.193" cy="815.22" r="4.9153"/>
  <circle cx="31.605" cy="799.78" r="4.9153"/>
  <circle cx="36.43" cy="780.24" r="4.9153"/>
  <circle cx="38.36" cy="756.59" r="4.9153"/>
  <circle cx="42.944" cy="734.64" r="4.9153"/>
  <circle cx="43.909" cy="714.86" r="4.9153"/>
  <circle cx="42.703" cy="691.94" r="4.9153"/>
  <circle cx="41.256" cy="669.5" r="4.9153"/>
  <circle cx="45.357" cy="648.99" r="4.9153"/>
  <circle cx="47.046" cy="622.45" r="4.9153"/>
  <circle cx="41.256" cy="593.98" r="4.9153"/>
  <circle cx="39.567" cy="565.03" r="4.9153"/>
  <circle cx="41.256" cy="537.05" r="4.9153"/>
  <circle cx="44.633" cy="507.13" r="4.9153"/>
  <circle cx="49.7" cy="476.01" r="4.9153"/>
  <circle cx="52.595" cy="452.85" r="4.9153"/>
  <circle cx="57.661" cy="422.93" r="4.9153"/>
 </g>
</svg>
