<?xml version="1.0" encoding="UTF-8"?>
<!-- Created with Inkscape (http://www.inkscape.org/) -->
<svg width="100" height="650" version="1.1" viewBox="0 0 100 650" xmlns="http://www.w3.org/2000/svg" xmlns:cc="http://creativecommons.org/ns#" xmlns:dc="http://purl.org/dc/elements/1.1/" xmlns:rdf="http://www.w3.org/1999/02/22-rdf-syntax-ns#">
 <metadata>
  <rdf:RDF>
   <cc:Work rdf:about="">
    <dc:format>image/svg+xml</dc:format>
    <dc:type rdf:resource="http://purl.org/dc/dcmitype/StillImage"/>
    <dc:title/>
   </cc:Work>
  </rdf:RDF>
 </metadata>
 <g transform="translate(-4.4437 -236.46)" fill="#e00000">
  <circle cx="53.805" cy="881.3" r="4.9153"/>
  <circle cx="53.805" cy="865.45" r="4.9153"/>
  <circle cx="50.682" cy="850.31" r="4.9153"/>
  <circle cx="50.923" cy="834.94" r="4.9153"/>
  <circle cx="50.442" cy="815.24" r="4.9153"/>
  <circle cx="45.398" cy="793.38" r="4.9153"/>
  <circle cx="44.677" cy="771.53" r="4.9153"/>
  <circle cx="46.599" cy="746.55" r="4.9153"/>
  <circle cx="51.163" cy="722.77" r="4.9153"/>
  <circle cx="54.526" cy="697.3" r="4.9153"/>
  <circle cx="57.168" cy="665.84" r="4.9153"/>
  <circle cx="53.325" cy="636.53" r="4.9153"/>
  <circle cx="51.163" cy="605.07" r="4.9153"/>
  <circle cx="45.878" cy="572.4" r="4.9153"/>
  <circle cx="41.555" cy="542.13" r="4.9153"/>
  <circle cx="45.398" cy="512.11" r="4.9153"/>
  <circle cx="48.28" cy="479.68" r="4.9153"/>
  <circle cx="42.756" cy="447.98" r="4.9153"/>
  <circle cx="43.476" cy="417.23" r="4.9153"/>
  <circle cx="39.153" cy="384.32" r="4.9153"/>
 </g>
</svg>
