<?xml version="1.0" encoding="UTF-8"?>
<!-- Created with Inkscape (http://www.inkscape.org/) -->
<svg width="100" height="650" version="1.1" viewBox="0 0 100 650" xmlns="http://www.w3.org/2000/svg" xmlns:cc="http://creativecommons.org/ns#" xmlns:dc="http://purl.org/dc/elements/1.1/" xmlns:rdf="http://www.w3.org/1999/02/22-rdf-syntax-ns#">
 <metadata>
  <rdf:RDF>
   <cc:Work rdf:about="">
    <dc:format>image/svg+xml</dc:format>
    <dc:type rdf:resource="http://purl.org/dc/dcmitype/StillImage"/>
    <dc:title/>
   </cc:Work>
  </rdf:RDF>
 </metadata>
 <g transform="translate(-39.248 1.6525)" fill="#e00000">
  <circle cx="90.381" cy="643.51" r="4.9153"/>
  <circle cx="92.864" cy="630.65" r="4.9153"/>
  <circle cx="91.695" cy="622.33" r="4.9153"/>
  <circle cx="92.426" cy="612.25" r="4.9153"/>
  <circle cx="88.482" cy="596.91" r="4.9153"/>
  <circle cx="84.392" cy="585.81" r="4.9153"/>
  <circle cx="82.931" cy="570.91" r="4.9153"/>
  <circle cx="78.403" cy="553.38" r="4.9153"/>
  <circle cx="79.864" cy="540.53" r="4.9153"/>
  <circle cx="77.381" cy="523.59" r="4.9153"/>
  <circle cx="72.561" cy="509.27" r="4.9153"/>
  <circle cx="76.504" cy="490.58" r="4.9153"/>
  <circle cx="74.459" cy="476.41" r="4.9153"/>
  <circle cx="76.066" cy="462.68" r="4.9153"/>
  <circle cx="76.943" cy="444.56" r="4.9153"/>
  <circle cx="76.358" cy="431.42" r="4.9153"/>
  <circle cx="77.819" cy="417.69" r="4.9153"/>
  <circle cx="70.808" cy="404.98" r="4.9153"/>
  <circle cx="70.954" cy="391.84" r="4.9153"/>
  <circle cx="70.808" cy="377.67" r="4.9153"/>
  <circle cx="69.055" cy="367" r="4.9153"/>
  <circle cx="67.156" cy="355.17" r="4.9153"/>
  <circle cx="62.19" cy="342.9" r="4.9153"/>
  <circle cx="66.426" cy="334.29" r="4.9153"/>
  <circle cx="63.066" cy="318.07" r="4.9153"/>
  <circle cx="63.651" cy="307.41" r="4.9153"/>
  <circle cx="69.055" cy="291.34" r="4.9153"/>
  <circle cx="64.673" cy="279.8" r="4.9153"/>
  <circle cx="69.785" cy="269.72" r="4.9153"/>
  <circle cx="64.819" cy="251.17" r="4.9153"/>
  <circle cx="62.774" cy="245.04" r="4.9153"/>
  <circle cx="66.28" cy="226.64" r="4.9153"/>
  <circle cx="61.752" cy="213.93" r="4.9153"/>
  <circle cx="65.111" cy="202.39" r="4.9153"/>
  <circle cx="61.898" cy="184.13" r="4.9153"/>
  <circle cx="62.628" cy="174.93" r="4.9153"/>
  <circle cx="66.134" cy="155.21" r="4.9153"/>
  <circle cx="60.437" cy="143.09" r="4.9153"/>
  <circle cx="63.066" cy="129.21" r="4.9153"/>
  <circle cx="56.055" cy="112.56" r="4.9153"/>
  <circle cx="54.595" cy="100.73" r="4.9153"/>
  <circle cx="55.033" cy="82.76" r="4.9153"/>
  <circle cx="47.876" cy="70.491" r="4.9153"/>
  <circle cx="50.505" cy="56.907" r="4.9153"/>
  <circle cx="46.707" cy="38.211" r="4.9153"/>
  <circle cx="45.392" cy="28.57" r="4.9153"/>
  <circle cx="45.831" cy="8.7053" r="4.9153"/>
 </g>
</svg>
