<?xml version="1.0" encoding="UTF-8"?>
<!-- Created with Inkscape (http://www.inkscape.org/) -->
<svg width="100" height="650" version="1.1" viewBox="0 0 100 650" xmlns="http://www.w3.org/2000/svg" xmlns:cc="http://creativecommons.org/ns#" xmlns:dc="http://purl.org/dc/elements/1.1/" xmlns:rdf="http://www.w3.org/1999/02/22-rdf-syntax-ns#">
 <metadata>
  <rdf:RDF>
   <cc:Work rdf:about="">
    <dc:format>image/svg+xml</dc:format>
    <dc:type rdf:resource="http://purl.org/dc/dcmitype/StillImage"/>
    <dc:title/>
   </cc:Work>
  </rdf:RDF>
 </metadata>
 <g transform="translate(31.575 44.468)" fill="#e00000">
  <circle cx="18.482" cy="600.49" r="4.9153"/>
  <circle cx="17.793" cy="579.94" r="4.9153"/>
  <circle cx="17.563" cy="575.12" r="4.9153"/>
  <circle cx="19.515" cy="567.31" r="4.9153"/>
  <circle cx="20.433" cy="556.52" r="4.9153"/>
  <circle cx="23.532" cy="545.73" r="4.9153"/>
  <circle cx="25.943" cy="533.68" r="4.9153"/>
  <circle cx="27.55" cy="518.53" r="4.9153"/>
  <circle cx="27.895" cy="502.23" r="4.9153"/>
  <circle cx="25.369" cy="485.92" r="4.9153"/>
  <circle cx="24.221" cy="471.92" r="4.9153"/>
  <circle cx="27.78" cy="457.34" r="4.9153"/>
  <circle cx="26.517" cy="442.99" r="4.9153"/>
  <circle cx="30.879" cy="428.3" r="4.9153"/>
  <circle cx="29.846" cy="413.03" r="4.9153"/>
  <circle cx="36.504" cy="398.45" r="4.9153"/>
  <circle cx="40.751" cy="383.07" r="4.9153"/>
  <circle cx="46.032" cy="367.69" r="4.9153"/>
  <circle cx="49.935" cy="352.31" r="4.9153"/>
  <circle cx="45.573" cy="338.53" r="4.9153"/>
  <circle cx="44.425" cy="324.87" r="4.9153"/>
  <circle cx="41.211" cy="309.37" r="4.9153"/>
  <circle cx="40.407" cy="295.48" r="4.9153"/>
  <circle cx="42.473" cy="279.53" r="4.9153"/>
  <circle cx="43.392" cy="261.85" r="4.9153"/>
  <circle cx="48.672" cy="244.06" r="4.9153"/>
  <circle cx="51.427" cy="229.48" r="4.9153"/>
  <circle cx="56.019" cy="214.56" r="4.9153"/>
  <circle cx="57.626" cy="196.76" r="4.9153"/>
  <circle cx="53.149" cy="181.27" r="4.9153"/>
 </g>
</svg>
