<?xml version="1.0" encoding="UTF-8"?>
<!-- Created with Inkscape (http://www.inkscape.org/) -->
<svg width="100" height="650" version="1.1" viewBox="0 0 100 650" xmlns="http://www.w3.org/2000/svg" xmlns:cc="http://creativecommons.org/ns#" xmlns:dc="http://purl.org/dc/elements/1.1/" xmlns:rdf="http://www.w3.org/1999/02/22-rdf-syntax-ns#">
 <metadata>
  <rdf:RDF>
   <cc:Work rdf:about="">
    <dc:format>image/svg+xml</dc:format>
    <dc:type rdf:resource="http://purl.org/dc/dcmitype/StillImage"/>
    <dc:title/>
   </cc:Work>
  </rdf:RDF>
 </metadata>
 <g transform="translate(31.376 -37.082)" fill="#e00000">
  <circle cx="10.798" cy="681.96" r="4.9153"/>
  <circle cx="12.66" cy="660.18" r="4.9153"/>
  <circle cx="14.522" cy="651.99" r="4.9153"/>
  <circle cx="17.873" cy="642.87" r="4.9153"/>
  <circle cx="20.479" cy="631.69" r="4.9153"/>
  <circle cx="25.32" cy="619.41" r="4.9153"/>
  <circle cx="26.809" cy="603.95" r="4.9153"/>
  <circle cx="26.251" cy="587.57" r="4.9153"/>
  <circle cx="24.761" cy="571" r="4.9153"/>
  <circle cx="31.278" cy="557.97" r="4.9153"/>
  <circle cx="33.698" cy="541.77" r="4.9153"/>
  <circle cx="31.65" cy="527.81" r="4.9153"/>
  <circle cx="31.65" cy="509.56" r="4.9153"/>
  <circle cx="34.629" cy="493.74" r="4.9153"/>
  <circle cx="36.49" cy="479.4" r="4.9153"/>
  <circle cx="38.725" cy="460.41" r="4.9153"/>
  <circle cx="42.076" cy="444.77" r="4.9153"/>
  <circle cx="49.15" cy="425.97" r="4.9153"/>
  <circle cx="50.64" cy="408.84" r="4.9153"/>
  <circle cx="56.225" cy="391.71" r="4.9153"/>
  <circle cx="56.784" cy="373.1" r="4.9153"/>
  <circle cx="54.736" cy="358.2" r="4.9153"/>
  <circle cx="53.619" cy="342.01" r="4.9153"/>
  <circle cx="55.853" cy="324.88" r="4.9153"/>
  <circle cx="56.97" cy="308.31" r="4.9153"/>
  <circle cx="61.252" cy="288.76" r="4.9153"/>
  <circle cx="62.555" cy="268.65" r="4.9153"/>
  <circle cx="58.273" cy="248.36" r="4.9153"/>
  <circle cx="56.039" cy="230.67" r="4.9153"/>
  <circle cx="53.246" cy="210.38" r="4.9153"/>
 </g>
</svg>
