<?xml version="1.0" encoding="UTF-8"?>
<!-- Created with Inkscape (http://www.inkscape.org/) -->
<svg width="100" height="650" version="1.1" viewBox="0 0 100 650" xmlns="http://www.w3.org/2000/svg" xmlns:cc="http://creativecommons.org/ns#" xmlns:dc="http://purl.org/dc/elements/1.1/" xmlns:rdf="http://www.w3.org/1999/02/22-rdf-syntax-ns#">
 <metadata>
  <rdf:RDF>
   <cc:Work rdf:about="">
    <dc:format>image/svg+xml</dc:format>
    <dc:type rdf:resource="http://purl.org/dc/dcmitype/StillImage"/>
    <dc:title/>
   </cc:Work>
  </rdf:RDF>
 </metadata>
 <g transform="translate(19.65 -90.231)" fill="#e00000">
  <circle cx="30.065" cy="735.32" r="4.9153"/>
  <circle cx="31.048" cy="714.69" r="4.9153"/>
  <circle cx="31.441" cy="707.61" r="4.9153"/>
  <circle cx="34.978" cy="698.97" r="4.9153"/>
  <circle cx="36.746" cy="685.41" r="4.9153"/>
  <circle cx="37.729" cy="670.87" r="4.9153"/>
  <circle cx="40.087" cy="655.34" r="4.9153"/>
  <circle cx="41.855" cy="640.21" r="4.9153"/>
  <circle cx="43.231" cy="625.28" r="4.9153"/>
  <circle cx="45.196" cy="604.84" r="4.9153"/>
  <circle cx="45.785" cy="589.32" r="4.9153"/>
  <circle cx="52.27" cy="572.22" r="4.9153"/>
  <circle cx="53.842" cy="555.71" r="4.9153"/>
  <circle cx="61.702" cy="538.42" r="4.9153"/>
  <circle cx="62.685" cy="522.5" r="4.9153"/>
  <circle cx="61.113" cy="505.41" r="4.9153"/>
  <circle cx="60.916" cy="489.1" r="4.9153"/>
  <circle cx="57.183" cy="470.82" r="4.9153"/>
  <circle cx="55.218" cy="454.71" r="4.9153"/>
  <circle cx="60.523" cy="436.04" r="4.9153"/>
  <circle cx="61.702" cy="417.38" r="4.9153"/>
  <circle cx="65.239" cy="398.12" r="4.9153"/>
  <circle cx="66.025" cy="377.48" r="4.9153"/>
  <circle cx="64.453" cy="358.03" r="4.9153"/>
  <circle cx="62.685" cy="335.63" r="4.9153"/>
  <circle cx="59.344" cy="316.96" r="4.9153"/>
  <circle cx="59.541" cy="294.76" r="4.9153"/>
  <circle cx="56.004" cy="273.93" r="4.9153"/>
  <circle cx="56.397" cy="254.67" r="4.9153"/>
  <circle cx="57.969" cy="232.66" r="4.9153"/>
 </g>
</svg>
