<?xml version="1.0" encoding="UTF-8"?>
<!-- Created with Inkscape (http://www.inkscape.org/) -->
<svg width="100" height="650" version="1.1" viewBox="0 0 100 650" xmlns="http://www.w3.org/2000/svg" xmlns:cc="http://creativecommons.org/ns#" xmlns:dc="http://purl.org/dc/elements/1.1/" xmlns:rdf="http://www.w3.org/1999/02/22-rdf-syntax-ns#">
 <metadata>
  <rdf:RDF>
   <cc:Work rdf:about="">
    <dc:format>image/svg+xml</dc:format>
    <dc:type rdf:resource="http://purl.org/dc/dcmitype/StillImage"/>
    <dc:title/>
   </cc:Work>
  </rdf:RDF>
 </metadata>
 <g transform="translate(15.567 59.086)" fill="#e00000">
  <circle cx="34.425" cy="585.94" r="4.9153"/>
  <circle cx="33.622" cy="565.16" r="4.9153"/>
  <circle cx="32.739" cy="559.54" r="4.9153"/>
  <circle cx="31.536" cy="550.55" r="4.9153"/>
  <circle cx="30.412" cy="539.48" r="4.9153"/>
  <circle cx="31.776" cy="529.05" r="4.9153"/>
  <circle cx="32.258" cy="516.29" r="4.9153"/>
  <circle cx="30.974" cy="503.53" r="4.9153"/>
  <circle cx="31.696" cy="491.81" r="4.9153"/>
  <circle cx="32.9" cy="477.13" r="4.9153"/>
  <circle cx="34.344" cy="463.73" r="4.9153"/>
  <circle cx="37.875" cy="450.09" r="4.9153"/>
  <circle cx="38.196" cy="437.65" r="4.9153"/>
  <circle cx="35.066" cy="424.41" r="4.9153"/>
  <circle cx="32.9" cy="407.8" r="4.9153"/>
  <circle cx="27.604" cy="394.96" r="4.9153"/>
  <circle cx="26.079" cy="381.64" r="4.9153"/>
  <circle cx="22.548" cy="367.19" r="4.9153"/>
  <circle cx="21.345" cy="353.07" r="4.9153"/>
  <circle cx="22.95" cy="337.26" r="4.9153"/>
  <circle cx="23.832" cy="322.34" r="4.9153"/>
  <circle cx="28.888" cy="305.09" r="4.9153"/>
  <circle cx="30.733" cy="289.04" r="4.9153"/>
  <circle cx="28.647" cy="274.19" r="4.9153"/>
  <circle cx="27.925" cy="257.1" r="4.9153"/>
  <circle cx="31.375" cy="243.14" r="4.9153"/>
  <circle cx="34.264" cy="226.21" r="4.9153"/>
  <circle cx="36.752" cy="213.61" r="4.9153"/>
  <circle cx="37.634" cy="198.6" r="4.9153"/>
  <circle cx="42.93" cy="183.52" r="4.9153"/>
 </g>
</svg>
