<?xml version="1.0" encoding="UTF-8"?>
<!-- Created with Inkscape (http://www.inkscape.org/) -->
<svg width="100" height="650" version="1.1" viewBox="0 0 100 650" xmlns="http://www.w3.org/2000/svg" xmlns:cc="http://creativecommons.org/ns#" xmlns:dc="http://purl.org/dc/elements/1.1/" xmlns:rdf="http://www.w3.org/1999/02/22-rdf-syntax-ns#">
 <metadata>
  <rdf:RDF>
   <cc:Work rdf:about="">
    <dc:format>image/svg+xml</dc:format>
    <dc:type rdf:resource="http://purl.org/dc/dcmitype/StillImage"/>
    <dc:title/>
   </cc:Work>
  </rdf:RDF>
 </metadata>
 <g transform="translate(24.292 23.517)" fill="#e00000">
  <circle cx="25.4" cy="621.49" r="4.9153"/>
  <circle cx="24.852" cy="608.89" r="4.9153"/>
  <circle cx="21.745" cy="599.57" r="4.9153"/>
  <circle cx="23.207" cy="582.02" r="4.9153"/>
  <circle cx="28.872" cy="567.59" r="4.9153"/>
  <circle cx="25.217" cy="549.5" r="4.9153"/>
  <circle cx="20.832" cy="531.95" r="4.9153"/>
  <circle cx="23.39" cy="513.5" r="4.9153"/>
  <circle cx="24.852" cy="497.05" r="4.9153"/>
  <circle cx="22.842" cy="481.34" r="4.9153"/>
  <circle cx="28.872" cy="463.06" r="4.9153"/>
  <circle cx="25.948" cy="445.89" r="4.9153"/>
  <circle cx="28.324" cy="428.71" r="4.9153"/>
  <circle cx="26.131" cy="413.91" r="4.9153"/>
  <circle cx="24.669" cy="395.45" r="4.9153"/>
  <circle cx="16.081" cy="379.37" r="4.9153"/>
  <circle cx="18.456" cy="365.3" r="4.9153"/>
  <circle cx="23.573" cy="348.86" r="4.9153"/>
  <circle cx="26.131" cy="336.25" r="4.9153"/>
  <circle cx="28.689" cy="321.81" r="4.9153"/>
  <circle cx="32.526" cy="307.38" r="4.9153"/>
  <circle cx="38.191" cy="293.67" r="4.9153"/>
  <circle cx="43.125" cy="277.04" r="4.9153"/>
  <circle cx="47.145" cy="261.51" r="4.9153"/>
  <circle cx="43.125" cy="242.69" r="4.9153"/>
  <circle cx="38.922" cy="228.25" r="4.9153"/>
  <circle cx="41.846" cy="210.71" r="4.9153"/>
  <circle cx="47.511" cy="194.26" r="4.9153"/>
  <circle cx="52.993" cy="175.81" r="4.9153"/>
  <circle cx="52.079" cy="158.27" r="4.9153"/>
  <circle cx="55.916" cy="141.64" r="4.9153"/>
  <circle cx="53.906" cy="126.65" r="4.9153"/>
  <circle cx="50.434" cy="109.29" r="4.9153"/>
  <circle cx="53.906" cy="92.664" r="4.9153"/>
  <circle cx="49.886" cy="74.025" r="4.9153"/>
  <circle cx="46.231" cy="55.935" r="4.9153"/>
 </g>
</svg>
