<?xml version="1.0" encoding="UTF-8"?>
<!-- Created with Inkscape (http://www.inkscape.org/) -->
<svg width="100" height="650" version="1.1" viewBox="0 0 100 650" xmlns="http://www.w3.org/2000/svg" xmlns:cc="http://creativecommons.org/ns#" xmlns:dc="http://purl.org/dc/elements/1.1/" xmlns:rdf="http://www.w3.org/1999/02/22-rdf-syntax-ns#">
 <metadata>
  <rdf:RDF>
   <cc:Work rdf:about="">
    <dc:format>image/svg+xml</dc:format>
    <dc:type rdf:resource="http://purl.org/dc/dcmitype/StillImage"/>
    <dc:title/>
   </cc:Work>
  </rdf:RDF>
 </metadata>
 <g transform="translate(34.888 11.422)" fill="#e00000">
  <circle cx="14.899" cy="633.36" r="4.9153"/>
  <circle cx="16.637" cy="620.7" r="4.9153"/>
  <circle cx="17.382" cy="608.28" r="4.9153"/>
  <circle cx="24.335" cy="594.13" r="4.9153"/>
  <circle cx="19.12" cy="578.24" r="4.9153"/>
  <circle cx="16.637" cy="562.59" r="4.9153"/>
  <circle cx="22.845" cy="545.96" r="4.9153"/>
  <circle cx="27.563" cy="533.29" r="4.9153"/>
  <circle cx="24.831" cy="518.89" r="4.9153"/>
  <circle cx="27.066" cy="501.51" r="4.9153"/>
  <circle cx="24.086" cy="485.12" r="4.9153"/>
  <circle cx="25.576" cy="466.75" r="4.9153"/>
  <circle cx="28.556" cy="449.86" r="4.9153"/>
  <circle cx="36.502" cy="432.98" r="4.9153"/>
  <circle cx="32.032" cy="415.59" r="4.9153"/>
  <circle cx="26.073" cy="400.45" r="4.9153"/>
  <circle cx="22.845" cy="381.58" r="4.9153"/>
  <circle cx="19.865" cy="363.45" r="4.9153"/>
  <circle cx="14.402" cy="346.32" r="4.9153"/>
  <circle cx="19.617" cy="329.18" r="4.9153"/>
  <circle cx="19.865" cy="312.79" r="4.9153"/>
  <circle cx="21.355" cy="294.91" r="4.9153"/>
  <circle cx="18.623" cy="278.77" r="4.9153"/>
  <circle cx="22.348" cy="261.64" r="4.9153"/>
  <circle cx="25.824" cy="245.25" r="4.9153"/>
  <circle cx="28.307" cy="232.09" r="4.9153"/>
  <circle cx="30.791" cy="214.96" r="4.9153"/>
  <circle cx="26.321" cy="200.56" r="4.9153"/>
  <circle cx="23.59" cy="186.15" r="4.9153"/>
  <circle cx="25.328" cy="170.76" r="4.9153"/>
  <circle cx="27.314" cy="154.62" r="4.9153"/>
  <circle cx="32.529" cy="141.46" r="4.9153"/>
  <circle cx="36.502" cy="127.06" r="4.9153"/>
  <circle cx="41.716" cy="109.43" r="4.9153"/>
  <circle cx="45.689" cy="90.555" r="4.9153"/>
  <circle cx="44.199" cy="72.18" r="4.9153"/>
 </g>
</svg>
