<?xml version="1.0" encoding="UTF-8"?>
<!-- Created with Inkscape (http://www.inkscape.org/) -->
<svg width="100" height="650" version="1.1" viewBox="0 0 100 650" xmlns="http://www.w3.org/2000/svg" xmlns:cc="http://creativecommons.org/ns#" xmlns:dc="http://purl.org/dc/elements/1.1/" xmlns:rdf="http://www.w3.org/1999/02/22-rdf-syntax-ns#">
 <metadata>
  <rdf:RDF>
   <cc:Work rdf:about="">
    <dc:format>image/svg+xml</dc:format>
    <dc:type rdf:resource="http://purl.org/dc/dcmitype/StillImage"/>
    <dc:title/>
   </cc:Work>
  </rdf:RDF>
 </metadata>
 <g transform="translate(15.279 9.9062)" fill="#e00000">
  <circle cx="34.252" cy="634.89" r="4.9153"/>
  <circle cx="33.245" cy="622.8" r="4.9153"/>
  <circle cx="38.282" cy="612.39" r="4.9153"/>
  <circle cx="42.647" cy="599.29" r="4.9153"/>
  <circle cx="38.618" cy="580.49" r="4.9153"/>
  <circle cx="31.566" cy="564.37" r="4.9153"/>
  <circle cx="27.536" cy="551.61" r="4.9153"/>
  <circle cx="23.842" cy="536.5" r="4.9153"/>
  <circle cx="19.477" cy="518.36" r="4.9153"/>
  <circle cx="19.477" cy="503.59" r="4.9153"/>
  <circle cx="22.835" cy="488.81" r="4.9153"/>
  <circle cx="21.156" cy="472.36" r="4.9153"/>
  <circle cx="26.529" cy="459.26" r="4.9153"/>
  <circle cx="29.551" cy="445.16" r="4.9153"/>
  <circle cx="27.2" cy="430.38" r="4.9153"/>
  <circle cx="29.551" cy="414.26" r="4.9153"/>
  <circle cx="38.282" cy="401.5" r="4.9153"/>
  <circle cx="34.588" cy="386.73" r="4.9153"/>
  <circle cx="38.282" cy="372.29" r="4.9153"/>
  <circle cx="34.924" cy="358.19" r="4.9153"/>
  <circle cx="37.274" cy="345.09" r="4.9153"/>
  <circle cx="40.968" cy="329.64" r="4.9153"/>
  <circle cx="42.983" cy="317.89" r="4.9153"/>
  <circle cx="37.274" cy="302.11" r="4.9153"/>
  <circle cx="43.655" cy="288.67" r="4.9153"/>
  <circle cx="38.953" cy="273.23" r="4.9153"/>
  <circle cx="40.632" cy="259.12" r="4.9153"/>
  <circle cx="44.326" cy="243.68" r="4.9153"/>
  <circle cx="47.013" cy="228.23" r="4.9153"/>
  <circle cx="52.386" cy="212.78" r="4.9153"/>
  <circle cx="49.363" cy="198.01" r="4.9153"/>
  <circle cx="42.983" cy="178.53" r="4.9153"/>
  <circle cx="40.297" cy="164.09" r="4.9153"/>
  <circle cx="37.61" cy="147.3" r="4.9153"/>
  <circle cx="34.924" cy="132.86" r="4.9153"/>
  <circle cx="36.267" cy="115.4" r="4.9153"/>
 </g>
</svg>
