<?xml version="1.0" encoding="UTF-8"?>
<!-- Created with Inkscape (http://www.inkscape.org/) -->
<svg width="87" height="735" version="1.1" viewBox="0 0 87 735" xmlns="http://www.w3.org/2000/svg" xmlns:cc="http://creativecommons.org/ns#" xmlns:dc="http://purl.org/dc/elements/1.1/" xmlns:rdf="http://www.w3.org/1999/02/22-rdf-syntax-ns#">
 <metadata>
  <rdf:RDF>
   <cc:Work rdf:about="">
    <dc:format>image/svg+xml</dc:format>
    <dc:type rdf:resource="http://purl.org/dc/dcmitype/StillImage"/>
    <dc:title/>
   </cc:Work>
  </rdf:RDF>
 </metadata>
 <g transform="translate(4.477 14.793)" fill="#e00000">
  <circle cx="45.145" cy="715.04" r="4.9153"/>
  <circle cx="46.522" cy="697.98" r="4.9153"/>
  <circle cx="49.688" cy="689.3" r="4.9153"/>
  <circle cx="51.89" cy="673.75" r="4.9153"/>
  <circle cx="49.688" cy="652.97" r="4.9153"/>
  <circle cx="45.421" cy="636.45" r="4.9153"/>
  <circle cx="39.778" cy="618.42" r="4.9153"/>
  <circle cx="36.199" cy="598.32" r="4.9153"/>
  <circle cx="33.309" cy="581.53" r="4.9153"/>
  <circle cx="35.786" cy="564.05" r="4.9153"/>
  <circle cx="33.584" cy="547.54" r="4.9153"/>
  <circle cx="29.592" cy="528.68" r="4.9153"/>
  <circle cx="30.143" cy="510.92" r="4.9153"/>
  <circle cx="26.151" cy="492.89" r="4.9153"/>
  <circle cx="27.941" cy="474.86" r="4.9153"/>
  <circle cx="31.382" cy="457.25" r="4.9153"/>
  <circle cx="30.556" cy="441" r="4.9153"/>
  <circle cx="25.601" cy="420.63" r="4.9153"/>
  <circle cx="30.693" cy="401.23" r="4.9153"/>
  <circle cx="28.766" cy="384.16" r="4.9153"/>
  <circle cx="30.556" cy="368.61" r="4.9153"/>
  <circle cx="28.629" cy="353.47" r="4.9153"/>
  <circle cx="30.005" cy="334.06" r="4.9153"/>
  <circle cx="27.528" cy="314.79" r="4.9153"/>
  <circle cx="29.317" cy="297.72" r="4.9153"/>
  <circle cx="26.014" cy="280.93" r="4.9153"/>
  <circle cx="24.637" cy="264.55" r="4.9153"/>
  <circle cx="18.168" cy="245.83" r="4.9153"/>
  <circle cx="14.59" cy="228.77" r="4.9153"/>
  <circle cx="11.149" cy="209.63" r="4.9153"/>
  <circle cx="14.177" cy="189.95" r="4.9153"/>
  <circle cx="18.168" cy="173.85" r="4.9153"/>
  <circle cx="23.536" cy="154.58" r="4.9153"/>
  <circle cx="28.629" cy="137.65" r="4.9153"/>
  <circle cx="31.657" cy="116.18" r="4.9153"/>
  <circle cx="24.775" cy="98.284" r="4.9153"/>
 </g>
</svg>
