<?xml version="1.0" encoding="UTF-8"?>
<!-- Created with Inkscape (http://www.inkscape.org/) -->
<svg width="200" height="650" version="1.1" viewBox="0 0 200 650" xmlns="http://www.w3.org/2000/svg" xmlns:cc="http://creativecommons.org/ns#" xmlns:dc="http://purl.org/dc/elements/1.1/" xmlns:rdf="http://www.w3.org/1999/02/22-rdf-syntax-ns#">
 <metadata>
  <rdf:RDF>
   <cc:Work rdf:about="">
    <dc:format>image/svg+xml</dc:format>
    <dc:type rdf:resource="http://purl.org/dc/dcmitype/StillImage"/>
    <dc:title/>
   </cc:Work>
  </rdf:RDF>
 </metadata>
 <g transform="translate(-6.2974 218.35)" fill="#e00000">
  <circle cx="106.15" cy="426.21" r="4.9153"/>
  <circle cx="106.38" cy="411.82" r="4.9153"/>
  <circle cx="105.47" cy="403.83" r="4.9153"/>
  <circle cx="105.47" cy="396.3" r="4.9153"/>
  <circle cx="102.96" cy="386.71" r="4.9153"/>
  <circle cx="102.27" cy="375.76" r="4.9153"/>
  <circle cx="101.13" cy="361.37" r="4.9153"/>
  <circle cx="99.76" cy="345.17" r="4.9153"/>
  <circle cx="97.706" cy="326.45" r="4.9153"/>
  <circle cx="97.477" cy="310.24" r="4.9153"/>
  <circle cx="94.966" cy="291.29" r="4.9153"/>
  <circle cx="94.053" cy="275.54" r="4.9153"/>
  <circle cx="93.825" cy="260.93" r="4.9153"/>
  <circle cx="101.59" cy="245.18" r="4.9153"/>
  <circle cx="104.78" cy="235.36" r="4.9153"/>
  <circle cx="109.12" cy="224.63" r="4.9153"/>
  <circle cx="104.55" cy="214.13" r="4.9153"/>
  <circle cx="103.64" cy="205.23" r="4.9153"/>
  <circle cx="103.18" cy="194.5" r="4.9153"/>
  <circle cx="93.596" cy="187.65" r="4.9153"/>
  <circle cx="89.487" cy="177.15" r="4.9153"/>
  <circle cx="85.835" cy="166.42" r="4.9153"/>
  <circle cx="88.118" cy="158.66" r="4.9153"/>
  <circle cx="87.204" cy="148.38" r="4.9153"/>
  <circle cx="86.976" cy="139.48" r="4.9153"/>
  <circle cx="71.453" cy="134" r="4.9153"/>
  <circle cx="63.691" cy="126.24" r="4.9153"/>
  <circle cx="61.408" cy="116.88" r="4.9153"/>
  <circle cx="48.853" cy="108.66" r="4.9153"/>
  <circle cx="42.233" cy="100.67" r="4.9153"/>
  <circle cx="40.406" cy="92.455" r="4.9153"/>
  <circle cx="26.024" cy="78.301" r="4.9153"/>
  <circle cx="18.079" cy="70.143" r="4.9153"/>
  <circle cx="14.528" cy="58.037" r="4.9153"/>
  <circle cx="15.093" cy="49.32" r="4.9153"/>
  <circle cx="18.725" cy="39.312" r="4.9153"/>
  <circle cx="18.321" cy="27.044" r="4.9153"/>
  <circle cx="14.931" cy="17.116" r="4.9153"/>
  <circle cx="12.268" cy="6.5255" r="4.9153"/>
 </g>
</svg>
