<?xml version="1.0" encoding="UTF-8"?>
<!-- Created with Inkscape (http://www.inkscape.org/) -->
<svg width="100" height="650" version="1.1" viewBox="0 0 100 650" xmlns="http://www.w3.org/2000/svg" xmlns:cc="http://creativecommons.org/ns#" xmlns:dc="http://purl.org/dc/elements/1.1/" xmlns:rdf="http://www.w3.org/1999/02/22-rdf-syntax-ns#">
 <metadata>
  <rdf:RDF>
   <cc:Work rdf:about="">
    <dc:format>image/svg+xml</dc:format>
    <dc:type rdf:resource="http://purl.org/dc/dcmitype/StillImage"/>
    <dc:title/>
   </cc:Work>
  </rdf:RDF>
 </metadata>
 <g transform="translate(-16.815 10.653)" fill="#e00000">
  <circle cx="66.55" cy="634.37" r="4.9153"/>
  <circle cx="65.182" cy="614.69" r="4.9153"/>
  <circle cx="64.497" cy="604.09" r="4.9153"/>
  <circle cx="62.958" cy="594.16" r="4.9153"/>
  <circle cx="62.273" cy="583.21" r="4.9153"/>
  <circle cx="63.813" cy="567.13" r="4.9153"/>
  <circle cx="64.326" cy="553.27" r="4.9153"/>
  <circle cx="62.958" cy="537.19" r="4.9153"/>
  <circle cx="61.76" cy="521.11" r="4.9153"/>
  <circle cx="54.917" cy="504.17" r="4.9153"/>
  <circle cx="54.061" cy="488.26" r="4.9153"/>
  <circle cx="55.943" cy="473.89" r="4.9153"/>
  <circle cx="58.681" cy="457.98" r="4.9153"/>
  <circle cx="55.088" cy="442.24" r="4.9153"/>
  <circle cx="55.088" cy="427.53" r="4.9153"/>
  <circle cx="52.864" cy="412.3" r="4.9153"/>
  <circle cx="50.127" cy="397.76" r="4.9153"/>
  <circle cx="45.165" cy="381.85" r="4.9153"/>
  <circle cx="44.481" cy="366.28" r="4.9153"/>
  <circle cx="50.127" cy="351.91" r="4.9153"/>
  <circle cx="52.008" cy="336.86" r="4.9153"/>
  <circle cx="48.074" cy="321.12" r="4.9153"/>
  <circle cx="47.047" cy="305.72" r="4.9153"/>
  <circle cx="43.626" cy="288.95" r="4.9153"/>
  <circle cx="42.428" cy="271.68" r="4.9153"/>
  <circle cx="45.165" cy="257.13" r="4.9153"/>
  <circle cx="47.047" cy="240.54" r="4.9153"/>
  <circle cx="44.823" cy="226.34" r="4.9153"/>
  <circle cx="42.77" cy="208.38" r="4.9153"/>
 </g>
</svg>
