<?xml version="1.0" encoding="UTF-8"?>
<!-- Created with Inkscape (http://www.inkscape.org/) -->
<svg width="92" height="667" version="1.1" viewBox="0 0 92 667" xmlns="http://www.w3.org/2000/svg" xmlns:cc="http://creativecommons.org/ns#" xmlns:dc="http://purl.org/dc/elements/1.1/" xmlns:rdf="http://www.w3.org/1999/02/22-rdf-syntax-ns#">
 <metadata>
  <rdf:RDF>
   <cc:Work rdf:about="">
    <dc:format>image/svg+xml</dc:format>
    <dc:type rdf:resource="http://purl.org/dc/dcmitype/StillImage"/>
    <dc:title/>
   </cc:Work>
  </rdf:RDF>
 </metadata>
 <g transform="translate(8.9635 18.017)" fill="#e00000">
  <circle cx="26.979" cy="644.02" r="4.9153"/>
  <circle cx="29.228" cy="621.53" r="4.9153"/>
  <circle cx="29.977" cy="611.04" r="4.9153"/>
  <circle cx="31.976" cy="598.8" r="4.9153"/>
  <circle cx="32.225" cy="584.06" r="4.9153"/>
  <circle cx="30.227" cy="572.57" r="4.9153"/>
  <circle cx="27.979" cy="553.59" r="4.9153"/>
  <circle cx="31.476" cy="540.1" r="4.9153"/>
  <circle cx="33.225" cy="523.61" r="4.9153"/>
  <circle cx="35.223" cy="507.87" r="4.9153"/>
  <circle cx="36.472" cy="492.88" r="4.9153"/>
  <circle cx="44.716" cy="476.65" r="4.9153"/>
  <circle cx="47.464" cy="462.91" r="4.9153"/>
  <circle cx="42.967" cy="448.67" r="4.9153"/>
  <circle cx="41.219" cy="433.68" r="4.9153"/>
  <circle cx="44.466" cy="417.44" r="4.9153"/>
  <circle cx="43.966" cy="400.95" r="4.9153"/>
  <circle cx="48.963" cy="385.46" r="4.9153"/>
  <circle cx="50.462" cy="370.48" r="4.9153"/>
  <circle cx="53.709" cy="353.99" r="4.9153"/>
  <circle cx="55.208" cy="339" r="4.9153"/>
  <circle cx="59.455" cy="324.01" r="4.9153"/>
  <circle cx="60.704" cy="306.77" r="4.9153"/>
  <circle cx="65.95" cy="288.54" r="4.9153"/>
  <circle cx="66.449" cy="272.3" r="4.9153"/>
  <circle cx="71.446" cy="255.56" r="4.9153"/>
  <circle cx="71.446" cy="235.58" r="4.9153"/>
  <circle cx="75.692" cy="219.34" r="4.9153"/>
  <circle cx="76.941" cy="204.35" r="4.9153"/>
 </g>
</svg>
