<?xml version="1.0" encoding="UTF-8"?>
<!-- Created with Inkscape (http://www.inkscape.org/) -->
<svg width="100" height="650" version="1.1" viewBox="0 0 100 650" xmlns="http://www.w3.org/2000/svg" xmlns:cc="http://creativecommons.org/ns#" xmlns:dc="http://purl.org/dc/elements/1.1/" xmlns:rdf="http://www.w3.org/1999/02/22-rdf-syntax-ns#">
 <metadata>
  <rdf:RDF>
   <cc:Work rdf:about="">
    <dc:format>image/svg+xml</dc:format>
    <dc:type rdf:resource="http://purl.org/dc/dcmitype/StillImage"/>
    <dc:title/>
   </cc:Work>
  </rdf:RDF>
 </metadata>
 <g transform="translate(16.545 -75.851)" fill="#e00000">
  <circle cx="33.446" cy="720.82" r="4.9153"/>
  <circle cx="35.235" cy="698.53" r="4.9153"/>
  <circle cx="35.373" cy="687.1" r="4.9153"/>
  <circle cx="32.207" cy="674.3" r="4.9153"/>
  <circle cx="32.62" cy="659.16" r="4.9153"/>
  <circle cx="26.427" cy="642.37" r="4.9153"/>
  <circle cx="24.5" cy="628.05" r="4.9153"/>
  <circle cx="22.848" cy="611.54" r="4.9153"/>
  <circle cx="20.783" cy="593.23" r="4.9153"/>
  <circle cx="14.314" cy="574.79" r="4.9153"/>
  <circle cx="12.938" cy="553.32" r="4.9153"/>
  <circle cx="14.59" cy="534.74" r="4.9153"/>
  <circle cx="17.067" cy="514.37" r="4.9153"/>
  <circle cx="22.022" cy="497.71" r="4.9153"/>
  <circle cx="25.738" cy="480.92" r="4.9153"/>
  <circle cx="21.609" cy="464.4" r="4.9153"/>
  <circle cx="20.646" cy="446.1" r="4.9153"/>
  <circle cx="18.444" cy="427.65" r="4.9153"/>
  <circle cx="16.517" cy="409.07" r="4.9153"/>
  <circle cx="21.885" cy="392.69" r="4.9153"/>
  <circle cx="22.022" cy="373.97" r="4.9153"/>
  <circle cx="28.904" cy="357.73" r="4.9153"/>
  <circle cx="31.657" cy="339.15" r="4.9153"/>
  <circle cx="35.511" cy="320.02" r="4.9153"/>
  <circle cx="37.162" cy="301.58" r="4.9153"/>
  <circle cx="42.53" cy="283.41" r="4.9153"/>
  <circle cx="44.87" cy="265.93" r="4.9153"/>
  <circle cx="50.238" cy="247.62" r="4.9153"/>
  <circle cx="50.238" cy="226.84" r="4.9153"/>
 </g>
</svg>
