<?xml version="1.0" encoding="UTF-8"?>
<!-- Created with Inkscape (http://www.inkscape.org/) -->
<svg width="100" height="650" version="1.1" viewBox="0 0 100 650" xmlns="http://www.w3.org/2000/svg" xmlns:cc="http://creativecommons.org/ns#" xmlns:dc="http://purl.org/dc/elements/1.1/" xmlns:rdf="http://www.w3.org/1999/02/22-rdf-syntax-ns#">
 <metadata>
  <rdf:RDF>
   <cc:Work rdf:about="">
    <dc:format>image/svg+xml</dc:format>
    <dc:type rdf:resource="http://purl.org/dc/dcmitype/StillImage"/>
    <dc:title/>
   </cc:Work>
  </rdf:RDF>
 </metadata>
 <g transform="translate(-3.029 -254.58)" fill="#e00000">
  <circle cx="52.583" cy="899.49" r="4.9153"/>
  <circle cx="50.887" cy="874.29" r="4.9153"/>
  <circle cx="50.645" cy="865.57" r="4.9153"/>
  <circle cx="48.949" cy="847.39" r="4.9153"/>
  <circle cx="48.464" cy="831.4" r="4.9153"/>
  <circle cx="45.072" cy="815.89" r="4.9153"/>
  <circle cx="44.345" cy="795.29" r="4.9153"/>
  <circle cx="41.921" cy="778.57" r="4.9153"/>
  <circle cx="38.771" cy="758.95" r="4.9153"/>
  <circle cx="43.133" cy="740.53" r="4.9153"/>
  <circle cx="44.345" cy="718.24" r="4.9153"/>
  <circle cx="42.406" cy="695.7" r="4.9153"/>
  <circle cx="40.952" cy="677.77" r="4.9153"/>
  <circle cx="37.317" cy="656.2" r="4.9153"/>
  <circle cx="36.106" cy="634.39" r="4.9153"/>
  <circle cx="40.467" cy="615.49" r="4.9153"/>
  <circle cx="42.406" cy="594.17" r="4.9153"/>
  <circle cx="40.952" cy="575.27" r="4.9153"/>
  <circle cx="40.952" cy="553.7" r="4.9153"/>
  <circle cx="36.833" cy="535.53" r="4.9153"/>
  <circle cx="36.106" cy="515.17" r="4.9153"/>
  <circle cx="36.833" cy="492.15" r="4.9153"/>
  <circle cx="38.287" cy="468.89" r="4.9153"/>
  <circle cx="32.956" cy="442.96" r="4.9153"/>
  <circle cx="31.017" cy="418" r="4.9153"/>
  <circle cx="36.833" cy="394.5" r="4.9153"/>
  <circle cx="37.317" cy="373.9" r="4.9153"/>
  <circle cx="36.833" cy="351.85" r="4.9153"/>
  <circle cx="35.863" cy="327.13" r="4.9153"/>
 </g>
</svg>
