<?xml version="1.0" encoding="UTF-8"?>
<!-- Created with Inkscape (http://www.inkscape.org/) -->
<svg width="100" height="650" version="1.1" viewBox="0 0 100 650" xmlns="http://www.w3.org/2000/svg" xmlns:cc="http://creativecommons.org/ns#" xmlns:dc="http://purl.org/dc/elements/1.1/" xmlns:rdf="http://www.w3.org/1999/02/22-rdf-syntax-ns#">
 <metadata>
  <rdf:RDF>
   <cc:Work rdf:about="">
    <dc:format>image/svg+xml</dc:format>
    <dc:type rdf:resource="http://purl.org/dc/dcmitype/StillImage"/>
    <dc:title/>
   </cc:Work>
  </rdf:RDF>
 </metadata>
 <g transform="translate(28.732 8.4965)" fill="#e00000">
  <circle cx="20.794" cy="636.58" r="4.9153"/>
  <circle cx="19.229" cy="615.34" r="4.9153"/>
  <circle cx="19.229" cy="606.85" r="4.9153"/>
  <circle cx="23.254" cy="599.24" r="4.9153"/>
  <circle cx="24.819" cy="586.28" r="4.9153"/>
  <circle cx="22.136" cy="573.31" r="4.9153"/>
  <circle cx="21.688" cy="561.46" r="4.9153"/>
  <circle cx="25.266" cy="548.71" r="4.9153"/>
  <circle cx="26.16" cy="537.09" r="4.9153"/>
  <circle cx="32.197" cy="522.55" r="4.9153"/>
  <circle cx="33.539" cy="509.36" r="4.9153"/>
  <circle cx="39.352" cy="497.73" r="4.9153"/>
  <circle cx="39.799" cy="485.21" r="4.9153"/>
  <circle cx="43.377" cy="473.59" r="4.9153"/>
  <circle cx="45.166" cy="457.26" r="4.9153"/>
  <circle cx="40.917" cy="441.39" r="4.9153"/>
  <circle cx="41.365" cy="427.3" r="4.9153"/>
  <circle cx="37.34" cy="411.87" r="4.9153"/>
  <circle cx="36.222" cy="398.01" r="4.9153"/>
  <circle cx="41.588" cy="380.79" r="4.9153"/>
  <circle cx="41.588" cy="366.93" r="4.9153"/>
  <circle cx="40.694" cy="351.73" r="4.9153"/>
  <circle cx="39.129" cy="337.64" r="4.9153"/>
  <circle cx="32.197" cy="323.78" r="4.9153"/>
  <circle cx="30.856" cy="307.46" r="4.9153"/>
  <circle cx="22.583" cy="292.25" r="4.9153"/>
  <circle cx="21.912" cy="277.72" r="4.9153"/>
  <circle cx="16.546" cy="261.17" r="4.9153"/>
  <circle cx="15.875" cy="246.64" r="4.9153"/>
 </g>
</svg>
