<?xml version="1.0" encoding="UTF-8"?>
<!-- Created with Inkscape (http://www.inkscape.org/) -->
<svg width="100" height="650" version="1.1" viewBox="0 0 100 650" xmlns="http://www.w3.org/2000/svg" xmlns:cc="http://creativecommons.org/ns#" xmlns:dc="http://purl.org/dc/elements/1.1/" xmlns:rdf="http://www.w3.org/1999/02/22-rdf-syntax-ns#">
 <metadata>
  <rdf:RDF>
   <cc:Work rdf:about="">
    <dc:format>image/svg+xml</dc:format>
    <dc:type rdf:resource="http://purl.org/dc/dcmitype/StillImage"/>
    <dc:title/>
   </cc:Work>
  </rdf:RDF>
 </metadata>
 <g fill="#e00000">
  <circle cx="50.159" cy="645.03" r="4.9153"/>
  <circle cx="50.159" cy="633.11" r="4.9153"/>
  <circle cx="56.781" cy="618.22" r="4.9153"/>
  <circle cx="67.706" cy="598.02" r="4.9153"/>
  <circle cx="63.733" cy="569.22" r="4.9153"/>
  <circle cx="67.706" cy="542.07" r="4.9153"/>
  <circle cx="75.321" cy="511.61" r="4.9153"/>
  <circle cx="67.706" cy="481.15" r="4.9153"/>
  <circle cx="76.977" cy="451.68" r="4.9153"/>
  <circle cx="73.004" cy="419.24" r="4.9153"/>
  <circle cx="73.997" cy="386.46" r="4.9153"/>
  <circle cx="80.95" cy="358.65" r="4.9153"/>
  <circle cx="73.997" cy="325.54" r="4.9153"/>
  <circle cx="62.409" cy="294.09" r="4.9153"/>
  <circle cx="53.47" cy="262.97" r="4.9153"/>
  <circle cx="58.436" cy="231.84" r="4.9153"/>
  <circle cx="66.051" cy="198.07" r="4.9153"/>
  <circle cx="58.767" cy="161.32" r="4.9153"/>
  <circle cx="66.051" cy="130.53" r="4.9153"/>
  <circle cx="62.078" cy="92.127" r="4.9153"/>
  <circle cx="56.781" cy="55.046" r="4.9153"/>
  <circle cx="58.436" cy="16.309" r="4.9153"/>
 </g>
</svg>
