<?xml version="1.0" encoding="UTF-8"?>
<!-- Created with Inkscape (http://www.inkscape.org/) -->
<svg width="100" height="650" version="1.1" viewBox="0 0 100 650" xmlns="http://www.w3.org/2000/svg" xmlns:cc="http://creativecommons.org/ns#" xmlns:dc="http://purl.org/dc/elements/1.1/" xmlns:rdf="http://www.w3.org/1999/02/22-rdf-syntax-ns#">
 <metadata>
  <rdf:RDF>
   <cc:Work rdf:about="">
    <dc:format>image/svg+xml</dc:format>
    <dc:type rdf:resource="http://purl.org/dc/dcmitype/StillImage"/>
    <dc:title/>
   </cc:Work>
  </rdf:RDF>
 </metadata>
 <g transform="translate(7.4433 55.505)" fill="#e00000">
  <circle cx="42.233" cy="589.64" r="4.9153"/>
  <circle cx="45.307" cy="580.74" r="4.9153"/>
  <circle cx="44.013" cy="574.11" r="4.9153"/>
  <circle cx="49.029" cy="565.21" r="4.9153"/>
  <circle cx="47.573" cy="554.04" r="4.9153"/>
  <circle cx="52.103" cy="545.79" r="4.9153"/>
  <circle cx="53.56" cy="525.4" r="4.9153"/>
  <circle cx="50" cy="515.05" r="4.9153"/>
  <circle cx="53.074" cy="500.32" r="4.9153"/>
  <circle cx="50.647" cy="482.52" r="4.9153"/>
  <circle cx="53.883" cy="471.68" r="4.9153"/>
  <circle cx="50.809" cy="448.06" r="4.9153"/>
  <circle cx="47.573" cy="434.63" r="4.9153"/>
  <circle cx="48.543" cy="420.39" r="4.9153"/>
  <circle cx="42.718" cy="403.88" r="4.9153"/>
  <circle cx="45.631" cy="391.42" r="4.9153"/>
  <circle cx="46.925" cy="370.22" r="4.9153"/>
  <circle cx="43.365" cy="358.9" r="4.9153"/>
  <circle cx="47.087" cy="343.85" r="4.9153"/>
  <circle cx="44.498" cy="329.29" r="4.9153"/>
  <circle cx="47.249" cy="318.77" r="4.9153"/>
  <circle cx="44.984" cy="296.11" r="4.9153"/>
  <circle cx="40.776" cy="287.38" r="4.9153"/>
  <circle cx="49.838" cy="271.52" r="4.9153"/>
  <circle cx="42.88" cy="252.26" r="4.9153"/>
  <circle cx="52.589" cy="244.01" r="4.9153"/>
  <circle cx="53.56" cy="220.55" r="4.9153"/>
  <circle cx="46.764" cy="210.52" r="4.9153"/>
  <circle cx="48.867" cy="194.98" r="4.9153"/>
  <circle cx="39.158" cy="177.51" r="4.9153"/>
  <circle cx="45.307" cy="169.9" r="4.9153"/>
  <circle cx="40.615" cy="143.85" r="4.9153"/>
  <circle cx="37.702" cy="133.82" r="4.9153"/>
  <circle cx="40.615" cy="116.02" r="4.9153"/>
  <circle cx="37.864" cy="99.514" r="4.9153"/>
 </g>
</svg>
