<?xml version="1.0" encoding="UTF-8"?>
<!-- Created with Inkscape (http://www.inkscape.org/) -->
<svg width="100" height="650" version="1.1" viewBox="0 0 100 650" xmlns="http://www.w3.org/2000/svg" xmlns:cc="http://creativecommons.org/ns#" xmlns:dc="http://purl.org/dc/elements/1.1/" xmlns:rdf="http://www.w3.org/1999/02/22-rdf-syntax-ns#">
 <metadata>
  <rdf:RDF>
   <cc:Work rdf:about="">
    <dc:format>image/svg+xml</dc:format>
    <dc:type rdf:resource="http://purl.org/dc/dcmitype/StillImage"/>
    <dc:title/>
   </cc:Work>
  </rdf:RDF>
 </metadata>
 <g transform="translate(16.69 124.49)" fill="#e00000">
  <circle cx="32.839" cy="520.5" r="4.9153"/>
  <circle cx="35.096" cy="505.72" r="4.9153"/>
  <circle cx="34.48" cy="498.33" r="4.9153"/>
  <circle cx="39.611" cy="489.92" r="4.9153"/>
  <circle cx="36.533" cy="478.83" r="4.9153"/>
  <circle cx="40.843" cy="473.09" r="4.9153"/>
  <circle cx="41.459" cy="461.59" r="4.9153"/>
  <circle cx="40.432" cy="451.74" r="4.9153"/>
  <circle cx="47" cy="436.55" r="4.9153"/>
  <circle cx="44.332" cy="423.62" r="4.9153"/>
  <circle cx="46.795" cy="414.18" r="4.9153"/>
  <circle cx="46.59" cy="398.38" r="4.9153"/>
  <circle cx="43.101" cy="390.58" r="4.9153"/>
  <circle cx="48.437" cy="374.57" r="4.9153"/>
  <circle cx="39.817" cy="360.62" r="4.9153"/>
  <circle cx="47.411" cy="354.87" r="4.9153"/>
  <circle cx="46.179" cy="332.7" r="4.9153"/>
  <circle cx="40.022" cy="328.39" r="4.9153"/>
  <circle cx="45.153" cy="313.82" r="4.9153"/>
  <circle cx="44.332" cy="299.66" r="4.9153"/>
  <circle cx="45.153" cy="286.73" r="4.9153"/>
  <circle cx="48.232" cy="270.92" r="4.9153"/>
  <circle cx="45.563" cy="263.54" r="4.9153"/>
  <circle cx="47.616" cy="247.73" r="4.9153"/>
  <circle cx="45.974" cy="233.37" r="4.9153"/>
  <circle cx="43.101" cy="221.87" r="4.9153"/>
  <circle cx="42.69" cy="207.71" r="4.9153"/>
  <circle cx="35.712" cy="197.65" r="4.9153"/>
  <circle cx="38.791" cy="180.41" r="4.9153"/>
  <circle cx="36.943" cy="166.25" r="4.9153"/>
  <circle cx="41.253" cy="152.09" r="4.9153"/>
  <circle cx="38.175" cy="132.18" r="4.9153"/>
  <circle cx="34.891" cy="125.61" r="4.9153"/>
  <circle cx="39.201" cy="109.2" r="4.9153"/>
  <circle cx="37.559" cy="95.034" r="4.9153"/>
 </g>
</svg>
