<?xml version="1.0" encoding="UTF-8"?>
<!-- Created with Inkscape (http://www.inkscape.org/) -->
<svg width="100" height="650" version="1.1" viewBox="0 0 100 650" xmlns="http://www.w3.org/2000/svg" xmlns:cc="http://creativecommons.org/ns#" xmlns:dc="http://purl.org/dc/elements/1.1/" xmlns:rdf="http://www.w3.org/1999/02/22-rdf-syntax-ns#">
 <metadata>
  <rdf:RDF>
   <cc:Work rdf:about="">
    <dc:format>image/svg+xml</dc:format>
    <dc:type rdf:resource="http://purl.org/dc/dcmitype/StillImage"/>
    <dc:title/>
   </cc:Work>
  </rdf:RDF>
 </metadata>
 <g transform="translate(11.847 192.02)" fill="#e00000">
  <circle cx="37.524" cy="452.91" r="4.9153"/>
  <circle cx="38.396" cy="443.49" r="4.9153"/>
  <circle cx="37.698" cy="433.19" r="4.9153"/>
  <circle cx="31.415" cy="428.65" r="4.9153"/>
  <circle cx="34.557" cy="418" r="4.9153"/>
  <circle cx="32.637" cy="408.23" r="4.9153"/>
  <circle cx="35.429" cy="398.28" r="4.9153"/>
  <circle cx="34.208" cy="385.89" r="4.9153"/>
  <circle cx="32.637" cy="376.64" r="4.9153"/>
  <circle cx="31.415" cy="365.12" r="4.9153"/>
  <circle cx="28.972" cy="353.6" r="4.9153"/>
  <circle cx="32.986" cy="346.27" r="4.9153"/>
  <circle cx="32.462" cy="329.69" r="4.9153"/>
  <circle cx="31.066" cy="322.36" r="4.9153"/>
  <circle cx="40.316" cy="309.62" r="4.9153"/>
  <circle cx="30.019" cy="296.71" r="4.9153"/>
  <circle cx="34.033" cy="292.69" r="4.9153"/>
  <circle cx="28.972" cy="271.57" r="4.9153"/>
  <circle cx="25.481" cy="264.59" r="4.9153"/>
  <circle cx="33.335" cy="251.5" r="4.9153"/>
  <circle cx="26.528" cy="240.33" r="4.9153"/>
  <circle cx="32.637" cy="234.75" r="4.9153"/>
  <circle cx="29.845" cy="216.07" r="4.9153"/>
  <circle cx="25.481" cy="210.31" r="4.9153"/>
  <circle cx="29.321" cy="198.27" r="4.9153"/>
  <circle cx="25.656" cy="186.58" r="4.9153"/>
  <circle cx="33.161" cy="178.72" r="4.9153"/>
  <circle cx="31.939" cy="161.27" r="4.9153"/>
  <circle cx="33.859" cy="153.94" r="4.9153"/>
  <circle cx="37.349" cy="142.07" r="4.9153"/>
  <circle cx="37" cy="129.16" r="4.9153"/>
  <circle cx="42.062" cy="118.86" r="4.9153"/>
  <circle cx="43.458" cy="100.54" r="4.9153"/>
  <circle cx="38.92" cy="98.964" r="4.9153"/>
  <circle cx="43.981" cy="80.813" r="4.9153"/>
 </g>
</svg>
