<?xml version="1.0" encoding="UTF-8"?>
<!-- Created with Inkscape (http://www.inkscape.org/) -->
<svg width="101" height="631" version="1.1" viewBox="0 0 101 631" xmlns="http://www.w3.org/2000/svg" xmlns:cc="http://creativecommons.org/ns#" xmlns:dc="http://purl.org/dc/elements/1.1/" xmlns:rdf="http://www.w3.org/1999/02/22-rdf-syntax-ns#">
 <metadata>
  <rdf:RDF>
   <cc:Work rdf:about="">
    <dc:format>image/svg+xml</dc:format>
    <dc:type rdf:resource="http://purl.org/dc/dcmitype/StillImage"/>
    <dc:title/>
   </cc:Work>
  </rdf:RDF>
 </metadata>
 <g transform="translate(15.374 22.56)" fill="#e00000">
  <circle cx="34.504" cy="603.11" r="4.9153"/>
  <circle cx="32.613" cy="593.66" r="4.9153"/>
  <circle cx="30.013" cy="588.93" r="4.9153"/>
  <circle cx="34.74" cy="578.54" r="4.9153"/>
  <circle cx="31.431" cy="569.08" r="4.9153"/>
  <circle cx="33.086" cy="555.38" r="4.9153"/>
  <circle cx="31.668" cy="541.43" r="4.9153"/>
  <circle cx="33.086" cy="530.32" r="4.9153"/>
  <circle cx="39.23" cy="511.18" r="4.9153"/>
  <circle cx="33.795" cy="497.71" r="4.9153"/>
  <circle cx="38.285" cy="483.06" r="4.9153"/>
  <circle cx="35.922" cy="462.5" r="4.9153"/>
  <circle cx="35.213" cy="454.23" r="4.9153"/>
  <circle cx="41.593" cy="429.89" r="4.9153"/>
  <circle cx="38.049" cy="419.02" r="4.9153"/>
  <circle cx="46.793" cy="405.78" r="4.9153"/>
  <circle cx="41.593" cy="384.04" r="4.9153"/>
  <circle cx="45.847" cy="375.53" r="4.9153"/>
  <circle cx="49.156" cy="354.73" r="4.9153"/>
  <circle cx="46.32" cy="340.55" r="4.9153"/>
  <circle cx="44.666" cy="324.25" r="4.9153"/>
  <circle cx="44.902" cy="308.18" r="4.9153"/>
  <circle cx="47.502" cy="298.96" r="4.9153"/>
  <circle cx="52.701" cy="279.35" r="4.9153"/>
  <circle cx="51.519" cy="265.4" r="4.9153"/>
  <circle cx="60.5" cy="251.7" r="4.9153"/>
  <circle cx="58.136" cy="231.84" r="4.9153"/>
  <circle cx="64.281" cy="224.75" r="4.9153"/>
  <circle cx="69.007" cy="200.18" r="4.9153"/>
  <circle cx="66.408" cy="189.07" r="4.9153"/>
  <circle cx="75.152" cy="175.13" r="4.9153"/>
  <circle cx="66.171" cy="155.98" r="4.9153"/>
  <circle cx="67.826" cy="149.13" r="4.9153"/>
  <circle cx="67.589" cy="126.21" r="4.9153"/>
  <circle cx="59.554" cy="112.26" r="4.9153"/>
 </g>
</svg>
