<?xml version="1.0" encoding="UTF-8"?>
<!-- Created with Inkscape (http://www.inkscape.org/) -->
<svg width="100" height="650" version="1.1" viewBox="0 0 100 650" xmlns="http://www.w3.org/2000/svg" xmlns:cc="http://creativecommons.org/ns#" xmlns:dc="http://purl.org/dc/elements/1.1/" xmlns:rdf="http://www.w3.org/1999/02/22-rdf-syntax-ns#">
 <metadata>
  <rdf:RDF>
   <cc:Work rdf:about="">
    <dc:format>image/svg+xml</dc:format>
    <dc:type rdf:resource="http://purl.org/dc/dcmitype/StillImage"/>
    <dc:title/>
   </cc:Work>
  </rdf:RDF>
 </metadata>
 <g transform="translate(35.429 -16.501)" fill="#e00000">
  <circle cx="14.47" cy="661.48" r="4.9153"/>
  <circle cx="13.747" cy="648.81" r="4.9153"/>
  <circle cx="13.928" cy="638.32" r="4.9153"/>
  <circle cx="13.023" cy="628.19" r="4.9153"/>
  <circle cx="17.726" cy="616.98" r="4.9153"/>
  <circle cx="17.907" cy="603.59" r="4.9153"/>
  <circle cx="18.45" cy="589.3" r="4.9153"/>
  <circle cx="17.907" cy="571.04" r="4.9153"/>
  <circle cx="13.385" cy="555.84" r="4.9153"/>
  <circle cx="19.354" cy="538.66" r="4.9153"/>
  <circle cx="17.184" cy="518.76" r="4.9153"/>
  <circle cx="22.791" cy="508.99" r="4.9153"/>
  <circle cx="23.333" cy="486.57" r="4.9153"/>
  <circle cx="20.982" cy="471.55" r="4.9153"/>
  <circle cx="32.016" cy="453.1" r="4.9153"/>
  <circle cx="27.494" cy="433.93" r="4.9153"/>
  <circle cx="34.548" cy="425.61" r="4.9153"/>
  <circle cx="30.569" cy="398.84" r="4.9153"/>
  <circle cx="25.866" cy="388.53" r="4.9153"/>
  <circle cx="35.995" cy="371.71" r="4.9153"/>
  <circle cx="26.951" cy="352.53" r="4.9153"/>
  <circle cx="36.538" cy="344.21" r="4.9153"/>
  <circle cx="36.176" cy="320.16" r="4.9153"/>
  <circle cx="39.432" cy="307.86" r="4.9153"/>
  <circle cx="47.571" cy="289.77" r="4.9153"/>
  <circle cx="35.995" cy="271.86" r="4.9153"/>
  <circle cx="40.155" cy="258.48" r="4.9153"/>
  <circle cx="43.954" cy="237.86" r="4.9153"/>
  <circle cx="43.592" cy="222.66" r="4.9153"/>
  <circle cx="43.954" cy="203.85" r="4.9153"/>
  <circle cx="36.718" cy="184.86" r="4.9153"/>
  <circle cx="45.582" cy="173.1" r="4.9153"/>
  <circle cx="44.315" cy="148.32" r="4.9153"/>
  <circle cx="45.762" cy="140.54" r="4.9153"/>
  <circle cx="56.253" cy="117.03" r="4.9153"/>
 </g>
</svg>
