<?xml version="1.0" encoding="UTF-8"?>
<!-- Created with Inkscape (http://www.inkscape.org/) -->
<svg width="100" height="650" version="1.1" viewBox="0 0 100 650" xmlns="http://www.w3.org/2000/svg" xmlns:cc="http://creativecommons.org/ns#" xmlns:dc="http://purl.org/dc/elements/1.1/" xmlns:rdf="http://www.w3.org/1999/02/22-rdf-syntax-ns#">
 <metadata>
  <rdf:RDF>
   <cc:Work rdf:about="">
    <dc:format>image/svg+xml</dc:format>
    <dc:type rdf:resource="http://purl.org/dc/dcmitype/StillImage"/>
    <dc:title/>
   </cc:Work>
  </rdf:RDF>
 </metadata>
 <g transform="translate(9.98 -120.52)" fill="#e00000">
  <circle cx="39.868" cy="765.36" r="4.9153"/>
  <circle cx="37.831" cy="751.68" r="4.9153"/>
  <circle cx="38.122" cy="740.04" r="4.9153"/>
  <circle cx="37.249" cy="727.82" r="4.9153"/>
  <circle cx="40.741" cy="717.93" r="4.9153"/>
  <circle cx="43.651" cy="700.76" r="4.9153"/>
  <circle cx="41.323" cy="685.04" r="4.9153"/>
  <circle cx="46.27" cy="665.54" r="4.9153"/>
  <circle cx="43.069" cy="640.52" r="4.9153"/>
  <circle cx="45.688" cy="629.17" r="4.9153"/>
  <circle cx="45.397" cy="600.36" r="4.9153"/>
  <circle cx="39.868" cy="581.15" r="4.9153"/>
  <circle cx="41.614" cy="559.33" r="4.9153"/>
  <circle cx="35.503" cy="538.66" r="4.9153"/>
  <circle cx="34.921" cy="522.37" r="4.9153"/>
  <circle cx="33.466" cy="495.3" r="4.9153"/>
  <circle cx="27.355" cy="483.08" r="4.9153"/>
  <circle cx="36.376" cy="461.55" r="4.9153"/>
  <circle cx="34.048" cy="441.18" r="4.9153"/>
  <circle cx="40.159" cy="431.87" r="4.9153"/>
  <circle cx="40.45" cy="400.15" r="4.9153"/>
  <circle cx="40.45" cy="389.38" r="4.9153"/>
  <circle cx="43.069" cy="368.43" r="4.9153"/>
  <circle cx="40.45" cy="347.18" r="4.9153"/>
  <circle cx="45.979" cy="330.89" r="4.9153"/>
  <circle cx="45.397" cy="311.97" r="4.9153"/>
  <circle cx="42.196" cy="293.05" r="4.9153"/>
  <circle cx="48.016" cy="270.65" r="4.9153"/>
  <circle cx="43.942" cy="248.82" r="4.9153"/>
  <circle cx="52.09" cy="235.44" r="4.9153"/>
  <circle cx="50.053" cy="208.95" r="4.9153"/>
  <circle cx="51.799" cy="192.08" r="4.9153"/>
  <circle cx="57.91" cy="169.96" r="4.9153"/>
  <circle cx="54.418" cy="149.59" r="4.9153"/>
  <circle cx="59.075" cy="133.87" r="4.9153"/>
 </g>
</svg>
