<?xml version="1.0" encoding="UTF-8"?>
<!-- Created with Inkscape (http://www.inkscape.org/) -->
<svg width="100" height="650" version="1.1" viewBox="0 0 100 650" xmlns="http://www.w3.org/2000/svg" xmlns:cc="http://creativecommons.org/ns#" xmlns:dc="http://purl.org/dc/elements/1.1/" xmlns:rdf="http://www.w3.org/1999/02/22-rdf-syntax-ns#">
 <metadata>
  <rdf:RDF>
   <cc:Work rdf:about="">
    <dc:format>image/svg+xml</dc:format>
    <dc:type rdf:resource="http://purl.org/dc/dcmitype/StillImage"/>
    <dc:title/>
   </cc:Work>
  </rdf:RDF>
 </metadata>
 <g transform="translate(-20.927 207.44)" fill="#e00000">
  <circle cx="71.199" cy="437.62" r="4.9153"/>
  <circle cx="70.471" cy="425.98" r="4.9153"/>
  <circle cx="67.62" cy="418.03" r="4.9153"/>
  <circle cx="66.529" cy="414.21" r="4.9153"/>
  <circle cx="68.045" cy="402.33" r="4.9153"/>
  <circle cx="64.77" cy="396.14" r="4.9153"/>
  <circle cx="71.32" cy="386.44" r="4.9153"/>
  <circle cx="65.74" cy="374.55" r="4.9153"/>
  <circle cx="66.226" cy="365.09" r="4.9153"/>
  <circle cx="66.711" cy="347.87" r="4.9153"/>
  <circle cx="59.918" cy="343.01" r="4.9153"/>
  <circle cx="64.528" cy="330.16" r="4.9153"/>
  <circle cx="56.522" cy="318.51" r="4.9153"/>
  <circle cx="60.646" cy="310.27" r="4.9153"/>
  <circle cx="63.8" cy="291.59" r="4.9153"/>
  <circle cx="55.067" cy="288.43" r="4.9153"/>
  <circle cx="61.859" cy="274.36" r="4.9153"/>
  <circle cx="55.552" cy="262.96" r="4.9153"/>
  <circle cx="55.552" cy="253.02" r="4.9153"/>
  <circle cx="53.126" cy="235.06" r="4.9153"/>
  <circle cx="46.091" cy="230.7" r="4.9153"/>
  <circle cx="49.73" cy="219.05" r="4.9153"/>
  <circle cx="41.967" cy="207.9" r="4.9153"/>
  <circle cx="49.002" cy="205.47" r="4.9153"/>
  <circle cx="48.76" cy="192.37" r="4.9153"/>
  <circle cx="42.21" cy="184.61" r="4.9153"/>
  <circle cx="49.487" cy="171.99" r="4.9153"/>
  <circle cx="44.878" cy="160.35" r="4.9153"/>
  <circle cx="51.185" cy="152.34" r="4.9153"/>
  <circle cx="54.582" cy="134.63" r="4.9153"/>
  <circle cx="55.794" cy="120.08" r="4.9153"/>
  <circle cx="52.398" cy="109.65" r="4.9153"/>
  <circle cx="57.007" cy="101.64" r="4.9153"/>
  <circle cx="54.891" cy="83.371" r="4.9153"/>
  <circle cx="61.066" cy="64.846" r="4.9153"/>
 </g>
</svg>
