<?xml version="1.0" encoding="UTF-8"?>
<!-- Created with Inkscape (http://www.inkscape.org/) -->
<svg width="100" height="650" version="1.1" viewBox="0 0 100 650" xmlns="http://www.w3.org/2000/svg" xmlns:cc="http://creativecommons.org/ns#" xmlns:dc="http://purl.org/dc/elements/1.1/" xmlns:rdf="http://www.w3.org/1999/02/22-rdf-syntax-ns#">
 <metadata>
  <rdf:RDF>
   <cc:Work rdf:about="">
    <dc:format>image/svg+xml</dc:format>
    <dc:type rdf:resource="http://purl.org/dc/dcmitype/StillImage"/>
    <dc:title/>
   </cc:Work>
  </rdf:RDF>
 </metadata>
 <g transform="translate(11.714 72.47)" fill="#e00000">
  <circle cx="38.146" cy="572.41" r="4.9153"/>
  <circle cx="39.453" cy="559.33" r="4.9153"/>
  <circle cx="35.53" cy="551.92" r="4.9153"/>
  <circle cx="35.53" cy="544.73" r="4.9153"/>
  <circle cx="34.658" cy="533.61" r="4.9153"/>
  <circle cx="34.876" cy="525.33" r="4.9153"/>
  <circle cx="35.748" cy="512.68" r="4.9153"/>
  <circle cx="35.53" cy="500.91" r="4.9153"/>
  <circle cx="38.582" cy="485" r="4.9153"/>
  <circle cx="36.184" cy="471.49" r="4.9153"/>
  <circle cx="36.184" cy="460.59" r="4.9153"/>
  <circle cx="37.056" cy="443.8" r="4.9153"/>
  <circle cx="33.786" cy="430.51" r="4.9153"/>
  <circle cx="44.903" cy="417.87" r="4.9153"/>
  <circle cx="42.287" cy="401.08" r="4.9153"/>
  <circle cx="45.993" cy="387.78" r="4.9153"/>
  <circle cx="48.39" cy="372.09" r="4.9153"/>
  <circle cx="46.865" cy="357.05" r="4.9153"/>
  <circle cx="53.84" cy="343.54" r="4.9153"/>
  <circle cx="49.044" cy="329.37" r="4.9153"/>
  <circle cx="47.518" cy="319.78" r="4.9153"/>
  <circle cx="52.75" cy="298.2" r="4.9153"/>
  <circle cx="45.993" cy="287.52" r="4.9153"/>
  <circle cx="52.532" cy="274.66" r="4.9153"/>
  <circle cx="44.685" cy="254.38" r="4.9153"/>
  <circle cx="43.813" cy="248.06" r="4.9153"/>
  <circle cx="43.595" cy="227.14" r="4.9153"/>
  <circle cx="37.492" cy="214.06" r="4.9153"/>
  <circle cx="39.453" cy="199.24" r="4.9153"/>
  <circle cx="37.928" cy="177.44" r="4.9153"/>
  <circle cx="41.851" cy="170.68" r="4.9153"/>
  <circle cx="46.865" cy="149.97" r="4.9153"/>
  <circle cx="42.505" cy="139.08" r="4.9153"/>
  <circle cx="52.968" cy="123.82" r="4.9153"/>
  <circle cx="45.121" cy="103.33" r="4.9153"/>
 </g>
</svg>
