<?xml version="1.0" encoding="UTF-8"?>
<!-- Created with Inkscape (http://www.inkscape.org/) -->
<svg width="100" height="650" version="1.1" viewBox="0 0 100 650" xmlns="http://www.w3.org/2000/svg" xmlns:cc="http://creativecommons.org/ns#" xmlns:dc="http://purl.org/dc/elements/1.1/" xmlns:rdf="http://www.w3.org/1999/02/22-rdf-syntax-ns#">
 <metadata>
  <rdf:RDF>
   <cc:Work rdf:about="">
    <dc:format>image/svg+xml</dc:format>
    <dc:type rdf:resource="http://purl.org/dc/dcmitype/StillImage"/>
    <dc:title/>
   </cc:Work>
  </rdf:RDF>
 </metadata>
 <g transform="translate(31.819 222.32)" fill="#e00000">
  <circle cx="17.333" cy="422.5" r="4.9153"/>
  <circle cx="20.166" cy="404.5" r="4.9153"/>
  <circle cx="18.666" cy="395" r="4.9153"/>
  <circle cx="16.833" cy="383.17" r="4.9153"/>
  <circle cx="13.166" cy="369.33" r="4.9153"/>
  <circle cx="16.333" cy="354.83" r="4.9153"/>
  <circle cx="20.5" cy="339.33" r="4.9153"/>
  <circle cx="17.833" cy="326" r="4.9153"/>
  <circle cx="20.5" cy="312.5" r="4.9153"/>
  <circle cx="24.333" cy="299.34" r="4.9153"/>
  <circle cx="29.5" cy="284.34" r="4.9153"/>
  <circle cx="33.5" cy="271.17" r="4.9153"/>
  <circle cx="30.166" cy="257.84" r="4.9153"/>
  <circle cx="31.5" cy="244.17" r="4.9153"/>
  <circle cx="30.833" cy="228.17" r="4.9153"/>
  <circle cx="25" cy="214.5" r="4.9153"/>
  <circle cx="27.833" cy="201.17" r="4.9153"/>
  <circle cx="24" cy="186.17" r="4.9153"/>
  <circle cx="28.333" cy="174.34" r="4.9153"/>
  <circle cx="34.5" cy="161.5" r="4.9153"/>
  <circle cx="32.5" cy="149.67" r="4.9153"/>
  <circle cx="27.166" cy="134.34" r="4.9153"/>
  <circle cx="22.833" cy="119.67" r="4.9153"/>
  <circle cx="24.166" cy="105.67" r="4.9153"/>
  <circle cx="28.833" cy="90.171" r="4.9153"/>
  <circle cx="30.333" cy="75.672" r="4.9153"/>
  <circle cx="35.5" cy="62.005" r="4.9153"/>
  <circle cx="41.166" cy="46.172" r="4.9153"/>
  <circle cx="36.666" cy="30.172" r="4.9153"/>
  <circle cx="33.166" cy="16.839" r="4.9153"/>
 </g>
</svg>
