<?xml version="1.0" encoding="UTF-8"?>
<!-- Created with Inkscape (http://www.inkscape.org/) -->
<svg width="100" height="650" version="1.1" viewBox="0 0 100 650" xmlns="http://www.w3.org/2000/svg" xmlns:cc="http://creativecommons.org/ns#" xmlns:dc="http://purl.org/dc/elements/1.1/" xmlns:rdf="http://www.w3.org/1999/02/22-rdf-syntax-ns#">
 <metadata>
  <rdf:RDF>
   <cc:Work rdf:about="">
    <dc:format>image/svg+xml</dc:format>
    <dc:type rdf:resource="http://purl.org/dc/dcmitype/StillImage"/>
    <dc:title/>
   </cc:Work>
  </rdf:RDF>
 </metadata>
 <g transform="translate(34.576 167.01)" fill="#e00000">
  <circle cx="10.731" cy="477.9" r="4.9153"/>
  <circle cx="15.356" cy="467.54" r="4.9153"/>
  <circle cx="18.317" cy="460.51" r="4.9153"/>
  <circle cx="20.722" cy="445.71" r="4.9153"/>
  <circle cx="26.642" cy="429.43" r="4.9153"/>
  <circle cx="24.237" cy="413.33" r="4.9153"/>
  <circle cx="28.307" cy="397.98" r="4.9153"/>
  <circle cx="25.717" cy="381.88" r="4.9153"/>
  <circle cx="19.797" cy="366.89" r="4.9153"/>
  <circle cx="22.572" cy="353.02" r="4.9153"/>
  <circle cx="17.392" cy="335.81" r="4.9153"/>
  <circle cx="19.982" cy="319.53" r="4.9153"/>
  <circle cx="16.836" cy="306.58" r="4.9153"/>
  <circle cx="18.687" cy="288.45" r="4.9153"/>
  <circle cx="26.087" cy="271.61" r="4.9153"/>
  <circle cx="20.537" cy="255.14" r="4.9153"/>
  <circle cx="25.532" cy="238.31" r="4.9153"/>
  <circle cx="29.788" cy="222.03" r="4.9153"/>
  <circle cx="33.858" cy="203.89" r="4.9153"/>
  <circle cx="37.188" cy="191.31" r="4.9153"/>
  <circle cx="40.334" cy="177.62" r="4.9153"/>
  <circle cx="48.844" cy="163.56" r="4.9153"/>
  <circle cx="46.994" cy="146.72" r="4.9153"/>
  <circle cx="43.294" cy="127.48" r="4.9153"/>
  <circle cx="46.069" cy="109.35" r="4.9153"/>
  <circle cx="51.064" cy="93.44" r="4.9153"/>
  <circle cx="55.135" cy="74.753" r="4.9153"/>
  <circle cx="53.285" cy="56.251" r="4.9153"/>
  <circle cx="55.69" cy="37.565" r="4.9153"/>
  <circle cx="60.13" cy="18.878" r="4.9153"/>
 </g>
</svg>
