<?xml version="1.0" encoding="UTF-8"?>
<!-- Created with Inkscape (http://www.inkscape.org/) -->
<svg width="100" height="650" version="1.1" viewBox="0 0 100 650" xmlns="http://www.w3.org/2000/svg" xmlns:cc="http://creativecommons.org/ns#" xmlns:dc="http://purl.org/dc/elements/1.1/" xmlns:rdf="http://www.w3.org/1999/02/22-rdf-syntax-ns#">
 <metadata>
  <rdf:RDF>
   <cc:Work rdf:about="">
    <dc:format>image/svg+xml</dc:format>
    <dc:type rdf:resource="http://purl.org/dc/dcmitype/StillImage"/>
    <dc:title/>
   </cc:Work>
  </rdf:RDF>
 </metadata>
 <g transform="translate(5.9303 206.8)" fill="#e00000">
  <circle cx="43.817" cy="438.34" r="4.9153"/>
  <circle cx="46.042" cy="419.86" r="4.9153"/>
  <circle cx="47.582" cy="410.27" r="4.9153"/>
  <circle cx="46.213" cy="400.35" r="4.9153"/>
  <circle cx="42.961" cy="386.14" r="4.9153"/>
  <circle cx="39.195" cy="374.67" r="4.9153"/>
  <circle cx="44.501" cy="360.3" r="4.9153"/>
  <circle cx="42.105" cy="344.21" r="4.9153"/>
  <circle cx="47.069" cy="332.91" r="4.9153"/>
  <circle cx="45.357" cy="318.7" r="4.9153"/>
  <circle cx="47.924" cy="304.84" r="4.9153"/>
  <circle cx="52.203" cy="291.66" r="4.9153"/>
  <circle cx="46.898" cy="277.11" r="4.9153"/>
  <circle cx="42.105" cy="263.08" r="4.9153"/>
  <circle cx="38.511" cy="247.67" r="4.9153"/>
  <circle cx="41.763" cy="234.32" r="4.9153"/>
  <circle cx="43.988" cy="218.58" r="4.9153"/>
  <circle cx="48.438" cy="202.66" r="4.9153"/>
  <circle cx="53.23" cy="190.33" r="4.9153"/>
  <circle cx="51.176" cy="175.1" r="4.9153"/>
  <circle cx="53.744" cy="160.72" r="4.9153"/>
  <circle cx="50.321" cy="144.29" r="4.9153"/>
  <circle cx="51.519" cy="130.6" r="4.9153"/>
  <circle cx="56.654" cy="116.39" r="4.9153"/>
  <circle cx="54.257" cy="101.16" r="4.9153"/>
  <circle cx="51.519" cy="84.558" r="4.9153"/>
  <circle cx="46.898" cy="69.668" r="4.9153"/>
  <circle cx="41.763" cy="54.606" r="4.9153"/>
  <circle cx="36.799" cy="41.769" r="4.9153"/>
  <circle cx="38.853" cy="24.653" r="4.9153"/>
 </g>
</svg>
