<?xml version="1.0" encoding="UTF-8"?>
<!-- Created with Inkscape (http://www.inkscape.org/) -->
<svg width="100" height="650" version="1.1" viewBox="0 0 100 650" xmlns="http://www.w3.org/2000/svg" xmlns:cc="http://creativecommons.org/ns#" xmlns:dc="http://purl.org/dc/elements/1.1/" xmlns:rdf="http://www.w3.org/1999/02/22-rdf-syntax-ns#">
 <metadata>
  <rdf:RDF>
   <cc:Work rdf:about="">
    <dc:format>image/svg+xml</dc:format>
    <dc:type rdf:resource="http://purl.org/dc/dcmitype/StillImage"/>
    <dc:title/>
   </cc:Work>
  </rdf:RDF>
 </metadata>
 <g transform="translate(12.381 231.53)" fill="#e00000">
  <circle cx="37.368" cy="413.29" r="4.9153"/>
  <circle cx="35.567" cy="395.17" r="4.9153"/>
  <circle cx="34.666" cy="388.08" r="4.9153"/>
  <circle cx="32.19" cy="376.83" r="4.9153"/>
  <circle cx="30.614" cy="364.9" r="4.9153"/>
  <circle cx="32.753" cy="353.98" r="4.9153"/>
  <circle cx="36.467" cy="341.37" r="4.9153"/>
  <circle cx="35.342" cy="326.29" r="4.9153"/>
  <circle cx="36.58" cy="312.11" r="4.9153"/>
  <circle cx="39.844" cy="299.39" r="4.9153"/>
  <circle cx="42.432" cy="284.42" r="4.9153"/>
  <circle cx="39.731" cy="270.8" r="4.9153"/>
  <circle cx="43.558" cy="256.73" r="4.9153"/>
  <circle cx="42.432" cy="241.65" r="4.9153"/>
  <circle cx="45.697" cy="226.57" r="4.9153"/>
  <circle cx="43.896" cy="212.73" r="4.9153"/>
  <circle cx="46.372" cy="197.08" r="4.9153"/>
  <circle cx="49.186" cy="182.9" r="4.9153"/>
  <circle cx="53.688" cy="166.24" r="4.9153"/>
  <circle cx="50.649" cy="153.86" r="4.9153"/>
  <circle cx="45.359" cy="138.44" r="4.9153"/>
  <circle cx="40.969" cy="125.38" r="4.9153"/>
  <circle cx="39.281" cy="111.65" r="4.9153"/>
  <circle cx="33.766" cy="98.934" r="4.9153"/>
  <circle cx="30.164" cy="85.428" r="4.9153"/>
  <circle cx="31.065" cy="71.133" r="4.9153"/>
  <circle cx="26.675" cy="58.415" r="4.9153"/>
  <circle cx="24.199" cy="44.909" r="4.9153"/>
  <circle cx="19.359" cy="32.753" r="4.9153"/>
  <circle cx="23.524" cy="18.684" r="4.9153"/>
 </g>
</svg>
