<?xml version="1.0" encoding="UTF-8"?>
<!-- Created with Inkscape (http://www.inkscape.org/) -->
<svg width="100" height="650" version="1.1" viewBox="0 0 100 650" xmlns="http://www.w3.org/2000/svg" xmlns:cc="http://creativecommons.org/ns#" xmlns:dc="http://purl.org/dc/elements/1.1/" xmlns:rdf="http://www.w3.org/1999/02/22-rdf-syntax-ns#">
 <metadata>
  <rdf:RDF>
   <cc:Work rdf:about="">
    <dc:format>image/svg+xml</dc:format>
    <dc:type rdf:resource="http://purl.org/dc/dcmitype/StillImage"/>
    <dc:title/>
   </cc:Work>
  </rdf:RDF>
 </metadata>
 <g transform="translate(33.61 285.1)" fill="#e00000">
  <circle cx="16.213" cy="359.75" r="4.9153"/>
  <circle cx="18.015" cy="345.47" r="4.9153"/>
  <circle cx="18.015" cy="337.99" r="4.9153"/>
  <circle cx="22.726" cy="328.15" r="4.9153"/>
  <circle cx="25.914" cy="316.65" r="4.9153"/>
  <circle cx="24.943" cy="303.9" r="4.9153"/>
  <circle cx="27.299" cy="292.95" r="4.9153"/>
  <circle cx="30.348" cy="281.17" r="4.9153"/>
  <circle cx="35.752" cy="270.78" r="4.9153"/>
  <circle cx="31.734" cy="259.97" r="4.9153"/>
  <circle cx="37.554" cy="247.36" r="4.9153"/>
  <circle cx="32.288" cy="235.03" r="4.9153"/>
  <circle cx="25.636" cy="221.72" r="4.9153"/>
  <circle cx="21.202" cy="208.7" r="4.9153"/>
  <circle cx="23.142" cy="196.64" r="4.9153"/>
  <circle cx="26.468" cy="182.51" r="4.9153"/>
  <circle cx="30.071" cy="171.01" r="4.9153"/>
  <circle cx="37.138" cy="158.81" r="4.9153"/>
  <circle cx="32.704" cy="146.89" r="4.9153"/>
  <circle cx="36.445" cy="136.5" r="4.9153"/>
  <circle cx="39.771" cy="122.51" r="4.9153"/>
  <circle cx="43.79" cy="110.17" r="4.9153"/>
  <circle cx="48.224" cy="99.64" r="4.9153"/>
  <circle cx="51.827" cy="87.446" r="4.9153"/>
  <circle cx="48.501" cy="76.221" r="4.9153"/>
  <circle cx="44.76" cy="64.997" r="4.9153"/>
  <circle cx="49.194" cy="55.989" r="4.9153"/>
  <circle cx="53.213" cy="42.825" r="4.9153"/>
  <circle cx="50.996" cy="30.769" r="4.9153"/>
  <circle cx="54.46" cy="20.653" r="4.9153"/>
 </g>
</svg>
