<?xml version="1.0" encoding="UTF-8"?>
<!-- Created with Inkscape (http://www.inkscape.org/) -->
<svg width="100" height="650" version="1.1" viewBox="0 0 100 650" xmlns="http://www.w3.org/2000/svg" xmlns:cc="http://creativecommons.org/ns#" xmlns:dc="http://purl.org/dc/elements/1.1/" xmlns:rdf="http://www.w3.org/1999/02/22-rdf-syntax-ns#">
 <metadata>
  <rdf:RDF>
   <cc:Work rdf:about="">
    <dc:format>image/svg+xml</dc:format>
    <dc:type rdf:resource="http://purl.org/dc/dcmitype/StillImage"/>
    <dc:title/>
   </cc:Work>
  </rdf:RDF>
 </metadata>
 <g transform="translate(6.3419 242.1)" fill="#e00000">
  <circle cx="43.62" cy="402.79" r="4.9153"/>
  <circle cx="47.177" cy="385.31" r="4.9153"/>
  <circle cx="43.929" cy="375.88" r="4.9153"/>
  <circle cx="40.99" cy="365.05" r="4.9153"/>
  <circle cx="38.206" cy="350.66" r="4.9153"/>
  <circle cx="35.267" cy="336.28" r="4.9153"/>
  <circle cx="31.864" cy="320.66" r="4.9153"/>
  <circle cx="26.141" cy="307.35" r="4.9153"/>
  <circle cx="28.925" cy="294.82" r="4.9153"/>
  <circle cx="32.637" cy="282.3" r="4.9153"/>
  <circle cx="30.627" cy="270.23" r="4.9153"/>
  <circle cx="31.4" cy="257.08" r="4.9153"/>
  <circle cx="30.163" cy="243.63" r="4.9153"/>
  <circle cx="25.986" cy="230.01" r="4.9153"/>
  <circle cx="27.688" cy="215.94" r="4.9153"/>
  <circle cx="32.173" cy="203.25" r="4.9153"/>
  <circle cx="38.051" cy="191.19" r="4.9153"/>
  <circle cx="36.35" cy="176.8" r="4.9153"/>
  <circle cx="37.742" cy="163.81" r="4.9153"/>
  <circle cx="35.886" cy="150.04" r="4.9153"/>
  <circle cx="31.864" cy="135.66" r="4.9153"/>
  <circle cx="26.76" cy="124.68" r="4.9153"/>
  <circle cx="24.285" cy="111.37" r="4.9153"/>
  <circle cx="18.716" cy="98.691" r="4.9153"/>
  <circle cx="23.511" cy="84.615" r="4.9153"/>
  <circle cx="26.76" cy="71.777" r="4.9153"/>
  <circle cx="22.738" cy="58.474" r="4.9153"/>
  <circle cx="20.263" cy="43.006" r="4.9153"/>
  <circle cx="23.666" cy="29.24" r="4.9153"/>
  <circle cx="20.418" cy="15.009" r="4.9153"/>
 </g>
</svg>
