<?xml version="1.0" encoding="UTF-8"?>
<!-- Created with Inkscape (http://www.inkscape.org/) -->
<svg width="100" height="650" version="1.1" viewBox="0 0 100 650" xmlns="http://www.w3.org/2000/svg" xmlns:cc="http://creativecommons.org/ns#" xmlns:dc="http://purl.org/dc/elements/1.1/" xmlns:rdf="http://www.w3.org/1999/02/22-rdf-syntax-ns#">
 <metadata>
  <rdf:RDF>
   <cc:Work rdf:about="">
    <dc:format>image/svg+xml</dc:format>
    <dc:type rdf:resource="http://purl.org/dc/dcmitype/StillImage"/>
    <dc:title/>
   </cc:Work>
  </rdf:RDF>
 </metadata>
 <g transform="translate(0,268)" fill="#e00000">
  <circle cx="47.75" cy="375.93" r="4.9153"/>
  <circle cx="51.19" cy="358.93" r="4.9153"/>
  <circle cx="52.404" cy="350.13" r="4.9153"/>
  <circle cx="54.629" cy="339.11" r="4.9153"/>
  <circle cx="57.158" cy="328.58" r="4.9153"/>
  <circle cx="52.909" cy="316.34" r="4.9153"/>
  <circle cx="50.481" cy="302.28" r="4.9153"/>
  <circle cx="51.392" cy="289.84" r="4.9153"/>
  <circle cx="49.874" cy="276.08" r="4.9153"/>
  <circle cx="51.291" cy="263.13" r="4.9153"/>
  <circle cx="48.863" cy="250.18" r="4.9153"/>
  <circle cx="43.096" cy="234.8" r="4.9153"/>
  <circle cx="36.622" cy="221.25" r="4.9153"/>
  <circle cx="34.194" cy="208.1" r="4.9153"/>
  <circle cx="28.832" cy="195.86" r="4.9153"/>
  <circle cx="30.046" cy="185.84" r="4.9153"/>
  <circle cx="25.898" cy="173.09" r="4.9153"/>
  <circle cx="21.144" cy="160.55" r="4.9153"/>
  <circle cx="23.774" cy="149.52" r="4.9153"/>
  <circle cx="28.225" cy="136.67" r="4.9153"/>
  <circle cx="32.676" cy="125.24" r="4.9153"/>
  <circle cx="29.136" cy="115.23" r="4.9153"/>
  <circle cx="25.089" cy="105.52" r="4.9153"/>
  <circle cx="27.213" cy="95.095" r="4.9153"/>
  <circle cx="29.338" cy="85.383" r="4.9153"/>
  <circle cx="25.089" cy="74.255" r="4.9153"/>
  <circle cx="27.011" cy="61.61" r="4.9153"/>
  <circle cx="32.474" cy="50.279" r="4.9153"/>
  <circle cx="30.248" cy="38.24" r="4.9153"/>
  <circle cx="28.124" cy="25.898" r="4.9153"/>
 </g>
</svg>
