<?xml version="1.0" encoding="UTF-8"?>
<!-- Created with Inkscape (http://www.inkscape.org/) -->
<svg width="100" height="650" version="1.1" viewBox="0 0 100 650" xmlns="http://www.w3.org/2000/svg" xmlns:cc="http://creativecommons.org/ns#" xmlns:dc="http://purl.org/dc/elements/1.1/" xmlns:rdf="http://www.w3.org/1999/02/22-rdf-syntax-ns#">
 <metadata>
  <rdf:RDF>
   <cc:Work rdf:about="">
    <dc:format>image/svg+xml</dc:format>
    <dc:type rdf:resource="http://purl.org/dc/dcmitype/StillImage"/>
    <dc:title/>
   </cc:Work>
  </rdf:RDF>
 </metadata>
 <g transform="translate(0,159)" fill="#e00000">
  <circle cx="46.551" cy="474.1" r="4.9153"/>
  <circle cx="50.192" cy="453.55" r="4.9153"/>
  <circle cx="47.852" cy="440.29" r="4.9153"/>
  <circle cx="49.152" cy="428.06" r="4.9153"/>
  <circle cx="48.892" cy="412.46" r="4.9153"/>
  <circle cx="52.533" cy="398.42" r="4.9153"/>
  <circle cx="58.254" cy="382.81" r="4.9153"/>
  <circle cx="53.053" cy="366.69" r="4.9153"/>
  <circle cx="47.332" cy="353.95" r="4.9153"/>
  <circle cx="51.493" cy="342.24" r="4.9153"/>
  <circle cx="48.632" cy="327.16" r="4.9153"/>
  <circle cx="45.251" cy="311.56" r="4.9153"/>
  <circle cx="39.53" cy="295.95" r="4.9153"/>
  <circle cx="34.328" cy="282.17" r="4.9153"/>
  <circle cx="37.969" cy="266.83" r="4.9153"/>
  <circle cx="44.991" cy="252.78" r="4.9153"/>
  <circle cx="41.87" cy="236.92" r="4.9153"/>
  <circle cx="43.171" cy="218.19" r="4.9153"/>
  <circle cx="40.83" cy="204.15" r="4.9153"/>
  <circle cx="37.189" cy="186.47" r="4.9153"/>
  <circle cx="32.248" cy="171.38" r="4.9153"/>
  <circle cx="26.266" cy="156.3" r="4.9153"/>
  <circle cx="21.065" cy="141.21" r="4.9153"/>
  <circle cx="24.706" cy="123.27" r="4.9153"/>
  <circle cx="31.728" cy="105.33" r="4.9153"/>
  <circle cx="36.669" cy="92.583" r="4.9153"/>
  <circle cx="41.87" cy="71.778" r="4.9153"/>
  <circle cx="48.372" cy="54.873" r="4.9153"/>
  <circle cx="52.533" cy="34.588" r="4.9153"/>
  <circle cx="55.914" cy="18.985" r="4.9153"/>
 </g>
</svg>
