<?xml version="1.0" encoding="UTF-8"?>
<!-- Created with Inkscape (http://www.inkscape.org/) -->
<svg width="100" height="650" version="1.1" viewBox="0 0 100 650" xmlns="http://www.w3.org/2000/svg" xmlns:cc="http://creativecommons.org/ns#" xmlns:dc="http://purl.org/dc/elements/1.1/" xmlns:rdf="http://www.w3.org/1999/02/22-rdf-syntax-ns#">
 <metadata>
  <rdf:RDF>
   <cc:Work rdf:about="">
    <dc:format>image/svg+xml</dc:format>
    <dc:type rdf:resource="http://purl.org/dc/dcmitype/StillImage"/>
    <dc:title/>
   </cc:Work>
  </rdf:RDF>
 </metadata>
 <g transform="translate(11.479 147.94)" fill="#e00000">
  <circle cx="37.989" cy="496.87" r="4.9153"/>
  <circle cx="40.722" cy="476.37" r="4.9153"/>
  <circle cx="38.809" cy="465.17" r="4.9153"/>
  <circle cx="36.35" cy="452.05" r="4.9153"/>
  <circle cx="32.25" cy="438.11" r="4.9153"/>
  <circle cx="34.71" cy="421.44" r="4.9153"/>
  <circle cx="39.903" cy="405.58" r="4.9153"/>
  <circle cx="43.729" cy="388.64" r="4.9153"/>
  <circle cx="42.089" cy="371.15" r="4.9153"/>
  <circle cx="44.822" cy="354.2" r="4.9153"/>
  <circle cx="46.735" cy="335.35" r="4.9153"/>
  <circle cx="44.549" cy="316.21" r="4.9153"/>
  <circle cx="41.679" cy="298.31" r="4.9153"/>
  <circle cx="45.779" cy="282.05" r="4.9153"/>
  <circle cx="47.965" cy="263.6" r="4.9153"/>
  <circle cx="52.065" cy="248.71" r="4.9153"/>
  <circle cx="57.121" cy="233.68" r="4.9153"/>
  <circle cx="56.847" cy="215.64" r="4.9153"/>
  <circle cx="52.748" cy="197.87" r="4.9153"/>
  <circle cx="49.605" cy="179.29" r="4.9153"/>
  <circle cx="43.592" cy="161.8" r="4.9153"/>
  <circle cx="47.692" cy="146.22" r="4.9153"/>
  <circle cx="42.636" cy="132.42" r="4.9153"/>
  <circle cx="44.549" cy="117.52" r="4.9153"/>
  <circle cx="47.282" cy="102.9" r="4.9153"/>
  <circle cx="50.425" cy="90.464" r="4.9153"/>
  <circle cx="54.934" cy="73.929" r="4.9153"/>
  <circle cx="50.971" cy="56.301" r="4.9153"/>
  <circle cx="46.872" cy="43.456" r="4.9153"/>
  <circle cx="44.275" cy="23.778" r="4.9153"/>
 </g>
</svg>
