<?xml version="1.0" encoding="UTF-8"?>
<!-- Created with Inkscape (http://www.inkscape.org/) -->
<svg width="100" height="650" version="1.1" viewBox="0 0 100 650" xmlns="http://www.w3.org/2000/svg" xmlns:cc="http://creativecommons.org/ns#" xmlns:dc="http://purl.org/dc/elements/1.1/" xmlns:rdf="http://www.w3.org/1999/02/22-rdf-syntax-ns#">
 <metadata>
  <rdf:RDF>
   <cc:Work rdf:about="">
    <dc:format>image/svg+xml</dc:format>
    <dc:type rdf:resource="http://purl.org/dc/dcmitype/StillImage"/>
    <dc:title/>
   </cc:Work>
  </rdf:RDF>
 </metadata>
 <g transform="translate(35.559 293.87)" fill="#e00000">
  <circle cx="14.061" cy="350.99" r="4.9153"/>
  <circle cx="16.495" cy="329.9" r="4.9153"/>
  <circle cx="19.74" cy="320.17" r="4.9153"/>
  <circle cx="16.765" cy="309.35" r="4.9153"/>
  <circle cx="19.74" cy="296.37" r="4.9153"/>
  <circle cx="22.985" cy="285.02" r="4.9153"/>
  <circle cx="25.689" cy="272.31" r="4.9153"/>
  <circle cx="31.638" cy="259.33" r="4.9153"/>
  <circle cx="38.939" cy="246.35" r="4.9153"/>
  <circle cx="42.995" cy="234.72" r="4.9153"/>
  <circle cx="47.321" cy="222.01" r="4.9153"/>
  <circle cx="50.296" cy="210.11" r="4.9153"/>
  <circle cx="51.918" cy="199.3" r="4.9153"/>
  <circle cx="49.485" cy="186.86" r="4.9153"/>
  <circle cx="52.189" cy="177.93" r="4.9153"/>
  <circle cx="49.755" cy="168.47" r="4.9153"/>
  <circle cx="53.27" cy="159" r="4.9153"/>
  <circle cx="50.837" cy="149.81" r="4.9153"/>
  <circle cx="46.51" cy="138.72" r="4.9153"/>
  <circle cx="43.806" cy="128.99" r="4.9153"/>
  <circle cx="41.102" cy="117.63" r="4.9153"/>
  <circle cx="37.587" cy="104.38" r="4.9153"/>
  <circle cx="31.367" cy="93.836" r="4.9153"/>
  <circle cx="30.286" cy="81.398" r="4.9153"/>
  <circle cx="31.367" cy="71.393" r="4.9153"/>
  <circle cx="34.612" cy="56.52" r="4.9153"/>
  <circle cx="37.587" cy="44.352" r="4.9153"/>
  <circle cx="35.373" cy="33.748" r="4.9153"/>
  <circle cx="36.999" cy="28.299" r="4.9153"/>
  <circle cx="34.8" cy="12.237" r="4.9153"/>
 </g>
</svg>
