<?xml version="1.0" encoding="UTF-8"?>
<!-- Created with Inkscape (http://www.inkscape.org/) -->
<svg width="100" height="650" version="1.1" viewBox="0 0 100 650" xmlns="http://www.w3.org/2000/svg" xmlns:cc="http://creativecommons.org/ns#" xmlns:dc="http://purl.org/dc/elements/1.1/" xmlns:rdf="http://www.w3.org/1999/02/22-rdf-syntax-ns#">
 <metadata>
  <rdf:RDF>
   <cc:Work rdf:about="">
    <dc:format>image/svg+xml</dc:format>
    <dc:type rdf:resource="http://purl.org/dc/dcmitype/StillImage"/>
    <dc:title/>
   </cc:Work>
  </rdf:RDF>
 </metadata>
 <g transform="translate(-4.9163 231.29)" fill="#e00000">
  <circle cx="54.548" cy="413.67" r="4.9153"/>
  <circle cx="53.845" cy="394.01" r="4.9153"/>
  <circle cx="51.972" cy="385.58" r="4.9153"/>
  <circle cx="48.695" cy="374.58" r="4.9153"/>
  <circle cx="45.183" cy="362.17" r="4.9153"/>
  <circle cx="40.033" cy="348.59" r="4.9153"/>
  <circle cx="44.481" cy="333.61" r="4.9153"/>
  <circle cx="39.096" cy="322.6" r="4.9153"/>
  <circle cx="33.478" cy="308.56" r="4.9153"/>
  <circle cx="36.989" cy="295.92" r="4.9153"/>
  <circle cx="40.969" cy="282.34" r="4.9153"/>
  <circle cx="38.862" cy="268.06" r="4.9153"/>
  <circle cx="32.541" cy="255.88" r="4.9153"/>
  <circle cx="36.989" cy="243.71" r="4.9153"/>
  <circle cx="32.115" cy="230.77" r="4.9153"/>
  <circle cx="36.088" cy="217.53" r="4.9153"/>
  <circle cx="33.439" cy="205.28" r="4.9153"/>
  <circle cx="30.46" cy="190.71" r="4.9153"/>
  <circle cx="24.5" cy="178.46" r="4.9153"/>
  <circle cx="27.811" cy="163.89" r="4.9153"/>
  <circle cx="24.169" cy="149.32" r="4.9153"/>
  <circle cx="27.149" cy="135.09" r="4.9153"/>
  <circle cx="23.176" cy="122.51" r="4.9153"/>
  <circle cx="21.52" cy="104.96" r="4.9153"/>
  <circle cx="23.838" cy="92.378" r="4.9153"/>
  <circle cx="27.149" cy="77.81" r="4.9153"/>
  <circle cx="33.108" cy="64.567" r="4.9153"/>
  <circle cx="30.791" cy="48.344" r="4.9153"/>
  <circle cx="28.804" cy="33.776" r="4.9153"/>
  <circle cx="24.169" cy="18.546" r="4.9153"/>
 </g>
</svg>
