<?xml version="1.0" encoding="UTF-8"?>
<!-- Created with Inkscape (http://www.inkscape.org/) -->
<svg width="100" height="650" version="1.1" viewBox="0 0 100 650" xmlns="http://www.w3.org/2000/svg" xmlns:cc="http://creativecommons.org/ns#" xmlns:dc="http://purl.org/dc/elements/1.1/" xmlns:rdf="http://www.w3.org/1999/02/22-rdf-syntax-ns#">
 <metadata>
  <rdf:RDF>
   <cc:Work rdf:about="">
    <dc:format>image/svg+xml</dc:format>
    <dc:type rdf:resource="http://purl.org/dc/dcmitype/StillImage"/>
    <dc:title/>
   </cc:Work>
  </rdf:RDF>
 </metadata>
 <g transform="translate(29.309 234.13)" fill="#e00000">
  <circle cx="20.5" cy="410.9" r="4.9153"/>
  <circle cx="23.413" cy="390.29" r="4.9153"/>
  <circle cx="19.94" cy="380.54" r="4.9153"/>
  <circle cx="16.691" cy="368.22" r="4.9153"/>
  <circle cx="18.596" cy="355.34" r="4.9153"/>
  <circle cx="22.405" cy="340.33" r="4.9153"/>
  <circle cx="25.989" cy="324.53" r="4.9153"/>
  <circle cx="29.91" cy="310.42" r="4.9153"/>
  <circle cx="33.047" cy="295.63" r="4.9153"/>
  <circle cx="36.632" cy="283.31" r="4.9153"/>
  <circle cx="40.328" cy="268.18" r="4.9153"/>
  <circle cx="38.088" cy="255.19" r="4.9153"/>
  <circle cx="34.615" cy="240.63" r="4.9153"/>
  <circle cx="28.79" cy="228.42" r="4.9153"/>
  <circle cx="22.853" cy="215.76" r="4.9153"/>
  <circle cx="18.596" cy="200.3" r="4.9153"/>
  <circle cx="14.675" cy="186.97" r="4.9153"/>
  <circle cx="17.364" cy="173.3" r="4.9153"/>
  <circle cx="13.219" cy="162.55" r="4.9153"/>
  <circle cx="16.691" cy="149.33" r="4.9153"/>
  <circle cx="20.164" cy="136.89" r="4.9153"/>
  <circle cx="24.421" cy="125.47" r="4.9153"/>
  <circle cx="26.886" cy="113.59" r="4.9153"/>
  <circle cx="25.429" cy="99.477" r="4.9153"/>
  <circle cx="22.293" cy="87.042" r="4.9153"/>
  <circle cx="25.205" cy="75.616" r="4.9153"/>
  <circle cx="27.782" cy="60.605" r="4.9153"/>
  <circle cx="33.159" cy="46.938" r="4.9153"/>
  <circle cx="36.968" cy="31.927" r="4.9153"/>
  <circle cx="32.487" cy="16.579" r="4.9153"/>
 </g>
</svg>
