<?xml version="1.0" encoding="UTF-8"?>
<!-- Created with Inkscape (http://www.inkscape.org/) -->
<svg width="100" height="650" version="1.1" viewBox="0 0 100 650" xmlns="http://www.w3.org/2000/svg" xmlns:cc="http://creativecommons.org/ns#" xmlns:dc="http://purl.org/dc/elements/1.1/" xmlns:rdf="http://www.w3.org/1999/02/22-rdf-syntax-ns#">
 <metadata>
  <rdf:RDF>
   <cc:Work rdf:about="">
    <dc:format>image/svg+xml</dc:format>
    <dc:type rdf:resource="http://purl.org/dc/dcmitype/StillImage"/>
    <dc:title/>
   </cc:Work>
  </rdf:RDF>
 </metadata>
 <g transform="translate(-12.846 33.4)" fill="#e00000">
  <circle cx="62.58" cy="611.64" r="4.9153"/>
  <circle cx="58.359" cy="581.73" r="4.9153"/>
  <circle cx="57.074" cy="569.8" r="4.9153"/>
  <circle cx="57.625" cy="541.36" r="4.9153"/>
  <circle cx="54.505" cy="524.84" r="4.9153"/>
  <circle cx="54.872" cy="505.2" r="4.9153"/>
  <circle cx="55.055" cy="483.37" r="4.9153"/>
  <circle cx="53.404" cy="461.71" r="4.9153"/>
  <circle cx="53.404" cy="444.09" r="4.9153"/>
  <circle cx="55.055" cy="420.42" r="4.9153"/>
  <circle cx="59.643" cy="398.03" r="4.9153"/>
  <circle cx="57.441" cy="372.15" r="4.9153"/>
  <circle cx="53.404" cy="351.42" r="4.9153"/>
  <circle cx="52.303" cy="326.27" r="4.9153"/>
  <circle cx="50.467" cy="300.21" r="4.9153"/>
  <circle cx="53.587" cy="274.15" r="4.9153"/>
  <circle cx="53.22" cy="249.56" r="4.9153"/>
  <circle cx="53.037" cy="224.6" r="4.9153"/>
  <circle cx="51.569" cy="200.38" r="4.9153"/>
  <circle cx="48.632" cy="182.76" r="4.9153"/>
 </g>
</svg>
