<?xml version="1.0" encoding="UTF-8"?>
<!-- Created with Inkscape (http://www.inkscape.org/) -->
<svg width="100" height="650" version="1.1" viewBox="0 0 100 650" xmlns="http://www.w3.org/2000/svg" xmlns:cc="http://creativecommons.org/ns#" xmlns:dc="http://purl.org/dc/elements/1.1/" xmlns:rdf="http://www.w3.org/1999/02/22-rdf-syntax-ns#">
 <metadata>
  <rdf:RDF>
   <cc:Work rdf:about="">
    <dc:format>image/svg+xml</dc:format>
    <dc:type rdf:resource="http://purl.org/dc/dcmitype/StillImage"/>
    <dc:title/>
   </cc:Work>
  </rdf:RDF>
 </metadata>
 <g transform="translate(-18.242 31.792)" fill="#e00000">
  <circle cx="68.547" cy="612.78" r="4.9153"/>
  <circle cx="63.572" cy="586.61" r="4.9153"/>
  <circle cx="64.125" cy="569.11" r="4.9153"/>
  <circle cx="61.545" cy="552.71" r="4.9153"/>
  <circle cx="61.177" cy="527.65" r="4.9153"/>
  <circle cx="62.467" cy="509.77" r="4.9153"/>
  <circle cx="63.756" cy="491.35" r="4.9153"/>
  <circle cx="62.282" cy="466.1" r="4.9153"/>
  <circle cx="59.703" cy="447.86" r="4.9153"/>
  <circle cx="61.361" cy="427.77" r="4.9153"/>
  <circle cx="61.545" cy="405.85" r="4.9153"/>
  <circle cx="59.703" cy="381.15" r="4.9153"/>
  <circle cx="59.887" cy="356.83" r="4.9153"/>
  <circle cx="57.491" cy="332.14" r="4.9153"/>
  <circle cx="59.518" cy="306.71" r="4.9153"/>
  <circle cx="60.071" cy="277.78" r="4.9153"/>
  <circle cx="58.966" cy="254.56" r="4.9153"/>
  <circle cx="61.914" cy="227.29" r="4.9153"/>
  <circle cx="58.597" cy="204.07" r="4.9153"/>
  <circle cx="54.727" cy="180.49" r="4.9153"/>
 </g>
</svg>
