<?xml version="1.0" encoding="UTF-8"?>
<!-- Created with Inkscape (http://www.inkscape.org/) -->
<svg width="100" height="650" version="1.1" viewBox="0 0 100 650" xmlns="http://www.w3.org/2000/svg" xmlns:cc="http://creativecommons.org/ns#" xmlns:dc="http://purl.org/dc/elements/1.1/" xmlns:rdf="http://www.w3.org/1999/02/22-rdf-syntax-ns#">
 <metadata>
  <rdf:RDF>
   <cc:Work rdf:about="">
    <dc:format>image/svg+xml</dc:format>
    <dc:type rdf:resource="http://purl.org/dc/dcmitype/StillImage"/>
    <dc:title/>
   </cc:Work>
  </rdf:RDF>
 </metadata>
 <g transform="translate(32.16 -64.248)" fill="#e00000">
  <circle cx="17.785" cy="709.25" r="4.9153"/>
  <circle cx="18.871" cy="696.62" r="4.9153"/>
  <circle cx="19.415" cy="687.94" r="4.9153"/>
  <circle cx="17.242" cy="677.21" r="4.9153"/>
  <circle cx="15.477" cy="664.99" r="4.9153"/>
  <circle cx="18.871" cy="650.33" r="4.9153"/>
  <circle cx="21.179" cy="633.49" r="4.9153"/>
  <circle cx="23.759" cy="619.78" r="4.9153"/>
  <circle cx="26.203" cy="604.71" r="4.9153"/>
  <circle cx="29.19" cy="588.56" r="4.9153"/>
  <circle cx="30.412" cy="571.72" r="4.9153"/>
  <circle cx="29.461" cy="557.87" r="4.9153"/>
  <circle cx="28.104" cy="541.44" r="4.9153"/>
  <circle cx="24.574" cy="523.93" r="4.9153"/>
  <circle cx="24.031" cy="505.47" r="4.9153"/>
  <circle cx="17.514" cy="486.19" r="4.9153"/>
  <circle cx="18.193" cy="465.96" r="4.9153"/>
  <circle cx="17.785" cy="446.41" r="4.9153"/>
  <circle cx="20.501" cy="426.31" r="4.9153"/>
  <circle cx="26.339" cy="408.12" r="4.9153"/>
  <circle cx="28.511" cy="391.56" r="4.9153"/>
  <circle cx="27.968" cy="374.04" r="4.9153"/>
  <circle cx="25.931" cy="355.17" r="4.9153"/>
  <circle cx="30.819" cy="338.34" r="4.9153"/>
  <circle cx="31.905" cy="319.6" r="4.9153"/>
  <circle cx="37.2" cy="301.82" r="4.9153"/>
  <circle cx="39.779" cy="284.3" r="4.9153"/>
  <circle cx="36.25" cy="264.48" r="4.9153"/>
 </g>
</svg>
