<?xml version="1.0" encoding="UTF-8"?>
<!-- Created with Inkscape (http://www.inkscape.org/) -->
<svg width="100" height="650" version="1.1" viewBox="0 0 100 650" xmlns="http://www.w3.org/2000/svg" xmlns:cc="http://creativecommons.org/ns#" xmlns:dc="http://purl.org/dc/elements/1.1/" xmlns:rdf="http://www.w3.org/1999/02/22-rdf-syntax-ns#">
 <metadata>
  <rdf:RDF>
   <cc:Work rdf:about="">
    <dc:format>image/svg+xml</dc:format>
    <dc:type rdf:resource="http://purl.org/dc/dcmitype/StillImage"/>
    <dc:title/>
   </cc:Work>
  </rdf:RDF>
 </metadata>
 <g transform="translate(26.264 -167.55)" fill="#e00000">
  <circle cx="23.757" cy="812.54" r="4.9153"/>
  <circle cx="22.014" cy="790.52" r="4.9153"/>
  <circle cx="22.231" cy="783.11" r="4.9153"/>
  <circle cx="20.052" cy="771.78" r="4.9153"/>
  <circle cx="20.488" cy="754.56" r="4.9153"/>
  <circle cx="22.449" cy="739.74" r="4.9153"/>
  <circle cx="23.975" cy="722.3" r="4.9153"/>
  <circle cx="30.078" cy="706.18" r="4.9153"/>
  <circle cx="34.001" cy="690.92" r="4.9153"/>
  <circle cx="31.822" cy="675.88" r="4.9153"/>
  <circle cx="31.604" cy="656.48" r="4.9153"/>
  <circle cx="35.527" cy="639.05" r="4.9153"/>
  <circle cx="36.834" cy="622.48" r="4.9153"/>
  <circle cx="34.219" cy="603.95" r="4.9153"/>
  <circle cx="33.347" cy="584.34" r="4.9153"/>
  <circle cx="29.424" cy="565.81" r="4.9153"/>
  <circle cx="27.462" cy="540.97" r="4.9153"/>
  <circle cx="34.437" cy="518.52" r="4.9153"/>
  <circle cx="35.745" cy="494.98" r="4.9153"/>
  <circle cx="42.937" cy="474.93" r="4.9153"/>
  <circle cx="45.989" cy="453.78" r="4.9153"/>
  <circle cx="51.438" cy="433.3" r="4.9153"/>
  <circle cx="53.617" cy="414.77" r="4.9153"/>
  <circle cx="60.374" cy="395.37" r="4.9153"/>
  <circle cx="62.989" cy="374.23" r="4.9153"/>
  <circle cx="60.156" cy="350.04" r="4.9153"/>
  <circle cx="60.81" cy="329.55" r="4.9153"/>
  <circle cx="63.861" cy="307.54" r="4.9153"/>
 </g>
</svg>
