<?xml version="1.0" encoding="UTF-8"?>
<!-- Created with Inkscape (http://www.inkscape.org/) -->
<svg width="100" height="650" version="1.1" viewBox="0 0 100 650" xmlns="http://www.w3.org/2000/svg" xmlns:cc="http://creativecommons.org/ns#" xmlns:dc="http://purl.org/dc/elements/1.1/" xmlns:rdf="http://www.w3.org/1999/02/22-rdf-syntax-ns#">
 <metadata>
  <rdf:RDF>
   <cc:Work rdf:about="">
    <dc:format>image/svg+xml</dc:format>
    <dc:type rdf:resource="http://purl.org/dc/dcmitype/StillImage"/>
    <dc:title/>
   </cc:Work>
  </rdf:RDF>
 </metadata>
 <g transform="translate(21.761 -99.871)" fill="#e00000">
  <circle cx="28.05" cy="744.85" r="4.9153"/>
  <circle cx="27.647" cy="723.05" r="4.9153"/>
  <circle cx="27.849" cy="716.19" r="4.9153"/>
  <circle cx="24.822" cy="705.29" r="4.9153"/>
  <circle cx="24.418" cy="691.98" r="4.9153"/>
  <circle cx="26.84" cy="677.45" r="4.9153"/>
  <circle cx="27.647" cy="663.12" r="4.9153"/>
  <circle cx="31.683" cy="647.58" r="4.9153"/>
  <circle cx="32.49" cy="633.65" r="4.9153"/>
  <circle cx="28.858" cy="617.51" r="4.9153"/>
  <circle cx="27.647" cy="602.58" r="4.9153"/>
  <circle cx="29.665" cy="587.85" r="4.9153"/>
  <circle cx="31.683" cy="571.5" r="4.9153"/>
  <circle cx="27.445" cy="552.73" r="4.9153"/>
  <circle cx="27.243" cy="533.76" r="4.9153"/>
  <circle cx="30.27" cy="510.56" r="4.9153"/>
  <circle cx="32.086" cy="490.78" r="4.9153"/>
  <circle cx="36.526" cy="471.41" r="4.9153"/>
  <circle cx="37.939" cy="449.61" r="4.9153"/>
  <circle cx="43.387" cy="430.44" r="4.9153"/>
  <circle cx="46.212" cy="410.06" r="4.9153"/>
  <circle cx="50.047" cy="392.1" r="4.9153"/>
  <circle cx="51.863" cy="375.75" r="4.9153"/>
  <circle cx="58.119" cy="357.19" r="4.9153"/>
  <circle cx="60.742" cy="339.43" r="4.9153"/>
  <circle cx="67.603" cy="322.28" r="4.9153"/>
  <circle cx="70.025" cy="302.7" r="4.9153"/>
  <circle cx="68.814" cy="283.53" r="4.9153"/>
 </g>
</svg>
