<?xml version="1.0" encoding="UTF-8"?>
<!-- Created with Inkscape (http://www.inkscape.org/) -->
<svg width="100" height="650" version="1.1" viewBox="0 0 100 650" xmlns="http://www.w3.org/2000/svg" xmlns:cc="http://creativecommons.org/ns#" xmlns:dc="http://purl.org/dc/elements/1.1/" xmlns:rdf="http://www.w3.org/1999/02/22-rdf-syntax-ns#">
 <metadata>
  <rdf:RDF>
   <cc:Work rdf:about="">
    <dc:format>image/svg+xml</dc:format>
    <dc:type rdf:resource="http://purl.org/dc/dcmitype/StillImage"/>
    <dc:title/>
   </cc:Work>
  </rdf:RDF>
 </metadata>
 <g transform="translate(25.26 -93.017)" fill="#e00000">
  <circle cx="24.568" cy="738.04" r="4.9153"/>
  <circle cx="26.121" cy="718.98" r="4.9153"/>
  <circle cx="27.533" cy="709.24" r="4.9153"/>
  <circle cx="23.721" cy="697.38" r="4.9153"/>
  <circle cx="23.297" cy="681.99" r="4.9153"/>
  <circle cx="18.638" cy="668.43" r="4.9153"/>
  <circle cx="18.356" cy="655.44" r="4.9153"/>
  <circle cx="16.52" cy="639.07" r="4.9153"/>
  <circle cx="15.814" cy="624.66" r="4.9153"/>
  <circle cx="12.425" cy="605.88" r="4.9153"/>
  <circle cx="11.578" cy="589.51" r="4.9153"/>
  <circle cx="20.332" cy="571.86" r="4.9153"/>
  <circle cx="23.862" cy="554.91" r="4.9153"/>
  <circle cx="17.932" cy="539.38" r="4.9153"/>
  <circle cx="17.085" cy="524.13" r="4.9153"/>
  <circle cx="19.626" cy="504.08" r="4.9153"/>
  <circle cx="21.744" cy="485.44" r="4.9153"/>
  <circle cx="25.557" cy="467.23" r="4.9153"/>
  <circle cx="27.957" cy="448.73" r="4.9153"/>
  <circle cx="24.427" cy="427.98" r="4.9153"/>
  <circle cx="22.733" cy="409.34" r="4.9153"/>
  <circle cx="17.085" cy="392.54" r="4.9153"/>
  <circle cx="14.684" cy="375.03" r="4.9153"/>
  <circle cx="10.872" cy="355.68" r="4.9153"/>
  <circle cx="10.731" cy="337.61" r="4.9153"/>
  <circle cx="17.226" cy="316.71" r="4.9153"/>
  <circle cx="21.462" cy="296.24" r="4.9153"/>
  <circle cx="25.839" cy="276.61" r="4.9153"/>
 </g>
</svg>
