<?xml version="1.0" encoding="UTF-8"?>
<!-- Created with Inkscape (http://www.inkscape.org/) -->
<svg width="100" height="650" version="1.1" viewBox="0 0 100 650" xmlns="http://www.w3.org/2000/svg" xmlns:cc="http://creativecommons.org/ns#" xmlns:dc="http://purl.org/dc/elements/1.1/" xmlns:rdf="http://www.w3.org/1999/02/22-rdf-syntax-ns#">
 <metadata>
  <rdf:RDF>
   <cc:Work rdf:about="">
    <dc:format>image/svg+xml</dc:format>
    <dc:type rdf:resource="http://purl.org/dc/dcmitype/StillImage"/>
    <dc:title/>
   </cc:Work>
  </rdf:RDF>
 </metadata>
 <g transform="translate(27.4 -57.252)" fill="#e00000">
  <circle cx="22.627" cy="702.29" r="4.9153"/>
  <circle cx="25.873" cy="678.99" r="4.9153"/>
  <circle cx="27.305" cy="670.02" r="4.9153"/>
  <circle cx="26.827" cy="658.56" r="4.9153"/>
  <circle cx="25.204" cy="645" r="4.9153"/>
  <circle cx="27.687" cy="631.07" r="4.9153"/>
  <circle cx="28.45" cy="616.55" r="4.9153"/>
  <circle cx="25.873" cy="601.76" r="4.9153"/>
  <circle cx="25.109" cy="583.62" r="4.9153"/>
  <circle cx="29.405" cy="567.67" r="4.9153"/>
  <circle cx="30.36" cy="549.92" r="4.9153"/>
  <circle cx="34.561" cy="533.4" r="4.9153"/>
  <circle cx="36.088" cy="517.26" r="4.9153"/>
  <circle cx="32.938" cy="500.17" r="4.9153"/>
  <circle cx="31.697" cy="480.79" r="4.9153"/>
  <circle cx="27.687" cy="462.37" r="4.9153"/>
  <circle cx="27.591" cy="444.71" r="4.9153"/>
  <circle cx="23.772" cy="426.57" r="4.9153"/>
  <circle cx="24.059" cy="409.57" r="4.9153"/>
  <circle cx="25.586" cy="394.68" r="4.9153"/>
  <circle cx="26.541" cy="377.4" r="4.9153"/>
  <circle cx="31.028" cy="357.25" r="4.9153"/>
  <circle cx="31.028" cy="337.49" r="4.9153"/>
  <circle cx="27.018" cy="319.83" r="4.9153"/>
  <circle cx="24.727" cy="301.88" r="4.9153"/>
  <circle cx="27.4" cy="283.74" r="4.9153"/>
  <circle cx="28.546" cy="266.46" r="4.9153"/>
  <circle cx="30.551" cy="247.65" r="4.9153"/>
  <circle cx="32.651" cy="229.8" r="4.9153"/>
  <circle cx="28.928" cy="210.8" r="4.9153"/>
 </g>
</svg>
