<?xml version="1.0" encoding="UTF-8"?>
<!-- Created with Inkscape (http://www.inkscape.org/) -->
<svg width="100" height="650" version="1.1" viewBox="0 0 100 650" xmlns="http://www.w3.org/2000/svg" xmlns:cc="http://creativecommons.org/ns#" xmlns:dc="http://purl.org/dc/elements/1.1/" xmlns:rdf="http://www.w3.org/1999/02/22-rdf-syntax-ns#">
 <metadata>
  <rdf:RDF>
   <cc:Work rdf:about="">
    <dc:format>image/svg+xml</dc:format>
    <dc:type rdf:resource="http://purl.org/dc/dcmitype/StillImage"/>
    <dc:title/>
   </cc:Work>
  </rdf:RDF>
 </metadata>
 <g transform="translate(29.331 -206.54)" fill="#e00000">
  <circle cx="20.485" cy="851.41" r="4.9153"/>
  <circle cx="20.951" cy="842.57" r="4.9153"/>
  <circle cx="16.761" cy="831.98" r="4.9153"/>
  <circle cx="14.666" cy="815.91" r="4.9153"/>
  <circle cx="16.877" cy="799.5" r="4.9153"/>
  <circle cx="17.226" cy="780.3" r="4.9153"/>
  <circle cx="21.184" cy="758.65" r="4.9153"/>
  <circle cx="21.649" cy="737.47" r="4.9153"/>
  <circle cx="16.761" cy="716.28" r="4.9153"/>
  <circle cx="15.713" cy="697.31" r="4.9153"/>
  <circle cx="9.6606" cy="677.41" r="4.9153"/>
  <circle cx="6.0524" cy="657.85" r="4.9153"/>
  <circle cx="13.734" cy="637.14" r="4.9153"/>
  <circle cx="17.575" cy="614.21" r="4.9153"/>
  <circle cx="22.697" cy="591.63" r="4.9153"/>
  <circle cx="23.861" cy="572.89" r="4.9153"/>
  <circle cx="18.041" cy="554.73" r="4.9153"/>
  <circle cx="16.179" cy="533.31" r="4.9153"/>
  <circle cx="19.554" cy="514.46" r="4.9153"/>
  <circle cx="21.649" cy="493.97" r="4.9153"/>
  <circle cx="26.654" cy="468.6" r="4.9153"/>
  <circle cx="27.469" cy="444.74" r="4.9153"/>
  <circle cx="31.426" cy="422.16" r="4.9153"/>
  <circle cx="32.474" cy="399.58" r="4.9153"/>
  <circle cx="29.797" cy="374.32" r="4.9153"/>
  <circle cx="29.68" cy="350.34" r="4.9153"/>
  <circle cx="35.034" cy="329.62" r="4.9153"/>
  <circle cx="37.595" cy="307.16" r="4.9153"/>
  <circle cx="35.616" cy="282.37" r="4.9153"/>
  <circle cx="35.616" cy="259.91" r="4.9153"/>
 </g>
</svg>
