<?xml version="1.0" encoding="UTF-8"?>
<!-- Created with Inkscape (http://www.inkscape.org/) -->
<svg width="100" height="650" version="1.1" viewBox="0 0 100 650" xmlns="http://www.w3.org/2000/svg" xmlns:cc="http://creativecommons.org/ns#" xmlns:dc="http://purl.org/dc/elements/1.1/" xmlns:rdf="http://www.w3.org/1999/02/22-rdf-syntax-ns#">
 <metadata>
  <rdf:RDF>
   <cc:Work rdf:about="">
    <dc:format>image/svg+xml</dc:format>
    <dc:type rdf:resource="http://purl.org/dc/dcmitype/StillImage"/>
    <dc:title/>
   </cc:Work>
  </rdf:RDF>
 </metadata>
 <g transform="translate(22.034 -257.42)" fill="#e00000">
  <circle cx="27.9" cy="902.41" r="4.9153"/>
  <circle cx="29.893" cy="875.96" r="4.9153"/>
  <circle cx="30.437" cy="866.72" r="4.9153"/>
  <circle cx="28.263" cy="851.5" r="4.9153"/>
  <circle cx="27.9" cy="833.02" r="4.9153"/>
  <circle cx="25.364" cy="813.28" r="4.9153"/>
  <circle cx="25.726" cy="791.35" r="4.9153"/>
  <circle cx="21.197" cy="771.61" r="4.9153"/>
  <circle cx="20.291" cy="747.69" r="4.9153"/>
  <circle cx="25.183" cy="724.5" r="4.9153"/>
  <circle cx="26.632" cy="705.12" r="4.9153"/>
  <circle cx="21.197" cy="684.83" r="4.9153"/>
  <circle cx="18.661" cy="662" r="4.9153"/>
  <circle cx="13.044" cy="637.72" r="4.9153"/>
  <circle cx="11.414" cy="619.97" r="4.9153"/>
  <circle cx="15.762" cy="596.41" r="4.9153"/>
  <circle cx="17.03" cy="574.67" r="4.9153"/>
  <circle cx="24.82" cy="552.21" r="4.9153"/>
  <circle cx="27.538" cy="529.2" r="4.9153"/>
  <circle cx="26.813" cy="510.18" r="4.9153"/>
  <circle cx="25.907" cy="487.53" r="4.9153"/>
  <circle cx="32.611" cy="466.33" r="4.9153"/>
  <circle cx="36.415" cy="444.59" r="4.9153"/>
  <circle cx="32.067" cy="421.22" r="4.9153"/>
  <circle cx="29.531" cy="400.21" r="4.9153"/>
  <circle cx="34.966" cy="375.57" r="4.9153"/>
  <circle cx="37.502" cy="349.66" r="4.9153"/>
  <circle cx="37.321" cy="326.47" r="4.9153"/>
  <circle cx="36.053" cy="301.83" r="4.9153"/>
  <circle cx="33.154" cy="279" r="4.9153"/>
 </g>
</svg>
