<?xml version="1.0" encoding="UTF-8"?>
<!-- Created with Inkscape (http://www.inkscape.org/) -->
<svg width="100" height="650" version="1.1" viewBox="0 0 100 650" xmlns="http://www.w3.org/2000/svg" xmlns:cc="http://creativecommons.org/ns#" xmlns:dc="http://purl.org/dc/elements/1.1/" xmlns:rdf="http://www.w3.org/1999/02/22-rdf-syntax-ns#">
 <metadata>
  <rdf:RDF>
   <cc:Work rdf:about="">
    <dc:format>image/svg+xml</dc:format>
    <dc:type rdf:resource="http://purl.org/dc/dcmitype/StillImage"/>
    <dc:title/>
   </cc:Work>
  </rdf:RDF>
 </metadata>
 <g transform="translate(3.5955 61.685)" fill="#e00000">
  <circle cx="46.081" cy="583.32" r="4.9153"/>
  <circle cx="45.286" cy="562.82" r="4.9153"/>
  <circle cx="45.445" cy="559.48" r="4.9153"/>
  <circle cx="49.417" cy="549.47" r="4.9153"/>
  <circle cx="50.53" cy="540.1" r="4.9153"/>
  <circle cx="49.258" cy="529.61" r="4.9153"/>
  <circle cx="48.464" cy="515.62" r="4.9153"/>
  <circle cx="45.127" cy="501.8" r="4.9153"/>
  <circle cx="43.538" cy="488.29" r="4.9153"/>
  <circle cx="45.127" cy="473.99" r="4.9153"/>
  <circle cx="46.716" cy="460.33" r="4.9153"/>
  <circle cx="48.782" cy="448.25" r="4.9153"/>
  <circle cx="51.324" cy="432.68" r="4.9153"/>
  <circle cx="48.782" cy="417.9" r="4.9153"/>
  <circle cx="47.987" cy="403.44" r="4.9153"/>
  <circle cx="50.212" cy="389.14" r="4.9153"/>
  <circle cx="51.006" cy="375.64" r="4.9153"/>
  <circle cx="55.932" cy="362.13" r="4.9153"/>
  <circle cx="57.68" cy="347.83" r="4.9153"/>
  <circle cx="55.456" cy="333.37" r="4.9153"/>
  <circle cx="54.82" cy="315.57" r="4.9153"/>
  <circle cx="51.006" cy="302.7" r="4.9153"/>
  <circle cx="48.146" cy="289.04" r="4.9153"/>
  <circle cx="42.108" cy="275.53" r="4.9153"/>
  <circle cx="40.042" cy="261.71" r="4.9153"/>
  <circle cx="35.752" cy="246.29" r="4.9153"/>
  <circle cx="33.051" cy="230.08" r="4.9153"/>
  <circle cx="30.032" cy="214.67" r="4.9153"/>
  <circle cx="28.284" cy="199.89" r="4.9153"/>
  <circle cx="25.583" cy="182.26" r="4.9153"/>
 </g>
</svg>
