<?xml version="1.0" encoding="UTF-8"?>
<!-- Created with Inkscape (http://www.inkscape.org/) -->
<svg width="100" height="650" version="1.1" viewBox="0 0 100 650" xmlns="http://www.w3.org/2000/svg" xmlns:cc="http://creativecommons.org/ns#" xmlns:dc="http://purl.org/dc/elements/1.1/" xmlns:rdf="http://www.w3.org/1999/02/22-rdf-syntax-ns#">
 <metadata>
  <rdf:RDF>
   <cc:Work rdf:about="">
    <dc:format>image/svg+xml</dc:format>
    <dc:type rdf:resource="http://purl.org/dc/dcmitype/StillImage"/>
    <dc:title/>
   </cc:Work>
  </rdf:RDF>
 </metadata>
 <g transform="translate(33.364 -140.34)" fill="#e00000">
  <circle cx="16.582" cy="785.4" r="4.9153"/>
  <circle cx="18.542" cy="762.49" r="4.9153"/>
  <circle cx="18.994" cy="755.1" r="4.9153"/>
  <circle cx="20.502" cy="745.76" r="4.9153"/>
  <circle cx="20.954" cy="733.4" r="4.9153"/>
  <circle cx="23.064" cy="717.72" r="4.9153"/>
  <circle cx="23.969" cy="702.34" r="4.9153"/>
  <circle cx="26.682" cy="684.7" r="4.9153"/>
  <circle cx="27.888" cy="669.48" r="4.9153"/>
  <circle cx="30.752" cy="653.8" r="4.9153"/>
  <circle cx="31.506" cy="634.05" r="4.9153"/>
  <circle cx="33.767" cy="617.92" r="4.9153"/>
  <circle cx="35.727" cy="598.33" r="4.9153"/>
  <circle cx="33.918" cy="578.43" r="4.9153"/>
  <circle cx="33.617" cy="558.98" r="4.9153"/>
  <circle cx="40.702" cy="536.22" r="4.9153"/>
  <circle cx="42.36" cy="514.96" r="4.9153"/>
  <circle cx="47.787" cy="492.65" r="4.9153"/>
  <circle cx="49.897" cy="472.45" r="4.9153"/>
  <circle cx="49.445" cy="451.8" r="4.9153"/>
  <circle cx="48.842" cy="431.15" r="4.9153"/>
  <circle cx="45.526" cy="409.59" r="4.9153"/>
  <circle cx="44.772" cy="386.07" r="4.9153"/>
  <circle cx="41.154" cy="365.12" r="4.9153"/>
  <circle cx="41.757" cy="345.07" r="4.9153"/>
  <circle cx="39.043" cy="324.72" r="4.9153"/>
  <circle cx="38.893" cy="306.03" r="4.9153"/>
  <circle cx="40.852" cy="284.47" r="4.9153"/>
  <circle cx="40.551" cy="261.1" r="4.9153"/>
  <circle cx="39.496" cy="240.3" r="4.9153"/>
 </g>
</svg>
