<?xml version="1.0" encoding="UTF-8"?>
<!-- Created with Inkscape (http://www.inkscape.org/) -->
<svg width="100" height="650" version="1.1" viewBox="0 0 100 650" xmlns="http://www.w3.org/2000/svg" xmlns:cc="http://creativecommons.org/ns#" xmlns:dc="http://purl.org/dc/elements/1.1/" xmlns:rdf="http://www.w3.org/1999/02/22-rdf-syntax-ns#">
 <metadata>
  <rdf:RDF>
   <cc:Work rdf:about="">
    <dc:format>image/svg+xml</dc:format>
    <dc:type rdf:resource="http://purl.org/dc/dcmitype/StillImage"/>
    <dc:title/>
   </cc:Work>
  </rdf:RDF>
 </metadata>
 <g transform="translate(19.69 -17.563)" fill="#e00000">
  <circle cx="29.809" cy="662.58" r="4.9153"/>
  <circle cx="31.415" cy="641.16" r="4.9153"/>
  <circle cx="31.951" cy="633.84" r="4.9153"/>
  <circle cx="30.344" cy="621.52" r="4.9153"/>
  <circle cx="29.63" cy="609.56" r="4.9153"/>
  <circle cx="27.667" cy="595.82" r="4.9153"/>
  <circle cx="26.774" cy="579.93" r="4.9153"/>
  <circle cx="29.987" cy="566.19" r="4.9153"/>
  <circle cx="31.058" cy="551.37" r="4.9153"/>
  <circle cx="34.271" cy="534.42" r="4.9153"/>
  <circle cx="37.127" cy="520.14" r="4.9153"/>
  <circle cx="33.022" cy="505.32" r="4.9153"/>
  <circle cx="32.129" cy="488.54" r="4.9153"/>
  <circle cx="24.632" cy="474.8" r="4.9153"/>
  <circle cx="22.847" cy="457.13" r="4.9153"/>
  <circle cx="24.454" cy="441.78" r="4.9153"/>
  <circle cx="26.06" cy="425.18" r="4.9153"/>
  <circle cx="30.166" cy="410.36" r="4.9153"/>
  <circle cx="30.701" cy="393.4" r="4.9153"/>
  <circle cx="34.807" cy="377.52" r="4.9153"/>
  <circle cx="36.235" cy="360.56" r="4.9153"/>
  <circle cx="33.022" cy="341.82" r="4.9153"/>
  <circle cx="32.665" cy="325.22" r="4.9153"/>
  <circle cx="38.198" cy="305.94" r="4.9153"/>
  <circle cx="40.697" cy="287.02" r="4.9153"/>
  <circle cx="38.377" cy="272.03" r="4.9153"/>
  <circle cx="37.306" cy="254.18" r="4.9153"/>
  <circle cx="34.093" cy="235.44" r="4.9153"/>
  <circle cx="33.736" cy="216.16" r="4.9153"/>
  <circle cx="36.592" cy="197.77" r="4.9153"/>
 </g>
</svg>
