<?xml version="1.0" encoding="UTF-8"?>
<!-- Created with Inkscape (http://www.inkscape.org/) -->
<svg width="100" height="650" version="1.1" viewBox="0 0 100 650" xmlns="http://www.w3.org/2000/svg" xmlns:cc="http://creativecommons.org/ns#" xmlns:dc="http://purl.org/dc/elements/1.1/" xmlns:rdf="http://www.w3.org/1999/02/22-rdf-syntax-ns#">
 <metadata>
  <rdf:RDF>
   <cc:Work rdf:about="">
    <dc:format>image/svg+xml</dc:format>
    <dc:type rdf:resource="http://purl.org/dc/dcmitype/StillImage"/>
    <dc:title/>
   </cc:Work>
  </rdf:RDF>
 </metadata>
 <g transform="translate(-65.864 173.31)" fill="#e00000">
  <circle cx="117.05" cy="471.64" r="4.9153"/>
  <circle cx="119.62" cy="461.06" r="4.9153"/>
  <circle cx="118.29" cy="455.15" r="4.9153"/>
  <circle cx="122.86" cy="450.86" r="4.9153"/>
  <circle cx="124.77" cy="443.9" r="4.9153"/>
  <circle cx="120.86" cy="440.37" r="4.9153"/>
  <circle cx="125.82" cy="433.79" r="4.9153"/>
  <circle cx="119.05" cy="424.74" r="4.9153"/>
  <circle cx="121.34" cy="419.59" r="4.9153"/>
  <circle cx="118.86" cy="407.01" r="4.9153"/>
  <circle cx="115.14" cy="400.91" r="4.9153"/>
  <circle cx="113.81" cy="390.43" r="4.9153"/>
  <circle cx="107.14" cy="381.28" r="4.9153"/>
  <circle cx="107.23" cy="371.55" r="4.9153"/>
  <circle cx="106.76" cy="359.07" r="4.9153"/>
  <circle cx="102.85" cy="353.16" r="4.9153"/>
  <circle cx="105.99" cy="341.34" r="4.9153"/>
  <circle cx="107.33" cy="328.95" r="4.9153"/>
  <circle cx="112.19" cy="321.42" r="4.9153"/>
  <circle cx="112.09" cy="307.88" r="4.9153"/>
  <circle cx="110.66" cy="296.63" r="4.9153"/>
  <circle cx="111.62" cy="283.48" r="4.9153"/>
  <circle cx="110.66" cy="270.99" r="4.9153"/>
  <circle cx="119.05" cy="264.04" r="4.9153"/>
  <circle cx="119.62" cy="246.21" r="4.9153"/>
 </g>
</svg>
