<?xml version="1.0" encoding="UTF-8"?>
<!-- Created with Inkscape (http://www.inkscape.org/) -->
<svg width="100" height="650" version="1.1" viewBox="0 0 100 650" xmlns="http://www.w3.org/2000/svg" xmlns:cc="http://creativecommons.org/ns#" xmlns:dc="http://purl.org/dc/elements/1.1/" xmlns:rdf="http://www.w3.org/1999/02/22-rdf-syntax-ns#">
 <metadata>
  <rdf:RDF>
   <cc:Work rdf:about="">
    <dc:format>image/svg+xml</dc:format>
    <dc:type rdf:resource="http://purl.org/dc/dcmitype/StillImage"/>
    <dc:title/>
   </cc:Work>
  </rdf:RDF>
 </metadata>
 <g transform="translate(-17.068 46.509)" fill="#e00000">
  <circle cx="66.825" cy="598.59" r="4.9153"/>
  <circle cx="69.627" cy="585.84" r="4.9153"/>
  <circle cx="74.531" cy="580.23" r="4.9153"/>
  <circle cx="71.729" cy="569.31" r="4.9153"/>
  <circle cx="71.168" cy="563.28" r="4.9153"/>
  <circle cx="74.531" cy="552.91" r="4.9153"/>
  <circle cx="71.028" cy="543.11" r="4.9153"/>
  <circle cx="71.028" cy="534" r="4.9153"/>
  <circle cx="68.226" cy="523.07" r="4.9153"/>
  <circle cx="71.168" cy="514.11" r="4.9153"/>
  <circle cx="75.932" cy="500.66" r="4.9153"/>
  <circle cx="70.888" cy="491.13" r="4.9153"/>
  <circle cx="76.632" cy="482.03" r="4.9153"/>
  <circle cx="72.709" cy="466.34" r="4.9153"/>
  <circle cx="70.608" cy="454.43" r="4.9153"/>
  <circle cx="76.912" cy="439.16" r="4.9153"/>
  <circle cx="76.352" cy="426.83" r="4.9153"/>
  <circle cx="79.014" cy="414.92" r="4.9153"/>
  <circle cx="78.453" cy="398.11" r="4.9153"/>
  <circle cx="79.994" cy="390.26" r="4.9153"/>
  <circle cx="83.777" cy="375.69" r="4.9153"/>
  <circle cx="73.13" cy="362.94" r="4.9153"/>
  <circle cx="77.473" cy="352.16" r="4.9153"/>
  <circle cx="80.275" cy="332.82" r="4.9153"/>
  <circle cx="83.077" cy="325.82" r="4.9153"/>
 </g>
</svg>
