<?xml version="1.0" encoding="UTF-8"?>
<!-- Created with Inkscape (http://www.inkscape.org/) -->
<svg width="100" height="650" version="1.1" viewBox="0 0 100 650" xmlns="http://www.w3.org/2000/svg" xmlns:cc="http://creativecommons.org/ns#" xmlns:dc="http://purl.org/dc/elements/1.1/" xmlns:rdf="http://www.w3.org/1999/02/22-rdf-syntax-ns#">
 <metadata>
  <rdf:RDF>
   <cc:Work rdf:about="">
    <dc:format>image/svg+xml</dc:format>
    <dc:type rdf:resource="http://purl.org/dc/dcmitype/StillImage"/>
    <dc:title/>
   </cc:Work>
  </rdf:RDF>
 </metadata>
 <g transform="translate(-41.379 -25.732)" fill="#e00000">
  <circle cx="91.745" cy="670.68" r="4.9153"/>
  <circle cx="90.996" cy="655.7" r="4.9153"/>
  <circle cx="97.362" cy="643.34" r="4.9153"/>
  <circle cx="94.741" cy="621.62" r="4.9153"/>
  <circle cx="99.609" cy="592.41" r="4.9153"/>
  <circle cx="90.247" cy="561.71" r="4.9153"/>
  <circle cx="92.494" cy="522.01" r="4.9153"/>
  <circle cx="101.11" cy="486.44" r="4.9153"/>
  <circle cx="98.86" cy="450.49" r="4.9153"/>
  <circle cx="92.869" cy="419.41" r="4.9153"/>
  <circle cx="96.239" cy="379.34" r="4.9153"/>
  <circle cx="102.6" cy="344.14" r="4.9153"/>
  <circle cx="111.22" cy="306.32" r="4.9153"/>
  <circle cx="102.23" cy="266.25" r="4.9153"/>
  <circle cx="111.22" cy="225.06" r="4.9153"/>
  <circle cx="102.6" cy="189.48" r="4.9153"/>
  <circle cx="93.243" cy="152.78" r="4.9153"/>
  <circle cx="77.89" cy="107.85" r="4.9153"/>
  <circle cx="78.639" cy="63.285" r="4.9153"/>
 </g>
</svg>
