<?xml version="1.0" encoding="UTF-8"?>
<!-- Created with Inkscape (http://www.inkscape.org/) -->
<svg width="100" height="650" version="1.1" viewBox="0 0 100 650" xmlns="http://www.w3.org/2000/svg" xmlns:cc="http://creativecommons.org/ns#" xmlns:dc="http://purl.org/dc/elements/1.1/" xmlns:rdf="http://www.w3.org/1999/02/22-rdf-syntax-ns#">
 <metadata>
  <rdf:RDF>
   <cc:Work rdf:about="">
    <dc:format>image/svg+xml</dc:format>
    <dc:type rdf:resource="http://purl.org/dc/dcmitype/StillImage"/>
    <dc:title/>
   </cc:Work>
  </rdf:RDF>
 </metadata>
 <g transform="translate(-27.954 87.843)" fill="#e00000">
  <circle cx="117.21" cy="557.15" r="4.9153"/>
  <circle cx="120.01" cy="533.52" r="4.9153"/>
  <circle cx="113.48" cy="522.33" r="4.9153"/>
  <circle cx="114.73" cy="500.57" r="4.9153"/>
  <circle cx="110.06" cy="477.56" r="4.9153"/>
  <circle cx="100.42" cy="454.55" r="4.9153"/>
  <circle cx="88.61" cy="429.99" r="4.9153"/>
  <circle cx="92.03" cy="401.08" r="4.9153"/>
  <circle cx="97.937" cy="374.65" r="4.9153"/>
  <circle cx="88.299" cy="350.09" r="4.9153"/>
  <circle cx="87.988" cy="319.31" r="4.9153"/>
  <circle cx="99.492" cy="286.04" r="4.9153"/>
  <circle cx="92.341" cy="262.72" r="4.9153"/>
  <circle cx="84.879" cy="238.16" r="4.9153"/>
  <circle cx="72.131" cy="205.82" r="4.9153"/>
  <circle cx="59.384" cy="171.31" r="4.9153"/>
  <circle cx="63.115" cy="143.02" r="4.9153"/>
  <circle cx="53.788" cy="111.31" r="4.9153"/>
  <circle cx="34.2" cy="74.93" r="4.9153"/>
 </g>
</svg>
