<?xml version="1.0" encoding="UTF-8"?>
<!-- Created with Inkscape (http://www.inkscape.org/) -->
<svg width="100" height="650" version="1.1" viewBox="0 0 100 650" xmlns="http://www.w3.org/2000/svg" xmlns:cc="http://creativecommons.org/ns#" xmlns:dc="http://purl.org/dc/elements/1.1/" xmlns:rdf="http://www.w3.org/1999/02/22-rdf-syntax-ns#">
 <metadata>
  <rdf:RDF>
   <cc:Work rdf:about="">
    <dc:format>image/svg+xml</dc:format>
    <dc:type rdf:resource="http://purl.org/dc/dcmitype/StillImage"/>
    <dc:title/>
   </cc:Work>
  </rdf:RDF>
 </metadata>
 <g transform="translate(-37.334 57.907)" fill="#e00000">
  <circle cx="88.549" cy="586.83" r="4.9153"/>
  <circle cx="88.549" cy="562.18" r="4.9153"/>
  <circle cx="89.267" cy="547.82" r="4.9153"/>
  <circle cx="84.242" cy="527.71" r="4.9153"/>
  <circle cx="78.019" cy="498.52" r="4.9153"/>
  <circle cx="69.404" cy="467.41" r="4.9153"/>
  <circle cx="75.865" cy="437.25" r="4.9153"/>
  <circle cx="64.617" cy="403.75" r="4.9153"/>
  <circle cx="72.993" cy="375.03" r="4.9153"/>
  <circle cx="81.13" cy="347.27" r="4.9153"/>
  <circle cx="88.31" cy="321.9" r="4.9153"/>
  <circle cx="80.652" cy="288.87" r="4.9153"/>
  <circle cx="69.643" cy="265.42" r="4.9153"/>
  <circle cx="62.942" cy="239.33" r="4.9153"/>
  <circle cx="71.079" cy="211.09" r="4.9153"/>
  <circle cx="60.309" cy="179.26" r="4.9153"/>
  <circle cx="63.181" cy="147.19" r="4.9153"/>
  <circle cx="75.626" cy="112.97" r="4.9153"/>
  <circle cx="85.917" cy="76.113" r="4.9153"/>
 </g>
</svg>
