<?xml version="1.0" encoding="UTF-8"?>
<!-- Created with Inkscape (http://www.inkscape.org/) -->
<svg width="100" height="650" version="1.1" viewBox="0 0 100 650" xmlns="http://www.w3.org/2000/svg" xmlns:cc="http://creativecommons.org/ns#" xmlns:dc="http://purl.org/dc/elements/1.1/" xmlns:rdf="http://www.w3.org/1999/02/22-rdf-syntax-ns#">
 <metadata>
  <rdf:RDF>
   <cc:Work rdf:about="">
    <dc:format>image/svg+xml</dc:format>
    <dc:type rdf:resource="http://purl.org/dc/dcmitype/StillImage"/>
    <dc:title/>
   </cc:Work>
  </rdf:RDF>
 </metadata>
 <g transform="translate(-54.493 61.691)" fill="#e00000">
  <circle cx="97.058" cy="583.06" r="4.9153"/>
  <circle cx="96.822" cy="561.39" r="4.9153"/>
  <circle cx="97.765" cy="547.02" r="4.9153"/>
  <circle cx="103.89" cy="520.63" r="4.9153"/>
  <circle cx="114.49" cy="496.61" r="4.9153"/>
  <circle cx="121.79" cy="469.04" r="4.9153"/>
  <circle cx="130.51" cy="439.36" r="4.9153"/>
  <circle cx="127.68" cy="408.26" r="4.9153"/>
  <circle cx="135.22" cy="374.58" r="4.9153"/>
  <circle cx="148.88" cy="348.19" r="4.9153"/>
  <circle cx="140.4" cy="321.34" r="4.9153"/>
  <circle cx="122.74" cy="294.01" r="4.9153"/>
  <circle cx="110.96" cy="264.8" r="4.9153"/>
  <circle cx="98.471" cy="236.76" r="4.9153"/>
  <circle cx="98" cy="208.97" r="4.9153"/>
  <circle cx="91.875" cy="180.23" r="4.9153"/>
  <circle cx="81.981" cy="149.36" r="4.9153"/>
  <circle cx="81.745" cy="118.27" r="4.9153"/>
  <circle cx="77.505" cy="83.403" r="4.9153"/>
 </g>
</svg>
