<?xml version="1.0" encoding="UTF-8"?>
<!-- Created with Inkscape (http://www.inkscape.org/) -->
<svg width="100" height="650" version="1.1" viewBox="0 0 100 650" xmlns="http://www.w3.org/2000/svg" xmlns:cc="http://creativecommons.org/ns#" xmlns:dc="http://purl.org/dc/elements/1.1/" xmlns:rdf="http://www.w3.org/1999/02/22-rdf-syntax-ns#">
 <metadata>
  <rdf:RDF>
   <cc:Work rdf:about="">
    <dc:format>image/svg+xml</dc:format>
    <dc:type rdf:resource="http://purl.org/dc/dcmitype/StillImage"/>
    <dc:title/>
   </cc:Work>
  </rdf:RDF>
 </metadata>
 <g transform="translate(-19.333 23.678)" fill="#e00000">
  <circle cx="69.735" cy="621.12" r="4.9153"/>
  <circle cx="70.657" cy="599.31" r="4.9153"/>
  <circle cx="76.186" cy="589.79" r="4.9153"/>
  <circle cx="81.102" cy="570.74" r="4.9153"/>
  <circle cx="71.886" cy="548.32" r="4.9153"/>
  <circle cx="64.206" cy="520.36" r="4.9153"/>
  <circle cx="72.807" cy="490.56" r="4.9153"/>
  <circle cx="81.409" cy="462.3" r="4.9153"/>
  <circle cx="93.39" cy="432.81" r="4.9153"/>
  <circle cx="82.638" cy="402.39" r="4.9153"/>
  <circle cx="84.788" cy="369.22" r="4.9153"/>
  <circle cx="90.932" cy="336.35" r="4.9153"/>
  <circle cx="86.631" cy="306.24" r="4.9153"/>
  <circle cx="81.102" cy="275.21" r="4.9153"/>
  <circle cx="82.945" cy="247.87" r="4.9153"/>
  <circle cx="78.644" cy="224.22" r="4.9153"/>
  <circle cx="82.331" cy="198.41" r="4.9153"/>
  <circle cx="88.782" cy="169.53" r="4.9153"/>
  <circle cx="97.998" cy="136.05" r="4.9153"/>
 </g>
</svg>
