<?xml version="1.0" encoding="UTF-8"?>
<!-- Created with Inkscape (http://www.inkscape.org/) -->
<svg width="100" height="650" version="1.1" viewBox="0 0 100 650" xmlns="http://www.w3.org/2000/svg" xmlns:cc="http://creativecommons.org/ns#" xmlns:dc="http://purl.org/dc/elements/1.1/" xmlns:rdf="http://www.w3.org/1999/02/22-rdf-syntax-ns#">
 <metadata>
  <rdf:RDF>
   <cc:Work rdf:about="">
    <dc:format>image/svg+xml</dc:format>
    <dc:type rdf:resource="http://purl.org/dc/dcmitype/StillImage"/>
    <dc:title/>
   </cc:Work>
  </rdf:RDF>
 </metadata>
 <g transform="translate(-37.475 72.644)" fill="#e00000">
  <circle cx="105.75" cy="572.64" r="4.9153"/>
  <circle cx="105.43" cy="545.72" r="4.9153"/>
  <circle cx="102.54" cy="533.54" r="4.9153"/>
  <circle cx="98.056" cy="511.75" r="4.9153"/>
  <circle cx="103.82" cy="487.08" r="4.9153"/>
  <circle cx="113.44" cy="464.65" r="4.9153"/>
  <circle cx="109.59" cy="437.09" r="4.9153"/>
  <circle cx="115.68" cy="411.13" r="4.9153"/>
  <circle cx="107.35" cy="383.25" r="4.9153"/>
  <circle cx="93.89" cy="351.85" r="4.9153"/>
  <circle cx="83.636" cy="316.6" r="4.9153"/>
  <circle cx="74.023" cy="282.31" r="4.9153"/>
  <circle cx="63.448" cy="253.79" r="4.9153"/>
  <circle cx="64.73" cy="225.27" r="4.9153"/>
  <circle cx="58.641" cy="200.28" r="4.9153"/>
  <circle cx="52.233" cy="164.71" r="4.9153"/>
  <circle cx="43.26" cy="135.87" r="4.9153"/>
  <circle cx="48.708" cy="106.07" r="4.9153"/>
  <circle cx="53.514" cy="78.189" r="4.9153"/>
 </g>
</svg>
