<?xml version="1.0" encoding="UTF-8"?>
<!-- Created with Inkscape (http://www.inkscape.org/) -->
<svg width="100" height="650" version="1.1" viewBox="0 0 100 650" xmlns="http://www.w3.org/2000/svg" xmlns:cc="http://creativecommons.org/ns#" xmlns:dc="http://purl.org/dc/elements/1.1/" xmlns:rdf="http://www.w3.org/1999/02/22-rdf-syntax-ns#">
 <metadata>
  <rdf:RDF>
   <cc:Work rdf:about="">
    <dc:format>image/svg+xml</dc:format>
    <dc:type rdf:resource="http://purl.org/dc/dcmitype/StillImage"/>
    <dc:title/>
   </cc:Work>
  </rdf:RDF>
 </metadata>
 <g transform="translate(-52.465 221.52)" fill="#e00000">
  <circle cx="132.87" cy="423.58" r="4.9153"/>
  <circle cx="134.59" cy="402.29" r="4.9153"/>
  <circle cx="131.41" cy="392.5" r="4.9153"/>
  <circle cx="137.52" cy="379.29" r="4.9153"/>
  <circle cx="128.71" cy="360.94" r="4.9153"/>
  <circle cx="115.01" cy="341.61" r="4.9153"/>
  <circle cx="100.57" cy="318.85" r="4.9153"/>
  <circle cx="108.65" cy="297.56" r="4.9153"/>
  <circle cx="103.51" cy="277" r="4.9153"/>
  <circle cx="108.65" cy="258.16" r="4.9153"/>
  <circle cx="102.29" cy="240.05" r="4.9153"/>
  <circle cx="89.561" cy="218.28" r="4.9153"/>
  <circle cx="72.677" cy="198.7" r="4.9153"/>
  <circle cx="78.06" cy="178.63" r="4.9153"/>
  <circle cx="73.656" cy="161.01" r="4.9153"/>
  <circle cx="78.794" cy="137.03" r="4.9153"/>
  <circle cx="69.251" cy="114.52" r="4.9153"/>
  <circle cx="59.463" cy="91.764" r="4.9153"/>
  <circle cx="64.846" cy="68.517" r="4.9153"/>
 </g>
</svg>
