<?xml version="1.0" encoding="UTF-8"?>
<!-- Created with Inkscape (http://www.inkscape.org/) -->
<svg width="100" height="650" version="1.1" viewBox="0 0 100 650" xmlns="http://www.w3.org/2000/svg" xmlns:cc="http://creativecommons.org/ns#" xmlns:dc="http://purl.org/dc/elements/1.1/" xmlns:rdf="http://www.w3.org/1999/02/22-rdf-syntax-ns#">
 <metadata>
  <rdf:RDF>
   <cc:Work rdf:about="">
    <dc:format>image/svg+xml</dc:format>
    <dc:type rdf:resource="http://purl.org/dc/dcmitype/StillImage"/>
    <dc:title/>
   </cc:Work>
  </rdf:RDF>
 </metadata>
 <g transform="translate(-13.866 10.533)" fill="#e00000">
  <circle cx="63.733" cy="634.35" r="4.9153"/>
  <circle cx="63.922" cy="611.72" r="4.9153"/>
  <circle cx="61.282" cy="603.05" r="4.9153"/>
  <circle cx="56.002" cy="591.36" r="4.9153"/>
  <circle cx="46.386" cy="577.03" r="4.9153"/>
  <circle cx="39.032" cy="557.98" r="4.9153"/>
  <circle cx="43.746" cy="536.11" r="4.9153"/>
  <circle cx="50.722" cy="520.08" r="4.9153"/>
  <circle cx="58.076" cy="501.79" r="4.9153"/>
  <circle cx="54.494" cy="487.27" r="4.9153"/>
  <circle cx="48.837" cy="475.02" r="4.9153"/>
  <circle cx="51.854" cy="460.12" r="4.9153"/>
  <circle cx="58.265" cy="445.04" r="4.9153"/>
  <circle cx="63.922" cy="424.29" r="4.9153"/>
  <circle cx="71.087" cy="403.36" r="4.9153"/>
  <circle cx="64.487" cy="387.53" r="4.9153"/>
  <circle cx="72.784" cy="368.48" r="4.9153"/>
  <circle cx="70.144" cy="349.62" r="4.9153"/>
  <circle cx="63.167" cy="332.65" r="4.9153"/>
 </g>
</svg>
