<?xml version="1.0" encoding="UTF-8"?>
<!-- Created with Inkscape (http://www.inkscape.org/) -->
<svg width="100" height="650" version="1.1" viewBox="0 0 100 650" xmlns="http://www.w3.org/2000/svg" xmlns:cc="http://creativecommons.org/ns#" xmlns:dc="http://purl.org/dc/elements/1.1/" xmlns:rdf="http://www.w3.org/1999/02/22-rdf-syntax-ns#">
 <metadata>
  <rdf:RDF>
   <cc:Work rdf:about="">
    <dc:format>image/svg+xml</dc:format>
    <dc:type rdf:resource="http://purl.org/dc/dcmitype/StillImage"/>
    <dc:title/>
   </cc:Work>
  </rdf:RDF>
 </metadata>
 <g transform="translate(-41.743 215.61)" fill="#e00000">
  <circle cx="96.841" cy="429.09" r="4.9153"/>
  <circle cx="98.828" cy="414.02" r="4.9153"/>
  <circle cx="97.007" cy="403.76" r="4.9153"/>
  <circle cx="87.571" cy="390.68" r="4.9153"/>
  <circle cx="87.406" cy="371.48" r="4.9153"/>
  <circle cx="93.862" cy="354.43" r="4.9153"/>
  <circle cx="89.723" cy="332.74" r="4.9153"/>
  <circle cx="92.537" cy="310.73" r="4.9153"/>
  <circle cx="99.159" cy="288.38" r="4.9153"/>
  <circle cx="106.77" cy="271" r="4.9153"/>
  <circle cx="103.46" cy="249.31" r="4.9153"/>
  <circle cx="107.44" cy="230.94" r="4.9153"/>
  <circle cx="93.365" cy="206.44" r="4.9153"/>
  <circle cx="95.186" cy="180.78" r="4.9153"/>
  <circle cx="103.79" cy="159.42" r="4.9153"/>
  <circle cx="94.855" cy="140.38" r="4.9153"/>
  <circle cx="79.129" cy="115.55" r="4.9153"/>
  <circle cx="62.409" cy="93.868" r="4.9153"/>
  <circle cx="48.007" cy="70.857" r="4.9153"/>
 </g>
</svg>
