<?xml version="1.0" encoding="UTF-8"?>
<!-- Created with Inkscape (http://www.inkscape.org/) -->
<svg width="100" height="650" version="1.1" viewBox="0 0 100 650" xmlns="http://www.w3.org/2000/svg" xmlns:cc="http://creativecommons.org/ns#" xmlns:dc="http://purl.org/dc/elements/1.1/" xmlns:rdf="http://www.w3.org/1999/02/22-rdf-syntax-ns#">
 <metadata>
  <rdf:RDF>
   <cc:Work rdf:about="">
    <dc:format>image/svg+xml</dc:format>
    <dc:type rdf:resource="http://purl.org/dc/dcmitype/StillImage"/>
    <dc:title/>
   </cc:Work>
  </rdf:RDF>
 </metadata>
 <g transform="translate(-26.534 172.92)" fill="#e00000">
  <circle cx="77.464" cy="472.04" r="4.9153"/>
  <circle cx="79.136" cy="452.53" r="4.9153"/>
  <circle cx="77.464" cy="439.34" r="4.9153"/>
  <circle cx="72.448" cy="420.95" r="4.9153"/>
  <circle cx="62.046" cy="396.24" r="4.9153"/>
  <circle cx="63.903" cy="374.88" r="4.9153"/>
  <circle cx="71.705" cy="347.76" r="4.9153"/>
  <circle cx="64.646" cy="323.24" r="4.9153"/>
  <circle cx="67.433" cy="300.76" r="4.9153"/>
  <circle cx="76.535" cy="273.82" r="4.9153"/>
  <circle cx="74.12" cy="248.75" r="4.9153"/>
  <circle cx="62.231" cy="225.9" r="4.9153"/>
  <circle cx="52.572" cy="203.23" r="4.9153"/>
  <circle cx="37.339" cy="180.01" r="4.9153"/>
  <circle cx="42.912" cy="159.39" r="4.9153"/>
  <circle cx="50.528" cy="137.84" r="4.9153"/>
  <circle cx="58.145" cy="113.88" r="4.9153"/>
  <circle cx="67.247" cy="87.13" r="4.9153"/>
  <circle cx="76.535" cy="58.523" r="4.9153"/>
 </g>
</svg>
