<?xml version="1.0" encoding="UTF-8"?>
<!-- Created with Inkscape (http://www.inkscape.org/) -->
<svg width="100" height="650" version="1.1" viewBox="0 0 100 650" xmlns="http://www.w3.org/2000/svg" xmlns:cc="http://creativecommons.org/ns#" xmlns:dc="http://purl.org/dc/elements/1.1/" xmlns:rdf="http://www.w3.org/1999/02/22-rdf-syntax-ns#">
 <metadata>
  <rdf:RDF>
   <cc:Work rdf:about="">
    <dc:format>image/svg+xml</dc:format>
    <dc:type rdf:resource="http://purl.org/dc/dcmitype/StillImage"/>
    <dc:title/>
   </cc:Work>
  </rdf:RDF>
 </metadata>
 <g transform="translate(-15.41 120.24)" fill="#e00000">
  <circle cx="65.803" cy="524.76" r="4.9153"/>
  <circle cx="64.97" cy="503.52" r="4.9153"/>
  <circle cx="61.222" cy="487.7" r="4.9153"/>
  <circle cx="54.558" cy="466.04" r="4.9153"/>
  <circle cx="60.389" cy="444.38" r="4.9153"/>
  <circle cx="64.97" cy="421.48" r="4.9153"/>
  <circle cx="62.471" cy="393.58" r="4.9153"/>
  <circle cx="68.302" cy="360.26" r="4.9153"/>
  <circle cx="59.972" cy="334.44" r="4.9153"/>
  <circle cx="50.81" cy="312.36" r="4.9153"/>
  <circle cx="43.313" cy="279.88" r="4.9153"/>
  <circle cx="50.393" cy="254.47" r="4.9153"/>
  <circle cx="56.64" cy="223.65" r="4.9153"/>
  <circle cx="62.471" cy="195.75" r="4.9153"/>
  <circle cx="54.975" cy="167.85" r="4.9153"/>
  <circle cx="44.979" cy="144.11" r="4.9153"/>
  <circle cx="41.231" cy="114.12" r="4.9153"/>
  <circle cx="42.064" cy="84.968" r="4.9153"/>
  <circle cx="39.149" cy="62.062" r="4.9153"/>
 </g>
</svg>
