<?xml version="1.0" encoding="UTF-8"?>
<!-- Created with Inkscape (http://www.inkscape.org/) -->
<svg width="100" height="650" version="1.1" viewBox="0 0 100 650" xmlns="http://www.w3.org/2000/svg" xmlns:cc="http://creativecommons.org/ns#" xmlns:dc="http://purl.org/dc/elements/1.1/" xmlns:rdf="http://www.w3.org/1999/02/22-rdf-syntax-ns#">
 <metadata>
  <rdf:RDF>
   <cc:Work rdf:about="">
    <dc:format>image/svg+xml</dc:format>
    <dc:type rdf:resource="http://purl.org/dc/dcmitype/StillImage"/>
    <dc:title/>
   </cc:Work>
  </rdf:RDF>
 </metadata>
 <g transform="translate(-106.47 268.33)" fill="#e00000">
  <circle cx="165.05" cy="376.6" r="4.9153"/>
  <circle cx="163.15" cy="365.61" r="4.9153"/>
  <circle cx="165.69" cy="354.2" r="4.9153"/>
  <circle cx="159.14" cy="341.09" r="4.9153"/>
  <circle cx="149.41" cy="326.3" r="4.9153"/>
  <circle cx="139.48" cy="307.49" r="4.9153"/>
  <circle cx="126.8" cy="291.43" r="4.9153"/>
  <circle cx="132.72" cy="274.31" r="4.9153"/>
  <circle cx="125.32" cy="255.29" r="4.9153"/>
  <circle cx="129.55" cy="234.79" r="4.9153"/>
  <circle cx="124.69" cy="218.94" r="4.9153"/>
  <circle cx="112.85" cy="200.56" r="4.9153"/>
  <circle cx="115.39" cy="184.5" r="4.9153"/>
  <circle cx="120.67" cy="168.43" r="4.9153"/>
  <circle cx="131.87" cy="147.3" r="4.9153"/>
  <circle cx="127.01" cy="127.22" r="4.9153"/>
  <circle cx="131.87" cy="110.11" r="4.9153"/>
  <circle cx="144.34" cy="94.044" r="4.9153"/>
  <circle cx="151.74" cy="75.235" r="4.9153"/>
 </g>
</svg>
