<?xml version="1.0" encoding="UTF-8"?>
<!-- Created with Inkscape (http://www.inkscape.org/) -->
<svg width="100" height="650" version="1.1" viewBox="0 0 100 650" xmlns="http://www.w3.org/2000/svg" xmlns:cc="http://creativecommons.org/ns#" xmlns:dc="http://purl.org/dc/elements/1.1/" xmlns:rdf="http://www.w3.org/1999/02/22-rdf-syntax-ns#">
 <metadata>
  <rdf:RDF>
   <cc:Work rdf:about="">
    <dc:format>image/svg+xml</dc:format>
    <dc:type rdf:resource="http://purl.org/dc/dcmitype/StillImage"/>
    <dc:title/>
   </cc:Work>
  </rdf:RDF>
 </metadata>
 <g transform="translate(-75.218 170.12)" fill="#e00000">
  <circle cx="126.96" cy="475.07" r="4.9153"/>
  <circle cx="127.72" cy="461.34" r="4.9153"/>
  <circle cx="130.01" cy="448.38" r="4.9153"/>
  <circle cx="134.21" cy="431.6" r="4.9153"/>
  <circle cx="123.15" cy="409.11" r="4.9153"/>
  <circle cx="126.58" cy="388.52" r="4.9153"/>
  <circle cx="135.35" cy="364.12" r="4.9153"/>
  <circle cx="125.44" cy="342.77" r="4.9153"/>
  <circle cx="130.39" cy="318.75" r="4.9153"/>
  <circle cx="118.19" cy="291.68" r="4.9153"/>
  <circle cx="110.57" cy="267.66" r="4.9153"/>
  <circle cx="119.72" cy="245.16" r="4.9153"/>
  <circle cx="126.58" cy="218.85" r="4.9153"/>
  <circle cx="119.72" cy="196.36" r="4.9153"/>
  <circle cx="101.8" cy="174.25" r="4.9153"/>
  <circle cx="86.548" cy="151.75" r="4.9153"/>
  <circle cx="89.979" cy="128.11" r="4.9153"/>
  <circle cx="95.317" cy="102.57" r="4.9153"/>
  <circle cx="104.47" cy="73.973" r="4.9153"/>
 </g>
</svg>
