<?xml version="1.0" encoding="UTF-8"?>
<!-- Created with Inkscape (http://www.inkscape.org/) -->
<svg width="100" height="650" version="1.1" viewBox="0 0 100 650" xmlns="http://www.w3.org/2000/svg" xmlns:cc="http://creativecommons.org/ns#" xmlns:dc="http://purl.org/dc/elements/1.1/" xmlns:rdf="http://www.w3.org/1999/02/22-rdf-syntax-ns#">
 <metadata>
  <rdf:RDF>
   <cc:Work rdf:about="">
    <dc:format>image/svg+xml</dc:format>
    <dc:type rdf:resource="http://purl.org/dc/dcmitype/StillImage"/>
    <dc:title/>
   </cc:Work>
  </rdf:RDF>
 </metadata>
 <g transform="translate(-82.261 209.46)" fill="#e00000">
  <circle cx="150.56" cy="435.43" r="4.9153"/>
  <circle cx="153.8" cy="415.57" r="4.9153"/>
  <circle cx="156.33" cy="402.21" r="4.9153"/>
  <circle cx="160.66" cy="382.71" r="4.9153"/>
  <circle cx="166.8" cy="363.58" r="4.9153"/>
  <circle cx="159.22" cy="341.91" r="4.9153"/>
  <circle cx="144.78" cy="318.09" r="4.9153"/>
  <circle cx="150.56" cy="295.7" r="4.9153"/>
  <circle cx="141.53" cy="275.84" r="4.9153"/>
  <circle cx="136.11" cy="255.99" r="4.9153"/>
  <circle cx="129.61" cy="238.66" r="4.9153"/>
  <circle cx="134.67" cy="214.83" r="4.9153"/>
  <circle cx="122.03" cy="191" r="4.9153"/>
  <circle cx="107.23" cy="168.97" r="4.9153"/>
  <circle cx="98.565" cy="145.51" r="4.9153"/>
  <circle cx="92.427" cy="122.4" r="4.9153"/>
  <circle cx="99.287" cy="100.74" r="4.9153"/>
  <circle cx="88.456" cy="79.436" r="4.9153"/>
  <circle cx="94.232" cy="61.384" r="4.9153"/>
 </g>
</svg>
