<?xml version="1.0" encoding="UTF-8"?>
<!-- Created with Inkscape (http://www.inkscape.org/) -->
<svg width="100" height="650" version="1.1" viewBox="0 0 100 650" xmlns="http://www.w3.org/2000/svg" xmlns:cc="http://creativecommons.org/ns#" xmlns:dc="http://purl.org/dc/elements/1.1/" xmlns:rdf="http://www.w3.org/1999/02/22-rdf-syntax-ns#">
 <metadata>
  <rdf:RDF>
   <cc:Work rdf:about="">
    <dc:format>image/svg+xml</dc:format>
    <dc:type rdf:resource="http://purl.org/dc/dcmitype/StillImage"/>
    <dc:title/>
   </cc:Work>
  </rdf:RDF>
 </metadata>
 <g transform="translate(14.936 101.2)" fill="#e00000">
  <circle cx="34.704" cy="543.84" r="4.9153"/>
  <circle cx="38.513" cy="531.14" r="4.9153"/>
  <circle cx="38.089" cy="519.72" r="4.9153"/>
  <circle cx="36.82" cy="510.41" r="4.9153"/>
  <circle cx="37.243" cy="496.02" r="4.9153"/>
  <circle cx="36.397" cy="483.32" r="4.9153"/>
  <circle cx="40.205" cy="469.78" r="4.9153"/>
  <circle cx="39.359" cy="454.96" r="4.9153"/>
  <circle cx="42.745" cy="443.54" r="4.9153"/>
  <circle cx="41.475" cy="426.19" r="4.9153"/>
  <circle cx="39.359" cy="414.34" r="4.9153"/>
  <circle cx="43.168" cy="399.1" r="4.9153"/>
  <circle cx="41.052" cy="382.17" r="4.9153"/>
  <circle cx="45.284" cy="368.63" r="4.9153"/>
  <circle cx="48.247" cy="352.12" r="4.9153"/>
  <circle cx="42.322" cy="337.31" r="4.9153"/>
  <circle cx="42.745" cy="322.5" r="4.9153"/>
  <circle cx="38.936" cy="305.15" r="4.9153"/>
  <circle cx="41.052" cy="292.87" r="4.9153"/>
  <circle cx="38.936" cy="270.44" r="4.9153"/>
  <circle cx="33.434" cy="256.9" r="4.9153"/>
  <circle cx="36.397" cy="240.39" r="4.9153"/>
  <circle cx="33.857" cy="221.35" r="4.9153"/>
  <circle cx="36.82" cy="206.96" r="4.9153"/>
  <circle cx="39.359" cy="187.49" r="4.9153"/>
  <circle cx="36.82" cy="173.95" r="4.9153"/>
  <circle cx="37.243" cy="155.33" r="4.9153"/>
  <circle cx="36.82" cy="137.13" r="4.9153"/>
  <circle cx="39.782" cy="122.74" r="4.9153"/>
  <circle cx="42.745" cy="107.08" r="4.9153"/>
  <circle cx="40.629" cy="90.999" r="4.9153"/>
  <circle cx="42.745" cy="71.954" r="4.9153"/>
  <circle cx="37.666" cy="52.486" r="4.9153"/>
  <circle cx="42.745" cy="38.097" r="4.9153"/>
  <circle cx="42.745" cy="18.206" r="4.9153"/>
 </g>
</svg>
