<?xml version="1.0" encoding="UTF-8"?>
<!-- Created with Inkscape (http://www.inkscape.org/) -->
<svg width="100" height="650" version="1.1" viewBox="0 0 100 650" xmlns="http://www.w3.org/2000/svg" xmlns:cc="http://creativecommons.org/ns#" xmlns:dc="http://purl.org/dc/elements/1.1/" xmlns:rdf="http://www.w3.org/1999/02/22-rdf-syntax-ns#">
 <metadata>
  <rdf:RDF>
   <cc:Work rdf:about="">
    <dc:format>image/svg+xml</dc:format>
    <dc:type rdf:resource="http://purl.org/dc/dcmitype/StillImage"/>
    <dc:title/>
   </cc:Work>
  </rdf:RDF>
 </metadata>
 <g transform="translate(11.245 246.74)" fill="#e00000">
  <circle cx="36.885" cy="398.23" r="4.9153"/>
  <circle cx="39.315" cy="386.74" r="4.9153"/>
  <circle cx="38.873" cy="379.01" r="4.9153"/>
  <circle cx="42.849" cy="372.16" r="4.9153"/>
  <circle cx="43.29" cy="360.02" r="4.9153"/>
  <circle cx="41.523" cy="351.4" r="4.9153"/>
  <circle cx="43.953" cy="340.58" r="4.9153"/>
  <circle cx="39.535" cy="329.76" r="4.9153"/>
  <circle cx="41.744" cy="320.04" r="4.9153"/>
  <circle cx="40.861" cy="307.45" r="4.9153"/>
  <circle cx="41.523" cy="295.96" r="4.9153"/>
  <circle cx="41.965" cy="282.71" r="4.9153"/>
  <circle cx="39.315" cy="271.01" r="4.9153"/>
  <circle cx="43.069" cy="260.18" r="4.9153"/>
  <circle cx="42.849" cy="246.93" r="4.9153"/>
  <circle cx="41.523" cy="236.55" r="4.9153"/>
  <circle cx="41.965" cy="224.18" r="4.9153"/>
  <circle cx="42.407" cy="212.92" r="4.9153"/>
  <circle cx="45.941" cy="202.32" r="4.9153"/>
  <circle cx="44.395" cy="190.17" r="4.9153"/>
  <circle cx="42.849" cy="181.11" r="4.9153"/>
  <circle cx="41.082" cy="166.98" r="4.9153"/>
  <circle cx="38.652" cy="154.39" r="4.9153"/>
  <circle cx="45.057" cy="143.56" r="4.9153"/>
  <circle cx="43.29" cy="130.31" r="4.9153"/>
  <circle cx="41.744" cy="121.48" r="4.9153"/>
  <circle cx="42.186" cy="108.45" r="4.9153"/>
  <circle cx="38.21" cy="97.624" r="4.9153"/>
  <circle cx="39.535" cy="87.464" r="4.9153"/>
  <circle cx="39.094" cy="74.433" r="4.9153"/>
  <circle cx="39.535" cy="66.261" r="4.9153"/>
  <circle cx="41.302" cy="54.334" r="4.9153"/>
  <circle cx="40.861" cy="44.174" r="4.9153"/>
  <circle cx="43.953" cy="33.793" r="4.9153"/>
  <circle cx="44.174" cy="21.424" r="4.9153"/>
 </g>
</svg>
