<?xml version="1.0" encoding="UTF-8"?>
<!-- Created with Inkscape (http://www.inkscape.org/) -->
<svg width="100" height="650" version="1.1" viewBox="0 0 100 650" xmlns="http://www.w3.org/2000/svg" xmlns:cc="http://creativecommons.org/ns#" xmlns:dc="http://purl.org/dc/elements/1.1/" xmlns:rdf="http://www.w3.org/1999/02/22-rdf-syntax-ns#">
 <metadata>
  <rdf:RDF>
   <cc:Work rdf:about="">
    <dc:format>image/svg+xml</dc:format>
    <dc:type rdf:resource="http://purl.org/dc/dcmitype/StillImage"/>
    <dc:title/>
   </cc:Work>
  </rdf:RDF>
 </metadata>
 <g transform="translate(-8.1356 178.9)" fill="#e00000">
  <circle cx="58.606" cy="465.62" r="4.9153"/>
  <circle cx="58.786" cy="456.45" r="4.9153"/>
  <circle cx="58.966" cy="447.28" r="4.9153"/>
  <circle cx="58.786" cy="438.83" r="4.9153"/>
  <circle cx="61.482" cy="428.05" r="4.9153"/>
  <circle cx="57.348" cy="415.46" r="4.9153"/>
  <circle cx="56.808" cy="404.14" r="4.9153"/>
  <circle cx="60.044" cy="388.86" r="4.9153"/>
  <circle cx="60.763" cy="376.99" r="4.9153"/>
  <circle cx="61.303" cy="364.05" r="4.9153"/>
  <circle cx="57.887" cy="348.59" r="4.9153"/>
  <circle cx="62.921" cy="336.36" r="4.9153"/>
  <circle cx="64.898" cy="321.08" r="4.9153"/>
  <circle cx="61.662" cy="309.93" r="4.9153"/>
  <circle cx="65.258" cy="296.27" r="4.9153"/>
  <circle cx="64.359" cy="281.53" r="4.9153"/>
  <circle cx="65.078" cy="269.49" r="4.9153"/>
  <circle cx="65.437" cy="256.18" r="4.9153"/>
  <circle cx="62.022" cy="244.5" r="4.9153"/>
  <circle cx="65.977" cy="230.3" r="4.9153"/>
  <circle cx="65.797" cy="215.37" r="4.9153"/>
  <circle cx="69.572" cy="205.67" r="4.9153"/>
  <circle cx="70.291" cy="187.87" r="4.9153"/>
  <circle cx="66.336" cy="177.26" r="4.9153"/>
  <circle cx="69.752" cy="163.24" r="4.9153"/>
  <circle cx="70.291" cy="149.4" r="4.9153"/>
  <circle cx="71.19" cy="137.17" r="4.9153"/>
  <circle cx="74.066" cy="121.17" r="4.9153"/>
  <circle cx="73.168" cy="110.21" r="4.9153"/>
  <circle cx="76.044" cy="96.365" r="4.9153"/>
  <circle cx="70.291" cy="83.241" r="4.9153"/>
  <circle cx="74.066" cy="72.814" r="4.9153"/>
  <circle cx="74.246" cy="55.916" r="4.9153"/>
  <circle cx="71.909" cy="45.489" r="4.9153"/>
  <circle cx="74.246" cy="31.287" r="4.9153"/>
 </g>
</svg>
