<?xml version="1.0" encoding="UTF-8"?>
<!-- Created with Inkscape (http://www.inkscape.org/) -->
<svg width="100" height="650" version="1.1" viewBox="0 0 100 650" xmlns="http://www.w3.org/2000/svg" xmlns:cc="http://creativecommons.org/ns#" xmlns:dc="http://purl.org/dc/elements/1.1/" xmlns:rdf="http://www.w3.org/1999/02/22-rdf-syntax-ns#">
 <metadata>
  <rdf:RDF>
   <cc:Work rdf:about="">
    <dc:format>image/svg+xml</dc:format>
    <dc:type rdf:resource="http://purl.org/dc/dcmitype/StillImage"/>
    <dc:title/>
   </cc:Work>
  </rdf:RDF>
 </metadata>
 <g transform="translate(15.504 143.07)" fill="#e00000">
  <circle cx="34.138" cy="501.8" r="4.9153"/>
  <circle cx="34.693" cy="490.14" r="4.9153"/>
  <circle cx="33.583" cy="479.32" r="4.9153"/>
  <circle cx="35.803" cy="471.27" r="4.9153"/>
  <circle cx="36.358" cy="459.61" r="4.9153"/>
  <circle cx="34.97" cy="447.4" r="4.9153"/>
  <circle cx="36.358" cy="435.19" r="4.9153"/>
  <circle cx="32.195" cy="420.2" r="4.9153"/>
  <circle cx="31.64" cy="407.99" r="4.9153"/>
  <circle cx="38.023" cy="391.33" r="4.9153"/>
  <circle cx="37.468" cy="379.4" r="4.9153"/>
  <circle cx="39.133" cy="366.63" r="4.9153"/>
  <circle cx="35.248" cy="349.43" r="4.9153"/>
  <circle cx="34.138" cy="337.21" r="4.9153"/>
  <circle cx="35.525" cy="321.95" r="4.9153"/>
  <circle cx="33.86" cy="307.79" r="4.9153"/>
  <circle cx="36.913" cy="292.53" r="4.9153"/>
  <circle cx="33.028" cy="276.43" r="4.9153"/>
  <circle cx="33.028" cy="264.22" r="4.9153"/>
  <circle cx="32.472" cy="248.96" r="4.9153"/>
  <circle cx="30.53" cy="233.97" r="4.9153"/>
  <circle cx="34.693" cy="219.26" r="4.9153"/>
  <circle cx="32.195" cy="203.16" r="4.9153"/>
  <circle cx="35.525" cy="192.06" r="4.9153"/>
  <circle cx="37.746" cy="172.35" r="4.9153"/>
  <circle cx="39.411" cy="159.86" r="4.9153"/>
  <circle cx="43.574" cy="144.88" r="4.9153"/>
  <circle cx="44.407" cy="128.5" r="4.9153"/>
  <circle cx="48.57" cy="115.18" r="4.9153"/>
  <circle cx="50.513" cy="97.972" r="4.9153"/>
  <circle cx="51.9" cy="82.43" r="4.9153"/>
  <circle cx="57.451" cy="67.443" r="4.9153"/>
  <circle cx="54.676" cy="52.456" r="4.9153"/>
  <circle cx="56.064" cy="37.191" r="4.9153"/>
  <circle cx="54.121" cy="19.428" r="4.9153"/>
 </g>
</svg>
