<?xml version="1.0" encoding="UTF-8"?>
<!-- Created with Inkscape (http://www.inkscape.org/) -->
<svg width="100" height="650" version="1.1" viewBox="0 0 100 650" xmlns="http://www.w3.org/2000/svg" xmlns:cc="http://creativecommons.org/ns#" xmlns:dc="http://purl.org/dc/elements/1.1/" xmlns:rdf="http://www.w3.org/1999/02/22-rdf-syntax-ns#">
 <metadata>
  <rdf:RDF>
   <cc:Work rdf:about="">
    <dc:format>image/svg+xml</dc:format>
    <dc:type rdf:resource="http://purl.org/dc/dcmitype/StillImage"/>
    <dc:title/>
   </cc:Work>
  </rdf:RDF>
 </metadata>
 <g transform="translate(-29.061 38.02)" fill="#e00000">
  <circle cx="79.75" cy="606.57" r="4.9153"/>
  <circle cx="77.722" cy="593.73" r="4.9153"/>
  <circle cx="79.074" cy="584.61" r="4.9153"/>
  <circle cx="79.75" cy="571.09" r="4.9153"/>
  <circle cx="80.088" cy="560.28" r="4.9153"/>
  <circle cx="78.06" cy="545.41" r="4.9153"/>
  <circle cx="76.709" cy="529.86" r="4.9153"/>
  <circle cx="82.791" cy="518.04" r="4.9153"/>
  <circle cx="83.129" cy="500.47" r="4.9153"/>
  <circle cx="79.074" cy="488.64" r="4.9153"/>
  <circle cx="81.102" cy="470.39" r="4.9153"/>
  <circle cx="79.412" cy="452.14" r="4.9153"/>
  <circle cx="82.453" cy="437.95" r="4.9153"/>
  <circle cx="85.833" cy="418.01" r="4.9153"/>
  <circle cx="85.833" cy="404.49" r="4.9153"/>
  <circle cx="90.226" cy="387.26" r="4.9153"/>
  <circle cx="90.901" cy="369.69" r="4.9153"/>
  <circle cx="90.564" cy="353.81" r="4.9153"/>
  <circle cx="89.55" cy="334.54" r="4.9153"/>
  <circle cx="86.171" cy="321.03" r="4.9153"/>
  <circle cx="88.874" cy="297.03" r="4.9153"/>
  <circle cx="82.791" cy="279.8" r="4.9153"/>
  <circle cx="84.481" cy="264.26" r="4.9153"/>
  <circle cx="80.088" cy="242.63" r="4.9153"/>
  <circle cx="77.385" cy="227.08" r="4.9153"/>
  <circle cx="75.357" cy="206.81" r="4.9153"/>
  <circle cx="72.654" cy="186.87" r="4.9153"/>
  <circle cx="77.722" cy="169.3" r="4.9153"/>
  <circle cx="78.398" cy="145.65" r="4.9153"/>
  <circle cx="82.115" cy="129.42" r="4.9153"/>
  <circle cx="86.508" cy="105.09" r="4.9153"/>
  <circle cx="87.86" cy="82.791" r="4.9153"/>
  <circle cx="91.577" cy="63.192" r="4.9153"/>
  <circle cx="91.239" cy="34.468" r="4.9153"/>
 </g>
</svg>
