<?xml version="1.0" encoding="UTF-8"?>
<!-- Created with Inkscape (http://www.inkscape.org/) -->
<svg width="100" height="650" version="1.1" viewBox="0 0 100 650" xmlns="http://www.w3.org/2000/svg" xmlns:cc="http://creativecommons.org/ns#" xmlns:dc="http://purl.org/dc/elements/1.1/" xmlns:rdf="http://www.w3.org/1999/02/22-rdf-syntax-ns#">
 <metadata>
  <rdf:RDF>
   <cc:Work rdf:about="">
    <dc:format>image/svg+xml</dc:format>
    <dc:type rdf:resource="http://purl.org/dc/dcmitype/StillImage"/>
    <dc:title/>
   </cc:Work>
  </rdf:RDF>
 </metadata>
 <g transform="translate(-14.669 78.341)" fill="#e00000">
  <circle cx="64.637" cy="566.39" r="4.9153"/>
  <circle cx="64.179" cy="554.7" r="4.9153"/>
  <circle cx="63.262" cy="546.22" r="4.9153"/>
  <circle cx="64.179" cy="535.9" r="4.9153"/>
  <circle cx="65.783" cy="523.07" r="4.9153"/>
  <circle cx="64.637" cy="507.02" r="4.9153"/>
  <circle cx="63.033" cy="495.1" r="4.9153"/>
  <circle cx="66.242" cy="479.97" r="4.9153"/>
  <circle cx="66.242" cy="465.99" r="4.9153"/>
  <circle cx="70.368" cy="453.16" r="4.9153"/>
  <circle cx="71.284" cy="437.57" r="4.9153"/>
  <circle cx="75.181" cy="425.65" r="4.9153"/>
  <circle cx="77.932" cy="408.46" r="4.9153"/>
  <circle cx="72.431" cy="392.42" r="4.9153"/>
  <circle cx="74.952" cy="380.27" r="4.9153"/>
  <circle cx="71.743" cy="363.54" r="4.9153"/>
  <circle cx="70.138" cy="350.24" r="4.9153"/>
  <circle cx="68.076" cy="333.51" r="4.9153"/>
  <circle cx="66.242" cy="316.55" r="4.9153"/>
  <circle cx="66.471" cy="302.57" r="4.9153"/>
  <circle cx="63.262" cy="285.83" r="4.9153"/>
  <circle cx="64.637" cy="271.39" r="4.9153"/>
  <circle cx="70.138" cy="250.31" r="4.9153"/>
  <circle cx="64.179" cy="232.89" r="4.9153"/>
  <circle cx="67.846" cy="217.07" r="4.9153"/>
  <circle cx="65.554" cy="198.96" r="4.9153"/>
  <circle cx="67.159" cy="182" r="4.9153"/>
  <circle cx="65.554" cy="162.98" r="4.9153"/>
  <circle cx="61.658" cy="145.33" r="4.9153"/>
  <circle cx="63.95" cy="129.51" r="4.9153"/>
  <circle cx="60.512" cy="107.05" r="4.9153"/>
  <circle cx="62.345" cy="91.692" r="4.9153"/>
  <circle cx="64.867" cy="70.834" r="4.9153"/>
  <circle cx="65.554" cy="53.185" r="4.9153"/>
  <circle cx="69.222" cy="34.16" r="4.9153"/>
 </g>
</svg>
