<?xml version="1.0" encoding="UTF-8"?>
<!-- Created with Inkscape (http://www.inkscape.org/) -->
<svg width="100" height="650" version="1.1" viewBox="0 0 100 650" xmlns="http://www.w3.org/2000/svg" xmlns:cc="http://creativecommons.org/ns#" xmlns:dc="http://purl.org/dc/elements/1.1/" xmlns:rdf="http://www.w3.org/1999/02/22-rdf-syntax-ns#">
 <metadata>
  <rdf:RDF>
   <cc:Work rdf:about="">
    <dc:format>image/svg+xml</dc:format>
    <dc:type rdf:resource="http://purl.org/dc/dcmitype/StillImage"/>
    <dc:title/>
   </cc:Work>
  </rdf:RDF>
 </metadata>
 <g transform="translate(-17.929 324.76)" fill="#e00000">
  <circle cx="67.762" cy="320.1" r="4.9153"/>
  <circle cx="68.817" cy="311.92" r="4.9153"/>
  <circle cx="69.608" cy="307.7" r="4.9153"/>
  <circle cx="72.377" cy="301.9" r="4.9153"/>
  <circle cx="67.762" cy="300.19" r="4.9153"/>
  <circle cx="70.795" cy="295.71" r="4.9153"/>
  <circle cx="66.84" cy="289.77" r="4.9153"/>
  <circle cx="66.049" cy="285.29" r="4.9153"/>
  <circle cx="68.026" cy="277.78" r="4.9153"/>
  <circle cx="65.126" cy="272.9" r="4.9153"/>
  <circle cx="68.817" cy="266.04" r="4.9153"/>
  <circle cx="66.18" cy="259.58" r="4.9153"/>
  <circle cx="67.762" cy="252.99" r="4.9153"/>
  <circle cx="70.399" cy="243.63" r="4.9153"/>
  <circle cx="65.389" cy="237.17" r="4.9153"/>
  <circle cx="69.213" cy="226.89" r="4.9153"/>
  <circle cx="67.499" cy="216.48" r="4.9153"/>
  <circle cx="70.795" cy="209.22" r="4.9153"/>
  <circle cx="73.959" cy="195.91" r="4.9153"/>
  <circle cx="70.663" cy="189.84" r="4.9153"/>
  <circle cx="72.904" cy="176" r="4.9153"/>
  <circle cx="68.158" cy="166.11" r="4.9153"/>
  <circle cx="71.322" cy="159" r="4.9153"/>
  <circle cx="71.454" cy="144.23" r="4.9153"/>
  <circle cx="72.508" cy="135.79" r="4.9153"/>
  <circle cx="76.859" cy="124.32" r="4.9153"/>
  <circle cx="74.618" cy="110.22" r="4.9153"/>
  <circle cx="80.946" cy="104.68" r="4.9153"/>
  <circle cx="82.264" cy="85.565" r="4.9153"/>
  <circle cx="80.418" cy="78.973" r="4.9153"/>
  <circle cx="84.901" cy="63.944" r="4.9153"/>
  <circle cx="78.705" cy="50.233" r="4.9153"/>
  <circle cx="81.209" cy="39.687" r="4.9153"/>
  <circle cx="80.814" cy="24.789" r="4.9153"/>
 </g>
</svg>
