<?xml version="1.0" encoding="UTF-8"?>
<!-- Created with Inkscape (http://www.inkscape.org/) -->
<svg width="100" height="650" version="1.1" viewBox="0 0 100 650" xmlns="http://www.w3.org/2000/svg" xmlns:cc="http://creativecommons.org/ns#" xmlns:dc="http://purl.org/dc/elements/1.1/" xmlns:rdf="http://www.w3.org/1999/02/22-rdf-syntax-ns#">
 <metadata>
  <rdf:RDF>
   <cc:Work rdf:about="">
    <dc:format>image/svg+xml</dc:format>
    <dc:type rdf:resource="http://purl.org/dc/dcmitype/StillImage"/>
    <dc:title/>
   </cc:Work>
  </rdf:RDF>
 </metadata>
 <g transform="translate(-3.3988 114.17)" fill="#e00000">
  <circle cx="53.347" cy="530.66" r="4.9153"/>
  <circle cx="49.357" cy="521.65" r="4.9153"/>
  <circle cx="49.357" cy="515" r="4.9153"/>
  <circle cx="48.47" cy="510.12" r="4.9153"/>
  <circle cx="50.539" cy="504.8" r="4.9153"/>
  <circle cx="44.628" cy="496.82" r="4.9153"/>
  <circle cx="43.594" cy="491.35" r="4.9153"/>
  <circle cx="46.401" cy="480.57" r="4.9153"/>
  <circle cx="45.367" cy="473.32" r="4.9153"/>
  <circle cx="45.958" cy="461.95" r="4.9153"/>
  <circle cx="41.525" cy="450.12" r="4.9153"/>
  <circle cx="41.377" cy="439.48" r="4.9153"/>
  <circle cx="40.047" cy="423.38" r="4.9153"/>
  <circle cx="39.604" cy="410.37" r="4.9153"/>
  <circle cx="45.367" cy="395.15" r="4.9153"/>
  <circle cx="44.333" cy="379.34" r="4.9153"/>
  <circle cx="47.584" cy="366.93" r="4.9153"/>
  <circle cx="51.278" cy="347.86" r="4.9153"/>
  <circle cx="51.721" cy="333.68" r="4.9153"/>
  <circle cx="57.041" cy="314.91" r="4.9153"/>
  <circle cx="56.007" cy="296.14" r="4.9153"/>
  <circle cx="62.066" cy="282.84" r="4.9153"/>
  <circle cx="64.135" cy="260.97" r="4.9153"/>
  <circle cx="65.908" cy="245.75" r="4.9153"/>
  <circle cx="68.568" cy="227.87" r="4.9153"/>
  <circle cx="62.952" cy="209.69" r="4.9153"/>
  <circle cx="63.839" cy="190.04" r="4.9153"/>
  <circle cx="63.839" cy="168.76" r="4.9153"/>
  <circle cx="62.805" cy="148.22" r="4.9153"/>
  <circle cx="69.602" cy="128.12" r="4.9153"/>
  <circle cx="67.238" cy="111.57" r="4.9153"/>
  <circle cx="65.169" cy="93.394" r="4.9153"/>
  <circle cx="61.475" cy="66.942" r="4.9153"/>
  <circle cx="61.031" cy="51.869" r="4.9153"/>
  <circle cx="66.351" cy="29.26" r="4.9153"/>
 </g>
</svg>
