<?xml version="1.0" encoding="UTF-8"?>
<!-- Created with Inkscape (http://www.inkscape.org/) -->
<svg width="100" height="650" version="1.1" viewBox="0 0 100 650" xmlns="http://www.w3.org/2000/svg" xmlns:cc="http://creativecommons.org/ns#" xmlns:dc="http://purl.org/dc/elements/1.1/" xmlns:rdf="http://www.w3.org/1999/02/22-rdf-syntax-ns#">
 <metadata>
  <rdf:RDF>
   <cc:Work rdf:about="">
    <dc:format>image/svg+xml</dc:format>
    <dc:type rdf:resource="http://purl.org/dc/dcmitype/StillImage"/>
    <dc:title/>
   </cc:Work>
  </rdf:RDF>
 </metadata>
 <g transform="translate(9.9153 193.01)" fill="#e00000">
  <circle cx="40.449" cy="452.14" r="4.9153"/>
  <circle cx="39.91" cy="444.94" r="4.9153"/>
  <circle cx="38.471" cy="438.47" r="4.9153"/>
  <circle cx="42.966" cy="430.56" r="4.9153"/>
  <circle cx="37.393" cy="420.67" r="4.9153"/>
  <circle cx="39.91" cy="415.28" r="4.9153"/>
  <circle cx="37.033" cy="399.82" r="4.9153"/>
  <circle cx="39.19" cy="389.75" r="4.9153"/>
  <circle cx="40.988" cy="380.77" r="4.9153"/>
  <circle cx="41.348" cy="368.54" r="4.9153"/>
  <circle cx="45.483" cy="360.09" r="4.9153"/>
  <circle cx="47.999" cy="343.55" r="4.9153"/>
  <circle cx="48.179" cy="334.02" r="4.9153"/>
  <circle cx="55.55" cy="321.26" r="4.9153"/>
  <circle cx="54.291" cy="309.93" r="4.9153"/>
  <circle cx="59.864" cy="302.56" r="4.9153"/>
  <circle cx="59.505" cy="280.81" r="4.9153"/>
  <circle cx="54.112" cy="273.44" r="4.9153"/>
  <circle cx="56.269" cy="256" r="4.9153"/>
  <circle cx="51.775" cy="239.82" r="4.9153"/>
  <circle cx="62.381" cy="227.24" r="4.9153"/>
  <circle cx="56.449" cy="204.05" r="4.9153"/>
  <circle cx="53.213" cy="192.54" r="4.9153"/>
  <circle cx="54.471" cy="169.89" r="4.9153"/>
  <circle cx="41.348" cy="151.02" r="4.9153"/>
  <circle cx="52.494" cy="137.89" r="4.9153"/>
  <circle cx="51.954" cy="118.48" r="4.9153"/>
  <circle cx="57.168" cy="111.11" r="4.9153"/>
  <circle cx="63.999" cy="91.151" r="4.9153"/>
  <circle cx="61.123" cy="74.432" r="4.9153"/>
  <circle cx="66.876" cy="59.691" r="4.9153"/>
 </g>
</svg>
