<?xml version="1.0" encoding="UTF-8"?>
<!-- Created with Inkscape (http://www.inkscape.org/) -->
<svg width="100" height="650" version="1.1" viewBox="0 0 100 650" xmlns="http://www.w3.org/2000/svg" xmlns:cc="http://creativecommons.org/ns#" xmlns:dc="http://purl.org/dc/elements/1.1/" xmlns:rdf="http://www.w3.org/1999/02/22-rdf-syntax-ns#">
 <metadata>
  <rdf:RDF>
   <cc:Work rdf:about="">
    <dc:format>image/svg+xml</dc:format>
    <dc:type rdf:resource="http://purl.org/dc/dcmitype/StillImage"/>
    <dc:title/>
   </cc:Work>
  </rdf:RDF>
 </metadata>
 <g transform="translate(-13.435 215.84)" fill="#e00000">
  <circle cx="63.639" cy="428.74" r="4.9153"/>
  <circle cx="62.814" cy="419.43" r="4.9153"/>
  <circle cx="59.985" cy="413.89" r="4.9153"/>
  <circle cx="58.807" cy="408.35" r="4.9153"/>
  <circle cx="58.218" cy="394.8" r="4.9153"/>
  <circle cx="58.453" cy="391.14" r="4.9153"/>
  <circle cx="62.696" cy="380.18" r="4.9153"/>
  <circle cx="57.628" cy="368.4" r="4.9153"/>
  <circle cx="64.228" cy="360.86" r="4.9153"/>
  <circle cx="62.107" cy="345.3" r="4.9153"/>
  <circle cx="56.568" cy="342.24" r="4.9153"/>
  <circle cx="58.925" cy="329.04" r="4.9153"/>
  <circle cx="50.793" cy="313.95" r="4.9153"/>
  <circle cx="59.985" cy="306.41" r="4.9153"/>
  <circle cx="61.871" cy="291.8" r="4.9153"/>
  <circle cx="56.568" cy="282.49" r="4.9153"/>
  <circle cx="60.221" cy="265.75" r="4.9153"/>
  <circle cx="56.686" cy="251.84" r="4.9153"/>
  <circle cx="63.992" cy="241.12" r="4.9153"/>
  <circle cx="65.171" cy="224.15" r="4.9153"/>
  <circle cx="63.521" cy="217.9" r="4.9153"/>
  <circle cx="68.706" cy="198.11" r="4.9153"/>
  <circle cx="59.75" cy="183.96" r="4.9153"/>
  <circle cx="69.531" cy="172.65" r="4.9153"/>
  <circle cx="69.413" cy="151.67" r="4.9153"/>
  <circle cx="72.36" cy="145.54" r="4.9153"/>
  <circle cx="84.027" cy="122.92" r="4.9153"/>
  <circle cx="75.188" cy="107.01" r="4.9153"/>
  <circle cx="88.859" cy="99.347" r="4.9153"/>
  <circle cx="86.332" cy="80.338" r="4.9153"/>
  <circle cx="87.666" cy="64.338" r="4.9153"/>
 </g>
</svg>
