<?xml version="1.0" encoding="UTF-8"?>
<!-- Created with Inkscape (http://www.inkscape.org/) -->
<svg width="100" height="650" version="1.1" viewBox="0 0 100 650" xmlns="http://www.w3.org/2000/svg" xmlns:cc="http://creativecommons.org/ns#" xmlns:dc="http://purl.org/dc/elements/1.1/" xmlns:rdf="http://www.w3.org/1999/02/22-rdf-syntax-ns#">
 <metadata>
  <rdf:RDF>
   <cc:Work rdf:about="">
    <dc:format>image/svg+xml</dc:format>
    <dc:type rdf:resource="http://purl.org/dc/dcmitype/StillImage"/>
    <dc:title/>
   </cc:Work>
  </rdf:RDF>
 </metadata>
 <g transform="translate(-.51348 212.34)" fill="#e00000">
  <circle cx="49.984" cy="432.43" r="4.9153"/>
  <circle cx="52.768" cy="419.24" r="4.9153"/>
  <circle cx="53.131" cy="416.94" r="4.9153"/>
  <circle cx="55.431" cy="405.2" r="4.9153"/>
  <circle cx="49.984" cy="396.24" r="4.9153"/>
  <circle cx="55.189" cy="386.93" r="4.9153"/>
  <circle cx="53.373" cy="370.71" r="4.9153"/>
  <circle cx="50.105" cy="363.69" r="4.9153"/>
  <circle cx="51.437" cy="351.83" r="4.9153"/>
  <circle cx="43.328" cy="343.23" r="4.9153"/>
  <circle cx="47.564" cy="333.67" r="4.9153"/>
  <circle cx="41.27" cy="317.82" r="4.9153"/>
  <circle cx="40.302" cy="314.43" r="4.9153"/>
  <circle cx="42.602" cy="292.77" r="4.9153"/>
  <circle cx="33.888" cy="285.87" r="4.9153"/>
  <circle cx="42.481" cy="274.85" r="4.9153"/>
  <circle cx="38.729" cy="259.12" r="4.9153"/>
  <circle cx="34.856" cy="253.55" r="4.9153"/>
  <circle cx="34.614" cy="232.74" r="4.9153"/>
  <circle cx="34.735" cy="218.58" r="4.9153"/>
  <circle cx="40.665" cy="207.08" r="4.9153"/>
  <circle cx="41.27" cy="190.01" r="4.9153"/>
  <circle cx="43.207" cy="178.39" r="4.9153"/>
  <circle cx="42.965" cy="160" r="4.9153"/>
  <circle cx="33.041" cy="146.69" r="4.9153"/>
  <circle cx="40.181" cy="129.74" r="4.9153"/>
  <circle cx="36.187" cy="113.77" r="4.9153"/>
  <circle cx="40.06" cy="104.08" r="4.9153"/>
  <circle cx="45.748" cy="78.91" r="4.9153"/>
  <circle cx="40.06" cy="66.323" r="4.9153"/>
  <circle cx="40.302" cy="49.016" r="4.9153"/>
 </g>
</svg>
