<?xml version="1.0" encoding="UTF-8"?>
<!-- Created with Inkscape (http://www.inkscape.org/) -->
<svg width="100" height="650" version="1.1" viewBox="0 0 100 650" xmlns="http://www.w3.org/2000/svg" xmlns:cc="http://creativecommons.org/ns#" xmlns:dc="http://purl.org/dc/elements/1.1/" xmlns:rdf="http://www.w3.org/1999/02/22-rdf-syntax-ns#">
 <metadata>
  <rdf:RDF>
   <cc:Work rdf:about="">
    <dc:format>image/svg+xml</dc:format>
    <dc:type rdf:resource="http://purl.org/dc/dcmitype/StillImage"/>
    <dc:title/>
   </cc:Work>
  </rdf:RDF>
 </metadata>
 <g transform="translate(1.5699 178.11)" fill="#e00000">
  <circle cx="48.275" cy="466.53" r="4.9153"/>
  <circle cx="47.097" cy="457.76" r="4.9153"/>
  <circle cx="45.397" cy="449.65" r="4.9153"/>
  <circle cx="41.734" cy="445.2" r="4.9153"/>
  <circle cx="43.827" cy="433.69" r="4.9153"/>
  <circle cx="37.809" cy="423.48" r="4.9153"/>
  <circle cx="42.126" cy="413.15" r="4.9153"/>
  <circle cx="40.556" cy="394.96" r="4.9153"/>
  <circle cx="43.565" cy="387.25" r="4.9153"/>
  <circle cx="48.406" cy="370.5" r="4.9153"/>
  <circle cx="41.472" cy="361.21" r="4.9153"/>
  <circle cx="53.639" cy="353.49" r="4.9153"/>
  <circle cx="51.284" cy="337.01" r="4.9153"/>
  <circle cx="48.929" cy="330.86" r="4.9153"/>
  <circle cx="52.854" cy="312.54" r="4.9153"/>
  <circle cx="42.519" cy="303.78" r="4.9153"/>
  <circle cx="46.705" cy="292.27" r="4.9153"/>
  <circle cx="40.818" cy="274.08" r="4.9153"/>
  <circle cx="39.64" cy="260.34" r="4.9153"/>
  <circle cx="42.649" cy="245.04" r="4.9153"/>
  <circle cx="38.201" cy="229.99" r="4.9153"/>
  <circle cx="46.967" cy="217.83" r="4.9153"/>
  <circle cx="39.117" cy="198.33" r="4.9153"/>
  <circle cx="42.519" cy="187.6" r="4.9153"/>
  <circle cx="48.406" cy="162.36" r="4.9153"/>
  <circle cx="42.257" cy="152.15" r="4.9153"/>
  <circle cx="50.63" cy="133.57" r="4.9153"/>
  <circle cx="44.35" cy="110.55" r="4.9153"/>
  <circle cx="45.266" cy="102.31" r="4.9153"/>
  <circle cx="53.508" cy="68.03" r="4.9153"/>
  <circle cx="44.219" cy="59.003" r="4.9153"/>
 </g>
</svg>
