<?xml version="1.0" encoding="UTF-8"?>
<!-- Created with Inkscape (http://www.inkscape.org/) -->
<svg width="100" height="650" version="1.1" viewBox="0 0 100 650" xmlns="http://www.w3.org/2000/svg" xmlns:cc="http://creativecommons.org/ns#" xmlns:dc="http://purl.org/dc/elements/1.1/" xmlns:rdf="http://www.w3.org/1999/02/22-rdf-syntax-ns#">
 <metadata>
  <rdf:RDF>
   <cc:Work rdf:about="">
    <dc:format>image/svg+xml</dc:format>
    <dc:type rdf:resource="http://purl.org/dc/dcmitype/StillImage"/>
    <dc:title/>
   </cc:Work>
  </rdf:RDF>
 </metadata>
 <g transform="translate(-7.9654 249.58)" fill="#e00000">
  <circle cx="57.624" cy="395.35" r="4.9153"/>
  <circle cx="55.458" cy="385.39" r="4.9153"/>
  <circle cx="56.757" cy="373.69" r="4.9153"/>
  <circle cx="56.108" cy="365.24" r="4.9153"/>
  <circle cx="59.14" cy="358.74" r="4.9153"/>
  <circle cx="54.808" cy="348.56" r="4.9153"/>
  <circle cx="54.808" cy="327.98" r="4.9153"/>
  <circle cx="48.959" cy="319.31" r="4.9153"/>
  <circle cx="51.342" cy="309.78" r="4.9153"/>
  <circle cx="46.792" cy="293.54" r="4.9153"/>
  <circle cx="53.508" cy="290.07" r="4.9153"/>
  <circle cx="57.407" cy="275.77" r="4.9153"/>
  <circle cx="56.757" cy="267.11" r="4.9153"/>
  <circle cx="66.722" cy="255.84" r="4.9153"/>
  <circle cx="60.657" cy="240.03" r="4.9153"/>
  <circle cx="65.639" cy="234.61" r="4.9153"/>
  <circle cx="68.456" cy="213.82" r="4.9153"/>
  <circle cx="63.473" cy="203.85" r="4.9153"/>
  <circle cx="67.372" cy="188.9" r="4.9153"/>
  <circle cx="57.407" cy="172.22" r="4.9153"/>
  <circle cx="58.707" cy="163.12" r="4.9153"/>
  <circle cx="64.773" cy="139.29" r="4.9153"/>
  <circle cx="59.14" cy="132.8" r="4.9153"/>
  <circle cx="64.556" cy="118.28" r="4.9153"/>
  <circle cx="58.924" cy="101.82" r="4.9153"/>
  <circle cx="58.274" cy="89.685" r="4.9153"/>
  <circle cx="57.407" cy="70.622" r="4.9153"/>
  <circle cx="47.009" cy="59.79" r="4.9153"/>
  <circle cx="55.024" cy="43.976" r="4.9153"/>
  <circle cx="47.226" cy="27.079" r="4.9153"/>
  <circle cx="51.558" cy="21.013" r="4.9153"/>
 </g>
</svg>
