<?xml version="1.0" encoding="UTF-8"?>
<!-- Created with Inkscape (http://www.inkscape.org/) -->
<svg width="100" height="650" version="1.1" viewBox="0 0 100 650" xmlns="http://www.w3.org/2000/svg" xmlns:cc="http://creativecommons.org/ns#" xmlns:dc="http://purl.org/dc/elements/1.1/" xmlns:rdf="http://www.w3.org/1999/02/22-rdf-syntax-ns#">
 <metadata>
  <rdf:RDF>
   <cc:Work rdf:about="">
    <dc:format>image/svg+xml</dc:format>
    <dc:type rdf:resource="http://purl.org/dc/dcmitype/StillImage"/>
    <dc:title/>
   </cc:Work>
  </rdf:RDF>
 </metadata>
 <g transform="translate(1.5955 304.31)" fill="#e00000">
  <circle cx="47.76" cy="340.52" r="4.9153"/>
  <circle cx="48.606" cy="330.18" r="4.9153"/>
  <circle cx="54.435" cy="323.98" r="4.9153"/>
  <circle cx="52.836" cy="312.79" r="4.9153"/>
  <circle cx="50.58" cy="306.77" r="4.9153"/>
  <circle cx="53.118" cy="295.3" r="4.9153"/>
  <circle cx="45.691" cy="288.16" r="4.9153"/>
  <circle cx="49.828" cy="280.63" r="4.9153"/>
  <circle cx="48.512" cy="269.07" r="4.9153"/>
  <circle cx="49.64" cy="262.68" r="4.9153"/>
  <circle cx="52.742" cy="248.01" r="4.9153"/>
  <circle cx="43.529" cy="242.28" r="4.9153"/>
  <circle cx="53.87" cy="235.13" r="4.9153"/>
  <circle cx="50.016" cy="220.65" r="4.9153"/>
  <circle cx="49.452" cy="215.95" r="4.9153"/>
  <circle cx="52.554" cy="200.82" r="4.9153"/>
  <circle cx="46.631" cy="196.02" r="4.9153"/>
  <circle cx="51.708" cy="185.21" r="4.9153"/>
  <circle cx="50.486" cy="170.17" r="4.9153"/>
  <circle cx="54.059" cy="166.88" r="4.9153"/>
  <circle cx="57.255" cy="150.52" r="4.9153"/>
  <circle cx="45.973" cy="144.88" r="4.9153"/>
  <circle cx="50.298" cy="132.84" r="4.9153"/>
  <circle cx="46.913" cy="119.12" r="4.9153"/>
  <circle cx="45.033" cy="113.29" r="4.9153"/>
  <circle cx="47.289" cy="92.511" r="4.9153"/>
  <circle cx="39.862" cy="87.904" r="4.9153"/>
  <circle cx="43.059" cy="77.28" r="4.9153"/>
  <circle cx="39.674" cy="60.075" r="4.9153"/>
  <circle cx="44.845" cy="53.776" r="4.9153"/>
  <circle cx="49.64" cy="39.11" r="4.9153"/>
 </g>
</svg>
